<svg xmlns="http://www.w3.org/2000/svg" xmlns:xlink="http://www.w3.org/1999/xlink" contentStyleType="text/css" data-diagram-type="DESCRIPTION" height="152px" preserveAspectRatio="none" style="width:188px;height:152px;background:#FFFFFF;" version="1.1" viewBox="0 0 188 152" width="188px" zoomAndPan="magnify">
  <defs/>
  <g font-family="sans-serif" lengthAdjust="spacing">
    <!--entity B-->
    <g class="entity" data-qualified-name="B" data-source-line="8" id="ent0001">
      <rect fill="#F1F1F1" height="44" rx="2.5" ry="2.5" style="stroke:#181818;stroke-width:0.5;" width="47.788" x="84" y="12"/>
      <rect fill="#F1F1F1" height="10" style="stroke:#181818;stroke-width:0.5;" width="15" x="111.788" y="17"/>
      <rect fill="#F1F1F1" height="2" style="stroke:#181818;stroke-width:0.5;" width="4" x="109.788" y="19"/>
      <rect fill="#F1F1F1" height="2" style="stroke:#181818;stroke-width:0.5;" width="4" x="109.788" y="23"/>
      <text fill="#000" font-size="14" x="99" y="42.889">b</text>
    </g>
    <!--entity B1-->
    <g class="entity" data-qualified-name="B1" data-source-line="12" id="ent0002">
      <rect fill="#F1F1F1" height="44" rx="2.5" ry="2.5" style="stroke:#181818;stroke-width:0.5;" width="55.575" x="6" y="92"/>
      <rect fill="#F1F1F1" height="10" style="stroke:#181818;stroke-width:0.5;" width="15" x="41.575" y="97"/>
      <rect fill="#F1F1F1" height="2" style="stroke:#181818;stroke-width:0.5;" width="4" x="39.575" y="99"/>
      <rect fill="#F1F1F1" height="2" style="stroke:#181818;stroke-width:0.5;" width="4" x="39.575" y="103"/>
      <text fill="#000" font-size="14" textLength="15.575" x="21" y="122.889">b1</text>
    </g>
    <!--entity B2-->
    <g class="entity" data-qualified-name="B2" data-source-line="13" id="ent0003">
      <rect fill="#F1F1F1" height="44" rx="2.5" ry="2.5" style="stroke:#181818;stroke-width:0.5;" width="55.575" x="80" y="92"/>
      <rect fill="#F1F1F1" height="10" style="stroke:#181818;stroke-width:0.5;" width="15" x="115.575" y="97"/>
      <rect fill="#F1F1F1" height="2" style="stroke:#181818;stroke-width:0.5;" width="4" x="113.575" y="99"/>
      <rect fill="#F1F1F1" height="2" style="stroke:#181818;stroke-width:0.5;" width="4" x="113.575" y="103"/>
      <text fill="#000" font-size="14" textLength="15.575" x="95" y="122.889">b2</text>
    </g>
    <!--entity A-->
    <g class="entity" data-qualified-name="A" data-source-line="17" id="ent0006">
      <ellipse cx="163" cy="111" fill="#F1F1F1" rx="8" ry="8" style="stroke:#181818;stroke-width:0.5;"/>
      <text fill="#000" font-size="14" x="158.319" y="138.889">A</text>
    </g>
    <g class="link" data-entity-1="ent0001" data-entity-2="ent0002" data-link-type="dependency" id="lnk4">
      <polygon fill="#181818" points="87.779,56.314,78.683,60.09,84.338,59.941,84.487,65.596,87.779,56.314" style="stroke:#181818;stroke-width:1;stroke-linejoin:miter;stroke-miterlimit:10;"/>
      <path d="M84.338,59.941 C73.811,71.037 64.426,80.929 53.94,91.982" fill="none" style="stroke:#181818;stroke-width:1;"/>
    </g>
    <g class="link" data-entity-1="ent0001" data-entity-2="ent0003" data-link-type="dependency" id="lnk5">
      <polygon fill="#181818" points="108,56.314,104,65.314,108,61.314,112,65.314,108,56.314" style="stroke:#181818;stroke-width:1;stroke-linejoin:miter;stroke-miterlimit:10;"/>
      <path d="M108,61.314 C108,72.41 108,80.929 108,91.982" fill="none" style="stroke:#181818;stroke-width:1;"/>
    </g>
    <g class="link" data-entity-1="ent0001" data-entity-2="ent0006" data-link-type="dependency" id="lnk7">
      <polygon fill="#181818" points="123.029,56.314,124.946,65.974,125.91,60.4,131.484,61.364,123.029,56.314" style="stroke:#181818;stroke-width:1;stroke-linejoin:miter;stroke-miterlimit:10;"/>
      <path d="M125.91,60.4 C136.215,75.015 146.603,89.746 154.958,101.596" fill="none" style="stroke:#181818;stroke-width:1;"/>
    </g>
  </g>
</svg>
