<svg xmlns="http://www.w3.org/2000/svg" xmlns:xlink="http://www.w3.org/1999/xlink" contentStyleType="text/css" data-diagram-type="CLASS" height="160px" preserveAspectRatio="none" style="width:341px;height:160px;background:#FFFFFF;" version="1.1" viewBox="0 0 341 160" width="341px" zoomAndPan="magnify">
  <defs/>
  <g font-family="sans-serif" lengthAdjust="spacing">
    <!--class class1-->
    <g class="entity" data-qualified-name="class1" data-source-line="1" id="ent0001">
      <rect fill="#F1F1F1" height="48" rx="2.5" ry="2.5" style="stroke:#181818;stroke-width:0.5;" width="71.725" x="174" y="12"/>
      <ellipse cx="189" cy="28" fill="#ADD1B2" rx="11" ry="11" style="stroke:#181818;stroke-width:1;"/>
      <text fill="#000" font-family="monospace" font-size="14" x="184" y="33">C</text>
      <text fill="#000" font-size="14" textLength="39.725" x="203" y="31.889">class1</text>
      <line style="stroke:#181818;stroke-width:0.5;" x1="175" x2="244.725" y1="44" y2="44"/>
      <line style="stroke:#181818;stroke-width:0.5;" x1="175" x2="244.725" y1="52" y2="52"/>
    </g>
    <!--class class2-->
    <g class="entity" data-qualified-name="class2" data-source-line="1" id="ent0002">
      <rect fill="#F1F1F1" height="48" rx="2.5" ry="2.5" style="stroke:#181818;stroke-width:0.5;" width="71.725" x="264" y="12"/>
      <ellipse cx="279" cy="28" fill="#ADD1B2" rx="11" ry="11" style="stroke:#181818;stroke-width:1;"/>
      <text fill="#000" font-family="monospace" font-size="14" x="274" y="33">C</text>
      <text fill="#000" font-size="14" textLength="39.725" x="293" y="31.889">class2</text>
      <line style="stroke:#181818;stroke-width:0.5;" x1="265" x2="334.725" y1="44" y2="44"/>
      <line style="stroke:#181818;stroke-width:0.5;" x1="265" x2="334.725" y1="52" y2="52"/>
    </g>
    <!--class class3-->
    <g class="entity" data-qualified-name="class3" data-source-line="2" id="ent0004">
      <rect fill="#F1F1F1" height="48" rx="2.5" ry="2.5" style="stroke:#181818;stroke-width:0.5;" width="71.725" x="174" y="96"/>
      <ellipse cx="189" cy="112" fill="#ADD1B2" rx="11" ry="11" style="stroke:#181818;stroke-width:1;"/>
      <text fill="#000" font-family="monospace" font-size="14" x="184" y="117">C</text>
      <text fill="#000" font-size="14" textLength="39.725" x="203" y="115.889">class3</text>
      <line style="stroke:#181818;stroke-width:0.5;" x1="175" x2="244.725" y1="128" y2="128"/>
      <line style="stroke:#181818;stroke-width:0.5;" x1="175" x2="244.725" y1="136" y2="136"/>
    </g>
    <g class="link" data-entity-1="ent0001" data-entity-2="ent0002" data-link-type="composition" id="lnk3">
      <polygon fill="#181818" points="246.211,36,252.211,40,258.211,36,252.211,32,246.211,36" style="stroke:#181818;stroke-width:1;stroke-linejoin:miter;stroke-miterlimit:10;"/>
      <path d="M258.211,36 C264.094,36 257.977,36 263.86,36" fill="none" style="stroke:#181818;stroke-width:1;"/>
      <text fill="#000" font-size="13" textLength="202.881" x="60.86" y="47.111">this is a very very long string for the tests</text>
      <text fill="#000" font-size="13" x="247.211" y="32.111">1</text>
    </g>
    <g class="link" data-entity-1="ent0001" data-entity-2="ent0004" data-link-type="composition" id="lnk5">
      <polygon fill="#181818" points="210,60.279,206,66.279,210,72.279,214,66.279,210,60.279" style="stroke:#181818;stroke-width:1;stroke-linejoin:miter;stroke-miterlimit:10;"/>
      <path d="M210,72.279 C210,83.453 210,84.802 210,95.947" fill="none" style="stroke:#181818;stroke-width:1;"/>
      <text fill="#000" font-size="13" textLength="202.881" x="7" y="92.058">this is a very very long string for the tests</text>
      <text fill="#000" font-size="13" x="202" y="71.39">1</text>
    </g>
  </g>
</svg>
