<svg xmlns="http://www.w3.org/2000/svg" width="8" height="8" viewBox="0 0 8 8">
  <path d="M4.094 0c-.06 0-.105.044-.125.094l-.938 1.813c-.02.05-.065.094-.125.094h-1.406c-.83 0-1.5.67-1.5 1.5v4.406c0 .06.034.094.094.094h7.813c.06 0 .094-.034.094-.094v-5.813c0-.06-.034-.094-.094-.094h-.813c-.06 0-.105-.044-.125-.094l-.938-1.813c-.02-.05-.065-.094-.125-.094h-1.813zm-2.594 3c.28 0 .5.22.5.5s-.22.5-.5.5-.5-.22-.5-.5.22-.5.5-.5zm3.5 0c1.1 0 2 .9 2 2s-.9 2-2 2-2-.9-2-2 .9-2 2-2zm0 1c-.55 0-1 .45-1 1s.45 1 1 1 1-.45 1-1-.45-1-1-1z"
  />
</svg>