<svg xmlns="http://www.w3.org/2000/svg" width="8" height="8" viewBox="0 0 8 8">
  <path d="M4 0c-2.21 0-4 1.79-4 4s1.79 4 4 4 4-1.79 4-4-1.79-4-4-4zm0 1c.333 0 .637.086.938.188-.214.197-.45.383-.406.563.04.18.688.13.688.5 0 .27-.425.346-.125.656.35.35-.636.978-.656 1.438-.03.83.841.969 1.531.969.424 0 .503.195.469.438-.546.758-1.438 1.25-2.438 1.25-.378 0-.729-.09-1.063-.219.224-.442-.313-1.344-.781-1.625-.226-.226-.689-.114-.969-.219-.092-.271-.178-.545-.188-.844.031-.05.081-.094.156-.094.19 0 .454.374.594.344.18-.04-.742-1.313-.313-1.563.2-.12.609.394.469-.156-.12-.51.366-.276.656-.406.26-.11.455-.414.125-.594l-.219-.188c.45-.27.972-.438 1.531-.438zm2.313 1.094c.184.222.323.481.438.75l-.188.219c-.29.27-.327-.212-.438-.313-.13-.11-.638.025-.688-.125-.077-.181.499-.418.875-.531z"
  />
</svg>