<svg xmlns="http://www.w3.org/2000/svg" width="8" height="8" viewBox="0 0 8 8">
  <path d="M5.5 0c-.51 0-.949.355-1.219.875.45.54.719 1.275.719 2.125 0 .29-.034.574-.094.844.18.11.374.156.594.156.83 0 1.5-.9 1.5-2s-.67-2-1.5-2zm-3 1c-.828 0-1.5.895-1.5 2s.672 2 1.5 2 1.5-.895 1.5-2-.672-2-1.5-2zm4.75 3.156c-.43.51-1.018.824-1.688.844.27.38.438.844.438 1.344v.656h2v-1.656c0-.52-.31-.968-.75-1.188zm-6.5 1c-.44.22-.75.668-.75 1.188v1.656h5v-1.656c0-.52-.31-.968-.75-1.188-.44.53-1.06.844-1.75.844s-1.31-.314-1.75-.844z"
  />
</svg>