<svg xmlns="http://www.w3.org/2000/svg" width="8" height="8" viewBox="0 0 8 8">
  <path d="M3.969 0c-.127.011-.259.083-.344.188l-2.344 2.813h-1.281v1h1v3.656c0 .18.164.344.344.344h5.313c.18 0 .344-.164.344-.344v-3.656h1v-1h-1.281c-.274-.329-2.387-2.866-2.406-2.875-.105-.09-.216-.136-.344-.125zm.031 1.281l1.438 1.719h-2.875l1.438-1.719zm-1.5 3.719c.28 0 .5.22.5.5v1c0 .28-.22.5-.5.5s-.5-.22-.5-.5v-1c0-.28.22-.5.5-.5zm3 0c.28 0 .5.22.5.5v1c0 .28-.22.5-.5.5s-.5-.22-.5-.5v-1c0-.28.22-.5.5-.5z"
  />
</svg>