<svg xmlns="http://www.w3.org/2000/svg" width="8" height="8" viewBox="0 0 8 8">
  <path d="M1.344 0a.502.502 0 0 0 .156 1h.5v1.406c-.088.172-1.194 2.313-1.656 3.094-.153.268-.344.612-.344 1.063 0 .383.139.764.406 1.031.26.26.643.406 1.031.406h5.125c.383 0 .764-.139 1.031-.406.26-.26.406-.643.406-1.031 0-.452-.194-.801-.344-1.063-.463-.78-1.568-2.922-1.656-3.094v-1.406h.5a.5.5 0 1 0 0-1h-5a.5.5 0 0 0-.094 0 .502.502 0 0 0-.063 0zm1.656 1h2v1.625l.063.094s.652 1.233 1.219 2.281h-4.563c.567-1.049 1.219-2.281 1.219-2.281l.063-.094v-1.625z"
  />
</svg>