<svg xmlns="http://www.w3.org/2000/svg" width="8" height="8" viewBox="0 0 8 8">
  <path d="M3.5 0c-1.19 0-1.978 1.69-1.188 2.5l-.281.219-1.313-.656a.5.5 0 0 0-.344-.063.5.5 0 0 0-.094.938l1.156.563c-.09.156-.186.328-.25.5h-.688a.5.5 0 0 0-.094 0 .502.502 0 1 0 .094 1h.5c0 .227.023.445.063.656l-.781.406a.5.5 0 1 0 .438.875l.656-.344c.245.46.59.844 1 1.094.35-.19.625-.439.625-.719v-1.438a.5.5 0 0 0 0-.094v-.813a.5.5 0 0 0 0-.219c.045-.231.254-.406.5-.406.28 0 .5.22.5.5v.875a.5.5 0 0 0 0 .094v.063a.5.5 0 0 0 0 .094v1.344c0 .27.275.497.625.688.41-.245.755-.604 1-1.063l.656.344a.5.5 0 1 0 .438-.875l-.781-.406c.04-.211.063-.429.063-.656h.5a.5.5 0 1 0 0-1h-.688c-.064-.172-.16-.344-.25-.5l1.156-.563a.5.5 0 0 0-.313-.938.5.5 0 0 0-.125.063l-1.313.656-.281-.219c.78-.83.003-2.5-1.188-2.5z"
  />
</svg>