<svg xmlns="http://www.w3.org/2000/svg" width="8" height="8" viewBox="0 0 8 8">
  <path d="M1.5 0c-.828 0-1.5.672-1.5 1.5 0 .656.414 1.202 1 1.406v2.188c-.586.204-1 .75-1 1.406 0 .828.672 1.5 1.5 1.5s1.5-.672 1.5-1.5c0-.595-.341-1.101-.844-1.344.09-.09.205-.156.344-.156h2c.823 0 1.5-.677 1.5-1.5v-.594c.586-.204 1-.75 1-1.406 0-.828-.672-1.5-1.5-1.5s-1.5.672-1.5 1.5c0 .656.414 1.202 1 1.406v.594c0 .277-.223.5-.5.5h-2c-.171 0-.346.04-.5.094v-1.188c.586-.204 1-.75 1-1.406 0-.828-.672-1.5-1.5-1.5z"
  />
</svg>