<svg xmlns="http://www.w3.org/2000/svg" width="8" height="8" viewBox="0 0 8 8">
  <path d="M4 0c-2.21 0-4 1.79-4 4s1.79 4 4 4 4-1.79 4-4-1.79-4-4-4zm0 1c.33 0 .64.09.94.19-.21.2-.45.38-.41.56.04.18.69.13.69.5 0 .27-.42.35-.13.66.35.35-.64.98-.66 1.44-.03.83.84.97 1.53.97.42 0 .53.2.5.44-.54.77-1.46 1.25-2.47 1.25-.38 0-.73-.09-1.06-.22.22-.44-.28-1.31-.75-1.59-.23-.23-.72-.14-1-.25-.09-.27-.18-.54-.19-.84.03-.05.08-.09.16-.09.19 0 .45.38.59.34.18-.04-.74-1.31-.31-1.56.2-.12.6.39.47-.16-.12-.51.36-.28.66-.41.26-.11.45-.41.13-.59-.06-.03-.13-.1-.22-.19.45-.27.97-.44 1.53-.44zm2.31 1.09c.18.22.32.46.44.72 0 .01 0 .02 0 .03-.04.07-.11.11-.22.22-.28.28-.32-.21-.44-.31-.13-.12-.6.02-.66-.13-.07-.18.5-.42.88-.53z"
  />
</svg>