<svg xmlns="http://www.w3.org/2000/svg" width="8" height="8" viewBox="0 0 8 8">
  <path d="M2 0v1h-1v1h2v-2h-1zm3.875.031c-.184.01-.354.03-.531.094-.27.095-.531.25-.75.469l-.438.438a.5.5 0 1 0 .688.688l.438-.438c.101-.101.245-.173.375-.219.352-.126.78-.064 1.063.219.395.389.4 1.037 0 1.438l-1.5 1.5a.5.5 0 1 0 .688.688l1.5-1.5c.78-.78.785-2.041 0-2.813-.279-.279-.606-.452-.969-.531-.181-.039-.379-.041-.563-.031zm-3.594 2.906a.5.5 0 0 0-.188.156l-1.5 1.5c-.78.78-.785 2.041 0 2.813.557.557 1.355.722 2.063.469.27-.095.531-.25.75-.469l.438-.438a.5.5 0 1 0-.688-.688l-.438.438c-.101.101-.245.173-.375.219-.352.126-.78.064-1.063-.219-.395-.389-.4-1.037 0-1.438l1.5-1.5a.5.5 0 0 0-.438-.844.5.5 0 0 0-.063 0zm2.719 3.063v2h1v-1h1v-1h-2z"
  />
</svg>