<svg xmlns="http://www.w3.org/2000/svg" width="8" height="8" viewBox="0 0 8 8">
  <path d="M5.875.031c-.184.01-.354.03-.531.094-.27.095-.531.25-.75.469a.5.5 0 1 0 .688.688c.101-.101.245-.173.375-.219.352-.126.78-.064 1.063.219.395.389.4 1.037 0 1.438l-1.5 1.5c-.434.434-.799.483-1.063.469-.264-.015-.406-.125-.406-.125a.504.504 0 1 0-.5.875s.34.222.844.25c.504.028 1.197-.165 1.813-.781l1.5-1.5c.78-.78.785-2.041 0-2.813-.279-.279-.606-.452-.969-.531-.181-.039-.379-.041-.563-.031zm-2 2.313c-.501-.019-1.186.155-1.781.75l-1.5 1.5c-.78.78-.785 2.041 0 2.813.557.557 1.355.722 2.063.469.27-.095.531-.25.75-.469a.5.5 0 1 0-.688-.688c-.101.101-.245.173-.375.219-.352.126-.78.064-1.063-.219-.395-.389-.4-1.037 0-1.438l1.5-1.5c.405-.405.752-.448 1.031-.438.279.011.469.094.469.094a.5.5 0 1 0 .438-.875s-.343-.199-.844-.219z"
  />
</svg>