<svg xmlns="http://www.w3.org/2000/svg" width="8" height="8" viewBox="0 0 8 8">
  <path d="M5 0c-.514 0-1.021.201-1.406.594l-2.781 2.719c-1.07 1.07-1.07 2.805 0 3.875 1.07 1.07 2.805 1.07 3.875 0l1.25-1.25-.688-.688-.906.875-.344.375c-.69.69-1.81.69-2.5 0-.682-.682-.668-1.778 0-2.469l2.781-2.719v-.031c.389-.395 1.037-.4 1.438 0 .388.381.378 1.006 0 1.406l-2.5 2.469c-.095.095-.28.095-.375 0-.095-.095-.095-.28 0-.375l.375-.344.594-.625-.688-.688-.875.875-.094.094c-.485.485-.485 1.265 0 1.75.485.485 1.265.485 1.75 0l2.5-2.438c.78-.78.785-2.041 0-2.813-.39-.39-.893-.594-1.406-.594z"
  />
</svg>