<svg xmlns="http://www.w3.org/2000/svg" width="8" height="8" viewBox="0 0 8 8">
  <path d="M3 0c-.28 0-.539.101-.719.281-.18.18-.281.439-.281.719 0 .28.181.479.281.719.03.06.063.161.063.281h-2.344v6h2.344c0-.12-.011-.221-.031-.281-.11-.24-.313-.439-.313-.719 0-.28.101-.539.281-.719.18-.18.439-.281.719-.281.28 0 .539.101.719.281.18.18.281.439.281.719 0 .28-.181.479-.281.719-.03.06-.063.161-.063.281h2.344v-2.344c.12 0 .221.011.281.031.24.11.439.313.719.313.28 0 .539-.101.719-.281.18-.18.281-.439.281-.719 0-.28-.101-.539-.281-.719-.18-.18-.439-.281-.719-.281-.28 0-.479.181-.719.281-.06.03-.161.063-.281.063v-2.344h-2.344c0-.12.011-.221.031-.281.11-.24.313-.439.313-.719 0-.28-.101-.539-.281-.719-.18-.18-.439-.281-.719-.281z"
  />
</svg>