<svg xmlns="http://www.w3.org/2000/svg" width="8" height="8" viewBox="0 0 8 8">
  <path d="M4.5 0c-1.21 0-2.27.86-2.5 2-1.1 0-2 .9-2 2 0 .52.201 1.015.531 1.375.26-.22.599-.375.969-.375.2 0 .393.055.563.125.17-.64.748-1.125 1.438-1.125s1.268.485 1.438 1.125c.17-.07.362-.125.563-.125.63 0 1.155.388 1.375.938.64-.17 1.125-.747 1.125-1.438 0-.65-.42-1.29-1-1.5v-.5c0-1.38-1.12-2.5-2.5-2.5zm-1.156 5a.5.5 0 0 0-.344.5v2a.5.5 0 1 0 1 0v-2a.5.5 0 0 0-.594-.5.5.5 0 0 0-.063 0zm-2 1a.5.5 0 0 0-.344.5v1a.5.5 0 1 0 1 0v-1a.5.5 0 0 0-.594-.5.5.5 0 0 0-.063 0zm4 0a.5.5 0 0 0-.344.5v1a.5.5 0 1 0 1 0v-1a.5.5 0 0 0-.594-.5.5.5 0 0 0-.063 0z"
  />
</svg>