<svg xmlns="http://www.w3.org/2000/svg" width="8" height="8" viewBox="0 0 8 8">
  <path d="M.09 0c-.06 0-.09.04-.09.09v1.91h2v-1.91c0-.06-.04-.09-.09-.09h-1.81zm6 0c-.05 0-.09.04-.09.09v1.91h2v-1.91c0-.06-.04-.09-.09-.09h-1.81zm-3 1c-.06 0-.09.04-.09.09v.91h2v-.91c0-.05-.04-.09-.09-.09h-1.81zm-3.09 2v1h8v-1h-8zm0 2v1.91c0 .05.04.09.09.09h1.81c.05 0 .09-.04.09-.09v-1.91h-2zm3 0v.91c0 .05.04.09.09.09h1.81c.05 0 .09-.04.09-.09v-.91h-2zm3 0v1.91c0 .05.04.09.09.09h1.81c.05 0 .09-.04.09-.09v-1.91h-2z"
  />
</svg>