<svg xmlns="http://www.w3.org/2000/svg" width="8" height="8" viewBox="0 0 8 8">
  <path d="M.094 0c-.06 0-.094.034-.094.094v1.906h2v-1.906c0-.06-.034-.094-.094-.094h-1.813zm6 0c-.06 0-.094.034-.094.094v1.906h2v-1.906c0-.06-.034-.094-.094-.094h-1.813zm-3 1c-.06 0-.094.034-.094.094v.906h2v-.906c0-.06-.034-.094-.094-.094h-1.813zm-3.094 2v1h8v-1h-8zm0 2v1.906c0 .06.034.094.094.094h1.813c.06 0 .094-.034.094-.094v-1.906h-2zm3 0v.906c0 .06.034.094.094.094h1.813c.06 0 .094-.034.094-.094v-.906h-2zm3 0v1.906c0 .06.034.094.094.094h1.813c.06 0 .094-.034.094-.094v-1.906h-2z"
  />
</svg>