<svg xmlns="http://www.w3.org/2000/svg" width="8" height="8" viewBox="0 0 8 8">
  <path d="M0 0v1h8v-1h-8zm.094 2c-.06 0-.094.034-.094.094v4.813c0 .06.034.094.094.094h1.813c.06 0 .094-.034.094-.094v-4.813c0-.06-.034-.094-.094-.094h-1.813zm3 0c-.06 0-.094.034-.094.094v2.813c0 .06.034.094.094.094h1.813c.06 0 .094-.034.094-.094v-2.813c0-.06-.034-.094-.094-.094h-1.813zm3 0c-.06 0-.094.034-.094.094v4.813c0 .06.034.094.094.094h1.813c.06 0 .094-.034.094-.094v-4.813c0-.06-.034-.094-.094-.094h-1.813z"
  />
</svg>