<?plantuml 1.2026.3beta1?><svg xmlns="http://www.w3.org/2000/svg" xmlns:xlink="http://www.w3.org/1999/xlink" contentStyleType="text/css" data-diagram-type="SEQUENCE" height="347px" preserveAspectRatio="none" style="width:405px;height:347px;background:#FFFFFF;" version="1.1" viewBox="0 0 405 347" width="405px" zoomAndPan="magnify"><defs/><g><g class="participant-lifeline" data-entity-uid="part1" data-qualified-name="Alice" id="part1-lifeline"><g><title>Alice</title><rect fill="#000000" fill-opacity="0.00000" height="276" width="8" x="24.3618" y="36.4883"/><line style="stroke:#181818;stroke-width:0.5;stroke-dasharray:5,5;" x1="28" x2="28" y1="36.4883" y2="312.4883"/></g></g><g class="participant-lifeline" data-entity-uid="part2" data-qualified-name="Bob" id="part2-lifeline"><g><title>Bob</title><rect fill="#000000" fill-opacity="0.00000" height="276" width="8" x="376.1348" y="36.4883"/><line style="stroke:#181818;stroke-width:0.5;stroke-dasharray:5,5;" x1="379.4028" x2="379.4028" y1="36.4883" y2="312.4883"/></g></g><g class="participant participant-head" data-entity-uid="part1" data-qualified-name="Alice" id="part1-head"><rect fill="#E2E2F0" height="30.4883" rx="2.5" ry="2.5" style="stroke:#181818;stroke-width:0.5;" width="46.7236" x="5" y="5"/><text fill="#000000" font-family="sans-serif" font-size="14" lengthAdjust="spacing" textLength="32.7236" x="12" y="25.5352">Alice</text></g><g class="participant participant-tail" data-entity-uid="part1" data-qualified-name="Alice" id="part1-tail"><rect fill="#E2E2F0" height="30.4883" rx="2.5" ry="2.5" style="stroke:#181818;stroke-width:0.5;" width="46.7236" x="5" y="311.4883"/><text fill="#000000" font-family="sans-serif" font-size="14" lengthAdjust="spacing" textLength="32.7236" x="12" y="332.0234">Alice</text></g><g class="participant participant-head" data-entity-uid="part2" data-qualified-name="Bob" id="part2-head"><rect fill="#E2E2F0" height="30.4883" rx="2.5" ry="2.5" style="stroke:#181818;stroke-width:0.5;" width="39.4639" x="360.4028" y="5"/><text fill="#000000" font-family="sans-serif" font-size="14" lengthAdjust="spacing" textLength="25.4639" x="367.4028" y="25.5352">Bob</text></g><g class="participant participant-tail" data-entity-uid="part2" data-qualified-name="Bob" id="part2-tail"><rect fill="#E2E2F0" height="30.4883" rx="2.5" ry="2.5" style="stroke:#181818;stroke-width:0.5;" width="39.4639" x="360.4028" y="311.4883"/><text fill="#000000" font-family="sans-serif" font-size="14" lengthAdjust="spacing" textLength="25.4639" x="367.4028" y="332.0234">Bob</text></g><g class="message" data-entity-1="part1" data-entity-2="part2" id="msg1"><polygon fill="#181818" points="368.1348,290.4883,378.1348,294.4883,368.1348,298.4883,372.1348,294.4883" style="stroke:#181818;stroke-width:1;"/><line style="stroke:#181818;stroke-width:1;" x1="28.3618" x2="374.1348" y1="294.4883" y2="294.4883"/><text fill="#000000" font-family="sans-serif" font-size="13" lengthAdjust="spacing" textLength="30.8115" x="35.3618" y="289.7461">hello</text><path d="M155.6299,50.4912 L231.3825,50.4912 L152.7438,283.4893 C151.0866,288.3985 146.483,291.7052 141.3015,291.7052 L82.3472,291.7052 C78.4629,291.7052 74.8163,289.8351 72.5506,286.68 C70.285,283.5249 69.6778,279.4717 70.9194,275.7912 L144.1846,58.7071 C145.8412,53.7957 150.4466,50.4883 155.6299,50.4883 L155.6299,50.4912" fill="#114A8B"/><path d="M265.7095,206.7707 L145.584,206.7707 C143.2985,206.7682 141.2444,208.1646 140.4059,210.2907 C139.5674,212.4168 140.1154,214.8394 141.7874,216.3976 L218.9772,288.4438 C221.2246,290.5403 224.1838,291.7052 227.2571,291.7052 L295.2769,291.7052 L265.7095,206.7707" fill="#0078D4"/><path d="M155.6299,50.4911 C150.3848,50.4711 145.7365,53.8651 144.1585,58.8671 L71.0096,275.5934 C69.684,279.2885 70.2423,283.3977 72.5057,286.6052 C74.7691,289.8126 78.4536,291.7158 82.3792,291.7052 L142.8551,291.7052 C147.4407,290.8859 151.2307,287.6626 152.7758,283.2682 L167.3631,240.2773 L219.4689,288.8773 C221.6524,290.6834 224.3915,291.6821 227.2251,291.7052 L294.9918,291.7052 L265.2702,206.7707 L178.628,206.7911 L231.656,50.4911 L155.6299,50.4911" fill="#000000"/><path d="M252.3849,58.6955 C250.7306,53.7919 246.1321,50.4912 240.9571,50.4912 L156.5318,50.4912 C161.7065,50.4912 166.3045,53.7925 167.9595,58.6955 L241.2277,275.7883 C242.4703,279.4695 241.8636,283.5238 239.598,286.68 C237.3323,289.8362 233.6851,291.7081 229.7999,291.7081 L314.2281,291.7081 C318.1128,291.7081 321.7592,289.8349 324.0242,286.6788 C326.2891,283.5227 326.8954,279.469 325.653,275.7883 L252.3849,58.6955" fill="#3CCBF4"/><text fill="#000000" font-family="sans-serif" font-size="13" lengthAdjust="spacing" textLength="32.7349" x="330.3999" y="289.7461">there</text></g></g></svg>