<svg xmlns="http://www.w3.org/2000/svg" xmlns:xlink="http://www.w3.org/1999/xlink" contentStyleType="text/css" data-diagram-type="CLASS" height="90px" preserveAspectRatio="none" style="width:168px;height:90px;background:#FFFFFF;" version="1.1" viewBox="0 0 168 90" width="168px" zoomAndPan="magnify">
  <defs/>
  <g font-family="sans-serif" lengthAdjust="spacing">
    <!--class a-->
    <g class="entity" data-qualified-name="a" data-source-line="3" id="ent0001">
      <rect fill="#F1F1F1" height="62" rx="2.5" ry="2.5" style="stroke:#181818;stroke-width:0.5;" width="39.788" x="112" y="12"/>
      <ellipse cx="127" cy="28" fill="#ADD1B2" rx="11" ry="11" style="stroke:#181818;stroke-width:1;"/>
      <text fill="#000" font-family="monospace" font-size="14" x="122" y="33">C</text>
      <text fill="#000" font-size="14" x="141" y="31.889">a</text>
      <line style="stroke:#181818;stroke-width:0.5;" x1="113" x2="150.788" y1="44" y2="44"/>
      <text fill="#000" font-size="14" textLength="17.938" x="118" y="58.889">int i</text>
      <line style="stroke:#181818;stroke-width:0.5;" x1="113" x2="150.788" y1="66" y2="66"/>
    </g>
    <path d="M6,26.5 L6,49.5 A0,0 0 0 0 6,49.5 L94.275,49.5 A0,0 0 0 0 94.275,49.5 L94.275,44.5 L118,55 L94.275,36.5 L94.275,36.5 L84.275,26.5 L6,26.5 A0,0 0 0 0 6,26.5" fill="#FEFFDD" style="stroke:#181818;stroke-width:0.5;"/>
    <path d="M84.275,26.5 L84.275,36.5 L94.275,36.5 L84.275,26.5" fill="#FEFFDD" style="stroke:#181818;stroke-width:0.5;"/>
    <text fill="#000" font-size="13" textLength="67.275" x="12" y="41.611">This note on i</text>
  </g>
</svg>
