<svg xmlns="http://www.w3.org/2000/svg" width="20" height="20" xmlns:v="https://vecta.io/nano"><g transform="matrix(.16475 0 0 .16475 -6.829353 -11.74788)" fill="none" stroke="#000"><path d="M106.538 180.824c-6.58 3.758-9.907-8.385-17.424-7.432s-7.707 13.543-15.017 11.547-1.076-12.935-7.066-17.576-15.026 4.126-18.783-2.453 8.385-9.907 7.432-17.424-13.543-7.707-11.547-15.017 12.935-1.076 17.576-7.066-4.126-15.026 2.453-18.783 9.907 8.385 17.424 7.432 7.707-13.543 15.017-11.547 1.076 12.935 7.066 17.576 15.026-4.126 18.783 2.453-8.385 9.907-7.432 17.424 13.543 7.707 11.547 15.017-12.935 1.076-17.576 7.066 4.126 15.026-2.453 18.783zM136.967 124c-6.303 1.789-6.446-8.212-12.596-10.469s-12.729 5.276-16.378-.166 5.818-8.668 6.064-15.215-8.951-10.476-4.904-15.628 10.042 2.854 16.344 1.066 7.197-11.75 13.348-9.493.388 10.432 4.037 15.874 13.399 3.214 13.153 9.761-9.802 3.593-13.849 8.745 1.084 13.736-5.219 15.525z"/><circle cx="130.266" cy="99.31" r="8.671"/><circle cx="87.461" cy="144.696" r="15.608"/></g></svg>