<?xml version="1.0" encoding="UTF-8"?>
<!-- Created with Inkscape (http://www.inkscape.org/) -->
<svg width="19.995mm" height="19.928mm" version="1.1" viewBox="0 0 19.995 19.928" xmlns="http://www.w3.org/2000/svg">
 <g transform="translate(-.016253 -120.11)">
  <rect x=".016253" y="120.11" width="19.995" height="19.928" ry="0" fill="none"/>
  <path d="m9.9121 121.06c-1.9984 0.0272-3.6076 1.6773-3.5838 3.6758 0.021709 1.8216 1.394 3.3216 3.1502 3.5574v1.2098l-5.4844-0.0155a0.5 0.5 0 0 0-0.50178 0.49816 0.5 0.5 0 0 0 0.49816 0.50178l5.488 0.0155v3.2034l-2.9435 5.1268a0.5 0.5 0 0 0 0.18552 0.68161 0.5 0.5 0 0 0 0.68161-0.18345l2.5177-4.3868 2.6055 4.3615a0.5006 0.5006 0 0 0 0.85938-0.51367l-2.9063-4.8752v-3.4117l5.5175 0.0155a0.5 0.5 0 0 0 0.5023-0.50023 0.5 0.5 0 0 0-0.49816-0.49971l-5.5216-0.0155v-1.2165c1.7713-0.25346 3.1328-1.7915 3.1171-3.6277-0.01705-1.9985-1.6597-3.615-3.6582-3.6013a0.5 0.5 0 0 0-0.011369 6e-3 0.5 0.5 0 0 0-0.013952-6e-3zm0.023254 0.99581a0.5 0.5 0 0 0 0.00982 4e-3c1.4587-0.01 2.638 1.1505 2.6505 2.6091 0.01245 1.4587-1.1469 2.6418-2.6055 2.6567-1.4586 0.0149-2.6445-1.1433-2.6619-2.6019-0.017384-1.4586 1.1392-2.6441 2.5978-2.6639a0.5 0.5 0 0 0 0.0093-4e-3z" fill-rule="evenodd" stop-color="#000000" stroke-linecap="round" stroke-linejoin="round"/>
 </g>
</svg>
