<?xml version="1.0" encoding="UTF-8"?>
<!-- Created with Inkscape (http://www.inkscape.org/) -->
<svg width="19.995mm" height="19.928mm" version="1.1" viewBox="0 0 19.995 19.928" xmlns="http://www.w3.org/2000/svg">
 <g transform="translate(-39.968 -120.11)">
  <rect x="39.968" y="120.11" width="19.995" height="19.928" ry="0" fill="none"/>
  <path d="m52.463 123.44c-3.3382 0.0454-6.0336 2.7318-6.1216 6.041h-5.3728a0.5 0.5 0 0 0-0.49971 0.49971 0.5 0.5 0 0 0 0.49971 0.50022h5.4265c0.41113 3.059 3.0534 5.4113 6.2162 5.379 3.4194-0.035 6.1756-2.8443 6.1464-6.2637-0.02918-3.4194-2.8323-6.1796-6.2518-6.1562a0.5 0.5 0 0 0-0.01189 0.0114 0.5 0.5 0 0 0-0.03101-0.0114zm0.02325 0.99012a0.5 0.5 0 0 0 0.02532 0.01c2.8797-0.0197 5.2216 2.2865 5.2462 5.1661 0.02457 2.8796-2.2767 5.2245-5.1563 5.254-2.8796 0.0294-5.2294-2.269-5.2638-5.1485-0.03432-2.8795 2.2592-5.2323 5.1387-5.2715a0.5 0.5 0 0 0 0.0098-0.01z" stop-color="#000000" stroke-linecap="round" stroke-linejoin="round"/>
 </g>
</svg>
