<?xml version="1.0" encoding="UTF-8"?>
<!-- Created with Inkscape (http://www.inkscape.org/) -->
<svg width="19.995mm" height="19.928mm" version="1.1" viewBox="0 0 19.995 19.928" xmlns="http://www.w3.org/2000/svg">
 <g transform="translate(-60.017 -39.998)">
  <g>
   <g>
    <rect x="60.017" y="39.998" width="19.995" height="19.928" ry="0" fill="none"/>
    <path d="m73.59 41.789c-2.6685 0.03632-4.8129 2.2378-4.7811 4.9062 0.01561 1.3095 0.5521 2.4936 1.4102 3.3569l-6.3888 6.3893a0.5 0.5 0 0 0 0 0.70693 0.5 0.5 0 0 0 0.70693 0l6.4601-6.4601c0.77748 0.51198 1.7096 0.80602 2.7078 0.79582 2.6686-0.02728 4.8214-2.2201 4.7987-4.8886-0.02277-2.6685-2.2122-4.8247-4.8808-4.8064a0.5 0.5 0 0 0-0.0155 0.0057 0.5 0.5 0 0 0-0.01757-0.0057zm0.03101 0.99219h5.17e-4a0.5 0.5 0 0 0 0.0078 0.0078c2.1288-0.01456 3.8565 1.6856 3.8747 3.8142 0.01816 2.1286-1.6798 3.8591-3.8086 3.8809-0.90572 0.0093-1.7396-0.29188-2.4009-0.80512a0.5 0.5 0 0 0-0.08165-0.06511c-0.84648-0.69456-1.3899-1.7453-1.404-2.9306-0.02537-2.1285 1.6659-3.8654 3.7946-3.8943a0.5 0.5 0 0 0 0.01757-0.0078z" stop-color="#000000" stroke-linecap="round" stroke-linejoin="round"/>
   </g>
  </g>
 </g>
</svg>
