<?xml version="1.0" encoding="UTF-8"?>
<!-- Created with Inkscape (http://www.inkscape.org/) -->
<svg width="19.995mm" height="19.928mm" version="1.1" viewBox="0 0 19.995 19.928" xmlns="http://www.w3.org/2000/svg">
 <g transform="translate(-100.03 -120.11)">
  <rect x="100.03" y="120.11" width="19.995" height="19.928" ry="0" fill="none"/>
  <path d="m108.59 124.78c-2.2244-4e-3 -4.282 1.1841-5.3924 3.1114s-1.1041 4.303 0.0155 6.225c1.1197 1.9219 3.1836 3.0987 5.4079 3.0835a0.50005 0.50005 0 0 0 0.49609-0.50385l-0.0388-5.7066 0.0114-5.7071a0.50005 0.50005 0 0 0-0.49971-0.5023zm2.8748 0a0.50005 0.50005 0 0 0-0.49764 0.50437l0.0387 5.7066-0.0114 5.7092a0.50005 0.50005 0 0 0 0.49971 0.49971c2.2243 4e-3 4.2821-1.1821 5.3924-3.1094 1.1103-1.9273 1.1062-4.3046-0.0134-6.2265s-3.1842-3.0993-5.4085-3.084zm0.50591 1.1312c1.66 0.15801 3.1872 0.99711 4.0375 2.4567 0.94007 1.6137 0.94568 3.6047 0.0134 5.2229-0.8431 1.4634-2.3662 2.3101-4.0251 2.4763l0.01-5.0762a0.50005 0.50005 0 0 0 0-4e-3zm-3.8824 2e-3 -0.0103 5.0762a0.50005 0.50005 0 0 0 0 6e-3l0.0356 5.0741c-1.6598-0.15814-3.1872-0.99777-4.0375-2.4572-0.94011-1.6137-0.9437-3.6042-0.0114-5.2224 0.84315-1.4635 2.3645-2.3101 4.0235-2.4763z" stop-color="#000000" stroke-linecap="round" stroke-linejoin="round"/>
 </g>
</svg>
