<?xml version="1.0" encoding="UTF-8"?>
<!-- Created with Inkscape (http://www.inkscape.org/) -->
<svg width="19.995mm" height="19.928mm" version="1.1" viewBox="0 0 19.995 19.928" xmlns="http://www.w3.org/2000/svg">
 <g transform="translate(-199.98 -120.11)">
  <rect x="199.98" y="120.11" width="19.995" height="19.928" ry="0" fill="none"/>
  <path d="m200.98 123.91a0.50005 0.50005 0 0 0-0.50023 0.50023v12.207a0.50005 0.50005 0 0 0 0.20154 0.40049c1.8714 1.3951 3.3668 1.9115 4.6524 1.8087 1.2856-0.10279 2.2656-0.8226 3.1032-1.6469 0.83755-0.82432 1.571-1.7695 2.3792-2.4722 0.80816-0.70266 1.6476-1.1624 2.7947-1.1291 1.4334 0.0416 2.3283 0.50306 3.0706 1.1405 0.74234 0.63743 1.31 1.4742 1.9782 2.2304a0.50005 0.50005 0 0 0 0.87333-0.32969c3e-3 -2.4486 0-12.209 0-12.209a0.50005 0.50005 0 0 0-0.50023-0.50023zm0.50023 0.99994h17.053c6e-5 0.20765 3.1e-4 0.99868 5.2e-4 2.0857l-17.053-0.0894zm0 2.9962 17.053 0.0873c3.6e-4 2.3139 6.7e-4 5.3832-5.2e-4 7.3132-0.37539-0.46094-0.69634-0.91188-1.2015-1.3456-0.87316-0.74977-2.0441-1.3351-3.6912-1.3829-1.4402-0.0418-2.5678 0.57958-3.4804 1.373-0.9126 0.79346-1.6554 1.759-2.4241 2.5156-0.76875 0.75662-1.5239 1.2866-2.482 1.3632-0.916 0.0732-2.1312-0.31824-3.7734-1.496z" stop-color="#000000" stroke-linejoin="round"/>
 </g>
</svg>
