<?xml version="1.0" encoding="UTF-8"?>
<!-- Created with Inkscape (http://www.inkscape.org/) -->
<svg width="19.995mm" height="19.928mm" version="1.1" viewBox="0 0 19.995 19.928" xmlns="http://www.w3.org/2000/svg">
 <g transform="translate(-219.98 -120.11)">
  <rect x="219.98" y="120.11" width="19.995" height="19.928" ry="0" fill="none"/>
  <path d="m221 123.96a0.50005 0.50005 0 0 0-0.49971 0.50023v12.207a0.50005 0.50005 0 0 0 0.49971 0.49971h18.055a0.50005 0.50005 0 0 0 0.50023-0.49971v-12.207a0.50005 0.50005 0 0 0-0.50023-0.50023zm0.50023 0.99994h7.9334v2.0371l-7.9334-0.0408zm8.9333 0h8.1215v11.207h-17.055v-8.2109l8.4315 0.0429a0.50005 0.50005 0 0 0 0.50178-0.50023z" stop-color="#000000" stroke-linecap="round" stroke-linejoin="round"/>
 </g>
</svg>
