<?xml version="1.0" encoding="UTF-8"?>
<!-- Created with Inkscape (http://www.inkscape.org/) -->
<svg width="19.995mm" height="19.928mm" version="1.1" viewBox="0 0 19.995 19.928" xmlns="http://www.w3.org/2000/svg">
 <g transform="translate(-120.11 -80.025)">
  <rect x="120.11" y="80.025" width="19.995" height="19.928" ry="0" fill="none"/>
  <path d="m138.87 84.664-14.826 0.04702a0.50005 0.50005 0 0 0-0.49971 0.49971v1.4376l-2.4882-0.01964a0.50005 0.50005 0 0 0-0.50436 0.50023v1.9353a0.50005 0.50005 0 0 0 0.50022 0.50023h2.4805l-0.0238 1.0428-2.4996-0.01964a0.50005 0.50005 0 0 0-0.50384 0.50023v1.9353a0.50005 0.50005 0 0 0 0.49971 0.50023h2.4924v3.0019a0.50005 0.50005 0 0 0 0.50023 0.50023l14.873 0.04651a0.50005 0.50005 0 0 0 0.5018-0.4997v-11.408a0.50005 0.50005 0 0 0-0.50177-0.50023zm-0.49817 1.002v10.404l-13.875-0.04289v-2.5037h2.4944a0.50005 0.50005 0 0 0 0.49972-0.50023v-1.8883a0.50005 0.50005 0 0 0-0.4961-0.50023l-2.4862-0.01964 0.0238-1.0506h2.5053a0.50005 0.50005 0 0 0 0.50023-0.50023v-1.8888a0.50005 0.50005 0 0 0-0.49609-0.49971l-2.498-0.01964v-0.94722zm-16.82 1.9668 4.9863 0.03876v0.89297h-4.9863zm-0.047 3.9589 4.9863 0.03927v0.89245h-4.9863z" stop-color="#000000" stroke-linejoin="round"/>
 </g>
</svg>
