<?xml version="1.0" encoding="UTF-8"?>
<!-- Created with Inkscape (http://www.inkscape.org/) -->
<svg width="19.995mm" height="19.928mm" version="1.1" viewBox="0 0 19.995 19.928" xmlns="http://www.w3.org/2000/svg">
 <g transform="translate(-159.92 -39.998)">
  <g>
   <rect x="159.92" y="39.998" width="19.995" height="19.928" ry="0" fill="none"/>
   <path d="m165.07 46.543a0.50005 0.50005 0 0 0-0.44751 0.2775l-3.9646 7.9649a0.50005 0.50005 0 0 0 0.44907 0.72244c4.6404-0.01364 9.2756 0.05202 13.929 0.0062a0.50005 0.50005 0 0 0 0.44338-0.2775l3.9651-7.9706a0.50005 0.50005 0 0 0-0.44752-0.72295zm0.31006 0.99994h1.82l-3.5 6.9655c-0.59525-1e-3 -1.1907-0.0012-1.7864-5.17e-4zm2.9378 0h9.8712l-3.4649 6.9706c-3.3015 0.02917-6.6016 0.0068-9.9074-0.0026z" stop-color="#000000" stroke-linecap="round" stroke-linejoin="round"/>
  </g>
 </g>
</svg>
