<?xml version="1.0" encoding="UTF-8"?>
<!-- Created with Inkscape (http://www.inkscape.org/) -->
<svg width="19.995mm" height="19.928mm" version="1.1" viewBox="0 0 19.995 19.928" xmlns="http://www.w3.org/2000/svg">
 <g transform="translate(-180 -120.11)">
  <rect x="180" y="120.11" width="19.995" height="19.928" ry="0" fill="none"/>
  <path d="m181.05 123.82a0.50005 0.50005 0 0 0-0.49971 0.49971v12.208a0.50005 0.50005 0 0 0 0.49971 0.49971h18.055a0.50005 0.50005 0 0 0 0.50023-0.49971v-12.208a0.50005 0.50005 0 0 0-0.50023-0.49971zm0.50023 0.99994h17.055v2.0851l-17.055-0.0889zm0 2.9962 17.055 0.0889v5.1738l-17.055-0.0889zm0 6.1738 17.055 0.0889v1.9482h-17.055z" stop-color="#000000" stroke-linecap="round" stroke-linejoin="round"/>
 </g>
</svg>
