<?xml version="1.0" encoding="UTF-8"?>
<!-- Created with Inkscape (http://www.inkscape.org/) -->
<svg width="19.995mm" height="19.928mm" version="1.1" viewBox="0 0 19.995 19.928" xmlns="http://www.w3.org/2000/svg">
 <g transform="translate(-39.975 -200.08)">
  <g>
   <rect x="39.975" y="200.08" width="19.995" height="19.928" ry="0" fill="none"/>
   <path d="m41.02 203.36a0.50005 0.50005 0 0 0-0.5 0.5v12.207a0.50005 0.50005 0 0 0 0.20117 0.40235c1.8713 1.395 3.3667 1.9114 4.6523 1.8086s2.266-0.82411 3.1035-1.6484c0.83755-0.82432 1.5707-1.77 2.3789-2.4726s1.6479-1.1622 2.7949-1.1289c1.4334 0.0416 2.328 0.50514 3.0703 1.1426s1.3103 1.4724 1.9785 2.2285a0.50005 0.50005 0 0 0 0.875-0.33007c3e-3 -2.4486 0-12.209 0-12.209a0.50005 0.50005 0 0 0-0.5-0.5zm0.5 1h17.055c1.96e-4 0.65683 0.0015 7.1468 0 10.398-0.37576-0.46145-0.69541-0.91336-1.2012-1.3477-0.87316-0.74977-2.0462-1.335-3.6934-1.3828-1.4402-0.0418-2.5679 0.57959-3.4805 1.373-0.9126 0.79346-1.6551 1.759-2.4238 2.5156-0.76875 0.75661-1.5243 1.2867-2.4824 1.3633-0.916 0.0732-2.1313-0.3183-3.7734-1.4961z" stop-color="#000000" stroke-linecap="round" stroke-linejoin="round"/>
  </g>
 </g>
</svg>
