<?xml version="1.0" encoding="UTF-8"?>
<!-- Created with Inkscape (http://www.inkscape.org/) -->
<svg width="19.995mm" height="19.928mm" version="1.1" viewBox="0 0 19.995 19.928" xmlns="http://www.w3.org/2000/svg">
 <g transform="translate(-79.942 -40.045)">
  <g>
   <rect x="79.942" y="40.045" width="19.995" height="19.928" ry="0" fill="none"/>
   <path d="m89.967 43.799a0.5 0.5 0 0 0-0.02119 0.0098 0.5 0.5 0 0 0-0.01964-0.0078c-3.4192 0.04654-6.166 2.864-6.1252 6.2833 0.04075 3.4193 2.8521 6.1695 6.2715 6.1345 3.4194-0.03496 6.1761-2.8422 6.1469-6.2616-0.02917-3.4194-2.8328-6.1817-6.2523-6.1583zm-0.0016 0.99012a0.5 0.5 0 0 0 0.0093 0.0098c2.8797-0.01969 5.2201 2.2865 5.2446 5.1661 0.02457 2.8796-2.2767 5.2245-5.1563 5.2539-2.8796 0.02944-5.2274-2.2669-5.2617-5.1465-0.03432-2.8795 2.2587-5.2323 5.1382-5.2715a0.5 0.5 0 0 0 0.02584-0.01189zm-0.0083 1.3519c-2.1284 0.02897-3.8417 1.7855-3.8163 3.914 0.02537 2.1285 1.7798 3.8458 3.9083 3.8241 2.1285-0.02176 3.8484-1.7735 3.8303-3.9021-0.01816-2.1285-1.7678-3.8505-3.8964-3.8359a0.5 0.5 0 0 0-0.01188 0.01137 0.5 0.5 0 0 0-0.01395-0.01137zm0.02739 0.99374a0.5 0.5 0 0 0 0.0062 0.0062c1.5887-0.01087 2.8752 1.255 2.8887 2.8438 0.01355 1.5887-1.2514 2.8782-2.8401 2.8944-1.5887 0.01624-2.8796-1.2473-2.8985-2.836-0.01893-1.5887 1.2417-2.8805 2.8303-2.9021a0.5 0.5 0 0 0 0.01344-0.0062zm0.0021 1.1875c-0.91926 0.01255-1.6749 0.7881-1.664 1.7074 0.01096 0.91931 0.78599 1.677 1.7053 1.6676 0.91933-0.0094 1.6775-0.78339 1.6697-1.7027-0.0078-0.91935-0.77976-1.6785-1.6991-1.6722a0.95896 0.95896 0 0 0-0.0062 0.0062 0.95896 0.95896 0 0 0-0.0057-0.0062z" stop-color="#000000" stroke-linecap="round" stroke-linejoin="round"/>
  </g>
 </g>
</svg>
