<?xml version="1.0" encoding="UTF-8"?>
<!-- Created with Inkscape (http://www.inkscape.org/) -->
<svg width="19.995mm" height="19.928mm" version="1.1" viewBox="0 0 19.995 19.928" xmlns="http://www.w3.org/2000/svg">
 <g transform="translate(-20.003 -200.08)">
  <g>
   <rect x="20.003" y="200.08" width="19.995" height="19.928" ry="0" fill="none"/>
   <path d="m28.31 203.76c-0.26166-0.0156-0.52514-0.0148-0.78858 3e-3 -0.7025 0.0477-1.4062 0.21673-2.08 0.51366-2.6951 1.1878-4.1861 4.1129-3.5646 6.9918 0.614 2.8441 3.1263 4.879 6.0265 4.8989a0.5 0.5 0 0 0 0.04186 2e-3h6.5784v1.7441a0.50005 0.50005 0 0 0 0.75396 0.42995l3.8359-2.2422a0.50005 0.50005 0 0 0 0.06253-0.15245 0.5 0.5 0 0 0 0.11886-0.0331 0.5 0.5 0 0 0-0.04289-0.15451 0.50005 0.50005 0 0 0-0.10129-0.37104 0.5 0.5 0 0 0-0.04341-0.15606l-3.8359-2.1875a0.50005 0.50005 0 0 0-0.74776 0.43357v1.6893h-6.4751a0.5 0.5 0 0 0-0.05013-2e-3c-2.4763 0.0251-4.6223-1.6886-5.1449-4.1093-0.52259-2.4207 0.72592-4.8681 2.9921-5.8668 2.2661-0.99871 4.9139-0.26718 6.3479 1.7518 1.434 2.019 1.2517 4.7594-0.4377 6.5701a0.5 0.5 0 0 0 0.02377 0.70694 0.5 0.5 0 0 0 0.70693-0.0253c2.0092-2.1535 2.2289-5.4309 0.52348-7.8321-1.1192-1.5758-2.8683-2.4933-4.7-2.6024z" stop-color="#000000" stroke-linecap="round" stroke-linejoin="round"/>
  </g>
 </g>
</svg>
