<?xml version="1.0" encoding="UTF-8"?>
<!-- Created with Inkscape (http://www.inkscape.org/) -->
<svg width="19.995mm" height="19.928mm" version="1.1" viewBox="0 0 19.995 19.928" xmlns="http://www.w3.org/2000/svg">
 <g transform="translate(-79.965 -200.08)">
  <g>
   <g>
    <rect x="79.965" y="200.08" width="19.995" height="19.928" ry="0" fill="none"/>
    <path d="m89.943 204.65a0.5 0.5 0 0 0-0.0217 0.01 0.5 0.5 0 0 0-0.01912-8e-3c-2.5971 0.0353-4.8062 1.6691-5.7004 3.9512l-3.0691-8e-3a0.5 0.5 0 0 0-0.5023 0.49816 0.5 0.5 0 0 0 0.50023 0.50178l2.774 7e-3c-0.08902 0.43017-0.13308 0.8759-0.12764 1.3327 0.0066 0.55221 0.08529 1.0874 0.22738 1.5958l-2.8717-8e-3a0.5 0.5 0 0 0-0.5023 0.50023 0.5 0.5 0 0 0 0.50023 0.49971l3.2499 9e-3c1.0104 2.1118 3.1796 3.5638 5.6699 3.5383 2.4331-0.0249 4.5303-1.4543 5.5273-3.5088l3.3771 9e-3a0.5 0.5 0 0 0 0.50178-0.49816 0.5 0.5 0 0 0-0.49971-0.50178l-2.9972-8e-3c0.15943-0.55793 0.24239-1.1471 0.2372-1.756-0.0034-0.40092-0.04466-0.79265-0.12092-1.172l2.8789 8e-3a0.5 0.5 0 0 0 0.50178-0.49971 0.5 0.5 0 0 0-0.49971-0.50023l-3.1724-8e-3c-0.90295-2.3428-3.1871-4.0019-5.8415-3.9837zm-0.0021 0.99012a0.5 0.5 0 0 0 0.0098 0.01c2.0972-0.0144 3.9092 1.2048 4.7485 2.9807l-9.4139-0.0248c0.82764-1.728 2.5806-2.928 4.6302-2.9559a0.5 0.5 0 0 0 0.02532-0.01zm-5.0131 3.9646 10.124 0.0269c0.09143 0.37993 0.14121 0.77648 0.14469 1.1844 0.0052 0.61074-0.09414 1.1974-0.28164 1.743l-9.8655-0.0258c-0.17077-0.50619-0.26613-1.0479-0.27285-1.6118-0.0054-0.45442 0.04721-0.89555 0.1509-1.3167zm0.58394 3.9295 8.9359 0.0238c-0.90262 1.4916-2.5336 2.4928-4.409 2.512-1.9232 0.0196-3.6088-0.99917-4.5269-2.5358z" stop-color="#000000" stroke-linecap="round" stroke-linejoin="round"/>
   </g>
  </g>
 </g>
</svg>
