<?xml version="1.0" encoding="UTF-8"?>
<!-- Created with Inkscape (http://www.inkscape.org/) -->
<svg width="19.995mm" height="19.928mm" version="1.1" viewBox="0 0 19.995 19.928" xmlns="http://www.w3.org/2000/svg">
 <g transform="translate(-99.96 -39.998)">
  <g>
   <rect x="99.96" y="39.998" width="19.995" height="19.928" ry="0" fill="none"/>
   <path d="m115.19 41.08a0.5 0.5 0 0 0-0.50022 0.49971v2.7972l-3.3486 3.5114c-1.0815-0.88487-2.4651-1.4123-3.9677-1.402a0.5 0.5 0 0 0-0.0233 0.0093 0.5 0.5 0 0 0-0.0196-0.0078c-3.4192 0.04654-6.166 2.864-6.1252 6.2833 0.0407 3.4193 2.8541 6.17 6.2735 6.135 3.4194-0.03496 6.1756-2.8427 6.1464-6.2622-0.0133-1.5582-0.60252-2.9795-1.5637-4.0633l3.3424-3.5047h2.6727a0.5 0.5 0 0 0 0.49971-0.50023 0.5 0.5 0 0 0-0.49971-0.49971h-2.3869v-2.4965a0.5 0.5 0 0 0-0.49972-0.49971zm-7.8207 6.3965h5.2e-4a0.5 0.5 0 0 0 0.01 0.0098c1.2375-0.0085 2.3755 0.41243 3.2732 1.124l-0.93482 0.9803c-0.5163-0.38403-1.1308-0.64212-1.7973-0.72967a0.5 0.5 0 0 0-0.4439-0.28474 0.5 0.5 0 0 0-0.45217 0.27078c-1.9692 0.19843-3.5034 1.88-3.4794 3.8949 0.0254 2.1285 1.7818 3.8463 3.9104 3.8246 1.9811-0.02025 3.606-1.5394 3.807-3.4659a0.5 0.5 0 0 0 0.20463-0.40359 0.5 0.5 0 0 0-5e-3 -0.06666 0.5 0.5 0 0 0-0.19998-0.33641c-0.0787-0.75482-0.37565-1.4458-0.82579-2.0087l0.93586-0.98185c0.7719 0.89988 1.2417 2.0677 1.2526 3.3491 0.0246 2.8796-2.2767 5.224-5.1563 5.2534-2.8796 0.02944-5.2289-2.2669-5.2632-5.1465-0.0343-2.8795 2.2593-5.2323 5.1387-5.2715a0.5 0.5 0 0 0 0.0248-0.01137zm-0.41238 2.3875-0.0212 1.3653a0.95896 0.95896 0 0 0-5.2e-4 0 0.95896 0.95896 0 0 0-0.19275 0.09663c-0.55921 0.2826-1.0057 0.75806-0.99787 1.418 0.011 0.91931 0.78547 1.6754 1.7048 1.666 0.75033-0.0077 1.3936-0.52358 1.6004-1.2128h1.1911c-0.2333 1.3384-1.3879 2.355-2.7972 2.3694-1.5887 0.01624-2.8791-1.2473-2.898-2.836-0.0172-1.4462 1.0257-2.6465 2.4112-2.8665zm0.99994 0.01447c0.3899 0.07377 0.75136 0.22606 1.0676 0.43977l-0.85266 0.89348c-0.0752-0.03746-0.15333-0.06962-0.2341-0.0956zm1.7859 1.1353c0.24852 0.344 0.42221 0.74627 0.49816 1.1834h-1.2077c-0.0351-0.10425-0.0804-0.20428-0.13435-0.29869z" stop-color="#000000" stroke-linecap="round" stroke-linejoin="round"/>
  </g>
 </g>
</svg>
