<?xml version="1.0" encoding="UTF-8"?>
<!-- Created with Inkscape (http://www.inkscape.org/) -->
<svg width="19.995mm" height="19.928mm" version="1.1" viewBox="0 0 19.995 19.928" xmlns="http://www.w3.org/2000/svg">
 <g transform="translate(-179.99 -39.998)">
  <g>
   <rect x="179.99" y="39.998" width="19.995" height="19.928" ry="0" fill="none"/>
   <path d="m187.09 43.466c-0.93492-0.0201-2.095 0.2045-2.8846 1.1002-0.47746 0.54159-0.45961 1.2486-0.24391 1.7384 0.099 0.22479 0.22615 0.33468 0.35501 0.50953-0.37298 0.08002-0.79139 0.09708-1.08 0.30489-0.67464 0.4857-0.99159 1.2996-1.0253 2.1291-0.0337 0.82952 0.2099 1.7077 0.75189 2.4179 0.5547 0.72684 1.2741 1.0299 1.926 0.99787 0.47458-0.02334 0.83667-0.24928 1.203-0.447 0.15767 0.32999 0.26182 0.71043 0.53536 0.90589 0.43624 0.31172 0.95363 0.46104 1.4511 0.43977 0.47845-0.02046 1.1539-0.01062 1.8262-0.18965 0.44783-0.11925 0.86762-0.40489 1.2284-0.78496 0.17865 0.31819 0.30595 0.7011 0.60152 0.9002 0.50849 0.34252 1.1468 0.42379 2.0216 0.40463 0.94135-0.02062 1.653-0.12112 2.1192-0.62735 0.23314-0.25312 0.34907-0.59901 0.35915-0.94516 6e-3 -0.19281-0.0674-0.41342-0.10955-0.62115 0.5059-0.07266 1.0276-0.12667 1.4531-0.41031 0.59082-0.39376 1.0416-1.05 1.0645-1.8691 0.0463-1.6547-0.38704-3.0296-1.248-4.0116-0.6881-0.78492-1.5339-1.2237-2.4024-1.1891-0.68369 0.02723-1.3121 0.41387-1.8748 0.9648-0.21348-0.34128-0.39986-0.74504-0.68368-0.92397-0.45111-0.2844-0.97658-0.32598-1.4314-0.20722-0.63429 0.1656-1.1302 0.602-1.5508 1.0878-0.12011-0.24978-0.21054-0.49703-0.38499-0.73432-0.3364-0.45759-0.87117-0.84945-1.5916-0.91777-0.12265-0.01163-0.25143-0.01935-0.38499-0.02222zm-0.0134 1.002c0.10498 0.0015 0.20726 0.0073 0.30489 0.01654 0.44581 0.04228 0.65359 0.20773 0.8785 0.51366s0.4128 0.76499 0.64492 1.2537a0.50005 0.50005 0 0 0 0.8785 0.04496c0.34503-0.56828 0.98028-1.1473 1.4707-1.2754 0.24522-0.06402 0.43424-0.04802 0.64647 0.08578 0.21224 0.1338 0.46484 0.42335 0.68988 0.99012a0.50005 0.50005 0 0 0 0.86299 0.1173c0.51983-0.68704 1.0651-0.97537 1.5782-0.9958 0.51311-0.02044 1.0643 0.22361 1.6113 0.84749 0.66705 0.7609 1.0431 1.8583 1.002 3.3259-0.0137 0.48942-0.23807 0.80923-0.62115 1.0645-0.38307 0.2553-0.93305 0.40144-1.4609 0.40049a0.50005 0.50005 0 0 0-0.47646 0.65216c0.11067 0.34561 0.15328 0.61268 0.14831 0.78342-5e-3 0.17074-0.0363 0.23292-0.0935 0.29507-0.1145 0.12431-0.55314 0.28569-1.4061 0.30437-0.79721 0.01746-1.2028-0.07311-1.4418-0.23409-0.23899-0.16099-0.42256-0.46085-0.65991-1.078a0.50005 0.50005 0 0 0-0.92811-0.01602c-0.21541 0.50686-0.56641 0.71288-1.0583 0.84388-0.49193 0.131-1.09 0.13222-1.6113 0.15451-0.2554 0.01092-0.5826-0.0801-0.82631-0.25425-0.24371-0.17414-0.4073-0.40342-0.44132-0.73226a0.50005 0.50005 0 0 0-0.76584-0.37104c-0.3825 0.2448-0.80487 0.44134-1.1617 0.45889-0.35682 0.01755-0.67769-0.07572-1.0821-0.60565-0.38446-0.50377-0.57313-1.1722-0.54881-1.7715 0.0243-0.59929 0.2545-1.0975 0.61289-1.3555 0.23271-0.16754 0.69722-0.29883 1.3265-0.33745a0.50005 0.50005 0 0 0 0.35347-0.82062c-0.22768-0.27166-0.50297-0.59353-0.62529-0.87126-0.12233-0.27773-0.1557-0.40967 0.0786-0.67541 0.50804-0.57627 1.3859-0.76905 2.1208-0.75861zm-2.3301 8.5943c-0.74673 0.0054-1.4244 0.1636-1.9549 0.4532-0.53057 0.28962-0.96921 0.76247-0.95549 1.3751 0.0137 0.61264 0.46445 1.0669 1.0041 1.3477s1.2241 0.43143 1.9709 0.42736c0.7468-0.0041 1.4251-0.1607 1.957-0.44907s0.97257-0.75825 0.96274-1.371c-0.01-0.61272-0.45953-1.0698-0.99788-1.3519-0.53835-0.28209-1.222-0.43422-1.9689-0.4315a0.5 0.5 0 0 0-0.0119 0.0062 0.5 0.5 0 0 0-6e-3 -0.0062zm0.0176 0.99632a0.5 0.5 0 0 0 4e-3 0.0036c0.60319-0.0022 1.1464 0.13166 1.4996 0.31678 0.35329 0.18512 0.46133 0.37653 0.46302 0.48214 2e-3 0.10562-0.0946 0.28804-0.43925 0.47491-0.34466 0.18687-0.88305 0.32641-1.4862 0.3297-0.60317 0.0033-1.1472-0.12944-1.5022-0.31419-0.35499-0.18475-0.46634-0.37698-0.46871-0.48266-2e-3 -0.10568 0.0927-0.28719 0.43564-0.47439 0.34294-0.1872 0.87945-0.32791 1.4826-0.33228a0.5 0.5 0 0 0 0.0114-0.0036zm-2.3322 2.6071c-0.7632 0.0095-1.4338 0.5993-1.4237 1.3674 0.0102 0.76813 0.69343 1.3413 1.4568 1.3343 0.76332-7e-3 1.4351-0.59558 1.4278-1.3637-7e-3 -0.76816-0.68774-1.3426-1.4511-1.3379a0.5 0.5 0 0 0-4e-3 0.0041 0.5 0.5 0 0 0-6e-3 -0.0041zm0.0119 1.0005a0.5 0.5 0 0 0 2e-3 0 0.5 0.5 0 0 0 2e-3 0c0.27653-0.0017 0.44334 0.1777 0.44494 0.34726 2e-3 0.16956-0.16066 0.35092-0.43718 0.35347-0.27651 0.0025-0.44528-0.1777-0.44752-0.34727-2e-3 -0.16956 0.15914-0.35007 0.43563-0.35347z" stop-color="#000000" stroke-linecap="round" stroke-linejoin="round"/>
  </g>
 </g>
</svg>
