<?xml version="1.0" encoding="UTF-8"?>
<!-- Created with Inkscape (http://www.inkscape.org/) -->
<svg width="19.984mm" height="20.011mm" version="1.1" viewBox="0 0 19.984 20.011" xmlns="http://www.w3.org/2000/svg">
 <g transform="translate(-39.996 -39.996)">
  <g>
   <rect x="39.996" y="39.996" width="19.984" height="20.011" ry="0" fill="none"/>
   <path d="m50.057 40.439a0.5 0.5 0 0 0-0.50023 0.50023v2.4794c-1.4356 0.09242-2.7436 0.65582-3.7724 1.5353l-1.7337-1.7337a0.5 0.5 0 0 0-0.35347-0.14624 0.5 0.5 0 0 0-0.35347 0.14624 0.5 0.5 0 0 0 0 0.70693l1.7327 1.7327c-0.88541 1.0299-1.4521 2.3402-1.5472 3.7734h-2.4665a0.5 0.5 0 0 0-0.50023 0.49971 0.5 0.5 0 0 0 0.50023 0.50023h2.4774c0.12458 1.4168 0.70909 2.7025 1.6009 3.7088l-1.7622 1.7616-0.04082 0.04134a0.50005 0.50005 0 0 0 0.70693 0.70693h0.0021l0.03927-0.04082 1.7735-1.7735c1.019 0.84487 2.2995 1.3833 3.6969 1.4733v2.6221a0.50005 0.50005 0 0 0 0.99994 0v-2.635c1.3775-0.12379 2.6305-0.68216 3.6225-1.5353l1.8893 1.8893a0.50005 0.50005 0 0 0 0.70693-0.70693l-0.04082-0.04134-1.8495-1.849c0.84976-0.99446 1.4035-2.2481 1.5239-3.6215h2.6494a0.50005 0.50005 0 0 0 0-0.99994h-2.6391c-0.09281-1.3943-0.63063-2.6691-1.4712-3.683l1.8237-1.8231a0.5 0.5 0 0 0 0-0.70693 0.5 0.5 0 0 0-0.709 0l-1.8113 1.8107c-1.0046-0.8899-2.2863-1.4725-3.6949-1.5994v-2.4924a0.5 0.5 0 0 0-0.49971-0.50023zm-0.50023 4.4834v3.4804c-0.07887 0.02599-0.15547 0.05761-0.22893 0.09457l-2.4846-2.4851c0.75092-0.6103 1.6858-1.0049 2.7135-1.0899zm0.99994 0.01705c1.0016 0.11616 1.9113 0.52836 2.6386 1.1482l-2.3983 2.3983c-0.07709-0.03727-0.15757-0.06878-0.2403-0.09405zm-4.422 1.7792 2.4691 2.4686c-0.04438 0.0784-0.08267 0.16081-0.1142 0.24598h-3.4561c0.08735-1.0264 0.4856-1.9629 1.1012-2.7146zm7.753 0.09198c0.57306 0.73422 0.94354 1.6358 1.0278 2.6226h-3.2566c-0.03446-0.09315-0.07685-0.1828-0.12661-0.26768zm-8.8403 3.6225h3.3951c0.0275 0.10269 0.06488 0.20231 0.11059 0.29662l-2.3559 2.3554c-0.62194-0.72953-1.0355-1.6432-1.1498-2.652zm6.658 0h3.1967c-0.10926 0.96618-0.49462 1.8474-1.0759 2.5626l-2.2428-2.2428v-5.17e-4c0.05102-0.1013 0.09215-0.20828 0.12196-0.31936zm-2.4717 1.0304h5.17e-4c0.10152 0.05928 0.20956 0.10898 0.32246 0.14624v3.1972c-0.99057-0.08176-1.8977-0.45262-2.6365-1.0294zm1.6593 0.01292 2.2278 2.2278c-0.71354 0.58465-1.5948 0.97384-2.5642 1.0862v-3.1693c0.11788-0.03597 0.23058-0.08486 0.33641-0.14469z" stop-color="#000000" stroke-linecap="round" stroke-linejoin="round"/>
  </g>
 </g>
</svg>
