<?xml version="1.0" encoding="UTF-8"?>
<!-- Created with Inkscape (http://www.inkscape.org/) -->
<svg width="19.995mm" height="19.928mm" version="1.1" viewBox="0 0 19.995 19.928" xmlns="http://www.w3.org/2000/svg">
 <g transform="translate(-20 -40.079)">
  <g>
   <rect x="20" y="40.079" width="19.995" height="19.928" ry="0" fill="none"/>
   <path d="m35.445 45.553-10.863 0.0078a0.5 0.5 0 0 0-0.0098 0c-0.98826 0.01793-1.861 0.56725-2.4608 1.3772s-0.95251 1.8881-0.95291 3.068c-4e-4 1.1799 0.35165 2.26 0.95085 3.0706 0.5992 0.81058 1.471 1.3596 2.4593 1.3787a0.5 0.5 0 0 0 0.0093 0 0.5 0.5 0 0 0 0.0098 0l10.922 0.0098v-1e-3c0.82514-0.0017 1.6431-0.41171 2.2598-1.1648a0.5 0.5 0 0 0 0.01912-0.0646 0.5 0.5 0 0 0 0.06046-0.03514c1.2963-1.6922 1.3612-4.3445 0.1664-6.1485-0.5974-0.90196-1.4493-1.4386-2.3477-1.4945-0.0527-0.0033-0.10546-0.0027-0.15813-0.0026v-1e-3h-0.06201c-8.59e-4 2.3e-5 -0.0022-2.3e-5 -0.0031 0zm0.06511 0.99891c0.03197 9.4e-5 0.06377 0.0011 0.0956 0.0031 0.54734 0.03403 1.1158 0.35199 1.5761 1.047 0.92061 1.39 0.85499 3.7089-0.12506 4.9883a0.5 0.5 0 0 0-0.01344 0.05064 0.5 0.5 0 0 0-0.04703 0.02532c-0.46239 0.56466-0.97994 0.80132-1.4862 0.79892h-0.0026c-0.0429-2.68e-4 -0.08598-0.0026-0.12867-0.0062-0.54729-0.04671-1.1154-0.3786-1.5684-1.0857-0.90596-1.4142-0.81063-3.7309 0.1819-4.9842 0.44699-0.56441 0.95391-0.81654 1.45-0.83612h0.0677zm-2.1187 0.0026c-0.06252 0.06789-0.12357 0.13912-0.18242 0.21342-1.3189 1.6654-1.4129 4.3162-0.24185 6.1443 0.12916 0.20163 0.27064 0.38566 0.42271 0.55087l-8.8015-0.0078h-5.17e-4c-0.63156-0.01222-1.2179-0.35587-1.6738-0.97255-0.45586-0.61668-0.75584-1.4978-0.75551-2.4769 3.32e-4 -0.97901 0.29929-1.8582 0.75551-2.4743 0.45622-0.61605 1.0443-0.95954 1.6759-0.971z" stop-color="#000000" stroke-linecap="round" stroke-linejoin="round"/>
  </g>
 </g>
</svg>
