<?xml version="1.0" encoding="UTF-8"?>
<!-- Created with Inkscape (http://www.inkscape.org/) -->
<svg width="19.995mm" height="19.928mm" version="1.1" viewBox="0 0 19.995 19.928" xmlns="http://www.w3.org/2000/svg">
 <g transform="translate(-199.96 -39.952)">
  <g>
   <rect x="199.96" y="39.952" width="19.995" height="19.928" ry="0" fill="none"/>
   <path d="m209.89 44.414c-2.4157 0.01967-4.5978 0.61721-6.2053 1.6035-1.6075 0.98631-2.6751 2.4091-2.6427 4.0313 0.0323 1.6222 1.1501 3.0194 2.7931 3.9806 1.643 0.96119 3.8479 1.5263 6.2637 1.5115 2.4158-0.01478 4.6005-0.6068 6.2131-1.5896 1.6126-0.98276 2.685-2.4013 2.6619-4.0235-0.0232-1.6222-1.1334-3.0236-2.7714-3.9884s-3.838-1.5354-6.2539-1.5255a0.5 0.5 0 0 0-0.0295 0.02946 0.5 0.5 0 0 0-0.0289-0.02946zm0.0351 0.98857a0.5 0.5 0 0 0 0.0274 0.01188c2.2544-0.0092 4.2952 0.53448 5.7418 1.3865 1.4466 0.852 2.2627 1.9698 2.2794 3.1409 0.0167 1.1711-0.7636 2.2907-2.1833 3.1559-1.4197 0.86523-3.445 1.4295-5.6994 1.4433-2.2544 0.01379-4.2982-0.52526-5.75-1.3746-1.4518-0.84933-2.2752-1.9657-2.2986-3.1368-0.0233-1.1711 0.74933-2.2927 2.1637-3.1605 1.4144-0.86781 3.4374-1.4363 5.6916-1.4547a0.5 0.5 0 0 0 0.0274-0.01188z" stop-color="#000000" stroke-linecap="round" stroke-linejoin="round"/>
  </g>
 </g>
</svg>
