<?xml version="1.0" encoding="UTF-8"?>
<!-- Created with Inkscape (http://www.inkscape.org/) -->
<svg width="19.995mm" height="19.928mm" version="1.1" viewBox="0 0 19.995 19.928" xmlns="http://www.w3.org/2000/svg">
 <g transform="translate(-120.07 -39.998)">
  <g>
   <rect x="120.07" y="39.998" width="19.995" height="19.928" ry="0" fill="none"/>
   <path d="m130.11 43.365c-1.6417 4e-3 -3.2847 0.07279-4.6039 0.20516-0.65959 0.06618-1.2371 0.14754-1.7032 0.2496-0.33257 0.07281-0.55574 0.19358-0.79272 0.32039h-0.1757l-0.14263 0.12919c-0.28019 0.25406-0.3883 0.56947-0.49816 0.95498-0.10987 0.38552-0.19106 0.84684-0.2558 1.3689-0.12949 1.0441-0.18463 2.3263-0.1757 3.6096 9e-3 1.2833 0.0814 2.5634 0.21498 3.6055 0.0667 0.52102 0.14798 0.98172 0.2496 1.3632s0.19116 0.68078 0.43769 0.94154c0.30538 0.32302 0.63092 0.36343 1.0842 0.45889 0.45327 0.09545 1.0214 0.16966 1.6738 0.22841 1.3048 0.1175 2.9466 0.17205 4.5899 0.16795 1.6434-0.0041 3.2838-0.06815 4.5858-0.18759 0.65096-0.05972 1.216-0.13224 1.666-0.22428 0.45009-0.09203 0.76393-0.12342 1.0744-0.43357 0.25807-0.25783 0.35625-0.56447 0.46251-0.94723s0.19037-0.84221 0.25786-1.3617c0.13497-1.0389 0.20479-2.3136 0.21291-3.5915 8e-3 -1.2779-0.046-2.5553-0.16381-3.5977-0.0589-0.52119-0.13418-0.983-0.23048-1.3674-0.0963-0.38436-0.18487-0.68613-0.4222-0.95085-0.29401-0.32794-0.63525-0.3941-1.0914-0.50023-0.45615-0.10613-1.0225-0.18843-1.6738-0.25373-1.3026-0.1306-2.9384-0.19157-4.5801-0.18758zm4e-3 0.99994c1.6153-0.0039 3.2268 0.05813 4.4767 0.18345 0.62498 0.06266 1.1598 0.14254 1.5467 0.23254 0.32699 0.07608 0.55187 0.2047 0.57981 0.20516h0.00103l5.2e-4 -5.16e-4c0.0266 0.05123 0.12245 0.24598 0.19017 0.51625 0.0795 0.31714 0.14948 0.74376 0.20515 1.2361 0.11134 0.98468 0.16604 2.2329 0.15813 3.4783-8e-3 1.2454-0.0781 2.4909-0.20515 3.469-0.0635 0.48906-0.142 0.91141-0.22841 1.2227-0.0683 0.24615-0.16009 0.42286-0.19379 0.48421-0.0296-0.0027-0.26378 0.12058-0.58136 0.18552-0.38985 0.07972-0.92854 0.15163-1.557 0.20929-1.257 0.11532-2.8783 0.17734-4.4979 0.18138-1.6196 4e-3 -3.2409-0.05062-4.4979-0.16382-0.62851-0.0566-1.1661-0.12946-1.555-0.21136-0.31687-0.06673-0.54354-0.19046-0.57464-0.18965-0.0308-0.06088-0.12106-0.24209-0.18707-0.48989-0.0837-0.31435-0.16121-0.74027-0.22427-1.2325-0.12612-0.98443-0.19854-2.2363-0.20723-3.4861-9e-3 -1.2498 0.0466-2.4999 0.16795-3.4783 0.0607-0.48921 0.13925-0.91165 0.22686-1.219 0.0797-0.27955 0.19155-0.45986 0.20567-0.48524 0.0165-1.51e-4 0.28023-0.13424 0.65371-0.21601 0.40492-0.08865 0.95418-0.16672 1.5896-0.23048 1.2708-0.12751 2.8924-0.1971 4.5077-0.20102zm-1.1994 1.2852a0.50005 0.50005 0 0 0-0.48782 0.60358l1.1012 5.2462a0.50005 0.50005 0 0 0 0.98237-0.0217l0.87902-5.2462a0.50005 0.50005 0 0 0-0.49196-0.58188zm1.0899 7.4435c-0.47925 0.0066-0.87284 0.4111-0.86713 0.89038 6e-3 0.47933 0.40949 0.8741 0.88883 0.8692 0.47933-0.0049 0.87536-0.40742 0.87127-0.88677-3e-3 -0.34436-0.24256-0.58742-0.53744-0.72864a0.5 0.5 0 0 0-0.13281-0.05426c-0.0773-0.02211-0.13279-0.0905-0.21652-0.08992a0.5 0.5 0 0 0-2e-3 0.0021 0.5 0.5 0 0 0-4e-3 -0.0021z" stop-color="#000000"/>
  </g>
 </g>
</svg>
