<?xml version="1.0" encoding="UTF-8"?>
<!-- Created with Inkscape (http://www.inkscape.org/) -->
<svg width="19.995mm" height="19.928mm" version="1.1" viewBox="0 0 19.995 19.928" xmlns="http://www.w3.org/2000/svg">
 <g transform="translate(-139.95 -39.998)">
  <g>
   <rect x="139.95" y="39.998" width="19.995" height="19.928" ry="0" fill="none"/>
   <path d="m145.05 46.543a0.50005 0.50005 0 0 0-0.44726 0.27734l-3.9648 7.9648a0.50005 0.50005 0 0 0 0.44922 0.72266c4.6404-0.01364 9.2759 0.05172 13.93 0.0059a0.50005 0.50005 0 0 0 0.44336-0.27734l3.9629-7.9707a0.50005 0.50005 0 0 0-0.44726-0.72266zm0.3086 1h12.811l-3.4668 6.9707c-4.2669 0.03768-8.5327-0.01063-12.811-0.0059z" stop-color="#000000" stroke-linecap="round" stroke-linejoin="round"/>
  </g>
 </g>
</svg>
