<?xml version="1.0" encoding="UTF-8"?>
<!-- Created with Inkscape (http://www.inkscape.org/) -->
<svg width="19.995mm" height="19.928mm" version="1.1" viewBox="0 0 19.995 19.928" xmlns="http://www.w3.org/2000/svg">
 <g transform="translate(-139.98 -120.11)">
  <rect x="139.98" y="120.11" width="19.995" height="19.928" ry="0" fill="none"/>
  <path d="m146.48 126.02c-2.6756-6e-3 -4.8531 2.2041-4.8772 4.9222-0.0241 2.7181 2.1141 4.9695 4.7894 5.0136a0.5 0.5 0 0 0 0.0155 0h7.541a0.5 0.5 0 0 0 6e-3 0c2.6872-0.0248 4.8452-2.2784 4.824-5.008-0.0211-2.7182-2.197-4.9266-4.869-4.9263v-2e-3h-0.0331zm-2e-3 0.99993a0.5 0.5 0 0 0 4e-3 0h7.4274c2.1225 1.5e-4 3.852 1.7436 3.869 3.9357 0.0171 2.2-1.6967 3.9783-3.8297 4.0003-1e-3 2e-5 -3e-3 -1e-5 -4e-3 0h-7.5349c-2.1252-0.0351-3.8265-1.8118-3.807-4.0039 0.0195-2.1921 1.7497-3.9364 3.8752-3.9321z" stop-color="#000000" stroke-linecap="round" stroke-linejoin="round"/>
 </g>
</svg>
