<?xml version="1.0" encoding="UTF-8"?>
<!-- Created with Inkscape (http://www.inkscape.org/) -->
<svg width="19.995mm" height="19.928mm" version="1.1" viewBox="0 0 19.995 19.928" xmlns="http://www.w3.org/2000/svg">
 <g transform="translate(-60.115 -80.025)">
  <rect x="60.115" y="80.025" width="19.995" height="19.928" ry="0" fill="none"/>
  <path d="m60.986 83.472a0.50005 0.50005 0 0 0-0.38499 0.81856l4.7951 5.7655-4.7889 5.596a0.50005 0.50005 0 0 0 0.38086 0.82579l13.031-0.03307a0.50005 0.50005 0 0 0 0.38086-0.17983l4.994-5.9531a0.50005 0.50005 0 0 0 0.0021-0.64027l-4.9904-6.0198a0.50005 0.50005 0 0 0-0.38499-0.17983zm1.0661 1.0005h11.735l4.5739 5.5175-4.578 5.455-11.709 0.03101 4.3553-5.0896a0.50005 0.50005 0 0 0 0.0062-0.6444z" stop-color="#000000" stroke-linecap="round" stroke-linejoin="round"/>
 </g>
</svg>
