<?xml version="1.0" encoding="UTF-8"?>
<!-- Created with Inkscape (http://www.inkscape.org/) -->
<svg width="19.995mm" height="19.928mm" version="1.1" viewBox="0 0 19.995 19.928" xmlns="http://www.w3.org/2000/svg">
 <g transform="translate(-19.899 -80.025)">
  <rect x="19.899" y="80.025" width="19.995" height="19.928" ry="0" fill="none"/>
  <path d="m20.979 85.207a0.50005 0.50005 0 0 0-0.50178 0.49971v9.4237a0.50005 0.50005 0 0 0 0.49971 0.50023h14.922a0.50005 0.50005 0 0 0 0.49971-0.49403l0.01757-1.7792 1.5451-0.01757a0.50005 0.50005 0 0 0 0.49403-0.50023v-4.9826a0.50005 0.50005 0 0 0-0.49403-0.49971l-1.5059-0.01757-0.0098-1.6133a0.50005 0.50005 0 0 0-0.50023-0.49609zm0.49816 0.99994 13.971 0.02119 0.0155 2.2851-0.06046 6.1175h-13.926zm4.4297 1.2986a0.25 0.25 0 0 0-0.25011 0.25011l0.01189 5.2793a0.25 0.25 0 0 0 0.0083 0.0646 0.25 0.25 0 0 0 0.01033 0.03101 0.25 0.25 0 0 0 0.23099 0.15451 0.25 0.25 0 0 0 0.25011-0.25011l-0.01189-5.2793a0.25 0.25 0 0 0-0.24962-0.25012zm-2.9084 0.0062a0.25 0.25 0 0 0-0.25011 0.2496l-0.01964 5.2426a0.25 0.25 0 0 0 0.25011 0.25166 0.25 0.25 0 0 0 0.25011-0.25011l0.01964-5.2421a0.25 0.25 0 0 0-0.25011-0.25166zm5.8653 0.0036a0.25 0.25 0 0 0-0.25011 0.24805l-0.0098 5.2617a0.25 0.25 0 0 0 0.25011 0.25011 0.25 0.25 0 0 0 0.25011-0.24805l0.0098-5.2617a0.25 0.25 0 0 0-0.25011-0.25011zm7.6016 0.82424 0.99012 0.01189v3.9941l-0.96893 0.01188-0.02325-3.883z" stop-color="#000000" stroke-linecap="round" stroke-linejoin="round"/>
 </g>
</svg>
