<?xml version="1.0" encoding="UTF-8"?>
<!-- Created with Inkscape (http://www.inkscape.org/) -->
<svg width="19.995mm" height="19.928mm" version="1.1" viewBox="0 0 19.995 19.928" xmlns="http://www.w3.org/2000/svg">
 <g transform="translate(-80.158 -80.025)">
  <rect x="80.158" y="80.025" width="19.995" height="19.928" ry="0" fill="none"/>
  <path d="m93.278 80.596c-3.4192 0.04654-6.166 2.864-6.1252 6.2833 0.04075 3.4193 2.8541 6.1715 6.2735 6.1366 3.4194-0.03496 6.1756-2.8443 6.1464-6.2637-0.02917-3.4194-2.8323-6.1796-6.2518-6.1562a0.5 0.5 0 0 0-0.0217 0.0098 0.5 0.5 0 0 0-0.02119-0.0098zm0.031 0.99219a0.5 0.5 0 0 0 0.01757 0.0078c2.8797-0.01969 5.2216 2.2865 5.2462 5.1661 0.02457 2.8796-2.2767 5.2245-5.1563 5.2539-2.8796 0.02944-5.2294-2.269-5.2638-5.1485-0.03432-2.8795 2.2592-5.2323 5.1387-5.2715a0.5 0.5 0 0 0 0.01757-0.0078zm0.0021 1.3477c-2.1284 0.02897-3.8417 1.7876-3.8163 3.916 0.02537 2.1285 1.7798 3.8443 3.9083 3.8225 2.1285-0.02176 3.8479-1.7741 3.8297-3.9026-0.01816-2.1285-1.7678-3.8505-3.8964-3.8359a0.5 0.5 0 0 0-0.0078 0.0078 0.5 0.5 0 0 0-0.01757-0.0078zm0.02739 0.99426a0.5 0.5 0 0 0 0.0057 0.0057c1.5887-0.01087 2.8752 1.2571 2.8887 2.8458 0.01355 1.5887-1.2509 2.8766-2.8396 2.8928-1.5887 0.01624-2.8796-1.2458-2.8985-2.8345-0.01893-1.5887 1.2412-2.8826 2.8298-2.9042a0.5 0.5 0 0 0 0.01395-0.0057zm0.01344 1.1875a0.95896 0.95896 0 0 0-0.0057 0.0057 0.95896 0.95896 0 0 0-0.0062-0.0036c-0.91929 0.01251-1.6749 0.78756-1.664 1.7069 0.0024 0.20449 0.04263 0.40068 0.11369 0.58239 0.0349 0.12945 0.09925 0.24792 0.185 0.34727 0.30958 0.44734 0.82829 0.74228 1.4046 0.73639 0.91933-0.0094 1.678-0.78184 1.6702-1.7012-0.0078-0.91933-0.77823-1.6801-1.6976-1.6738zm-6.3707 5.1372a0.75 0.75 0 0 0-0.04754 0.0026 0.75 0.75 0 0 0-0.02429 1e-3 0.75 0.75 0 0 0-0.02584 0.0016l-5.2622 0.63097a0.75 0.75 0 0 0-0.65422 0.83406 0.75 0.75 0 0 0 0.83406 0.65629l1.8252-0.21966c-1.4093 1.3565-2.3692 3.1852-2.7781 6.0069a1.25 1.25 0 0 0 1.0583 1.4159 1.25 1.25 0 0 0 1.4159-1.0568c0.40448-2.7907 1.0316-3.877 2.3647-4.8938l-0.38602 1.9487a0.75 0.75 0 0 0 0.5917 0.88263 0.75 0.75 0 0 0 0.88108-0.59014l0.93534-4.7243a0.75 0.75 0 0 0 0.0041-0.02894 0.75 0.75 0 0 0 5.17e-4 -0.0057 0.75 0.75 0 0 0 0.0083-0.09819 0.75 0.75 0 0 0 0-0.0041 0.75 0.75 0 0 0-0.0047-0.0894 0.75 0.75 0 0 0-5.16e-4 -0.01033 0.75 0.75 0 0 0-0.0031-0.0155 0.75 0.75 0 0 0-0.01292-0.06821 0.75 0.75 0 0 0-0.0072-0.02842 0.75 0.75 0 0 0-0.02119-0.0646 0.75 0.75 0 0 0-0.0124-0.02945 0.75 0.75 0 0 0-0.02791-0.05788 0.75 0.75 0 0 0-0.01757-0.03101 0.75 0.75 0 0 0-0.03411-0.05168 0.75 0.75 0 0 0-0.02274-0.02946 0.75 0.75 0 0 0-0.03617-0.04289 0.75 0.75 0 0 0-0.03617-0.03566 0.75 0.75 0 0 0-0.03307-0.02946 0.75 0.75 0 0 0-0.04082-0.03204 0.75 0.75 0 0 0-0.03772-0.02584 0.75 0.75 0 0 0-0.05219-0.02946 0.75 0.75 0 0 0-0.03049-0.0155 0.75 0.75 0 0 0-0.05529-0.02274 0.75 0.75 0 0 0-0.03876-0.01395 0.75 0.75 0 0 0-0.05478-0.01447 0.75 0.75 0 0 0-0.02274-0.0062 0.75 0.75 0 0 0-0.01654-0.0021 0.75 0.75 0 0 0-0.06408-0.0083 0.75 0.75 0 0 0-0.03101-0.0026 0.75 0.75 0 0 0-0.02687-0.0021z" stop-color="#000000" stroke-linecap="round" stroke-linejoin="round"/>
 </g>
</svg>
