<?xml version="1.0" encoding="UTF-8"?>
<!-- Created with Inkscape (http://www.inkscape.org/) -->
<svg width="19.995mm" height="19.928mm" version="1.1" viewBox="0 0 19.995 19.928" xmlns="http://www.w3.org/2000/svg">
 <g transform="translate(-199.95 -160.05)">
  <rect x="199.95" y="160.05" width="19.995" height="19.928" ry="0" fill="none"/>
  <path d="m209.94 163.4c-2.5254-0.0383-4.8192 1.4595-5.8058 3.7708-1.3744 1.1564-2.2405 2.8958-2.2174 4.8271 0.0408 3.4193 2.8536 6.1715 6.273 6.1366 2.5324-0.0259 4.7002-1.5734 5.6426-3.7636a0.5 0.5 0 0 0 0.0119-0.01c1.9819-1.6676 2.7206-4.3958 1.8516-6.8358s-3.1659-4.086-5.7557-4.1253zm-0.0155 0.99994c2.1758 0.033 4.098 1.4108 4.8281 3.4608 0.53032 1.489 0.34938 3.1013-0.42736 4.409 7e-3 -0.132 0.0104-0.26493 9e-3 -0.39894-0.0292-3.4194-2.8323-6.1796-6.2518-6.1562a0.5 0.5 0 0 0-0.0196 8e-3 0.5 0.5 0 0 0-0.0217-8e-3c-0.71461 0.01-1.3995 0.14061-2.036 0.37259 0.98571-1.0747 2.4008-1.7103 3.9191-1.6872zm-1.8516 2.3068a0.5 0.5 0 0 0 0.0176 8e-3c2.8797-0.0197 5.2196 2.2865 5.2441 5.1661 0.0246 2.8796-2.2767 5.2245-5.1563 5.2539-2.8796 0.0294-5.2274-2.269-5.2617-5.1485-0.0189-1.5884 0.67021-3.0163 1.7756-3.9842a0.5 0.5 0 0 0 0.2651-0.21756c0.85877-0.65756 1.9304-1.0538 3.098-1.0697a0.5 0.5 0 0 0 0.0176-8e-3z" stop-color="#000000" stroke-linecap="round" stroke-linejoin="round"/>
 </g>
</svg>
