<?xml version="1.0" encoding="UTF-8"?>
<!-- Created with Inkscape (http://www.inkscape.org/) -->
<svg width="19.995mm" height="19.928mm" version="1.1" viewBox="0 0 19.995 19.928" xmlns="http://www.w3.org/2000/svg">
 <g transform="translate(-40.052 -160.05)">
  <rect x="40.052" y="160.05" width="19.995" height="19.928" ry="0" fill="none"/>
  <path d="m42.002 163.11a0.50005 0.50005 0 0 0-0.50023 0.49609l-0.09354 9.9162a0.50005 0.50005 0 0 0 0.49971 0.50385h3.037l-2.2577 2.1306a0.50005 0.50005 0 0 0 0.3421 0.86351l13.937 0.047a0.50005 0.50005 0 0 0 0.3793-0.83044l-1.9374-2.2107h2.683a0.50005 0.50005 0 0 0 0.50023-0.50178l-0.04702-9.9162a0.50005 0.50005 0 0 0-0.49971-0.49816zm0.49403 0.99994h15.051l0.04289 8.9162h-15.178zm3.3771 10.416h8.6444l1.3457 1.5374-11.58-0.0393z" stop-color="#000000" stroke-linejoin="round"/>
 </g>
</svg>
