<?xml version="1.0" encoding="UTF-8"?>
<!-- Created with Inkscape (http://www.inkscape.org/) -->
<svg width="19.995mm" height="19.928mm" version="1.1" viewBox="0 0 19.995 19.928" xmlns="http://www.w3.org/2000/svg">
 <g transform="translate(-119.99 -160.05)">
  <rect x="119.99" y="160.05" width="19.995" height="19.928" ry="0" fill="none"/>
  <path transform="rotate(53 115.51 155.26)" d="m131.29 142.91c-0.0893 0.11952-0.16441 0.25877-0.2281 0.40917-0.16983 0.40106-0.22523 0.806-0.0215 1.131 0.20377 0.32506 0.499 0.40202 0.70678 0.4763 0.20778 0.0743 0.37607 0.13688 0.49043 0.22074 0.11437 0.0839 0.19728 0.171 0.25587 0.42382 0.0586 0.25281 0.0228 0.36675-0.043 0.49238-0.0658 0.12562-0.18975 0.25586-0.34366 0.41397-0.15392 0.15811-0.384 0.35884-0.42398 0.74039-0.04 0.38156 0.18842 0.72042 0.51738 1.0059 0.32895 0.28546 0.69623 0.46422 1.0683 0.37088 0.37212-0.0933 0.53731-0.34895 0.67216-0.52361s0.24599-0.31734 0.36109-0.40019c0.1151-0.0829 0.22395-0.13374 0.4825-0.11135 0.25855 0.0224 0.35611 0.0921 0.45525 0.19358 0.0991 0.1014 0.18399 0.25965 0.2868 0.45489 0.0375 0.0713 0.0774 0.15385 0.12969 0.23749-0.0403-0.0422-0.0857-0.0834-0.13749-0.12238-0.3043-0.22915-0.74245-0.24742-1.1943-0.10926-0.45188 0.13814-0.80413 0.39947-0.92829 0.7596-0.12411 0.36015-0.0303 0.6549 0.0225 0.8769 0.0528 0.22199 0.0823 0.3876 0.0669 0.4917-0.0154 0.10412-0.0372 0.18719-0.27366 0.35284-0.23654 0.16563-0.32333 0.15852-0.42644 0.13743-0.10305-0.0211-0.2487-0.10643-0.43924-0.232-0.19079-0.12514-0.43547-0.31494-0.81638-0.32142-0.38087-6e-3 -0.74559 0.23638-1.03 0.61375-0.28438 0.37738-0.41834 0.79543-0.30711 1.1598 0.11123 0.36433 0.36089 0.54833 0.5341 0.69689 0.17322 0.14853 0.29519 0.26352 0.34387 0.35683 0.0487 0.0933 0.0802 0.17467-0.0138 0.44769-0.0941 0.27302-0.16991 0.31853-0.26572 0.36207-0.0958 0.0436-0.26261 0.0592-0.49057 0.0697-0.22795 0.0104-0.53697 3e-3 -0.84893 0.22152-0.31196 0.21861-0.46393 0.62893-0.47214 1.1014-8e-3 0.47245 0.12927 0.88793 0.43341 1.1173 0.30412 0.2294 0.61359 0.23168 0.84104 0.25006 0.22745 0.0184 0.39463 0.042 0.48886 0.0889 0.094 0.0472 0.16768 0.0934 0.25196 0.36974 0.0844 0.27615 0.0496 0.35641-2e-3 0.44793-0.0516 0.0917-0.17824 0.20361-0.35652 0.34605-0.17832 0.14241-0.43297 0.31691-0.55686 0.67714-0.12392 0.36021-5e-3 0.78185 0.26576 1.1689 0.27102 0.38706 0.62814 0.64291 1.009 0.64969 0.38088 7e-3 0.63206-0.17302 0.82687-0.29185 0.19482-0.11882 0.3429-0.19916 0.44667-0.21665 0.10372-0.0175 0.19134-0.0228 0.42196 0.15103 0.23061 0.1738 0.24854 0.25922 0.26034 0.36378 0.0118 0.10462-0.0239 0.26895-0.0844 0.48897-0.0606 0.22001-0.16373 0.51136-0.0522 0.8756 0.11151 0.36424 0.45463 0.63607 0.90141 0.7899 0.44675 0.15388 0.88393 0.15102 1.1961-0.0673 0.31212-0.21838 0.41134-0.51003 0.49907-0.72069 0.0877-0.21066 0.16032-0.36324 0.23395-0.43841 0.0737-0.0751 0.14223-0.13129 0.43096-0.12625 0.28872 5e-3 0.35282 0.0632 0.42384 0.1408 0.071 0.0777 0.13919 0.23269 0.21955 0.44626 0.0804 0.21358 0.16799 0.50853 0.4723 0.73767 0.3043 0.22916 0.74191 0.24897 1.1938 0.11082 0.45187-0.13815 0.80341-0.39936 0.92756-0.7595 0.12411-0.36015 0.0327-0.65376-0.0201-0.87576-0.0528-0.22199-0.0843-0.38843-0.0689-0.49253 0.0154-0.10412 0.038-0.18915 0.27448-0.35481 0.23654-0.16563 0.32283-0.15696 0.42592-0.13587 0.10306 0.0211 0.24871 0.10643 0.43924 0.23199 0.1908 0.12515 0.43643 0.31368 0.81731 0.32019 0.38087 6e-3 0.74684-0.23545 1.0312-0.61282s0.41582-0.79473 0.30462-1.159c-0.11123-0.36433-0.36088-0.54833-0.53409-0.69689-0.17322-0.14853-0.29393-0.26522-0.34263-0.35848-0.0487-0.0933-0.0802-0.17467 0.0138-0.44769 0.094-0.27301 0.16867-0.31688 0.26447-0.36042 0.0958-0.0436 0.26387-0.0609 0.49182-0.0713s0.53655-3e-3 0.84851-0.22183c0.31196-0.21861 0.46435-0.62861 0.47255-1.1011 8e-3 -0.47244-0.12968-0.88825-0.43382-1.1176-0.30411-0.2294-0.61358-0.23168-0.84103-0.25006-0.22745-0.0184-0.393-0.0408-0.48722-0.0876-0.094-0.0472-0.16987-0.093-0.25413-0.36945-0.0844-0.27614-0.0486-0.35763 3e-3 -0.44916 0.0516-0.0917 0.17701-0.20196 0.35529-0.3444 0.17831-0.14241 0.43297-0.31692 0.55685-0.67714 0.12392-0.36021 6e-3 -0.78381-0.26492-1.1709-0.27103-0.38707-0.62607-0.64136-1.007-0.64814-0.38086-7e-3 -0.63339 0.17138-0.8282 0.29019-0.19482 0.11883-0.34363 0.19927-0.4474 0.21675-0.10371 0.0175-0.18968 0.024-0.4203-0.14978-0.23061-0.17379-0.24978-0.26016-0.26159-0.36471-0.0118-0.10462 0.0239-0.26896 0.0844-0.48898 0.0605-0.22005 0.16331-0.51165 0.0518-0.8759-0.11152-0.36424-0.45464-0.63607-0.90141-0.78991-0.44676-0.15387-0.88445-0.14947-1.1966 0.0689-0.31212 0.21838-0.40961 0.51132-0.49743 0.72193-0.0877 0.21066-0.16188 0.36205-0.2356 0.43716-0.0737 0.0751-0.13971 0.1306-0.42848 0.12554-0.28872-5e-3 -0.35436-0.0637-0.42539-0.14132-0.071-0.0777-0.14011-0.23145-0.22047-0.44503-0.0472-0.12541-0.0968-0.27923-0.19126-0.43141 0.0764 0.0789 0.17286 0.15128 0.29967 0.20769 0.35053 0.15593 0.7441 0.0455 1.1172-0.17915 0.37314-0.22464 0.65538-0.52005 0.68159-0.9028 0.0262-0.38275-0.16436-0.62035-0.2888-0.80257s-0.22422-0.33176-0.26745-0.46683c-0.0432-0.13506-0.0585-0.253 0.0427-0.49197 0.10119-0.23898 0.19685-0.31025 0.32393-0.3732 0.12708-0.063 0.30447-0.0954 0.52192-0.13276 0.21746-0.0375 0.52076-0.0646 0.77739-0.34984 0.25662-0.28518 0.26976-0.69277 0.17142-1.1171-0.0983-0.42429-0.29021-0.78627-0.64612-0.92948-0.35592-0.1432-0.63983-0.0327-0.85159 0.0293-0.21175 0.062-0.38575 0.11166-0.52756 0.11104-0.14181-6.3e-4 -0.25882-0.0232-0.45483-0.19327-0.19601-0.17009-0.23527-0.2835-0.25587-0.42381s4e-3 -0.31865 0.0352-0.53704c0.0316-0.21838 0.10011-0.51541-0.0918-0.8476-0.19192-0.33218-0.57572-0.47218-1.0096-0.50976l-4.2e-4 -3.1e-4c-0.43392-0.0376-0.83574 0.0338-1.0819 0.32806-0.24619 0.29425-0.22983 0.59788-0.23626 0.81844-6e-3 0.22057-0.0143 0.40086-0.0587 0.53554s-0.1017 0.24121-0.32404 0.37506c-0.22233 0.13385-0.34052 0.13481-0.48033 0.11105-0.13981-0.0238-0.30236-0.10154-0.50029-0.19906-0.19794-0.0975-0.45843-0.25386-0.83367-0.17398-0.23452 0.0499-0.4221 0.19431-0.57088 0.39352zm0.78917 0.60568c0.0341 0.0114 0.0923 0.0315 0.17234 0.071 0.17748 0.0874 0.43487 0.23132 0.77531 0.28919 0.34043 0.0579 0.76187-4e-5 1.1641-0.2422s0.6513-0.588 0.75946-0.91595c0.10815-0.32794 0.10182-0.6225 0.10759-0.82028 3e-3 -0.0891 0.0126-0.15002 0.0186-0.18527 0.0365-3e-3 0.10219-4e-3 0.21372 6e-3 0.11247 0.01 0.17736 0.0222 0.21284 0.031-1.2e-4 0.0362-1e-3 0.0986-0.0139 0.18756-0.0283 0.19583-0.0848 0.48241-0.0347 0.82406 0.0502 0.34166 0.23309 0.72592 0.58769 1.0336 0.3546 0.30771 0.76216 0.43765 1.1075 0.43918 0.34532 2e-3 0.62262-0.0969 0.81249-0.15256 0.0851-0.0249 0.1458-0.0345 0.18148-0.0399 0.0135 0.034 0.0353 0.0966 0.0607 0.20623 0.0255 0.10992 0.0334 0.17558 0.0361 0.21226-0.0342 0.0106-0.0934 0.0286-0.18097 0.0435-0.19499 0.0336-0.4873 0.0694-0.79673 0.22267-0.30944 0.15328-0.61774 0.44663-0.80082 0.87896-0.18307 0.43233-0.17938 0.85827-0.0741 1.1872 0.10525 0.32889 0.28282 0.56346 0.3944 0.72685 0.0506 0.0741 0.0792 0.12952 0.0954 0.16186-0.0282 0.0235-0.0813 0.0634-0.17742 0.12124-0.0962 0.058-0.15598 0.0858-0.19009 0.0994-0.0208-0.0291-0.057-0.0802-0.0988-0.1599-0.0922-0.17507-0.21572-0.44049-0.45712-0.68741s-0.61594-0.44998-1.0837-0.49049c-0.46775-0.0405-0.87207 0.0952-1.1523 0.297-0.28026 0.20174-0.44754 0.4432-0.56846 0.59981-0.0544 0.0705-0.0982 0.11372-0.12403 0.13883-0.0309-0.0194-0.0854-0.0572-0.17086-0.13133-0.0851-0.0739-0.1301-0.12203-0.15355-0.15001 0.0211-0.029 0.0583-0.0788 0.12053-0.14276 0.13801-0.14177 0.35334-0.34046 0.51358-0.64635s0.23665-0.72665 0.13064-1.184-0.35818-0.79966-0.63665-1.0039-0.55992-0.28866-0.74623-0.35527c-0.0843-0.0301-0.13903-0.0581-0.17099-0.0745 9e-3 -0.0357 0.0276-0.0994 0.0715-0.20303 0.0437-0.1033 0.0762-0.16087 0.0955-0.19202zm1.985 0.83836c-0.40246 0.5492-0.28211 1.333 0.26653 1.7363 0.54861 0.40339 1.3313 0.28342 1.7355-0.26457 0.4042-0.54803 0.2878-1.331-0.25951-1.7362-0.54743-0.40501-1.3318-0.28837-1.7378 0.25826a0.4 0.4 0 0 0 1e-3 5e-3 0.4 0.4 0 0 0-6e-3 8.1e-4zm0.64354 0.47007a0.4 0.4 0 0 0 3e-3 -4.1e-4c0.14832-0.20015 0.41838-0.23919 0.61857-0.091 0.2001 0.14828 0.24217 0.41799 0.0943 0.61847-0.14752 0.20074-0.41913 0.24274-0.61982 0.0952-0.20071-0.14749-0.24274-0.41844-0.0955-0.61941a0.4 0.4 0 0 0-4.1e-4 -3e-3zm-3.4097 6.6706c0.1506-0.19985 0.20148-0.21703 0.21236-0.21656l4.1e-4 3.1e-4 7.3e-4 -1e-4 4.1e-4 3.1e-4 4.1e-4 3.2e-4 -3.1e-4 4.1e-4c-5e-3 5.1e-4 0.10264 0.0351 0.2849 0.15516 0.18227 0.12002 0.43028 0.30252 0.78784 0.37562 0.35753 0.0732 0.79777-0.0129 1.2006-0.29494 0.40282-0.28206 0.63671-0.66662 0.69025-1.0276 0.0535-0.361-0.0339-0.65625-0.0844-0.86856-0.0503-0.21134-0.0468-0.3242-0.0484-0.32051l-4.2e-4 -3.1e-4 -4.1e-4 -3.1e-4 -1e-4 -7.2e-4 3.1e-4 -4.2e-4 -1e-4 -7.2e-4 3.1e-4 -4.1e-4c3e-3 -0.0107 0.0367-0.0528 0.27603-0.12588 0.23931-0.0732 0.29036-0.0568 0.29891-0.0498l8.2e-4 6.2e-4 1e-4 7.3e-4 4.2e-4 3.1e-4 -3.1e-4 4.1e-4c-4e-3 -2e-3 0.0612 0.0892 0.13782 0.2928 0.0769 0.20426 0.17007 0.49797 0.41633 0.76731 0.24625 0.26934 0.65408 0.45878 1.1457 0.46738 0.49168 9e-3 0.90488-0.1656 1.1604-0.42617 0.25551-0.26059 0.36009-0.55234 0.44386-0.75389 0.0837-0.20078 0.1508-0.28936 0.1471-0.28709l3.1e-4 -4.1e-4 -4.1e-4 -3.1e-4 3.1e-4 -4.1e-4 3.1e-4 -4.2e-4c6e-3 -6e-3 0.0539-0.0245 0.29959 0.0601 0.2366 0.0815 0.26831 0.12503 0.2711 0.1357l1e-4 7.2e-4 1e-4 7.3e-4 -6.2e-4 8.2e-4 -4.1e-4 -3.1e-4c-2e-3 -5e-3 -2e-3 0.10658-0.0602 0.31695-0.0579 0.21044-0.15347 0.50372-0.11256 0.86636 0.0409 0.36265 0.2589 0.75416 0.65164 1.0501 0.39274 0.29595 0.82862 0.39916 1.1885 0.3385 0.35988-0.0606 0.61536-0.23409 0.80167-0.34772 0.18548-0.11314 0.29324-0.14471 0.28921-0.14508l3.1e-4 -4.1e-4 7.2e-4 -1e-4 3.1e-4 -4.1e-4 4.1e-4 3.1e-4c8e-3 -1e-3 0.0563 0.01 0.20507 0.22247 0.14354 0.20499 0.14398 0.25902 0.14005 0.26924l-6.2e-4 8.2e-4 -3.1e-4 4.2e-4 -3.1e-4 4.1e-4 -4.2e-4 -3.1e-4c1e-3 -4e-3 -0.066 0.0863-0.23594 0.22209-0.17051 0.1362-0.42113 0.31465-0.60119 0.63208-0.18019 0.31736-0.23184 0.76461-0.0881 1.2349 0.14378 0.47027 0.43541 0.81046 0.76219 0.97294 0.32676 0.16251 0.63522 0.17143 0.85275 0.18901 0.21688 0.0175 0.32303 0.0534 0.31966 0.0506l3.1e-4 -4.1e-4 4.1e-4 3.1e-4 3.1e-4 -4.1e-4 4.2e-4 3.1e-4 4.1e-4 3.1e-4c8e-3 4e-3 0.0404 0.0429 0.0359 0.3027-4e-3 0.25022-0.0363 0.29357-0.0457 0.29941l-7.3e-4 1.1e-4 -3.1e-4 4.1e-4 -7.2e-4 1e-4 -4.2e-4 -3.1e-4 -4.1e-4 -3.1e-4c3e-3 -3e-3 -0.10369 0.0318-0.32069 0.0417-0.21801 0.01-0.52667 7e-3 -0.85892 0.15835-0.33226 0.15096-0.63611 0.48087-0.79621 0.94584-0.16009 0.46496-0.12341 0.91361 0.0455 1.2371 0.16887 0.32353 0.41444 0.51181 0.58008 0.65389 0.16563 0.1421 0.22781 0.23429 0.22634 0.22944l3.1e-4 -4.1e-4 4.1e-4 3.1e-4 4.2e-4 3.1e-4 1e-4 7.3e-4c4e-3 8e-3 7e-3 0.0574-0.14943 0.26527-0.15061 0.19986-0.20177 0.21747-0.21268 0.21698l-4.1e-4 -3.2e-4 -7.2e-4 1.1e-4 -4.2e-4 -3.1e-4 -4.1e-4 -3.2e-4 3.1e-4 -4.1e-4 7.2e-4 -1e-4c5e-3 -5.1e-4 -0.10216-0.0366-0.28438-0.15671-0.18226-0.12001-0.43067-0.30282-0.78825-0.37593-0.35754-0.0731-0.79861 0.0148-1.2014 0.29689-0.40282 0.28206-0.63387 0.66553-0.68745 1.0265-0.0536 0.36099 0.0324 0.65831 0.0829 0.87063 0.0504 0.21178 0.0487 0.32296 0.0503 0.31875l4.2e-4 3.1e-4 1e-4 7.2e-4 1e-4 7.3e-4 -6.2e-4 8.2e-4c-3e-3 0.0107-0.0363 0.0531-0.27562 0.12619-0.24852 0.076-0.2953 0.0545-0.30138 0.0479l-4.2e-4 -3.1e-4 -4.1e-4 -3.1e-4 3.1e-4 -4.1e-4c4e-3 3e-3 -0.0597-0.0876-0.13659-0.29187-0.0769-0.20425-0.17131-0.4989-0.41756-0.76824s-0.65333-0.45635-1.145-0.4649c-0.49167-9e-3 -0.90683 0.16476-1.1623 0.42534-0.25551 0.26059-0.35884 0.55068-0.44261 0.75224-0.0839 0.20144-0.15201 0.29008-0.14783 0.28719l4.1e-4 3.1e-4 4.2e-4 3.1e-4 -3.2e-4 4.1e-4 -3.1e-4 4.2e-4 -3.1e-4 4.1e-4c-6e-3 6e-3 -0.0528 0.0265-0.29856-0.058-0.24569-0.0846-0.27102-0.13052-0.27201-0.13963l3.1e-4 -4.1e-4 -4.2e-4 -3.1e-4 3.1e-4 -4.1e-4 4.2e-4 3.1e-4c2e-3 5e-3 3e-3 -0.10628 0.0607-0.31664 0.0578-0.21044 0.15543-0.50288 0.11452-0.86553-0.0409-0.36265-0.26087-0.75498-0.6536-1.0509s-0.82908-0.3994-1.1889-0.33881c-0.35987 0.0606-0.61619 0.23605-0.8025 0.34968-0.18631 0.11364-0.29302 0.14592-0.28796 0.14601l-3.2e-4 4.1e-4 -3.1e-4 4.1e-4 -4.1e-4 -3.1e-4c-9e-3 1e-3 -0.058-0.0104-0.20702-0.2233-0.14906-0.21287-0.14264-0.264-0.13819-0.27172l6.2e-4 -8.2e-4 4.1e-4 3.1e-4c-1e-3 4e-3 0.0651-0.0851 0.23501-0.22085 0.17051-0.13621 0.42196-0.31662 0.60203-0.63405 0.18018-0.31735 0.23319-0.76295 0.0894-1.2332-0.14377-0.47027-0.43789-0.80974-0.76467-0.97222-0.32677-0.16251-0.63523-0.17143-0.85276-0.18901-0.21688-0.0175-0.3222-0.0554-0.31882-0.0526l-3.1e-4 4.2e-4 -7.3e-4 1e-4 -4.1e-4 -3.1e-4c-8e-3 -4e-3 -0.0404-0.0429-0.0359-0.3027 4e-3 -0.25021 0.0366-0.29398 0.0461-0.29983l7.3e-4 -1e-4 3.1e-4 -4.1e-4 4.1e-4 3.1e-4 3.1e-4 -4.1e-4 4.1e-4 3.1e-4c-4e-3 3e-3 0.10333-0.031 0.3208-0.041 0.21801-0.01 0.52625-8e-3 0.8585-0.15866 0.33225-0.15097 0.63611-0.48087 0.79621-0.94584 0.1601-0.46496 0.12259-0.91166-0.0463-1.2352-0.16887-0.32353-0.41123-0.51263-0.57687-0.65471-0.16511-0.14166-0.22935-0.23449-0.2283-0.23027l-3.1e-4 4.1e-4 -4.2e-4 -3.1e-4 -4.1e-4 -3.1e-4 -1e-4 -7.3e-4 -4.1e-4 -3.1e-4 -1.1e-4 -7.2e-4c-4e-3 -0.0102-2e-3 -0.0628 0.14902-0.26301zm3.2187 2.4203c-0.83232 1.1365-0.59412 2.7427 0.53574 3.573 1.13 0.83035 2.7326 0.57749 3.569-0.55621 0.83641-1.1337 0.60514-2.7407-0.52198-3.5749-1.1272-0.83421-2.732-0.58678-3.5722 0.54411a0.4 0.4 0 0 0 2e-3 0.0109 0.4 0.4 0 0 0-0.0121 3e-3zm0.64439 0.46293a0.4 0.4 0 0 0 8e-3 -1e-3c0.58461-0.78743 1.6759-0.9519 2.4529-0.37683 0.77678 0.57532 0.93737 1.6668 0.35513 2.456-0.5822 0.78921-1.6715 0.95886-2.4504 0.38645-0.77891-0.57242-0.94433-1.665-0.36474-2.4561a0.4 0.4 0 0 0-8.1e-4 -8e-3z" stop-color="#000000" stroke-linecap="round" stroke-linejoin="round"/>
 </g>
</svg>
