

<svg xmlns="http://www.w3.org/2000/svg" width="75.572" height="75.318" viewBox="0 0 19.995 19.928" xmlns:v="https://vecta.io/nano"><path d="M14.88.38a1.96 1.96 0 0 0-.464.064c-.423.106-.779.305-.916.663s-.021.64.045.851.117.383.119.525-.018.26-.184.459-.279.239-.419.262-.319.002-.537-.025-.518-.091-.846.107-.462.584-.492 1.019.048.835.347 1.076.602.219.823.222.401.005.537.048.242.098.379.318.141.34.119.48-.097.303-.191.503l-.112.247c.009-.058.015-.119.015-.183 0-.381-.249-.742-.631-1.02s-.803-.402-1.165-.284-.541.37-.687.546-.26.299-.352.349-.172.083-.446-.006-.321-.163-.366-.258-.065-.263-.079-.49-.011-.537-.235-.845-.637-.453-1.11-.453-.887.145-1.111.453-.221.618-.235.846-.033.394-.078.489-.091.169-.366.258-.357.056-.449.006-.205-.174-.351-.35-.326-.427-.688-.545-.781.008-1.164.286-.631.638-.631 1.019.184.629.306.822.204.34.223.444.026.19-.144.424-.255.254-.359.268-.27-.02-.491-.076-.514-.155-.876-.037-.627.467-.774.916-.135.889.088 1.197.519.401.731.485.365.154.442.226.133.139.133.428-.057.354-.134.427-.229.143-.441.227-.507.177-.731.485-.234.746-.088 1.195.411.797.774.915.655.022.876-.035.387-.091.491-.077.19.035.36.268.162.32.143.423-.102.251-.224.444-.305.44-.305.821.248.742.63 1.02.802.401 1.165.284.542-.367.687-.543.259-.301.352-.351.174-.083.449.006.32.163.365.258.065.263.079.49.012.537.236.845.637.455 1.11.455.885-.146 1.109-.454.221-.618.235-.846.035-.394.08-.489.091-.169.366-.258.355-.056.447-.006.207.174.353.35.325.427.688.544.781-.007 1.164-.285.631-.638.631-1.019-.184-.629-.306-.822-.204-.338-.223-.442-.028-.192.142-.425.256-.254.361-.268.268.02.489.076.514.155.876.037.63-.467.776-.916.135-.886-.088-1.194-.518-.403-.73-.487-.366-.155-.442-.227-.133-.137-.133-.426.057-.356.134-.428.229-.143.441-.227.507-.177.731-.486.234-.746.088-1.195-.413-.796-.775-.914-.655-.019-.876.037-.387.089-.491.075-.188-.033-.358-.267-.162-.321-.143-.425.101-.251.223-.444c.072-.113.165-.245.229-.412-.017.108-.017.229.014.364.086.374.411.622.815.784s.81.21 1.131.001.397-.505.467-.714.13-.379.212-.495.167-.199.419-.262.366-.03.493.034.259.186.42.337.365.377.747.41.716-.201.995-.535.453-.705.353-1.075-.359-.531-.536-.662-.321-.241-.406-.355-.137-.221-.119-.48.085-.359.184-.459.257-.189.45-.295.472-.23.622-.583.031-.744-.2-1.113v-.001c-.231-.369-.53-.647-.913-.667s-.616.176-.796.304-.329.23-.463.275-.254.064-.495-.033-.313-.191-.378-.317-.101-.303-.142-.519-.073-.519-.363-.771c-.181-.157-.409-.22-.658-.219zm-.009.995c.011.034.03.093.047.18.037.194.077.487.236.793s.459.608.894.784.862.166 1.189.055.558-.293.72-.408a1.32 1.32 0 0 1 .159-.097c.024.027.065.079.124.174a1.45 1.45 0 0 1 .103.189c-.029.022-.079.059-.158.102-.173.095-.436.223-.679.468s-.439.623-.472 1.091.109.872.316 1.149.452.439.611.557c.071.053.115.096.141.121-.019.031-.056.086-.128.173a1.41 1.41 0 0 1-.148.157 1.33 1.33 0 0 1-.144-.118c-.144-.136-.349-.347-.657-.502s-.728-.225-1.184-.111a1.72 1.72 0 0 0-.993.655c-.199.282-.28.565-.343.752-.029.085-.056.141-.072.174a1.44 1.44 0 0 1-.204-.069 1.35 1.35 0 0 1-.194-.092 1.29 1.29 0 0 1 .068-.175c.084-.179.222-.437.274-.779a1.72 1.72 0 0 0-.26-1.161 1.72 1.72 0 0 0-.931-.742c-.33-.102-.623-.091-.821-.093-.089-.001-.15-.01-.186-.016a1.42 1.42 0 0 1 .002-.215c.008-.112.019-.177.027-.213.036-.001.098-.001.187.01.196.025.485.077.825.021s.723-.248 1.024-.608.423-.767.419-1.113-.106-.621-.165-.81c-.027-.085-.037-.146-.043-.181a1.39 1.39 0 0 1 .205-.065 1.39 1.39 0 0 1 .211-.039zm.525 2.09a1.25 1.25 0 0 0-1.226 1.258 1.25 1.25 0 0 0 1.256 1.227 1.25 1.25 0 0 0 1.23-1.252 1.25 1.25 0 0 0-1.252-1.232zm.012.797a.44.44 0 0 1 .447.441c.002.249-.188.445-.437.448s-.446-.189-.449-.438.188-.446.437-.449zM8.029 5.553c.25 0 .295.03.301.039v.001h.001v.001h0-.001c-.003-.004.034.103.048.321s.017.526.174.855.49.629.958.781.916.107 1.236-.067.504-.422.643-.59.231-.232.227-.232v-.001h0v-.001h.001.001.001c.01-.004.064-.002.267.145s.22.198.22.209v.001.001h0-.001c-.001-.004-.034.103-.151.286s-.295.436-.362.794.027.798.316 1.196.677.623 1.039.67.658-.045.869-.099.322-.054.318-.055h.001v-.001h.001.001c.008.001.052.028.132.275.077.238.062.29.055.298h-.001v.001h-.001v-.001c.003-.005-.086.063-.289.143s-.495.181-.76.431-.446.661-.446 1.152.18.902.445 1.153.557.351.76.431.292.147.29.144h.001.001.001v.001c.006.006.026.051-.054.298-.077.238-.12.271-.131.274h-.001-.001-.001 0c.004-.002-.109-.001-.319-.055s-.505-.147-.867-.1-.75.275-1.039.673-.385.835-.318 1.194.245.61.362.795.152.29.152.286h.001 0 .001v.001h0c.002.009-.01.058-.22.211-.202.147-.256.148-.267.144v-.001h-.001-.001v-.001h0c.004.001-.088-.064-.226-.231s-.323-.416-.643-.591-.767-.219-1.235-.067-.804.451-.961.781-.159.639-.173.857-.05.323-.047.319h.001 0v.001H8.33c-.004.008-.042.04-.302.04-.25 0-.295-.03-.301-.039h0l-.001-.001h0v-.001h.001v.001c.003.004-.032-.104-.046-.321s-.017-.526-.174-.856-.492-.629-.96-.781-.913-.106-1.234.069-.506.422-.645.59-.229.233-.224.232h0l-.001.001h-.001-.001c-.01.004-.064.003-.267-.144-.21-.153-.221-.203-.22-.212h0v-.001h.001c0 .005.034-.1.151-.285s.295-.437.362-.796-.029-.796-.318-1.194-.677-.625-1.039-.672-.656.045-.867.099-.323.053-.318.055v.001h0-.001-.001-.001c-.008-.001-.053-.026-.133-.273s-.059-.295-.052-.301h.001v-.001h.001v.001c-.003.005.087-.062.289-.142s.495-.179.76-.429.446-.663.446-1.154-.18-.902-.445-1.153-.559-.35-.762-.43-.293-.146-.29-.142h-.001-.001v-.001c-.006-.007-.027-.053.054-.3s.125-.273.134-.274h.001 0c-.004.002.107.001.318.055s.507.146.869.099.75-.273 1.039-.671.383-.837.316-1.196-.245-.61-.362-.795-.15-.291-.15-.286h-.001l-.001-.001v-.001c-.002-.009.01-.058.22-.211.202-.147.257-.148.267-.144l.001.001h.001 0 .001v.001c-.005-.001.087.064.226.232s.323.415.643.59.767.219 1.235.067.802-.451.959-.78.162-.637.176-.855.049-.324.047-.321h-.001v-.001h0v-.001h0l.001-.001c.006-.009.049-.039.3-.039zm.004 4.027c-1.409.019-2.548 1.176-2.531 2.578s1.183 2.53 2.592 2.516 2.553-1.166 2.541-2.568S9.459 9.57 8.05 9.58zm.018.793a1.76 1.76 0 0 1 1.783 1.738 1.75 1.75 0 0 1-1.748 1.762c-.981.01-1.772-.758-1.783-1.724s.761-1.756 1.742-1.769z"/></svg>
