<?xml version="1.0" encoding="UTF-8"?>
<!-- Created with Inkscape (http://www.inkscape.org/) -->
<svg width="19.995mm" height="19.928mm" version="1.1" viewBox="0 0 19.995 19.928" xmlns="http://www.w3.org/2000/svg">
 <g transform="translate(-119.97 -120.11)">
  <rect x="119.97" y="120.11" width="19.995" height="19.928" ry="0" fill="none"/>
  <path d="m121.09 126.52a0.50005 0.50005 0 0 0-0.33951 0.86713l4.4256 4.0928c-0.4615 0.41064-1.2479 1.1122-2.033 1.8211-0.61042 0.55123-1.2199 1.1062-1.6779 1.5353-0.22903 0.21457-0.42005 0.39752-0.55862 0.53692-0.0693 0.0697-0.12417 0.12678-0.17208 0.1819-0.0239 0.0276-0.0456 0.052-0.0739 0.0935-0.0142 0.0208-0.0309 0.045-0.0527 0.0941-0.0109 0.0246-0.0225 0.0559-0.0331 0.10697-5e-3 0.0255-0.0119 0.0935-0.0119 0.0941-2e-5 6.4e-4 0.0174 0.14005 0.0176 0.14056a0.50005 0.50005 0 0 0 0.48266 0.37103h12.65a0.5 0.5 0 0 0 4e-3 0c2.6872-0.0248 4.8472-2.2779 4.8261-5.0074-0.0212-2.7278-2.212-4.9438-4.8969-4.9279-1e-3 1e-5 -2e-3 0-4e-3 0h-6e-3zm1.2774 0.99994h11.275a0.5 0.5 0 0 0 4e-3 0 0.5 0.5 0 0 0 4e-3 0c2.133-0.0125 3.8752 1.7357 3.8923 3.9357 0.0171 2.1979-1.6934 3.9744-3.8235 3.9998-2e-3 2e-5 -4e-3 -3e-5 -6e-3 0h-11.444c0.43703-0.40741 0.97927-0.90318 1.5431-1.4123 1.1235-1.0146 2.2514-2.0163 2.4169-2.1632a0.5 0.5 0 0 0 0.0579-0.0532 0.5 0.5 0 0 0 0.0806-0.12041 0.5 0.5 0 0 0 1e-3 -2e-3 0.5 0.5 0 0 0 0.0227-0.0553 0.5 0.5 0 0 0 4e-3 -0.0129 0.5 0.5 0 0 0 0.0134-0.0506 0.5 0.5 0 0 0 2e-3 -0.0155 0.5 0.5 0 0 0 6e-3 -0.045 0.5 0.5 0 0 0 1e-3 -0.0279 0.5 0.5 0 0 0-5.2e-4 -0.0388 0.5 0.5 0 0 0-3e-3 -0.0227 0.5 0.5 0 0 0-6e-3 -0.0424 0.5 0.5 0 0 0-7e-3 -0.0289 0.5 0.5 0 0 0-8e-3 -0.0294 0.5 0.5 0 0 0-0.0145-0.0382 0.5 0.5 0 0 0-9e-3 -0.0227 0.5 0.5 0 0 0-0.0672-0.1049 0.5 0.5 0 0 0-1e-3 -1e-3 0.5 0.5 0 0 0-9e-3 -0.0114 0.5 0.5 0 0 0-0.0563-0.0548z" stop-color="#000000" stroke-linecap="round" stroke-linejoin="round"/>
 </g>
</svg>
