<?xml version="1.0" encoding="UTF-8"?>
<!-- Created with Inkscape (http://www.inkscape.org/) -->
<svg width="19.995mm" height="19.928mm" version="1.1" viewBox="0 0 19.995 19.928" xmlns="http://www.w3.org/2000/svg">
 <g transform="translate(-99.92 -160.05)">
  <rect x="99.92" y="160.05" width="19.995" height="19.928" ry="0" fill="none"/>
  <path d="m104.95 163.6a0.50005 0.50005 0 0 0-0.50023 0.50023v12.209a0.50005 0.50005 0 0 0 0.50023 0.49971h10.248a0.50005 0.50005 0 0 0 0.49971-0.49971v-9.1271a0.50005 0.50005 0 0 0-0.14625-0.35346l-3.0799-3.082a0.50005 0.50005 0 0 0-0.12713-0.0253 0.50005 0.50005 0 0 0-0.293-0.12144zm0.49971 0.99994h6.1681v2.6489a0.50005 0.50005 0 0 0 0.49971 0.49971h2.5802v8.0605h-9.248zm7.168 0.7736 1.373 1.3751h-1.373z" stop-color="#000000" stroke-linejoin="round"/>
 </g>
</svg>
