<?xml version="1.0" encoding="UTF-8"?>
<!-- Created with Inkscape (http://www.inkscape.org/) -->
<svg width="19.995mm" height="19.928mm" version="1.1" viewBox="0 0 19.995 19.928" xmlns="http://www.w3.org/2000/svg">
 <g transform="translate(-20.08 -160.05)">
  <rect x="20.08" y="160.05" width="19.995" height="19.928" ry="0" fill="none"/>
  <path d="m26.103 162.95a0.50005 0.50005 0 0 0-0.30437 0.0992l-4.101 3.0753-0.01447 0.0109 5.17e-4 5.2e-4a0.50005 0.50005 0 0 0-0.20154 0.40204l0.04702 8.7478a0.50005 0.50005 0 0 0 0.49816 0.49609l11.927 0.047a0.50005 0.50005 0 0 0 0.43615-0.25218l3.9429-3.0799a0.50005 0.50005 0 0 0 0.1912-0.39429v-8.5607a0.50005 0.50005 0 0 0-0.49609-0.50023zm0.1602 0.99994 10.274 0.0801-2.7445 2.0521-10.317-0.0408zm11.262 0.59118v7.3169l-3.0685 2.3993v-7.4249zm-15.041 2.4965 10.972 0.0434v7.7458l-10.93-0.0429z" stop-color="#000000" stroke-linejoin="round"/>
 </g>
</svg>
