<?xml version="1.0" encoding="UTF-8"?>
<!-- Created with Inkscape (http://www.inkscape.org/) -->
<svg width="19.995mm" height="19.928mm" version="1.1" viewBox="0 0 19.995 19.928" xmlns="http://www.w3.org/2000/svg">
 <g transform="translate(-159.98 -160.05)">
  <rect x="159.98" y="160.05" width="19.995" height="19.928" ry="0" fill="none"/>
  <path d="m174.02 165.42a0.5 0.5 0 0 0-0.35346 0.14625 0.5 0.5 0 0 0 0 0.70693l2.298 2.2991-11.741 0.0176 2.2686-2.2696a0.5 0.5 0 0 0 0-0.70693 0.5 0.5 0 0 0-0.35347-0.14676 0.5 0.5 0 0 0-0.35346 0.14676l-4.9801 4.9821a0.50005 0.50005 0 0 0 0 0.70745l5.0741 5.0741a0.5 0.5 0 0 0 0.70693 0 0.5 0.5 0 0 0 0-0.70694l-2.1663-2.1668 11.433 0.0269-2.0929 2.0929a0.5 0.5 0 0 0 0 0.70693 0.5 0.5 0 0 0 0.70694 0l4.9806-4.9806a0.50005 0.50005 0 0 0 0-0.70694l-5.0741-5.0762a0.5 0.5 0 0 0-0.35347-0.14625zm2.9425 4.1506 1.4247 1.4252-1.5369 1.5369-13.433-0.032-1.5518-1.5518 1.3565-1.3575z" stop-color="#000000" stroke-linecap="round" stroke-linejoin="round"/>
 </g>
</svg>
