<?xml version="1.0" encoding="UTF-8"?>
<!-- Created with Inkscape (http://www.inkscape.org/) -->
<svg width="19.995mm" height="19.928mm" version="1.1" viewBox="0 0 19.995 19.928" xmlns="http://www.w3.org/2000/svg">
 <g transform="translate(-19.992 -120.11)">
  <rect x="19.992" y="120.11" width="19.995" height="19.928" ry="0" fill="none"/>
  <path d="m27.183 123.97a0.5 0.5 0 0 0-0.02119 0.0103 0.5 0.5 0 0 0-0.01964-8e-3c-3.4192 0.0465-6.1654 2.864-6.1247 6.2833 0.04075 3.4193 2.8536 6.17 6.273 6.135 0.95572-0.01 1.8599-0.23624 2.6655-0.632 0.84256 0.41381 1.7909 0.64223 2.7916 0.632 3.4194-0.035 6.174-2.8427 6.1448-6.2622-0.02918-3.4194-2.8328-6.1817-6.2523-6.1583a0.5 0.5 0 0 0-0.01344 0.014 0.5 0.5 0 0 0-0.02739-0.0119c-0.94791 0.0129-1.8443 0.23889-2.6438 0.63149-0.83677-0.41157-1.7786-0.64035-2.7724-0.63356zm5.4415 0.99064a0.5 0.5 0 0 0 0.02377 0.01c2.8797-0.0197 5.2196 2.2865 5.2441 5.1661 0.02457 2.8796-2.2767 5.2245-5.1563 5.2539-0.60956 6e-3 -1.1955-0.0918-1.7405-0.2775 1.4967-1.1469 2.4569-2.9584 2.4396-4.9847-0.01696-1.9875-0.97148-3.7528-2.4391-4.8782 0.50739-0.17284 1.0511-0.2698 1.617-0.2775a0.5 0.5 0 0 0 0.01137-0.0119zm-5.4493 4e-3a0.5 0.5 0 0 0 0.01602 6e-3c0.60402-4e-3 1.1843 0.0942 1.7244 0.27854-1.5034 1.1514-2.4654 2.9723-2.4412 5.0064 0.0236 1.9803 0.97694 3.7361 2.4396 4.8566-0.51305 0.1749-1.0625 0.27268-1.635 0.27853-2.8796 0.0294-5.2274-2.2674-5.2617-5.147-0.03432-2.8795 2.2592-5.2318 5.1387-5.271a0.5 0.5 0 0 0 0.01912-8e-3zm2.7812 0.77463c1.4759 0.90783 2.463 2.5327 2.4789 4.3977 0.01619 1.8975-0.97788 3.5624-2.4815 4.486-1.4712-0.90399-2.4573-2.5195-2.4794-4.3785-0.02269-1.9042 0.97254-3.5784 2.482-4.5052z" stop-color="#000000" stroke-linecap="round" stroke-linejoin="round"/>
 </g>
</svg>
