<?xml version="1.0" encoding="UTF-8"?>
<!-- Created with Inkscape (http://www.inkscape.org/) -->
<svg width="19.995mm" height="19.928mm" version="1.1" viewBox="0 0 19.995 19.928" xmlns="http://www.w3.org/2000/svg">
 <g transform="translate(-60.023 -160.05)">
  <rect x="60.023" y="160.05" width="19.995" height="19.928" ry="0" fill="none"/>
  <path d="m73.83 164.56a0.5 0.5 0 0 0-0.35347 0.14625 0.5 0.5 0 0 0 0 0.70693l4.7206 4.7206-4.6271 4.6292a0.5 0.5 0 0 0 0 0.70693 0.5 0.5 0 0 0 0.70693 0l4.9806-4.9821a0.50005 0.50005 0 0 0 0-0.70745l-5.0741-5.0741a0.5 0.5 0 0 0-0.35347-0.14625zm-7.8807 0.047a0.5 0.5 0 0 0-0.35398 0.14624l-4.9821 4.9806a0.50005 0.50005 0 0 0 0 0.70693l5.0762 5.0762a0.5 0.5 0 0 0 0.70693 0 0.5 0.5 0 0 0 0-0.70694l-4.7227-4.7227 4.6292-4.6271a0.5 0.5 0 0 0 0-0.70694 0.5 0.5 0 0 0-0.35347-0.14624zm-1.9653 5.0503a0.5 0.5 0 0 0-0.49971 0.50022 0.5 0.5 0 0 0 0.49971 0.49971h4.0003a0.5 0.5 0 0 0 0.49971-0.49971 0.5 0.5 0 0 0-0.49971-0.50022zm8 0a0.5 0.5 0 0 0-0.49971 0.50022 0.5 0.5 0 0 0 0.49971 0.49971h4.0003a0.5 0.5 0 0 0 0.49971-0.49971 0.5 0.5 0 0 0-0.49971-0.50022z" stop-color="#000000" stroke-dasharray="4, 4" stroke-linecap="round" stroke-linejoin="round"/>
 </g>
</svg>
