<?xml version="1.0" encoding="UTF-8"?>
<!-- Created with Inkscape (http://www.inkscape.org/) -->
<svg width="19.995mm" height="19.928mm" version="1.1" viewBox="0 0 19.995 19.928" xmlns="http://www.w3.org/2000/svg">
 <g transform="translate(-179.99 -160.05)">
  <rect x="179.99" y="160.05" width="19.995" height="19.928" ry="0" fill="none"/>
  <path transform="translate(0 20.018)" d="m187.32 142.12c-0.6647 8e-3 -1.16 0.0649-1.5916 0.31058-0.43165 0.2456-0.73386 0.64174-1.08 1.2092s-0.74953 1.3303-1.3751 2.3983-1.0944 1.7935-1.4201 2.373c-0.32569 0.57949-0.52397 1.0366-0.5271 1.5332-3e-3 0.49662 0.18909 0.9559 0.50746 1.5394 0.31838 0.58355 0.77852 1.3164 1.3906 2.3921s1.0051 1.8446 1.3441 2.4164c0.33901 0.5718 0.6355 0.97166 1.064 1.2227 0.42852 0.25102 0.92346 0.31364 1.588 0.32969 0.66455 0.0161 1.528-0.0154 2.7657-8e-3 1.2377 8e-3 2.101 0.0506 2.7657 0.0429 0.6647-8e-3 1.1579-0.0649 1.5896-0.31057 0.43164-0.2456 0.73386-0.64121 1.08-1.2087 0.34618-0.56749 0.74954-1.3324 1.3751-2.4004 0.62558-1.068 1.0944-1.7935 1.4201-2.373 0.32568-0.5795 0.52398-1.0366 0.5271-1.5332 3e-3 -0.49661-0.18909-0.95589-0.50746-1.5394-0.31837-0.58354-0.77697-1.3148-1.3891-2.3906-0.6121-1.0758-1.0066-1.8441-1.3457-2.4159-0.33901-0.5718-0.6355-0.97165-1.064-1.2227-0.42852-0.25101-0.92346-0.31621-1.588-0.33227-0.66455-0.0161-1.528 0.0178-2.7657 0.0103-1.2377-8e-3 -2.099-0.0506-2.7636-0.0429zm8e-3 0.79892c0.62088-7e-3 1.4986 0.0355 2.7523 0.0434 1.2536 8e-3 2.129-0.0231 2.7497-8e-3 0.62074 0.015 0.95865 0.0773 1.2035 0.22066 0.24489 0.14345 0.46418 0.40744 0.78084 0.94154 0.31667 0.53411 0.71791 1.3128 1.3379 2.4024 0.62 1.0896 1.0855 1.8336 1.3829 2.3787 0.29738 0.54508 0.41002 0.86857 0.40824 1.1524-2e-3 0.2838-0.11952 0.60541-0.42374 1.1467-0.30421 0.54129-0.77867 1.2773-1.4123 2.359-0.63365 1.0817-1.0456 1.8568-1.3689 2.3869-0.32335 0.53007-0.5445 0.79137-0.79117 0.93173-0.24668 0.14035-0.58421 0.19798-1.2051 0.20516-0.62088 7e-3 -1.4981-0.0355-2.7518-0.0434-1.2536-8e-3 -2.1295 0.0231-2.7502 8e-3 -0.62073-0.015-0.95814-0.0773-1.203-0.22066-0.24489-0.14345-0.46261-0.40537-0.77928-0.93948-0.31666-0.5341-0.7179-1.3149-1.3379-2.4045-0.61999-1.0896-1.0855-1.8336-1.3829-2.3787s-0.41158-0.86652-0.4098-1.1503c2e-3 -0.2838 0.11954-0.60541 0.42375-1.1467 0.30422-0.54129 0.77815-1.2794 1.4118-2.3611 0.63365-1.0818 1.0461-1.8569 1.3694-2.3869 0.32336-0.53008 0.54397-0.7893 0.79065-0.92966 0.24667-0.14036 0.58422-0.20003 1.2051-0.20722zm4.809 2.1368a0.5 0.5 0 0 0-0.24856 0.0754 0.5 0.5 0 0 0-0.1602 0.68729l2.8458 4.5646a0.5 0.5 0 0 0 0.6873 0.1602 0.5 0.5 0 0 0 0.16019-0.68936l-2.8438-4.5625a0.5 0.5 0 0 0-0.31058-0.22272 0.5 0.5 0 0 0-0.13022-0.0129zm-4.2654 0.0656a0.5 0.5 0 0 0-0.44184 0.23409l-2.8107 4.4984a0.5 0.5 0 0 0 0.15813 0.68936 0.5 0.5 0 0 0 0.68937-0.15813l2.8107-4.4984a0.5 0.5 0 0 0-0.15813-0.68937 0.5 0.5 0 0 0-0.24753-0.076zm-0.81132 8.4997a0.5 0.5 0 0 0-0.49971 0.50023 0.5 0.5 0 0 0 0.49971 0.49971h6.0529a0.5 0.5 0 0 0 0.50023-0.49971 0.5 0.5 0 0 0-0.50023-0.50023z" stop-color="#000000" stroke-linecap="round" stroke-linejoin="round"/>
 </g>
</svg>
