<?xml version="1.0" encoding="UTF-8"?>
<!-- Created with Inkscape (http://www.inkscape.org/) -->
<svg width="19.995mm" height="19.928mm" version="1.1" viewBox="0 0 19.995 19.928" xmlns="http://www.w3.org/2000/svg">
 <g transform="translate(-60.011 -120.11)">
  <rect x="60.011" y="120.11" width="19.995" height="19.928" ry="0" fill="none"/>
  <path d="m73.74 123.61a0.50005 0.50005 0 0 0-0.32812 0.47461l0.02539 2.6367-12.557 4e-3a0.50005 0.50005 0 0 0-0.5 0.5l-0.0039 6.0488a0.50005 0.50005 0 0 0 0.50195 0.5l12.529-0.0469v2.3262a0.50005 0.50005 0 0 0 0.88281 0.32031l4.9941-5.9531a0.50005 0.50005 0 0 0 2e-3 -0.64063l-4.9902-6.0195a0.50005 0.50005 0 0 0-0.55664-0.15039zm0.68555 1.873 3.8262 4.6152-3.8438 4.5801v-1.4531a0.50005 0.50005 0 0 0-0.50195-0.5l-12.529 0.0469 0.0039-5.0469 12.561-4e-3a0.50005 0.50005 0 0 0 0.5-0.50391z" stop-color="#000000" stroke-linecap="round" stroke-linejoin="round"/>
 </g>
</svg>
