<?xml version="1.0" encoding="UTF-8"?>
<!-- Created with Inkscape (http://www.inkscape.org/) -->
<svg width="19.995mm" height="19.928mm" version="1.1" viewBox="0 0 19.995 19.928" xmlns="http://www.w3.org/2000/svg">
 <g transform="translate(-79.995 -160.05)">
  <rect x="79.995" y="160.05" width="19.995" height="19.928" ry="0" fill="none"/>
  <path d="m87.4 165.88c-0.12605 2e-3 -0.20566 0.11175-0.32401 0.14055a0.95896 0.95896 0 0 0-0.34416 0.15038c-0.55845 0.28288-1.0037 0.75655-0.9958 1.4159 0.0066 0.55192 0.28792 1.0458 0.71055 1.3503l-2.4453 4.5336c-0.21626-0.0998-0.45575-0.1552-0.70642-0.15348a0.95896 0.95896 0 0 0-0.0083 4e-3 0.95896 0.95896 0 0 0-0.0036-4e-3c-0.14311 2e-3 -0.23452 0.12361-0.36742 0.16019a0.95896 0.95896 0 0 0-0.29869 0.12868c-0.55921 0.2826-1.0057 0.75806-0.99787 1.418 0.01096 0.91931 0.78548 1.6754 1.7048 1.666 0.7318-7e-3 1.3618-0.49842 1.5844-1.1622h5.7614c0.21154 0.69985 0.8734 1.217 1.6345 1.2092 0.91933-9e-3 1.678-0.78184 1.6702-1.7012-0.0042-0.49137-0.22648-0.93703-0.57309-1.2444l2.482-4.5739c0.16942 0.0562 0.34992 0.0856 0.5364 0.0837 0.91933-9e-3 1.6775-0.7834 1.6697-1.7027-0.0078-0.91935-0.77976-1.6785-1.6991-1.6722a0.95896 0.95896 0 0 0-0.0078 4e-3 0.95896 0.95896 0 0 0-0.0036-4e-3c-0.14311 2e-3 -0.23451 0.12361-0.36742 0.1602a0.95896 0.95896 0 0 0-0.29869 0.12919c-0.44352 0.22415-0.81642 0.5694-0.94775 1.032l-5.6932-0.03c-0.16543-0.7616-0.85735-1.3434-1.6619-1.3379a0.95896 0.95896 0 0 0-0.0057 2e-3 0.95896 0.95896 0 0 0-0.0041-2e-3zm1.6898 1.9389 5.641 0.0295c0.06231 0.43431 0.29499 0.81883 0.6258 1.0831l-2.4675 4.5465c-0.19136-0.0748-0.39842-0.11516-0.61392-0.11369a0.95896 0.95896 0 0 0-0.0078 4e-3 0.95896 0.95896 0 0 0-0.0041-4e-3c-0.15105 2e-3 -0.24906 0.12745-0.38861 0.16795a0.95896 0.95896 0 0 0-0.2775 0.12092c-0.518 0.26139-0.9386 0.68776-0.99219 1.2733h-5.6131c-0.01994-0.43035-0.20674-0.82141-0.49609-1.1105l2.4929-4.6194c0.14406 0.0393 0.29521 0.06 0.45062 0.0584 0.82926-8e-3 1.5274-0.63805 1.6505-1.4361z" stop-color="#000000" stroke-linecap="round" stroke-linejoin="round"/>
 </g>
</svg>
