<svg xmlns="http://www.w3.org/2000/svg" viewBox="188.68 266 446.94 398.03"><defs><linearGradient id="g" x1="-750.5" x2="-729.5" y1="319.06" y2="319.06" gradientTransform="translate(1104.2 304.47)" gradientUnits="userSpaceOnUse"><stop offset="0" stop-color="gray"/><stop offset="1" stop-color="gray" stop-opacity="0"/></linearGradient><linearGradient id="i" x1="-621.5" x2="-600.5" y1="348.3" y2="348.3" gradientTransform="translate(1075.2 275.22)" gradientUnits="userSpaceOnUse"><stop offset="0" stop-color="gray"/><stop offset="1" stop-color="gray" stop-opacity="0"/></linearGradient><linearGradient id="h" x1="-521.5" x2="-500.5" y1="348.3" y2="348.3" gradientTransform="translate(1075.2 275.22)" gradientUnits="userSpaceOnUse"><stop offset="0" stop-color="gray"/><stop offset="1" stop-color="gray" stop-opacity="0"/></linearGradient><linearGradient id="b" x1="-560.5" x2="-474.5" y1="114.1" y2="114.1" gradientTransform="translate(1104.2 304.47)" gradientUnits="userSpaceOnUse"><stop offset="0" stop-color="gray"/><stop offset="1" stop-color="gray" stop-opacity="0"/></linearGradient><linearGradient id="c" x1="188.68" x2="304.68" y1="603.53" y2="603.53" gradientUnits="userSpaceOnUse"><stop offset="0" stop-color="#0074bd"/><stop offset="1" stop-color="#0074bd" stop-opacity="0"/></linearGradient><linearGradient id="a" x1="543.68" x2="594.68" y1="488.42" y2="488.42" gradientUnits="userSpaceOnUse"><stop offset="0" stop-color="#0074bd"/><stop offset="1" stop-color="#0074bd" stop-opacity="0"/></linearGradient></defs><path fill="#16003a" stroke="#000" d="m479.18 493.53 115 70-90 50-115-70z"/><path fill="#ffba39" stroke="#000" d="m379.18 493.53 115 70-90 50-115-70z"/><path fill="#991039" stroke="#000" d="m279.18 493.53 115 70-90 50-115-70z"/><path fill="url(#a)" stroke="#000" d="m594 563.3-49.822-29.778v-120l50 30-.178 119.78z"/><path fill="url(#b)" stroke="#000" d="m594.18 443.63 35-20.1-50-30-35 20z"/><path fill="url(#c)" stroke="#000" d="m189.18 543.53 115 70v50l-115-70z"/><path fill="#fff" stroke="#000" d="M304.18 663.53v-50l90-50 10 50 90-50 10 50 90-50v-120l35-20v240z"/><path fill="#ea2d2e" fill-rule="evenodd" d="M598.39 365.54c10.048 11.566-2.634 21.965-2.634 21.965s25.497-13.16 13.79-29.648c-10.938-15.369-19.324-23.003 26.076-49.333 0 0-71.267 17.795-37.232 57.016" clip-rule="evenodd"/><path fill="#ea2d2e" fill-rule="evenodd" d="M609.54 266s21.628 21.64-20.52 54.906c-33.798 26.696-7.705 41.912-.011 59.305-19.73-17.8-34.203-33.472-24.496-48.056 14.255-21.405 53.751-31.786 45.027-66.155" clip-rule="evenodd"/><rect width="20" height="20" x="354.18" y="613.53" fill="url(#g)" stroke="#000" ry="5"/><rect width="20" height="20" x="554.18" y="613.53" fill="url(#h)" stroke="#000" ry="5"/><rect width="20" height="20" x="454.18" y="613.53" fill="url(#i)" stroke="#000" ry="5"/></svg>