<svg xmlns="http://www.w3.org/2000/svg" xmlns:xlink="http://www.w3.org/1999/xlink" contentStyleType="text/css" data-diagram-type="DESCRIPTION" height="138px" preserveAspectRatio="none" style="width:277px;height:138px;" version="1.1" viewBox="0 0 277 138" width="277px" zoomAndPan="magnify">
  <defs/>
  <g font-family="sans-serif" lengthAdjust="spacing">
    <!--cluster A-->
    <g class="cluster" data-qualified-name="A" data-source-line="3" id="ent0001">
      <rect fill="#F0F8FF" height="110" rx="2.5" ry="2.5" style="stroke:#181818;stroke-width:1;" width="197" x="64" y="4"/>
      <rect fill="#F0F8FF" height="10" style="stroke:#181818;stroke-width:1;" width="15" x="241" y="9"/>
      <rect fill="#F0F8FF" height="2" style="stroke:#181818;stroke-width:1;" width="4" x="239" y="11"/>
      <rect fill="#F0F8FF" height="2" style="stroke:#181818;stroke-width:1;" width="4" x="239" y="15"/>
      <text fill="#000" font-size="14" font-weight="700" x="157.819" y="27.889">A</text>
    </g>
    <!--cluster A.4-->
    <g class="cluster" data-qualified-name="A.A.4" data-source-line="7" id="ent0003">
      <rect fill="none" height="77" rx="2.5" ry="2.5" style="stroke:#181818;stroke-width:1;" width="86" x="167" y="29"/>
      <rect fill="none" height="10" style="stroke:#181818;stroke-width:1;" width="15" x="233" y="34"/>
      <rect fill="none" height="2" style="stroke:#181818;stroke-width:1;" width="4" x="231" y="36"/>
      <rect fill="none" height="2" style="stroke:#181818;stroke-width:1;" width="4" x="231" y="40"/>
      <text fill="#000" font-size="14" font-weight="700" textLength="21" x="199.5" y="52.889">A.4</text>
    </g>
    <!--entity a-->
    <g class="entity" data-qualified-name="a" data-source-line="11" id="ent0005">
      <rect fill="#F1F1F1" height="44" rx="2.5" ry="2.5" style="stroke:#181818;stroke-width:0.5;" width="47.788" x="6" y="54"/>
      <rect fill="#F1F1F1" height="10" style="stroke:#181818;stroke-width:0.5;" width="15" x="33.788" y="59"/>
      <rect fill="#F1F1F1" height="2" style="stroke:#181818;stroke-width:0.5;" width="4" x="31.788" y="61"/>
      <rect fill="#F1F1F1" height="2" style="stroke:#181818;stroke-width:0.5;" width="4" x="31.788" y="65"/>
      <text fill="#000" font-size="14" x="21" y="84.889">a</text>
    </g>
    <!--entity A.1.KO-->
    <g class="entity" data-qualified-name="A.A.1.KO" data-source-line="4" id="ent0002">
      <rect fill="#F1F1F1" height="44" rx="2.5" ry="2.5" style="stroke:#181818;stroke-width:0.5;" width="85.063" x="72.5" y="54"/>
      <rect fill="#F1F1F1" height="10" style="stroke:#181818;stroke-width:0.5;" width="15" x="137.563" y="59"/>
      <rect fill="#F1F1F1" height="2" style="stroke:#181818;stroke-width:0.5;" width="4" x="135.563" y="61"/>
      <rect fill="#F1F1F1" height="2" style="stroke:#181818;stroke-width:0.5;" width="4" x="135.563" y="65"/>
      <text fill="#000" font-size="14" textLength="45.062" x="87.5" y="84.889">A.1.KO</text>
    </g>
    <!--entity A4.1-->
    <g class="entity" data-qualified-name="A.A.4.A4.1" data-source-line="8" id="ent0004">
      <rect fill="#F1F1F1" height="44" rx="2.5" ry="2.5" style="stroke:#181818;stroke-width:0.5;" width="68.788" x="175.5" y="54"/>
      <rect fill="#F1F1F1" height="10" style="stroke:#181818;stroke-width:0.5;" width="15" x="224.288" y="59"/>
      <rect fill="#F1F1F1" height="2" style="stroke:#181818;stroke-width:0.5;" width="4" x="222.288" y="61"/>
      <rect fill="#F1F1F1" height="2" style="stroke:#181818;stroke-width:0.5;" width="4" x="222.288" y="65"/>
      <text fill="#000" font-size="14" textLength="28.787" x="190.5" y="84.889">A4.1</text>
    </g>
  </g>
</svg>
