<svg xmlns="http://www.w3.org/2000/svg" xmlns:xlink="http://www.w3.org/1999/xlink" contentStyleType="text/css" data-diagram-type="DESCRIPTION" height="171px" preserveAspectRatio="none" style="width:229px;height:171px;background:#FFFFFF;" version="1.1" viewBox="0 0 229 171" width="229px" zoomAndPan="magnify">
  <defs/>
  <g font-family="sans-serif" lengthAdjust="spacing">
    <!--entity User-->
    <g class="entity" data-qualified-name="User" data-source-line="2" id="ent0001">
      <ellipse cx="33.5" cy="28.5" fill="#F1F1F1" rx="16" ry="16" style="stroke:#181818;stroke-width:0.5;"/>
      <path d="M33.5,48.5 C37.5,48.5 40.5,48.5 44.5,44.5 C52.5,44.5 60.5,52.5 60.5,60.5 L60.5,64.5 C60.5,68.5 56.5,72.5 52.5,72.5 L14.5,72.5 C10.5,72.5 6.5,68.5 6.5,64.5 L6.5,60.5 C6.5,52.5 14.5,44.5 22.5,44.5 C26.5,48.5 29.5,48.5 33.5,48.5" fill="#F1F1F1" style="stroke:#181818;stroke-width:0.5;"/>
      <text fill="#000" font-size="14" textLength="29.575" x="18.713" y="83.889">User</text>
    </g>
    <!--entity Admin-->
    <g class="entity" data-qualified-name="Admin" data-source-line="3" id="ent0002">
      <ellipse cx="114.544" cy="28.5" fill="#F1F1F1" rx="16" ry="16" style="stroke:#181818;stroke-width:0.5;"/>
      <path d="M114.544,48.5 C118.544,48.5 121.544,48.5 125.544,44.5 C133.544,44.5 141.544,52.5 141.544,60.5 L141.544,64.5 C141.544,68.5 137.544,72.5 133.544,72.5 L95.544,72.5 C91.544,72.5 87.544,68.5 87.544,64.5 L87.544,60.5 C87.544,52.5 95.544,44.5 103.544,44.5 C107.544,48.5 110.544,48.5 114.544,48.5" fill="#F1F1F1" style="stroke:#181818;stroke-width:0.5;"/>
      <text fill="#000" font-size="14" textLength="70.088" x="79.5" y="83.889">Main Admin</text>
    </g>
    <!--entity Start-->
    <g class="entity" data-qualified-name="Start" data-source-line="4" id="ent0003">
      <ellipse cx="33.351" cy="138.899" fill="#F1F1F1" rx="23.851" ry="12.899" style="stroke:#181818;stroke-width:0.5;"/>
      <text fill="#000" font-size="14" textLength="29.488" x="18.607" y="142.399">Start</text>
    </g>
    <!--entity Use-->
    <g class="entity" data-qualified-name="Use" data-source-line="5" id="ent0004">
      <ellipse cx="144.278" cy="139.156" fill="#F1F1F1" rx="68.778" ry="16.156" style="stroke:#181818;stroke-width:0.5;"/>
      <text fill="#000" font-size="14" textLength="111.388" x="88.585" y="142.656">Use the application</text>
    </g>
  </g>
</svg>
