<svg xmlns="http://www.w3.org/2000/svg" width="8" height="8" viewBox="0 0 8 8">
  <path d="M1.188 1c-.734.722-1.188 1.748-1.188 2.844 0 1.095.454 2.09 1.188 2.813l.688-.719c-.546-.538-.875-1.269-.875-2.094s.329-1.587.875-2.125l-.688-.719zm5.625 0l-.688.719c.552.552.875 1.289.875 2.125 0 .836-.327 1.554-.875 2.094l.688.719c.732-.72 1.188-1.708 1.188-2.813 0-1.104-.459-2.115-1.188-2.844zm-4.219 1.406c-.362.362-.594.889-.594 1.438 0 .548.232 1.045.594 1.406l.688-.719c-.178-.178-.281-.416-.281-.688 0-.272.103-.54.281-.719l-.688-.719zm2.813 0l-.688.719c.183.183.281.434.281.719s-.099.505-.281.688l.688.719c.357-.357.594-.851.594-1.406 0-.555-.236-1.08-.594-1.438z"
  />
</svg>