<svg xmlns="http://www.w3.org/2000/svg" width="8" height="8" viewBox="0 0 8 8">
  <path d="M3 0v1h-.75c-.686 0-1.25.564-1.25 1.25v.5c0 .678.437 1.242 1.094 1.406l2.563.656c.143.036.344.296.344.438v.5c0 .134-.116.25-.25.25h-2.5c-.116 0-.212-.037-.25-.063v-.938h-1v1c0 .342.203.627.438.781.234.155.518.219.813.219h.75v1h1v-1h.75c.686 0 1.25-.564 1.25-1.25v-.5c0-.678-.437-1.242-1.094-1.406l-2.563-.656c-.143-.036-.344-.296-.344-.438v-.5c0-.134.116-.25.25-.25h2.5c.116 0 .212.037.25.063v.938h1v-1c0-.342-.203-.627-.438-.781-.234-.155-.518-.219-.813-.219h-.75v-1h-1z"
  />
</svg>