<svg xmlns="http://www.w3.org/2000/svg" width="8" height="8" viewBox="0 0 8 8">
  <path d="M3.5 0c-1.927 0-3.5 1.573-3.5 3.5s1.573 3.5 3.5 3.5c.592 0 1.166-.145 1.656-.406a1 1 0 0 0 .094.094l1.031 1.031a1.016 1.016 0 1 0 1.438-1.438l-1.031-1.031a1 1 0 0 0-.125-.094c.266-.493.438-1.059.438-1.656 0-1.927-1.573-3.5-3.5-3.5zm0 1c1.387 0 2.5 1.113 2.5 2.5 0 .587-.196 1.137-.531 1.563l-.031.031a1 1 0 0 0-.063.031 1 1 0 0 0-.281.281 1 1 0 0 0-.063.063c-.422.326-.953.531-1.531.531-1.387 0-2.5-1.113-2.5-2.5s1.113-2.5 2.5-2.5zm-.5 1v1h-1v1h1v1h1v-1h1v-1h-1v-1h-1z"
  />
</svg>