<?xml version="1.0" encoding="UTF-8"?>
<!-- Created with Inkscape (http://www.inkscape.org/) -->
<svg width="19.995mm" height="19.928mm" version="1.1" viewBox="0 0 19.995 19.928" xmlns="http://www.w3.org/2000/svg">
 <g transform="translate(-79.987 -120.11)">
  <rect x="79.987" y="120.11" width="19.995" height="19.928" ry="0" fill="none"/>
  <path d="m89.746 124.43-8.9629 3.9688a0.50005 0.50005 0 0 0-0.29688 0.45704v8.0371a0.50005 0.50005 0 0 0 0.70117 0.45704l8.7949-3.8789 8.793 3.8789a0.50005 0.50005 0 0 0 0.70312-0.45704v-8.0039a0.50005 0.50005 0 0 0-0.29883-0.45703l-9.0273-4.002a0.50005 0.50005 0 0 0-0.40625 0zm0.20312 1.0039 8.5293 3.7793v6.9141l-8.2949-3.6602a0.50005 0.50005 0 0 0-0.4043 0l-8.293 3.6602v-6.9453z" stop-color="#000000" stroke-linecap="round" stroke-linejoin="round"/>
 </g>
</svg>
