<?xml version="1.0" encoding="UTF-8"?>
<!-- Created with Inkscape (http://www.inkscape.org/) -->
<svg width="19.995mm" height="19.928mm" version="1.1" viewBox="0 0 19.995 19.928" xmlns="http://www.w3.org/2000/svg">
 <g transform="translate(-160 -80.025)">
  <g>
   <g>
    <rect x="160" y="80.025" width="19.995" height="19.928" ry="0" fill="none"/>
    <path d="m170.09 81.918c-3.2534 0.01849-5.6273 2.5132-5.6562 5.9863-0.018 2.1528 1.0872 3.545 2.2285 4.9062s2.342 2.736 2.877 5.0645a0.50005 0.50005 0 0 0 0.97656-0.01172c0.46913-2.2987 1.7008-3.6605 2.9023-5.0195 1.2016-1.359 2.4004-2.7556 2.4004-4.9355 0-1.8458-0.61713-3.3647-1.6562-4.4062-1.0391-1.0415-2.4843-1.593-4.0723-1.584zm6e-3 1c1.3562-0.0077 2.5218 0.44952 3.3594 1.2891 0.8376 0.83954 1.3633 2.0743 1.3633 3.7012 0 1.8218-0.95219 2.9204-2.1484 4.2734-0.97428 1.102-1.9823 2.4889-2.6465 4.2969-0.68549-1.818-1.6709-3.2075-2.5957-4.3105-1.1325-1.3507-2.0093-2.4399-1.9941-4.2559 0.0253-3.0426 1.8968-4.9784 4.6621-4.9941z" stop-color="#000000" stroke-linejoin="round"/>
   </g>
  </g>
 </g>
</svg>
