<?xml version="1.0" encoding="UTF-8"?>
<!-- Created with Inkscape (http://www.inkscape.org/) -->
<svg width="19.995mm" height="19.928mm" version="1.1" viewBox="0 0 19.995 19.928" xmlns="http://www.w3.org/2000/svg">
 <g transform="translate(-179.98 -80.025)">
  <g>
   <g>
    <rect x="179.98" y="80.025" width="19.995" height="19.928" ry="0" fill="none"/>
    <path d="m182.84 84.531a0.4 0.4 0 0 0-0.39997 0.40049 0.4 0.4 0 0 0 0.39997 0.40049h1.5999a0.4 0.4 0 0 0 0.40049-0.40049 0.4 0.4 0 0 0-0.40049-0.40049zm3.2014 0a0.4 0.4 0 0 0-0.40049 0.40049 0.4 0.4 0 0 0 0.40049 0.40049h1.5999a0.4 0.4 0 0 0 0.39998-0.40049 0.4 0.4 0 0 0-0.39998-0.40049zm3.1993 0a0.4 0.4 0 0 0-0.4005 0.40049 0.4 0.4 0 0 0 0.4005 0.40049h1.5994a0.4 0.4 0 0 0 0.40049-0.40049 0.4 0.4 0 0 0-0.40049-0.40049zm3.1993 0a0.4 0.4 0 0 0-0.39842 0.40049 0.4 0.4 0 0 0 0.39842 0.40049h1.6015a0.4 0.4 0 0 0 0.39842-0.40049 0.4 0.4 0 0 0-0.39842-0.40049zm3.0856 0.11524a0.4 0.4 0 0 0-0.39997 0.40049v1.5994a0.4 0.4 0 0 0 0.39997 0.40049 0.4 0.4 0 0 0 0.4005-0.40049v-1.5994a0.4 0.4 0 0 0-0.4005-0.40049zm-14.09 0.0801a0.4 0.4 0 0 0-0.40049 0.40049v1.5994a0.4 0.4 0 0 0 0.40049 0.40049 0.4 0.4 0 0 0 0.4005-0.40049v-1.5994a0.4 0.4 0 0 0-0.4005-0.40049zm-0.40256 2.8789 8e-3 1.1896a0.4 0.4 0 0 0 0.40411 0.39636 0.4 0.4 0 0 0 0.39688-0.40256l-2e-3 -0.38241 0.40979 0.0015a0.4 0.4 0 0 0 0.40256-0.39842 0.4 0.4 0 0 0-0.40049-0.39998zm2.8184 0.0057a0.4 0.4 0 0 0-0.4005 0.40049 0.4 0.4 0 0 0 0.4005 0.40049l1.5999 0.0021a0.4 0.4 0 0 0 0.40049-0.39843 0.4 0.4 0 0 0-0.39894-0.40049zm3.2014 0.0062a0.4 0.4 0 0 0-0.40049 0.40049 0.4 0.4 0 0 0 0.39843 0.39998l1.5999 0.0041a0.4 0.4 0 0 0 0.39997-0.40049 0.4 0.4 0 0 0-0.39842-0.40049zm3.1993 0.0078a0.4 0.4 0 0 0-0.40049 0.39843 0.4 0.4 0 0 0 0.39842 0.40049l1.6015 0.0036a0.4 0.4 0 0 0 0.40049-0.40049 0.4 0.4 0 0 0-0.40049-0.39998zm3.2008 0.0057a0.4 0.4 0 0 0-0.40204 0.39842 0.4 0.4 0 0 0 0.40049 0.40049l1.5994 0.0041a0.4 0.4 0 0 0 0.4005-0.39843 0.4 0.4 0 0 0-0.39843-0.40256zm3.1993 0.0062a0.4 0.4 0 0 0-0.4005 0.39842 0.4 0.4 0 0 0 0.39895 0.40204l1.5994 0.0021a0.4 0.4 0 0 0 0.40256-0.39842 0.4 0.4 0 0 0-0.40049-0.40049zm1.7539 1.4531a0.4 0.4 0 0 0-0.39842 0.39998l6e-3 1.5999a0.4 0.4 0 0 0 0.40204 0.40049 0.4 0.4 0 0 0 0.39895-0.40256l-6e-3 -1.5994a0.4 0.4 0 0 0-0.40256-0.39843zm-16.955 0.90227a0.4 0.4 0 0 0-0.39843 0.40204l0.0119 1.5999a0.4 0.4 0 0 0 0.40411 0.39636 0.4 0.4 0 0 0 0.39636-0.40256l-0.0114-1.5994a0.4 0.4 0 0 0-0.40256-0.39636zm16.967 2.297a0.4 0.4 0 0 0-0.39843 0.40196l6e-3 1.5999a0.4 0.4 0 0 0 0.40204 0.39842 0.4 0.4 0 0 0 0.39842-0.40256l-6e-3 -1.5994a0.4 0.4 0 0 0-0.40256-0.39842zm-16.943 0.90227a0.4 0.4 0 0 0-0.39843 0.40204l0.0134 1.5999a0.4 0.4 0 0 0 0.40256 0.39842 0.4 0.4 0 0 0 0.39636-0.40463l-0.0119-1.5994a0.4 0.4 0 0 0-0.40204-0.39636zm16.955 2.2986a0.4 0.4 0 0 0-0.39791 0.40049l2e-3 0.74414h-0.0512a0.4 0.4 0 0 0-0.40049 0.40049 0.4 0.4 0 0 0 0.39842 0.40049l0.85783 0.0015-6e-3 -1.5487a0.4 0.4 0 0 0-0.40204-0.39843zm-16.931 0.9002a0.4 0.4 0 0 0-0.39636 0.40463v0.21084a0.4 0.4 0 0 0 0.40411 0.39636 0.4 0.4 0 0 0 0.23462-0.23823 0.4 0.4 0 0 0 0.23977 0.2403l1.602 0.0021a0.4 0.4 0 0 0 0.39998-0.39843 0.4 0.4 0 0 0-0.39998-0.40049l-1.5999-0.0041a0.4 0.4 0 0 0-0.13487 0.13488 0.4 0.4 0 0 0-0.34934-0.34778zm3.6856 0.21911a0.4 0.4 0 0 0-0.40256 0.39998 0.4 0.4 0 0 0 0.40049 0.40049l1.5999 0.0041a0.4 0.4 0 0 0 0.39998-0.40049 0.4 0.4 0 0 0-0.39843-0.40049zm3.1993 0.0078a0.4 0.4 0 0 0-0.40049 0.39843 0.4 0.4 0 0 0 0.39843 0.39998l1.5994 0.0041a0.4 0.4 0 0 0 0.40256-0.40049 0.4 0.4 0 0 0-0.40049-0.40049zm3.1993 0.0057a0.4 0.4 0 0 0-0.40049 0.39842 0.4 0.4 0 0 0 0.40049 0.40049l1.5994 0.0036a0.4 0.4 0 0 0 0.40049-0.39842 0.4 0.4 0 0 0-0.39843-0.40204zm3.2008 0.0057a0.4 0.4 0 0 0-0.40049 0.39894 0.4 0.4 0 0 0 0.39842 0.40204l1.5999 0.0021a0.4 0.4 0 0 0 0.40049-0.39842 0.4 0.4 0 0 0-0.39843-0.40049z" stop-color="#000000" stroke-dasharray="1.6, 1.6" stroke-dashoffset="2.72" stroke-linecap="round"/>
   </g>
  </g>
 </g>
</svg>
