<?xml version="1.0" encoding="UTF-8"?>
<!-- Created with Inkscape (http://www.inkscape.org/) -->
<svg width="19.995mm" height="19.928mm" version="1.1" viewBox="0 0 19.995 19.928" xmlns="http://www.w3.org/2000/svg">
 <g transform="translate(-40.073 -80.025)">
  <rect x="40.073" y="80.025" width="19.995" height="19.928" ry="0" fill="none"/>
  <path d="m51.99 82.389a0.50005 0.50005 0 0 0-0.50384 0.49971v4.5258l-4.5021-0.0217a0.50005 0.50005 0 0 0-0.50178 0.50023v4.5527h-4.5274a0.50005 0.50005 0 0 0-0.50023 0.50384l0.04703 4.9356a0.50005 0.50005 0 0 0 0.50023 0.49403h15.014a0.50005 0.50005 0 0 0 0.50023-0.50023l-0.02377-14.967a0.50005 0.50005 0 0 0-0.49816-0.50023zm0.49609 1.002 4.006 0.01964 0.0057 4.0271-4.0116-0.01964zm-5.0038 5.0038 4.0039 0.01964v4.0313h-4.0039zm5.0038 0.02326 4.006 0.01964v4.008h-4.006zm-10.027 5.0276h4.0235v3.9336h-3.9843zm5.0235 0h4.0039v3.9098h-4.0039zm5.0038 0h4.0215l0.0078 3.9336h-4.0292z" stop-color="#000000" stroke-linejoin="round"/>
 </g>
</svg>
