<?xml version="1.0" encoding="UTF-8"?>
<!-- Created with Inkscape (http://www.inkscape.org/) -->
<svg width="19.995mm" height="19.928mm" version="1.1" viewBox="0 0 19.995 19.928" xmlns="http://www.w3.org/2000/svg">
 <g transform="translate(-140 -160.05)">
  <rect x="140" y="160.05" width="19.995" height="19.928" ry="0" fill="none"/>
  <path d="m142.09 162.05a0.50005 0.50005 0 0 0-0.5 0.5l0.0332 15.941a0.50005 0.50005 0 0 0 0.5 0.5h15.379a0.50005 0.50005 0 0 0 0.5-0.5v-9.1289a0.50005 0.50005 0 0 0-0.79297-0.40429l-3.2637 2.3594 0.0215-1.9492a0.50005 0.50005 0 0 0-0.8086-0.39843l-3.1816 2.4961 0.0215-2.1309a0.50005 0.50005 0 0 0-0.79688-0.40625l-3.2031 2.3809v-8.7598a0.50005 0.50005 0 0 0-0.5-0.5zm0.50196 1h2.4062v9.2559a0.50005 0.50005 0 0 0 0.79687 0.40039l3.1953-2.377-0.0234 2.1699a0.50005 0.50005 0 0 0 0.80859 0.39844l3.1797-2.498-0.0195 1.9004a0.50005 0.50005 0 0 0 0.79297 0.41016l3.2734-2.3691v7.6504h-14.381z" stop-color="#000000" stroke-linejoin="round"/>
 </g>
</svg>
