<svg xmlns="http://www.w3.org/2000/svg" viewBox="0 0 64 64"><path fill="#008db3" d="M62 32c0 16.6-13.4 30-30 30S2 48.6 2 32c0-4.4.9-8.5 2.6-12.3l32-17.3c2.3.4 4.5 1 6.5 1.8l.7 1.5 1.2-.8C55 9.8 62 20.1 62 32"/><g fill="#ffc942"><path d="M7.5 20.9c.9 1.8 2.1-.6 2 1.2-.1 1.8 1.2 5.8 2 5.3s.8-3.5 2.1-3.8c1.4-.4 3.3-2.7 3.9-1.6.6 1 .4 2.9.9 2.5.5-.4 1.2 0 1.1 1.3-.1 1.3 1.1 3.1 1.5 3.8s-2.1-2-3.3-3.6c-1.2-1.6.9 3.4 2.4 5.3s7.4 3.2 8.9 4c1.5.8 5.7-1.5 4.1-1.4 0 0-3.7.5-5-.2s-4.4-.7-5-1.6c-.5-.9-.5-2.3-1.5-3.6-.9-1.3-1.5-3.6-.3-2.6s2.6 1.2 2.8.5c.2-.7-2.4-3-.8-4 1.6-1 3.2-.3 3.9-1 .8-.8 2.6-3.1 2.1-4.2-.4-1.1-.5-1.9 0-2.2.5-.3-2.5-.3-1.3-1.2 1.2-.9 2.5-1.6 2.6 0 .1 1.6 0 3.1.6 3.1s1.5-1.8 1.3-2.6c-.3-.8.3-2.5 1.5-2.6 1.2-.1 2.6-2.1 2.9-4s.3-3.5-.6-3.3c-.8.2-.9-1 .3-2-1.5-.3-3-.4-4.6-.4C19.8 2 9.3 9.3 4.6 19.7c1 0 2.3.1 2.9 1.2m35.1-13c-.7 1.2 1.1-.5 2.3-3-.6-.3-1.2-.5-1.8-.8.1 1.1.1 2.9-.5 3.8"/><path d="M34.3 16.9c1.4-.9 3.6-.9 3.6-2.8s5.4-5.1 4.1-5c-1.3.1-3.8 2.5-3.8.9s0-4.6-.3-5.4c-.4-.9-.2 4.4-.6 5.3-.4.9 0 4.2-1.1 4.6-1.2.4-3.2 1.3-3.2 2.5s-.1.8 1.3-.1m1.5 15.8c.7.6-.4 2.2.4 1.8.8-.3 1.7.6 2.1 0 .4-.5.5-.9 1.7.2 1.3 1 2.2.8 1.4 0-.8-.8-1.5-2.2-3.2-2.7 0 0-1.8-.2-3-.8 0 0-1.7-.9-2.3-.3-.5.6-.5-1.6-.9-1.2-.4.4.2 1.7-1 1.4-1.2-.3-1.6.1-1.9-.9s-2.1-.5-.7-1.2c1.4-.7 2.1-1 2.1-.4.1.6 1.4-.5.9-2.1-.5-1.5-1.9-1-1.8-3 0-.9-1.4.3-1.1 1.4.2 1.1-.3 1.3-.8 2.2-.6.9-2.7 2.9-3.2 2.9-.6 0-.4 1.1 0 1.8s2.4.8 2.8.9c.4.1.9-3.1 1-2.2.1.9.3 3.4.6 2.8.3-.6 1.4.2 1.4-.3s-.5-1.5.6-1 2.6.9 2.5.3c-.2-.7 1.7-.2 2.4.4M29.2 26c.5 2.1-.7 2.5-1.1 2.1s1-2.6 1.1-2.1m11.5 13.7c-1.7-1.5-2.4-3.9-2.8-4.2-.7-.6-.4 2-.6 2.6-.2.5-1.2-.6-1.6-.9-.5-.2-.2-.6 0-1 .2-.5-.9-.9-1.7-.7-.8.2-.8-.1-1.1.6s-.1 1.2-.9.8c-.8-.4-1.3.2-1.9.8-.6.6-.8.9-1 1.3-.2.5-3.4.2-3.4 1.7s1.3 2.7 1 3.8.2 2.3 1.2 1.8c1-.6 2.4-.4 2.8-.9.4-.5 3.1-1.2 3.5-.3.5.9 1 1.3 1.8 1.3s.9.8.9 1.3c0 .6 1.2.1 1.9.3.7.2 2.3.1 2.5-1.3.1-1.3.9-2.2 1.1-2.9s-.1-2.7-1.7-4.1m-1.5 9.1c-.8-.1-.2 1.8.3 1.9.5.2.8-1.1.7-1.9 0-.6-.2.1-1 0m12.6-1.7c-.5.1-.9-1.3-1.3-1-.7.6.8 1.9 0 2.6-.8.7-1 1.9-1.7 2s-1.6 1-1 1.5c.6.5 1.6 0 1.9-1 .3-1 .6-1.4 1.3-1.7s.6-1.1 1.3-1.6c.7-.3 0-.8-.5-.8"/></g></svg>