<svg xmlns="http://www.w3.org/2000/svg" viewBox="0 0 64 64"><g fill="#4fd1d9"><path d="M58 33.2c-.4-14.1-12.6-24.7-26.7-22.1-12 2.2-19.3 15.1-13.9 26.1 2.6 5.4 9.1 7.8 14.8 6.5 6-1.3 9.2-8.5 6.9-13.9-1.3-3-6.3-1.7-5 1.4 2.4 5.7-3.6 9.1-8.5 7-3.7-1.6-4.9-5.9-4.9-9.6.1-9.1 10.7-14 18.7-12.6 10.2 1.9 14.6 13.6 13 22.8-1.7 9.9-10.8 16.5-20.3 18.2-3.3.6-1.9 5.6 1.4 5C47.6 59.4 58.4 47.8 58 33.2"/><path d="M46.6 25.5c-6.4-11.2-25.6-4.9-21 8.2 1.1 3.1 6.1 1.8 5-1.4-1.7-4.9 1.7-8.3 6.9-7.6 4 .6 6 5.1 6.4 8.6C45.4 45 31.8 51.1 22.5 47c-8.8-3.9-12.7-13.9-10.6-22.9 2.2-9 10.7-16.2 19.9-16.9 3.3-.3 3.3-5.4 0-5.2C18 3.1 7.1 14.4 6.1 28 5 41.6 16.8 54.1 30.5 53.6c14-.5 23-16.1 16.1-28.1"/></g></svg>