<svg xmlns="http://www.w3.org/2000/svg" viewBox="0 0 64 64"><path fill="#d0d0d0" d="M35.428 25.084 46.74 13.771l1.839 1.838-11.314 11.314z"/><path fill="#f2b200" d="M36.7 26.3c-4.8-4.8-3.9-9.2-2.3-12.5L2.7 60l47-32c-3.2 1.5-8.4 2.8-13-1.7"/><path fill="#ffce31" d="M21.6 11.1c-2.9-2.9-4.3-6.7-3.7-9.8L2.7 60l32.1-46.9c-3 3.1-9 2.2-13.2-2"/><path fill="#ff8736" d="M61.6 45c-3.1.5-6.9-.8-9.8-3.7-4.2-4.2-5.1-10.2-2-13.3l-47 32 58.8-15"/><path d="m46.8 13.7.1.1 1.7 1.7.3.3 6.3-6.3c1-1 3-.7 4.4.6 1.4 1.4 1.7 3.3.6 4.4-.5.5-.4 1.5.3 2.2.7.7 1.7.8 2.2.3 2.1-2.1 1.5-6-1.3-8.7-2.8-2.8-6.7-3.4-8.7-1.3l-6.3 6.3.4.4M.5 62.3c.5.5 1.2.6 1.6.2l3.1-3.1c-.2-.4-.4-.8-.7-1.1-.3-.3-.7-.6-1.1-.7L.3 60.7c-.4.3-.3 1.1.2 1.6m43.9-41c-.1 0-.3-.1-.4-.3l-.4-.4 1.2-1.2c-.2 1.1.1 1.9-.4 1.9" fill="#3e4347"/></svg>