<svg xmlns="http://www.w3.org/2000/svg" viewBox="0 0 64 64"><path fill="#42ade2" d="M0 0h64v64H0z"/><path fill="#3e4347" d="M48 45.7h16V64H44V49.7c0-2.2 1.8-4 4-4"/><path d="M60.8 49h.4c.4 0 .8.4.8 1v14h-2V50c0-.6.4-1 .8-1m-5 0h.4c.4 0 .8.4.8 1v14h-2V50c0-.6.4-1 .8-1" fill="#d0d0d0"/><path d="M51.3 43h11v2.9h-11zM0 43.1h13.1v-5.2L0 40.9z" fill="#3e4347"/><path fill="#ffdd7d" d="M57.7 1.6s.5 6.9-3.3 11.1c-3.9 4.1-10.6 3.9-10.6 3.9 4.2 3.6 10.7 3.2 14.6-1 3.8-4.1 3.5-10.4-.7-14"/><path fill="#6adbc6" d="M10.6 14.3 8.9 11l-1.7 3.3L3.9 16l3.3 1.7L8.9 21l1.7-3.3 3.3-1.7z"/><path fill="#fff" d="m6.351 15.993 2.475-2.475 2.475 2.475-2.475 2.475z"/><path fill="#6adbc6" d="m34.2 8.7-1.6-3.4-1.7 3.4-3.3 1.6 3.3 1.7 1.7 3.3 1.6-3.3 3.4-1.7z"/><path fill="#fff" d="m30.097 10.368 2.475-2.474 2.475 2.474-2.475 2.475z"/><path fill="#6adbc6" d="M56.7 25.8 55 22.4l-1.7 3.4-3.3 1.6 3.3 1.7 1.7 3.3 1.7-3.3 3.3-1.7z"/><path fill="#fff" d="m52.442 27.406 2.475-2.475 2.475 2.475-2.475 2.474z"/><path fill="#3e4347" d="M0 43h13v21H0z"/><path d="M9.5 51c0 .5-.4 1-1 1h-3c-.6 0-1-.5-1-1v-2c0-.6.4-1 1-1h3c.6 0 1 .4 1 1v2m0 8c0 .5-.4 1-1 1h-3c-.6 0-1-.5-1-1v-2c0-.6.4-1 1-1h3c.6 0 1 .4 1 1v2" fill="#ed4c5c"/><path fill="#121314" d="M23 19 13 30.3V64h20V30.3z"/><path d="M30 43c0 .5-.5 1-1 1H17c-.5 0-1-.5-1-1v-2c0-.6.5-1 1-1h12c.5 0 1 .4 1 1v2m0 16c0 .5-.5 1-1 1H17c-.5 0-1-.5-1-1v-2c0-.6.5-1 1-1h12c.5 0 1 .4 1 1v2m0-24c0 .5-.5 1-1 1H17c-.5 0-1-.5-1-1v-2c0-.6.5-1 1-1h12c.5 0 1 .4 1 1v2" fill="#ffdd7d"/><path fill="#121314" d="M50 38v-4l-6-2V21h-2v11l-6 2v4h-3v26h20V38z"/><path d="M41.5 45c0 .5-.5 1-1 1h-3c-.5 0-1-.5-1-1v-2c0-.6.5-1 1-1h3c.5 0 1 .4 1 1v2m8 8c0 .5-.5 1-1 1h-3c-.5 0-1-.5-1-1v-2c0-.6.5-1 1-1h3c.5 0 1 .4 1 1v2m-8 8c0 .5-.5 1-1 1h-3c-.5 0-1-.5-1-1v-2c0-.6.5-1 1-1h3c.5 0 1 .4 1 1v2m8 0c0 .5-.5 1-1 1h-3c-.5 0-1-.5-1-1v-2c0-.6.5-1 1-1h3c.5 0 1 .4 1 1v2" fill="#6adbc6"/><path fill="#ffdd7d" d="M30 51c0 .5-.5 1-1 1H17c-.5 0-1-.5-1-1v-2c0-.6.5-1 1-1h12c.5 0 1 .4 1 1v2"/></svg>