<svg xmlns="http://www.w3.org/2000/svg" viewBox="0 0 64 64"><path fill="#3f3261" d="M0 0h64v46H0z"/><path fill="#42ade2" d="M0 46h64v10H0z"/><path fill="#296d8f" d="M0 34h64v1H0z"/><path fill="#3283ab" d="M0 37h64v2H0z"/><path fill="#3b9ac9" d="M0 41h64v3H0z"/><path fill="#3e4347" d="M0 55s5.8-3.8 8-4c2.8-.3 8.2 3.3 11 3 2.2-.2 5.8-3.7 8-4 1.5-.2 4.5 1.3 6 1 1.8-.4 4.2-4 6-4 2.4 0 5.6 4.9 8 5 2.6.1 6.5-4.5 9-5 2-.4 8 1 8 1v16H0v-9"/><path d="m6.944 23.5 1.485-1.486L9.914 23.5l-1.485 1.485zm5-5 1.485-1.486 1.485 1.485-1.485 1.485zm6 3 1.485-1.486 1.485 1.485-1.485 1.485zm2.063-7.926 1.485-1.485 1.485 1.485-1.485 1.484zm3.937 4.926 1.485-1.486 1.485 1.485-1.485 1.485zm4-6 1.485-1.486 1.484 1.485-1.484 1.485zm2 8 1.485-1.486 1.484 1.485-1.484 1.485zm5-8 1.484-1.485 1.485 1.485-1.485 1.484zm6-3 1.484-1.485L43.913 9.5l-1.485 1.484zm.999 5 1.485-1.485 1.485 1.485-1.485 1.484zm6 0 1.485-1.485 1.485 1.485-1.485 1.484zm1-7 1.485-1.485L51.913 7.5l-1.485 1.485zm8-4 1.485-1.485L59.913 3.5l-1.485 1.485z" fill="#fff"/><path d="m36.51 17.5.99-.99.99.99-.99.99zm9.085-6.208.99-.99.99.99-.99.99zM60.188 7.75l.99-.99.99.99-.99.99zm-34.499 19 .99-.99.99.99-.99.99zm-22.999-3 .99-.99.99.99-.99.99zm1.32-8.25.99-.99.99.99-.99.99zm14.68-9.75.989-.99.99.99-.99.99zm29.499 15.5.99-.99.99.99-.99.99z" fill="#c79cff"/><path d="m45.189 6.25.99-.99.99.99-.99.99zm9.108 1.55.99-.99.99.99-.99.989zm.975 4.41.99-.99.99.99-.99.99zM36.724 8.035l.99-.99.99.99-.99.99zM31.01 15.5l.99-.99.99.99-.99.99zm-13.291 1.637.99-.99.99.99-.99.99zm-4.03 10.113.99-.99.99.99-.99.99zm-6.185-9.148.99-.99.99.99-.99.99zM3.19 28.25l.99-.99.99.99-.99.99zm3.5-21.5.99-.99.99.99-.99.99zM45.01 29l.99-.99.99.99-.99.99zm13.502-6.201.99-.99.99.99-.99.99zM30.51 2.5l.99-.99.99.99-.99.99z" fill="#ffabed"/></svg>