<svg xmlns="http://www.w3.org/2000/svg" viewBox="0 0 64 64"><path fill="#594640" d="M40.5 31.9c-1.4-3.2-1.9-1.1-3.2-2.1-1.3-1-3.7 1-5.3.4-1.6-.6-4 .8-5.4-.1-1.4-.9-2.2 0-2.5.5-.4.7-1.4 3-1.5 3.1C14.6 51.9 2 62 2 62h60S49 51 40.5 31.9"/><g fill="#89664c"><path d="M24.9 34.4c-.8 1.6-1 2.9-.8 4.7.2 1.8-.1 3.5-1.4 4.8-.8.8-1.7 1.4-2.5 2.1-1.4 1.1-2.5 2.4-3.3 4.1-.5-3.2 2.2-5.3 4.1-7.2 1.3-1.4 1.2-2.9 1.4-4.7.3-1.7 1.2-2.9 2.5-3.8m-8.7 18.3c.2 2.1-1.7 4.2-3.3 5.2-1.7 1-3.6 1.7-5.2 2.9.2-2 2.6-3.5 4.1-4.5 1.6-.9 3.1-2.3 4.4-3.6m11.9-16.9c-.2 1.3-.3 2.6-.1 3.9.2 1.3.7 2.5 1.2 3.7.9 2.7-.1 6.1-2 8.2.3-2.6.8-5.4-.1-8-.9-2.6-1-5.7 1-7.8m-4 10.3c1.2 2.5-.4 5.6-2.2 7.2-.9.9-1.8 1.8-1.8 3.2-.1 1.3.3 2.5.8 3.7-2.6-1.7-3.3-5.3-1.1-7.6 1.9-2 3.6-3.8 4.3-6.5m7.4-11.7c-1 2.9 0 5.3 2 7.5 1.3 1.5 3.5 5.1 1.1 6.6.9-2.4-1.8-4.5-3.2-6-2-2.3-2.6-6.2.1-8.1m.7 14.1c-.8 2.4-.1 4.4 1.2 6.4.8 1.3 1.8 4 .5 5.3 0-1.8-1.5-3.4-2.5-4.8-1.5-2.1-1.8-5.6.8-6.9m-6.4 3.1c-.6 1.9.7 3.5 1.7 4.9.5.7 2 3.7.4 4.2.4-1.1-1.8-2.8-2.3-3.5-1.2-1.4-2.2-4.7.2-5.6M35 34.8c-.3 2 1 4 2.4 5.2.6.5 1.2.9 1.7 1.5 2.7 3 .6 8-2.1 10.1 1.1-3 2.5-7-.1-9.5-1.6-1.6-3.9-5-1.9-7.3m0 17.9c3.3.2 7 5 4.4 8.1-.5-1.5-.9-3-1.8-4.3-.8-1.3-1.8-2.5-2.6-3.8m3.4-17.9c3.1 2.1 5.1 6.1 6.2 9.6.4 1.3.7 2.7.8 4.1.2 1.6.6 3.9 2.2 4.7-1.9.3-3.2-2-3.8-3.5-.4-1.3-.7-2.7-1-4-1-3.8-2.5-7.6-4.4-10.9m3 16c.9 2.3 2.1 4.3 4.1 5.7.5.4 1.1.8 1.5 1.2.3.3 1.8 2.2.6 2.4.6-.9-2.6-1.7-3-2.1-2.5-1.1-4.6-4.4-3.2-7.2m7 .8c2 .5 4 2.3 4.2 4.5.3 2.1 2.2 3.2 3.9 4.1-2.1.5-5-.6-5.7-2.9-.2-.7-.2-1.4-.4-2.1-.4-1.3-1.3-2.4-2-3.6"/></g><g fill="#ed4c5c"><path d="M40.6 29.5c1.4-1.4 3.4-1.9 2.7-3.9-1.2-3.5-7.2 5.6-4.4.3s-.1-5.9-.9-4.7c-.8 1.2-2.8 12.5-3.3 5.8-.5-6.8 7.2-27.5 3-24.6-4.2 2.9-3.6 21.7-6 24.9-2.4 3 2.5-20.9.6-23.3-1.4-1.8-4.9-1.4-3.4 13.9 1.5 15.4-1 7.2-2.3 3.3-1.3-3.9-2.7-2.5-1.3 4.6 1.1 5.6-1.5-2.3-4.6-8.2-3.1-5.9-10-2.6-4.1 1.7 5.4 4 6.2 7.5 7.3 10.4-1.1 1-2 3.2-3 6.5-.7 2.3 1.8-1.5 2.8-2.6 1.1-1.1 1.7 3.3 3.3.7 1.6-2.6 2.9-1.2 5.7 2.1 2.7 3.3 4.4 2.4 5.6.8s1.7-1.9 4.2-.2.9-.7.9-.7c-1-1.2-2.1-5.7-2.8-6.8"/><path d="M40 19c1.7-1.9 2.5-7.6 1.2-5.7C40 15.2 39 20.1 40 19zm7.8-.3c-1.6 1.6-5.4 6.1-3.3 5.4 1.6-.5 4.8-7 3.3-5.4m-.9-8.9c-1.8 1-4.8 8.6-5 11.5-.2 3.1 6.7-12.4 5-11.5m-22.8 6.8c3.2 2.3-3.3-9.9-3.8-7.5-.4 2.4 2.4 6.5 3.8 7.5"/></g></svg>