<svg xmlns="http://www.w3.org/2000/svg" viewBox="0 0 64 64"><path fill="#ef8a45" d="M0 0h64v64H0z"/><g fill="#f9b04e"><path d="M28.2 0 30 28h4l1.8-28zm18.6 0L37 28.6l3.7 1.5L56.5 0zM64 8.4 43.3 31.9l2.8 2.8L64 18.9zm0 21-16.1 7.9 1.5 3.7L64 36zm-40.7.7 3.7-1.5L17.2 0H7.5zM0 18.9l17.9 15.8 2.8-2.8L0 8.4zM0 36l14.6 5 1.5-3.7L0 29.4z" opacity=".5"/><path d="m0 48.9 14-.9v-4l-14-.9z"/></g><circle cx="32" cy="38.7" r="25.3" fill="#ffc466"/><path fill="#62727a" d="M48 45.7h16V64H44V49.7c0-2.2 1.8-4 4-4"/><path d="M60.8 49h.4c.4 0 .8.4.8 1v14h-2V50c0-.6.4-1 .8-1m-5 0h.4c.4 0 .8.4.8 1v14h-2V50c0-.6.4-1 .8-1" fill="#d0d0d0"/><g fill="#62727a"><path d="M51.3 43h11v2.9h-11zM0 43.1h13.1v-5.2L0 40.9z"/><path d="M0 43h13v21H0z"/></g><path d="M9.5 51c0 .5-.4 1-1 1h-3c-.6 0-1-.5-1-1v-2c0-.6.4-1 1-1h3c.6 0 1 .4 1 1v2m0 8c0 .5-.4 1-1 1h-3c-.6 0-1-.5-1-1v-2c0-.6.4-1 1-1h3c.6 0 1 .4 1 1v2" fill="#ed4c5c"/><path fill="#3e4347" d="M50 38v-4l-6-2V21h-2v11l-6 2v4h-3v-7.7L23 19 13 30.3V64h40V38z"/><path d="M41.5 45c0 .5-.5 1-1 1h-3c-.5 0-1-.5-1-1v-2c0-.6.5-1 1-1h3c.5 0 1 .4 1 1v2m8 8c0 .5-.5 1-1 1h-3c-.5 0-1-.5-1-1v-2c0-.6.5-1 1-1h3c.5 0 1 .4 1 1v2m-8 8c0 .5-.5 1-1 1h-3c-.5 0-1-.5-1-1v-2c0-.6.5-1 1-1h3c.5 0 1 .4 1 1v2m8 0c0 .5-.5 1-1 1h-3c-.5 0-1-.5-1-1v-2c0-.6.5-1 1-1h3c.5 0 1 .4 1 1v2" fill="#6adbc6"/><path d="M30 43c0 .5-.5 1-1 1H17c-.5 0-1-.5-1-1v-2c0-.6.5-1 1-1h12c.5 0 1 .4 1 1v2m0 16c0 .5-.5 1-1 1H17c-.5 0-1-.5-1-1v-2c0-.6.5-1 1-1h12c.5 0 1 .4 1 1v2m0-24c0 .5-.5 1-1 1H17c-.5 0-1-.5-1-1v-2c0-.6.5-1 1-1h12c.5 0 1 .4 1 1v2m0 16c0 .5-.5 1-1 1H17c-.5 0-1-.5-1-1v-2c0-.6.5-1 1-1h12c.5 0 1 .4 1 1v2" fill="#ffdd7d"/></svg>