<svg xmlns="http://www.w3.org/2000/svg" viewBox="0 0 64 64"><path fill="#008db3" d="M62 32c0 16.6-13.4 30-30 30S2 48.6 2 32C2 17.6 12.1 5.6 25.7 2.7h.8l.6-.3c.5-.1 1-.1 1.5-.2h1l.8-.2h.4l1.2.2.8-.2h.4l1.6.4 1.9-.1c.2 0 .5.1.7.1L44.6 7l7.8 3c5.9 5.5 9.6 13.3 9.6 22"/><g fill="#ffc942"><path d="M33.5 11.5c2 .6 1.9-.6 3.1.8.7.8 2 2.3 3.5 2.7.2.1.7-.4.7-.8s-1.1-1.1-1.7-1.3c-.6-.2.2-1.3-.6-1.6s-1.7-1.6-2-2.6c-.3-1-1.7-.2-2.2-.4-.5-.2-1.1-.1-1.6.7s.3 2.3.8 2.5"/><path d="M44 39.7c0-.4-3.9-2.5-4.3-2.6-.8 0-1.8-.4-2.5 0-.3.2-.6.4-.7.7-.1.2-.9-.2-1.2-.1-.7.4-1.1-.8-.9-1.3.5-1.1-1.2-.4-1.4-.7.2.4-.1-3.2-.7-1.2-.5 1.5-2.2-.2-2-1.3.3-1.7 2.9-2 3.5-1.7.3.2 1.3 1.7 1.5 1.6.3-.1-.2-1.8-.2-2-.2-.8 1.4-1.1 1.5-2 .1-.7.6-.5 1.1-.9.7-.6.2-1.6 1.1-2.2.3-.2 1.5-.3 1.6-.7.1-.3-1-1.1 0-1.4.9-.2 1.8.2 2-1.1.2-1.1-1.1-1.4-1.4-2.3-.1-.3-.3-1.8-.8-1.5-.7.4-1.1 1.2-1.6.2-1-1.8-3.4-2.6-2.3.3.6 1.5-1.6 6-1.9 1.8-.1-1.4-4.4-1.9-3-3.5 1.5-1.6 3.5-1.7 4-4.2.8-3.5-1.6-.5-2.9-1.2-1.8-1-.3-.5-1.2.8-.4.5-1.5-.3-2.1-.2-.5.1-1.7 1.1-2.1.5-.6-1.2-4.9-2-6.1-1.5-2.4.9-3.3-.3-5.7-.8-.8-.2-5-.3-4.7 1.1.1.6.5 1 .7 1.5.3.8-.9.2-1.2.4-.1.1 1.4 1.1 1.5 1.2.4.4-1.5.9-1.7 1.6-.4 1.4 2.6 1 2.1 2.6-.2.5-1.9 1.3-2.1 3 0 .3 2.1-2.1 3.5-1.6 1.2.4 1.1-2.9 2.7-2.9 2.9 0 3.4 2.8 4.9 4.7.7.9 1.3 1.2 1.4 2.4.1 1.1-.1 2.4.3 3.4s1.1 1 1.6 1.8c.6.9.9 1.8 1.7 2.6 1.2 1.2 3.1 2.9 4.9 2.7.4-.1 1.7.7 2 .9.5.4.7.9 1.1 1.4.3.4 1.3.2 1.8.4.4.2-1 3.2-.5 4 .6.9.6 1.8 1.5 2.5.8.6 1.1.7 1.2 1.8.2 1.8-.4 3.7-.8 5.4-.2.9.2 1.9-.1 2.7-.4 1-.7 1.9-.3 3.1.6 2 4.3 2.3 2.1.6-.9-.7 1-2.6.4-2.7-1-.4.2-.8.3-1.3.3-.9 4.3-4.5 4.6-5.1.3-.5.1-1 .5-1.5.5-.5 1.1-.3 1.6-.7 1.1-.7.7-1.9 1.1-2.9.9-2 1.2-1.2 0-2.7-.4-.5-3.3-.3-3.4-1.9"/><path d="M22.4 10.1c.7.8 1.5-.4 1.6 0s.1 1.2 1 1.2-.8.6-.3.9c.6.2 1.8 1 2.2.7.4-.3 1-.6 1.2-.3.2.2 1.4 0 1.1-.4-.3-.4-1.3-1.4-1.2-1.9 0-.6 1.1-2-.1-1.8-.7-.1-.9.6-.9 1s-1.1-.6-1.3-.6c-.2 0-1-1.2-1.3-1.2s-2.2-.6-2 0-.7 1.6 0 2.4m17 5.8c-.6-.3-1.7-1.8-2.1-1.3-.5.5.1 1.6.5 2.1s2.1 1.5 1.9 1.1.8-1.3-.3-1.9M23.5 5.6c.3 0 .8 1 1.2 1.1.4.1.6.6.8.7s2-.6 2.4-.7c.5-.2-.5-1.2-.9-1.9-.3-.7 0 1.2-.6.9s-.4-.7-1-.7-.2-1.3-1-1-1.2 1.6-.9 1.6M30 8c-.5.1-.4.5-.7.8-.3.3-.3.7 0 1.1.3.4.7 1 1 .4.3-.6 0-1.1 0-1.5 0-.4 0-.9-.3-.8m1.1 1.9c.1.3.4-.6.9-1 .5-.5-.3-1.6-.7-1-.4.3-.3 1.7-.2 2m-.1.4c-.3.4-.5 1.4 0 1.5.5.1.8-.5.6-.9s-.5-.8-.6-.6m2-6.8c-.5.2.7.6-.1.8-.8.2-.8.9-1.5.3-.7-.6-1.5.2-.9.5s1.4 1.2 1.4 1.6c0 .5.8.7 1.6.6.8-.1 1.8.2 1.8-.2s.1-.5 0-.8c-.1-.4-.5-.8-1.3-.4-.8.3-1.4.2-1.5-.2-.1-.4 1.6-1.2 2.4-.6.8.5 1.5-.3.9-.7s-.2-.8.2-.8c.3 0 .5-.8.7-1.3-1.2-.2-2.4-.3-3.6-.4.1.9.4 1.4-.1 1.6m-7.1-.7c.5.2 1.4 0 1.3-.4l-1.5.3s.1.1.2.1m.3.4c-.8-.4-.7.6-.4.9s1.4-.4.4-.9"/><path d="M30.8 2c.6.1.9.5 1 .9.2.3 1-.4 1-.9h-2m-1.6 1.1c-.3.5 0 1 .4.6.4-.5.1-1.7.4-1.1.3.5.9 1.3 1.3 1.4.4 0 .1-.5 0-.9 0-.4-1-.8-.9-1-.6 0-1.2.1-1.8.1.4.3.9.6.6.9M31 7.2c.5.2 0-1 0-1-.5.3-.5.8 0 1m-1.7-.8c.1.3.6.4.9 0 .3-.4 0-2-.4-1.5s-.8.3-1.6 0 1 1.2 1.1 1.5M34.6 34c.7-.1 1.1.7 1.8.7s1.9 1.1 2.5.4c.5-.5-2.3-1-3.2-1.5-1-.5-1.8.5-1.1.4m3.3-30.4c.9.4.8.4.2.9s-.4 1.4.9 1.3 2-1.3 2.6.4c.6 1.8.2 3.7.9 4.2s.1.9 0 1.4.2.9.8.7.4.9 0 1.3-.9 1.3.4 2.8 1.4 1.3 1.8 1.9c.4.5.7-.2.8-.8s-.4-2.7 1.1-2.7c1.4 0 1.8-1.1 2-1.5s1.3-.3 1.9-.8c.5-.5 1.1-.9 1.2-2.7-4.1-3.8-9.2-6.4-14.9-7.5-.2.4-.2.9.3 1.1"/></g></svg>