<svg xmlns="http://www.w3.org/2000/svg" viewBox="0 0 64 64"><path fill="#ffe8a6" d="M41.6 2.2c-5 2.5-9.4 6.4-12.4 11.5-1.6 2.7-2.6 5.6-3.2 8.5-.8 3.9-.1 9.5 6.8 7.6 3.7-1 7.3 5.7.4 7.6-2 .5 4.7 2.1-.4 4.9 0 0 5.5 1.3 2.1 3.9-1.5 1.2.2 3.1 1.1 3.9 1.4 1.2 3 2.2 4.7 3.2 4.9 2.7 10.2 3.9 15.3 3.8-9.3 6.1-21.8 6.9-32.3 1.1C8.9 49.8 3.6 31.5 11.9 17.1 18 6.5 29.9 1 41.6 2.2"/><path d="M21.1 47.5c1.5-.4 3 .4 3.4 1.9.4 1.4-.5 2.9-1.9 3.3s-3-.4-3.4-1.9c-.4-1.4.4-2.9 1.9-3.3m-4-32.5c1.5-.4 3 .4 3.4 1.9.4 1.4-.5 2.9-1.9 3.3-1.5.4-3-.4-3.4-1.9-.4-1.4.4-2.9 1.9-3.3m12.8 33.5c2.4-.7 5 .7 5.6 3.1.7 2.4-.7 4.9-3.2 5.5-2.4.7-5-.7-5.6-3.1-.7-2.3.7-4.8 3.2-5.5m-17-17.4c2.6-.7 5.2.8 5.9 3.3.7 2.5-.8 5.1-3.3 5.8s-5.2-.8-5.9-3.3c-.8-2.5.7-5.1 3.3-5.8m26.8 24c1.2-.3 2.4.4 2.7 1.5.3 1.1-.4 2.3-1.5 2.6-1.2.3-2.4-.4-2.7-1.5-.3-1 .4-2.2 1.5-2.6M25.5 7.4c.9-.2 1.9.3 2.1 1.2.3.9-.3 1.8-1.2 2.1-.9.2-1.9-.3-2.1-1.2-.3-.9.3-1.9 1.2-2.1" fill="#f4dc9f"/><path fill="#7f5629" d="M18.5 41.7c.5.4 1 .6 1.6.8.6.2 1.2.2 1.8.3 1.2.1 2.4.1 3.6 0 2.4-.1 4.8-.3 7.3-.6-1.1.5-2.3.9-3.6 1.1-1.2.3-2.5.4-3.7.5-1.3 0-2.5 0-3.8-.3-.6-.1-1.2-.3-1.8-.6-.6-.2-1.1-.6-1.4-1.2"/><path fill="#b79918" d="M26.6 46.8c1.1-.7 2.3-1 3.5-1.2.6 0 1.3 0 1.9.1.6.1 1.3.4 1.7.9-.6-.1-1.2-.1-1.8-.1-.6 0-1.1.1-1.7.1-1.2.1-2.4.3-3.6.2"/><path fill="#7f5629" d="M29.5 37.5c-.1-.3.1-.7.4-1 .3-.3.6-.4.9-.5.6-.1 1.2-.2 1.9.1-.5.5-1.1.8-1.6.9l-.7.2c-.4 0-.6.1-.9.3"/><path fill="#fff" d="M20 23c-2.7.7-4.7 3.6-4 6.3.8 2.7 4 4.1 6.7 3.4 2.7-.7 2.2-2.9 1.4-5.6-.8-2.7-1.4-4.8-4.1-4.1"/><path fill="#7f5629" d="M21.2 24.6c-1.7.5-3.1 2.3-2.7 4s2.7 2.5 4.4 2.1c1.7-.5 1.3-1.8.9-3.5-.5-1.7-.9-3.1-2.6-2.6"/><path fill="#b79918" d="M26.9 35.2c-.3 1.2-1.4 2-2.3 2.7-1 .7-2 1.2-3.1 1.8-1 .5-2.1 1-3 1.7-.9.6-1.8 1.4-1.9 2.6-.2-.6-.1-1.2.2-1.8.3-.6.7-1 1.2-1.4.9-.8 2-1.4 3-1.9l3.1-1.5c1-.7 2.1-1.2 2.8-2.2"/></svg>