<svg xmlns="http://www.w3.org/2000/svg" viewBox="0 0 64 64"><path fill="#ffe8a6" d="M32 2c-9.4 0-17 13.4-17 30s7.6 30 17 30c16.6 0 30-13.4 30-30S48.6 2 32 2z"/><path fill="#3e4347" d="M15 32c0-16.6 7.6-30 17-30C15.4 2 2 15.4 2 32s13.4 30 30 30c-9.4 0-17-13.4-17-30"/><g fill="#f4dc9f"><circle cx="50" cy="35.2" r="7"/><path d="M24.2 41h-.4c.2-.6.4-1.3.4-2 0-3.3-2.7-6-6-6-1.1 0-2.2.3-3.1.9.1 3.9.7 7.6 1.6 10.9h.1l-.1.1c1.7 6.1 4.5 11 7.9 14 4.8-.2 8.5-4.2 8.5-9 .1-4.8-4-8.9-8.9-8.9M24 21.2c2.2 0 4-1.8 4-4 0-.6-.2-1.2-.4-1.8.5.2 1 .3 1.6.3 2.8 0 5-2.2 5-5s-2.2-5-5-5-5 2.2-5 5c0 1 .3 1.9.8 2.6-.3-.1-.6-.1-.9-.1-2.2 0-4 1.8-4 4-.1 2.3 1.7 4 3.9 4"/><circle cx="37" cy="18.2" r="4"/><path d="M15.6 24c-.2 1.5-.4 3-.5 4.5.6-.7 1-1.6 1-2.6 0-.7-.2-1.3-.5-1.9"/><circle cx="39" cy="9.2" r="2"/><circle cx="52" cy="50" r="2"/><circle cx="25" cy="29.9" r="3"/><circle cx="46" cy="52.6" r="4"/></g><g fill="#464d51"><path d="M15 33.9c-1.7 1-2.9 3-2.9 5.1 0 2.8 1.9 5.1 4.5 5.8-.9-3.3-1.4-7-1.6-10.9M16.7 45c-1 1.4-1.5 3.2-1.5 5 0 5 4 9 9 9h.5c-3.5-2.9-6.3-7.9-8-14m-4.6-15.1c1.2 0 2.3-.5 3-1.4.1-1.6.3-3.1.5-4.5-.7-1.2-2-2.1-3.5-2.1-2.2 0-4 1.8-4 4s1.8 4 4 4"/><circle cx="8.1" cy="39" r="2"/><circle cx="15" cy="15.7" r="2"/></g></svg>