<svg xmlns="http://www.w3.org/2000/svg" viewBox="0 0 64 64"><path fill="#ffe8a6" d="M22.4 2.2c5 2.5 9.4 6.4 12.4 11.5 1.6 2.7 2.6 5.6 3.2 8.5.8 3.9.1 9.5-6.8 7.6-3.7-1-7.3 5.7-.4 7.6 2 .5-4.7 2.1.4 4.9 0 0-5.5 1.3-2.1 3.9 1.5 1.2-.2 3.1-1.1 3.9-1.4 1.2-3 2.2-4.7 3.2C18.5 55.9 13.2 57.1 8 57c9.3 6.1 21.8 6.9 32.3 1.1 14.8-8.2 20.1-26.5 11.8-40.9C46 6.5 34.1 1 22.4 2.2"/><path d="M42.9 47.5c-1.5-.4-3 .4-3.4 1.9-.4 1.4.5 2.9 1.9 3.3s3-.4 3.4-1.9c.4-1.4-.4-2.9-1.9-3.3m4-32.5c-1.5-.4-3 .4-3.4 1.9-.4 1.4.5 2.9 1.9 3.3 1.5.4 3-.4 3.4-1.9.4-1.4-.4-2.9-1.9-3.3M34.1 48.5c-2.4-.7-5 .7-5.6 3.1-.7 2.4.7 4.9 3.2 5.5s5-.7 5.6-3.1c.7-2.3-.7-4.8-3.2-5.5m17-17.4c-2.6-.7-5.2.8-5.9 3.3-.7 2.5.8 5.1 3.3 5.8 2.6.7 5.2-.8 5.9-3.3.8-2.5-.7-5.1-3.3-5.8m-26.8 24c-1.2-.3-2.4.4-2.7 1.5-.3 1.1.4 2.3 1.5 2.6 1.2.3 2.4-.4 2.7-1.5.3-1-.4-2.2-1.5-2.6M38.5 7.4c-.9-.2-1.9.3-2.1 1.2-.3.9.3 1.8 1.2 2.1.9.2 1.9-.3 2.1-1.2.3-.9-.3-1.9-1.2-2.1" fill="#f4dc9f"/><path fill="#7f5629" d="M45.5 41.7c-.3.5-.9.9-1.4 1.2-.6.3-1.2.5-1.8.6-1.2.3-2.5.3-3.8.3-1.3-.1-2.5-.2-3.7-.5-1.2-.3-2.4-.6-3.6-1.1 2.5.2 4.9.5 7.3.6 1.2.1 2.4.1 3.6 0 .6-.1 1.2-.1 1.8-.3.6-.1 1.1-.4 1.6-.8"/><path fill="#b79918" d="M37.4 46.8c-1.3.1-2.4-.1-3.6-.2-.6-.1-1.2-.1-1.7-.1-.6 0-1.1 0-1.8.1.4-.5 1.1-.8 1.7-.9.6-.1 1.3-.1 1.9-.1 1.3.2 2.5.5 3.5 1.2"/><path fill="#7f5629" d="M34.5 37.5c-.3-.2-.6-.3-.8-.4L33 37c-.5-.2-1.1-.4-1.6-.9.7-.2 1.2-.2 1.9-.1.3.1.6.2.9.5.2.3.4.7.3 1"/><path fill="#fff" d="M44.1 23c2.7.7 4.7 3.6 4 6.3-.8 2.7-4 4.1-6.7 3.4-2.7-.7-2.2-2.9-1.4-5.6.7-2.7 1.3-4.8 4.1-4.1"/><path fill="#7f5629" d="M42.8 24.6c1.7.5 3.1 2.3 2.7 4s-2.7 2.5-4.4 2.1c-1.7-.5-1.3-1.8-.9-3.5.5-1.7.9-3.1 2.6-2.6"/><path fill="#b79918" d="M37.1 35.2c.7 1 1.7 1.5 2.7 2l3.1 1.5c1 .5 2.1 1.1 3 1.9.5.4.9.9 1.2 1.4.3.6.4 1.2.2 1.8-.1-1.2-1-2-1.9-2.6-.9-.6-2-1.1-3-1.7-1-.5-2.1-1.1-3.1-1.8-.8-.4-1.8-1.3-2.2-2.5"/></svg>