<svg xmlns="http://www.w3.org/2000/svg" viewBox="0 0 64 64"><path fill="#ffe8a6" d="M34 32c0-16.6-.9-30-2-30C15.4 2 2 15.4 2 32s13.4 30 30 30c1.1 0 2-13.4 2-30"/><path fill="#3e4347" d="M32 2c1.1 0 2 13.4 2 30s-.9 30-2 30c16.6 0 30-13.4 30-30S48.6 2 32 2z"/><g fill="#f4dc9f"><path d="M24.2 41h-.4c.2-.6.4-1.3.4-2 0-3.3-2.7-6-6-6s-6 2.7-6 6c0 2.9 2 5.2 4.7 5.8-1 1.5-1.6 3.2-1.6 5.2 0 5 4 9 9 9s9-4 9-9c-.1-4.9-4.2-9-9.1-9M24 21.2c2.2 0 4-1.8 4-4 0-.6-.2-1.2-.4-1.8.5.2 1 .3 1.6.3 1.9 0 3.6-1.1 4.4-2.7-.1-2-.2-3.8-.4-5.3-.9-1.2-2.4-2.1-4-2.1-2.8 0-5 2.2-5 5 0 1 .3 1.9.8 2.6-.3-.1-.6-.1-.9-.1-2.2 0-4 1.8-4 4s1.7 4.1 3.9 4.1m9.9-.5c0-1.6-.1-3.2-.2-4.7-.4.6-.7 1.4-.7 2.2 0 1 .3 1.8.9 2.5"/><circle cx="12.1" cy="25.9" r="4"/><circle cx="8.1" cy="39" r="2"/><circle cx="25" cy="29.9" r="3"/><circle cx="15" cy="15.7" r="2"/></g><g fill="#464d51"><circle cx="50" cy="35.2" r="7"/><path d="M37 14.2c-1.4 0-2.6.7-3.3 1.8.1 1.5.1 3 .2 4.7.7.9 1.9 1.6 3.1 1.6 2.2 0 4-1.8 4-4s-1.8-4.1-4-4.1"/><circle cx="39" cy="9.2" r="2"/><circle cx="52" cy="50" r="2"/><circle cx="46" cy="52.6" r="4"/><path d="M33.2 7.8c.1 1.5.3 3.3.4 5.3.4-.7.6-1.5.6-2.3 0-1.2-.4-2.2-1-3"/></g></svg>