<svg xmlns="http://www.w3.org/2000/svg" viewBox="0 0 64 64"><path fill="#a1b8c7" d="m37.9 46.2 3.1-36c0-11-18-11-18 0l3.1 36C24.2 47.9 23 50.3 23 53c0 5 4 9 9 9s9-4 9-9c0-2.7-1.2-5.1-3.1-6.8M32 59.8c-3.7 0-6.7-3-6.7-6.8 0-2.4 1.3-4.6 3.3-5.8l-2-37.2c0-6.4 10.8-6.4 10.8 0l-1.9 37.2c1.9 1.2 3.3 3.3 3.3 5.8 0 3.7-3.1 6.8-6.8 6.8" opacity=".8"/><g fill="#ed4c5c"><path d="m28.4 21.4 1.4 27.5h4.4l1.4-27.5z"/><path d="M37.6 53c0 3.1-2.5 5.6-5.6 5.6-3.1 0-5.6-2.5-5.6-5.6 0-3.1 2.5-5.6 5.6-5.6 3.1 0 5.6 2.5 5.6 5.6"/></g><ellipse cx="32" cy="21.4" fill="#a5203c" rx="3.6" ry="1.2"/><path d="M30.9 28.2H26l-.1-1.5h4.9zm0 4.2h-4.7v-1.5h4.6zm0 4.2h-4.5v-1.5h4.4zm0 4.2h-4l-.1-1.5h4.1zM31 45h-3.8v-1.4h3.7z" fill="#51575b"/></svg>