<svg xmlns="http://www.w3.org/2000/svg" viewBox="0 0 64 64"><path fill="#fddfb3" d="M58.2 4.1C54.4.1 36.4-.8 11.1 24.3.9 34.4 4.8 56.3 21.3 60.5c18.2 4.6 24.1-5 27.3-9.4 10.1-13.7 18.6-43.5 9.6-47"/><path fill="#89664c" d="M44.8 30.2C38.5 20 29.7 20 24.9 20.3 2.3 21.6 1.4 55.5 23.2 59.4c24.2 4.5 27.9-18.9 21.6-29.2z"/><g fill="#d3976e"><path d="m25.3 29.2-6 2-1.3 7.9 7 .4zm.7 21.5-3.2-6.9-7.3-.6.2 9.1z"/><path d="M19.8 47.5s-5.7.3-6.7 2.5c-1 2.3-2.5 6.3-1.5 8 1 1.7 5.9 2.5 8.2 1 2.4-1.5 1.8-11.7 0-11.5"/></g><path fill="#89664c" d="M13.1 50c-1 2.3-2.5 6.3-1.5 8-.9-3.4 4.5-1.8 6-2.4 1.5-.6 2.2-8.1 2.2-8.1s-5.7.2-6.7 2.5" opacity=".5"/><path fill="#d3976e" d="M16.7 47s-2-6.3-4.4-6.7c-2.4-.4-6.5-.9-7.8.8-1.3 1.7-.5 7.3 1.6 9.5S17.4 49 16.7 47"/><path fill="#89664c" d="M12.3 40.4c-2.4-.4-6.5-.9-7.8.8 2.8-2 3.1 4.4 4.1 5.9 1 1.5 8.1-.1 8.1-.1s-2-6.2-4.4-6.6" opacity=".5"/><path fill="#d3976e" d="M14.3 29.8s-5-2.4-6.8-1-4.5 4.3-4.3 6.3c.2 2 4.1 4.9 6.7 4.7 2.7-.2 6-9.4 4.4-10"/><path fill="#89664c" d="M7.6 28.8C5.9 30.3 3 33.1 3.2 35c.5-3.3 4.6.5 6.1.7 1.5.2 5-6 5-6s-5-2.4-6.7-.9" opacity=".5"/><path fill="#d3976e" d="M23.8 23s-4.8-3.9-6.9-2.7c-2.1 1.1-5.8 3.3-5.9 5.5-.2 2.2 3.3 6.2 6.1 6.7 2.7.4 8.2-8.4 6.7-9.5"/><path fill="#89664c" d="M16.9 20.3c-2.1 1.1-5.8 3.3-5.9 5.5 1.2-3.4 4.7 1.7 6.3 2.3 1.6.6 6.6-5 6.6-5s-4.9-4-7-2.8" opacity=".5"/><path d="M26.2 42.3c-3.6 2-4.4 3-3.9 6.1.5 3.1 3-.8 8.2-2.3s2.4-7.6-4.3-3.8m3-10.8c-2.8-3.2-3.9-3.8-6.4-2.4-2.5 1.4 1.6 3 4.3 7.9s7.2.4 2.1-5.5" fill="#ffc7ce"/><path d="M9.4 40.4c-5.1 3.4-8.7 6.3-7 7.6 2.2 1.6 8.9-4.5 11.5-7.7 2.7-3.2 6-6.8-4.5.1m4.6 9.3c-4.9 3.5-8.3 6.5-6.6 7.7 2.2 1.6 8.7-4.8 11.1-8 2.4-3.2 5.6-6.9-4.5.3m13.5 4c-5.7 2.2-9.8 4.3-8.4 6 1.8 2.1 9.7-2.6 12.9-5.1 3.3-2.6 7.3-5.5-4.5-.9m1.2-15.3c-6 1.1-10.5 2.4-9.4 4.3 1.4 2.4 10-.7 13.7-2.6 3.7-2 8.2-4-4.3-1.7m3.7-16.6c-5.5-1.5-9.8-2.2-9.6-.2.2 2.6 8.7 3.5 12.6 3.4 3.8-.2 8.3-.1-3-3.2" fill="#83bf4f"/><path d="M32 61.8c-.8.4-.1.2 0 0m12.2-33.5L40.7 25l-2.4-.2-1.3-2.5-4.1-.2-.8 3.1-3.2-.1v3l-2.4 1.3 4.1 3.6-.8 4.5 2.1 5.6-3.7 4 .6 1.6 1.9-1.3-2.6 7 3.1-2.6-2.3 6.4h2l-2 3 8-2 5.1-3.7 4.2-5.5-1.3-2.8 2.6-4 .2-4.4-1.1-4.5-2.7-3.5z" fill="#fffbe9"/><path d="m42.5 51.2-1.2 4 2.6-2.8.9-3.8zM45 38.9l.5 2.8 2-2.9-.7-2.8zm-2.5-7.3.1 3.1 2.4 1.9.1-3.1zm-6.2 9.5.1 3.1 2.4 1.9.1-3zM30.4 45l.1 3.1 2.4 1.9.1-3.1zm11.3 6.2-3.1 2-1.7 3 3-1zM35 53l-3.1 2-1.7 3 3-1zm6.8-24.6-1.6-2.8-3.7-1.1 1.8 2.8zm-8 6 2.3 2.2 3.4-.1-2.3-2.1zM34.9 48l2.4 2.2 3.4-.1-2.3-2.1zm1-22.1-3.6-.8-2.8 1.4 3.5.9zm-2.5 6-3.6-.8-2.9 1.5 3.6.8zm6.8 8.1 1.8-2.8-.7-2.9-1.7 2.9zm-5.5-1.3-1.1-2.8-1.3 2.9.9 2.7zm9.2 4.6-1-2.8-1.3 2.9.8 2.8zm-5.6-12.4-1.1-2.8-1.3 2.8.9 2.8z" fill="#e8e1d6"/><path fill="#ffc7ce" d="M23 50.4c-2.4-2.9-3.3-3.4-5.5-2.3s1.3 2.6 3.5 7c2.3 4.4 6.4.6 2-4.7"/><g fill="#e8662d"><path d="m25.5 47.8-3.6 4.4 1.7 3.6 5.7-.2 1.5-6.6-2.1-2.3-3.2 1.1"/><path d="m28.7 46.7-3.2 1.1-3.6 4.4 1.7 3.6 5.7-.2 1.5-6.6-2.1-2.3m-5.2-24.5L19.9 28l2.6 3.9 6.7-1.2.7-8.1-2.7-2.3-3.7 1.9"/><path d="m27.2 20.3-3.7 1.9-3.6 5.8 2.6 3.9 6.7-1.2.7-8.1-2.7-2.3M10.1 45.4l-1.2 4.3 2.2 1.8 3.9-2.1-.9-5-2.1-.9-1.9 1.9"/><path d="m12 43.5-1.9 1.9-1.2 4.3 2.2 1.8 3.9-2.1-.9-5-2.1-.9m2-8.6v6.4l3.7 1.5 4.5-4.7-3.2-6.5-3.2-.2-1.8 3.5"/><path d="M15.8 31.4 14 34.9v6.4l3.7 1.5 4.5-4.7-3.2-6.5-3.2-.2"/></g><g fill="#89664c"><path d="m39.3 12-1 1-1-1 1-1zm14.6 13.1-1 1-1-1 1-1zm-16.4-9.8-1 1-1-1 1-1zm11.4-8-1 1-1-1 1-1zm.335 2.455.494-.496.496.493-.493.497zm1.045 16.88.494-.496.496.493-.493.497zM49.239 5.754l.494-.496.496.495-.495.495zM55.4 28.1l-1.5 1.5-1.5-1.5 1.5-1.5zM35.6 13.8l-2 2-2-2 2-2z" opacity=".5"/><path d="M32.4 17.5c9.1 2.5 25.5 2.9 25.8-13.4 0 0 2.1 16.7-14.4 16.9-12.9.1-15.7-4.9-24.9-3.8-.1 0 5.1-2 13.5.3" opacity=".33"/></g></svg>