<svg xmlns="http://www.w3.org/2000/svg" viewBox="0 0 64 64"><path fill="#d3976e" d="M16.4 61.9c-6.1 0-12 0-14.3-30.8-3.1-42 52.1-26.7 52.1-2.5 0 13.3-37.8 33.3-37.8 33.3"/><path fill="#fff" d="M3.6 31.1c-1.3-18 8-25.4 19.2-26.2v-.1C11 5 .7 12.3 2.1 31.1 4.2 59.6 9.5 61.9 15 61.9 9.9 61 5.5 57.1 3.6 31.1" opacity=".5"/><path fill="#594640" d="m19.3 25.5-15 6.6L2.2 37l2.7 1.6L3 42.9l1.5.9-2.1 4.5 3.3 2-1.9 4.3L7.7 57 7 58.6l4.5 2.7.9-2 2.2 2.5 3.6-.9 11.7-22.5-10.6-12.9"/><path fill="#89664c" d="m23 39 3-4-22.3-2.9-1.6 3.6 3.3 2 1-2.2 1.7 1-1.3 2.8-2.3-1.4-1.6 3.6 3.3 1.9 1.3-3 2.2 1.3-.1.3 2 1.2-.6.6L7.9 42l-1.4 3-2.7-1.6L2.2 47l3.3 1.9L6.8 46l2.7 1.6.8-1.9.7.8-1 2.3-1.6-.9-1.3 2.8-1.9-1.2-1.6 3.6 3.3 2 1.3-2.8 1.9 1.2.3-.7 1 1.2-.6 1-2.3-1.4-1.6 3.6 3.3 1.9 1.4-3.1 2.4 3.4 2.2-2.5 1.8 2 2.6-2.9-2.6-2.8-2.2 2.5-.8-.8.5-1 2.3-2.7 1.2 1.4 2.6-2.9-2.6-3-2.4 2.8-1.2-1.4-2 2.2 1.3-2.9-1.2-.7.7-.8.6.3 1.7 1.9 2.6-2.9-2.6-2.9-.2.2-.9-.5 1.2-1.3 1.7 1.9-.3.3 2.3 2.6-.5.6 2.6 2.9 2.6-2.9-2-7.1"/><path d="m9.6 38.1-2.2-1.4-1.2 2.5 2.3 1.4zm4.4-1.3.7-1.5-1.4-.9-.8 1.6zm-3.4 5.4-.7 1.6 1.4.9.7-1.6zm.5 3.5-.7 1.5 1.4.9.7-1.6zm2.1-4.2 1.4.8.7-1.5-1.4-.9zm-8.7 3.2-1.4-.8-.7 1.5 1.4.9zm.2 6L4 52.3l1.4.8.7-1.5zm2.7 5.7 1.4.8.7-1.6-1.4-.8zm-.1-10.1.7-1.6-1.4-.8-.7 1.5zm.3 1.1-1.2 2.5 2.3 1.4 1.1-2.5zm3.2 5.6 1.4.8.7-1.5-1.4-.9zm1.3 3.7 1.4.8.7-1.5-1.4-.9zm6.1-21.5-1.1-1.3-1.1 1.3 1.1 1.2zm1.1 3.9-1.7-2-1.8 2 1.8 2zm.5 1.8-1.1 1.3 1.1 1.2 1.1-1.2zm.6 4.5 1.1 1.3 1.1-1.3-1.1-1.3zm-3.9 1.7 1.1 1.3 1.1-1.3-1.1-1.3zm.3 6.3 1.1 1.2 1.1-1.2-1.1-1.3zm-1.9 3.8 1.1 1.3 1.1-1.3-1.1-1.3z" fill="#d3976e"/><path fill="#ffec40" d="m45.7 8.8-9.5-6.3-1.3-.5.4 3.9L24 3.6l-1.2.3L11 12 6.3 24 3 25v2l7-2-3.3 3.2 1 4.4 18 1.2z"/><path d="M22.5 4.6c-2.2-.4-4 2-6.1 2.7-2.2.8 1.8 3.8 3 3.8 3.4 0 9.8-5.2 3.1-6.5m-11 12.5c.8-2.3.5-5.1-2.6-3.1-2.6 1.7.2 4.3-3 5.8-3.1 1.4-1 5.4 1.7 4.2 2.4-.9 3.2-4.6 3.9-6.9m0 0c0 .1 0 .1 0 0m13.2 14.2c.2.3.5.5 0 0-3.7-3.6-9.1 5-7.9 6.6 4.7 6.2 10.1-4.3 7.9-6.6" fill="#83bf4f"/><g fill="#ed4c5c"><path d="m13.3 25.5-2.6 6.1 6.6 2.4 3.7-6.7z"/><path d="m9.7 24.3 3.4 2.7 5.7-4-3.7-3zm11.2-4.8 4.6 3.5 6-3.6-3.1-4.2zm-5-8 .4 4.8 6.5-3-.3-3.4-3-1.7zm13.5-8.3-1.7 5.1L35 9l-.4-4.9zM37 3l.4 5 6.7-.7.8-3.1z"/></g><g fill="#83bf4f"><path d="M35.2 11.7c2.7.7-1.1-.2 0 0m.8.3c-.9-.7-2.7 2.2-3.7 2.8-1.2.8-10.7 3.1-2.5 5.2 2.6.7 8.2-6.4 6.2-8m4.3-2.3c-.8-.5.8.5 0 0m3-4c-1.7 2.3-1.4-2.6-3.9-.4-1.5 1.3-.7 3.5.9 4.4 1.4.9 6.3.4 6.6-1.9.2-1.5-2.4-3.7-3.6-2.1M7 26c-1.4 0-4.3 3.7-4.3 3.7-2.6 2.8 2.8 2.8 2.9 3.3-.8.6-1.6 1.2-2.5 1.7 0 2 4.2-.2 3.9 0-2.4 4.1 7.5-.7 8.1-1.1C18.5 31.5 13 26 7 26m11-4.1c-1.4-.1.8 0 0 0"/><path d="M20.4 16.3c-3.4-6.3-3.8 0-4.4.7-.4.4-5 0-2.9 2.5.9 1.1 3.6 2.7 5 2.3 2.9-.8 3-4.2 2.3-5.5"/></g><path d="M20.7 24 9.8 25.4 7 27.5l1.2 1L19 25l2.7-.2zM29 12.7l-4.7-.4L14 15.7l1.6 1.3 8.5-2.7 5-.5zm-5.9 8.5-1.1.1 2.1 5.1 3.1.6.8-1.8-1.8-.7zm-1.6 6.5 2.2 6.2-1.6 1.1-1.8-5.5zM38.6 7.3l-2.1-.6L34.9 2l-1.3.1 1.6 5.5 2.7 1.1zm-9-2-6.8-1.4-.7 1.1 7.2 1.9z" fill="#ffffd4"/><path fill="#fbbf67" d="M16.4 61.9s4.2 0 6.6-16.2C25.5 29.3 36.5 7.2 53.6 7.2c5.9 0 10 3.9 7.7 25.2-.3 3.7-39.7 29.5-44.9 29.5"/><path fill="#fddfb3" d="M53.7 6.2C32 6.2 25.3 30.8 23 45.7c-2.5 16.2-9.1 16.2-9.1 16.2s4.2.5 5.4-.5c1.8-1.5 3.9-5.4 5.2-14 2.3-15 10.3-39.7 29.7-39.7 5.5 0 7.3 7.9 7.3 7.9s-.9-9.4-7.8-9.4"/><path d="m39.2 40.8 1-1 1 1-1 1.1zm1.3-14 1-1.1 1 1.1-1 1.1zm15.6 0 1-1.1 1 1.1-1 1.1zm-1.9-11 1-1.1 1 1.1-1 1z" fill="#d3976e"/><path d="m48.3 33.4-1 1 1 1.1 1-1.1-1-1m2.4-12.6-1 1 1 1.1 1-1.1-1-1M43 17l-1 1.1 1 1.1 1-1.1-1-1.1m-9.5 15.8-1 1.1 1 1 1-1-1-1.1m-2.3 13.6-1 1.1 1 1 1-1-1-1.1" fill="#fddfb3"/></svg>