<svg xmlns="http://www.w3.org/2000/svg" viewBox="0 0 64 64"><path fill="#ffce31" d="m24.5 31.9-4.9 16.2h12.5L27.9 62l16.5-20.2H32.5l2.9-9.9z"/><path fill="#fff" d="M18.2 32.5c-.8 0-1.6-.1-2.4-.4-3.1-1-5.3-3.9-5.3-7.2 0-2.2 1-4.3 2.6-5.7.4-.4.9-.7 1.4-1l.5-1.8c1.3-4.4 5.4-7.5 10-7.5.5 0 .9 0 1.5.1.4.1.8.1 1.2.3l.2-.4c1.9-3.3 5.4-5.4 9.2-5.4C43 3.5 47.7 8.2 47.7 14v1c.4.2.9.4 1.3.6 2.8 1.6 4.5 4.6 4.5 7.8 0 4.2-2.9 7.8-7 8.8-.7.2-1.4.2-2 .2H18.2z"/><path fill="#b6c1d1" d="M37.1 5c5 0 9 4 9 8.9v.7c-2.1.2-4 1-5.4 2.3 1.1-.6 2.4-1 3.7-1 .5 0 1 .1 1.5.1.8.2 1.6.5 2.3.9 2.3 1.3 3.8 3.7 3.8 6.5 0 3.6-2.5 6.5-5.8 7.3-.7.2-1.2.3-1.8.3H18.2c-.7 0-1.3-.1-1.9-.3-2.4-.8-4.2-3.1-4.2-5.8 0-1.8.8-3.5 2.1-4.6.6-.5 1.3-.9 2-1.2.6-.2 1.3-.3 2-.3 2 0 3.7.9 4.9 2.4h.1c-1.3-2.4-3.7-4.1-6.6-4.3 1.1-3.7 4.5-6.4 8.5-6.4.4 0 .9 0 1.3.1.8.1 1.6.3 2.3.7 2.7 1.2 4.7 3.7 5.1 6.8V18c0-3.4-1.8-6.5-4.5-8.3C30.8 6.9 33.8 5 37.1 5m0-3C33 2 29.2 4.1 27 7.6h-.3c-.6-.1-1.2-.1-1.7-.1-5.3 0-10 3.5-11.4 8.6l-.3 1.2c-.4.2-.7.5-1.1.8-2 1.7-3.1 4.2-3.1 6.9 0 4 2.5 7.4 6.3 8.7.9.3 1.9.5 2.9.5h26.2c.8 0 1.6-.1 2.4-.3 4.8-1.1 8.2-5.3 8.2-10.3 0-3.8-2-7.3-5.3-9.1-.2-.1-.3-.2-.5-.3v-.1C49.2 7.4 43.8 2 37.1 2z"/></svg>