<svg xmlns="http://www.w3.org/2000/svg" viewBox="0 0 64 64"><g fill="#ffce31"><circle cx="32" cy="32" r="14"/><path d="M37.6 15.7 32 2l-5.6 13.7c1.8-.3 3.7-.5 5.6-.5 1.9 0 3.8.2 5.6.5M26.4 48.3 32 62l5.6-13.7c-1.8.3-3.7.5-5.6.5-1.9 0-3.8-.2-5.6-.5m21.9-10.7L62 32l-13.7-5.6c.3 1.8.5 3.7.5 5.6 0 1.9-.2 3.8-.5 5.6M15.7 26.4 2 32l13.7 5.6c-.3-1.8-.5-3.7-.5-5.6 0-1.9.2-3.8.5-5.6m31.8-2 5.7-13.6-13.6 5.7c1.5 1.1 3 2.2 4.3 3.6 1.4 1.4 2.5 2.8 3.6 4.3m-31 15.2-5.7 13.6 13.6-5.7c-1.5-1.1-3-2.2-4.3-3.6-1.4-1.4-2.5-2.8-3.6-4.3m23.1 7.9 13.6 5.7-5.7-13.6c-1.1 1.5-2.2 3-3.6 4.3-1.4 1.4-2.8 2.5-4.3 3.6m-15.2-31-13.6-5.7 5.7 13.6c1.1-1.5 2.2-3 3.6-4.3 1.4-1.4 2.8-2.5 4.3-3.6"/></g><path fill="#fff" d="M30 45.8c-.7 0-1.4-.1-2.1-.3-2.7-.9-4.6-3.5-4.6-6.5 0-2 .8-3.8 2.3-5.1l1.2-.9.4-1.6c1.1-3.9 4.7-6.7 8.7-6.7.4 0 .8 0 1.3.1.4.1.7.1 1.1.2l.2-.3c1.6-3 4.7-4.8 8-4.8 5 0 9.1 4.2 9.1 9.3v.9c.4.2.8.3 1.1.6 2.4 1.4 4 4.1 4 7 0 3.8-2.5 7-6.1 7.8-.6.1-1.2.2-1.8.2l-22.8.1"/><path fill="#75d6ff" d="M46.5 21.3c4.3 0 7.8 3.6 7.8 8v.6c-1.8.1-3.4.9-4.7 2 1-.6 2.1-.9 3.3-.9.4 0 .9 0 1.3.1.7.1 1.4.4 2 .8 2 1.2 3.3 3.3 3.3 5.8 0 3.2-2.2 5.8-5.1 6.5-.5.1-1 .2-1.5.2H30c-.6 0-1.1-.1-1.7-.3-2.1-.7-3.7-2.8-3.7-5.2 0-1.6.7-3.1 1.8-4.1.5-.5 1.1-.8 1.7-1 .5-.2 1.1-.3 1.8-.3 1.7 0 3.2.8 4.2 2.1-1.1-2.1-3.2-3.6-5.7-3.9.9-3.3 3.9-5.7 7.4-5.7.4 0 .7 0 1.1.1.7.1 1.4.3 2 .6 2.4 1.1 4.1 3.3 4.5 6 0-3.1-1.5-5.8-3.9-7.4 1.5-2.4 4-4 7-4m0-2.7c-3.6 0-6.9 1.9-8.9 5h-.2c-.5-.1-1-.1-1.5-.1-4.6 0-8.7 3.1-9.9 7.7l-.3 1.1c-.3.2-.6.5-.9.7-1.8 1.4-2.8 3.6-2.8 6 0 3.5 2.2 6.6 5.5 7.7.8.3 1.7.4 2.5.4h22.8c.7 0 1.4-.1 2.1-.2 4.2-1 7.1-4.8 7.1-9.2 0-3.4-1.8-6.5-4.6-8.2-.1-.1-.3-.2-.4-.2v-.1c0-5.8-4.7-10.6-10.5-10.6z"/></svg>