<svg xmlns="http://www.w3.org/2000/svg" viewBox="0 0 64 64"><g fill="#ffce31"><circle cx="32" cy="32" r="14"/><path d="M37.6 15.7 32 2l-5.6 13.7c1.8-.3 3.7-.5 5.6-.5 1.9 0 3.8.2 5.6.5M26.4 48.3 32 62l5.6-13.7c-1.8.3-3.7.5-5.6.5-1.9 0-3.8-.2-5.6-.5m21.9-10.7L62 32l-13.7-5.6c.3 1.8.5 3.7.5 5.6 0 1.9-.2 3.8-.5 5.6M15.7 26.4 2 32l13.7 5.6c-.3-1.8-.5-3.7-.5-5.6 0-1.9.2-3.8.5-5.6m31.8-2 5.7-13.6-13.6 5.7c1.5 1.1 3 2.2 4.3 3.6 1.4 1.4 2.5 2.8 3.6 4.3m-31 15.2-5.7 13.6 13.6-5.7c-1.5-1.1-3-2.2-4.3-3.6-1.4-1.4-2.5-2.8-3.6-4.3m23.1 7.9 13.6 5.7-5.7-13.6c-1.1 1.5-2.2 3-3.6 4.3-1.4 1.4-2.8 2.5-4.3 3.6m-15.2-31-13.6-5.7 5.7 13.6c1.1-1.5 2.2-3 3.6-4.3 1.4-1.4 2.8-2.5 4.3-3.6"/></g></svg>