<svg xmlns="http://www.w3.org/2000/svg" viewBox="0 0 64 64"><path fill="#8cc63e" d="M59.3 48.4c.9 1 .9 2.6 0 3.5l-4.2 4.4c-.9 1-2.5 1-3.4 0l1.3-6.2 6.3-1.7"/><path fill="#64892f" d="M56.6 52.3c5.4-4.5 9.4-11.5-1.7-22.6-8.4-8.4-1-13.8-1-13.8s-25 0 2.7 36.4"/><path fill="#c9ac1c" d="M11.3 7.3c-5.1 4.9 1.1 19.6 21.8 39.8 11.3 11 16.8 9.2 21.8 4.2s6.8-10.6-4.1-22c-20-20.9-34.6-27.1-39.5-22"/><g fill="#ffe62e"><path d="M13.6 6.4c-1.8-1.4-5.3 1.8-2.6 4 1.6 1.4 5.3-1.9 2.6-4"/><path d="M17 9.7c-1.9-1.5-5.4 1.7-2.6 4.1 1.7 1.4 5.4-1.8 2.6-4.1"/><path d="M20.4 13c-1.7-1.3-5.2 1.9-2.6 4 1.5 1.3 5.1-2 2.6-4"/><path d="M23.7 16.3c-1.7-1.3-5.2 1.9-2.6 4 1.5 1.3 5.2-2 2.6-4"/><path d="M27.1 19.6c-1.7-1.3-5.2 1.9-2.6 4 1.5 1.3 5.2-2 2.6-4"/><path d="M30.5 22.9c-1.7-1.3-5.2 1.9-2.6 4 1.5 1.3 5.2-2 2.6-4"/><path d="M33.8 26.5c-1.7-1.3-5.2 1.9-2.6 4 1.5 1.3 5.1-2 2.6-4"/><path d="M37.1 29.7c-1.7-1.3-5.2 1.9-2.6 4 1.5 1.3 5.1-2 2.6-4"/><path d="M40.2 32.8c-1.7-1.3-5.2 1.9-2.6 4 1.5 1.3 5.1-2 2.6-4"/><path d="M43.5 36.1c-1.7-1.3-5.2 1.9-2.6 4 1.5 1.3 5.2-2 2.6-4"/><path d="M46.7 39.6c-1.7-1.3-5.2 1.9-2.6 4 1.5 1.3 5.1-2.1 2.6-4"/><path d="M50.3 42.8c-1.7-1.3-5.2 1.9-2.6 4 1.5 1.3 5.1-2 2.6-4"/><path d="M53.5 46.2c-1.7-1.3-5.2 1.9-2.6 4 1.5 1.3 5.2-2 2.6-4"/><path d="M56.3 49c-1.1-.7-4.5 2.6-2.9 3.7.9.7 4.5-2.7 2.9-3.7m3.2-4.3c.5.9-.8 3.2-1.7 3.6-2.4 1.4.7-5.4 1.7-3.6M32.6 17.5c-1.7-1.3-5.2 1.9-2.6 4 1.5 1.3 5.2-2 2.6-4m5.3-1.7c-1.7-1.3-4.8 1.5-2.3 3.6 1.6 1.4 4.9-1.6 2.3-3.6"/><path d="M41.5 19.3c-1.7-1.3-4.8 1.5-2.3 3.6 1.5 1.3 4.8-1.6 2.3-3.6"/><path d="M45.4 22.5c-1.9-1.5-5.4 1.7-2.6 4.1 1.8 1.5 5.5-1.8 2.6-4.1"/><path d="M49.3 26.4c-1.9-1.5-5.4 1.7-2.6 4.1 1.7 1.5 5.4-1.8 2.6-4.1"/><path d="M52.9 30.4c-1.9-1.5-5.4 1.7-2.6 4.1 1.8 1.4 5.5-1.9 2.6-4.1"/><path d="M56.5 34.9c-1.4-2-4.5-.4-2.5 2.7 1.2 1.8 4.6.3 2.5-2.7M36.1 21c-1.7-1.3-5.2 1.9-2.6 4 1.5 1.3 5.2-2 2.6-4"/><path d="M39.6 24.6c-1.7-1.3-5.2 1.9-2.6 4 1.5 1.2 5.2-2.1 2.6-4"/><path d="M43.1 28.1c-1.7-1.3-5.2 1.9-2.6 4 1.5 1.3 5.2-2 2.6-4"/><path d="M46.6 31.6c-1.7-1.3-5.2 1.9-2.6 4 1.5 1.3 5.2-2 2.6-4m3.6 3.6c-1.7-1.3-5.2 1.9-2.6 4 1.5 1.3 5.2-2 2.6-4"/><path d="M53.6 38.6c-1.7-1.3-5.2 1.9-2.6 4 1.5 1.3 5.2-2 2.6-4"/><path d="M57.1 42.2c-1.7-1.3-5.2 1.9-2.6 4 1.6 1.3 5.2-2 2.6-4m-27.8-28c-1.7-1.3-5.2 1.9-2.6 4 1.5 1.3 5.2-2 2.6-4m5.7 1.3c1.1-1.7-2.1-4.9-4-2.3-1.2 1.5 2.2 4.9 4 2.3"/><path d="M25.8 11c-1.7-1.3-5.2 1.9-2.6 4 1.5 1.3 5.1-2 2.6-4"/><path d="M22.3 8.4c-1.5-1.2-4.7 1.7-2.4 3.6 1.4 1.2 4.7-1.8 2.4-3.6"/><path d="M18.6 6.9c-1.2-1-3.2.7-1.3 2.4 1.1 1 3.2-.8 1.3-2.4"/><path d="M14.4 5.5c-.6.8 1 2.6 2 1.3.6-.7-1.1-2.5-2-1.3m2.1-.2c-.2.4 1.5 1.8 2 .5.2-.8-1.7-1.1-2-.5m2.4.7c-.2.4 1.8 2.1 2.4.6.3-.9-2.1-1.2-2.4-.6m2.8.8c-.3.4 1.3 2.5 2.1 1.1.6-.8-1.7-1.6-2.1-1.1m36.9 35.7c.9-.1 1.5-4.8-1.4-4.2-1.7.4.1 4.3 1.4 4.2M27.7 9.8c-.8.7.8 4.8 3.3 2.4 1.5-1.5-2.1-3.3-3.3-2.4M24.3 8c-.6.5.7 3.9 2.7 1.9 1.2-1.2-1.7-2.7-2.7-1.9m-2.8 20.7c-1.3-1.7 1.9-5.2 4-2.7 1.3 1.6-2 5.3-4 2.7M19.8 34c-1.3-1.7 1.5-4.8 3.6-2.3 1.3 1.6-1.6 4.9-3.6 2.3"/><path d="M25 32.2c-1.3-1.7 1.9-5.2 4-2.7 1.3 1.6-2 5.3-4 2.7"/><path d="M28.5 35.7c-1.3-1.7 1.9-5.2 4-2.7 1.3 1.6-2 5.3-4 2.7M18.2 25.4c-1.3-1.7 1.9-5.2 4-2.7 1.3 1.6-2 5.2-4 2.7m1.3 5.6c-1.7 1.1-4.9-2.1-2.3-4 1.6-1.1 4.9 2.3 2.3 4"/><path d="M15.1 21.8c-1.3-1.7 1.9-5.2 4-2.7 1.2 1.6-2.1 5.3-4 2.7"/><path d="M12.5 18.3c-1.2-1.5 1.7-4.7 3.6-2.4 1.2 1.4-1.8 4.7-3.6 2.4"/><path d="M11 14.6c-1-1.2.7-3.3 2.4-1.3.9 1.1-.9 3.2-2.4 1.3"/><path d="M9.6 10.4c.8-.6 2.5 1 1.3 2-.7.5-2.5-1.1-1.3-2m-.2 2.1c.4-.2 1.8 1.5.5 2-.8.2-1.1-1.8-.5-2m.7 2.4c.4-.2 2.1 1.8.6 2.4-.9.2-1.2-2.1-.6-2.4m.8 2.8c.4-.3 2.5 1.3 1.1 2.2-.8.5-1.7-1.8-1.1-2.2m3 6c.7-.8 4.8.8 2.4 3.3-1.5 1.5-3.4-2.1-2.4-3.3M12 20.4c.5-.6 3.9.7 1.9 2.7-1.2 1.2-2.6-1.8-1.9-2.7"/></g><path fill="#8cc63e" d="M2 30.5s22.3 8.2 30.5 20.9c5.4 8.3 16.1 11.4 22.6.7C35.5 25.7 2 30.5 2 30.5z"/></svg>