<svg xmlns="http://www.w3.org/2000/svg" viewBox="0 0 64 64"><g fill="#83bf4f"><path d="M15.2 31.4c0 1.7-1.4 3-3 3H10c-1.7 0-3-1.3-3-3V18.1c0-5.9 8.2-5.9 8.2 0v13.3z"/><path d="M23.4 26.3c1.7 0 3 1.3 3 3v2.1c0 1.7-1.4 3-3 3H10c-1.7 0-3-1.3-3-3v-2.1c0-1.7 1.4-3 3-3h13.4"/></g><g fill="#699635"><path d="M26.9 28.5v-1.2h-11c-.2 0-1.7-.1-1.7-1.8v-7c0-4.3-3-4.9-3-4.9s1.9.8 1.9 4.9v7.7c0 2.2 1.8 2.2 2.2 2.2l11.6.1"/><path d="M13.4 29.7c-.2 0-1.8-.2-1.8-2.8v-8.4c0-3.3-.6-4.9-.6-4.9s-.6 1.5-.6 4.9v9.1c0 3.3 1.8 3.3 2.2 3.3H27v-1.2H13.4"/><path d="M9.2 29.4V18.5c0-4.1 1.9-4.9 1.9-4.9s-3 .6-3 4.9V30c0 3.3 2.8 3.3 3.3 3.3H27v-1.2H12c-.3.1-2.8-.2-2.8-2.7"/></g><g fill="#83bf4f"><path d="M46.4 47.2c0 2.1 1.8 3.9 3.9 3.9H53c2.2 0 3.9-1.7 3.9-3.9V30c0-7.6-10.6-7.6-10.6 0 .1 0 .1 17.2.1 17.2"/><path d="M35.8 40.6c-2.2 0-3.9 1.7-3.9 3.9v2.7c0 2.1 1.8 3.9 3.9 3.9h17.3c2.2 0 3.9-1.7 3.9-3.9v-2.7c0-2.1-1.8-3.9-3.9-3.9H35.8"/></g><g fill="#699635"><path d="M31.3 43.5V42h14.2c.3 0 2.3-.1 2.3-2.3v-9.1c0-5.5 3.9-6.3 3.9-6.3s-2.4 1-2.4 6.3v10c0 2.9-2.3 2.9-2.9 2.9H31.3"/><path d="M48.7 45.1c.3 0 2.3-.3 2.3-3.6V30.6c0-4.3.8-6.3.8-6.3s.8 2 .8 6.3v11.8c0 4.2-2.3 4.2-2.9 4.2H31.2v-1.5h17.5"/><path d="M54.1 44.6v-14c0-5.3-2.4-6.3-2.4-6.3s3.9.8 3.9 6.3v14.9c0 4.2-3.7 4.2-4.2 4.2H31.2v-1.5h19.4c.3 0 3.5-.4 3.5-3.6"/></g><path fill="#83bf4f" d="M39.5 64H22.8V10c0-12 16.7-12 16.7 0v54z"/><g fill="#699635"><path d="M37.4 64V11c0-8.7-6.2-10-6.2-10S35 2.6 35 11v53h2.4z"/><path d="M32.3 64V11c0-6.8-1.2-10-1.2-10S30 4.2 30 11v53h2.3z"/><path d="M27.3 64V11c0-8.4 3.8-10 3.8-10s-6.2 1.3-6.2 10v53h2.4"/></g></svg>