<svg xmlns="http://www.w3.org/2000/svg" viewBox="0 0 64 64"><path fill="#83bf4f" d="M39.4 49.5C32.7 54.7 30.9 64 30.9 64h2.4c9-13.1 26.5-22.2 26.5-22.2S48 42.9 39.4 49.5z"/><path fill="#75a843" d="M30.5 1 33 64h-5z"/><path fill="#83bf4f" d="M23.9 50.7c5.8 6.2 6.5 13.3 6.5 13.3H28C19 48.7 4.2 43.4 4.2 43.4s12.8 0 19.7 7.3"/><g fill="#f4bc58"><path d="M42.8 23.6c-5.3-1.4-7.9-.2-8.5 2s1.1 4.6 6.4 6 12.8-.8 12.8-.8-5.4-5.8-10.7-7.2m-24.3 2.1c5.3 1.4 7.9.2 8.5-2 .6-2.2-1.1-4.6-6.4-6-5.3-1.4-12.8.8-12.8.8s5.4 5.7 10.7 7.2m11.2-13.2c-1.4 5.3-.2 7.9 2 8.5 2.2.6 4.6-1.1 6-6.4 1.3-5.3-.9-12.8-.9-12.8s-5.7 5.4-7.1 10.7m2 24.3c1.4-5.3.2-7.9-2-8.5-2.2-.6-4.6 1.1-6 6.4-1.4 5.3.8 12.8.8 12.8s5.8-5.4 7.2-10.7"/><path d="M38.5 15.3c-4.8 2.7-5.7 5.5-4.6 7.4 1.1 2 4 2.5 8.7-.3 4.8-2.7 8.5-9.7 8.5-9.7s-7.8-.1-12.6 2.6M22.8 33.9c4.8-2.7 5.7-5.5 4.6-7.4-1.1-2-4-2.5-8.7.3s-8.5 9.7-8.5 9.7 7.9.2 12.6-2.6m-1.4-17.1c2.7 4.8 5.5 5.7 7.4 4.6 2-1.1 2.5-4-.3-8.7-2.7-4.8-9.7-8.5-9.7-8.5s-.2 7.8 2.6 12.6M40 32.5c-2.7-4.8-5.5-5.7-7.4-4.6-2 1.1-2.5 4 .3 8.7 2.7 4.8 9.7 8.5 9.7 8.5s.1-7.9-2.6-12.6"/></g><g fill="#fc6"><path d="M34.8 13.2c0 5.5-1.8 7.7-4.1 7.7s-4.1-2.2-4.1-7.7C26.5 7.7 30.7 1 30.7 1s4.1 6.7 4.1 12.2m-8.3 22.9c0-5.5 1.8-7.7 4.1-7.7s4.1 2.2 4.1 7.7-4.1 12.2-4.1 12.2-4.1-6.7-4.1-12.2m15.6-7.3c-5.5 0-7.7-1.8-7.7-4.1s2.2-4.1 7.7-4.1 12.2 4.1 12.2 4.1-6.7 4.1-12.2 4.1m-22.9-8.3c5.5 0 7.7 1.8 7.7 4.1s-2.2 4.1-7.7 4.1S7 24.6 7 24.6s6.7-4.1 12.2-4.1"/><path d="M41.7 19.4c-3.9 3.9-6.8 4.1-8.4 2.5s-1.4-4.5 2.5-8.4c3.9-3.9 11.5-5.7 11.5-5.7s-1.7 7.8-5.6 11.6m-22 10.4c3.9-3.9 6.8-4.1 8.4-2.5 1.6 1.6 1.4 4.5-2.5 8.4-4 3.8-11.6 5.6-11.6 5.6s1.8-7.6 5.7-11.5m16.2 5.8c-3.9-3.9-4.1-6.8-2.5-8.4 1.6-1.6 4.5-1.4 8.4 2.5 3.9 3.9 5.7 11.5 5.7 11.5s-7.8-1.7-11.6-5.6m-10.4-22c3.9 3.9 4.1 6.8 2.5 8.4-1.6 1.6-4.5 1.4-8.4-2.5C15.8 15.6 14 7.9 14 7.9s7.6 1.8 11.5 5.7"/></g><g fill="#ffd68d"><path d="M31.7 12.5c1.4 5.3.2 7.9-2 8.5-2.2.6-4.6-1.1-6-6.4-1.4-5.3.8-12.8.8-12.8s5.8 5.4 7.2 10.7m-2 24.3c-1.4-5.3-.2-7.9 2-8.5s4.6 1.1 6 6.4c1.4 5.3-.8 12.8-.8 12.8s-5.8-5.4-7.2-10.7m13.1-11.1c-5.3 1.4-7.9.2-8.5-2-.6-2.2 1.1-4.6 6.4-6 5.3-1.4 12.8.8 12.8.8s-5.4 5.7-10.7 7.2m-24.3-2.1c5.3-1.4 7.9-.2 8.5 2 .6 2.2-1.1 4.6-6.4 6-5.2 1.4-12.7-.9-12.7-.9s5.3-5.7 10.6-7.1"/><path d="M40 16.8c-2.7 4.8-5.5 5.7-7.4 4.6-2-1.1-2.5-4 .3-8.7 2.7-4.8 9.7-8.5 9.7-8.5s.1 7.8-2.6 12.6M21.4 32.5c2.7-4.8 5.5-5.7 7.4-4.6 2 1.1 2.5 4-.3 8.7-2.7 4.8-9.7 8.5-9.7 8.5s-.2-7.9 2.6-12.6m17.1 1.4c-4.8-2.7-5.8-5.5-4.6-7.4s4-2.5 8.7.3c4.8 2.7 8.5 9.7 8.5 9.7s-7.8.2-12.6-2.6M22.8 15.3c4.8 2.7 5.7 5.5 4.6 7.4-1.1 2-4 2.5-8.7-.3s-8.5-9.7-8.5-9.7 7.9-.1 12.6 2.6"/></g><circle cx="30.7" cy="24.4" r="13.2" fill="#947151"/><circle cx="30.7" cy="24.4" r="10" fill="#3e4347"/></svg>