<svg xmlns="http://www.w3.org/2000/svg" viewBox="0 0 64 64"><path fill="#947151" d="M44.1 64h-10l-5.6-30.8h6.4z"/><path d="m33.5 60.7.4 2.4 6.1-1.3zM32.3 54l.4 2.4 6.1-1.2zm-1.2-6.5.4 2.2 5.7-1.1zm-1.2-6.6.4 2.2 5.5-1.1zm-1.2-6.5.4 2 5.1-1zm14.1 25.3-.6-2.3-5.6 1.1zm-2-6.7-.6-2.1-5.2 1zm-2-6.7-.6-2-5 1zm-2-6.6-.6-2.1-5.2 1.1z" fill="#6d533e"/><path fill="#83bf4f" d="M32 28.6c11.2-2.8 26.9-.1 19.1 12.2l-.5-3-2.8 2.4.8-3.7-2.7 2.3.5-3.5-3 2.2.7-3.9-3.4 2.2.5-3.4-3.3 2.1.4-3-2.9 1.4v-2.4l-2 .7-1.4-2.6"/><g fill="#75a843"><path d="M31.8 31.3C30.4 17.8 36.5-2 50.3 5.7l-3.8 1.1L49 9.9l-4.5-.4 2.3 3-4.3-.1 2.2 3.3-4.7-.2 2.2 3.9-4.2-.1 2 3.8h-3.6l1.2 3.3-2.9.3.6 2.3-3.5 2.3"/><path d="M32.6 28.9c-2.3-13.6-14-30.6-25.7-18.2l4.1-.3-1.6 3.9 4.4-1.9-1.5 3.6 4.3-1.6-1.3 4 4.7-1.9-1.1 4.5 4.1-1.6-1 4.4 3.6-1.3-.3 3.7 3-.7.1 2.4 4.2 1"/></g><g fill="#83bf4f"><path d="M33.2 31C24.9 19.5 6.7 8.5 2 24.5l3.6-1.9.3 4.2 3-3.5.4 4 3.1-3.2.7 4.2 3.3-3.6 1.1 4.6 3-3.1 1.2 4.4 2.6-2.6 1.5 3.5 2.3-1.9 1.2 2.2 3.9-.8"/><path d="M33.7 29.2c-12.2-2.4-29.6 1.3-21.7 14l.7-3.2 2.9 2.4-.6-3.9 2.8 2.3-.3-3.8 3.1 2.2-.5-4.1 3.6 2.2-.4-3.6 3.5 2-.3-3.1 3.1 1.3.1-2.5 2.1.7 1.9-2.9"/><path d="M30.8 29.1C39 18.5 57.2 8.2 62 23.1l-3.6-1.8-.3 3.9-3-3.2-.4 3.7-3.1-2.9-.6 3.8-3.3-3.3-1.1 4.2-3-2.9-1.2 4-2.6-2.4-1.5 3.2-2.3-1.7-1.2 2-4-.6"/></g><path fill="#68584d" d="M36.8 32.6c1.1 1.3 1.1 3.2 0 4.2-1.2 1-3 .7-4.2-.7-1.1-1.3-1.1-3.2 0-4.2 1.2-1 3.1-.7 4.2.7"/><path fill="#726256" d="M37.3 26.8c1.7.9 2.4 2.7 1.7 4.2-.8 1.4-2.7 1.9-4.4 1-1.7-.9-2.4-2.7-1.7-4.2.7-1.4 2.7-1.8 4.4-1"/><path fill="#847266" d="M33.2 33.9c-1.2 2.1-3.8 3-5.6 2-1.9-1.1-2.4-3.7-1.1-5.8 1.2-2.1 3.8-3 5.6-2 1.8 1.1 2.3 3.7 1.1 5.8"/></svg>