<svg xmlns="http://www.w3.org/2000/svg" viewBox="0 0 64 64"><path fill="#75a843" d="M25.1 2c1.2 2.3 2.1 4.7 3 7.1.9 2.4 1.6 4.9 2.2 7.3 1.2 5 2 10 2.3 15.2.3 5.1.1 10.3-.7 15.4-.7 5.1-2 10.2-3.8 15.1l-3.4-1.2c4-9.1 6.1-19.1 6.1-29.2 0-5-.4-10.1-1.4-15-.5-2.5-1-5-1.8-7.4-.6-2.5-1.4-5-2.5-7.3"/><path d="M35.6 42c-5.2 2.2-4.8 7.3-4.8 7.3s3.9 4.4 9 2.2c3.6-1.5 8.1-8.5 8.1-8.5s-8.7-2.5-12.3-1m-2.8-17.3c-3.9 3-.6 6.5-.6 6.5s5.9 2.2 9.8-.7c2.7-2 2.4-8.2 2.4-8.2s-9 .3-11.6 2.4m-2-12.8c-2.9 2.2-.4 4.9-.4 4.9s4.4 1.7 7.3-.6c2-1.5 1.8-6.2 1.8-6.2s-6.7.3-8.7 1.9m-1.6 21.4c4.9 2.2 2.2 6.2 2.2 6.2s-5.8 3.1-10.8.9c-3.4-1.5-4.6-7.5-4.6-7.5s9.8-1.2 13.2.4m1.3-15c3 2.9-.1 5.2-.1 5.2s-5.1.9-8.1-2c-2.1-2-1.3-6.8-1.3-6.8s7.5 1.6 9.5 3.6m-.4-11.7c1 2.6-1.8 3.4-1.8 3.4s-3.6-.6-4.6-3.2C23 5 25.1 2 25.1 2s4.3 2.8 5 4.6" fill="#83bf4f"/><path d="M31.4 39.4c-.5-.5-1.1-.8-1.7-1.1-.6-.3-1.2-.6-1.9-.9-1.3-.6-2.6-1.1-3.9-1.6L20 34.3l-2-.7-2-.8c1.4.3 2.8.7 4.1 1.1 1.4.4 2.7.9 4 1.4 1.3.5 2.6 1.1 3.9 1.8.6.3 1.2.7 1.8 1.1l.9.6c.2.1.5.3.7.6m-.9-16c-.3-.5-.5-1-.8-1.4-.3-.5-.5-.9-.9-1.4-.7-.9-1.4-1.6-2.3-2.3-1.7-1.4-3.6-2.5-5.5-3.6 2.1.7 4.2 1.8 5.9 3.2.9.7 1.7 1.5 2.3 2.5.3.5.6 1 .8 1.5.2.5.3 1 .5 1.5m1.7 7.8c.3-.6.6-1.1 1-1.7l1.2-1.5c.9-1 1.8-1.8 2.9-2.6 1.1-.8 2.2-1.4 3.4-2 .6-.3 1.2-.5 1.8-.7.6-.2 1.3-.4 1.9-.5-1.2.5-2.4 1-3.5 1.6-1.1.6-2.2 1.3-3.3 2-1 .7-2 1.6-2.9 2.4-.9 1-1.8 2-2.5 3m-1.9-14.4c.3-.9.8-1.8 1.4-2.6.6-.8 1.3-1.5 2.1-2.1.8-.6 1.7-1.1 2.7-1.5 1-.4 2-.6 3-.6-1.9.5-3.7 1.3-5.3 2.5-.8.6-1.5 1.2-2.1 1.9-.6.8-1.2 1.5-1.8 2.4m-2-6.8c-.4-1.4-.7-2.8-1.2-4.2-.5-1.4-1.1-2.6-2-3.8.6.4 1.1 1 1.6 1.6.4.6.7 1.3 1 2 .2.7.4 1.4.5 2.2.1.7.1 1.5.1 2.2m2.6 39.4c.5-.6 1-1.1 1.6-1.6.6-.5 1.3-.9 1.9-1.3 1.3-.8 2.8-1.4 4.3-1.9s3-.8 4.6-1c.8-.1 1.6-.2 2.3-.3.8-.1 1.6-.1 2.3-.1-.8.1-1.5.2-2.3.4-.8.1-1.5.3-2.3.4-1.5.3-3 .7-4.5 1.1-1.5.5-2.9 1-4.3 1.7-1.2.7-2.5 1.5-3.6 2.6" fill="#75a843"/></svg>