<svg xmlns="http://www.w3.org/2000/svg" viewBox="0 0 64 64"><path fill="#e84d88" d="M54.7 13.7c-3.2-3.1-7-5.8-10.7-7.8-.2 5.6-5.5 10-12 10s-11.8-4.5-12-10c-3.8 2-7.6 4.7-10.7 7.8 2.1 3.3 1.1 8.8-2.3 12.8-1.5 1.7-3.2 2.9-4.9 3.4C3 47.4 16 46.7 32 46.7c16 0 29 .7 29.9-16.8-1.7-.6-3.4-1.7-4.9-3.4-3.4-4-4.4-9.6-2.3-12.8"/><path d="M32 15.9c6.5 0 11.8-4.5 12-10C39.4 3.4 35 2 32 2s-7.4 1.4-12 3.9c.2 5.5 5.5 10 12 10M9.3 13.7C5 17.8 2 22.8 2 27.9c0 .7 0 1.4.1 2.1 1.7-.6 3.4-1.7 4.9-3.4 3.4-4.1 4.4-9.7 2.3-12.9m45.4 0c-2.1 3.3-1.1 8.8 2.3 12.8 1.5 1.7 3.2 2.9 4.9 3.4 0-.7.1-1.3.1-2.1 0-5-3-10-7.3-14.1" fill="#fdeeff"/><path fill="#a52355" d="M50 41.5c0 4.3-8.1 5.2-18 5.2s-18-.9-18-5.2c0-4.2 8.6-8.1 18-8.1 9.4.1 18 3.9 18 8.1"/><path fill="#e2ccaf" d="M47 64H17s2.8-8.2 3.7-14.9c1-7.6 1.5-13.9 11.3-13.9s10.3 6.3 11.3 13.9C44.2 55.8 47 64 47 64z"/></svg>