<svg xmlns="http://www.w3.org/2000/svg" viewBox="0 0 64 64"><path fill="#628c2c" d="m30.2 11.5.2-1.2s3.6 2.1 7.8.7l.2.8c-4.5 1.5-8.1-.2-8.2-.3"/><ellipse cx="27.9" cy="38.1" fill="#f29a2e" rx="25.9" ry="23.9"/><path fill="#7fb539" d="M22 18.9c.2-1.2 4.7-.6 4.7-.6s-.2-3 .6-3.2c.7-.1 2 2.9 2 2.9s3.6-1.4 4.1-.5c.4.8-2.5 2.6-2.5 2.6s3.8 3.1 3 4.1C33.1 25.3 29 22 29 22s-2.6 4.4-3.7 3.8c-1.1-.6.9-5 .9-5s-4.4-.7-4.2-1.9"/><path d="m18.6 29.1-.8.8.8.8.8-.8-.8-.8m-6-.5-.8.8.8.8.8-.8-.8-.8m-4.8 0-.8.8.8.8.7-.8-.7-.8M22 32.4l-.8.8.8.8.7-.8-.7-.8m-3.4 4.1-.8.8.8.8.8-.8-.8-.8m-5.2 0-.8.8.8.8.7-.8-.7-.8m-6 .5-.8.8.8.8.8-.8-.8-.8m8.6-4.4-.8.8.8.8.8-.8-.8-.8m-5.2 0-.8.8.8.8.7-.8-.7-.8m-5.3 0-.8.8.8.8.8-.8-.8-.8m15.9-7-.8.8.8.8.8-.8-.8-.8m-5.8 0-.8.8.8.8.8-.8-.8-.8m-5.6-.8-.8.8.8.8.8-.8-.8-.8m9.2-2.3-.8.8.8.8.8-.8-.8-.8m-2.2-3-.8.8.8.8.8-.8-.8-.8m-3.6 2.2-.8.8.8.8.7-.8-.7-.8M16 40.5l-.8.8.8.8.8-.8-.8-.8m-5.5 0-.8.8.8.8.7-.8-.7-.8" fill="#ffc44a"/><path fill="#8cc63e" d="M47.4 6.2c6.5 5.4 14.6 3.9 14.6 3.9s-13.1 16.5-24 9.7c-10.2-6.3 0-21.4 9.4-13.6"/><path fill="#628c2c" d="m30.5 2.8-1.9.9c2.9 9.3-.7 14.5-1.5 15.4-1.2 1.2 1.6 2.3 2.9.6.2-.3 4-5.9.5-16.9"/><ellipse cx="29.6" cy="3.3" fill="#8cc63e" rx="1" ry="1.3"/><path fill="#7fb539" d="M33.8 11.8c1-.7 2.1-1.3 3.3-1.7 1.2-.4 2.4-.6 3.7-.6 2.5 0 4.9.7 7.2 1.3 2.3.6 4.7 1 7 .9 2.4-.1 4.7-.8 7-1.7-1 .6-2.2 1.1-3.3 1.6-1.2.4-2.4.7-3.6.8-2.5.3-5-.1-7.3-.7-2.4-.6-4.6-1.4-7-1.5-2.4-.1-4.8.5-7 1.6"/></svg>