<svg xmlns="http://www.w3.org/2000/svg" viewBox="0 0 64 64"><circle cx="32" cy="31" fill="#699635" r="2.8"/><path fill="#7bb246" d="M3.8 40c-5.9 9.8 4.3 12.8 8.8 9.5-3.4 5-.1 14.4 9.7 8.7 10.9-6.4 7.9-24.5 8.5-26.6-1.8.3-20.7-2.1-27 8.4"/><path fill="#699635" d="M12.6 49.5c1.4-1.6 2.9-3.1 4.3-4.7l4.5-4.5c1.5-1.5 3-3 4.6-4.4l2.3-2.2 2.4-2.1-2.1 2.4-2.2 2.3-4.5 4.5c-1.5 1.5-3 3-4.6 4.4-1.5 1.5-3 2.9-4.7 4.3"/><path fill="#7bb246" d="M60.2 22c5.9-9.8-4.3-12.8-8.8-9.5 3.4-5 .1-14.4-9.7-8.7-10.9 6.4-7.9 24.5-8.5 26.6 1.8-.3 20.7 2.1 27-8.4"/><path fill="#699635" d="M51.4 12.5c-1.4 1.6-2.9 3.1-4.3 4.7l-4.5 4.5c-1.5 1.5-3 3-4.6 4.4l-2.3 2.2-2.4 2.1 2.1-2.4 2.2-2.3 4.5-4.5c1.5-1.5 3-3 4.6-4.4 1.5-1.5 3-2.9 4.7-4.3"/><path fill="#83bf4f" d="M22.3 3.8c-10-5.8-13 4.2-9.7 8.7-5-3.3-14.6-.1-8.8 9.5 6.5 10.7 24.9 7.8 27 8.3-.3-1.7 2.2-20.3-8.5-26.5"/><path fill="#699635" d="M12.6 12.5c1.6 1.4 3.2 2.8 4.7 4.2 1.6 1.4 3.1 2.9 4.6 4.4l4.5 4.5 2.2 2.3 2.1 2.4-2.4-2.1-2.3-2.1c-1.6-1.4-3.1-2.9-4.6-4.4l-4.5-4.5c-1.4-1.6-2.9-3.1-4.3-4.7"/><path fill="#83bf4f" d="M41.7 58.2c10 5.8 13-4.2 9.7-8.7 5.1 3.3 14.6.1 8.8-9.5-6.5-10.7-24.9-7.8-27-8.3.3 1.7-2.2 20.3 8.5 26.5"/><path d="M51.4 49.5c-1.6-1.4-3.2-2.8-4.7-4.2-1.6-1.4-3.1-2.9-4.6-4.4l-4.5-4.5-2.2-2.4-2.1-2.4 2.4 2.1 2.3 2.2c1.6 1.4 3.1 2.9 4.6 4.4l4.5 4.5c1.4 1.6 2.9 3.1 4.3 4.7M32 36.8l2.5 22.7c.1 1.3-.9 2.4-2.2 2.5-1.4.1-2.6-.8-2.8-2.1v-.5L32 36.8" fill="#699635"/></svg>