<svg xmlns="http://www.w3.org/2000/svg" viewBox="0 0 64 64"><path fill="#f55" d="M2.1 50.3c16.2 15.6 43.6 15.6 59.8-.1L32 2 2.1 50.3z"/><path fill="#ceff80" d="m6 44-1.1 1.6c11.8 10.4 36.8 14.5 54.3-.1L58 44C42.9 55.5 21.1 55.5 6 44z"/><path fill="#8cc63e" d="M4.9 45.6 2 50.2c16.2 15.7 43.7 15.7 60-.1l-2.8-4.6C43.7 58 20.3 58 4.9 45.6z"/><path d="M16 38.5c0-1.3 2.4-4.6 2.4-4.6s2.5 3.4 2.5 4.7c0 1.3-1 2.3-2.4 2.3S16 39.8 16 38.5m12.4 4.6c0-1.3 2.4-4.6 2.4-4.6s2.5 3.4 2.5 4.7c0 1.3-1 2.3-2.4 2.3s-2.5-1.1-2.5-2.4m8.1-11.6c0-1.3 2.4-4.6 2.4-4.6s2.5 3.4 2.5 4.7c0 1.3-1 2.3-2.4 2.3s-2.5-1.1-2.5-2.4m8.2 11c0-1.3 2.4-4.6 2.4-4.6s2.5 3.4 2.5 4.7c0 1.3-1 2.3-2.4 2.3-1.4-.1-2.5-1.1-2.5-2.4M27.2 20.9c0-1.3 2.4-4.6 2.4-4.6S32 19.7 32 21c0 1.3-1 2.3-2.4 2.3-1.3-.1-2.4-1.1-2.4-2.4" fill="#3e4347"/><path d="M28.2 54.7v7.1c2.5.2 5 .2 7.5 0v-7.1c-2.4.2-5 .2-7.5 0m-17.6-5.3-2.2 5.8c2.1 1.4 4.4 2.5 6.7 3.5l2.3-6.2c-2.3-.8-4.6-1.9-6.8-3.1m42.8 0c-2.2 1.2-4.5 2.3-6.9 3.1l2.3 6.2c2.3-1 4.6-2.1 6.7-3.5l-2.1-5.8" fill="#64892f"/></svg>