<svg xmlns="http://www.w3.org/2000/svg" viewBox="0 0 64 64"><path fill="#f5f0ae" d="M61.3 29.2C57.8 14.7 41.8 5.4 25.6 8.6 9.4 11.8-.8 26.2 2.7 40.8c3.5 14.6 19.5 23.8 35.7 20.6 16.2-3.2 26.4-17.6 22.9-32.2"/><path d="M29.3 8.3c-.2-.1-.3-.1-.5-.2-1.1.1-2.1.3-3.2.5s-2.1.5-3.1.8c-.1.1-.3.2-.4.4 1.3.5 2.7 1.1 4.2 1.8 1-1.2 2.1-2.3 3-3.3m-5.9 8.5 4.8 2.7 3.2-4.3-4.8-2.5zm1.9 9 5.3 3.3 3.2-5-5.2-3.1zm2.4 10.1 5.3 3.4 3.3-5.1-5.3-3.5zm11 8.3-5.3-3.3-3.2 5 5.2 3.2zm1.9 9.1-4.8-2.8-3.2 4.3 4.8 2.5zm-5.9 8.4c.2.1.3.1.5.2 1.1-.1 2.2-.3 3.2-.5s2.1-.5 3.2-.8c.1-.1.2-.2.4-.3-1.3-.5-2.7-1.1-4.2-1.8-1.1 1.1-2.1 2.2-3.1 3.2m-1.1-47.6 2.8-3.7-4.7-2-2.9 3.3zM31 19.7l5.2 3.2 2.9-4.5-5.1-3zm10.8 8.1-5.2-3.3-3.2 4.9 5.3 3.4zm2.5 10.1-5.2-3.4-3.2 5.1 5.2 3.3zm1.9 9.6-4.8-3-3.2 4.8 4.8 2.8zm-3 5.9-3.3 4 4.2 1.9 3.4-3.6zM38.9 8.7c-1.4-.3-2.8-.5-4.2-.6 1.2.5 2.3 1 3.5 1.5.2-.3.5-.6.7-.9m-3 5.7 5.1 2.9 2.6-3.9-5-2.7zm2.7 8.9 5.1 3.3 2.8-4.6-5.1-3.2zm5.6 4.9-3.1 5 5.1 3.4 2.9-5zm7 13.2-4.7-3.2-3.1 5 4.7 3zm1.3 8.9-4.1-2.6-3.3 4.5 4.2 2.4zm-5.6 8.1c1.2-.6 2.4-1.4 3.5-2.1-.3-.2-.7-.4-1.1-.5-.7.9-1.5 1.8-2.4 2.6m-.5-47.1c-1.7-.8-3.4-1.5-5.2-2-.1.2-.3.4-.4.6 1.6.8 3.3 1.7 4.9 2.7.1-.5.4-.9.7-1.3m-.3 2.5-2.5 3.9 4.9 3.3 2.3-4.1zm7.5 12L49 22.5 46.4 27l4.8 3.4zm-2 6.2-2.8 4.9 4.5 3.1 2.6-4.8zm5.9 12.4-3.9-2.8-3 4.8 4 2.6zm-5.9 10.2c.2.1.4.2.7.4 1.4-1.2 2.7-2.4 3.8-3.8-.4-.3-.8-.5-1.3-.8-1.1 1.4-2.1 2.8-3.2 4.2m1-39.2c-1.4-1.2-2.9-2.2-4.5-3.2-.2.3-.3.5-.5.8 1.6 1 3.1 2 4.6 3.1.2-.2.3-.4.4-.7m2.5 9.5 1.8-4-4.2-3.4-2.1 4zm4.2 4.7-3.8-3.3-2.3 4.5 4.2 3.3zm-4.1 10.7 3.8 2.8 2.2-4.6-3.5-2.9zm1.2 8.8c.3.2.5.3.8.5 1-1.4 1.9-3 2.6-4.6-.2-.2-.4-.3-.7-.5-.8 1.6-1.7 3.1-2.7 4.6m4.5-21.2c-.6-2-1.5-3.9-2.5-5.7-.4 1-.8 2-1.3 3.1 1.3 1.1 2.5 2.2 3.6 3.3.1-.2.1-.5.2-.7m.7 2.7L61 30c-.5 1.4-1.1 2.8-1.7 4.3.9.8 1.8 1.6 2.6 2.3.2-1.9.1-3.9-.3-6m-40.8-14 3.2-4-4.1-1.9-3.4 3.6zm-3 5.9 4.8 3 3.2-4.8-4.8-2.8zm1.9 9.6 5.2 3.4 3.2-5.1-5.2-3.3zm10.9 8.5-5.3-3.5-3.1 5 5.2 3.4zm2.4 9.6-5.2-3.1-2.9 4.5 5.1 3zm-2.7 5.7-2.8 3.6 4.8 2.1 2.9-3.3zM17 11.6c-1.2.6-2.4 1.3-3.4 2.1.3.2.7.3 1 .5.8-.9 1.6-1.8 2.4-2.6m-5.5 8.1 4.1 2.6 3.3-4.6-4.2-2.3zm1.3 8.9 4.6 3.2 3.2-5-4.7-3.1zm7 13.1 3.1-4.9-5.1-3.4-2.9 4.9zm5.6 5-5.1-3.4-2.8 4.6 5.1 3.3zm2.7 8.9-5.1-3-2.6 4 5 2.6zm-3 5.7c1.4.3 2.9.5 4.4.6-1.2-.5-2.4-1-3.6-1.6-.3.4-.6.7-.8 1M12.4 15.4c-.2-.1-.4-.2-.6-.4-1.4 1.2-2.7 2.4-3.8 3.8.4.3.8.5 1.3.8 1-1.4 2-2.8 3.1-4.2M6.5 25.6l3.9 2.8 3-4.8-4-2.6zM12.4 38l2.8-4.9-4.5-3.2-2.6 4.8zm5.2 5-4.8-3.4-2.4 4.5 4.6 3.4zm.3 13.2 2.5-3.9-5-3.3-2.2 4zm-.3 2.5c1.7.8 3.4 1.5 5.2 2 .2-.2.3-.4.5-.6-1.6-.8-3.3-1.7-4.9-2.7-.3.5-.5.9-.8 1.3m-10-37.8c-.3-.2-.5-.3-.8-.5-1 1.4-1.9 3-2.6 4.6.2.2.4.3.7.5.8-1.6 1.7-3.1 2.7-4.6m1.2 8.8L5 26.8l-2.2 4.7 3.5 2.9zM4.7 40.3l3.8 3.3 2.3-4.5-4.2-3.2zm4.2 4.8-1.8 4 4.1 3.4 2.2-4zm2.4 9.5c1.4 1.2 2.9 2.3 4.5 3.2.2-.3.3-.5.5-.8-1.6-1-3.1-2-4.6-3.1-.1.2-.2.4-.4.7M2.1 33.3c-.1 2 0 4 .3 6.1l.6.6c.5-1.4 1.1-2.8 1.7-4.3-1-.9-1.8-1.7-2.6-2.4m1 8.8c.6 2 1.5 3.9 2.5 5.7.4-1 .8-2 1.3-3.1-1.3-1.1-2.5-2.2-3.6-3.3-.1.2-.2.4-.2.7" fill="#d0d18b"/><path fill="#8cc63e" d="M35.6 11.8H24.3c.6-.7 2.7-1.7 6.2-1.7 3.1 0 5.1.8 5.1 1.7"/><g fill="#64892f"><path d="M35.6 11.8c.1 1-2.5 2.5-5.7 2.8-3.2.3-5.9-.8-6-1.7-.1-1 1.4-3 6.1-1.5 3.1 1 5.6-.5 5.6.4"/><path d="M29.3 12.5C28.7 9 28.1 8 27.4 6.7c-.2-.4-.5-.9-.8-1.5l1.9-1 .7 1.4c.8 1.5 1.5 2.6 2.1 6.5l-2 .4"/></g><g fill="#8cc63e"><path d="m26.6 5.5 2.2.2c.8 1.5-.2 3 .5 6.9 0-.1-2-5.8-2.7-7.1"/><path d="M32 6.4c-2.5.2-5-.3-7.7-.9-3-.7-6.8-1.3-10.6-1.3-1.6 0-1.7-2.2-.1-2.2 4.9 0 8 .6 11.1 1.3 3.7.8 6.8 1.6 9.9.2l.7 2c-1.1.6-2.2.8-3.3.9"/></g><ellipse cx="34.9" cy="4.6" fill="#ceff80" rx=".7" ry="1.1" transform="rotate(-19.78 34.927 4.607)"/></svg>