<svg xmlns="http://www.w3.org/2000/svg" viewBox="0 0 64 64"><path d="m26.5 42.6-5.7-5.2s-6.3 6.4-8.1 6.7c-2 .2-5.9-2.1-9.1 1.1-2.2 2.2-2.2 5.8 0 8 1.5 1.5 3.8 2 5.7 1.4-.6 1.9-.1 4.2 1.4 5.7 2.2 2.2 5.8 2.2 8 0 3.2-3.2.8-7.1 1.1-9.1 0-2.2 6.7-8.6 6.7-8.6m16.1-16.1-5.2-5.7s6.4-6.3 6.7-8.1c.2-2-2.1-5.9 1.1-9.1 2.2-2.2 5.8-2.2 8 0 1.5 1.5 2 3.8 1.4 5.7 1.9-.6 4.2-.1 5.7 1.4 2.2 2.2 2.2 5.8 0 8-3.2 3.2-7.1.8-9.1 1.1-2.2 0-8.6 6.7-8.6 6.7" fill="#ddd"/><path fill="#a86332" d="M31.9 10.6c-3.2.8-20.5 18.1-21.2 21.2-1.2 4.9 16.6 22.7 21.5 21.5 3.1-.8 20.5-18.1 21.2-21.2 1.2-4.9-16.6-22.7-21.5-21.5"/><path d="m14.6 31.9-1 1 1 1 1-1-1-1m3.3 1.4-1 1 1 1 1-1-1-1m18.707-13.486.99-.99.99.99-.99.99z" fill="#e6b858"/><path fill="#e6d0a3" d="m32.854 15.169 1.485-1.485 1.484 1.485-1.485 1.485z"/><path fill="#e6b858" d="m32.072 18.996.99-.99.99.99-.99.99z"/><path d="m30.92 13.67.99-.99.99.99-.99.99zm-9.919 10.848.99-.99.99.99-.99.99z" fill="#e6d0a3"/><path d="m24.05 28.63 1.485-1.486 1.485 1.485-1.485 1.485zm2.994 1.57.99-.99.99.99-.99.99z" fill="#e6b858"/><path d="m44.2 38.8-1 1 1 1 1-1-1-1m-3.3 1.3-1.5 1.5 1.5 1.5 1.5-1.5-1.5-1.5m-1.7-4-1 1 1 1 1-1-1-1m-8.4 11.3-1.5 1.5 1.5 1.5 1.5-1.5-1.5-1.5m-2.3-4.5-1 1 1 1 1-1-1-1m-.6 3.5-1 1 1 1 1-1-1-1m19.6-17.2-1 1 1 1 1-1-1-1m3.1.7-1 1 1 1 1-1-1-1m-7.7 5.7-1 1 1 1 1-1-1-1" fill="#804c26"/><path d="M49.8 37.5 22.9 17.8l1.6-1.6 26.2 20.4zM37.4 49.7l-23-23 .7-.9L39 48.5z" fill="#e6b858"/><path d="m38.8 48.9-24-23 .8-.8 25.9 20.7zm10.4-10.8L20.7 19.4l2.4-2.4 27.1 20.5z" fill="#804c26"/><path d="M11.6 59.8c-.6-3 .6-5.9 2.8-7.6h-.2c-2.5.5-4.1 3-3.6 5.6.2.9.6 1.6 1.1 2.3 0-.1 0-.2-.1-.3M4 50.9c-.4-2.2.4-4.2 2-5.5h-.1c-1.8.4-3 2.2-2.6 4 .1.6.4 1.2.8 1.6-.1 0-.1 0-.1-.1m55.8-39.5c-3-.6-5.9.6-7.6 2.8V14c.5-2.5 3-4.1 5.6-3.6.9.2 1.6.6 2.3 1.1-.1 0-.2-.1-.3-.1m-8.9-7.7c-2.2-.4-4.2.4-5.5 2v-.1c.3-1.8 2.2-3 4-2.6.6.1 1.2.4 1.6.8.1 0 0-.1-.1-.1" opacity=".4" fill="#fff"/></svg>