<svg xmlns="http://www.w3.org/2000/svg" viewBox="0 0 64 64"><path fill="#995024" d="m44.1 29.5 15.7-7.2c.1-.2.4-.7.6-1 .7-1.1 1.6-2.4 1.6-4C62 10.3 52.7 4 40.4 4s-25 5.3-32.3 10.4c-1.1.8 36 15.1 36 15.1"/><path fill="#b3682a" d="M60.6 30.1c-.8-5.4-.9-7.3-.9-7.9L44 29.4l-6.6 30.5c4.6 0 20.5-9.8 22.3-12.4 2.2-3 2.4-5.9 1-16.5 0-.2 0-.5-.1-.9"/><path fill="#fff3e3" d="M42.3 29c.2-1.3 2.2-3 2.2-4.5 0-5.6-9.1-13.2-20.4-13.2S3.8 18.8 3.8 24.4c0 1.6 2 3.3 2.2 4.5.3 1.5-.8 8.1-1 9.6-2.3 17-.2 19.3 7.8 19.3 2.9 0 6.7-.3 11.3-.3s8.4.3 11.3.3c8 0 10.2-2.3 7.8-19.3-.1-1.5-1.1-8-.9-9.5"/><path fill="#c0773b" d="M3.8 24.4c0-5.6 9.1-13.2 20.4-13.2s20.4 7.6 20.4 13.2c0 1.6-2 3.3-2.2 4.5l1.8.5c.1-.2.4-.7.6-1 .7-1.1 1.6-2.4 1.6-4 0-7-9.9-15.4-22.2-15.4C11.9 9 2 17.5 2 24.4c0 1.6.9 2.9 1.6 4 .2.3.5.8.6 1L6 29c-.2-1.3-2.2-3-2.2-4.6"/><path fill="#cb8d44" d="M45 37.3c-.8-5.4-.9-7.3-.9-7.9l-1.8-.4c-.3 1.5.8 8.1 1 9.6 2.3 17 .2 19.3-7.8 19.3-2.9 0-6.7-.3-11.3-.3s-8.4.3-11.3.3c-8 0-10.2-2.3-7.8-19.3.1-1.6 1.1-8.1.9-9.6l-1.8.5c0 .5-.1 2.4-.9 7.9-.1.4-.1.7-.1.9-1.4 10.5-1.2 15.6 1 18.6C6 59.5 9 60 12.9 60c1.3 0 2.9-.1 4.5-.1 2-.1 4.3-.2 6.8-.2s4.8.1 6.8.2c1.6.1 3.1.1 4.5.1 3.9 0 6.8-.5 8.7-3.1 2.1-3 2.4-8.1 1-18.7-.1-.2-.2-.5-.2-.9"/><g fill="#ede0d1"><circle cx="9.3" cy="49" r="1.8"/><circle cx="11.8" cy="43.9" r="1.5"/><circle cx="14.8" cy="47.2" r=".9"/><circle cx="28.9" cy="27.1" r="2.4"/><circle cx="32.4" cy="30.2" r=".7"/><circle cx="35.1" cy="32.4" r="1"/><circle cx="30.4" cy="32.4" r="1.5"/><circle cx="35.6" cy="48.2" r="1.8"/><circle cx="31.9" cy="48.6" r="1"/><circle cx="11" cy="24.7" r="1"/><circle cx="11" cy="20.8" r="1.5"/><circle cx="13.9" cy="23.7" r="1"/></g></svg>