<svg xmlns="http://www.w3.org/2000/svg" viewBox="0 0 64 64"><path fill="#ddd" d="M28.4 35.6c-4.5-4.5-10.5 7-15.1 7.6-2.1.3-6.2-2.2-9.6 1.1-2.3 2.3-2.3 6.1 0 8.4 1.6 1.6 3.9 2.1 6 1.5-.6 2-.2 4.4 1.5 6 2.3 2.3 6.1 2.3 8.4 0 3.3-3.3.9-7.5 1.1-9.6.6-4.5 12.2-10.5 7.7-15"/><path d="m22.9 46.9 1-1.1 1.9-6.7-7.6.9-1.2 1.2 2.9.7c-1.8 2.3-3 4.3-3 4.3s3.3.1 5.6-.4l.4 1.1" opacity=".15"/><path d="M11.5 58.7c-.6-3 .6-5.9 2.8-7.6h-.2c-2.5.5-4.1 3-3.6 5.6.2.9.6 1.6 1.1 2.3 0-.1 0-.2-.1-.3m-7.7-8.9c-.4-2.2.4-4.2 2-5.5h-.1c-1.8.3-3 2.2-2.6 4 .1.7.4 1.3.8 1.7 0 0 0-.1-.1-.2" opacity=".4" fill="#fff"/><path fill="#a8693f" d="M54.5 35.4C75 14.9 49.1-11 28.6 9.5c-8.2 8.2-6.7 18.2-8.3 26-.6 2.8-3 4.8-3 4.8s1.7.6 3.6 1c-1.6 2-2.7 3.7-2.7 3.7s2.4.2 4.9-.3c.3 1.2.6 2 .6 2s2.1-2.5 4.8-3c7.8-1.6 17.7 0 26-8.3"/><path d="m40.411 18.522 1.061-1.06 1.06 1.06-1.06 1.061zm4.289-4.881 1.06-1.06 1.06 1.061-1.06 1.06zm-8.432 9.419 1.06-1.061 1.061 1.06-1.06 1.061zm-4.874 4.911 1.06-1.061 1.06 1.06-1.06 1.061zm1.69-18.259 1.061-1.06 1.06 1.06-1.06 1.06zm-4.33 4.708 1.06-1.061 1.061 1.06-1.06 1.061zm-3.278 5.83 1.06-1.062 1.06 1.06-1.06 1.061zM38.288 5.96l1.06-1.06 1.061 1.06-1.06 1.061zM34.5 16.311l1.061-1.06 1.06 1.06-1.06 1.061zm5.43-5.274 1.485-1.484 1.484 1.485-1.485 1.485zM25.16 26.622l1.06-1.06 1.06 1.061-1.06 1.06zm4.98-4.369 1.485-1.484 1.485 1.485-1.486 1.485zM45.275 6.489l1.061-1.06 1.06 1.061-1.061 1.06z" fill="#c28d69"/></svg>