<svg xmlns="http://www.w3.org/2000/svg" viewBox="0 0 64 64"><path fill="#f6da77" d="M16.9 62.3c24.4-.1 45-20.8 45.1-45.2L2 2.3l14.9 60"/><path fill="#860d16" d="m15 54.5.4 2.1c19-1 38.9-14.6 40.9-41l-2-.3C51.7 35.5 35.3 52 15 54.5"/><path fill="#c98e52" d="m15.4 56.5 1.4 5.7C41.2 62.3 62 41.5 62 16.9l-5.7-1.4c-2.2 23.5-17.6 38.8-40.9 41z"/><path d="M22.3 13.5c0-1.7.6-3.2 1.8-4.4.5-.5 1.3-.5 1.7 0 .5.5.5 1.3 0 1.7-1.4 1.4-1.4 3.9 0 5.3.7.7 1.6 1.1 2.6 1.1s1.9-.4 2.6-1.1c.5-.5 1.3-.5 1.7 0 .5.5.5 1.3 0 1.7-1.2 1.2-2.7 1.8-4.4 1.8-1.7 0-3.2-.6-4.4-1.8-.9-1.1-1.6-2.7-1.6-4.3m19.8 25.1h-.5c-.3-.1-.5-.2-.7-.5-.2-.3-.2-.6-.1-.8.2-.8 0-1.6-.4-2.3-.4-.7-1.1-1.2-1.9-1.4-1.6-.4-3.3.7-3.7 2.3-.1.6-.8 1-1.3.8-.6-.1-1-.7-.8-1.3.5-2 2-3.5 4-4 .8-.2 1.6-.2 2.3 0 1.4.3 2.5 1.2 3.3 2.4.8 1.2 1 2.6.7 4-.2.3-.5.7-.9.8m-29 5.3v-.5c.1-.3.2-.5.5-.6.2-.1.5-.2.8-.1.7.2 1.5.1 2.2-.3.7-.4 1.2-1 1.4-1.8.4-1.5-.6-3.2-2-3.6-.5-.1-.9-.8-.7-1.3.2-.6.7-.9 1.3-.7 1.8.5 3.3 2 3.6 3.9.1.7.1 1.5-.1 2.2-.3 1.3-1.2 2.4-2.3 3-1.2.7-2.5.8-3.8.5-.5 0-.8-.3-.9-.7" fill="#83bf4f"/><path d="M27.8 37.1c-4.1 1.4-8.5-.8-9.9-5-1.4-4.2.8-8.7 4.9-10 4.1-1.4 8.5.8 9.9 5 1.4 4.1-.8 8.6-4.9 10M27 49.6c-2.5.8-5.1-.5-6-3-.8-2.5.5-5.2 3-6 2.5-.8 5.1.5 6 3 .8 2.4-.5 5.1-3 6M45 29c-3.3 1.1-7-.7-8.1-4.1-1.1-3.4.7-7.1 4-8.2 3.3-1.1 7 .7 8.1 4.1 1.1 3.4-.7 7.1-4 8.2m-35 5.4-2.4-9.7c2.6-.9 5.7.9 6.4 3.5.8 3.2-1.5 5.3-4 6.2m7-14.8c-3.4 1.2-7.2-.7-8.3-4.2-1.2-3.5.7-7.3 4.2-8.5 3.4-1.2 7.2.7 8.3 4.2 1.1 3.5-.8 7.3-4.2 8.5" fill="#b21725"/><path fill="#e0a763" d="M56.3 15.5c-.1 5.3-1.1 10.6-3.1 15.6-1.9 5-4.9 9.7-8.8 13.5-3.8 3.8-8.5 6.8-13.5 8.8-5 2-10.3 3-15.6 3.1 5.2-.9 10.3-2.3 15-4.5 4.7-2.2 9.1-5.1 12.7-8.8 3.7-3.6 6.6-8 8.7-12.7 2.3-4.7 3.7-9.8 4.6-15"/><path d="m50.564 16.794 1.98 1.98-1.98 1.98-1.98-1.98zM44.956 29.72l1.98 1.98-1.98 1.98-1.98-1.98zm-7.404-16.812 1.98 1.98-1.98 1.98-1.98-1.98zm-5.687 6.84 1.98 1.98-1.98 1.98-1.98-1.98zm-.255 17.797 1.98 1.98-1.98 1.98-1.98-1.98zM17.459 49.024l1.98 1.98-1.98 1.98-1.98-1.98zm1.889-29.407 1.98 1.98-1.98 1.98-1.98-1.98zm-7.251 1.417 1.98 1.98-1.98 1.98-1.98-1.98zM5.759 4.338l1.98 1.98-1.98 1.98-1.98-1.98zm40.913 9.632 1.485 1.485-1.485 1.485-1.485-1.485zM36.107 26.552l1.485 1.485-1.485 1.485-1.485-1.485zm-.062 13.523 1.485 1.485-1.485 1.485-1.485-1.485zm-8.209-26.639 1.485 1.485-1.485 1.485-1.485-1.485zM21.9 7.36l1.485 1.485-1.484 1.485-1.485-1.485zM9.515 5.03 11 6.515 9.515 8 8.03 6.515zm-.801 12.846 1.485 1.485-1.486 1.485-1.484-1.485zm6.94 12.902 1.485 1.485-1.485 1.485-1.485-1.485zm-2.55 6.264 1.485 1.485-1.485 1.485-1.484-1.485zm5.726 8.334 1.484 1.485-1.485 1.485-1.485-1.485z" fill="#ffab41"/></svg>