<svg xmlns="http://www.w3.org/2000/svg" viewBox="0 0 64 64"><path fill="#f29a2e" d="M50.9 48.6c-.6-.6-1.7-.6-2.3 0-.6.6-.6 1.7 0 2.3l10.6 10.6c.6.6 1.7.6 2.3 0 .6-.6.6-1.7 0-2.3L50.9 48.6"/><ellipse cx="47" cy="47" fill="#8cc63e" rx="13.6" ry="12" transform="rotate(-45.001 46.998 46.997)"/><path fill="#f29a2e" d="M38.3 35.9c-.6-.6-1.7-.6-2.3 0-.6.6-.6 1.7 0 2.3l3.7 3.7c.6.6 1.7.6 2.3 0 .6-.6.6-1.7 0-2.3l-3.7-3.7"/><ellipse cx="30.9" cy="30.9" fill="#dae3ea" rx="13.6" ry="12" transform="rotate(-45.001 30.91 30.911)"/><path fill="#f29a2e" d="M22.2 19.9c-.6-.6-1.7-.6-2.3 0-.6.6-.6 1.7 0 2.3l3.7 3.7c.6.6 1.7.6 2.3 0 .6-.6.6-1.7 0-2.3l-3.7-3.7"/><ellipse cx="14.8" cy="14.8" fill="#ff99ad" rx="13.6" ry="12" transform="rotate(-45.001 14.822 14.824)"/><path fill="#f29a2e" d="M6.1 3.8c-.6-.6-1.7-.6-2.3 0-.6.6-.6 1.7 0 2.3l3.7 3.7c.6.6 1.7.6 2.3 0 .6-.6.6-1.7 0-2.3L6.1 3.8"/></svg>