<svg xmlns="http://www.w3.org/2000/svg" viewBox="0 0 64 64"><path fill="#f7f2df" d="M50 45c6-8.2-45.5-10.2-45.5-10.2s-1.2 1.7-.3 3c.6.9 1.1 1.3.8 2.2-.3 1 .8 2 1 3 .3 1.6-.6 2.4 1.3 3.3.7.3 4.4 1.6 4.6 0 .6 1.4 1.8 2.7 3.2 3.3 1.4.7 3.2.8 4.5 1.1.7 1.6 1.7.9 2.8 1.7 1.2.9 3 1.7 4.5 1.4 1.3-.2 1.2-.9 2.6.2-.1 1.6 1.4.9 2.5 1.3 1 .3 5.2.3 5.8.5.6.3-.5 1.6.4 2.1 1.5.8 3.3-2.8 4-3.4-.1.6-.4 3.3 1 2.9 1.8-.5 1.3-3.1 2.8-3.6 1.7-.7 2.8-1.7 3.2-3.5.2-.7.2-1.4.2-2 1.1-.4 1.2-2.7.6-3.3"/><path d="M27.7 51.5c-1.7-.9-3.3-1.1-3.7-.5-.4.6.7 1.9 2.3 2.8 1.7.9 3.3 1.1 3.7.5.5-.7-.6-1.9-2.3-2.8m-15.7-6c-1.7-.8-3.4-1-3.7-.3-.4.6.7 1.8 2.5 2.7 1.7.8 3.4 1 3.7.3.3-.7-.8-1.9-2.5-2.7m6.6 3.1c-1.7-.8-3.4-1-3.7-.3-.3.7.8 1.9 2.5 2.7 1.7.8 3.4 1 3.7.3.3-.7-.8-1.9-2.5-2.7m20.1 3.9c.2-.5.3-.9.1-1.2-.5-.6-2.1-.2-3.6.9s-2.3 2.5-1.8 3.1c.2.3.7.3 1.3.2-.4.7-.5 1.3-.2 1.6.5.6 2.1 0 3.5-1.2s2.1-2.7 1.6-3.2c-.3-.2-.6-.3-.9-.2m-5.4-2.4c0 .1.1.2.1.2.5.6 2.1.2 3.6-.9s2.3-2.5 1.8-3.1c-.5-.6-2.1-.2-3.6.9l-.3.3c0-.2 0-.4-.2-.5-.3-.4-1.1-.3-2 .2-.3 0-.7-.1-1-.1-1.9-.1-3.5.5-3.5 1.2 0 .5.7 1 1.8 1.2-.5.8-.7 1.5-.3 1.8.5.6 2.1 0 3.5-1.2h.1M44.5 48c-.7-.3-1.9.8-2.7 2.4-.5 1-.8 3.5-.1 3.6.8 0 1.9-.8 2.7-2.4.8-1.7.8-3.3.1-3.6m5-6c-.7-.3-1.9.8-2.7 2.4-.8 1.7-.8 3.3-.1 3.6.7.3 1.9-.8 2.7-2.4.8-1.7.8-3.3.1-3.6M14 44.5c-.3.7.8 1.9 2.5 2.7 1.7.8 3.4 1 3.7.3.3-.7-.8-1.9-2.5-2.7-1.6-.8-3.3-.9-3.7-.3m-4-3.3c-.1-1.8-.8-3.3-1.6-3.2-.8 0-1.3 1.5-1.2 3.4s.8 3.3 1.6 3.2c.7-.1 1.3-1.6 1.2-3.4m5.4 1.4c1.1-1.5 1.5-3 .9-3.5-.6-.4-2.1.4-3.2 1.9s-1.5 3-.9 3.5c.7.4 2.1-.5 3.2-1.9m13.5 3.8c0-.7-1.5-1.4-3.4-1.5-1.9-.1-3.5.5-3.5 1.2s1.5 1.4 3.4 1.5c1.9.1 3.5-.4 3.5-1.2" fill="#e8e1d6"/><g fill="#3f4237"><path d="M13.4 13.7h25.4v9.9H13.4z"/><path d="M38.2 21.1c2.5 4.7-2.4 10.3-12.1 10.3-9.6 0-14.5-5.6-12.1-10.3 1.8-3.4 7-5.5 12.1-5.5 5.1.1 10.3 2.2 12.1 5.5"/></g><path fill="#8cc63e" d="M38.2 11.4c2.5 4.8-2.4 10.3-12.1 10.3-9.6 0-14.5-5.6-12.1-10.3C15.8 8.1 21 6 26.1 6s10.3 2.1 12.1 5.4"/><path fill="#ffeee2" d="M37.1 11.4c2 4.2-2.6 9-11 9s-13-4.8-11-9c1.5-3.1 6.2-5.1 11-5.1s9.5 2 11 5.1"/><path fill="#f55" d="M31.6 11.9c.5 1.9-2 3.8-5.5 3.8s-5.9-1.8-5.5-3.8c.4-1.7 2.8-2.8 5.5-2.8s5.1 1.1 5.5 2.8"/><g fill="#3f4237"><path d="M36.6 21.4H62v9.9H36.6z"/><path d="M61.4 28.8c2.5 4.7-2.4 10.3-12.1 10.3-9.6 0-14.5-5.6-12.1-10.3 1.8-3.4 7-5.5 12.1-5.5s10.3 2.2 12.1 5.5"/></g><path fill="#8cc63e" d="M61.4 19.1c2.5 4.7-2.4 10.3-12.1 10.3-9.6 0-14.5-5.6-12.1-10.3 1.8-3.4 7-5.5 12.1-5.5s10.3 2.2 12.1 5.5"/><path fill="#ffeee2" d="M60.3 19.1c2 4.2-2.6 9-11 9s-13-4.8-11-9c1.5-3.1 6.2-5.1 11-5.1 4.7.1 9.5 2 11 5.1"/><path fill="#f55" d="M54.8 19.6c.5 1.9-2 3.8-5.5 3.8s-5.9-1.8-5.5-3.8c.4-1.7 2.8-2.8 5.5-2.8s5.1 1.1 5.5 2.8"/><path fill="#ec6430" d="M2 31.2c-.1 2.2 1.5 5.1 3.8 6.5S42.2 52.2 44 50.3c1.7-1.9-6.7-12.7-11.4-14.7C20 30.2 2 31.2 2 31.2z"/><path fill="#e8491f" d="M43.5 46.4c-.1 1.1.1 4.2.5 4 2.2-1.6 8.3-9.4 5.5-15.7l-6 11.7"/><path fill="#f3813b" d="M2 31.2s5.6-7 7.7-7.8c5.9-2.1 6.1-2 10.5-1 4.5 1 24.6 6 29.2 12.2 1.2 1.6-4.7 12.2-6 13-1.2.6-8.2-1.4-17.6-7.5C15.1 33.2 4.3 31.8 2 31.2"/><path fill="#f4a24e" d="M38.3 45.5c-.5-.3-1.1-.6-1.6-.9-.3-3.3.9-7.1.7-10.4-.7 3-2.4 6-3.2 9-.2-.1-.5-.3-.7-.4-1.9-1.2-3.9-2.3-5.8-3.5 1.3-3.9 2.1-8.3.2-12.1.9 3.8-.6 7.5-2.5 10.8-.5-.3-1-.6-1.6-.9-1.7-.9-3.5-1.7-5.3-2.5-.8-3.4 2.2-7.6-.9-10.5 1.8 2.9-.7 6.3-1.5 9.5-.9-.3-1.9-.7-2.8-.9-3.7-1-7.5-1.7-11.3-1.5 3.6 1 7.1 2.3 10.5 3.7 3.4 1.5 6.6 3.1 9.9 4.8 3.3 1.7 6.6 3.5 10 5 1.7.8 3.5 1.5 5.3 2 1.8.5 3.8.9 5.7.7-1.8-.3-3.5-1-5.1-1.9"/></svg>