<svg xmlns="http://www.w3.org/2000/svg" viewBox="0 0 64 64"><path fill="#75d6ff" d="M62 62H2v-9c38-5.8 60-25 60-25v34z"/><path fill="#7924a6" d="M18.9 60.9c-2.5-.1-13.3-.4-13.3-2.4 0-.8 3.6-2.4 8.1-3.6 19.9-5.4 39.5-5.7 39.5-4.5 0 .6-.8 1.6 0 2.3 2.2 2 5 2 5 2.1 0 2.2-16.7 7.2-39.3 6.1"/><path fill="#b86acb" d="M53.2 52.7c-.4-.4-.4-.8-.3-1.3-5.6.7-36.2 4.8-46 5.9-.9.5-1.4.9-1.4 1.2 0 .4.4.7 1 .9L55.3 54c-.7-.3-1.4-.7-2.1-1.3"/><g fill="#ffdd67"><path d="M54.9 25.8c-2.2.7-4.1-.3-5.4.1-.3-.7-2.2-1.8-4.6-2.5 0 0-1.5-1.8-3.5-2.1-2-.3-2.8.2-2.6-2.4l-3.3-.7c-.7 2.4-2.9 1.9-4.2 1.8-3.4-.2-5 1.4-5.8 3.9-1 .8-1.9 1.8-2.7 3.1-.8 1.2-1.4 2-1.4 4.3V36l2.4-.2.5-5.7s3-1 3.7-3.3c-.8 4.5.7 3.7-.3 7.4l9.9 1.3c.3-5.9 2.5-3.7 3.5-9.1 0 0 4.6 1.8 7 2.3 2.6.6 7.8-.4 7.8-.4l-1-2.5"/><path d="M60 26.6c-.3-1.8-1.8-2-2.9-1.9 0 0 0-.6-.7-.5l-1.4.2c-.6.1-.9.6-.8 1.1l.3 1.6c.4 2.3.4 2.3 3.7 1.8 2.1-.3 1.8-2 1.8-2.3"/></g><path fill="#eba352" d="M56.7 24.8c-.1.1-.2.2-.4.3-.2.1-.3.1-.5.1-.3 0-.6.1-.8.1-.2 0-.1.3.1.3.3-.1.6-.1.9-.1.2 0 .4-.1.6-.2.2-.1.3-.2.5-.4 0-.1-.2-.3-.4-.1"/><path fill="#ffdd67" d="M25.4 36.4c-.1-.5-.5-.8-1.1-.8l-1.6.1c-2.3.1-2.3.1-2.1 2.9.1 1.9 1.9 1.8 2.2 1.8 1.8-.1 2.1-1.3 2.1-2.3 0 0 .6-.1.6-.6l-.1-1.1"/><path fill="#ff71d0" d="M38.2 35s.2.6.6 1c3.6.6 7.5 1.6 8.2 3.2.4 1.1-1.3 4.7-1.6 6.2-.8 4.4-7.4-3-8.4-2.2-.7.5.7 2.3.3 2.7-1.1 1-6.6 2.7-8.6.3-.7-.8-.2-2.3-.6-2.8-3.5-3.2-1.2-5.4-.1-9.5-.1 0 1.6.7 10.2 1.1"/><g fill="#eba352"><path d="m23.5 28.8.9 1.3-.2 2.4c-.1-1.4-.7-3.7-.7-3.7"/><ellipse cx="38.5" cy="27.6" rx=".5" ry=".4"/><ellipse cx="31.3" cy="26.6" rx=".5" ry=".4"/><path d="M28.2 25.1s.2 2.1 2.7 2.9c-1.9-1.4-2.7-2.9-2.7-2.9m16.9 2.3s2 .9 4-.8c-2.1.9-4 .8-4 .8"/></g><path d="M36.6 44c0 1.8-1.6 3.2-3.5 3.2s-4 .1-4-1.7.9-4.7 4-4.8c1.9 0 3.5 1.5 3.5 3.3m8.8-1.1c0 1.8-1.2 5.2-2.3 2.1-.6-1.7 1.1-6 2.8-6 2.3 0-.5 2.2-.5 3.9" fill="#8f4074"/><path d="M35.7 44.9c1.7-3.7-4.5-5.5-5.5-1.3-1.1 4.1-.9 6.1-1.1 8.3-.1 1.2-1.1 2-.9 2.4.6 1.5.6 3.7 1.2 4.1.6.5 3.9-.2 4-.7.2-1.2-1.9-2.6-1.3-5.4.4-2.3 2.5-4.9 3.6-7.4m15.6-2.4c0-.8-2.6-2.6-5.4-3.4-1.6.4-2.6 4-2.1 4.6.8 1 2.8 1.4 2.8 1.4-1.4 1.7.3 3.2-.3 6.1-.4 1.9-.3 3.5 1.1 4.5.6.5 4.3-.4 4.1-1.1-.6-1.4-2.3-2.6-2.3-3.8-.4-3 2.2-4.5 2.1-8.3" fill="#ffdd67"/><path d="M26.2 40.3s0 1.8 1.9 3.1c0 0 .1-3.8 3-4.9-.1 0-3.7-.3-4.9 1.8m1.2-4.9s-.9 1.2-1.1 3.3c0 0 1.8-2.7 6.1-2.3 0 .1-2.7-1.9-5-1m12.2.7s1.6 0 3.2.7c0 0-3.2-.4-4.8.8 0 0 .1-1.6 1.6-1.5m4 1s1.5.4 2.4 1.1c0 0-3-.7-4.6.5.1 0 .7-1.7 2.2-1.6m-5.2-1.6c-3.5.8-9-1.2-10.7-.9-.3.1 0-1.3.3-1.3 3.8 0 6.6 1.2 10 1 .3 0 .7 1.1.4 1.2" fill="#6ceda9"/><path fill="#ffb300" d="m29.9 9.9.7 1.7 14.8 1.7.8-1.6c.7-6-.4-8.7-7-9.5-6.6-.9-8.6 1.6-9.3 7.7"/><path fill="#ffdd67" d="M45.6 11.6c-.1.3-.2.7-.3.8-.2.3-.6.5-.6.5s.2-.7.2-1.6c.3-5.5-.4-2.9-6.4-3.6-6.1-.7-6.1-3.4-7.1 2.1-.1.9-.1 1.6-.1 1.6s-.3-.2-.5-.6c-.1-.2-.1-.5-.1-.9-.6-.2-1.3-.2-1.5 1.5-.1 1 .2 1.9 1.4 2.2 0 3.5 4.4 6.3 6.4 6.6 2.1.2 6.9-1.5 7.8-4.9 1.3.1 1.8-.7 1.9-1.8.3-1.8-.5-2-1.1-1.9"/><g fill="#937237"><circle cx="34.9" cy="12.1" r="1.3"/><circle cx="41.1" cy="12.9" r="1.3"/><path d="M39.6 16.6c-1.4.9-2.9.7-4.1-.5-.1-.1-.3.1-.2.3.3.8 1 1.5 2.1 1.6 1 .1 1.9-.4 2.4-1.1.1-.2-.1-.4-.2-.3"/></g></svg>