<svg xmlns="http://www.w3.org/2000/svg" viewBox="0 0 64 64"><path fill="#e8e8e8" d="M59 5C53.4-.6 30.6.8 15.7 15.7.8 30.6-.6 53.3 5 59c5.6 5.6 28.4 4.2 43.3-10.7C63.2 33.4 64.6 10.7 59 5z"/><path fill="#c5d4d8" d="M58 14c-1.5 3.3-3.1 6.4-5 9.5-3.6 5.9-7.9 11.6-12.4 16.9-4.2 5-9.2 10.3-15.2 13.2-3.1 1.5-6.3 1.7-9.5 2.4-2.9.7-6.5 2.4-6.9 5.1 8.8 2.7 26.8-.3 39.3-12.8 12-12 15.2-29 13.1-38.2-1.4.9-2.5 2.1-3.4 3.9"/><path fill="#4b53a2" d="M38.9 3.1c-1.5.3-3 .7-4.5 1.2C28.3 7.2 22 11.7 17 16.6 2.3 31.4 1.2 53.7 4 56.4c4 4 23.9-1.8 38-17.7 11.6-13 17-27.3 17.6-33-.3-.2-.5-.5-.6-.7-3.1-3-11-4-20.1-1.9m.8 33.3c-12.8 12.8-29 16.5-32.6 12.9-2.9-2.9.2-19.6 13-32.4C32.9 4 49.4.8 52.5 4c3.6 3.6 0 19.6-12.8 32.4"/><g fill="#cb2c41"><path d="M16.7 27.1c-4.6 7.4-5.8 14.5-4 16.3 1.8 1.8 8.9.5 16.3-4-6.3 3.2-12.3 3.6-14.1 1.9-1.8-1.9-1.4-7.9 1.8-14.2M29.8 14c6.3-3.2 12.3-3.6 14.1-1.9s1.3 7.8-1.9 14.1c4.6-7.4 5.8-14.5 4-16.3-1.7-1.7-8.8-.5-16.2 4.1"/><path d="M59.5 5.7c-.6 5.8-6 20-17.6 33C27.8 54.6 8 60.5 4 56.4c-2.7-2.7-1.7-25 13.1-39.8 5-5 11.3-9.4 17.4-12.3-6.5 2.1-13.2 5.8-18.8 11.4C.8 30.6-.6 53.4 5 59c1.8 1.8 5.5 2.9 10 3 8.6-2.5 21.5-8.2 32.5-23.7C53.8 29.7 58.7 20 62 14.4c-.2-3.8-1.1-6.8-2.5-8.7"/></g></svg>