<svg xmlns="http://www.w3.org/2000/svg" viewBox="0 0 64 64"><path fill="#89664c" d="M9.2 9.2S8.5 7.7 8.9 5c0 0 2 1.4 3.4 4.5l-3.1-.3m1.8-.7s2.2-2.1 5.4-2L15.8 8s2.5-.7 5.7.5l-1.4 1s3.4.9 4.4 2.2l-1.9.2s3 1.2 4.1 3l-1.4.3s3 1.9 3.5 4.1L27 19s1.7 2.5 1.9 4.6l-1-.5.2 1.4L11 8.5m49.8 20.7c2.6-4-7.9-6.1-12.1-.4v1.3s8.6-2.5 6.6 2.4c-2.2 5.5 6.6 10 6.6 10s-4.7-7.6-1.1-13.3"/><path fill="#574137" d="m12.7 56.1.6-4.4s-.9 0-1.8-.2c-.3.8-.6 2.2-.9 3.9 1.1.6 2.1.7 2.1.7"/><path fill="#89664c" d="M27.2 45c-.7.5-1.5 1.2-2.1 1.8l-3.5-1s3.2-4.9 10.7-8.1c0 0-8.5-3.1-11.4 1 0 0-3.8 5.7-5.1 7-1.3 1.4.1 2.6.7 2.8.6.2 9.7 1 9.7 1s1.2-1 2.8-1.7c-.6-1.4-1.3-2.3-1.8-2.8"/><path fill="#574137" d="M28.5 44s-.6.4-1.4 1c.5.5 1.2 1.4 1.9 2.8.7-.3 1.6-.5 2.3-.4.1 0-1.1-2.5-2.8-3.4"/><path fill="#89664c" d="m38.3 33.4-.8 5.8s7.9 1.3 11.2.1c0 0 2.9 7.2 8.4 11.7.4-.7.9-1.9 1.2-3.6-2.1-1.3-5.4-4.4-6.9-10.8 0-.1-6.4.7-13.1-3.2"/><path fill="#574137" d="M57.1 51c.7.6 1.5 1.2 2.3 1.7 0 0 .8-2 .9-4.3 0 0-.8-.2-1.9-1-.4 1.7-.9 2.9-1.3 3.6"/><path fill="#b7805c" d="M44.8 25c-8 1-15.7 3-17.1-1.4C21.9 5.7 11 8.5 11 8.5 9.1 6.2 7.2 5.9 7.2 5.9c-.2 2.2.7 4.1.7 4.1-.6 2.9-5.4 12.1-5.9 13.3-.5 1.3 2.9 3.4 2.9 3.4.7-.1.9-1.3 2.4-1.2.4 0-.7 1.4-.3 1.6.8.3 1.7-2 3.4-2.9 6.1-3.3 4.1-5.5 4.1-5.5 2.5 1.7 1.1 5.5 0 7.5-2.5 4.7.1 11.5.1 11.5-2.5 1.9-7.9 3-7.9 3-1.9 9.8 1.5 13.4 3.9 14.7.3-1.7.6-3.1.9-3.9-.9-.2-1.9-.8-2.3-1.8-.7-2.1.7-6.8.7-6.8 6.5.8 10.5-1.2 15.2-2.4 4.6-1.1 9.1-.3 13.6.4 17 3 14.8-17 6.1-15.9"/><path fill="#b7805c" d="M37.7 40.2c4.4 10 14 4.5 14 4.5-2.2 6.1-.6 10.3.8 12.5 1.2-.6 1.9-2 2.3-2.8-3.1-3.5-.9-8.1-.3-9.9.7-2-.3-3.3-.3-3.3-2.7-.6-4.2 1.2-7.4-2.9-3.2-4-9.1 1.9-9.1 1.9"/><path fill="#574137" d="M53.9 59c1.5-.1 2-3.5 2-3.5-.4-.3-.8-.7-1.1-1-.4.8-1.1 2.2-2.3 2.8.7 1.1 1.4 1.7 1.4 1.7M7.3 15.9s1 .4 1.7-.4.3-2.9.3-2.9-1.4 1-2 3.3"/><path fill="#89664c" d="M2.9 23s1.3-.2.9 1.4c-.5 1.5-1-.9-.9-1.4"/></svg>