<svg xmlns="http://www.w3.org/2000/svg" viewBox="0 0 64 64"><path fill="none" stroke="#6f6f6d" stroke-miterlimit="10" stroke-width="1.5" d="M42.6 30.4s10.3-2.6 15.6-9.6"/><path fill="#6f6f6d" d="M54.9 24.1c-.1-2.7.3-4.9 1.1-6.2 1.2-.8 3.4-1.2 6-1.2.1 2.7-.3 4.9-1.1 6.2-1.3.9-3.4 1.3-6 1.2"/><g fill="#f4a19a"><ellipse cx="42.2" cy="48" rx="5.2" ry="3.2"/><path d="M40.6 54.1c-.5 0-.9-.5-.9-1.2v-2.8c0-.7.4-1.2.9-1.2s.9.5.9 1.2v2.8c0 .7-.4 1.2-.9 1.2m3.2 0c-.5 0-.9-.5-.9-1.2v-2.8c0-.7.4-1.2.9-1.2s.9.5.9 1.2v2.8c0 .7-.4 1.2-.9 1.2"/></g><g fill="#cfdae8"><path d="M55.3 36.5c0 6.8-6 12.3-13.5 12.3H17.9V24.1h23.9c7.5 0 13.5 5.5 13.5 12.4"/><path d="M32.5 36.3c1.7 0 3.1.9 4 2.2-2.9.2-5.2 2.8-5.2 6 0 3.3 2.5 6.1 5.6 6.1h.5V57c0 2.8-2.2 5-4.9 5s-4.9-2.2-4.9-5V41.3c0-2.8 2.2-5 4.9-5"/></g><path fill="#6f6f6d" d="M31.3 44.5c0-3.2 2.3-5.8 5.2-6 .5.8.9 1.8.9 2.8v9.2h-.5c-3.1 0-5.6-2.7-5.6-6"/><path fill="#3e4347" d="M32.5 62c2.7 0 4.9-2.2 4.9-5h-9.8c0 2.8 2.2 5 4.9 5"/><path fill="#cfdae8" d="M16.5 51.2c0-2.2-2.1-4-4.9-4.3v-5.7c0-2.8 2.2-5 4.9-5s4.9 2.2 4.9 5V57c0 2.8-2.2 5-4.9 5s-4.9-2.2-4.9-5v-1.6c2.7-.2 4.9-2 4.9-4.2"/><path fill="#6f6f6d" d="M16.5 51.2c0 2.2-2.1 4-4.9 4.3V47c2.7.2 4.9 2 4.9 4.2"/><path fill="#3e4347" d="M16.5 62c-2.7 0-4.9-2.2-4.9-5h9.8c0 2.8-2.2 5-4.9 5"/><path fill="#cfdae8" d="M50.8 34.6c1.5 0 2.9.8 3.7 2-2.6.2-4.7 2.6-4.7 5.5 0 3 2.3 5.5 5.1 5.5h.5v5.9c0 2.5-2 4.6-4.5 4.6s-4.4-2-4.4-4.6V39.2c-.1-2.5 1.9-4.6 4.3-4.6"/><path fill="#6f6f6d" d="M49.8 42.1c0-2.9 2.1-5.3 4.7-5.5.5.7.8 1.6.8 2.6v8.4h-.5c-2.8 0-5-2.5-5-5.5"/><path fill="#3e4347" d="M50.8 58.1c2.5 0 4.5-2 4.5-4.6h-8.9c0 2.5 2 4.6 4.4 4.6"/><path d="M16.6 6.5C13.9 5 12.1 2 12.1 2c-.7 7.9 2.1 9.8 3.7 9.8 2.2.1 3.9-3.7.8-5.3m15.8 0C35.1 5 36.8 2 36.8 2c.8 7.9-2.1 9.8-3.7 9.8-2.1.1-3.9-3.7-.7-5.3" fill="#f6c799"/><path fill="#6f6f6d" d="M47 7.5c-4.2-.1-7.7.5-9.8 2-1.3 2.2-2 6.1-1.9 10.8 4.2.1 8.1-.1 9.8-2 1.7-1.9 2-6.1 1.9-10.8"/><path fill="#f4a19a" d="M45.9 10.3c-3-.1-5.4.4-6.9 1.4-.9 1.6-1.4 4.2-1.3 7.6 3 .1 5.6-.1 6.9-1.4 1.2-1.3 1.4-4.3 1.3-7.6"/><path fill="#6f6f6d" d="M2 7.5c4.2-.1 7.7.5 9.8 2 1.3 2.2 2 6.1 1.9 10.8-4.2.1-8.1-.1-9.8-2-1.7-1.9-2-6.1-1.9-10.8"/><path fill="#f4a19a" d="M3.1 10.3c3-.1 5.4.4 6.9 1.4.9 1.6 1.4 4.2 1.3 7.6-3 .1-5.6-.1-6.9-1.4-1.2-1.3-1.4-4.3-1.3-7.6"/><path fill="#dae5ef" d="M40.3 29.2c0 10.6-15.7 16.5-15.7 16.5S8.9 39.8 8.9 29.2C8.9 13.6 15 5.5 24.6 5.5c9.5 0 15.7 5.8 15.7 23.7"/><path d="M34.5 9c-5.3 5.7-8.9 13-3.6 19.7 3.5 4.4 6.3 4.4 8.9 3.7.3-1 .5-2 .5-3.1 0-10.5-1.6-16.8-5.8-20.3M18.1 28.7c5.2-6.6 1.8-13.7-3.3-19.3-4.5 3.8-6.1 10.5-6.1 19.9 0 1.1.2 2.2.5 3.1 2.6.7 5.4.7 8.9-3.7" fill="#6f6f6d"/><path fill="#fff" d="M30.1 23.9s1.8 3 5.1 2 3.5-4.5 3.5-4.5-1.8-3-5.1-2c-3.4 1-3.5 4.5-3.5 4.5"/><g fill="#3e4347"><ellipse cx="34.4" cy="22.7" rx="2.5" ry="2.9"/><path d="M30.1 23.9s2.8-4.4 7.3-2.6c2.8 1.1 3.8-.7 3.8-.7-1.5.2-2.1-.4-3.8-1.2-3.1-1.5-7.3-.7-7.3 4.5"/></g><path fill="#fff" d="M18.9 23.9s-1.8 3-5.1 2-3.5-4.5-3.5-4.5 1.8-3 5.1-2c3.4 1 3.5 4.5 3.5 4.5"/><g fill="#3e4347"><ellipse cx="14.6" cy="22.7" rx="2.5" ry="2.9"/><path d="M18.9 23.9s-2.8-4.4-7.3-2.6c-2.8 1.1-3.8-.7-3.8-.7 1.5.2 2.1-.4 3.8-1.2 3.1-1.5 7.3-.7 7.3 4.5"/></g><path fill="#f4a19a" d="M11.6 36.7c0-6.1 3-3 12.9-3s12.9-3.1 12.9 3c0 8.7-6.1 10.3-12.9 10.3-6.8 0-12.9-1.7-12.9-10.3"/><path d="M20.3 38.1c-.9-2.5-2.6-3.9-3.8-3.2-1.2.8-1.4 3.5-.6 6 .9 2.5 2.6 3.9 3.8 3.2 1.2-.8 1.5-3.5.6-6m12.2-3.2c-1.2-.8-2.9.6-3.8 3.2-.9 2.5-.6 5.2.5 6 1.2.8 2.9-.6 3.8-3.2.9-2.5.7-5.2-.5-6" fill="#bc6464"/></svg>