<svg xmlns="http://www.w3.org/2000/svg" viewBox="0 0 64 64"><path fill="#ed4c5c" d="M16.9 14.2c-1.8.8-2.9 2.4-4.7.8-1.8-1.6-2.5-1.3-3.2-1.1 0 0 1.1-.2 2.3 1 1.2 1.1 1.7 2.3 4.3 1.3 1.9-.7 3.7-1 4.6-.7.9.3.9-3.3-3.3-1.3"/><path d="m4.9 15.6.7-1.3 4.5-1.3H3.8zm6.3 1.7-4.8-1.5-.4-.7-1.1 2.2z" fill="#fff"/><g fill="#64892f"><path d="M35.1 56.1c-3.1-.3-4.1 1.1-5.7.9 0 0 .9.6 2.1.7 0 0-2.3 1.2-6.1.6 0 0 2.6 2.5 5.8 1.8 0 0-.3.8-1.2 1.4 0 0 1.9.6 3.6-.7 0 0 .2.5-.9 1.3 7.5-.6 5.6-5.7 2.4-6"/><path d="M62 20.1c-1.6-4.2-4.8-6.2-4.8-6.2 1.2-.6 2.9-.2 2.9-.2-2.4-3.3-7.8-4.2-7.8-4.2.7-.6 3-.9 3-.9-3.5-2.2-8.5-1.4-8.5-1.4.3-1.1 1.5-1.8 1.5-1.8-4.9-1.4-9.7.6-9.7.6.1-1.1 1.6-2 1.6-2-2.2-.6-8.4 1-8.4 1 .6-1.4-.6-2.7-.6-2.7-2.2 1.6-6.5 1.4-6.5 1.4.2-.8 1.2-1.7 1.2-1.7-10.4 0-9.1 5.8-9.1 5.8S50 5.4 50 21.5c0 16.9-37.8-3.1-37.8 15.2 0 20.1 40.4-3.2 40.4 12.1 0 8.5-12.8 9.9-12.8 9.9-1.8.5-1.1 1.9-1.1 1.9 1.4-1.3 5.8-1.3 5.8-1.3-.1.5-1 1.4-1 1.4 4.4-.4 6.3-1.8 6.3-1.8.2.6-.9 1.5-.9 1.5 4.4-.3 5.6-3.3 5.6-3.3.9.4.7 1.2.7 1.2 3.5-1.8 3.7-5.3 3.7-5.3.8.2 1.8.9 1.8.9 1-4.2-1.1-6.7-1.1-6.7.3.3 1.7.4 1.7.4-.1-3.5-2.8-4.9-2.8-4.9.9-1 2.7-.1 2.7-.1-1.8-4.6-6.8-4.2-6.8-4.2.6-.8 2.8-1.4 2.8-1.4-2.4-1.7-8.2-1-8.2-1 4.9-1.2 6.2-4.6 6.2-4.6.2.6.1 2.7.1 2.7 3.6-2.9 2.8-6.7 2.8-6.7 1.2.4 1.8 2 1.8 2 2.6-5.1-.3-8.4-.3-8.4 1.5.1 2.4-.9 2.4-.9M30.2 38.8c-.5-1.5-3.4-1.4-3.4-1.4 0 2.1-4.7 3.6-4.7 3.6 0-2.2-1.9-2.9-1.9-2.9-2.4 3.9-3.5 1.5-3.5 1.5 1.5-1.2.7-3.1.7-3.1-4.6.9-1.3-2.6-1.3-2.6.5 2.2 3.2 1.2 3.2 1.2-.8-3.3 3.7-2.8 3.7-2.8-1 1.7.8 2.7.8 2.7 1.8-1.5 6.6-1.4 6.6-1.4-1.4.7-2.2 2.8-2.2 2.8 3.9.1 6.2-.6 6.2-.6-1.8 2.5-4.2 3-4.2 3"/></g><path fill="#8cc63e" d="M32 39.9c-15.1 5.6-18.7 1.7-18.7-3.7 0-8.6 13.2-4.7 18.7-3.7 7.8 1.5 26.2 3.2 26.2-11 0-18.4-35.6-14.7-35.6-14.7v11c6.9-1.3 26.2-3.5 26.2 3.7 0 5.6-6.3 6.9-16.9 3.7C21.5 22 5.8 18.8 5.8 36.3S20 51.6 32 47.3c12.1-4.2 19.7-1.8 19.7 1.8 0 4.8-9.2 7.6-15 9 0 0-1.4-1.5-3.3-.6 0 0 .4.2.6.5 0 0-1.9 1-3.3 1 0 0 1.2 1.4 4 .6 0 0 .1.8-.2 1.3 0 0 1.8-.1 2.2-1.5 16.2-.4 21.6-3.6 21.6-11.2-.1-8.5-11.2-13.9-26.3-8.3"/><path fill="#64892f" d="M24.2 4.9c5.5 0 7.8 3.4 11.1 2.5 0 0-.9 2.7-4.2 2.2 0 0 2.2 2.5 6.2 1.8 0 0-2 4.1-6.2 2 0 0-.1 2.4 2.6 4.2 0 0-2.9 1.5-5.2-.1 0 0-.8.8.2 2.4 0 0-2.4-.3-3.3-1.9L24.2 4.9"/><path fill="#8cc63e" d="M20.7 4.1c-5 0-8 2.7-8 4.6 0 .2 0 .5.1.7-.1.3-2.1-.7-3.4-.7-.7 0-1.4.2-2 .7-.5-1-1.5-1.6-2.6-1.6C3.3 7.8 2 9 2 10.5s1.3 2.8 2.8 2.8h13.1c1 0 1.9.8 1.9 1.8s-.8 1.8-1.9 1.8h-14c-1 0-1.9.8-1.9 1.8s.8 1.8 1.9 1.8h16.9c4.7 0 8.4-3.7 8.4-8.3s-3.8-8.1-8.5-8.1"/><ellipse cx="15.7" cy="8.8" fill="#fff" rx="1.9" ry="1.8"/><circle cx="15.7" cy="8.8" fill="#3e4347" r=".9"/><path d="M13.1 8.6c1.4.6 2.8-2.2 8.2-2 0 0-2.2-1.6-5.1-.7 0 0-.4-1 1.1-1.7 0 0-2.7-.3-3.4 2 0 0-.8-.2-1-1.2.1-.1-1.8 2.6.2 3.6m-5.8 2c.7-.6 2.5-1.1 4.7.1 4.7 2.5 6-1.6 9 .1-2.8-.5-3.7 3.2-8.3 1.7-1.9-.6-2.9-1.7-4.3-.8-.9.6-1.7-.5-1.1-1.1" fill="#64892f"/><path fill="#3e4347" d="M4.1 10.4c-.5-.3.6-1.9 1.1-1.6 1.4.6.3 2.3-1.1 1.6"/><path fill="#64892f" d="M7.5 21c.9 2.2 2 2.3 2 2.3s-2.3.7-3.5-1c0 0 1.2 2.3 3 3.2 0 0-3.4 1.2-4.6-2.1 0 0-.3 1.8.6 2.8-6.9-3.6-.2-11.8 2.5-5.2"/></svg>