<svg xmlns="http://www.w3.org/2000/svg" viewBox="0 0 64 64"><path fill="#e5bc5e" d="m45.1 7 6.1 6.9C61 13.7 56.9 2 56.9 2c-3.3 0-11.8 1.2-11.8 5z"/><path fill="#77623c" d="m48.8 7.8 3.2 3.7c5.2-.1 3.1-6.4 3.1-6.4-1.8 0-6.3.6-6.3 2.7"/><path fill="#e5bc5e" d="m29.6 7-6.1 6.9C13.7 13.7 17.8 2 17.8 2c3.3 0 11.8 1.2 11.8 5"/><path fill="#77623c" d="m25.9 7.8-3.2 3.7c-5.2-.1-3.1-6.4-3.1-6.4 1.8 0 6.3.6 6.3 2.7"/><path fill="#e5bc5e" d="M37.3 4.3c-12.9 0-20.2 4.2-20.2 31h40.5c0-26.8-7.4-31-20.3-31"/><path fill="#c49a45" d="M54.9 38.2H19.7s-2.2 2.1-2.2 6.6c-3.4-.1-6.9-2.1-7.3-5.8-.4-3.9 2.1-7.3 3.6-10.7 1.7-4 2.4-8 1.1-12.2-.5-1.6-1.1-3.8-2.9-4.3-2.2-.6-4.3 1.4-3.7 3.6.5 1.9 1.8 3.3 1.9 5.3.2 2.3-.6 4.7-1.5 6.8-1.6 4.1-3.5 8.2-2.4 12.7 1 4.2 4.6 7.9 11.5 7.6 0 0 .8 3.2 1.9 4.9 3 4.5 32.4 5.3 35.2 0 2.8-5.2 0-14.5 0-14.5"/><path fill="#e5bc5e" d="M23.9 37.1s-.9 19.4 2.9 23.3c2 2.1 8.6 2.2 10.5 0 1.9 2.2 8.5 2 10.5 0 3.6-3.8 2.9-23.3 2.9-23.3H23.9"/><path fill="#bc9342" d="m42.2 54.3 2.9.7.2-3.5-2.9.6z"/><path d="m51.9 50.3 1.9.4.1-2.4-2 .5zm-32.3-4.8.7 2.1 2.3-1.3-1.5-1.6zm-8.9-29.7.7 2.1 2.3-1.3-1.5-1.6zM7.2 37.3l.5 1.4 1.5-.8-1-1.1zm5.9 8.1.4 1.4 1.5-.9-1-1z" fill="#a37e3d"/><path d="m31.6 55.5 1.8-1.2-1.8-1.9-1.2 1.9zM46.2 48l1.9-1.2-1.9-1.9-1.1 1.9zm-17-2.2-2.5 1.6 2.5 2.6 1.5-2.6z" fill="#bc9342"/><path fill="#3e4347" d="M37.3 60.5c-.7-2.5-.7-12.4 0-14.9.7 2.5.7 12.4 0 14.9"/><path d="m53.7 28.7 1.2-.8-1.2-1.3-.8 1.3zm-33.8.1 1.2-.8-1.2-1.3-.8 1.3zM28.4 12l1.9-1.2-1.9-1.9-1.1 1.9zm11.5 4.5 1.9-1.3-1.9-1.9-1.1 1.9zm8.9-4.5 1.8-1.2-1.8-1.9-1.2 1.9zm-13.4 8.1 1.3-.8-1.3-1.3-.7 1.3z" fill="#77623c"/><path fill="#ffe8bb" d="M57.3 27.7s-2.5 3.7-12.5 6.6c-2.7-4.4-12.2-4.4-14.9 0-10-2.9-12.5-6.6-12.5-6.6s-1.3 6.7-.3 9.1c1.5 3.7 10.2 6.1 13.3 6.8 2.6 2.8 11.4 2.8 14.1 0 3.1-.7 11.8-3 13.3-6.8.8-2.4-.5-9.1-.5-9.1"/><path d="m21.8 36.7 1.2-.8-1.2-1.2-.8 1.2zm34.3-.5.9-2.1-2.6-.7v2.3zM36.8 9.5l.6-1.3-1.7-.5v1.5zm-12.7 4.2.7-1.4-1.8-.5v1.6zm25.2 20.1 1.9-1.2-1.9-1.9-1.1 1.9zM31.7 23.5l1.6 5.3-4.5-2.8zm11.2 0-1.6 5.3 4.6-2.8z" fill="#77623c"/><path fill="#ffe8bb" d="M32.1 22.1C30.6 31.3 20 29 20 20.9c0-4.3 0-4.3 6.6-5.8 6.8-1.4 6 3.5 5.5 7"/><path fill="#3e4347" d="M31 22.5c-.6 6.5-10.3 5.5-9.7-1 .2-2.5.3-2.8 5.1-2.2 4.8.5 4.8.7 4.6 3.2"/><path fill="#fff" d="M27.1 19.8c.5.3.8.7.8 1.3 0 .8-.7 1.5-1.5 1.5s-1.5-.7-1.5-1.5c0-.7.4-1.2 1.1-1.4-2.7-.3-2.8-.1-2.9 1.5-.3 3.7 6.1 4.4 6.4.7.1-1.6.1-1.8-2.4-2.1"/><path fill="#ffe8bb" d="M42.6 22.1c1.5 9.2 12.1 6.9 12.1-1.2 0-4.3 0-4.3-6.6-5.8-6.8-1.4-6.1 3.5-5.5 7"/><path fill="#3e4347" d="M43.7 22.5c.6 6.5 10.3 5.5 9.7-1-.2-2.5-.3-2.8-5.1-2.2-4.9.5-4.9.7-4.6 3.2"/><path fill="#fff" d="M49.2 19.6c.5.3.8.7.8 1.3 0 .8-.7 1.5-1.5 1.5s-1.5-.7-1.5-1.5c0-.5.2-.9.5-1.1-2.5.3-2.5.5-2.3 2.1.3 3.7 6.8 3 6.4-.7-.1-1.5-.1-1.8-2.4-1.6"/><path fill="#a37e3d" d="m12.2 24.3-1.8 1.8 1.8 1.9 1.8-1.9z"/><path fill="#3e4347" d="M43.3 38.7c-.4-.9-2.5.5-5.5.6V34h-1v5.4c-2.8-.2-5-1.6-5.5-.6s2.7 2.4 6 2.4 6.5-1.4 6-2.5"/><path fill="#f15a61" d="M43.1 31.7c-2.3-1-9.5-1-11.6 0-.8.4 1.5 2.8 5.8 2.8s6.7-2.4 5.8-2.8"/></svg>