<svg xmlns="http://www.w3.org/2000/svg" viewBox="0 0 64 64"><ellipse cx="50.9" cy="47.5" fill="#dedfe0" rx="4" ry="4.4"/><path fill="#aaacad" d="M39 58.8c1.6 1.8 11.6.3 12.2-2 3-11.3-5-14.7-5-14.7l-7.1 3.5c0-.1-2.2 10.8-.1 13.2"/><path fill="#919191" d="M39.1 56.1c.1-.8.5-1.6 1.1-2.2.6-.6 1.3-1.2 2.1-1.5 1.6-.7 3.4-.7 5-.1-1.7 0-3.2.1-4.7.8-.7.3-1.4.7-2 1.2-.5.5-1.1 1.1-1.5 1.8"/><g fill="#c4c5c6"><path d="M29.7 60.7c1.5 1.8 7 1.7 8.7 0 2.4-2.5 2.3-13.6 2.4-19.1l-10.2-.9c-.1 0-2.9 17.6-.9 20"/><path d="M29.7 60.7c-1.5 1.8-7 1.7-8.7 0-2.4-2.5-2.3-13.6-2.4-19.1l10.2-.9s2.9 17.6.9 20"/></g><path fill="#aaacad" d="M29.7 60.7c-.3-1.4-.4-2.9-.4-4.3s.1-2.9.4-4.3c.3 1.4.4 2.9.4 4.3-.1 1.5-.1 2.9-.4 4.3"/><path fill="#fff" d="M38.7 48.1c0 4.5-9 9.2-9 9.2s-9-4.7-9-9.2 4-8.2 9-8.2 9 3.7 9 8.2"/><path fill="#b5b5b5" d="M47.4 2c-1-.3-9.3 6.1-9.5 11.5-.5 10.5-1.2 13.4-1.2 13.4l5.6 1.4s-.3-1 6.9-12C51.8 12.2 49 2.6 47.4 2"/><path fill="#ffc5d3" d="M46 7.3c-1-.3-4.9 2.6-5.7 6.8-1.9 10.2-2.5 13.1-2.5 13.1l3.7.9s0-.7 5.4-12.4c1.4-3 .6-7.9-.9-8.4"/><path fill="#b5b5b5" d="M12 2c1-.3 9.3 6.1 9.5 11.5.5 10.5 1.2 13.4 1.2 13.4l-5.6 1.4s.3-1-6.9-12C7.5 12.2 10.4 2.6 12 2"/><path fill="#ffc5d3" d="M13.4 7.3c1-.3 4.9 2.6 5.7 6.8 1.9 10.2 2.5 13.1 2.5 13.1l-3.6 1s0-.7-5.5-12.4c-1.4-3.1-.7-8 .9-8.5"/><path fill="#c4c5c6" d="M15 28.3c0-6 4.5-10.3 14.7-10.3 10.1 0 14.7 4.3 14.7 10.3 0 5 7.6 12.4.8 17.3-3.3 2.4-8.9 4.5-15.5 4.5S17.5 48 14.2 45.6c-6.8-5 .8-12.3.8-17.3"/><path fill="#fff" d="M36.6 36.6c-.2-4.8-3.5-10.6-5.6-13.3-.9-1.2-1.7-1.2-2.6 0-2.1 2.7-5.4 8.5-5.6 13.3-3.8-.5-8.1-.3-9 1.7-1.7 4 6.3 10.7 15.8 10.7 9.6 0 17.5-6.7 15.8-10.7-.7-2-5.1-2.2-8.8-1.7"/><path fill="#4c5359" d="M37.2 42.3c-.8.6-1.9 1-3 1.1-1.1.1-2.3-.2-3.2-.8-.5-.3-.9-.7-1.3-1.2-.3.5-.8.9-1.3 1.2-1 .6-2.1.9-3.2.8-1.1 0-2.2-.4-3-1.1-.5-.4 2.1 4.6 7.5 4.6s8-5 7.5-4.6"/><path fill="#fff" d="M33.9 30.9s.3-3.3 2.9-4.3c3-1.2 5 1.7 5.5 3.3.8 2.4-.2 5.1-.5 5.7-.2.4-2.4 2.3-7.3.5.1 0-1.2-2.7-.6-5.2"/><path fill="#b2b6b8" d="M33.9 30.9c0-1.2.4-2.3 1.1-3.3.4-.5.8-.9 1.3-1.2.2-.2.5-.3.8-.4.3-.1.6-.2.9-.2 1.2-.2 2.4.4 3.2 1.2.8.8 1.5 1.9 1.8 3.1.3 1.2.2 2.5-.1 3.7-.1.6-.3 1.2-.6 1.7l-.1.2v.3l-.1.1c-.1.1-.2.2-.4.3-.3.2-.5.3-.8.4-1.1.4-2.2.4-3.3.3-1.1-.2-2.1-.5-3.1-1 1 .2 2.1.5 3.1.5s2.1-.1 3-.5c.2-.1.4-.2.6-.4.1-.1.2-.1.2-.2l.1-.2c.2-.5.3-1 .5-1.5.2-1.1.3-2.2 0-3.2-.2-1-.8-1.9-1.5-2.6-.7-.7-1.6-1.2-2.5-1.1-.2 0-.5 0-.7.1-.2.1-.5.1-.7.2-.5.2-.9.5-1.2.9-.7.6-1.2 1.6-1.5 2.8"/><ellipse cx="37.7" cy="32" fill="#4c5359" rx="2.6" ry="3.2"/><path fill="#fff" d="M25.5 30.9s-.3-3.3-2.9-4.3c-3-1.2-5 1.7-5.5 3.3-.8 2.4.2 5.1.5 5.7.2.4 2.4 2.3 7.3.5-.1 0 1.1-2.7.6-5.2"/><path fill="#b2b6b8" d="M25.5 30.9c-.3-1.1-.7-2.2-1.5-2.9-.4-.4-.8-.7-1.2-.9-.2-.1-.5-.2-.7-.2-.2-.1-.5-.1-.7-.1-.9 0-1.9.4-2.5 1.1-.7.7-1.3 1.7-1.5 2.6-.2 1-.2 2.1 0 3.2.1.5.3 1.1.5 1.5l.1.2c.1.1.2.1.2.2.2.1.4.3.6.4.9.4 1.9.6 3 .5 1 0 2.1-.2 3.1-.5-1 .5-2 .8-3.1 1-1.1.2-2.2.1-3.3-.3-.3-.1-.5-.2-.8-.4-.1-.1-.3-.2-.4-.3l-.1-.1-.1-.1v-.1l-.1-.1c-.2-.6-.4-1.1-.6-1.7-.3-1.2-.3-2.4-.1-3.7.3-1.2 1-2.3 1.8-3.1.9-.8 2-1.4 3.2-1.2.3 0 .6.1.9.2.3.1.5.2.8.4.5.3.9.7 1.3 1.2.7.8 1.1 2 1.2 3.2"/><ellipse cx="21.6" cy="32" fill="#4c5359" rx="2.6" ry="3.2"/><path fill="#fff" d="M27 40.1h5.3v4.4H27z"/><path fill="#b2b6b8" d="M37.7 41.9c-.9.4-2 .6-3 .6-1-.1-2-.3-2.8-.8-.8-.5-1.4-1.2-1.5-1.9l-.7-3.4-.7 3.4c-.2.8-.7 1.4-1.5 1.9s-1.8.8-2.8.8c-1.1 0-2.1-.1-3-.6-.9-.4-1.7-1.1-2.1-2 .1 1 .7 1.9 1.6 2.5.9.6 2.2 1 3.4 1.1 1.3.1 2.5-.2 3.6-.8.6-.3 1-.7 1.4-1.2.4.5.9.9 1.4 1.2 1.1.6 2.4.9 3.6.8 1.2 0 2.5-.4 3.4-1.1.9-.6 1.6-1.6 1.6-2.5-.2.8-1 1.5-1.9 2"/><path fill="#ff94a4" d="M33.2 35.7c-.7-.6-2.9-.6-3.6-.6s-2.8 0-3.6.6c-.5.4-.1 1.4 1.2 2.3.9.6 1.7.7 2.3.7.7 0 1.5-.2 2.3-.7 1.6-.9 1.9-1.9 1.4-2.3"/></svg>