<svg xmlns="http://www.w3.org/2000/svg" viewBox="0 0 64 64"><path fill="#896349" d="M41.1 38.8c-.6-.9-1.6-1.5-2.8-1.5-1.9 0-3.4 1.5-3.4 3.4V53c0 1.9 1.5 3.4 3.4 3.4s3.4-1.5 3.4-3.4V40.6c0-.5-.2-1.2-.6-1.8"/><path fill="#3e4347" d="M38.4 56.6c1.9 0 3.4-1.5 3.4-3.4H35c0 1.8 1.5 3.4 3.4 3.4"/><path fill="none" stroke="#a87654" stroke-miterlimit="10" stroke-width="1.5" d="M42.6 30.5s10.3-2.6 15.6-9.6"/><g fill="#a87654"><path d="M54.9 24.2c-.1-2.7.3-4.9 1.1-6.2 1.2-.8 3.4-1.2 6-1.2.1 2.7-.3 4.9-1.1 6.2-1.3.8-3.4 1.2-6 1.2m.4 12.3c0 6.8-6 12.3-13.5 12.3H17.9V24.2h23.9c7.5 0 13.5 5.5 13.5 12.3"/><path d="M36.6 38.4c-.9-1.3-2.4-2.2-4-2.2-2.7 0-4.9 2.2-4.9 5V57c0 2.8 2.2 5 4.9 5s4.9-2.2 4.9-5V41.3c-.1-1.1-.4-2-.9-2.9"/></g><path fill="#3e4347" d="M32.5 62c2.7 0 4.9-2.2 4.9-5h-9.8c.1 2.8 2.2 5 4.9 5"/><path fill="#a87654" d="M16.5 36.3c-2.7 0-4.9 2.2-4.9 5V57c0 2.8 2.2 5 4.9 5s4.9-2.2 4.9-5V41.3c0-2.7-2.2-5-4.9-5"/><path fill="#3e4347" d="M16.5 62c-2.7 0-4.9-2.2-4.9-5h9.8c0 2.8-2.2 5-4.9 5"/><path fill="#a87654" d="M54.5 34.6c-.8-1.2-2.1-2-3.7-2-2.5 0-4.4 2-4.4 4.5v16.3c0 2.5 2 4.5 4.4 4.5 2.5 0 4.5-2 4.5-4.5V37.2c0-1-.3-1.8-.8-2.6"/><path fill="#3e4347" d="M50.8 58.1c2.5 0 4.5-2 4.5-4.5h-8.9c0 2.4 2 4.5 4.4 4.5"/><path fill="#c1875d" d="M46.9 13.4c.1 4-.5 7.4-1.8 9.3-2 1.2-5.4 1.9-9.7 1.8-.1-4 .5-7.4 1.8-9.4 2-1.1 5.4-1.8 9.7-1.7"/><path fill="#3e4347" d="M44.3 15.9c.1 2.3-.3 4.1-1 5.2-1.1.7-3 1.1-5.4 1-.1-2.3.3-4.1 1-5.2 1.1-.7 3.1-1.1 5.4-1"/><path fill="#c1875d" d="M13.7 24.5c-4.2.1-7.7-.4-9.7-1.7-1.3-1.9-2-5.2-1.9-9.3 4.2-.1 7.6.5 9.7 1.7 1.3 1.9 2 5.2 1.9 9.3"/><path fill="#3e4347" d="M11.1 22.1c-2.4.1-4.3-.3-5.5-1-.7-1.1-1.1-2.9-1.1-5.2 2.4-.1 4.3.3 5.5 1 .8 1.1 1.2 2.9 1.1 5.2"/><path fill="#c1875d" d="M41.5 24.7c0 2.9-4.6 6.9-4.6 11.1 0 0-5.8 6.4-12.4 6.4-6.5 0-12.2-6.2-12.2-6.2 0-4.3-4.7-8.4-4.7-11.3 0-3.8 1.5-7.9 6.1-13.3 1.1-1.2 1.4-2.9 10.9-2.9 9.4 0 10.1 1.3 11.1 2.4 4.4 4.9 5.8 8.7 5.8 13.8"/><path fill="#db9e75" d="M37.7 40.1c0 3.8-3.1 5.6-13.2 5.6s-13.2-1.8-13.2-5.6.3-8.3 13.2-8.3c13-.1 13.2 4.4 13.2 8.3"/><g fill="#3e4347"><ellipse cx="33.3" cy="22.9" rx="3.7" ry="4"/><ellipse cx="15.8" cy="22.9" rx="3.7" ry="4"/></g><path d="M33.4 31c-2.2-1.1-5.3.9-7 4.4-1.7 3.5-1.2 7.3 1 8.4 2.2 1.1 5.3-.9 7-4.4 1.6-3.6 1.2-7.3-1-8.4m-17.7 0c-2.2 1.1-2.7 4.8-1 8.4 1.6 3.5 4.8 5.5 7 4.4 2.2-1.1 2.7-4.8 1-8.4-1.7-3.5-4.8-5.5-7-4.4" fill="#db9e75"/><path d="M15.6 10.7C6 13 2 2 2 2c-.5 16 14.8 14.6 15.5 13.4 1-1.6.3-5.2-1.9-4.7zm17.8 0C43 13 47 2 47 2c.5 16-14.8 14.6-15.5 13.4-1-1.6-.3-5.2 1.9-4.7" fill="#f6c799"/><path d="M32.6 33.1c-1.6-.8-3.9.6-5.1 3.2-1.2 2.6-.9 5.3.8 6.1 1.6.8 3.9-.6 5.1-3.2 1.1-2.6.8-5.3-.8-6.1m-16.1 0c-1.6.8-2 3.5-.8 6.1 1.2 2.6 3.5 4 5.1 3.2 1.6-.8 2-3.5.8-6.1-1.2-2.6-3.5-4-5.1-3.2" fill="#3e4347"/></svg>