<svg xmlns="http://www.w3.org/2000/svg" viewBox="0 0 64 64"><path fill="#d87512" d="M18.8 44.6c-7.9 1-11.6-5.2-8.3-11.2 5.3-9.8 4.8-15.3 2.5-20-1.7-3.5-7.6-1.3-5.4 2.6 3.8 6.7.2 9.9-2 17.5-3.4 11.7 7.3 16.3 13.8 14l-.6-2.9"/><path d="M12.7 43.7s.3 1.2 0 3c0 0 2.1-.5 1.9-2.3 0 0-.7-.2-1.9-.7m-2.4-2.3s-.1 1.4-1.2 2.9c0 0 2.1.6 2.8-1.1 0-.1-.8-.8-1.6-1.8m-1-3.9s-.8 1.2-3.1 2.1c0 0 1.6 2.3 3.6.9 0-.1-.4-1.2-.5-3M14 15.7s-1.7.9-3.8 3.5c0 0 1.9 1.5 4.5 2.2 0 .1.5-3.1-.7-5.7m.3 8.2s-2.8.5-5.4 2.7c0 0 1.6 1.7 3.6 2.6 0 .1 1.5-3.3 1.8-5.3m-3 8s-1.5-.2-4.5.6c0 0-.1 3 2.8 2.9.1.1.9-1.6 1.7-3.5" fill="#bc600d"/><path fill="#d87512" d="M53.9 37H18.1c-.9 1-4.3 5.9.2 15.8 3.4 7.5 32.1 7.5 35.5 0 4.4-9.9 1-14.8.1-15.8"/><path d="M54.8 38.3s-.3 5-4.7 11.3c0 0 4.4-2 5.8-5.1 0 0 .5-3.5-1.1-6.2m.9 8.5s-1.1 2.2-3.6 4.6c0 0 1.8 0 2.6-.9 0-.1.8-1.7 1-3.7m-38.5-8.5s.3 5 4.7 11.3c0 0-4.4-2-5.8-5.1 0 0-.5-3.5 1.1-6.2m-.9 8.5s1.1 2.2 3.6 4.6c0 0-1.8 0-2.6-.9 0-.1-.8-1.7-1-3.7" fill="#bc600d"/><path fill="#f29a2e" d="M22.5 36s0 21.2 2.9 24.3c2 2.2 8.7 2.3 10.6 0 1.9 2.3 8.6 2.1 10.6 0 2.9-3.1 2.9-24.3 2.9-24.3h-27"/><path fill="#3e4347" d="M36 60.4c-.7-2.6-.7-12.9 0-15.5.7 2.6.7 12.9 0 15.5"/><path d="M23.4 53.2s3.4-3.6 8.6 0c0 0-5.7 2.5-7.4 5.8.1 0-.9-2.3-1.2-5.8m-.7-7.9s3.8-3.2 7.9 1.6c0 0-4.3-.5-7.5 3.8 0 0-.5-3.3-.4-5.4m25.9 7.8s-3.4-3.5-8.6 0c0 0 5.7 2.5 7.4 5.8-.1.1.9-2.2 1.2-5.8m.7-7.8s-3.8-3.2-7.9 1.5c0 0 4.3-.5 7.5 3.8 0 .1.5-3.1.4-5.3" fill="#bc600d"/><path fill="#f29a2e" d="M28.4 7.6c0 4.3-2.7 7.8-6 7.7C12.7 15.1 16.7 2 16.7 2 20 2 28.4 3.3 28.4 7.6z"/><path fill="#bc600d" d="M24.7 8.4c0 2.3-1.4 4.2-3.2 4.1-5.2-.1-3-7.1-3-7.1 1.8.1 6.2.8 6.2 3"/><path fill="#f29a2e" d="M43.6 7.6c0 4.3 2.7 7.8 6 7.7C59.3 15.1 55.3 2 55.3 2 52 2 43.6 3.3 43.6 7.6z"/><path fill="#bc600d" d="M47.3 8.4c0 2.3 1.4 4.2 3.2 4.1 5.2-.1 3-7.1 3-7.1-1.8.1-6.2.8-6.2 3"/><path fill="#f29a2e" d="M55.9 32.5c0 6.9-39.8 6.9-39.8 0C16.1 3.4 27.5 4.2 36 4.2c8.5 0 19.9-.8 19.9 28.3"/><g fill="#3e4347"><path d="M44 10.1c-1.8-6.7-14.3-6.8-16.1 0 3.6-3 12.6-3 16.1 0"/><path d="M41.5 12.7c-1.2-4.5-9.8-4.6-11 0 2.9-2.4 8.1-2.4 11 0"/></g><path fill="#ffe8bb" d="M59 28.5c-.2-7.1-4.4-10.6-4.4-10.6s2.6 26-12.7 13.4H30.1C14.8 43.9 17.4 17.9 17.4 17.9s-4.2 3.5-4.4 10.6l2.1-1.2s-2.2 4.7.2 10.4l2.2-2.6s.6 5.4 6.5 8.2l.3-2.4s4.5 3.5 11.7 3.5 11.7-3.5 11.7-3.5l.3 2.4c5.9-2.8 6.5-8.2 6.5-8.2l2.2 2.6c2.3-5.7.2-10.4.2-10.4l2.1 1.2"/><path d="M30.1 31.3s-13 9.8-12.7-13.4c0 0-3.1 27.6 12.7 13.4m11.8 0s13 9.8 12.7-13.4c0 0 3.1 27.6-12.7 13.4" fill="#3e4347"/><path fill="#f5f5f5" d="M40.3 23c2.3 6.3 1.6 8.3 1.6 8.3L36.1 33l-6-1.7s-.7-2.1 1.6-8.3c-10.1 16.8-.6 19-.6 19s-.4 2.7 2.5 5.1v-1.8S34.2 47 36 48c1.8-1 2.4-2.7 2.4-2.7v1.8c1.6-.9 2.1-2.8 2.1-2.8l.7 1.4c2.3-3.3 1.5-5.6.8-6.7v.1s8.4.7-1.7-16.1"/><g fill="#3e4347"><path d="M36 38.9c-.2-.7-.8-4.2-.7-6.3h1.3c-.1 2 .5 5.3.6 5.8l-1.2.5"/><path d="M31.1 42.1c5.2-5.2 9-6.8 11-3-3.1-2.5-6.7 2-11 3"/></g><path fill="#947151" d="M41.7 31c-2.3-1-9.3-1-11.4 0-.8.4 1.5 2.7 5.7 2.7s6.5-2.4 5.7-2.7"/><path fill="#ffe8bb" d="M32.4 21.6c-1.7 10.7-14 8-14-1.4 0-5 0-5 7.7-6.7 7.8-1.6 7 4.1 6.3 8.1"/><path fill="#3e4347" d="M31.2 22.2c-.7 7.6-12 6.4-11.2-1.2.3-2.9.3-3.2 5.9-2.6 5.5.6 5.5.8 5.3 3.8"/><path fill="#fff" d="M29.5 21.7c-.5 4.6-8.5 3.9-7.9-.7.2-1.7.2-1.8 4.2-1.5 3.9.4 3.9.5 3.7 2.2"/><path fill="#3e4347" d="M28.9 20.8c0 1.1-.8 1.9-1.8 1.9s-1.8-.9-1.8-1.9.8-1.7 1.8-1.7 1.8.7 1.8 1.7"/><path fill="#ffe8bb" d="M39.6 21.6c1.7 10.7 14 8 14-1.4 0-5 0-5-7.7-6.7-7.8-1.6-7 4.1-6.3 8.1"/><path fill="#3e4347" d="M40.8 22.2c.7 7.6 12 6.4 11.2-1.2-.3-2.9-.3-3.2-5.9-2.6-5.6.6-5.6.8-5.3 3.8"/><path fill="#fff" d="M42.5 21.7c.5 4.6 8.5 3.9 7.9-.7-.2-1.7-.2-1.8-4.2-1.5-3.9.4-3.9.5-3.7 2.2"/><path fill="#3e4347" d="M46.1 20.8c0 1.1.8 1.9 1.8 1.9s1.8-.9 1.8-1.9-.8-1.7-1.8-1.7-1.8.7-1.8 1.7"/></svg>