<svg xmlns="http://www.w3.org/2000/svg" viewBox="0 0 64 64"><g fill="#64892f"><path d="m28.7 60.6 3-4.2s-1.5-1-2.4-1.1c-.9-.1-2.6.4-2.6.4l2 4.9"/><path d="m34.3 60.1 1.8-5s-1.7-.5-2.6-.3c-.9.2-2.3 1.2-2.3 1.2l3.1 4.1"/><path d="m39.5 58.9 1.3-5.2s-1.7-.2-2.6 0c-.9.3-2.2 1.6-2.2 1.6l3.5 3.6m18.3-13-2-4.9s-1.5 1.1-2 1.9c-.5.8-.8 2.8-.8 2.8l4.8.2m3.1-7.9-3.3-3.9s-1.1 1.5-1.3 2.5c-.2 1 0 2.9 0 2.9l4.6-1.5m1.1-9.4-4.2-2.7s-.7 1.8-.6 2.8c0 1 .8 2.8.8 2.8l4-2.9m-1.3-8.8L56 18.6s-.1 2 .2 2.9c.3.9 1.5 2.4 1.5 2.4l3-4.1m-2.9-7.4-4.8-.5s.1 2 .4 2.9c.4.9 1.7 2.2 1.7 2.2l2.7-4.6m-4.4-6.3-4.5 1.8s.8 1.7 1.5 2.4c.7.6 2.4 1.1 2.4 1.1l.6-5.3"/></g><path fill="#769e2a" d="M26.4 44.7c-2-9.3-13.2-2.7-13 4.7.1 4.4-13.5 7.1-.2 7.1 3.1 0 5.4.6 6-5.6.2-2.2 9.4 3.7 7.2-6.2"/><path fill="#83b533" d="M51 8.7c2.1.6 12.4 19.8 4.6 34.6C43 66.9 7.4 63.5 4.8 38.5c-1.4-13.2 5.3-12.7 5.3-9-3.1-1.1-2.5 9.8 2.3 12.7 10.9 6.6 19.9-2 23-7.6 3.1-5.7.5-12.7.5-15.5S51 8.7 51 8.7"/><path fill="#ffd93b" d="M14.1 45.2C29.2 55.9 41.7 42 46 32.7c3.6-7.7 1.7-16.8.9-22.3-4.5 2.5-11.2 6.5-11.2 8.3 0 2.7 2.7 9.8-.5 15.5S18.9 48.7 10 39.4c.9 2.1 2.6 4.7 4.1 5.8"/><g fill="#8cc63e"><path d="M53.5 48.2c-1.6-7.1-3.8-12-6.3-10.6s.6 10.1-2.9 15.8c-5.7 9.2 1.9 2.5 5.4 4.5 13.2 7.3 5.9-.4 3.8-9.7"/><path d="M54 49.3c-2.2-4.8-4.4-7.9-6-6.2-1.6 1.7 1.9 13.7 4.7 14.2 10.5 2.1 4.2-1.7 1.3-8"/></g><path d="M36.8 27.1c1.8-.8 7.4-1.7 11-.6m-11.8 6c1.9-.3 5.6.2 9 2.1m-13.4 3.9c1.9.1 4.9 1 7.9 3.7M25.9 42c1.8.8 3.3 2.3 5.4 5.9M18 43.4s1 .4 1.5 4.6" fill="#d3b226"/><path fill="#769e2a" d="M34.7 37.6c0 1.4-.5 2.7-2 2.7s-2.8-1.1-2.8-2.5 2.8-3.8 4.3-3.8.5 2.2.5 3.6"/><path fill="#8cc63e" d="M33.9 49.1c-2.2-10.2-14-3-13.8 5.2.1 4.9-14.4 7.7-.2 7.7 3.3 0 5.7.7 6.3-6.2.2-2.4 10 4.1 7.7-6.7"/><path d="m2 34.6 3.6 2.5s.6-1.6.6-2.5-.6-2.5-.6-2.5L2 34.6m.8 6.5 4 1.5s.3-1.7.1-2.6c-.2-.9-1.1-2.3-1.1-2.3l-3 3.4m2.1 6.2 4.2.5s-.1-1.7-.4-2.5c-.3-.8-1.5-1.9-1.5-1.9l-2.3 3.9m3.2 6.3 4.8-.7s-.5-1.9-1-2.7c-.5-.8-2.1-1.7-2.1-1.7l-1.7 5.1m5.8 5.2 4.3-2.4s-1-1.6-1.7-2.2c-.7-.5-2.5-.9-2.5-.9l-.1 5.5" fill="#64892f"/><path fill="#83b533" d="M50.6 11c1.9 1.8 6.1 6.3 3.7 10.2s-12.8 7.1-23.4 4.3S6 16.8 5.5 14.4s1.1-2.4 2.2-1.6S50.6 11 50.6 11z"/><ellipse cx="38.6" cy="7.6" fill="#8cc63e" rx="5.4" ry="5.6"/><ellipse cx="38.6" cy="7.6" fill="#fff" rx="4.4" ry="4.6"/><ellipse cx="38.6" cy="7.6" fill="#3e4347" rx="3.1" ry="3.3"/><path fill="#e8f94b" d="M7 12.1v3.3l2.2-1.2.2 2.5 2-1.7.9 3.4 2.6-2.1 1.3 3.6 3-2.5 1.7 4.3 5.3-3.7.4 5.3 3.8-3.4 1.9 4.8 3.4-4.5 2.6 5.2 3.2-5.2 2.8 5.1 1.8-5.3 3.9 3.4-.4-4.8 4.4 1.2-3.4-4.8 2.6-.2-2.7-2.7-17.2 4.5-17.4-2.4z"/><path fill="#8cc63e" d="M9.8 8.6c0 2.5-.7 2.4-1.6 2.4-.9 0-1.6.1-1.6-2.4 0-1.4.7-2.4 1.6-2.4.9-.1 1.6 1 1.6 2.4"/><ellipse cx="7.7" cy="8.6" fill="#4b662b" rx=".6" ry="1.7"/><g fill="#8cc63e"><path d="M4.5 10.7c-.3-6.3 16.2 6 36.9-2.3 5-2 9.8-.1 10.1 6.1.3 6.3-4.1 7.1-9.5 7.8-5.6.8-37.2-5.3-37.5-11.6"/><path d="M14.8 9.9c0 3.7-1 3.6-2.3 3.6-1.3 0-2.3.1-2.3-3.6 0-2 1-3.6 2.3-3.6 1.2 0 2.3 1.6 2.3 3.6"/></g><ellipse cx="12" cy="9.9" fill="#4b662b" rx="1.3" ry="2.6"/><ellipse cx="46.1" cy="7.6" fill="#8cc63e" rx="5.4" ry="5.6"/><ellipse cx="46.1" cy="7.6" fill="#fff" rx="4.4" ry="4.6"/><ellipse cx="46.1" cy="7.6" fill="#3e4347" rx="3.1" ry="3.3"/></svg>