<svg xmlns="http://www.w3.org/2000/svg" viewBox="0 0 64 64"><path fill="#8cc63e" d="M61.7 24.3c-.1-1-.3-1.9-.5-2.6-.4-1.4-.7-2.3-1-2.9-.3-.7-.6-1.1-.9-1.5-.5-.8-1-1.3-1.5-1.7-.9-.8-1.7-1.4-2.5-1.9-1.6-.9-3.2-1.5-4.7-2.1-3.1-1-6.2-1.6-9.2-2.1-6.1-1-12.2-1.4-18.3-1.9-1.5-.1-3-.3-4.5-.6-.4-.1 2-.9 3.2-1.3 6-1.6 12.1-2.6 18.2-3.2-6.1-.5-12.2-.7-18.3-.3-7.7.6-9.5 2.8-9.2 6.4.1.9.3 1.1.4 1.4.1.2.2.4.3.5.2.2.3.3.4.5.9.8 1.6 1.2 2.4 1.6.8.4 1.5.7 2.3 1 1.5.6 3 1 4.6 1.5 6.1 1.8 12.1 3.5 18 5.8 3 1.1 5.9 2.4 8.8 4 1.1.6-19.6 14.1-25.6 14.8l.7 19.5c6.1-2.1 12.2-4.4 18.3-7.9 1.5-.9 3.1-1.8 4.6-2.9 1.5-1.1 3-2.2 4.5-3.4 1.5-1.3 3-2.6 4.6-4.4.8-1 1.6-1.9 2.5-3.6.5-.9 1-1.8 1.6-4.1.3-1.1.6-2.8.7-5.1.3-1.3.2-2.4.1-3.5"/><path d="M50.5 27.6c-2.9-2.3-6.1-4-9.4-5.5-3.3-1.5-6.6-2.7-10-3.9C27.7 17 24.4 16 21 14.8c-1.7-.6-3.4-1.2-5-2-.8-.4-1.6-.9-2.4-1.6-.4-.4-.7-.8-.9-1.3-.2-.5-.3-1.1-.3-1.8 0 .6-.2 2.5 3.7 4.2 1.6.7 3.4 1 5.1 1.5 3.4.8 6.8 1.5 10.3 2.4 3.4.8 6.9 1.7 10.3 2.8 3.4 1.2 6.8 2.6 10.1 4.7l-1.4 3.9M18 6.4c1.9-.7 3.7-1.1 5.5-1.6 1.8-.4 3.7-.8 5.5-1.1 3.7-.6 7.4-1 11-1.1-3.7.4-7.3 1.1-11 2l-5.4 1.5c-1.8.6-3.6 1.2-5.3 2L18 6.4" fill="#ffd93b"/><path d="m46 33.6-2.3-4c4.6-2.9 5.4-5 5.7-6.9.3-1.8-.3-3.3-1.5-4.4l2.3-5.2c2.7 2.5 4 6.5 3.4 10.8-.7 4.9-3.7 8.7-7.6 9.7M22.9 9.4C17.6 9 16.7 8.3 16.7 5h1.2c0 1.8 0 2.2 5.1 2.7l-.1 1.7" fill="#8cc63e"/><path fill="#ffd93b" d="m31.7 51.5 2.4-.6c.8-.2 1.5-.4 2.3-.6 1.5-.4 3.1-.9 4.6-1.5 3-1.1 6.1-2.5 8.9-4.2 2.9-1.8 5.7-3.9 8-6.8 1.1-1.5 2.2-3.2 2.9-5.2.7-2 1.1-4.2 1-6.5.3 2.3.2 4.7-.3 6.9-.5 2.3-1.4 4.4-2.5 6.2-2.1 3.7-4.8 6.7-7.7 9.2-8 8-19.1 8.3-19.1 8.3l-.5-5.2"/><path fill="#e8f94b" d="M2.1 50.4c.3-1.2 1.5-2.3 2.6-2 1.1.3 1.7 1.8 1.4 3-.3 1.2-1.3 1.5-2.4 1.3-1.1-.3-1.9-1-1.6-2.3"/><path fill="#252728" d="M2.9 50.7c.2-.8.9-1.4 1.6-1.3.7.2 1 1.1.8 1.9-.2.8-.8 1-1.5.8-.6-.2-1.1-.7-.9-1.4"/><path fill="#4b662b" d="M2 50.4c.3-1.3 1.6-2.5 2.8-2.2 1.2.3 1.8 1.9 1.5 3.3C4.4 49.9 2 50.4 2 50.4"/><path fill="#8cc63e" d="M3.1 54.5c-.4-9.8 13-15.1 21.5-15.5 8.4-.4 15.3-.2 15.8 9.6.4 9.8-6.4 11.1-14.8 12.2-8.8 1.3-22 3.6-22.5-6.3"/><path d="M8 55.2c-.3.9-.9 1.7-1.2 1.6-.4-.1-.4-1.1-.1-2 .3-.9.7-1.4 1.1-1.2.3 0 .5.6.2 1.6m-3.2-.9c0 .6-.2 1.2-.5 1.2-.2 0-.4-.6-.4-1.3 0-.6.2-1 .5-1s.4.4.4 1.1" fill="#4b662b"/><path fill="#e8f94b" d="M12.9 52.3c0-2.7 2.1-5.6 4.7-5.6s4.7 2.9 4.7 5.6c0 2.7-2.1 3.9-4.7 3.9s-4.7-1.2-4.7-3.9"/><path fill="#252728" d="M14.7 52.5c0-1.7 1.3-3.5 2.9-3.5s2.9 1.8 2.9 3.5-1.3 2.4-2.9 2.4-2.9-.8-2.9-2.4"/><path d="M12.6 52.4c0-2.9 2.2-6 5-6s5 3.1 5 6c-5-2.4-10 0-10 0m26.7-20.1c5.3.8 12.2 2.8 15 6.3 0 0-2-7.2-8.2-10.7-.2.2-.5.4-.7.6-1.8 1.1-3.9 2.4-6.1 3.8M44 44.7s-1.4-7-7.1-11c-2.4 1.4-4.8 2.7-7 3.8 5.2 1.2 11.7 3.6 14.1 7.2m3.4-18.1c4.2-.6 10.2-.2 12.9 1 0 0-3.8-4.9-10.9-5.4 0 0-.3 2.5-2 4.4m12-9.3c-.5-.8-1-1.3-1.5-1.7-.4-.3-.7-.6-1-.9-5.4 1.6-7.1 5.8-7.1 5.8 2.3-1.9 6.5-1.5 10.5-1.7v-.1c-.4-.6-.7-1.1-.9-1.4m-37.1-5.2c.6-1.6 2.6-3.1 4.5-4.2-1.1-.1-2.2-.2-3.4-.3-1.2 2.2-1.1 4.5-1.1 4.5m-5.9-1.9c1.1-1.3 3.9-2.2 6.1-2.6-.8-.1-1.5-.2-2.3-.3-.7-.1-1.2-.3-1.5-.4-1.8 1.5-2.3 3.3-2.3 3.3m31.3.6c-2.3 4-2.5 7.9-2.5 7.9 1.2-2.5 4.1-4.6 7.3-6.4-.6-.3-1.3-.5-1.9-.7-1-.3-1.9-.5-2.9-.8m-14.3 3.8c.7-2.1 3.4-4 5.9-5.4-1.4-.2-2.8-.4-4.3-.5-1.8 2.7-1.6 5.9-1.6 5.9m6.9-5.2C39 12.9 39 16 39 16c.9-2.1 3-4.2 5.4-5.9l-3-.6c-.4 0-.7-.1-1.1-.1m-12.4 4.4c.7-2 3.3-3.9 5.6-5.3-1.4-.1-2.8-.3-4.2-.4-1.5 2.7-1.4 5.7-1.4 5.7M17.6 6.6s-1.9-1.2-4.3-1.4c-.5.7-.7 1.6-.8 2.6 1.7-.9 3.6-1.5 5.1-1.2m1.3-1s-.2-1.4-.9-2.9c-.7.1-1.3.3-1.8.5 1.2.7 2.2 1.5 2.7 2.4m11.6-2.7V2h-.4c.1.3.3.6.4.9m-4.8 1s0-.8-.1-1.8h-1c.5.6.9 1.2 1.1 1.8m9.2-1.3v-.4h-.2c.1.1.2.3.2.4m-12.8-.4h-.4c-.3 0-.6.1-1 .1.7.7 1.3 1.5 1.6 2.2 0 0 0-1-.2-2.3m10.8.4v-.5h-.2c.1.2.2.3.2.5m-4.7.7s0-.5-.1-1.3h-.7c.4.4.7.9.8 1.3" fill="#4b662b"/></svg>