<svg xmlns="http://www.w3.org/2000/svg" viewBox="0 0 64 64"><g fill="#0dccd1"><path d="M35.3 45.7c.6 3.7-.5 8.7-2.6 9.2s-4.5-3.8-5.1-7.5c-.6-3.7.9-5.6 3.1-6 2.1-.5 4.1.6 4.6 4.3"/><path d="M54.1 11.3c-3.8 0-6.8-4.3-7.3-2.3-.5 2.3 3.5 6.7 6 6.7 0 0-8.6 6.2-46.7 6.2-3.5 0-3.9 4.4-3.9 4.4 11 10.5 27.7 30.7 44.5 18.1 7.9-6 9.7-24.9 9.8-27.7 4.6-1.6 5.6-4.2 5.6-7.6-.1-3.4-2.4 2.2-8 2.2"/></g><path fill="#dae5ef" d="M2.2 26.4s-.4 3.3 0 6c1.3 7.9 7.5 18.4 24.9 18.4 10.8 0 13-1.4 17.8-4.9.7-.5 1.3-1 1.8-1.5C31.5 48.5 20 37 20 27.9c0-1.6-11.8-2.1-17.8-1.5"/><g fill="#fff"><path d="M45.1 45.5c-3.2 1.4-6.8 2.1-10.4 1.9-3.6-.2-7.1-1.3-10.2-3.1-3.1-1.8-5.8-4.4-7.6-7.5-1.9-3.1-2.9-6.7-2.7-10.4l1.9.1c-.3 3.3.5 6.7 2.1 9.6 1.6 3 4 5.5 6.9 7.4 2.9 1.9 6.2 3.1 9.7 3.4 3.5.4 7.1-.1 10.3-1.4"/><path d="M39 49.3c-3.6.3-7.2.2-10.7-.5-3.5-.7-7-2-10-4.1-3-2.1-5.5-4.8-7.2-8.1-1.7-3.2-2.6-6.9-2.4-10.6l1.9.1c-.3 3.3.3 6.8 1.8 9.9 1.4 3.1 3.7 5.8 6.5 7.9 2.8 2.1 6.1 3.6 9.5 4.4 3.5 1 7.1 1.2 10.6 1"/><path d="M28.7 50.8c-3.2-.4-6.4-1-9.4-2.1S13.4 46 11 43.8c-2.4-2.2-4.3-4.9-5.5-8-1.2-3-1.8-6.3-1.8-9.5h1.9c-.1 3.1.2 6.1 1.2 9.1 1 2.9 2.6 5.6 4.9 7.8 2.2 2.2 4.9 3.9 7.8 5.2 2.9 1.1 6 1.9 9.2 2.4"/><ellipse cx="29.3" cy="27" rx="2.2" ry="2.3"/></g><path fill="#3e4347" d="M30.8 27c0 .9-.7 1.6-1.5 1.6s-1.5-.7-1.5-1.6c0-.9.7-1.6 1.5-1.6.8-.1 1.5.6 1.5 1.6"/><path fill="#0dccd1" d="M26.6 28.6c.1 0 4.1 2.8 5.4-.6.7-1.8-5.4.6-5.4.6"/><g fill="#3e4347"><path d="M29.3 28.5c.3.1.5.1.8.1.3 0 .6.1.8.3.5.4.6 1 .7 1.5-.1-.3-.2-.5-.3-.7-.1-.2-.3-.4-.5-.6-.2-.1-.5-.2-.7-.3-.2 0-.5-.1-.8-.3"/><path d="M2.2 26.4c2.4-.4 4.8-.7 7.3-.7 2.5-.1 4.9.1 7.4.6 2.4.5 4.8 1.4 6.9 2.5 1.1.5 2.1 1.2 3.3 1.4 1.1.2 2.3-.3 3.4-.9-.9.8-2.1 1.4-3.4 1.3-1.3-.1-2.4-.7-3.5-1.2-2.2-1-4.5-1.8-6.8-2.3-2.3-.5-4.8-.7-7.2-.8-2.5 0-5 0-7.4.1"/></g><path fill="#0dccd1" d="M47 44.2c.7 4.8-.6 11.2-3.3 11.8-2.7.6-5.8-4.8-6.5-9.6-.7-4.8 1.2-7.1 3.9-7.7 2.7-.7 5.2.7 5.9 5.5"/></svg>