<svg xmlns="http://www.w3.org/2000/svg" viewBox="0 0 64 64"><path fill="#f29a2e" d="M18.9 46c-.7.2-1.5.6-2.2 1s-1.4.9-2 1.4c-.6.5-1.1 1.1-1.5 1.7-.4.6-.7 1.2-.8 1.8-.1.6 0 1.2.3 1.8.3.6.8 1.2 1.4 1.8.3.3.6.5 1 .8.3.2.7.5 1.1.7.7.4 1.5.8 2.3 1.1 1.6.6 3.4.9 5.2 1.2 1.8.3 3.7.5 5.5.7 1.9.2 3.7.5 5.6.8 1.8.3 3.7.7 5.5 1.1-1.9-.2-3.7-.4-5.6-.6-1.9-.1-3.7-.2-5.6-.3-1.9-.1-3.7-.1-5.6-.2-1.9-.1-3.8-.3-5.7-.8-1-.3-1.9-.6-2.8-1-.5-.2-.9-.4-1.3-.7-.4-.3-.9-.5-1.3-.9-.8-.6-1.6-1.4-2.3-2.4-.3-.5-.6-1.1-.7-1.7-.2-.6-.2-1.2-.2-1.8 0-.6.1-1.2.3-1.8.2-.6.4-1.1.7-1.6.5-1 1.2-1.9 1.9-2.6.7-.8 1.5-1.5 2.4-2.1.9-.6 1.8-1.2 2.8-1.6l1.6 4.2"/><circle cx="44.6" cy="12.4" fill="#999a9c" r="10.4"/><circle cx="44.5" cy="13.6" fill="#ffc5d3" r="7.7"/><circle cx="19.4" cy="12.4" fill="#999a9c" r="10.4"/><circle cx="19.5" cy="13.6" fill="#ffc5d3" r="7.7"/><path fill="#999a9c" d="M50.3 45.9c0-10.2-4-19.5-5.3-22.3-.1-.3-.2-.5-.3-.8C42.9 19 38.9 10.6 32 10.6c-6.9 0-10.9 8.4-12.6 12.2-.1.3-.2.5-.3.8-1.3 2.8-5.3 12.2-5.3 22.3 0 8.4 2.7 10.6 6.9 11 .2.9 1.1 1.6 2.1 1.6h1.5c1.1 0 2-.8 2.2-1.8 1.7-.1 3.6-.3 5.5-.3 1.8 0 3.6.1 5.3.3.1 1 1.1 1.8 2.2 1.8H41c1 0 1.9-.7 2.1-1.6 4.4-.3 7.2-2.4 7.2-11"/><g fill="#ffc5d3"><ellipse cx="41.7" cy="33.8" rx="3.2" ry="2.2"/><ellipse cx="22.3" cy="33.8" rx="3.2" ry="2.2"/></g><path fill="#3e4347" d="M34.9 33.8c-.6-.6-2.4-.7-2.9-.7s-2.3 0-2.9.7c-.4.4-.1 1.5 1 2.4.7.6 1.4.8 1.9.8s1.2-.2 1.9-.8c1.1-.9 1.4-2 1-2.4"/><ellipse cx="25.2" cy="26.7" fill="#fff" rx="4.6" ry="4.5"/><ellipse cx="25.2" cy="26.7" fill="#3e4347" rx="3.2" ry="3.1"/><ellipse cx="38.8" cy="26.7" fill="#fff" rx="4.6" ry="4.5"/><g fill="#3e4347"><ellipse cx="38.8" cy="26.7" rx="3.2" ry="3.1"/><path d="M31 39.3c.1-.3.3-.5.5-.7.2-.2.5-.3.7-.4.3-.1.5-.2.8-.2.3 0 .6 0 .8.3-.3 0-.5.2-.7.3-.2.1-.4.2-.7.3-.2.1-.5.2-.7.3-.2 0-.4 0-.7.1"/></g></svg>