<svg xmlns="http://www.w3.org/2000/svg" viewBox="0 0 64 64"><path fill="#728389" d="M46.4 39.2h9.9v15.7h-9.9z"/><path fill="#3e4347" d="M51.4 60c2.7 0 4.9-2.2 4.9-5h-9.9c0 2.8 2.3 5 5 5"/><path fill="#728389" d="M22.4 39.2h9.9v15.7h-9.9z"/><path fill="#3e4347" d="M27.3 60c2.7 0 4.9-2.2 4.9-5h-9.9c.1 2.8 2.3 5 5 5"/><g fill="#8d9ba3"><path d="M62 24.8c-.1-1.5-1-3.6-2.5-5.8-2.3 1.4-3.8 2.9-4.4 4.3 0 1.4.8 3.1 2 5-1.8 6.7-6.8 12.2-6.8 12.3l1.1 1c.3-.3 5.4-6 7.3-13.2 1.6-1.2 2.8-2.4 3.3-3.6"/><path d="M59.3 41.5c0 6.8-6.1 9.3-13.6 9.3H25.4s-8.2-.3-8.2-9.5c0-7.3 2.8-11.4 2.8-11.4h16.6c2.3 2.3 6.9 1.2 9.2 1.2 7.2 0 13.5 3.5 13.5 10.4"/><path d="M25.4 41.2h9.9v15.7h-9.9z"/></g><path fill="#3e4347" d="M30.3 62c2.7 0 4.9-2.2 4.9-5h-9.9c.1 2.8 2.3 5 5 5"/><path fill="#8d9ba3" d="M49.4 41.5h9.9V57h-9.9z"/><path fill="#3e4347" d="M54.4 62c2.7 0 4.9-2.2 4.9-5h-9.9c0 2.8 2.3 5 5 5"/><path fill="#8d9ba3" d="M6.8 18.3c-1.9 2.4-3.3 6-3.9 10.2 5-.7 9.4-1.7 11.7-3.8 2.3-2.1 3.3-6 3.9-10.2-5 .8-9.1 2.1-11.7 3.8"/><path fill="#3e4347" d="M6.1 27c.4-3 1.4-5.5 2.7-7.2 1.8-1.2 4.7-2.1 8.2-2.6-.4 3-1.1 5.7-2.7 7.2-1.6 1.4-4.8 2.1-8.2 2.6"/><path fill="#8d9ba3" d="M49.6 18.3c1.9 2.4 3.3 6 3.9 10.2-5-.7-9.4-1.7-11.7-3.8-2.3-2.1-3.3-6-3.9-10.2 5 .8 9.2 2.1 11.7 3.8"/><path fill="#3e4347" d="M50.4 27c-.4-3-1.4-5.5-2.7-7.2-1.8-1.2-4.7-2.1-8.2-2.6.4 3 1.1 5.7 2.7 7.2 1.5 1.4 4.7 2.1 8.2 2.6"/><path fill="#8d9ba3" d="M28.2 8.6c-6.7 0-12.5 7.8-12.2 13.3.2 2.8 3.9 8 3.9 8h16.6s3.8-5.1 3.9-8c.3-5.5-5.4-13.3-12.2-13.3"/><g fill="#3e4347"><path d="M38.1 18.1c0 1.2-1 2.2-2.2 2.2-1.2 0-2.2-1-2.2-2.2s1-2.2 2.2-2.2c1.2 0 2.2 1 2.2 2.2"/><circle cx="20.5" cy="18.1" r="2.2"/></g><path fill="#c5ccd6" d="M36.5 30.6c-.5 7.9-16.1 7.9-16.6 0-.2-3.3 3.7-10.2 8.3-10.2s8.5 6.9 8.3 10.2"/><path d="M25.8 28.1c-.5-1.6-1.5-2.6-2.2-2.1-.7.5-.8 2.3-.3 3.9s1.5 2.6 2.2 2.1c.6-.5.8-2.2.3-3.9m7-2c-.7-.5-1.7.4-2.2 2.1-.5 1.6-.4 3.4.3 3.9s1.7-.4 2.2-2.1c.5-1.7.4-3.4-.3-3.9" fill="#3e4347"/><path fill="#a9afb8" d="M34.4 35.3c-.1 1.3-2.8 3.3-6.2 3.3-3.4 0-6-2-6.2-3.3-.2-1.6 2.8.3 6.2.3 3.4-.1 6.3-1.9 6.2-.3"/><path fill="#8d9ba3" d="M35.8 9.2c0 6.2-5.5 3.1-7.6 3.1s-7.6 3.1-7.6-3.1 5.5-3.4 7.6-3.4c2.1 0 7.6-2.9 7.6 3.4"/><g fill="#c5ccd6"><path d="M24.5 5.7c-6.5 0-10 7.7-15.3 7.7-6.9 0-2.5-12.3 6.7-10.4C1.7-2.8-2.6 18 7.7 18c10.8 0 9.7-5.5 18-5.5 3 0 3.1-6.8-1.2-6.8"/><path d="M32 5.7c6.5 0 10 7.7 15.3 7.7 6.8 0 2.4-12.3-6.8-10.4 14.2-5.8 18.6 15 8.2 15-10.8 0-9.7-5.5-18-5.5-3 0-3.1-6.8 1.3-6.8"/></g></svg>