<svg xmlns="http://www.w3.org/2000/svg" viewBox="0 0 64 64"><g fill="#ffecd6"><path d="M11.4 4.3C1.7-2.4-.3 7 4.4 14c4.6-2.3 5.8-7.2 7-9.7"/><path d="M11.3 22.3c3.1-4.1 6.2-9.3 7.9-14.7-1.9-2.1-4.7-3.3-6.7-2.7-.7 2.8-2.5 4.8-4.3 6.9-1.1 1.3-2 2.7-3.2 3.9-1.8 3.5-.5 9.6 1.6 11.4 1.7-1.4 3.3-2.9 4.7-4.8"/><path d="M38.6 54.4c3.6 0 23 2.5 23-5.6 0-18.7-2.4-34.4-25.6-34.4-2.7 7.2-4.3 6.6-1.6 0-1.5-5-8.7-8.6-14.4-6.4-1.5 5.1-4.2 10.4-7.1 14.2-1.8 2.4-3.7 4.6-5.9 6.6C7 45 24.7 54.4 38.6 54.4"/></g><path fill="#ddb199" d="M13 4.8s-1.1.1-2-.7c-2.6 6.3-7 9.4-7 9.4 1.1 1.6.6 3.3.6 3.3 1.4-1.5 6.2-5.5 8.4-12"/><path fill="#29251c" d="M24.7 29.9c-1.8 2 33.8 32.3 33.8 29.3 0-3.4-.5-3.5-.6-5.3-.1-1.8 2.6-8.8-.4-13-1.3-1.8-6.3-8.6-7.5-10.5-1.2-1.9-10.3-4.8-12.4-5-2.1-.4-11.1 2.5-12.9 4.5"/><path fill="#c1875d" d="M58.8 48.7c-1-.8-8.9-.9-12.9-2.8-5.7-2.8-10.5-4.7-12-8.9-1.4-3.9-2.4-8.3-2.6-10.3-.1-1.1-6.3 2.9-6.6 3.2-1.8 2-1.6 6 .4 10.7 2 4.8 8.5 10.7 9.6 10.8 1 .1 8.4 6.1 11.2 6.6 2.9.4 3.6.2 4.3.8.7.6 2.2 1.8 3 1.8.5 0 2.6 1.4 3.9.7 1.6-.2 1.6-3 1.4-6-.1-2.7 1.6-5.6.3-6.6"/><path fill="#ffd6bb" d="M52.2 58.2c-5.5-.5-22.6-8.8-26-17.7-1.5-3.9.5-9.5.3-11.5-.1-1.1-1.5.6-1.7.8-1.8 2-4 7.7-2.1 12.5C27.5 54.8 49.1 62 53.3 62c2.7 0 4.2-.8 4.2-.8s-1.7-2.7-5.3-3"/><g fill="#ddb199"><path d="M20.8 7.7c-1.5.2-2.3-.9-2.3-.9-2.2 7-9.7 17.4-12.5 19.5.9 1.3 1 3.7 1 3.8 3.6-3.4 11.5-12.9 13.8-22.4M31 27.1s3.7-5.4 6.3-12.6c0 0-2 .1-3.1-.8-2.7 6.6-7.9 14.3-7.9 14.3l4.7-.9"/><path d="M23.8 31.7c.5-.7 5.9-3.2 9.8-3.5 13.1-.9 24 13.6 24.7 20.5.2 1.6-1.4 3.7-1.4 5 0 3.3 1.6 5.2 1.6 5.2s.1-3 1.2-5.1c.2-.4 2.3-3.6 2.2-5.1-.1-13.6-16.6-25.4-26.5-24.7-6.1.4-10.2 4.6-10.7 5.1-1.7 1.4-1.6 3.6-.9 2.6"/></g></svg>