<svg xmlns="http://www.w3.org/2000/svg" viewBox="0 0 64 64"><path fill="#a5627a" d="M53.9 31.8c-.7-.2-1.3-.7-1.7-1.3-.4-.6-.7-1.4-.7-2.1v-1.1c.1-.4.2-.8.3-1.1.3-.7.7-1.4 1.3-1.9l.2-.2.1-.1.1-.1c.2-.1.3-.2.5-.3.3-.2.7-.4 1-.6.7-.3 1.5-.5 2.3-.5.8 0 1.6.2 2.3.6.4.2.7.5 1 .9.3.4.5.8.5 1.3s-.1 1-.3 1.3c-.2.4-.5.7-.8 1-.6.5-1.4.9-2.2 1-.4.1-.8.1-1.2 0-.4-.1-.8-.3-1.1-.6-.3-.5-.5-1-.5-1.4 0-.4.1-.8.3-1.2.3-.7.8-1.3 1.3-1.8s1.1-1 1.7-1.4c1.2-.8 2.4-1.5 3.7-2.1-1.2.8-2.3 1.6-3.4 2.5-.5.4-1 .9-1.5 1.4-.4.5-.8 1.1-1.1 1.6-.1.3-.2.6-.2.9 0 .3.1.5.3.6.3.3 1 .4 1.5.3.6-.1 1.1-.4 1.6-.8.4-.4.7-.9.6-1.4 0-.4-.4-.9-.9-1.1-.5-.3-1.1-.4-1.7-.4-1.2 0-2.4.5-3.4 1.3-.5.4-.9.9-1.2 1.5-.1.3-.3.6-.3.9-.1.3-.1.6-.2.9 0 .6.1 1.3.4 1.9.4.6.9 1.2 1.4 1.6"/><path fill="#ea83a3" d="M35.4 50.4V35.5c0-3.6 2-5.4 4.6-5.4 2.5 0 4.6 1.8 4.6 5.4v14.9c-.1 3.6-9.2 3.6-9.2 0"/><path fill="#a5627a" d="M40 55.9c0-3 .9 0 4.6 0v-5.4h-9.1c-.1 3.5 2 5.4 4.5 5.4"/><path fill="#ea83a3" d="M49 52.8V37.9c0-3.6 2-5.4 4.6-5.4 2.5 0 4.6 1.8 4.6 5.4v14.9c-.1 3.6-9.2 3.6-9.2 0"/><path fill="#a5627a" d="M53.6 58.2c0-3 .9 0 4.6 0v-5.4H49c0 3.6 2 5.4 4.6 5.4"/><g fill="#ea83a3"><path d="M59 38.3c0 9.5-2.7 15.3-23.5 15.3h-19V23.9h27c7.4 0 15.5 2.2 15.5 14.4"/><path d="M7.9 38.7c0-9.5 1.3-15.3 11.5-15.3h9.3v29.7H15.5c-3.7 0-7.6-2.2-7.6-14.4m21.5 16.6v-19c0-4.6 2.6-6.9 5.8-6.9 3.2 0 5.8 2.3 5.8 6.9v19c0 4.6-11.6 4.6-11.6 0"/></g><path fill="#a5627a" d="M35.2 62.2c0-3.8 1.1 0 5.8 0v-6.9H29.4c0 4.6 2.6 6.9 5.8 6.9"/><path fill="#ea83a3" d="M21.7 55.3v-19c0-4.6-2.6-6.9-5.8-6.9-3.2 0-5.8 2.3-5.8 6.9v19c-.1 4.6 11.6 4.6 11.6 0"/><path fill="#a5627a" d="M15.8 62.2c0-3.8-1.1 0-5.8 0v-6.9h11.6c.1 4.6-2.5 6.9-5.8 6.9"/><path fill="#fc97b2" d="M17 10.5C15 6.9 2.3 8 2.3 8S.8 20.9 4.5 22.9c2.8 1.5 14-9.5 12.5-12.4z"/><path fill="#ffd7e4" d="M14.6 12.4c-1.2-2.2-9.1-1.6-9.1-1.6s-.9 8 1.4 9.2c1.7 1.1 8.6-5.8 7.7-7.6"/><path fill="#fc97b2" d="M47.6 22.8c3.6-1.9 2.5-14.6 2.5-14.6s-13-1.5-15 2.2c-1.5 2.8 9.6 13.9 12.5 12.4"/><path fill="#ffd7e4" d="M45.6 20.4c2.2-1.2 1.6-9 1.6-9s-8-.9-9.3 1.4c-1 1.7 5.9 8.5 7.7 7.6"/><path fill="#fc97b2" d="M47.7 30.2c0 14-9.7 16.6-21.6 16.6-11.9 0-21.6-2.6-21.6-16.6 0-14 13.2-24 21.6-24 8.4 0 21.6 10 21.6 24"/><path fill="#ffd7e4" d="M37.4 38.6c0 6.5-5.1 5.7-11.3 5.7-6.2 0-11.3.7-11.3-5.7 0-6.5 5.1-9.8 11.3-9.8 6.3 0 11.3 3.3 11.3 9.8"/><g fill="#bf7b90"><ellipse cx="21.1" cy="37.2" rx="2.8" ry="5"/><ellipse cx="31.2" cy="37.2" rx="2.8" ry="5"/><path d="M26.1 16.8s-2.4-8.1-7.8-9.6c0 0 2.4-1.4 4.2-.7 0 0 .1-1.5-1.5-2.5 0 0 3.5-.7 5.2 1.7 0 0 .2-2.6-.4-3.9 0 0 5.8 1.4 7.2 6.2.1 0-5.7 1.8-6.9 8.8"/></g><g fill="#493b30"><ellipse cx="13" cy="26.4" rx="2.5" ry="4.5"/><ellipse cx="39.3" cy="26.2" rx="2.5" ry="4.5"/></g></svg>