<svg xmlns="http://www.w3.org/2000/svg" viewBox="0 0 64 64"><g fill="#6b7b7f"><path d="M59.8 44.2c1.4-7.1-2.4-14.9-2.4-15l1.1-.6c.2.3 4 8.3 2.5 15.8l-1.2-.2"/><path d="M60.9 40.4c-1.2 1.6-2 3.2-2.3 4.5 0 1.2.4 2.7 1.1 4.1 1.2-1.6 2-3.2 2.3-4.5 0-1.2-.4-2.7-1.1-4.1m-37-7.3h11.9V58H23.9z"/></g><path d="M25.5 55.6c.9 0 1.6 1.1 1.6 2.4h-3.2c0-1.3.8-2.4 1.6-2.4m3.3 0c.9 0 1.6 1.1 1.6 2.4h-3.2c0-1.3.7-2.4 1.6-2.4m3.2 0c.9 0 1.6 1.1 1.6 2.4h-3.2c0-1.3.7-2.4 1.6-2.4" fill="#808f96"/><path fill="#9caaaf" d="M25.7 33h11.9v25H25.7z"/><g fill="#ffc5d3"><path d="M27.3 55.6c.9 0 1.6 1.1 1.6 2.4h-3.2c0-1.3.7-2.4 1.6-2.4m3.3 0c.9 0 1.6 1.1 1.6 2.4H29c-.1-1.3.7-2.4 1.6-2.4"/><path d="M33.8 55.6c.9 0 1.6 1.1 1.6 2.4h-3.2c0-1.3.7-2.4 1.6-2.4"/></g><path fill="#6b7b7f" d="M41.5 33.1h11.9V58H41.5z"/><g fill="#808f96"><path d="M43.2 55.6c.9 0 1.6 1.1 1.6 2.4h-3.2c-.1-1.3.7-2.4 1.6-2.4"/><path d="M46.4 55.6c.9 0 1.6 1.1 1.6 2.4h-3.2c0-1.3.7-2.4 1.6-2.4m3.2 0c.9 0 1.6 1.1 1.6 2.4H48c0-1.3.7-2.4 1.6-2.4"/></g><path fill="#9caaaf" d="M46.3 33h11.9v25H46.3z"/><path d="M47.9 55.6c.9 0 1.6 1.1 1.6 2.4h-3.2c0-1.3.7-2.4 1.6-2.4m3.2 0c.9 0 1.6 1.1 1.6 2.4h-3.2c0-1.3.7-2.4 1.6-2.4m3.3 0c.9 0 1.6 1.1 1.6 2.4h-3.2c0-1.3.7-2.4 1.6-2.4" fill="#ffc5d3"/><g fill="#9caaaf"><path d="M59.6 32c0 9-5.3 16.7-11.8 16.2-4.3-.3-13-2.1-17.3-2.3V15.7h17.3c6.5 0 11.8 7.3 11.8 16.3"/><path d="M26 32.8c-7.7 4.2-11.5-1.5-12.1-1.2-1.1.5-2-.7-1.3-1.5 3.1-3.4-8.1-4.2-8.1-4.2 1.7-3.8 6.8-17 13-18.7 6.2-1.7 8.6-1.8 11.9.4 4.3 3 3.7 21.4-3.4 25.2"/><path d="M9.3 48.1c4.3 2.2 10.7 1.4 13.3-3.2 1-1.8-1.1-1.2-2.7-2.2-1.6-1-2.2-3-3.2-1.3-.7 1.2-2.5.8-3.6.2-1.4-.8-2.5-2.3-2.8-4.1-.5-2.4.2-5.2 1.9-8.3 1-1.8.5-3.9-1.1-4.9S6 23.2 5 25c-6.9 12.1-.3 20.8 4.3 23.1"/></g><path fill="#808f96" d="M48.2 22.8c0 10.8-6.6 15-14.8 15s-9.2-6.8-9.2-15.1 1-14.9 9.2-14.9 14.8 4.2 14.8 15"/><path fill="#9caaaf" d="M47.3 21.8c0 10.5-6.5 14.6-14.5 14.6s-9.5-6.6-9.5-14.6c0-4-1.3-9.8 0-12.5 0 0 5.5-2.2 9.5-2.2 8 .1 14.5 4.2 14.5 14.7"/><path fill="#ffc5d3" d="M44.1 22.4c0 8-4.6 11.1-10.2 11.1-8.7 0-3.8-5.2-3.8-11.4S29 11.3 33.9 11.3c5.7 0 10.2 3.1 10.2 11.1"/><path fill="#42ade2" d="M16.3 18.5c2-.5 4 .7 4.5 2.6.6 1.9-.6 3.9-2.5 4.4-2 .5-4-.7-4.5-2.6-.6-1.9.5-3.9 2.5-4.4"/><path fill="#3e4347" d="M16.6 19.8c1.3-.3 2.6.4 2.9 1.7.4 1.2-.4 2.5-1.6 2.8-1.3.3-2.6-.4-2.9-1.7-.4-1.3.4-2.5 1.6-2.8"/><path fill="#9caaaf" d="M14.9 30c-1.1-2.2.6-5.3 3.7-6.8s6.5-.9 7.6 1.3c1.1 2.2-.6 5.3-3.7 6.8-3.2 1.6-6.6 1-7.6-1.3"/></svg>