<svg xmlns="http://www.w3.org/2000/svg" viewBox="0 0 64 64"><g fill="#89664c"><path d="M50.4 59.9c-2.5 0-4.7-1.2-5.5-1.7-.9-.5-1.2-1.7-.7-2.6.5-.9 1.7-1.2 2.6-.7 2.2 1.2 3.9 1.5 5.2.9 1.6-.7 3.8-3.2 5.4-10.6 1.4-6.7 1.5-15.6-1.6-19.4-.9-1.2-2.1-1.7-3.6-1.7-3.6 0-4.6 2.5-4.6 3.9 0 .4.1 2.1 1.6 2.1.3 0 .7-.1 1-.5.3-.4.4-.9.3-1.5-.2-1 .5-2 1.5-2.2 1-.2 2 .5 2.2 1.5.3 1.7 0 3.4-1.1 4.6-1 1.2-2.5 1.9-4 1.9-3.1 0-5.3-2.5-5.3-5.9 0-1.9.8-3.8 2.1-5.2 1.1-1.1 3-2.5 6.3-2.5 2.6 0 4.9 1.1 6.5 3.1 4.1 5.1 3.8 15.3 2.3 22.5-1.5 7.3-4 11.7-7.5 13.3-1 .6-2.1.7-3.1.7"/><path d="m30 27.9-1.9 13.4c-4.9 0-6.1 9.1-4.7 17.5.1.8 5.5 1.7 5.5 1.7-1-5.3.4-7.9.4-7.9-.3 4.7.3 9.5 8.4 9.5 7.5 0 11.6-2.6 12-9.5C50.9 30.6 30 27.9 30 27.9"/></g><path d="M23.5 57.8c-2.4 1-8.4 1.5-6.9 4.2h11.9c1.9-2.7-1.8-5.6-5-4.2m15-3.6s-1.9-11.2-10.4-13c-8.4-1.8-3.4-4.6.9-3.6 10.5 2.3 9.5 16.6 9.5 16.6" fill="#e0ac7e"/><path fill="#89664c" d="M27.9 36.6h-9.5L12 57.1l3.2 3.5z"/><path fill="#e0ac7e" d="M14.8 57.3c-1.9-2.3-4.8.7-6.3 1.8-.7.5-4.5.6-3.3 2.9h8.2c2.6-.8 2.5-3.3 1.4-4.7"/><circle cx="38.8" cy="21.2" fill="#89664c" r="5.9"/><circle cx="38.8" cy="21.2" fill="#ffc5d3" r="3.8"/><circle cx="7.9" cy="21.2" fill="#89664c" r="5.9"/><circle cx="7.9" cy="21.2" fill="#ffc5d3" r="3.8"/><g fill="#89664c"><path d="M31.4 5.4c.8-.4 1.3-.6 1.3-.6-2.3-.8-4.3-1.3-6-1.5.9-.7 1.5-.9 1.5-.9C13.7.3 6.8 8.7 6.8 16.2h33c-.4-5.2-3.3-8.8-8.4-10.8"/><path d="M39.9 17.3c0-6.9-7.4-12.5-16.6-12.5-9.2 0-16.6 5.6-16.6 12.5 0 1.6.4 3.2 1.2 4.6-.7 1.4-1.2 3-1.2 4.6 0 6.9 7.4 12.5 16.6 12.5 9.2 0 16.6-5.6 16.6-12.5 0-1.6-.4-3.2-1.2-4.6.8-1.4 1.2-2.9 1.2-4.6"/></g><path fill="#e0ac7e" d="M37.6 17.8c0-12-14.2-4.4-14.2-4.4S9.1 5.8 9.1 17.8c0 3.4 2.1 6.4 5.3 8.3-.9 1.2-1.5 2.6-1.5 4 0 4.3 4.7 7.8 10.4 7.8 5.8 0 10.4-3.5 10.4-7.8 0-1.5-.6-2.9-1.5-4 3.3-1.9 5.4-4.9 5.4-8.3"/><g fill="#3b302a"><ellipse cx="24.9" cy="25.3" rx=".7" ry="1.5"/><ellipse cx="21.8" cy="25.3" rx=".7" ry="1.5"/><ellipse cx="29.5" cy="20.3" rx="2.5" ry="3.2"/><ellipse cx="17.2" cy="20.3" rx="2.5" ry="3.2"/><path d="M30.4 30.6c.4 1.1-2.7 3.3-7.1 3.3-4.4 0-7.5-2.2-7.1-3.3.5-1.1 13.8-1.1 14.2 0"/></g></svg>