<svg xmlns="http://www.w3.org/2000/svg" viewBox="0 0 64 64"><path d="M11.6 57.6c1.5-1.5.9-3.4-.1-4.4-1-1-2.9-1.6-4.4-.1-1.5 1.5-2.1 4.5-1 5.5 1 1.1 4 .5 5.5-1M8.1 43.4C9.6 41.9 9 40 8 39c-1-1-2.9-1.6-4.4-.1-1.5 1.5-2.1 4.5-1 5.6 1 1 4 .4 5.5-1.1" fill="#3e4347"/><path fill="#5b7f32" d="M51.1 57.6c4.6 0 10.9-1.1 10.9-5.9 0-5.3-5.2-10.3-10.9-10.3v16.2z"/><path fill="#94d82a" d="M40.1 47.9c0 9 6.3 9.8 10.9 9.8s9.2-2.1 9.2-5.9c0-4.5-4.6-10.3-9.2-10.3-4.5 0-10.9 1.9-10.9 6.4"/><path fill="#5b7f32" d="M42.8 57.6c15.9 0 16-19.1-.3-19.1l.3 19.1"/><path fill="#94d82a" d="M32.9 46.1c0 10.6 5.6 11.6 10 11.6 14.4 0 14-19.1-.3-19.1-4.5-.1-9.7 2.2-9.7 7.5"/><path fill="#5b7f32" d="M33.2 57.6c17.1 0 16.4-20 0-20v20"/><path fill="#94d82a" d="M21.6 45.5c0 11.1 6.5 12.1 11.6 12.1 14.1 0 14.1-20 0-20-5 0-11.6 2.4-11.6 7.9"/><path fill="#5b7f32" d="M19.3 57.6c21.4 0 19.4-23 1.5-23l-1.5 23"/><path fill="#94d82a" d="M6.3 45.2c0 11.1 7.1 12.5 13 12.5 18 0 18-23.4 0-23.4-5.9-.1-13 5.3-13 10.9"/><path fill="#5b7f32" d="M6.6 43.3s3.6 4.4 9.1 5.1c5.6.7 20-3.2 11-15.7L6.6 43.3"/><path fill="#94d82a" d="M4.3 38.2c0 5.7 6.6 8.2 12.1 8.2s12.1-2.5 12.1-8.2c0-5.7-6.6-12.5-12.1-12.5-5.6 0-12.1 6.8-12.1 12.5"/><path d="M32.1 54.8c-2.1-2.1-4.2-1.8-5.3-.7-1 1-1.4 3.2.7 5.3 2.1 2.1 5.8 3.3 6.9 2.3 1.1-1.1-.2-4.8-2.3-6.9M30 33.6c-2.1 2.1-1.8 4.2-.7 5.3 1 1 3.2 1.4 5.3-.7s3.3-5.8 2.3-6.8c-1.1-1.1-4.8.1-6.9 2.2m13.2 21.7c-1.8-1.8-3.6-1.5-4.4-.6-.9.9-1.2 2.7.6 4.4 1.8 1.8 4.9 2.8 5.8 1.9.8-.8-.2-4-2-5.7m8.8.3c-1.5-1.5-3-1.3-3.8-.5-.7.7-1 2.3.5 3.8s4.2 2.4 4.9 1.6c.8-.7-.1-3.4-1.6-4.9" fill="#3e4347"/><path d="m35.6 40 1 1-1 1-.9-1zm3 6.1.9 1-.9 1-1-1zm9.8-5.1 1 1-1 .9-1-.9zm7.5 4.2.9.9-.9 1-1-1zm1.6 2.2 1 1-1 1-1-1zm-28.1-2.9 1 1-1 1-1-1zm-2.5 3.1 1 1-1 .9-1-.9zM9 47.1l1 1-1 .9-.9-.9zm.7-8 1 .9-1 1-.9-1zm14-2.8 1 .9-1 1-.9-1zm15.8 4.2 2 1.9-2 2-1.9-2zM7.8 34.3l1.9 2-1.9 1.9-1.9-1.9zm41.6 9.4 1.9 2-1.9 1.9-2-1.9z" fill="#5b7f32"/><g fill="#3e4347"><path d="m23.5 10.3.9-.1c-.1-1.9 1.3-4.3 3.8-5l-.2-.9c-2.7.8-4.7 3.4-4.5 6"/><path d="M26.4 3.4c-.8.9-.7 2.3.2 3.1.9.8 2.3.7 3.1-.2.8-.9.7-2.3-.2-3.1-.9-.9-2.3-.8-3.1.2M14.8 9.8l.1-.9C13 8.7 11 6.7 10.8 4.2l-.9.1c.2 2.7 2.4 5.2 4.9 5.5"/><path d="M8.6 5.6c.7 1 2.1 1.1 3.1.4 1-.8 1.1-2.1.4-3.1-.7-1-2.1-1.1-3.1-.4-.9.7-1.1 2.1-.4 3.1"/></g><path fill="#5b7f32" d="M8.3 29.7c2.4 7.5 16.4 7.9 18.3 3l-18.3-3"/><path fill="#94d82a" d="M4.8 22.4c-.5 10.4 20.7 17.5 26.9 5.2C36.4 18.2 29 8.4 21.2 7.5 8.4 6 5 17.4 4.8 22.4z"/><g fill="#3e4347" transform="matrix(-1 0 0 1 64 0)"><path d="M51.3 18.3c0 1.7-.9 3-2 3s-2-1.3-2-3 .9-3 2-3 2 1.4 2 3"/><ellipse cx="37.4" cy="18.3" rx="2" ry="3"/><path d="M43.3 29.3c-2.4 0-4.5-.9-4.5-1.8 0-.1 0-.2.1-.3.1-.1.2-.1.4-.1s.3.1.6.2c.6.2 1.7.7 3.5.7s2.9-.5 3.4-.7c.3-.1.4-.2.6-.2.2 0 .4.1.4.4 0 .9-2.1 1.8-4.5 1.8"/></g><g fill="#ea83a3" opacity=".7" transform="matrix(-1 0 0 1 64 0)"><ellipse cx="53.7" cy="23.8" rx="3.2" ry="2.5"/><ellipse cx="34.4" cy="23.7" rx="2.6" ry="1.8"/></g></svg>