<svg xmlns="http://www.w3.org/2000/svg" viewBox="0 0 64 64"><path fill="#947151" d="M19.3 13.6c.5-6.7 8.5-7 8.5-7C17.6 3 15.3 13.2 15.9 14c.8.9 3.3 1.2 3.4-.4"/><path d="M56.6 26.6c-1.1-2.4 2-10.8 2-10.8s7.6 8.6.2 12.7c-.4.2-2-1.5-2.2-1.9M10.8 38.1S8 33.5 12 27.8l-5.7 2.6c-2.7 5.3 4.5 7.7 4.5 7.7" fill="#c2aca1"/><path fill="#f1e7dc" d="M59.6 48.5c-1.5-4.1-1.1-5.8-1.1-5.8 3.8-6.9 1.2-16.7-2.6-17.3-13.6-2.4-31.2 1.6-31.2-3 0-9.5-8-15.4-14.3-9.6C5.9 17 9.5 18.4 2.6 27c-1.6 1.9.2 3.4 3.3 4 1 .2 1.3.1 3.8-1.2 2.4-1.3 5.8.3 6.7-4.2 0 0-.5 11.2 6.3 18.9 0 0 1.4 4-1.3 14.9h3.3l3-8.3s-.6-5.9 1.3-5.3c5.9 2.1 20.5-1.5 20.5-1.5 1.4 2.8 5.9 5.5 5.9 5.5s-1.4 3.3-1.2 9.6h3.5c.2-2.4 1.9-10.9 1.9-10.9"/><path d="M20.7 62h3.2l.6-2.5h-3.3c-.2 1.5-.5 2.5-.5 2.5m33.4-2.5C53.9 61 54 62 54 62h3.4s0-1 .2-2.5h-3.5" fill="#947151"/><circle cx="12.2" cy="18.9" fill="#3e4347" r="1.5"/><path d="M4.5 27.7c-.1.2-.6.5-.8.3-.2-.1-.1-.6.1-.9.1-.2.4-.3.6-.1.2.2.2.5.1.7m5.1-2.4c.3 1.2 0 2.5-.7 3.6-.3.5-.8 1-1.3 1.4-.5.4-1.1.6-1.7.8 1-.7 1.9-1.4 2.5-2.4.3-.5.5-1 .7-1.6.2-.6.4-1.2.5-1.8" fill="#c2aca1"/><path fill="#f1e7dc" d="M19.7 16.4c6.2-.2 5.5-8.6 4.5-8.1-1.6.8-6.6 3.1-6.6 5.9 0 .5-.6 2.3 2.1 2.2"/><path fill="#c2aca1" d="M19 13.6c.5-1.6 4.1-3.4 4.7-3.6.6-.3.6 4-3.4 5.7-.4.2-.8.2-1-.1-.2-.3.7-.9 1.3-1.2.7-.3-.1-.2-.6-.1-.5.2-.2-.2.2-.4.4-.3-.6 0-1 .4s-.5.4-.2-.7"/><path fill="#947151" d="M17.1 12.7C15.3 5.2 24 2 24 2c-12.6-.4-11.5 11.7-10.5 12.3 1.2.7 4 .2 3.6-1.6"/></svg>