<svg xmlns="http://www.w3.org/2000/svg" viewBox="0 0 64 64"><g fill="#555c60"><path d="M38.5 32.8c9.4-3.3 21.7 2.7 21.7 2.7s-5.4 12.3-14.8 15.6c-9.4 3.3-17.3 1.5-19.2-3.5-2-5 2.9-11.4 12.3-14.8"/><path d="M40.4 40c-1.1.4-7.6 3.1-9.3 4.5-5.2 4 .5 14 1 16.1-.1-2.2-1.4-11.5-.1-12.8 1.9-2 10.5-4.1 10.5-4.1L40.4 40m-19.1.4c-.7.4-4.6 2.8-5.5 3.8-2.5 2.9 5.5 6.8 6.7 7.7-.9-1-5.3-5.3-4.8-6.2.7-1.3 6.5-3.8 6.5-3.8l-2.9-1.5"/><path d="M47.2 38.1c-1.1.4-7.6 3.1-9.3 4.5-5.2 4 .5 14 1 16.1-.1-2.1-1.5-11.4-.1-12.8 1.9-2 10.5-4.1 10.5-4.1l-2.1-3.7"/><ellipse cx="22.6" cy="37.2" rx="8.5" ry="8.3"/></g><path fill="#6c767a" d="M43.6 43.3s4 4.5 14.6 1.2c2.5-.8-7.6 13.1-9.2 15.6 2-2.1 16.8-15.2 12-18.7-3.1-2.2-11.5.1-12.5-1.2l-4.9 3.1"/><path fill="#555c60" d="M43.2 43s5.4 3.1 14.1 1c2.5-.6-6.6 13.5-8.2 16 2-2.1 15.6-14.7 10.7-18.3-3.1-2.2-10.6-.9-11.6-2.1l-5 3.4"/><path fill="#6c767a" d="M36.9 45.3s4 4.5 14.6 1.2c2.5-.8-7.6 13.1-9.2 15.6 2-2.1 16.8-15.2 12-18.7-3.1-2.2-11.5.1-12.5-1.2l-4.9 3.1"/><path d="M36.4 45s5.4 3.1 14.1 1c2.5-.6-6.6 13.5-8.2 16 2-2.1 15.6-14.7 10.7-18.3-3.1-2.2-10.6-.9-11.6-2.1l-5 3.4M15.6 13.9c-1.7-2-3-4.2-4.6-6.1-.8-1-1.7-1.8-2.7-2.4-1-.6-2-.9-2.9-.7-.7.1-1.4-.4-1.5-1.2S4.2 2.1 5 2h.3c1.7 0 3.2.8 4.3 1.8 1.1 1 1.8 2.1 2.5 3.2 1.3 2.3 2.2 4.7 3.5 6.9m1.8 0c1.3-2.2 2.1-4.6 3.5-6.9.7-1.1 1.4-2.3 2.5-3.2 1.1-1 2.6-1.7 4.3-1.8h.1c.8 0 1.4.6 1.4 1.3 0 .7-.6 1.3-1.3 1.4h-.3c-.9-.1-1.9.1-2.9.7s-1.8 1.5-2.6 2.4c-1.8 1.9-3.1 4.1-4.7 6.1" fill="#555c60"/><g fill="#6c767a"><path d="M16.5 8.6c-7.1 0-12.8 5.6-12.8 12.5 0 8.2 12.9 16.7 12.8 16.7 0 0 12.8-8.5 12.8-16.7 0-6.9-5.8-12.5-12.8-12.5"/><ellipse cx="24.4" cy="20.9" rx="6.5" ry="6.4"/></g><circle cx="24.4" cy="20.9" fill="#fcfcfa" r="5.7"/><circle cx="24.4" cy="20.9" fill="#3e4347" r="3.9"/><ellipse cx="8.5" cy="20.9" fill="#6c767a" rx="6.5" ry="6.4"/><circle cx="8.5" cy="20.9" fill="#fcfcfa" r="5.7"/><path fill="#3e4347" d="M12.4 20.9c0 2.2-1.7 3.9-3.9 3.9-2.1 0-3.9-1.8-3.9-3.9 0-2.2 1.7-3.9 3.9-3.9s3.9 1.8 3.9 3.9"/><path fill="#6c767a" d="M29.8 35.7c1-.7 7.1-5.3 8.5-7.1 4.4-5.6-4.8-14.4-5.9-16.4.7 2.2 4.2 10.7 3 12.5-4.1 5.8-9.3 8.1-9.3 8.1l3.7 2.9"/><path fill="#555c60" d="M29.7 36.1c1-.7 6.2-5.3 7.6-7.2 4.4-5.6-3.8-14.7-4.9-16.7.7 2.2 4.1 11.7 3.1 13.5-1.5 2.6-9.8 7-9.8 7l4 3.4"/></svg>