<svg xmlns="http://www.w3.org/2000/svg" viewBox="0 0 64 64"><path fill="#f29a2e" d="M22.1 9.3c0 5.6-3.5 10.2-7.8 10.1C1.7 19.1 6.9 2 6.9 2c4.3 0 15.2 1.7 15.2 7.3z"/><path fill="#bc600d" d="M17.3 10.4c0 3-1.9 5.4-4.2 5.4-6.7-.2-4-9.3-4-9.3 2.4 0 8.2.9 8.2 3.9"/><path fill="#f29a2e" d="M41.9 9.3c0 5.6 3.5 10.2 7.8 10.1C62.3 19.1 57.1 2 57.1 2c-4.3 0-15.2 1.7-15.2 7.3"/><path fill="#bc600d" d="M46.7 10.4c0 3 1.9 5.4 4.2 5.4 6.7-.2 4-9.3 4-9.3-2.4 0-8.2.9-8.2 3.9"/><path fill="#f29a2e" d="M58 41.7c0 9.1-52 9.1-52 0C6 3.8 20.9 4.8 32 4.8s26-1 26 36.9"/><g fill="#3e4347"><path d="M42.5 12.6c-2.3-8.7-18.7-8.9-20.9.1 4.5-4 16.3-4 20.9-.1"/><path d="M39.2 16c-1.5-5.9-12.8-6-14.3 0 3.7-3.2 10.5-3.2 14.3 0"/></g><path fill="#ffe8bb" d="M62 36.6c-.2-9.2-5.8-13.8-5.8-13.8s3.4 33.9-16.6 17.5H24.3C4.4 56.6 7.8 22.8 7.8 22.8S2.2 27.4 2 36.6L4.7 35s-2.8 6.1.2 13.6l2.9-3.4s.8 7.1 8.5 10.7l.4-3.1s5.8 4.6 15.3 4.6 15.3-4.6 15.3-4.6l.4 3.1c7.7-3.6 8.5-10.7 8.5-10.7l2.9 3.4c3.1-7.5.2-13.6.2-13.6l2.7 1.6"/><path d="M24.3 40.3S7.4 53 7.7 22.8c.1 0-4 35.9 16.6 17.5m15.4 0S56.6 53 56.3 22.8c-.1 0 4 35.9-16.6 17.5" fill="#3e4347"/><path fill="#f5f5f5" d="M37.6 29.4c3 8.2 2 10.8 2 10.8l-7.5 2.2-7.9-2.2s-1-2.7 2-10.8c-13.2 21.9-.8 24.8-.8 24.8s-.6 3.6 3.2 6.6v-2.4s.8 2.2 3.2 3.5c2.4-1.3 3.2-3.5 3.2-3.5v2.4c2.1-1.2 2.8-3.7 2.8-3.7l.9 1.8c3-4.3 1.9-7.3 1-8.7 0 .1.1.1.1.1s11 1-2.2-20.9"/><g fill="#3e4347"><path d="M32 50.1c-.3-.9-1-5.4-.9-8.2h1.7c-.1 2.5.6 7 .8 7.6l-1.6.6"/><path d="M25.6 54.3c6.8-6.8 11.7-8.9 14.4-3.9-4.1-3.2-8.8 2.6-14.4 3.9"/></g><path fill="#947151" d="M39.4 39.8c-2.9-1.3-12.1-1.2-14.9 0-1.1.5 2 3.5 7.4 3.5 5.6 0 8.6-3 7.5-3.5"/><path fill="#ffe8bb" d="M27.3 27.6C25.1 41.6 9 38.1 9 25.9c0-6.5 0-6.5 10.1-8.7 10.2-2.3 9.1 5.2 8.2 10.4"/><path fill="#3e4347" d="M25.7 28.3c-1 9.9-15.6 8.3-14.7-1.6.4-3.8.4-4.2 7.7-3.4 7.4.8 7.3 1.2 7 5"/><path fill="#fff" d="M23.5 27.7c-.7 6-11 5.1-10.3-.9.3-2.2.3-2.4 5.4-1.9 5.2.5 5.2.6 4.9 2.8"/><path fill="#3e4347" d="M22.7 26.5c0 1.4-1.1 2.5-2.4 2.5-1.3 0-2.4-1.1-2.4-2.5s1.1-2.2 2.4-2.2 2.4.9 2.4 2.2"/><path fill="#ffe8bb" d="M36.6 27.6c2.2 13.9 18.3 10.5 18.3-1.8 0-6.5 0-6.5-10.1-8.7-10.1-2.2-9 5.3-8.2 10.5"/><path fill="#3e4347" d="M38.3 28.3c1 9.9 15.6 8.3 14.7-1.6-.4-3.8-.4-4.2-7.7-3.4-7.4.8-7.4 1.2-7 5"/><path fill="#fff" d="M40.4 27.7c.7 6 11 5.1 10.3-.9-.3-2.2-.3-2.4-5.4-1.9-5.1.5-5.1.6-4.9 2.8"/><path fill="#3e4347" d="M45.2 26.5c0 1.4 1.1 2.5 2.4 2.5 1.3 0 2.4-1.1 2.4-2.5s-1.1-2.2-2.4-2.2-2.4.9-2.4 2.2"/></svg>