<svg xmlns="http://www.w3.org/2000/svg" viewBox="0 0 64 64"><path fill="#e07e1e" d="M43.1 50.6c-5.2 0-9.6-3-9.6-6.5s4.4-6.5 9.6-6.5c5.2 0 9.6 3 9.6 6.5-.1 3.5-4.4 6.5-9.6 6.5"/><path fill="#3e4347" d="M43.1 38.5c5.1 0 8.7 2.9 8.7 5.5s-3.6 5.5-8.7 5.5-8.7-2.9-8.7-5.5 3.6-5.5 8.7-5.5m0-1.9c-5.7 0-10.4 3.4-10.4 7.5s4.7 7.5 10.4 7.5 10.4-3.4 10.4-7.5c0-4.2-4.7-7.5-10.4-7.5z"/><path fill="#e07e1e" d="M28.1 25.4c-4.7 0-8.5-3.2-8.5-7.1 0-3.9 3.8-7.1 8.5-7.1s8.5 3.2 8.5 7.1c0 3.9-3.9 7.1-8.5 7.1"/><path fill="#3e4347" d="M28.1 12.2c4.1 0 7.6 2.8 7.6 6 0 3.3-3.5 6-7.6 6s-7.6-2.8-7.6-6 3.4-6 7.6-6m0-2.2c-5.2 0-9.4 3.7-9.4 8.2s4.2 8.2 9.4 8.2 9.4-3.7 9.4-8.2-4.2-8.2-9.4-8.2z"/><path fill="#e07e1e" d="M45.5 31.9c-2 0-4-1-5.5-2.8-1.4-1.6-2.2-3.7-2.4-5.8-.1-2.1.4-3.9 1.5-5.2 1-1.2 2.4-1.8 3.9-1.8 2 0 4 1 5.5 2.8 1.4 1.6 2.2 3.7 2.4 5.8.1 2.1-.4 3.9-1.5 5.2-1 1.1-2.3 1.8-3.9 1.8"/><path fill="#3e4347" d="M43.1 17.2c1.7 0 3.5.9 4.8 2.5 1.2 1.5 2 3.3 2.1 5.2.1 1.7-.3 3.3-1.2 4.4-1 1.2-2.3 1.5-3.2 1.5-1.7 0-3.5-.9-4.8-2.5-1.2-1.5-2-3.3-2.1-5.2-.1-1.7.3-3.3 1.2-4.4 1-1.2 2.3-1.5 3.2-1.5m0-2.2c-1.7 0-3.3.7-4.5 2.1-2.7 3.2-2.3 8.9.9 12.6 1.8 2.1 4 3.2 6.1 3.2 1.7 0 3.3-.7 4.5-2.1 2.7-3.2 2.3-8.9-.9-12.6-1.7-2.1-4-3.2-6.1-3.2z"/><path fill="#e07e1e" d="M28.9 52.9c-1.3 0-2.6-.3-4-.9-3.8-1.6-6.4-5.1-5.6-7.7.5-1.5 2.2-2.5 4.5-2.5 1.3 0 2.6.3 4 .9 1.9.8 3.6 2.2 4.7 3.7.9 1.4 1.3 2.8.9 3.9-.5 1.6-2.2 2.6-4.5 2.6"/><path fill="#3e4347" d="M23.9 43c1.2 0 2.4.3 3.6.8 1.8.8 3.3 2 4.2 3.4.7 1.1 1 2.1.8 2.8-.3 1-1.8 1.7-3.6 1.7-1.2 0-2.4-.3-3.6-.8-3.5-1.5-5.5-4.5-5-6.2.3-1 1.8-1.7 3.6-1.7m0-2.3c-2.6 0-4.7 1.2-5.4 3.2-1 3.1 1.8 7.2 6.1 9.1 1.5.6 3 .9 4.3.9 2.6 0 4.7-1.2 5.4-3.2 1-3.1-1.8-7.2-6.1-9.1-1.5-.6-3-.9-4.3-.9z"/><path d="M35 18.4c-3.1-1.1-6.5-1.8-10.2-1.8-1.1 0-2.1.1-3.1.2 1.8 4.6 2.7 9.6 2.7 14.7 0 5.7-1.2 11.3-3.4 16.3 1.2.2 2.5.2 3.8.2 1.7 0 3.3 0 4.8-.1-.5-2.5-.7-5.1-.7-7.8 0-7.9 2.1-15.5 6.1-21.7m-20.2.3C5.1 23.2 2.3 33.4 2.3 33.4s.7.6 1 1.3c.3.6-1.8.9-1.2 1.9 1.7 2.8 6.7 6.9 11.9 9.3 2.3-4.3 3.5-9.2 3.5-14.4 0-4.5-.9-8.9-2.7-12.8m45.5 14.8c0-3.3 3.9-5.8 0-10.5 0 0-2.2 2.6-4.3 4.3-.1 1.3-.2 2.7-.2 4 0 3.6.5 7.2 1.5 10.6 1.9 1 3 2 3 2 3.9-4.6 0-6.9 0-10.4m-11-6.4c-2.8-2.3-5.6-4.4-8.7-6.1-1.6 3.9-2.5 8.1-2.5 12.5 0 4.3.8 8.4 2.3 12.2 2.9-1 6-2.5 9.7-4.5-.7-3.2-1-6.5-1-9.9 0-1.3 0-2.8.2-4.2" fill="#f29a2e"/><path fill="#fff" d="M18.4 31.5c0 5.4-1.3 10.5-3.5 14.8 1.5.6 3.2 1.1 5.1 1.4 2.2-4.8 3.5-10.3 3.5-16.1 0-5.2-1-10.1-2.8-14.5-1.8.3-3.5.8-5 1.4 1.7 3.7 2.7 8.2 2.7 13"/><path d="M21.6 16.8c-.3 0-.6.1-1 .1 1.8 4.4 2.8 9.3 2.8 14.5 0 5.9-1.3 11.4-3.5 16.1.3.1.7.1 1 .1 2.2-5 3.4-10.6 3.4-16.3.1-4.9-.9-9.9-2.7-14.5m-3.2 14.7c0-4.7-1-9.2-2.7-13.1-.3.1-.6.2-.9.4 1.8 3.9 2.7 8.3 2.7 12.8 0 5.2-1.2 10.1-3.5 14.4.3.1.6.3.9.4 2.2-4.5 3.5-9.5 3.5-14.9" fill="#3e4347"/><path fill="#fff" d="M29.8 40.1c0 2.6.3 5.2.7 7.7 3-.2 5.9-.7 9-1.7-1.5-3.8-2.4-8.1-2.4-12.5 0-4.7.9-9.1 2.5-13-1.2-.7-2.5-1.3-3.8-1.8-3.7 5.9-6 13.3-6 21.3"/><path d="M29.8 40.1c0-8 2.3-15.4 6.1-21.3-.3-.1-.6-.2-.9-.4-4 6.2-6.1 13.8-6.1 21.7 0 2.6.2 5.2.7 7.8.3 0 .6 0 .9-.1-.4-2.5-.7-5.1-.7-7.7M40.6 21c-.3-.2-.6-.3-.8-.5-1.6 3.9-2.5 8.3-2.5 13 0 4.5.8 8.7 2.4 12.5l.9-.3c-1.5-3.8-2.3-8-2.3-12.2-.2-4.4.6-8.6 2.3-12.5" fill="#3e4347"/><path fill="#fff" d="M50.6 28.1c-.1-.1-.3-.2-.4-.4-.1 1.3-.2 2.5-.2 3.7 0 3.2.3 6.4 1 9.4.2-.1.4-.3.7-.4.8-.5 2.7.2 4.5 1-.8-3.2-1.3-6.5-1.3-10 0-1.1.1-2.2.1-3.3-1.5.9-3 1.2-4.4 0"/><path d="M50 31.4c0-1.2.1-2.4.1-3.6-.3-.2-.6-.5-.9-.7-.1 1.5-.2 2.9-.2 4.3 0 3.3.3 6.6 1 9.9.3-.2.6-.3.9-.5-.6-3.1-.9-6.2-.9-9.4m5.9-4c-.3.3-.7.5-1 .7-.1 1.1-.1 2.2-.1 3.3 0 3.5.5 6.9 1.3 10 .4.2.8.4 1.1.6-1-3.4-1.5-7-1.5-10.6 0-1.4.1-2.7.2-4" fill="#3e4347"/><path fill="#e07e1e" d="M25.7 28c-2.9 3-3.5 9.7 1.4 10.1 5.9.5 8.8 5 11.7 2 2.9-3 1.9-7.6-1.5-11.1-3.4-3.6-8.6-4-11.6-1"/><path fill="#3e4347" d="M25.8 28c-1.5 1.5-2.2 3.7-2.1 5.7.1 1 .4 2 1.1 2.7.6.7 1.5 1 2.5 1.1 2.2.1 4.3.9 6.2 1.8 1 .4 1.9.8 2.8 1 .9.1 1.5-.2 2.1-.9.6-.7 1-1.5 1.2-2.4.2-.9.1-1.8-.2-2.7-.5-1.8-1.7-3.5-3-4.9-1.3-1.3-3-2.4-4.9-2.9-1-.2-2-.2-3 0-1 .3-2 .8-2.7 1.5m-.1-.1c1.5-1.6 3.6-2.4 5.9-2.4 2.2 0 4.5.9 6.2 2.5 1.6 1.5 3 3.5 3.6 5.8.3 1.2.3 2.4 0 3.6-.3 1.2-.9 2.3-1.8 3.1a5 5 0 0 1-1.6 1.1c-.6.2-1.3.3-1.9.2-1.2-.2-2.2-.8-3.1-1.2-1.9-.9-3.7-1.7-5.7-2-.5-.1-1.1-.2-1.6-.5s-1-.7-1.3-1.1c-.7-1-.9-2.1-.9-3.2s.3-2.2.7-3.2c.2-1 .7-1.9 1.5-2.7"/><ellipse cx="10.8" cy="32.6" fill="#fcfcfa" rx="5.9" ry="6.3"/><ellipse cx="10.8" cy="32.6" fill="#29251c" rx="4.1" ry="4.3"/></svg>