<svg xmlns="http://www.w3.org/2000/svg" viewBox="0 0 64 64"><g fill="#e08828"><path d="M39.6 51.3H42v9.2h-2.4z"/><path d="M41.5 60.6c0-.5 1.7-1.5 3.7-1.5 2.1 0 3.7 1 3.7 1.5s-1.7.4-3.7.4c-2.1 0-3.7.1-3.7-.4"/><path d="M37.1 60.6c0-.5 1.7-1.5 3.7-1.5 2.1 0 3.7 1 3.7 1.5s-1.7.4-3.7.4c-2.1 0-3.7.1-3.7-.4"/><path d="M32.6 60.6c0-.5 1.7-1.5 3.7-1.5s3.7 1 3.7 1.5-1.7.4-3.7.4-3.7.1-3.7-.4M22 51.3h2.4v9.2H22z"/><path d="M22.5 60.6c0-.5-1.7-1.5-3.7-1.5-2.1 0-3.7 1-3.7 1.5s1.7.4 3.7.4c2.1 0 3.7.1 3.7-.4"/><path d="M27 60.6c0-.5-1.7-1.5-3.7-1.5-2.1 0-3.7 1-3.7 1.5s1.7.4 3.7.4 3.7.1 3.7-.4"/><path d="M31.4 60.6c0-.5-1.7-1.5-3.7-1.5s-3.7 1-3.7 1.5 1.7.4 3.7.4 3.7.1 3.7-.4"/></g><g fill="#ffbf3e"><path d="M15.5 39.3s-16-6.5-12.8-8.1c8.9-4.3 12.8 8.1 12.8 8.1"/><path d="M15.5 39.3S1.9 27.8 5.1 26.2c8.2-3.9 10.4 13.1 10.4 13.1"/><path d="M15.5 39.3s-17.6-.6-12.6-3.1c11.4-5.5 12.6 3.1 12.6 3.1m33 0s16-6.5 12.8-8.1c-8.9-4.3-12.8 8.1-12.8 8.1"/><path d="M48.5 39.3s13.6-11.5 10.4-13.1c-8.2-3.9-10.4 13.1-10.4 13.1"/><path d="M48.5 39.3s17.6-.6 12.6-3.1c-11.4-5.5-12.6 3.1-12.6 3.1"/></g><g fill="#ffd93b"><path d="M34 24.7c2.4 4.2-10.9 4.4-11.7-5.9C21.4 8.5 28 3 28 3s-.5 10.4 6 21.7z"/><path d="M32.7 21.7c-1.8 4.6-10-6.3-2.6-13.3s15.6-4.8 15.6-4.8-8.2 5.9-13 18.1"/><path d="M26.2 31.4c1.8 4.6 10-6.3 2.6-13.3s-15.6-4.8-15.6-4.8 8.3 5.9 13 18.1"/><path d="M50.8 39.9c0 11.2-8.4 13-18.8 13s-18.8-1.7-18.8-13c0-23 9.2-27.7 18.8-27.7 9.6-.1 18.8 4.6 18.8 27.7"/></g><path fill="#e08828" d="M28.2 37h7.6c0 2.3-1.9 3.9-3.8 3.9s-3.8-1.6-3.8-3.9"/><path fill="#f29a2e" d="M35.8 37s-2.4 1.1-3.8 1.1-3.8-1.1-3.8-1.1c0-2.9 1.7-5.2 3.8-5.2 2.1-.1 3.8 2.3 3.8 5.2"/><path d="M44.7 26.4c-.4-.7-.8-1.5-1.4-2.1-.6-.6-1.3-1.1-2.2-1.3-.8-.2-1.8-.1-2.5.4-.7.4-1.3 1.1-1.8 1.8.7-.5 1.3-.9 2-1.2.7-.3 1.4-.3 2.1-.2.7.2 1.3.6 1.9 1 .8.4 1.3 1 1.9 1.6m-25.4 0c.4-.7.8-1.5 1.4-2.1.6-.6 1.3-1.1 2.1-1.3.9-.2 1.8-.1 2.5.4.7.4 1.3 1.1 1.8 1.8-.7-.5-1.3-.9-2-1.2-.7-.3-1.4-.3-2.1-.2-.7.2-1.3.6-1.9 1-.7.4-1.2 1-1.8 1.6" fill="#bc9342"/><path d="M20.9 32.2c0-1.4 1-2.8 2.3-2.8 1.3 0 2.3 1.5 2.3 2.8s-1 2-2.3 2c-1.3-.1-2.3-.7-2.3-2m17.6 0c0-1.4 1-2.8 2.3-2.8 1.3 0 2.3 1.5 2.3 2.8s-1 2-2.3 2c-1.2-.1-2.3-.7-2.3-2" fill="#3e4347"/><path fill="#ffea92" d="M44.1 51.1c0-.3.1-.6.1-.9 0-4.3-5.4-7.8-12.1-7.8-6.7 0-12.1 3.5-12.1 7.8 0 .3 0 .6.1.9 3.3 1.4 7.5 1.7 12.1 1.7s8.6-.3 11.9-1.7"/></svg>