<svg xmlns="http://www.w3.org/2000/svg" viewBox="0 0 64 64"><path fill="#728389" d="m7.9 28.2 18.9-13S16 .1 10.6 2.2c-2.6 1-4.5 21.9-2.7 26"/><path fill="#3e4347" d="m8.7 29.8 7.5-3.6S20.6 14 11.1 5.3C9.2 6.9 6.9 26.9 8.7 29.8"/><path fill="#728389" d="m56.1 28.2-18.9-13S48 .1 53.4 2.2c2.6 1 4.5 21.9 2.7 26"/><path fill="#3e4347" d="m55.3 29.8-7.5-3.6S43.4 14 52.9 5.3c1.9 1.6 4.2 21.6 2.4 24.5"/><path fill="#728389" d="M32 9.7C18.1 9.7 2 25.5 2 36.9 2 46.1 27.9 62 32 62c4.1 0 30-15.9 30-25.1C62 25.5 45.9 9.7 32 9.7z"/><path fill="#dae5ef" d="M4 36.6c.4 9.2 24 21.7 28 21.7s27.6-12.5 28-21.7C32.5 9.1 52.9 54.5 32 54.5S31.5 9.1 4 36.6"/><path fill="#3e4347" d="M40.5 48.9c-1.7-1.1-6.9-1.2-8.5-1.2-1.6 0-6.8.1-8.5 1.2-1.2.8-.3 2.7 2.9 4.4 2 1 4 1.4 5.5 1.4 1.6 0 3.5-.3 5.5-1.4 3.3-1.7 4.3-3.6 3.1-4.4"/><g fill="#728389"><path d="M11.9 13.9c2.2 1.3 8.2 7.6 3.5 11.2s-7.4 0-6.8-.6c3.9-3.6 3.3-10.6 3.3-10.6"/><path d="M10 16.4c2.3 1 8.8 6 4.3 9.9-4.5 3.9-7.4.9-6.8.2 3.6-3.9 2.5-10.1 2.5-10.1m42.1-2.5c-2.2 1.3-8.2 7.6-3.5 11.2s7.4 0 6.8-.6c-3.9-3.6-3.3-10.6-3.3-10.6"/><path d="M54 16.4c-2.3 1-8.8 6-4.3 9.9 4.5 3.9 7.4.9 6.8.2-3.6-3.9-2.5-10.1-2.5-10.1"/></g><g fill="#dae5ef"><path d="M22.2 19.4c2.1 3.6 6.4 17.5-1.7 20s-9.6-5-8.3-5.5c6.9-3.3 10-14.5 10-14.5"/><path d="M18.4 21.9c2.4 3.1 7.9 15.4.1 18.4-7.9 3.1-10-3.6-8.8-4.2 6.6-3.6 8.7-14.2 8.7-14.2"/></g><path fill="#42ade2" d="M23.2 33.1c0 3.3-2.7 6-6 6s-6-2.7-6-6 2.7-4 6-4l6 4"/><path fill="#3e4347" d="M21 33.1c0 2.1-1.7 3.8-3.8 3.8-2.1 0-3.8-1.7-3.8-3.8 0-2.1 1.7-2.8 3.8-2.8 2.1-.1 3.8.6 3.8 2.8"/><g fill="#dae5ef"><path d="M24.1 32.7c-.2-.5-.6-.9-.9-1.2-.7-.7-1.5-1.3-2.2-1.8-1.5-1-3.1-1.8-4.6-2.6-1.5-.8-3-1.6-4.3-2.6-1.3-1-2.5-2.2-3.4-3.9-.1.9.1 1.8.3 2.6-1.3-1.2-2.5-2.6-3.4-4.5-.1 1.3.2 2.6.6 3.8-1.1-1.2-2.1-2.6-2.9-4.3-.1 2.5.9 5 2.4 7s3.5 3.4 5.5 4.5 4.1 2 6.2 2.7c1 .4 2 .8 3 1.3.9.5 1.8 1 2.4 2.1l1.3-3.1m17.7-13.3c-2.1 3.6-6.4 17.5 1.7 20s9.6-5 8.3-5.5c-6.9-3.3-10-14.5-10-14.5"/><path d="M45.6 21.9c-2.4 3.1-7.9 15.4-.1 18.4 7.9 3.1 10-3.6 8.8-4.2-6.6-3.6-8.7-14.2-8.7-14.2"/></g><path fill="#42ade2" d="M40.8 33.1c0 3.3 2.7 6 6 6s6-2.7 6-6-2.7-4-6-4l-6 4"/><path fill="#3e4347" d="M43 33.1c0 2.1 1.7 3.8 3.8 3.8 2.1 0 3.8-1.7 3.8-3.8 0-2.1-1.7-2.8-3.8-2.8-2.1-.1-3.8.6-3.8 2.8"/><path fill="#dae5ef" d="M39.9 32.7c.2-.5.6-.9.9-1.2.7-.7 1.5-1.3 2.2-1.8 1.5-1 3.1-1.8 4.6-2.6 1.5-.8 3-1.6 4.3-2.6 1.3-1 2.5-2.2 3.4-3.9.1.9-.1 1.8-.3 2.6 1.3-1.2 2.5-2.6 3.4-4.5.1 1.3-.2 2.6-.6 3.8 1.1-1.2 2.1-2.6 2.9-4.3.1 2.5-.9 5-2.4 7s-3.5 3.4-5.5 4.5-4.1 2-6.2 2.7c-1 .4-2 .8-3 1.3-.9.5-1.8 1-2.4 2.1l-1.3-3.1"/><path fill="#728389" d="M38.6 56.9c0 1.2-4.1 2.3-6.6 2.3s-6.6-1.1-6.6-2.3 6.6-.7 6.6-.7 6.6-.4 6.6.7"/><g fill="#3e4347"><path d="M33 53.5v.4c0 .2 0 .4-.1.5-.1.3-.2.7-.3 1-.3.7-.8 1.3-1.4 1.7-1.3.8-2.7.6-3.9.4-2.4-.5-4.4-1.6-6.4-2.8-1.9-1.3-3.7-2.7-5.3-4.3-1.6-1.6-3-3.4-4.2-5.3 1.3 1.9 2.8 3.5 4.5 5 1.7 1.5 3.5 2.8 5.5 3.8 1.9 1.1 4 1.9 6.1 2.2 1 .1 2.1 0 2.7-.4.6-.4.8-1.2.8-2.2h2"/><path d="M33 53.4c0 1 .2 1.8.8 2.2.6.5 1.7.5 2.7.4 2.1-.3 4.2-1.2 6.1-2.2 1.9-1.1 3.8-2.4 5.5-3.8 1.7-1.5 3.2-3.1 4.5-5-1.1 1.9-2.6 3.7-4.2 5.3-1.6 1.6-3.4 3.1-5.3 4.3-1.9 1.2-4 2.3-6.4 2.8-1.2.2-2.5.3-3.9-.4-.7-.4-1.2-1-1.4-1.7-.1-.3-.2-.7-.3-1 0-.2-.1-.3-.1-.5v-.4h2"/></g></svg>