<svg xmlns="http://www.w3.org/2000/svg" viewBox="0 0 64 64"><path fill="#45cbea" d="M62 27.2c-4.5-1.3-7.5 1.6-7.5 1.6s-4.4-3.4-8.9-1.6c.4 4 6.7 6.9 9.4 6.9 0 0 3 9.9-4.2 9.9-8.7 0-6.4-8.2-14.8-16.7-7.1-7.1-19.7-8.4-26.7-2.5C2.1 31 .2 41.6 3.8 50.5c0 0 15.6 1.7 17.2 3.3 0 0 32.6 2.6 35.9-4.3 3.6-7.4.5-15.4.5-15.4 2.5 0 4.6-3.1 4.6-6.9"/><path fill="#dae5ef" d="M3.8 50.5C8 63.2 44.9 68.6 57 49.5c-25 9.8-48.1-2.9-53.2 1"/><g fill="#fff"><path d="M15.7 50c1.1 1.4 2.6 2.4 4.2 3.3 1.6.8 3.3 1.5 5.1 2 3.6 1 7.3 1.4 11 1.3 3.7-.1 7.4-.7 11-1.8 3.6-1.1 6.9-2.9 9.9-5.2-2.9 2.4-6.2 4.3-9.8 5.6-3.6 1.3-7.3 2-11.1 2.2-3.8.2-7.6-.1-11.3-1-1.9-.5-3.7-1.1-5.4-1.9-1.7-.9-3.4-2-4.7-3.5l1.1-1"/><path d="M9.2 49.2c.9 1.8 2.5 3.2 4.2 4.3 1.7 1.2 3.6 2.2 5.6 3 3.9 1.6 8.1 2.5 12.3 2.8 4.2.3 8.5-.2 12.6-1.4s7.9-3.2 11.3-5.9c-3.3 2.8-7.1 4.9-11.2 6.3-4.1 1.4-8.4 1.9-12.8 1.8-4.3-.1-8.6-1-12.7-2.5-2-.8-4-1.7-5.9-2.9-1.8-1.3-3.6-2.7-4.7-4.8l1.3-.7"/><path d="M5.3 49.7c1.7 2.8 4.3 4.9 7.2 6.6 2.9 1.7 6 2.9 9.3 3.8 6.5 1.7 13.5 2 20.1.2-6.5 2-13.6 2-20.3.5-3.3-.8-6.6-1.9-9.7-3.6-3-1.6-5.9-3.8-7.9-6.8l1.3-.7"/></g><path fill="#45cbea" d="M29.7 55.4c2.9 5.1 9.4 7.1 14 4.7 2.5-1.3-4.6.2-4.3-5.5.2-2.6-4.9-2.9-7.7-2.9s-3.2 1.4-2 3.7"/><g fill="#3e4347"><path d="M22.8 48.7c.3.1.6.1.9.1.3 0 .6.1.9.3.6.4.7 1.1.8 1.7-.1-.3-.2-.6-.4-.8-.1-.3-.3-.5-.5-.6-.2-.2-.5-.2-.8-.3-.3-.1-.6-.2-.9-.4m-19 1.8c1.3-1.1 3.3-1.5 5-1.5 1.8 0 3.6.3 5.3.6 1.7.3 3.4.7 5.1 1 1.7.2 3.5.3 4.8-.9-.5.8-1.3 1.3-2.2 1.6-.9.3-1.8.3-2.7.3-1.8 0-3.5-.4-5.3-.7-1.7-.3-3.4-.7-5.1-.9-1.6-.2-3.3-.2-4.9.5"/><ellipse cx="22.7" cy="24.5" rx="1.2" ry="3.6" transform="rotate(-86.727 22.71 24.487)"/></g><path fill="#42ade2" d="M30.7 7.1s7.3-6.6-4.3-2c0 0 0-6.6-3.7-.5 0 0-5.8-5.5-3.3-.3 0 0-11.1-2.8-2.8 1.8 0 0-11.9 2.2.9 3.5 5.7.6 3.2 15.1 5.3 15.3 1.8.2 3.5-13.6 8.4-14.1 6.8-.6 8-2.3-.5-3.7"/><path d="M27 7.9s4-4.1-2.8-1.2c0 0-7.1-3.1-3.4.3 0 0-8.8.4-.8 1.5 1.7.2 1.7 2 3.7 2.2 1.9.2 2.3-1.3 4-1.5 6.5-.6 1.8-1.4-.7-1.3m-3.6 15.4c.4-2 .7-4 1.2-6 .2-1 .5-2 .9-3s.8-2 1.7-2.8c.2-.1.4-.1.5 0 .1.2.1.4 0 .5-.7.5-1.2 1.5-1.6 2.4-.4.9-.7 1.9-1 2.9-.8 2-1.3 4-1.7 6m-.7-2c0-1.7-.1-3.4-.4-5.1-.1-.8-.3-1.7-.5-2.5s-.4-1.6-.8-2.4c-.1-.2 0-.4.2-.5.2-.1.4 0 .5.2.3.9.5 1.7.6 2.6.1.9.2 1.7.3 2.6.2 1.7.2 3.4.1 5.1m.2 1.5c.2-1.8.4-3.5.4-5.3 0-1.8 0-3.6-.2-5.3 0-.2.1-.4.3-.4.2 0 .4.1.4.3.1 1.8 0 3.6-.2 5.4-.1 1.8-.3 3.5-.7 5.3" fill="#fff"/><path fill="#3e4347" d="M21 44.1s0-.1 0 0l.1-.3c0-.1.1-.2.1-.3.1-.2.1-.3.3-.5l.6-.9c.5-.6 1.1-1 1.7-1.4.6-.3 1.4-.6 2.1-.6H27c.2 0 .4.1.5.1.1 0 .2 0 .3.1l.2.1h.1c.1.1.2.2.2.3v.1c0 .2-.1.3-.3.3-.3 0-.6 0-.9.1-.3 0-.6.1-.9.2-.6.1-1.1.4-1.7.6-.5.3-1 .6-1.3.9h.4c.5 0 .9 0 1.4.1.6.1 1.2.4 1.7.7.3.2.5.4.7.6l.3.3c0 .1.1.1.1.2l.1.1c.1.1.1.3 0 .4v.1c-.1.1-.1.1-.2.1s-.1 0-.2-.1c-.2-.2-.4-.3-.7-.4-.2-.1-.5-.3-.7-.4-.5-.2-1-.4-1.5-.5-.5-.1-1-.1-1.6-.1-.3 0-.5 0-.8.1-.3 0-.5.1-.8.2h-.1c-.1 0-.1 0-.2-.1-.1.2-.1.1-.1-.1"/></svg>