<svg xmlns="http://www.w3.org/2000/svg" viewBox="0 0 64 64"><path d="M18.1 22.1C12.5 23.6 9 29 10 32.8s4.8-.5 10.4-2c5.6-1.5 11 .3 10-3.4s-6.6-6.8-12.3-5.3m-4.3-1.8c1.7-.6 1.9-4.3 1-6.8-.9-2.5-3-4-4.7-3.4s-2.3 3.1-1.4 5.6 3.4 5.3 5.1 4.6m6.9-1.9c1.8-.2 3-3.7 2.7-6.3-.2-2.6-1.9-4.6-3.7-4.5-1.8.2-3.1 2.4-2.8 5.1.2 2.6 2 5.9 3.8 5.7m8-7.7c-1.8 0-3.3 2.1-3.3 4.8s1.5 6 3.3 6 3.3-3.4 3.3-6c0-2.7-1.5-4.8-3.3-4.8M3.3 17.5c-1.6.9-1.8 3.5-.4 5.8 1.3 2.3 4.3 4.5 5.9 3.6 1.6-.9 1.1-4.6-.2-6.9s-3.7-3.4-5.3-2.5m42.6 26.7c-5.6-1.5-11.4 1.5-12.3 5.2s4.4 1.9 10 3.4 9.4 5.8 10.4 2-2.5-9.1-8.1-10.6m4.3-1.7c1.7.6 4.2-2.1 5.1-4.6s.3-5-1.4-5.6c-1.7-.6-3.8.9-4.7 3.4s-.7 6.2 1 6.8m-6.9-1.9c1.8.2 3.6-3.1 3.8-5.7.2-2.6-1-4.9-2.8-5.1-1.8-.2-3.5 1.9-3.7 4.5-.3 2.6.9 6.1 2.7 6.3m-8 3.1c1.8 0 3.3-3.4 3.3-6s-1.5-4.8-3.3-4.8c-1.8 0-3.3 2.1-3.3 4.8 0 2.6 1.5 6 3.3 6m25.4-4.1c-1.6-.9-3.9.2-5.2 2.5-1.3 2.3-1.8 6-.2 6.9 1.6.9 4.5-1.3 5.9-3.6s1-4.9-.5-5.8" fill="#42ade2"/></svg>