<svg xmlns="http://www.w3.org/2000/svg" viewBox="0 0 64 64"><path fill="#b2b6b8" d="M15.2 9.1c4.2-2.5 10-6 10.3 1.2.6 14.1 2.5 18 2.5 18L12.2 17.8s-5.9 5.1-9 6C-.6 24.9 4.8 14.2 9 11.2c1.4-.9 4.8-1.2 6.2-2.1"/><path fill="#ffc5d3" d="M19.1 12.3c2.5 3.4 5.5 16.5 5.5 16.5L20 30s-1.4-4.6-7.7-12.2l6.8-5.5"/><path fill="#b2b6b8" d="M48.8 5.1c-4.2-2.5-10-6-10.3 1.2-.6 14.1-3.5 21-3.5 21l16.8-13.5s5.9 5.1 9 6c3.8 1.1-1.6-9.6-5.8-12.6-1.4-.9-4.8-1.2-6.2-2.1"/><path fill="#ffc5d3" d="M44.9 8.3c-2.5 3.4-5.5 16.5-5.5 16.5L44 26s1.4-4.6 7.7-12.2l-6.8-5.5z"/><path fill="#c4c5c6" d="M13.7 34.8C13.7 27.4 19.4 22 32 22c12.7 0 18.3 5.4 18.3 12.8 0 6.3 9.5 15.4 1 21.6-4 3-11.1 5.6-19.3 5.6-8.2 0-15.3-2.6-19.4-5.6-8.4-6.1 1.1-15.3 1.1-21.6"/><path fill="#fff" d="M40.6 45.2c-.2-6-4.4-13.2-7-16.6-1.2-1.5-2.2-1.5-3.3 0-2.6 3.4-6.7 10.6-7 16.6-4.7-.6-10.1-.4-11.2 2.2-2.1 5 7.8 13.4 19.8 13.4s21.9-8.4 19.8-13.4c-1-2.5-6.4-2.8-11.1-2.2"/><path fill="#4c5359" d="M41.4 52.4c-1 .8-2.4 1.3-3.8 1.3-1.4.1-2.8-.3-4-1-.6-.4-1.2-.9-1.6-1.5-.4.6-1 1.1-1.6 1.5-1.2.7-2.6 1.1-4 1-1.3-.1-2.7-.5-3.8-1.3-.6-.5 2.7 5.8 9.4 5.8s10-6.3 9.4-5.8"/><path fill="#fff" d="M37.3 38.1s.4-4.1 3.7-5.4c3.7-1.5 6.2 2.1 6.9 4.2 1 3-.3 6.4-.6 7.1-.2.5-3 2.9-9.2.6 0 0-1.5-3.4-.8-6.5"/><path fill="#b2b6b8" d="M37.3 38.1c.1-1.4.5-2.9 1.4-4.1.4-.6 1-1.1 1.6-1.5.3-.2.6-.3 1-.4.4-.1.7-.2 1.1-.2 1.5-.2 3 .5 4 1.5 1.1 1 1.9 2.4 2.3 3.9.4 1.5.3 3.1-.1 4.6-.2.7-.4 1.4-.7 2.1l-.1.3-.1.1-.1.1c0 .1-.1.1-.1.1-.2.2-.3.3-.5.4-.3.2-.6.4-1 .5-1.3.5-2.8.5-4.1.4-1.3-.2-2.6-.6-3.8-1.2 1.3.3 2.6.6 3.9.6 1.3 0 2.6-.1 3.7-.7.3-.1.5-.3.8-.5l.3-.3v-.1l.1-.2c.2-.6.4-1.3.6-1.9.3-1.3.3-2.7 0-4-.3-1.2-1-2.4-1.9-3.3-.9-.9-2-1.5-3.2-1.4-.3 0-.6 0-.9.1l-.9.3c-.6.3-1.1.6-1.5 1.1-.9 1-1.5 2.3-1.8 3.7"/><ellipse cx="41.8" cy="39.5" fill="#4c5359" rx="3.3" ry="4"/><path fill="#fff" d="M26.7 38.1s-.4-4.1-3.7-5.4c-3.7-1.5-6.2 2.1-6.9 4.2-1 3 .3 6.4.6 7.1.2.5 3 2.9 9.2.6 0 0 1.5-3.4.8-6.5"/><path fill="#b2b6b8" d="M26.7 38.1c-.3-1.4-.9-2.7-1.8-3.6-.4-.5-1-.9-1.5-1.1l-.9-.3c-.3-.1-.6-.1-.9-.1-1.2 0-2.3.5-3.2 1.4-.9.9-1.6 2.1-1.9 3.3-.3 1.3-.3 2.6 0 4 .1.7.3 1.3.6 1.9l.1.2v.1l.3.3c.2.2.5.3.8.5 1.1.5 2.4.7 3.7.7 1.3 0 2.6-.3 3.9-.6-1.2.6-2.5 1-3.8 1.2-1.3.2-2.7.2-4.1-.4-.3-.1-.7-.3-1-.5-.2-.1-.3-.2-.5-.4l-.1-.1-.1-.1-.1-.1-.1-.4c-.3-.7-.5-1.4-.7-2.1-.3-1.5-.4-3-.1-4.6.4-1.5 1.2-2.9 2.3-3.9 1.1-1 2.5-1.7 4-1.5.4 0 .7.1 1.1.2.3.1.7.3 1 .4.6.4 1.2.9 1.6 1.5.9 1.2 1.3 2.6 1.4 4.1"/><ellipse cx="22.2" cy="39.5" fill="#4c5359" rx="3.3" ry="4"/><path fill="#fff" d="M28.7 49.6h6.7v5.5h-6.7z"/><path fill="#b2b6b8" d="M42 51.8c-1.1.6-2.5.8-3.7.7-1.3-.1-2.5-.4-3.5-1s-1.7-1.5-1.9-2.4l-.9-4.2-.9 4.2c-.2.9-.9 1.8-1.9 2.4-1 .6-2.2 1-3.4 1-1.3 0-2.6-.2-3.8-.7-1.1-.5-2.1-1.4-2.6-2.5.1 1.2.9 2.4 2 3.2 1.2.8 2.7 1.3 4.2 1.3 1.6.1 3.2-.3 4.5-1 .7-.4 1.3-.9 1.8-1.5.5.6 1.1 1.1 1.8 1.5 1.3.7 3 1.1 4.5 1 1.6-.1 3.1-.5 4.3-1.3 1.2-.8 2-2 2-3.2-.4 1.1-1.3 2-2.5 2.5"/><path fill="#ff94a4" d="M36.4 44.1c-.9-.7-3.6-.8-4.4-.8-.8 0-3.6.1-4.4.8-.6.5-.1 1.8 1.5 2.9 1.1.7 2.1.9 2.9.9.8 0 1.8-.2 2.9-.9 1.7-1.1 2.2-2.4 1.5-2.9"/></svg>