<svg xmlns="http://www.w3.org/2000/svg" viewBox="0 0 64 64"><path d="M35.1 31.1c-1.5-1.2-2.1-2.8-8-.2-3.9 1.7-3 2.4-8.1.8-7.1-2.2-9.7 1.6-11.4 2.1 0 0 4-1.1 7.3 1.5 4.3 3.4 17.3 1.6 19.2 2.2.7.2 2.5-5.2 1-6.4m.2 3.2s.1 0 0 0" fill="#ed4c5c"/><path fill="#ffd93b" d="M33.4 31.1c-5.8 0-5.6 3.8-14.5 2.8 0 0 4.8 2.6 9.8 1.2 3-.9 5.1 0 5.1 0l-.4-4"/><path fill="#64892f" d="M55.6 27.4c5.1 2.3 6.4-4.9 6.4-4.9-6.5.7-8.3-1.9-8.3-1.9 4.5 1.9 6.3-5.9 6.3-5.9-6.8 2.6-5.7-2.4-13-2.4 0-2.5 3.1-5.6 3.1-5.6-8.2-2-11.3 3.7-11.3 3.7-3.1-2.6-.7-6.4-.7-6.4C29.5 4 26 17.3 26 17.3 27.8 15.5 53.2 62 53.2 62h5.1c.3-3.7-.9-8.3-.9-8.3 1.6-1.6 3.4 2.1 3.4 2.1 0-5.8-2.5-10.1-2.5-10.1 1.3-1.3 3 1.2 3 1.2 0-4.8-3-7.3-3-7.3 1.6-1.6 2.6-.4 2.6-.4 0-3.6-3.6-4.8-3.6-4.8 3.5.2 4.3-3.2 4.3-3.2-4.5.5-6-3.8-6-3.8"/><path fill="#8cc63e" d="M23.6 42.5C36.8 46.7 34.8 62 34.8 62h19.3s5-28.9-5.1-39.9L37.2 39.2l-13.6 3.3z"/><path fill="#ffdd7d" d="M23.6 42.5C36.8 46.7 33.8 62 33.8 62h5.7s.7-16.5-5.5-18.3l-10.4-1.2z"/><path d="M24.8 43.2c12.7 1.7 27.5 4.8 26.9-17.3L37.2 38.5l-12.4 4.7M8.1 27.6c-.6.2-1.2-.7-.9-2.3.3-1.6 1.5-4 5.9-4.7 4.5-.7 7.5-.9 7.9-4.8.3-3.9 2-4.9 3.3-5.4 0 0-2.2 1.6-2.2 4.2s-1 6.3-4.5 7c-3.5.6-7.3 1.4-8.3 2.8-.9 1.4-.1 2.9-1.2 3.2" fill="#64892f"/><path fill="#8cc63e" d="M36.3 12.1c-7.2 0-13.2 5-15 11.7-1.2-1.8-3.3-3-5.6-3-1.5 0-2.8.5-3.9 1.3-.8-1.8-2.6-3-4.6-3C4.3 19 2 21.4 2 24.2c0 2.9 2.3 5.2 5.2 5.2h24c1.9 0 3.4 1.5 3.4 3.5 0 1.9-1.5 3.5-3.4 3.5H5.4C3.5 36.4 2 38 2 39.9s1.5 3.5 3.4 3.5h30.9c8.5 0 15.5-7 15.5-15.5 0-8.8-6.9-15.8-15.5-15.8"/><path fill="#3e4347" d="M8.6 23.3c-.6.9-1.8 1.2-2.8.7-1-.5.5-.7 1-1.5.6-.9 0-2 1-1.5 1 .4 1.4 1.5.8 2.3"/><g fill="#fff"><path d="m4.6 29.4 1.7 3.4L8 29.4zm1.7 6.9L8 32.8l1.7 3.5z"/><path d="M8 36.3v-2.4l7.9 2.4zm-1.7-7.6v2.4l7.9-2.4z"/></g><path fill="#ffdd7d" d="M30.3 27.7H2.9c-.5 0-.9.3-.9.8s.4.9.9.9h27.5c1.4 0 2.6 1.2 2.6 2.6v1.7c0 1.4-1.2 2.6-2.6 2.6H2.9c-.5 0-.9.4-.9.9 0 .4.4.8.9.8h27.5c2.4 0 4.3-1.9 4.3-4.3V32c-.1-2.4-2-4.3-4.4-4.3"/><path fill="#64892f" d="M2.4 42.5c.8-2.1 5.5-.5 6.5 1.7 1.5 3.6 3.3 3.9 3.3 3.9s-3.9.5-5.3-2.3c0 0 1.9 3.8 5.5 4.7 0 0-5.2 1.3-8-2.6 0 0-.2 1.3.6 4 0-.1-4.3-4.9-2.6-9.4"/><circle cx="26" cy="20.8" fill="#8cc63e" r="4.5"/><circle cx="26" cy="20.8" fill="#fff" r="3.5"/><path fill="#3e4347" d="M28 20.8c0 1.1-.9 2-2 2s-2-.9-2-2 .9-2 2-2 2 .9 2 2"/><path d="M26.8 12.1s-5.2 2.8-4 5.4c1.3 2.6 8.9-2.2 13.5 1.5 0 0-.8-2.2-2.3-2.6 0 0 .7-.5 2.2-.6 0 0-1.6-2-4.5-.1 0 0 .2-1.3 1.3-2.1 0 0-2.4 0-4 1.6 0 0-.7-.3.2-2.1 0 0-1.6.6-2.8 2-.1.2-.6-.8.4-3M11.2 26.7c-.6-.2-.6-1.3.6-2.4 1.2-1 3.6-2.1 7.6.1 4 2.3 6.7 4.1 9.3 1.2 2.6-2.8 4.5-2.5 5.9-2.1 0 0-2.7-.2-4.3 1.9-1.5 2.1-4.6 4.2-7.8 2.5-3.2-1.7-6.8-3.6-8.4-3.1-1.6.7-1.8 2.3-2.9 1.9m28.9 30.4H34l-.3-2.7h6.4z" fill="#64892f"/><path fill="#ed4c5c" d="M4.5 36.2c-1.1.2-2-.1-2.2-.8-.1-.7.6-1.4 1.7-1.7 1.1-.2 3.2.5 3.2.5s-1.6 1.7-2.7 2"/><path fill="#ffd93b" d="M4.6 35.6c-.6.2-1.2-.1-1.3-.5-.1-.4.3-.9 1-1 .6-.1 2 .3 2 .3s-1 1.1-1.7 1.2"/><path fill="#ed4c5c" d="M6.2 32.3c-.7-.1-1.2-.6-1.2-1.1.1-.5.7-.7 1.5-.6s1.9 1.2 1.9 1.2-1.5.7-2.2.5"/></svg>