<svg xmlns="http://www.w3.org/2000/svg" viewBox="0 0 64 64"><path fill="#83bf4f" d="M57.1 23.6C45.7 6.8 18.3 6.8 6.9 23.6c-4 5.9-5 12.5-4.9 13.9.3 4 9.3 20.6 30 20.5 20.6-.1 29.6-16.4 30-20.5.1-1.4-.9-8-4.9-13.9"/><path fill="#ffdf99" d="M2 37.5c.3 4 6.6 21.6 30 21.5 23.3-.1 29.6-17.4 30-21.5 0 0-12.1 10-29.9 10-18 0-30.1-10-30.1-10"/><path d="M26.3 32c-1.4 0-4.3 4-4.3 4s2.9-1.3 4.3-1.3 4.3 1.3 4.3 1.3-2.9-4-4.3-4m11.4 0c-1.4 0-4.3 4-4.3 4s2.9-1.3 4.3-1.3S42 36 42 36s-2.9-4-4.3-4" fill="#3e4347"/><circle cx="50" cy="17" r="12" fill="#83bf4f"/><circle cx="50" cy="17" r="8" fill="#ffe655"/><path fill="#3e4347" d="M54 17.2c0 2.2-1.8 4-4 4s-4-1.8-4-4 1.8-4 4-4 4 1.8 4 4"/><path fill="#83bf4f" d="M26 17c0 6.6-5.4 12-12 12S2 23.6 2 17 7.4 5 14 5s12 5.4 12 12z"/><circle cx="14" cy="17" r="8" fill="#ffe655"/><path fill="#3e4347" d="M18 17.2c0 2.2-1.8 4-4 4s-4-1.8-4-4 1.8-4 4-4 4 1.8 4 4"/><g fill="#83bf4f"><ellipse cx="14" cy="11.6" rx="9.7" ry="5.4"/><ellipse cx="50" cy="11.6" rx="9.7" ry="5.4"/></g></svg>