<svg xmlns="http://www.w3.org/2000/svg" viewBox="0 0 64 64"><path fill="#ffdd67" d="M51.4 35.3c-4.4-.4-5.9-4-6.4-5.7l-.2-.8s-.5-.6-1.1-1.5h-.2s-.5 7.8-.1 10.3c.4 2.8.4 15.2.5 18.3.2 3.6-.5 6.2-4.5 6.2-4.1 0-5.3-3.2-5.1-6.2.3-4.2.6-18.3.6-18.3-.4 1.8-1.2 3.5-4.2 3.2-3.4-.4-4.1-1.7-4.2-3.8-1.7 2.9-4 2.7-5.4 2.3-2.4-.6-3.1-4.9-3.1-4.9-.9 3.2-2.4 2.6-4.5 2.3-1.5-.2-2.9-1.5-3.5-3.7-.5-2.2-2.2-3.8.3-21 .6-4.5 4.6-6.7 10.5-7.8 4-.7 9.5-1.8 13.6-2.1h1.1c2.3-.1 4.5.8 6 2.8l9 12.1c.6.6 1 1.4 1.2 2.4.3 3.1 1.1 6.9 3.1 11.4.7 1.7-.4 4.8-3.4 4.5"/><g fill="#eba352"><path d="M14.7 36.8c3.8.6 3.5-5.3 2.7-2.8-.8 2.6-2.7 2.8-2.7 2.8m7.3 2.6c5.2.5 4.7-5.3 3.7-2.9S22 39.4 22 39.4m8.6 1.3c5.2.5 4.7-5.7 3.7-3.3-1 2.5-3.7 3.3-3.7 3.3m12.7-13.5s1.5 12.6.7 28.6c-.1 2.3-.1 5.9-4.3 6.1 4.8-1.4 2.6-17.3 3.6-34.7"/><path d="M54 34.4c.2-.7.1-1.5-.1-2-2.1-4.5-2.8-8.3-3.1-11.4-.1-1-.5-1.8-1.2-2.4l-9-12.2c-1.4-1.9-3.7-2.9-6-2.8h-1.1C29.5 3.9 24 5 20 5.7c-4.2.7-7.5 2.1-9.2 4.4 1.3-3.4 5-5.1 10.1-6 4-.7 9.5-1.8 13.6-2.1h1.1c2.3-.1 4.5.8 6 2.8L50.5 17c.6.6 1 1.4 1.2 2.4.3 3.1 1.1 6.9 3.1 11.4.4 1 .2 2.6-.8 3.6"/><path d="M44.5 23s1.3 4.3 1.8 6.3c.4 1.7 2 4.8 4.6 6-4.2-.6-5.6-4-6.1-5.7l-.2-.8s-.7-.5-1.4-1.5c.1-.1 1.5-2 1.3-4.3M34.2 36.4c-.2-.6-.5-1-.8-1.5-.3-.5-.6-.9-.9-1.5-.3-.5-.5-1.2-.5-1.8 0-.6.2-1.3.5-1.8 0 .6.1 1.2.3 1.7.1.5.4 1 .6 1.5.2.5.5 1 .7 1.6.2.6.3 1.2.1 1.8m-7.9-1.6c-.2-.6-.5-1-.8-1.5-.3-.5-.6-.9-.9-1.5-.3-.5-.5-1.2-.5-1.8 0-.6.2-1.3.5-1.8 0 .6.1 1.2.3 1.7.1.5.4 1 .6 1.5.2.5.5 1 .7 1.6.2.5.3 1.2.1 1.8m-8.5-2.4c-.2-.6-.5-1-.8-1.5-.3-.5-.6-.9-.9-1.5-.3-.5-.5-1.2-.5-1.8 0-.6.2-1.3.5-1.8 0 .6.1 1.2.3 1.7.1.5.4 1 .6 1.5.2.5.5 1 .7 1.6.2.5.3 1.2.1 1.8"/></g></svg>