<svg xmlns="http://www.w3.org/2000/svg" viewBox="0 0 64 64"><path fill="#ffdd67" d="M12.6 28.7c4.4.4 5.9 4 6.4 5.7l.2.8s.5.6 1.1 1.5h.2s.5-7.8.1-10.3c-.4-2.8-.4-15.2-.5-18.3 0-3.5.6-6.1 4.7-6.1 4.1 0 5.3 3.2 5.1 6.2-.3 4.2-.6 18.3-.6 18.3.4-1.8 1.2-3.5 4.2-3.2 3.4.4 4.1 1.7 4.2 3.8 1.7-2.9 4-2.7 5.4-2.3 2.4.6 3.1 4.9 3.1 4.9.9-3.2 2.4-2.6 4.5-2.3 1.3.2 2.8 1.5 3.3 3.7s2.2 3.8-.3 21c-.6 4.5-4.6 6.7-10.5 7.8-4 .7-9.5 1.8-13.6 2.1h-1.1c-2.3.1-4.5-.8-6-2.8l-9-12.2c-.6-.6-1-1.4-1.2-2.4-.3-3.1-1.1-6.9-3.1-11.4-.7-1.7.4-4.8 3.4-4.5"/><g fill="#eba352"><path d="M49.3 27.1c-3.8-.6-3.5 5.3-2.7 2.8.8-2.5 2.7-2.8 2.7-2.8M42 24.6c-5.2-.5-4.7 5.3-3.7 2.9s3.7-2.9 3.7-2.9m-8.6-1.3c-5.2-.5-4.7 5.7-3.7 3.3 1-2.5 3.7-3.3 3.7-3.3M20.7 36.8S19.2 24.2 20 8.2c0-2.4.1-6 4.2-6.2-4.7 1.5-2.5 17.4-3.5 34.8"/><path d="M10 29.6c-.2.7-.1 1.5.1 2 2.1 4.5 2.8 8.3 3.1 11.4.1 1 .5 1.8 1.2 2.4l8.9 12.2c1.4 1.9 3.7 2.9 6 2.8h1.1c4.1-.3 9.6-1.4 13.6-2.1 4.2-.7 7.5-2.1 9.2-4.4-1.3 3.4-5 5.1-10.1 6-4 .7-9.5 1.8-13.6 2.1h-1.1c-2.3.1-4.5-.8-6-2.8L13.5 47c-.6-.6-1-1.4-1.2-2.4-.3-3.1-1.1-6.9-3.1-11.4-.4-1-.2-2.6.8-3.6"/><path d="M19.5 41s-1.3-4.3-1.8-6.3c-.4-1.7-2-4.8-4.6-6 4.2.6 5.6 4 6.1 5.7l.2.8s.7.5 1.4 1.5c-.1.1-1.5 2-1.3 4.3m10.3-13.4c.2.6.5 1 .8 1.5.3.5.6.9.9 1.5.3.5.5 1.2.5 1.8 0 .6-.2 1.3-.5 1.8 0-.6-.1-1.2-.3-1.7-.1-.5-.4-1-.6-1.5-.2-.5-.5-1-.7-1.6-.2-.6-.3-1.2-.1-1.8m7.9 1.6c.2.6.5 1 .8 1.5.3.5.6.9.9 1.5.3.5.5 1.2.5 1.8 0 .6-.2 1.3-.5 1.8 0-.6-.1-1.2-.3-1.7-.1-.5-.4-1-.6-1.5-.2-.5-.5-1-.7-1.6-.2-.5-.3-1.2-.1-1.8m8.5 2.4c.2.6.5 1 .8 1.5.3.5.6.9.9 1.5.3.5.5 1.2.5 1.8 0 .6-.2 1.3-.5 1.8 0-.6-.1-1.2-.3-1.7-.1-.5-.4-1-.6-1.5-.2-.5-.5-1-.7-1.6-.2-.5-.3-1.2-.1-1.8"/></g></svg>