<svg xmlns="http://www.w3.org/2000/svg" viewBox="0 0 64 64"><g fill="#ffdd67"><path d="M48.6 32.8 42 37.5s-3.3-9.2-5.8-15.1c-1-2.4-4.2-3.2-5.7-6.6C27.9 10 31 5 34 8.6c3.5 4.2 8.7 7.3 9.8 9.7 1.7 4 4.8 14.5 4.8 14.5"/><path d="M53.8 36.6c.5 3.2.1 8.1-2.7 13.9 0 0-5.7-6.8-6.4-10 0 0-1.6-11.9-3.3-19.5-.7-3.1-4.3-4.9-5.2-9.3-1.6-7.6 3.2-12.9 6-7.8 3.2 5.9 8.6 10.9 9.3 14 1.2 5.3 1.7 14.1 2.3 18.7"/></g><path fill="#eba352" d="M45.4 30.6s-.5-4.5-2.2-12.1c-.7-3.1-4.3-4.9-5.2-9.3-.6-2.6-.4-5 .3-6.7-1.7 1.3-3.1 4.9-2.2 9.3.9 4.4 4.6 6.2 5.2 9.3.7 3.3 1.3 6.7 1.3 6.7l-5-1.9 7.8 4.7"/><path fill="#ffdd67" d="M51.4 35.4c-6.6-6-14-9.7-18.8-12-7.1-3.5-5.2 1.3-17.3 4.5-1.6.4-3.5 1.6-2 4.6 1.4 2.9 12.8.7 14.6-1 0 0 4.8 5.9 9.6 5.7 0 0-.8 3.9.3 5.8 0 0-6.8 3.5-9.7 6.6l-8-5.4c-.6-8.3-2.1-10.8-6.2-10.4-3.8.4-3.4 4-3.3 6.9.1 5.3-1.3 6.2 0 8.3 4.9 8 11.2 13 22.8 13 4.3 0 7.1-.1 9.8-1.4 4.4-2.3 15.5-18.5 8.2-25.2"/><g fill="#eba352"><path d="M52.7 37c2.5 7.6-6.4 20.1-10.3 22-2.7 1.3-5.4 1.4-9.8 1.4-11.5 0-17.7-4.9-22.6-12.8.1.4.3.9.5 1.3C15.5 57 21.8 62 33.4 62c4.3 0 7.1-.1 9.8-1.4 4.1-2.1 14-16.2 9.5-23.6"/><path d="M18.6 44.4s7.5 4.8 9.3 5.1L20 44.2c.3-8.4-2.1-11.1-6.2-10.4-.3.1-.6.1-.9.2 4.1-.5 6 2.2 5.7 10.4"/><path d="M27.9 31.5s4.8 5.8 9.6 5.7v-1.1c-4.8.1-9.6-5.7-9.6-5.7-1.8 1.8-13.2 4-14.6 1-.2-.5-.4-1-.5-1.4-.1.6 0 1.4.5 2.5 1.4 2.9 12.8.7 14.6-1"/></g></svg>