<svg xmlns="http://www.w3.org/2000/svg" viewBox="0 0 64 64"><path fill="#ffdd67" d="M35.3 12.6c-.4 4.4-4 5.9-5.7 6.4l-.8.2s-.6.5-1.5 1.1v.2s7.8.5 10.3.1c2.8-.4 15.2-.4 18.3-.5 3.6-.2 6.2.5 6.2 4.5 0 4.1-3.2 5.3-6.2 5.1-4.2-.3-18.3-.6-18.3-.6 1.8.4 3.5 1.2 3.2 4.2-.4 3.4-1.7 4.1-3.8 4.2 2.9 1.7 2.7 4 2.3 5.4-.6 2.4-4.9 3.1-4.9 3.1 3.2.9 2.6 2.4 2.3 4.5-.2 1.5-1.5 2.9-3.7 3.5-2.2.5-3.8 2.2-21-.3-4.6-.7-6.8-4.6-7.9-10.6-.7-4-1.8-9.5-2.1-13.6v-1.1c-.1-2.3.8-4.5 2.8-6L17 13.5c.6-.6 1.4-1 2.4-1.2 3.1-.3 6.9-1.1 11.4-3.1 1.7-.7 4.8.4 4.5 3.4"/><g fill="#eba352"><path d="M36.9 49.3c.6-3.8-5.3-3.5-2.8-2.7 2.5.8 2.8 2.7 2.8 2.7m2.5-7.3c.5-5.2-5.3-4.7-2.9-3.7s2.9 3.7 2.9 3.7m1.3-8.6c.5-5.2-5.7-4.7-3.3-3.7 2.5 1 3.3 3.7 3.3 3.7M27.2 20.7s12.6-1.5 28.6-.7c2.3.1 5.9.1 6.1 4.3-1.4-4.8-17.3-2.6-34.7-3.6"/><path d="M34.4 10c-.7-.2-1.5-.1-2 .1-4.5 2.1-8.3 2.8-11.4 3.1-1 .1-1.8.5-2.4 1.2l-12.2 9c-1.9 1.4-2.9 3.7-2.8 6v1.1C3.9 34.5 5 40 5.7 44c.7 4.2 2.1 7.5 4.4 9.2-3.4-1.3-5.1-5-6-10.1-.7-4-1.8-9.5-2.1-13.6v-1.1c-.1-2.3.8-4.5 2.8-6L17 13.5c.6-.6 1.4-1 2.4-1.2 3.1-.3 6.9-1.1 11.4-3.1 1-.4 2.6-.2 3.6.8"/><path d="M23 19.5s4.3-1.3 6.3-1.8c1.7-.4 4.8-2 6-4.6-.6 4.2-4 5.6-5.7 6.1l-.8.2s-.5.7-1.5 1.4c-.1-.1-2-1.5-4.3-1.3m13.4 10.3c-.6.2-1 .5-1.5.8-.5.3-.9.6-1.5.9-.5.3-1.2.5-1.8.5-.6 0-1.3-.2-1.8-.5.6 0 1.2-.1 1.7-.2s1-.4 1.5-.6c.5-.2 1-.5 1.6-.7.6-.3 1.2-.4 1.8-.2m-1.6 7.9c-.6.2-1 .5-1.5.8-.5.3-.9.6-1.5.9-.5.3-1.2.5-1.8.5-.6 0-1.3-.2-1.8-.5.6 0 1.2-.1 1.7-.2s1-.3 1.5-.6c.5-.2 1-.5 1.6-.7.5-.3 1.2-.4 1.8-.2m-2.4 8.5c-.6.2-1 .5-1.5.8-.5.3-.9.6-1.5.9-.5.3-1.2.5-1.8.5-.6 0-1.3-.2-1.8-.5.6 0 1.2-.1 1.7-.2s1-.4 1.5-.6c.5-.2 1-.5 1.6-.7.5-.3 1.2-.4 1.8-.2"/></g></svg>