<svg xmlns="http://www.w3.org/2000/svg" viewBox="0 0 64 64"><path fill="#ffdd67" d="M28.7 12.6c.4 4.4 4 5.9 5.7 6.4l.8.2s.6.5 1.5 1.1v.2s-7.8.5-10.3.1c-2.8-.4-15.2-.4-18.3-.5-3.5 0-6.1.6-6.1 4.7 0 4.1 3.2 5.3 6.2 5.1 4.2-.3 18.3-.6 18.3-.6-1.8.4-3.5 1.2-3.2 4.2.4 3.4 1.7 4.1 3.8 4.2-2.9 1.7-2.7 4-2.3 5.4.6 2.4 4.9 3.1 4.9 3.1-3.2.9-2.6 2.4-2.3 4.5.2 1.3 1.5 2.8 3.7 3.3s3.8 2.2 21.1-.3c4.5-.6 6.7-4.6 7.8-10.5.7-4 1.8-9.5 2.1-13.6v-1.1c.1-2.3-.8-4.5-2.8-6l-12.3-9c-.6-.6-1.4-1-2.4-1.2-3.1-.3-6.9-1.1-11.4-3.1-1.7-.7-4.8.4-4.5 3.4"/><g fill="#eba352"><path d="M27.1 49.3c-.6-3.8 5.3-3.5 2.8-2.7-2.5.8-2.8 2.7-2.8 2.7M24.6 42c-.5-5.2 5.3-4.7 2.9-3.7S24.6 42 24.6 42m-1.3-8.6c-.5-5.2 5.7-4.7 3.3-3.7-2.5 1-3.3 3.7-3.3 3.7m13.5-12.7S24.2 19.2 8.2 20c-2.4 0-6 .1-6.2 4.2 1.5-4.7 17.4-2.5 34.8-3.5"/><path d="M29.6 10c.7-.2 1.5-.1 2 .1 4.5 2.1 8.3 2.8 11.4 3.1 1 .1 1.8.5 2.4 1.2l12.2 8.9c1.9 1.4 2.9 3.7 2.8 6v1.1C60.1 34.5 59 40 58.3 44c-.7 4.2-2.1 7.5-4.4 9.2 3.4-1.3 5.1-5 6-10.1.7-4 1.8-9.5 2.1-13.6v-1.1c.1-2.3-.8-4.5-2.8-6L47 13.5c-.6-.6-1.4-1-2.4-1.2-3.1-.3-6.9-1.1-11.4-3.1-1-.4-2.6-.2-3.6.8"/><path d="M41 19.5s-4.3-1.3-6.3-1.8c-1.7-.4-4.8-2-6-4.6.6 4.2 4 5.6 5.7 6.1l.8.2s.5.7 1.5 1.4c.1-.1 2-1.5 4.3-1.3M27.6 29.8c.6-.2 1.3-.1 1.8.1.6.2 1.1.5 1.6.7.5.3 1 .5 1.5.6.5.1 1.1.2 1.7.2-.6.4-1.2.6-1.9.6-.6 0-1.3-.2-1.8-.5l-1.5-.9c-.4-.3-.8-.6-1.4-.8m1.6 7.9c.6-.2 1.3-.1 1.8.1.6.2 1.1.5 1.6.7.5.3 1 .5 1.5.6.5.1 1.1.2 1.7.2-.5.4-1.1.5-1.8.5-.6 0-1.3-.2-1.8-.5l-1.5-.9c-.5-.2-.9-.5-1.5-.7m2.4 8.5c.6-.2 1.3-.1 1.8.1.6.2 1.1.5 1.6.7.5.3 1 .5 1.5.6.5.1 1.1.2 1.7.2-.5.4-1.1.5-1.8.5-.6 0-1.3-.2-1.8-.5l-1.5-.9c-.5-.2-.9-.4-1.5-.7"/></g></svg>