<svg xmlns="http://www.w3.org/2000/svg" viewBox="0 0 64 64"><path fill="#ffdd67" d="M32.2 27.1s4.4.9.8-6.6c-2.6-5.4-2.3-11.7 0-15C36.8.2 44.1 1.9 43.3 5c-2.6 10.5 3.3 13.7 6.3 20.3 3.1 6.7 2.8 16.3 1.4 24.8-.9 5.3-3.2 11.9-11.5 11.9H28l4.2-34.9"/><path fill="#eba352" d="M38.2 60.5c8.3 0 10.1-6.6 11-11.9 1.4-8.5 1.6-15.3-1.1-22.2-3-7.5-6.1-7.7-6.1-22.5 0-.7-.4-1.2-.8-1.6 1.4.5 2.2 1.3 2.2 2.5 0 11.1 3.1 13.8 6.1 20.5 3.2 6.7 2.9 16.3 1.5 24.8-.9 5.3-3.2 11.9-11.5 11.9H28v-1.5h10.2"/><path fill="#ffdd67" d="M18 35.8h14.2c5 0 5-8.7 0-8.7H18c-5 0-5 8.7 0 8.7"/><path fill="#eba352" d="M16.9 34.4h14.2c3.4 0 4.4-4 3.3-6.5 2.7 2.1 1.9 8-2.1 8H18c-1.6 0-2.7-.9-3.3-2.2.6.4 1.3.7 2.2.7"/><path fill="#ffdd67" d="M16.5 44.6h17c6 0 6-8.7 0-8.7H16.4c-5.9 0-5.9 8.7.1 8.7"/><path fill="#eba352" d="M15.1 43.1h17.1c4 0 5.3-4 3.9-6.5 3.2 2.1 2.3 8-2.6 8H16.4c-1.9 0-3.2-.9-3.9-2.2.7.4 1.6.7 2.6.7"/><path fill="#ffdd67" d="M18.1 53.3h14.4c5 0 5-8.7 0-8.7H18.1c-5.1 0-5.1 8.7 0 8.7"/><path fill="#eba352" d="M16.9 51.8h14.5c3.4 0 4.5-4 3.3-6.6 2.7 2.1 2 8-2.2 8H18.1c-1.6 0-2.7-.9-3.3-2.2.5.6 1.3.8 2.1.8"/><path fill="#ffdd67" d="M19.6 62h9.3c5.4 0 5.4-8.7 0-8.7h-9.3c-5.4 0-5.4 8.7 0 8.7"/><path fill="#eba352" d="M18.4 60.6h9.3c3.6 0 4.8-4 3.5-6.6 2.9 2.1 2.1 8-2.3 8h-9.3c-1.8 0-2.9-.9-3.5-2.2.6.5 1.4.8 2.3.8"/></svg>