<svg xmlns="http://www.w3.org/2000/svg" viewBox="0 0 64 64"><path fill="#d99b57" d="M47.5 27.3S43 23.6 40.6 20c-.9-1.3-3.8-1.1-4.8 1.4l-15.6 6-10.3-5.5c-1.6-1-3.7-.3-4.6 1.6-.9 1.8-.4 4.1 1.3 5.1l1.6.9c-1.4-.2-2.9.5-3.6 1.9-.9 1.8-.4 4.1 1.3 5.1l3.6 2.1c-1.6-1-3.7-.3-4.6 1.6-.9 1.8-.4 4.1 1.3 5.1 0 0 18.1 11.2 24.3 14.5 4.9 2.7 14.6 4 20.7-3.4 2-2.6-3.7-29.1-3.7-29.1"/><g fill="#ffdd67"><path d="M55 27.3c-3.2-2.2-5.4-5.1-7-9.5-.6-1.5-2.8-1.8-4.1.7-1.9 3.6-.1 6.5.9 7.8l.5.6s.3 1.1.8 2.4c-2.7-.6-5.7.9-7.8 3.7-2.2 2.9-7.4 7.9-9.6 10.8-2.7 3.5-2 8.5 1 10.7 0 0 15.7 11.5 26.1-2.6 8.2-11 2.4-22.4-.8-24.6"/><path d="M49.7 31.5c1.6 1.2 2 3.5.8 5.3-1.1 1.8-3.4 2.3-5 1.1L20.6 20c-1.6-1.2-2-3.5-.8-5.3 1.1-1.8 3.4-2.3 5-1.1l24.9 17.9"/></g><path fill="#eba352" d="M36.8 29.5 20.9 18c-.9-.6-1.5-1.6-1.2-3.1-1.1 2-.4 4 .9 5l15.9 11.5c1.6 1.2 1.9-.7.3-1.9"/><path fill="#ffdd67" d="M41.6 35c1.6 1.2 2 3.5.8 5.3-1.1 1.8-3.4 2.3-5 1.1l-24.9-18c-1.6-1.2-2-3.5-.8-5.3 1.1-1.8 3.4-2.3 5-1.1l24.9 18"/><path fill="#eba352" d="M32 35.4 12.8 21.5c-.9-.6-1.5-1.8-1.2-3.1-1.1 2-.5 4.2.9 5.2l19.3 13.7c1.5 1.2 1.8-.8.2-1.9"/><path fill="#ffdd67" d="M40 43c1.6 1.2 2 3.5.8 5.3-1.1 1.8-3.4 2.3-5 1.1l-24.9-18c-1.6-1.2-2-3.5-.8-5.3 1.1-1.8 3.4-2.3 5-1.1L40 43"/><path fill="#eba352" d="m28.2 41.8-17-12.2c-.9-.6-1.5-2-1.1-3.4-1.3 1.9-.8 4.4.6 5.4l17.2 12.1c1.6 1.2 1.9-.7.3-1.9"/><path fill="#ffdd67" d="M39.3 52c1.6 1.2-9.8 2.4-11.4 1.2L10.3 40.5c-1.6-1.2-2-3.5-.8-5.3 1.1-1.8 3.4-2.3 5-1.1L39.3 52"/><path d="M59.9 41.6s-1.7 8.8-8.7 14.1c-6.2 4.7-15.8.6-20.4-2.4C26 50 23.6 48.4 12 39.6c-2.2-1.7-2.8-2.8-2.5-4.6-1.7 1.8-.8 4.6.6 5.6l1.2.8s13.9 10.2 18.6 13.4c4.3 3 15.4 7.7 22.4 2.1 7.9-6.1 7.6-15.3 7.6-15.3M48 30.1C46 28 45.9 25 45.9 25l-.5-.6c-.8-1-2.1-3.1-1.6-5.6-1.9 3.5 0 6.3.9 7.5l.5.6s-.1.9.4 1.6l2.4 1.6" fill="#eba352"/><path d="m37.8 2 3 12.2 5.9-11.3zm14.8 3.6-4.5 10.1L58.6 13zM30.2 3.5l2.8 11-9.2-5.9z" fill="#42ade2"/></svg>