<svg xmlns="http://www.w3.org/2000/svg" viewBox="0 0 64 64"><path d="M4.7 13.5C2.1 13.3 2 18.6 2 21.2c.1 4.8 12.1 14.5 13.9 14.3 1.3-.1 2.8-1.8 4.7-1.5 0 0-11-20.2-15.9-20.5m18 19.5c-2.7 2.7-.7 13.3 1.7 16.3C30 56.2 46 62 54.1 62c3.9 0 7.4-1.9 7.8-5.2.6-4.6-3.2-12.8-8.2-15.6-7.4-4.1-25.2-14.3-31-8.2" fill="#212326"/><path fill="#3d4347" d="M7.4 2.6C4.2 5.4 2.8 14.8 3.9 18.8c1.2 4.3 10.7 9 13.2 12.6 2.7 3.8 4.7 13.6 8.3 16.5C31.9 53.4 50 60.6 58 57.7 69.3 53.5 41.8 21.9 31.2 15 25 11 11.4-.9 7.4 2.6"/><path d="M25.9 45.8c2.8 1.9 5.8 3.5 8.9 4.9 3.1 1.4 6.3 2.6 9.5 3.5 1.6.5 3.3.9 4.9 1.1 1.6.3 3.3.4 4.9.2 1.6-.2 3.1-.8 3.4-2.1.4-1.3 0-2.9-.6-4.4-.2-.5 0-1 .5-1.2.5-.2 1 0 1.2.5.3.8.6 1.7.7 2.6.1.9.1 1.9-.3 2.9s-1.2 1.8-2.1 2.2c-.9.4-1.8.6-2.7.7-1.8.1-3.5-.1-5.2-.4-1.7-.3-3.4-.8-5-1.4-3.3-1.1-6.4-2.4-9.5-4-2.9-1.4-5.9-3.1-8.6-5.1M15 29.2C22.7 40.7 26.9 42 32.6 44c1.7.6 5.7 1.1 7.2 0 1.6-1.2 1.8-7.8 1.8-7.8s7.8 4.4 9.8 2.9c2.1-1.6-9-14.2-9-14.2s3 4.3 1.8 4.7C38 31.7 33.3 17.8 31 14.9c-.7-.9-2-2.2-3.1-2.2-1.6-.1-7 .9-6.9 2.5.1 1.3 3.1-.6 4.2.2 2.9 2.2 7.7 10.3 7.4 13.9-.2 2.4-4.8 9-7.2 9.4C24 39 15 29.2 15 29.2" fill="#fff"/><path fill="#a6876c" d="M8.2 2.8C6.1 4.1 7 10.3 8 12.6c.8 1.7 3.9 4.5 5.7 5 2.6.7 10.5-3.6 10.5-3.6s5.2 1.4 4.2.5C25.3 11.4 11 1.1 8.2 2.8"/><g fill="#212326"><path d="M58.6 39.4h-.2c-.2 0-5.3-1-8.3-4.6-2.1-2.5-3.3-5.4-4.4-8.2-1.6-3.9-3.1-7.7-7.2-9.9-1.9-1.1-4.1-.4-4.1-.4-.5.2-1.1-.1-1.3-.6-.2-.5.1-1.1.6-1.3.1 0 3-1 5.7.5 4.7 2.6 6.4 6.8 8.1 10.9 1.1 2.6 2.2 5.4 4.1 7.7 2.5 3 7.1 3.9 7.1 3.9.5.1.9.6.8 1.2 0 .5-.4.8-.9.8"/><path d="M29.5 30.2c-.2 0-.4-.1-.6-.2-.4-.3-.5-1-.2-1.4 2.1-2.7 7.6-5.9 13.4-3 .5.2.7.8.5 1.3-.2.5-.8.7-1.3.5-5.3-2.6-9.8 1-11 2.5-.2.1-.5.3-.8.3"/><path d="M27.3 26.9c-.2 0-.4-.1-.6-.2-.4-.3-.5-1-.2-1.4 2.1-2.7 7.6-5.9 13.4-3 .5.2.7.8.5 1.3-.2.5-.8.7-1.3.5-5.3-2.6-9.8 1-11 2.5-.2.1-.5.3-.8.3"/><path d="M25 23.5c-.2 0-.4-.1-.6-.2-.4-.3-.5-1-.2-1.4 2.1-2.7 7.6-5.9 13.4-3 .5.2.7.8.5 1.3-.2.5-.8.7-1.3.5-5.3-2.6-9.8 1-11 2.5-.2.2-.5.3-.8.3"/><path d="M22.9 20.9c-.2 0-.4-.1-.6-.2-.4-.3-.5-1-.2-1.4 2.1-2.7 7.6-5.9 13.4-3 .5.2.7.8.5 1.3-.2.5-.8.7-1.3.5-5.3-2.6-9.8 1-11 2.5-.2.2-.5.3-.8.3"/><path d="M20.7 18c-.2 0-.4-.1-.6-.2-.4-.3-.5-1-.2-1.4 2.1-2.7 7.6-5.9 13.4-3 .5.2.7.8.5 1.3-.2.5-.8.7-1.3.5-5.3-2.6-9.8 1-11 2.5-.2.2-.5.3-.8.3"/><path d="M15.8 56.2c-3.7 0-7.4-1.2-7.6-1.3-.5-.2-.8-.7-.6-1.3s.7-.8 1.3-.6c2.2.7 8.7 2.2 11.2.1 2.9-2.4 2-6.1.1-12-1.8-5.7-3.7-12.1-1.2-18.7.6-1.5 2.3-7.1 2.3-7.2.2-.5.7-.8 1.2-.7.5.2.8.7.7 1.2-.1.2-1.7 5.7-2.3 7.3-2.3 6-.4 12 1.3 17.4 1.7 5.6 3.4 10.9-.8 14.2-1.5 1.3-3.5 1.6-5.6 1.6"/></g></svg>