<svg xmlns="http://www.w3.org/2000/svg" viewBox="0 0 64 64"><path fill="#9f7dcc" d="M45.3 23.4c-.7-7.9-3-12.3-13-12.3-9.9 0-12.3 4.4-13 12.3 0 0 4.9-1.5 13-1.5 8.1.1 13 1.5 13 1.5"/><path fill="#856daa" d="M32.3 11.1c-9.9 0-12.3 4.4-13 12.3 0 0 4.9-1.5 13-1.5 8.1.1-3.2-5.5 0-10.8"/><path fill="#fff652" d="M46.3 23.2s-5.3-1.6-13.9-1.6c-8.7 0-13.9 1.6-13.9 1.6-.2 1.8-.2 3.6-.2 5.5 0 1.1 0 2.2.1 3.3 0 0 5.9-1.5 14.1-1.5S46.6 32 46.6 32c.1-1.1.1-2.2.1-3.3-.2-1.9-.3-3.7-.4-5.5"/><path fill="#ddd243" d="M35.9 21.7s-1.9-.2-3.6-.2c-8.7 0-13.9 1.7-13.9 1.7-.2 1.8-.2 3.6-.2 5.5 0 1.1 0 2.2.1 3.3 0 0 5.9-1.5 14.1-1.5s6.4-4.3 5.3-4.5c-2.2-.4-1.7-2.5-1.8-4.3"/><path fill="#9f7dcc" d="M32.5 26.5c13.2-1.8 23.8 2.6 30.9 8 4.7 3.5-19-7.1-35.2 8.1C12.7 57.1-2.9 55.2 1.6 44.5c4-9.5 14.4-15.7 30.9-18"/><path fill="#856daa" d="M46.5 26.9S35.1 26 22.8 38.3C7.7 53.2-2.4 50.6 3.7 40.8 9.8 30.9 28.8 23 46.5 26.9z"/><path fill="#99cff6" d="M19.7 27.4c3.5-2 5.6-4.4 5.2-6.1-.4-1.8-3.2-2.5-7-2.1.3-4.4-.3-7.6-1.9-8.1-1.5-.4-3.6 2-5.3 6-3.2-2.4-5.9-3.3-7.1-2-1.1 1.3-.4 4.5 1.7 8.1-3.5 2-5.6 4.4-5.2 6.1.4 1.8 3.2 2.5 7 2.1-.3 4.4.3 7.6 1.9 8.1 1.5.4 3.6-2 5.3-6 3.2 2.4 5.9 3.3 7.1 2 1.1-1.3.3-4.5-1.7-8.1"/><path fill="#75b7ea" d="M32.7 22.5c-.1-1.6-2.7-2.9-6.4-3.3.9-3.9.8-6.9-.6-7.6-1.4-.7-3.7 1.1-5.9 4.3-2.7-2.8-5.2-4.1-6.5-3.1-1.3.9-1 3.9.5 7.6-3.6 1.1-6 2.8-5.9 4.4.1 1.6 2.7 2.9 6.4 3.3-.9 3.9-.8 6.9.6 7.6 1.4.7 3.7-1.1 5.9-4.3 2.7 2.8 5.2 4.1 6.5 3.1 1.3-1 1-3.9-.5-7.6 3.6-1.1 6-2.7 5.9-4.4"/><g fill="#cdecfc"><path d="M32.3 17.8c-.5-1.2-2.9-1.2-5.8-.2-.4-3.3-1.3-5.6-2.6-5.6s-2.5 2.2-3.4 5.5c-2.8-1.2-5.1-1.3-5.8-.1-.7 1.2.3 3.4 2.5 5.7-2.5 2.2-3.8 4.3-3.3 5.6.5 1.2 2.9 1.2 5.8.2.4 3.3 1.3 5.6 2.6 5.6s2.5-2.2 3.4-5.5c2.8 1.2 5.1 1.3 5.9.1.7-1.2-.3-3.4-2.5-5.7 2.4-2.2 3.8-4.3 3.2-5.6" opacity=".3"/><path d="M20.4 20.7c-.5-1.1-2.5-1.1-5-.2-.3-2.9-1.1-4.8-2.2-4.9-1.1 0-2.2 1.9-2.9 4.7-2.4-1-4.4-1.1-5-.1-.6 1 .3 2.9 2.1 4.9-2.2 2-3.4 3.8-2.9 4.9.5 1 2.5 1 5 .2.3 2.8 1.2 4.8 2.2 4.8 1.1 0 2.2-1.9 2.9-4.7 2.4 1 4.4 1.1 5 .1.6-1-.3-2.9-2.1-4.9 2.2-1.9 3.4-3.8 2.9-4.8" opacity=".3"/></g></svg>