<svg xmlns="http://www.w3.org/2000/svg" viewBox="0 0 64 64"><path fill="#d0d0d0" d="M64 59.7c0 2.4-2.2 4.3-4.9 4.3H4.9C2.2 64 0 62.1 0 59.7V9.1c0-2.4 2.2-4.3 4.9-4.3h54.2c2.7 0 4.9 1.9 4.9 4.3v50.6z"/><g fill="#94989b"><path d="M48.9 9.5H15.1L18.4 0h27.2z"/><path d="m18.4 2.9-3.3 6.6 12 17.7V15.1zm27.2 0 3.3 6.6-12 17.7V15.1z"/></g><path d="m18.4 0-3.3 9.5 12 14.9V12.2zm27.2 0 3.3 9.5-12 14.9V12.2z" fill="#fff"/><path fill="#42ade2" d="M37.7 24.4H26.3L23 56.8l9.1 7.2 8.9-7.2z"/><path fill="#428bc1" d="m38.1 27.6-.3-3.3H26.3l-.3 3.3c2.4 1.8 9.5 1.7 12.1 0"/><path fill="#42ade2" d="M38.6 24.4c-2.2 2.2-11.2 2.4-13.1 0-2-2.5 1.6-12.2 1.6-12.2s3.7 1.4 4.9 1.4 4.9-1.4 4.9-1.4 4 9.9 1.7 12.2"/></svg>