<svg xmlns="http://www.w3.org/2000/svg" viewBox="0 0 64 64"><path fill="#42ade2" d="M63.7 16.1S57.6 4.1 56 3.2c-1.6-.9-10.5-.7-13.8-2 0 0-4.1 4.8-10.2 4.8S21.8 1.2 21.8 1.2C18.4 2.5 9.6 2.3 8 3.2S.2 16.1.2 16.1c3.4 7.7 11.4 9.4 11.4 9.4l3.2-5-1.5 38.7C21 63.7 26.6 64 32 64c5.4 0 10.9-.3 18.6-4.7l-1.5-38.7 3.2 5c0-.1 8.1-1.7 11.4-9.5"/><path d="M32.2 7.2c-1.6 0-3.1-.3-4.7-.9-1.2-.5-2.5-1.1-3.7-1.9-2-1.3-3.3-2.7-3.3-2.7L22.4.2l-.9.7.9-.7s1.1 1.2 2.9 2.4c1.6 1 4.1 2.3 6.9 2.3 3.2 0 6.3-1.7 9.2-4.9l1.9 1.5c-1.8 2-3.6 3.5-5.6 4.4-1.7.8-3.5 1.3-5.5 1.3M13 23.4c-3.5-.3-6.5-2-8.9-5.1-1.4-1.8-2.3-3.6-2.7-4.6L0 16.5c.5 1 1.2 2.1 2.1 3.2 1.4 1.8 3 3.2 4.7 4.2 1.5.9 3.1 1.5 4.9 1.7l1.3-2.2m38 .1c3.5-.3 6.5-2 8.9-5.1 1.4-1.8 2.3-3.6 2.7-4.6l1.4 2.7c-.5 1-1.2 2.1-2.1 3.2-1.4 1.8-3 3.2-4.7 4.2-1.5.9-3.2 1.5-4.9 1.7L51 23.5" fill="#22648c"/></svg>