<svg xmlns="http://www.w3.org/2000/svg" viewBox="0 0 64 64"><path d="M2.9 26.8c-1 .8-1.2 2.3-.4 3.3l10.8 13.8L17 41 6.2 27.3c-.8-1.1-2.3-1.3-3.3-.5m22.1 8 3.9-3L16.6 16c-.8-1.1-2.4-1.3-3.5-.4-1.1.8-1.3 2.4-.4 3.5L25 34.8" fill="#ffdd67"/><path fill="#eba352" d="m13.1 15.6-.3.3c1-.5 2.4-.3 3.1.6l12.3 15.7.7-.5L16.6 16c-.8-1-2.4-1.2-3.5-.4"/><path fill="#ffdd67" d="m17 41.1 4-3.1L8.4 21.9c-.9-1.1-2.5-1.3-3.6-.5-1.1.9-1.3 2.5-.4 3.6L17 41.1"/><path fill="#eba352" d="m4.8 21.4-.3.3c1.1-.6 2.4-.3 3.2.7l7.8 10 1.5.5-8.6-11c-.8-1.2-2.5-1.4-3.6-.5"/><path fill="#ffdd67" d="m20 36.6 4-3.1-12.6-16.1c-.9-1.1-2.5-1.3-3.6-.5-1.1.9-1.3 2.5-.4 3.6L20 36.6"/><path d="m7.8 17-.3.3c1.1-.6 2.5-.3 3.2.7l8.9 11.3 1.5.5-9.6-12.3c-.9-1.2-2.6-1.4-3.7-.5m-4.9 9.8-.3.3c1-.5 2.2-.2 2.9.7l6.4 8.2 1.5.5-7.2-9.2c-.8-1.1-2.3-1.3-3.3-.5" fill="#eba352"/><path fill="#ffdd67" d="M32.3 18.5c-1.9-.9-4.2 1-4.5 5.6-.2 3.2-.1 4-1.8 5.3l-1.5-1.9S9.6 39.2 10.6 40.4c0 0 3.4 5.8 7.4 7.9 6 3.2 16.7-4 14.8-15.3-1.3-6.7 1.5-13.5-.5-14.5"/><g fill="#eba352"><path d="M32.3 18.5c-.4-.2-.7-.2-1.1-.2.1 0 .2.1.3.1 2 1 .9 4.5.5 7.5-.3 2.4-.5 4.9.1 7 2.6 9.6-6.1 16.4-12.4 15.9C26 50 35.6 43.1 32.9 33.1c-.6-2.2-.4-4.5-.1-7 .4-3.1 1.5-6.6-.5-7.6"/><path d="M26.4 29c-3.5 1.2-7.8 7.6-2.7 12.5-4-5.1-.4-10 2.2-12l.5-.5"/></g><path d="M61.1 26.7c1 .8 1.2 2.3.4 3.3L50.7 43.8 47 41l10.8-13.8c.8-1.1 2.3-1.3 3.3-.5m-22.1 8-3.9-3L47.4 16c.8-1.1 2.4-1.3 3.5-.4 1.1.8 1.3 2.4.4 3.5L39 34.7" fill="#ffdd67"/><path fill="#eba352" d="m50.9 15.5.3.3c-1-.5-2.4-.3-3.1.6L35.8 32.2l-.7-.5L47.4 16c.8-1.1 2.4-1.3 3.5-.5"/><path fill="#ffdd67" d="m47 41-4-3.1 12.6-16.1c.9-1.1 2.5-1.3 3.6-.5 1.1.9 1.3 2.5.4 3.6L47 41"/><path fill="#eba352" d="m59.2 21.3.3.3c-1.1-.6-2.4-.3-3.2.7l-7.8 10-1.5.5 8.6-11c.8-1.1 2.5-1.3 3.6-.5"/><path fill="#ffdd67" d="m44 36.5-4-3.1 12.6-16.1c.9-1.1 2.5-1.3 3.6-.5 1.1.9 1.3 2.5.4 3.6L44 36.5"/><path d="m56.2 16.9.3.3c-1.1-.6-2.4-.3-3.2.7l-8.8 11.3-1.5.5 9.6-12.3c.8-1.2 2.5-1.4 3.6-.5m4.9 9.8.3.3c-1-.5-2.2-.2-2.9.7l-6.4 8.2-1.5.5 7.2-9.2c.8-1.1 2.3-1.3 3.3-.5" fill="#eba352"/><path fill="#ffdd67" d="M31.7 18.5c1.9-.9 4.2 1 4.5 5.6.2 3.2.1 4 1.8 5.3l1.5-1.9s14.9 11.7 13.9 12.9c0 0-3.4 5.8-7.4 7.9-6 3.2-16.7-4-14.8-15.3 1.3-6.8-1.5-13.6.5-14.5"/><g fill="#eba352"><path d="M31.7 18.5c.4-.2.7-.2 1.1-.2-.1 0-.2.1-.3.1-2 1-.9 4.5-.5 7.5.3 2.4.5 4.9-.1 7-2.6 9.6 6.1 16.4 12.4 15.9C38 50 28.4 43 31.1 33c.6-2.2.4-4.5.1-7-.4-3.1-1.5-6.6.5-7.5"/><path d="M37.6 28.9c3.5 1.2 7.8 7.6 2.7 12.5 4-5.1.4-10-2.2-12l-.5-.5"/></g></svg>