<svg xmlns="http://www.w3.org/2000/svg" viewBox="0 0 64 64"><path fill="#6f2833" d="M50 19.8S61.6 15.4 59.9 4l3.4 2.5s0 10.1-10.3 16.6l-3-3.3"/><g fill="#db3557"><path d="M50 19.7S52.9 6.8 59.9 4l3.4 2.5S56.1 10.6 53 23.1l-3-3.4"/><path d="M63.3 55.9c0 5.5-62.6 5.5-62.6 0C.7 23.3-1.5 13.3 32 13.3c33.4 0 31.3 10 31.3 42.6"/></g><path fill="#6f2833" d="M1.9 31h60.2v7H1.9z"/><path fill="#f26b8c" d="M1.9 32h60.2v5H1.9z"/><path fill="#db3557" d="M60.9 35.8H3.1v-2.6h57.8z"/><path d="M3.6 29h3.5v1H3.6zm4.9 0H12v1H8.5zm4.8 0h3.5v1h-3.5zm4.8 0h3.5v1h-3.5zm4.9 0h3.5v1H23zm4.8 0h3.5v1h-3.5zm4.8 0h3.5v1h-3.5zm4.9 0H41v1h-3.5zm4.8 0h3.5v1h-3.5zm4.8 0h3.5v1h-3.5zm4.9 0h3.5v1H52zm4.8 0h3.5v1h-3.5zM3.6 39h3.5v1H3.6zm4.9 0H12v1H8.5zm4.8 0h3.5v1h-3.5zm4.8 0h3.5v1h-3.5zm4.9 0h3.5v1H23zm4.8 0h3.5v1h-3.5zm4.8 0h3.5v1h-3.5zm4.9 0H41v1h-3.5zm4.8 0h3.5v1h-3.5zm4.8 0h3.5v1h-3.5zm4.9 0h3.5v1H52zm4.8 0h3.5v1h-3.5z" fill="#f26b8c"/><path fill="#fff" d="M62.6 57.3c-.5 0-.9-.4-.9-1v-5.2c.1-13.4.1-22.2-4-27.1-3.4-4.1-11.6-6-25.7-6S9.7 19.9 6.3 24.1c-4.1 4.9-4 13.7-4 27.1v5.1c0 .5-.4 1-.9 1s-.9-.4-.9-1v-5.1C.4 37.3.4 28.2 5 22.7 8.8 18.2 17.4 16 32 16s23.2 2.1 27 6.7c4.5 5.5 4.5 14.6 4.5 28.4v5.2c0 .5-.4 1-.9 1"/><path fill="#c9c9c9" d="M32 16.5c13.9 0 22.8 1.9 26.7 6.5 4.4 5.3 4.4 14.4 4.3 28.1v5.1c0 .3-.2.5-.4.5s-.4-.2-.4-.5V51c.1-13.5.1-22.4-4.1-27.4-3.7-4.4-12.5-6.2-26.1-6.2-13.6 0-22.4 1.8-26.1 6.2-4.2 5-4.2 13.9-4.1 27.4v5.2c0 .3-.2.5-.4.5s-.4-.1-.4-.4v-5.1C.9 37.4.9 28.4 5.3 23.1c3.9-4.7 12.8-6.6 26.7-6.6m0-1c-14.8 0-23.5 2.2-27.4 6.9C-.1 28 0 37.2 0 51.1v5.1c0 .8.6 1.5 1.4 1.5s1.4-.7 1.4-1.5v-5.1c-.1-13.2-.1-22 3.9-26.7 3.3-4 11.6-5.9 25.4-5.9 13.8 0 22.1 1.9 25.4 5.9 4 4.8 3.9 13.5 3.9 26.7v5.2c0 .8.6 1.5 1.4 1.5s1.4-.7 1.4-1.5v-5.2c-.2-13.9-.1-23.1-4.8-28.7-3.9-4.7-12.6-6.9-27.4-6.9z"/><ellipse cx="46.6" cy="34.8" fill="#fff" rx="3.4" ry="2.8"/><g fill="#c9c9c9"><path d="M46.6 38.1c-2.1 0-3.9-1.5-3.9-3.3 0-1.8 1.7-3.3 3.9-3.3s3.9 1.5 3.9 3.3c0 1.8-1.7 3.3-3.9 3.3m0-5.6c-1.6 0-2.9 1-2.9 2.3 0 1.3 1.3 2.3 2.9 2.3s2.9-1 2.9-2.3c.1-1.3-1.3-2.3-2.9-2.3"/><path d="M45.8 33.6H50V36h-4.2z"/></g><path fill="#fff" d="M49.8 44.1c.2 1.2-.3 2.4-1.3 2.4h-2c-1 0-1.5-1.2-1.3-2.4L46 39c.1-.4.5-.7.9-.7h1c.5 0 .9.3.9.7l1 5.1"/><path fill="#c9c9c9" d="M48.5 47h-2c-.5 0-.9-.2-1.3-.6-.5-.6-.7-1.5-.5-2.4l.9-5.1c.1-.6.7-1.1 1.4-1.1h1c.7 0 1.3.5 1.4 1.1l.9 5.1c.2.9 0 1.8-.5 2.4-.4.4-.8.6-1.3.6M47 38.8c-.2 0-.4.2-.5.3l-.9 5.1c-.1.6 0 1.2.3 1.6.1.2.3.3.5.3h2c.2 0 .4-.1.5-.3.3-.4.4-1 .3-1.6l-.9-5.1c0-.1-.2-.3-.5-.3H47"/><path fill="#9b9596" d="M47 33.2h.9v6.1H47z"/></svg>