<svg xmlns="http://www.w3.org/2000/svg" viewBox="0 0 64 64"><g fill="#FC97B2"><path d="m52.4 42.5-.9-1.7s-8.8 2.4-18.5 2.4-18.5-2.4-18.5-2.4l-.9 1.7c7.9 0 14.6 10.6 17 21.4.8.1 1.6.1 2.4.1.8 0 1.6 0 2.4-.1 2.3-10.8 9-21.4 17-21.4"/><path d="M14 41.1c-.9 1.2-1.9 2.3-2.8 3.4-.3.3-.5.6-.7.9-.2.3-.4.6-.4 1 0 .7.4 1.5.8 2 .1.1.3.2.3.2.2 0 0 0 .1-.1l.1-.1c.2-.2.4-.6.6-.9.2-.3.3-.7.4-1 .1-.3.2-.7.3-1.1.4-1.5.8-2.9 1.3-4.3m.2-.2c.1 1.6-.1 3.2-.4 4.7-.1.4-.2.8-.4 1.2-.2.4-.4.8-.6 1.1-.2.3-.5.7-.8 1-.1.1-.2.2-.3.2-.1.1-.4.1-.5.1-.4-.1-.5-.3-.7-.5-.4-.8-.6-1.5-.7-2.3-.1-.9.4-1.7.8-2.4.9-1.4 2.1-2.4 3.6-3.1"/><path d="M14.2 41.3c.1 1.3.1 2.6.1 3.9 0 .7-.1 1.5.3 2 .4.6 1 1.1 1.6 1.3s-.1.1-.1 0v-.4c0-.3-.1-.7-.2-1-.1-.4-.2-.7-.3-1l-.4-1c-.2-1.2-.6-2.5-1-3.8m0-.5c.9 1.2 1.6 2.5 2.2 3.9.1.3.3.7.4 1.1.1.4.2.8.2 1.1 0 .4.1.8.1 1.2 0 .2 0 .4-.2.7-.2.5-.7.4-.9.3-.4-.2-.6-.5-.9-.8-.3-.3-.5-.6-.7-.9-.5-.6-.7-1.4-.8-2.2-.2-1.5 0-2.9.6-4.4"/><path d="M14.2 40.9c-.2 2.1-.4 4.3-.5 6.4-.1 1.1 0 2.1-.1 3.2s-.2 2.1-.2 3.2h-.1c-.6-1-.7-2.2-.7-3.2 0-1.1.2-2.2.3-3.3.3-2.1.7-4.3 1.3-6.3"/><path d="M14.2 40.9c0 2.8.1 5.7.3 8.5.1 1.4.3 2.8.4 4.2.1 1.4.1 2.8.5 4.2h-.1c-.4-.6-.7-1.3-.9-2-.2-.7-.3-1.4-.5-2.1-.2-1.4-.2-2.9-.2-4.3 0-2.9.2-5.7.5-8.5m37.2.2c-.9 1.2-1.9 2.3-2.8 3.4-.3.3-.5.6-.7.9-.2.3-.4.6-.4 1 0 .7.4 1.5.8 2 .1.1.3.2.3.2.2 0 0 0 .1-.1l.1-.1c.2-.2.4-.6.6-.9.2-.3.3-.7.4-1 .1-.3.2-.7.3-1.1.4-1.5.8-2.9 1.3-4.3m.2-.2c.1 1.6-.1 3.2-.4 4.7-.1.4-.2.8-.4 1.2-.2.4-.4.8-.6 1.1-.2.3-.5.7-.8 1-.1.1-.2.2-.3.2-.1.1-.4.1-.5.1-.4-.1-.5-.3-.7-.5-.4-.8-.6-1.5-.7-2.3-.1-.9.4-1.7.7-2.4 1-1.4 2.2-2.4 3.7-3.1"/><path d="M51.6 41.3c.1 1.3.1 2.6.1 3.9 0 .7-.1 1.5.3 2 .4.6 1 1.1 1.6 1.3s-.1.1-.1 0v-.4c0-.3-.1-.7-.2-1-.1-.4-.2-.7-.3-1l-.4-1c-.3-1.2-.7-2.5-1-3.8m0-.5c.9 1.2 1.6 2.5 2.2 3.9.1.3.3.7.4 1.1.1.4.2.8.2 1.1 0 .4.1.8.1 1.2 0 .2 0 .4-.2.7-.2.5-.7.4-.9.3-.4-.2-.6-.5-.9-.8-.3-.3-.5-.6-.7-.9-.5-.6-.7-1.4-.8-2.2-.3-1.5 0-2.9.6-4.4"/><path d="M51.6 40.9c-.2 2.1-.4 4.3-.5 6.4-.1 1.1 0 2.1-.1 3.2s-.2 2.1-.2 3.2h-.1c-.6-1-.7-2.2-.7-3.2 0-1.1.2-2.2.3-3.3.3-2.1.7-4.3 1.3-6.3"/><path d="M51.6 40.9c0 2.8.1 5.7.3 8.5.1 1.4.3 2.8.4 4.2.1 1.4.1 2.8.5 4.2h-.1c-.4-.6-.7-1.3-.9-2-.2-.7-.3-1.4-.5-2.1-.2-1.4-.2-2.9-.2-4.3 0-2.9.1-5.7.5-8.5M12.3 14.4c-1.6 1.2-1.3 6.4-.8 8.4.4 1.9 2.1 5.7 3.7 6.5 3.7 1.8 13.4.6 16.1-2.8.3-.4.2-1.6 0-2.1-1.6-2.9-7.1-6.6-9.9-7.9-2.1-1-7.2-3.6-9.1-2.1"/><path d="m13.8 15.4-1.5-.4s1.1-1.6 1.1-7.5c0-4.2-1.1-7.1-1.1-7.2l1.5-.3c0 .2 1.2 3.2 1.2 7.6 0 6.1-1.2 7.6-1.2 7.8m37.9-1c1.6 1.2 1.3 6.4.8 8.4-.4 1.9-2.1 5.7-3.7 6.5-3.7 1.8-13.4.6-16.1-2.8-.3-.4-.2-1.6 0-2.1 1.6-2.9 7.1-6.6 9.9-7.9 2.1-1 7.2-3.6 9.1-2.1"/><path d="m50.2 15.4 1.5-.4s-1.1-1.6-1.1-7.5c0-4.2 1.1-7.1 1.1-7.2L50.2 0C50.1.2 49 3.2 49 7.6c.1 6.1 1.2 7.6 1.2 7.8m-19 9.6h1.6v1.1h-1.6z"/></g></svg>