<svg xmlns="http://www.w3.org/2000/svg" viewBox="0 0 64 64"><path fill="#428bc1" d="M48.1 14V0H15.9v14C9.4 46.5 13 63.4 13 63.4l16.1-5.2C24.5 36.8 32 22.5 32 22.5h1.7s5.8 14.3 1.2 35.7L51 63.4s3.6-16.9-2.9-49.4z"/><g fill="#347aa5"><path d="M41.3 26c-.2.4-2.1-.3-4.2-1.5s-3.6-2.4-3.4-2.8c.2-.4 2.1.3 4.2 1.5 2 1.2 3.6 2.4 3.4 2.8m3.2 18c-.2.4-2.1-.3-4.2-1.5s-3.6-2.4-3.4-2.8c.2-.4 2.1.3 4.2 1.5 2 1.2 3.6 2.5 3.4 2.8m6.8 15.1c-.2.4-2.1-.3-4.2-1.5s-3.6-2.4-3.4-2.8c.2-.4 2.1.3 4.2 1.5 2 1.2 3.6 2.5 3.4 2.8"/><path d="M51 59.2c-.4.2-1.5-1.5-2.5-3.6-1-2.2-1.5-4.1-1.1-4.2.4-.2 1.5 1.5 2.5 3.6 1 2.2 1.5 4.1 1.1 4.2"/><ellipse cx="41" cy="39.9" rx="3.8" ry=".5" transform="translate(-.143 .148)"/><path d="M44 37.2c.1.3-1.4 1.1-3.3 1.8s-3.6 1-3.7.8c-.1-.3 1.4-1.1 3.3-1.8 1.9-.8 3.6-1.1 3.7-.8m-.2-19.3c-.2-.2.6-1.2 1.7-2.3s2.2-1.9 2.3-1.7c.2.2-.6 1.2-1.7 2.3-1.1 1.1-2.2 1.8-2.3 1.7"/><path d="M44.6 19.8c-.2-.1.4-1.5 1.4-3 1-1.5 1.9-2.7 2.1-2.6.2.1-.4 1.5-1.4 3-1 1.5-1.9 2.7-2.1 2.6m-8.1 7.5c-.2.1-1-.9-1.7-2.3s-1.1-2.6-.9-2.7c.2-.1 1 .9 1.7 2.3s1.1 2.6.9 2.7"/><ellipse cx="40.1" cy="22.1" rx=".7" ry="6.5" transform="rotate(-84.105 40.129 22.102)"/><path d="M35.2 53.9 52 60l-.7 4-17-5.2zm-11-27.6c.2.4 2.1-.3 4.2-1.5s3.6-2.4 3.4-2.8c-.2-.4-2.1.3-4.2 1.5S24 26 24.2 26.3m-4.6 17.3c.2.4 2.1 0 4.3-.9 2.2-.9 3.9-1.9 3.7-2.3-.2-.4-2.1 0-4.3.9-2.2.8-3.9 1.9-3.7 2.3m-6.9 15.5c.2.4 2.1-.3 4.2-1.5s3.6-2.4 3.4-2.8c-.2-.4-2.1.3-4.2 1.5-2 1.2-3.6 2.5-3.4 2.8"/><path d="M13 59.2c.4.2 1.5-1.5 2.5-3.6 1-2.2 1.5-4.1 1.1-4.2-.5-.2-1.6 1.4-2.6 3.6-.9 2.2-1.4 4.1-1 4.2"/><ellipse cx="23.6" cy="39.9" rx=".5" ry="3.8" transform="rotate(-82.484 23.595 39.857)"/><path d="M20.2 17.9c.2-.2-.6-1.2-1.7-2.3-1.1-1.1-2.2-1.9-2.3-1.7-.2.1.6 1.1 1.7 2.3 1.1 1.1 2.2 1.8 2.3 1.7"/><path d="M19.5 19.4c.2-.1-.4-1.5-1.4-3-1-1.5-1.9-2.7-2.1-2.6s.4 1.5 1.4 3c1 1.6 1.9 2.8 2.1 2.6m9.4 7.9c.2.1 1-.9 1.7-2.3s1.1-2.6.9-2.7-1 .9-1.7 2.3-1.1 2.6-.9 2.7m-.1 26.6L12 60l.7 4 17-5.2z"/></g><ellipse cx="33.7" cy="2.6" fill="#ffce31" rx="1.3" ry="1.2"/><path fill="#3e4347" d="M43.2 11.7c-1.8-1.9-2-4.7-2-5.9h7v-.6h-6.5V0H40v5.2h-8.2V0h-.4v5.2H24V0h-1.5v5.2h-6.6v.6H23c0 1.2-.2 4-2 5.9-1.2 1.3-2.8 1.9-5.1 1.9v.4c2.4 0 4.1-.7 5.4-2.1 1.9-2 2.2-4.9 2.1-6.1h7v14.9c0 .9.8 1.7 1.8 1.7H34V5.8h6.7c0 1.3.2 4.1 2.1 6.1 1.3 1.4 2.9 2.1 5.3 2.1v-.4c-2.3 0-3.7-.6-4.9-1.9M40.4.4h.7v4.8h-.7V.4M22.9.4h.7v4.8h-.7V.4m10.7 21.7h-1.4c-.8 0-1.4-.6-1.4-1.3v-15h2.8v16.3"/></svg>