<svg xmlns="http://www.w3.org/2000/svg" viewBox="0 0 64 64"><path fill="#ffb300" d="M57.9 40S61 34.4 61 26c0-11-8.1-24-29-24S3 15 3 26c0 8.4 3.1 14 3.1 14C2.5 44.1.3 52.4 3.4 57.8c1.3 2.2 14.1 10 15.3-3.9h26.4c1.3 13.8 14.1 6.1 15.3 3.9 3.2-5.4 1-13.7-2.5-17.8"/><path fill="#c28fef" d="M32 6C16.7 6 5.5 14 5.5 24 5.5 24 9.6 9 32 9s25.5 15 25.5 15C57.5 14 47.3 6 32 6z"/><path fill="#ffdd67" d="M57.3 42c6.2 0 6.2-9 0-9v-3s-35-.9-43-13c2 12.2-7.7 16-7.7 16-6.2 0-6.2 9 0 9 0 7 7.3 18 25.3 18s25.4-11 25.4-18"/><g fill="#fff"><circle cx="44.5" cy="36.5" r="6.5"/><circle cx="19.5" cy="36.5" r="6.5"/></g><circle cx="44.5" cy="36.5" r="4.5" fill="#664e27"/><circle cx="44.5" cy="36.5" r="1.5" fill="#231f20"/><circle cx="19.5" cy="36.5" r="4.5" fill="#664e27"/><circle cx="19.5" cy="36.5" r="1.5" fill="#231f20"/><path fill="#937237" d="M40.1 48.1c-5.2 3.6-11 3.6-16.2 0-.6-.4-1.2.3-.8 1 1.6 2.6 4.8 4.9 8.9 4.9s7.3-2.3 8.9-4.9c.4-.7-.2-1.4-.8-1"/></svg>