<svg xmlns="http://www.w3.org/2000/svg" viewBox="0 0 64 64"><path fill="#cedbd5" d="M50 10.8c-7-5.5-29-5.5-36 0C3.6 19 2 62 2 62h60s-1.6-43-12-51.2z"/><path fill="#ffb300" d="M54.3 39c.3-.7.5-1.4.5-2.2 0-1.5-.6-2.8-1.5-3.8 1.4-1 2.3-2.6 2.3-4.5 0-2-1-3.7-2.5-4.7.6-.9.9-1.9.9-3.1v-.5l-1.4-3.7.3-2.7C50.6 7.2 44.4 2 32 2 19.6 2 13.4 7.2 11.1 13.7l.3 2.7-1.4 3.7v.5c0 1.1.3 2.2.9 3.1a5.6 5.6 0 0 0-2.5 4.7c0 1.9.9 3.6 2.3 4.5-.9 1-1.5 2.3-1.5 3.8 0 .8.2 1.6.5 2.2-2 .7-2.7 2.8-2.7 5.2 0 10.1 11 5.7 11 5.7h28s11 4.5 11-5.7c0-2.4-.6-4.4-2.7-5.1"/><path d="M54.3 62c0-14.7-1.4-15.5-22.3-15.5-20.8 0-22.3.8-22.3 15.5h44.6M32 6.6c-7.8 0-15.1 2.7-20.9 7.1-.7 2-1.1 4.2-1.1 6.4 5.6-5.8 13.3-9.4 22-9.4s16.4 3.6 22 9.4c0-2.2-.4-4.3-1.1-6.4C47.1 9.3 39.8 6.6 32 6.6" fill="#f2f1f0"/><path fill="#ffdd67" d="M15.4 36.2s-3.4-.9-3.4-5.8c0-3.9 2.5-4.6 2.5-4.6 9.1 0 25.9-11.7 25.9-11.7s3.5 10.3 8.9 11.7c0 0 2.6.5 2.6 4.6 0 4.9-3.5 5.8-3.5 5.8 0 7.4-10.3 16.4-16.5 16.4-6.1 0-16.5-9-16.5-16.4"/><path fill="#eba352" d="M32 41.1c-3.2 0-4.8-2.3-3.2-2.3h6.4c1.6 0 0 2.3-3.2 2.3"/><path fill="#f5f5f5" d="M36.8 34.3c-1.1 0-1-1.4-1-1.4 1.7-8.8 11.5-4.1 11.5-4.1.8 1.5-1.8 5.3-2.5 5.5-3.1.8-8 0-8 0"/><path fill="#664e27" d="M44.7 30.7c0 1.9-1.5 3.5-3.5 3.5-1.9 0-3.5-1.5-3.5-3.5 0-1.9 1.6-3.5 3.5-3.5s3.5 1.6 3.5 3.5"/><circle cx="41.2" cy="30.7" r="1.2" fill="#2b2925"/><path fill="#3b3226" d="M35.8 32.9c1.7-10.5 10.4-3.5 13.8-5-3.4 3.2-10.3-3.8-13.8 5"/><path fill="#f5f5f5" d="M27.2 34.3c1.1 0 1-1.4 1-1.4-1.7-8.8-11.5-4.1-11.5-4.1-.8 1.5 1.8 5.3 2.5 5.5 3.1.8 8 0 8 0"/><circle cx="22.8" cy="30.7" r="3.5" fill="#664e27"/><path fill="#3b3226" d="M28.2 32.9c-1.7-10.5-10.4-3.5-13.8-5 3.4 3.2 10.3-3.8 13.8 5"/><path fill="#f085a9" d="m32 44.9-7.7-1.2c4.6 6.6 10.8 6.6 15.4 0L32 44.9"/><path fill="#d46c8f" d="M35 43.5c-2.3-.9-3 .5-3 .5s-.8-1.4-3-.5c-1.8.7-4.7.3-4.7.3 3.1.7 3.5 1.9 7.7 1.9s4.6-1.3 7.7-1.9c0-.1-2.9.3-4.7-.3"/><circle cx="22.8" cy="30.7" r="1.2" fill="#2b2925"/><path fill="#428bc1" d="M39.9 62H23.3l-2.2-3h20.1z"/><path fill="#224863" d="M41.2 59c0 .4-4.5.8-10 .8s-10-.4-10-.8 4.5-.8 10-.8 10 .4 10 .8"/><path fill="#871212" d="m25.6 54.3-2-2.2-1.5 2.4z"/><path fill="#991d1d" d="m23 54.9 2-2.9 2.4 1.4z"/><path fill="#ad2727" d="m22.1 53-.3 1.7 4.6.3z"/><path fill="#cc3636" d="M25.4 55c2.9 1.4 2.6 3.2 1.1 3.9-1.5.7-3.8.1-4.2-1.8-.4-1.9-1.7-3-1.7-3s2.6-.2 4.8.9"/><path fill="#e24b4b" d="M23.7 55.6c-1 3.1 1.5 3.9 3 3.2 1.5-.7 2-2.7 1.2-4.4-.8-1.7-1.6-2.5-1.6-2.5s-1.9 1.5-2.6 3.7"/><path fill="#75a843" d="M26.3 58.1c2.3-1.1 1.7.2.2 1-3.6 1.8-5-1.5-5-1.5s2.8 1.5 4.8.5"/><path fill="#83bf4f" d="M26.3 58.1c-.5.5-1.9 1.7-.3 1.3 3.1-.8 2.5-5.1 2.5-5.1s-.7 2.2-2.2 3.8"/><path fill="#871212" d="m35.9 52.8 4.2 2.6-.1-3.5z"/><path fill="#991d1d" d="M39.8 57.3 37 53.2h4.7z"/><path fill="#ad2727" d="m40.7 55.8-2.6-4.6-2.2 1.8z"/><path fill="#cc3636" d="m38.6 55.5-4.5-.2 2-4.7z"/><path fill="#e24b4b" d="M36.8 54.4c-3.5 1.2-2.6 4.1-.9 4.9 1.7.8 3.8 0 4.8-2 1-1.9 2.1-2.8 2.1-2.8s-3.5-.9-6-.1"/><path fill="#83bf4f" d="M36.4 58.5c-.8-.1-2.8-.6-1.4.6 2.9 2.3 6.3-1.2 6.3-1.2s-2.4.8-4.9.6"/><path fill="#871212" d="m27.6 52.8 6.2-.3-3-2.7z"/><path fill="#991d1d" d="m35 51.8-6 1.6 3.7-3.3z"/><path fill="#ad2727" d="m33 53.1-4.5-2.6-.6 3.4z"/><path fill="#cc3636" d="M32.2 54.2v5.5c-2.2.5-4.8-1.1-4.7-3.7.1-2.6-1.3-4.5-1.3-4.5s3.4.6 6 2.7"/><path fill="#e24b4b" d="M29.7 54.5c-2.3 3.7.7 5.7 2.9 5.2s3.5-2.9 2.9-5.4c-.6-2.5-.2-4.2-.2-4.2s-3.9 1.7-5.6 4.4"/><path fill="#75a843" d="M32.4 58.6c3.3-.8 2.2.8 0 1.3-5.3 1.2-6.1-3.5-6.1-3.5s3.1 2.9 6.1 2.2"/><path fill="#83bf4f" d="M32.4 58.6c-.8.6-3 1.6-.8 1.6 4.4-.1 4.9-5.8 4.9-5.8s-1.7 2.5-4.1 4.2"/></svg>