<svg xmlns="http://www.w3.org/2000/svg" viewBox="0 0 64 64"><path fill="#ffb300" d="M32 2C13.9 2 4 13.4 4 28.5V62h56V28.5c0-22.4-15.2-22-15.2-22S43.7 2 32 2z"/><path fill="#ffdd67" d="M10.4 40.7S6 39.6 6 33.2c0-5.1 3.3-5.9 3.3-5.9C39.5 27.2 48 21 48 21s1.9 6.2 6.6 6.2c0 0 3.4.6 3.4 5.9 0 6.4-4.5 7.5-4.5 7.5C53.4 50.3 40.1 62 32 62S10.4 50.3 10.4 40.7"/><path fill="#eba352" d="M32 47c-4.2 0-6.3-3-4.2-3h8.4c2.1 0 0 3-4.2 3"/><path fill="#f5f5f5" d="M38.3 38.2c-1.5 0-1.3-1.8-1.3-1.8C39.2 24.9 52 31 52 31c1 2-2.3 6.9-3.2 7.2-4.2 1-10.5 0-10.5 0"/><path fill="#664e27" d="M48.5 33.5c0 2.5-2 4.5-4.5 4.5s-4.5-2-4.5-4.5 2-4.5 4.5-4.5 4.5 2 4.5 4.5"/><circle cx="44" cy="33.5" r="1.5" fill="#2b2925"/><path fill="#3b3226" d="M37 36.3c2.2-13.7 13.5-4.6 18-6.5-4.5 4.3-13.5-4.9-18 6.5"/><path fill="#f5f5f5" d="M25.7 38.2c1.5 0 1.3-1.8 1.3-1.8C24.8 24.9 12 31 12 31c-1 2 2.3 6.9 3.2 7.2 4.2 1 10.5 0 10.5 0"/><path fill="#664e27" d="M15.5 33.5c0 2.5 2 4.5 4.5 4.5s4.5-2 4.5-4.5-2-4.5-4.5-4.5-4.5 2-4.5 4.5"/><path fill="#3b3226" d="M27 36.3c-2.2-13.7-13.5-4.6-18-6.5 4.5 4.3 13.5-4.9 18 6.5"/><path fill="#f085a9" d="m32 52-10-1.5c6 8.5 14 8.5 20 0L32 52z"/><path fill="#d46c8f" d="M35.9 50.1c-2.9-1.1-3.9.7-3.9.7s-1-1.8-3.9-.7c-2.3.9-6.1.4-6.1.4 4 .9 4.5 2.5 10 2.5s6-1.7 10-2.5c0 0-3.8.5-6.1-.4"/><circle cx="20" cy="33.5" r="1.5" fill="#2b2925"/><path fill="#fff" d="M57.9 14.3c-.8-.4-1.9-.1-2.5.7-.2-.9-.7-1.6-1.3-2.1.6 0 .8-.3.6-.7-.2-.7-.5-1.5-1.9-2.5 0-1.6-1.2-3.1-1.2-3.1-.2-.2-.6-.2-.8.1 0 .1-.9 1.6-.5 3.3-1.5 1.3-1.4 2.7-1.3 3-.2 0-1.7 1-2.1 2.9-.8 0-1.3.6-1.3.6.3-2.2-1.4-4.4-4-4.3-.7-3.9-5.1-5.2-5.9-1.4-.5-1-1.6-1.8-1.6-1.8.4-1.9-1.2-5-2.1-5s-2.4 3.1-2.1 5c0 0-1.1.8-1.7 1.7-.8-3.8-5.3-2.5-5.9 1.4-2.6-.1-4.3 2-4 4.3 0 0-.5-.5-1.3-.6-.4-1.9-1.8-2.9-2.1-2.9.1-.2.2-1.7-1.3-3 .4-1.7-.5-3.2-.5-3.3-.2-.3-.6-.3-.8-.1 0 0-1.2 1.5-1.2 3.1-1.4.9-1.7 1.7-1.9 2.5-.1.4.1.8.6.7-.6.5-1 1.2-1.3 2.1-.5-.7-1.6-1-2.5-.6-1 .5-1.3 1.8-.8 2.9.6 1.4 2.4 1.5 3.3.5.4 2.2 2.7 3.1 4.5 1.6-.3 1 1.4 1 3.2-.6.6.4 1.7.3 2.1.1-.1 1.2.5 3.1 2.6 3.1 1.4 0 2-1 1.9-1.8.8.3 2.3.6 3.4-.1 2.1 1.8 3.6 2.1 3.7 1 .6.5 1.4.8 2.1.8.8 0 1.5-.3 2.2-.8.1 1 1.6.8 3.7-1 1.1.7 2.5.5 3.4.1-.2.9.4 1.9 1.8 1.9 2 0 2.6-1.9 2.6-3.1.4.2 1.5.2 2.1-.1 1.9 1.6 3.5 1.5 3.2.6 1.8 1.5 4.1.6 4.5-1.6.9 1 2.7.9 3.3-.5.5-1.2.1-2.4-.9-3m-47.5-2.4c.2-.7.9-1.1.9-1.1l.2.8c-.1 0-.6.4-1.1.3m2.3-2.6h-.6s.1-.9.5-1.3c.2.6.1 1.3.1 1.3m.1 2.5.4-.8s.5.5.6 1.3c-.5 0-1-.5-1-.5m.8 1.5c.2 0 .7.1.7.1s-.2.3-.3.8c0-.2-.3-.8-.4-.9m.5 5.8c.2-.9.7-1.5.7-1.5l.7.7c-.1-.1-.7.6-1.4.8m1-3.1s-.2-.9 0-1.7c.6.5.9 1.4.9 1.4l-.9.3m1.7 1.8.2-.9s.8.2 1.3.9c-.6.3-1.5 0-1.5 0M39 15.3c-.5-1.1.1-2 2-2.1.8 3.3-1.6 2.9-2 2.1m-7-9.9c.5 0 1.1 2.5 1 3.4h-2c-.1-.9.5-3.4 1-3.4m-9 7.9c1.9.1 2.5 1 2 2.1-.4.7-2.8 1.1-2-2.1m-2.8 3.6c-.3.3-1 0-1-1.4 1.3.4 1.3 1.1 1 1.4m2.4 2.1c-.3-1-1-1.4-1.4-1.6.7-1.1.1-2.3-1.8-2.8.9-1.1 1.5-1.5 2.5-1.5-.7 3.1 1 4.6 3.2 3.3v.5c-1 .3-1.8 1.1-2.5 2.1m1 .3c.3-.7 1.6-1.4 1.6-1.4l.4 1.2c0 .1-1 .5-2 .2m2.4-4.7c-.1-1.1-.3-1.9-2.7-2.4.8-3.5 3.6-3.3 3.9-1.6.2 1.2-1.4 1.6-1-.1.2-.6-.7-.9-1-.3-.3.8-.4 3.1 2.1 2.1-.2.6-.5.9-.3 1.2-.2.2-.6.6-1 1.1m1.2.2c.4 1 .2 2.2.2 2.2l-1.2-.2c0-.1.3-1.2 1-2m-.2 4.6.8-.9s.8.8 1 1.9c-.9-.1-1.8-1-1.8-1m1.4-3.8c0-.8-.5-1.6-.5-1.6h1.3s-.6.7-.8 1.6m-.3-2.6c.3-1.5 2.2-2.7 2.2-2.7l1 1.8s-1.3 1-3.2.9m3.9-1.9c-.2-.3-.5-.7-.7-1.2h1.3c-.1.5-.4.9-.6 1.2m.7 1 1-1.8s2 1.3 2.2 2.7c-1.9.1-3.2-.9-3.2-.9m2.1 1.9h1.3s-.4.8-.5 1.6c-.2-.9-.8-1.6-.8-1.6m.4 6.4c.2-1.1 1-1.9 1-1.9l.8.9s-.9.9-1.8 1m1.4-3.5s-.2-1.1.2-2.2c.7.8 1 1.9 1 1.9l-1.2.3m.4-3.3c.2-.3-.1-.7-.3-1.2 2.5 1.1 2.4-1.2 2.1-2.1-.2-.6-1.1-.3-1 .3.4 1.6-1.3 1.2-1 .1.3-1.7 3.2-1.9 3.9 1.6-2.4.4-2.6 1.3-2.7 2.4-.4-.6-.8-1-1-1.1m1.4 5.6.4-1.2s1.3.6 1.6 1.4c-1 .2-2-.2-2-.2m4.4-1.8c-.4.2-1.1.6-1.4 1.6-.6-1-1.4-1.8-2.5-2.1v-.5c2.2 1.3 4-.2 3.2-3.3 1 0 1.7.4 2.5 1.5-1.9.5-2.5 1.7-1.8 2.8m1-.5c-.3-.3-.3-1 1-1.4 0 1.4-.7 1.7-1 1.4m1.9.9c.6-.8 1.3-.9 1.3-.9l.2.9s-.9.3-1.5 0m3.2-3.5c.2.7 0 1.7 0 1.7l-.9-.3c.1 0 .3-.9.9-1.4m-.3 3.9.7-.7s.5.7.7 1.5c-.8-.1-1.4-.8-1.4-.8m1.3-4.1c-.1-.5-.3-.8-.3-.8s.5 0 .7-.1c0 .2-.3.8-.4.9m.3-1.8c.1-.8.6-1.3.6-1.3l.4.8s-.5.5-1 .5m1.1-3s-.1-.8.2-1.3c.4.4.5 1.3.5 1.3h-.7m1.3 2.3.2-.8s.6.4.9 1.1c-.6.1-1.1-.3-1.1-.3"/><g fill="#ff5760"><path d="M56.5 17.3c-.5-.3-.7-.9-.4-1.5.3-.6.9-.8 1.4-.5.5.3.7.9.4 1.5-.3.5-.9.8-1.4.5m-12 3.1c-.6.8-1.5 1-2.1.5-.6-.5-.6-1.5-.1-2.3.6-.8 1.5-1 2.1-.5.7.5.7 1.6.1 2.3m10.1-4.5c.2 1.5-.5 2.9-1.6 3.1-1.1.2-2.2-.9-2.4-2.5-.2-1.5.5-2.9 1.6-3.1 1.1-.2 2.2.9 2.4 2.5M7.5 17.3c.5-.3.6-.9.4-1.5-.3-.5-.9-.8-1.4-.5-.5.3-.7.9-.4 1.5.3.5.9.8 1.4.5"/><ellipse cx="32" cy="17.2" rx="3" ry="3.8"/><path d="M19.5 20.4c.6.8 1.5 1 2.1.5.6-.5.6-1.5.1-2.3-.6-.8-1.5-1-2.1-.5-.7.5-.7 1.6-.1 2.3M9.4 15.9c-.2 1.5.5 2.9 1.6 3.1 1.1.2 2.2-.9 2.4-2.5.2-1.5-.5-2.9-1.6-3.1-1.1-.2-2.2.9-2.4 2.5"/></g></svg>