<svg xmlns="http://www.w3.org/2000/svg" viewBox="0 0 64 64"><path fill="#748a93" d="M32.1 8.9s-.1 0 0 0h-.2C6.9 8.9 2 17.7 2 31.5l.9 9.4h58.3l.9-9.4c-.1-13.8-5-22.6-30-22.6"/><path fill="#ffdd67" d="M58.5 36.8c-9.1-3.6-2-13.5-1.7-15.5C56.8 21.3 54.7 2 32 2S7.2 21.3 7.2 21.3c.3 2 7.5 11.9-1.7 15.5 0 0-3.4-.4-3.4 3.7 0 4.9 3.5 4.1 3.5 4.1C5.6 52.1 13 62 32 62s26.4-9.9 26.4-17.4c0 0 3.5.8 3.5-4.1 0-4.1-3.4-3.7-3.4-3.7"/><path d="M40.7 52.9c.2 0 .3-.9.3-1.3 0-2.6-4-4.8-9-4.8s-9 2.3-9 4.9c0 .3.1 1.2.2 1.2h17.5M17.6 9.8c2.3-.7 4.7-1.5 7.1-2 2.4-.5 4.9-.9 7.3-1 2.5-.1 5 .1 7.4.6 2.4.5 4.8 1.3 7 2.4-2.4-.4-4.8-.8-7.2-.9-2.4-.2-4.8-.2-7.1-.1-2.4.1-4.8.3-7.2.5-2.4.2-4.8.5-7.3.5M14.5 14c2.9-.7 5.7-1.5 8.6-2 2.9-.5 5.9-.9 8.9-1 3-.1 6 .1 8.9.6 3 .5 5.9 1.2 8.6 2.4-2.9-.4-5.8-.7-8.8-.9-2.9-.2-5.8-.2-8.7-.1-2.9.1-5.8.3-8.7.5-2.9.2-5.8.6-8.8.5" fill="#748a93"/><g fill="#454749"><path d="m17.8 39.3-.3-3c.8-.1 1.9-.3 3.1-.5 5.9-1.1 15.7-3 26.4.6l-1 2.8c-9.9-3.4-19.2-1.6-24.8-.5-1.4.3-2.6.5-3.4.6"/><circle cx="19.7" cy="37.9" r="9"/></g><circle cx="19.7" cy="37.9" fill="#b4d7ee" r="6"/><circle cx="44.3" cy="37.9" fill="#454749" r="9"/><circle cx="44.3" cy="37.9" fill="#b4d7ee" r="6"/></svg>