<svg xmlns="http://www.w3.org/2000/svg" viewBox="0 0 64 64"><ellipse cx="32" cy="11.5" fill="#627a82" rx="15" ry="9.6"/><ellipse cx="32" cy="15.5" fill="#c28fef" rx="15" ry="9.6"/><path fill="#ffdd67" d="M57.3 28.8c-15.6-15.6-35.1-15.7-50.7 0l.1 17.3c0 7.5 7.4 15.8 25.7 15.8 17.3 0 24.9-6.8 24.9-15.8V28.8"/><path fill="#454749" d="M39.2 51.7c.1.2.2.4.2.6 0 1.7-3.4 3.8-7.5 3.8s-7.5-2.1-7.5-3.8c0-.2.1-.5.2-.6 0 0 3.2 1.5 7.3 1.5 4.1-.1 7.3-1.5 7.3-1.5"/><path fill="#748a93" d="M32 9.1c-29.5 0-35.8 23.7-25.2 32 0 0 5.2-8.8 16.1-13 28.4-11 20.5-19 9.1-19"/><path fill="#8b9fa5" d="M32 9.1c-11.4 0-19.3 8.1 9.1 19 10.9 4.2 16.1 13 16.1 13 10.6-8.3 4.2-32-25.2-32"/><g fill="#454749"><path d="M42.8 54.3c-.6 0-1.1-.2-1.6-.4s-1-.5-1.4-.9c-.8-.7-1.6-1.8-1.6-2.9l2.2 2.2c.8.7 1.6 1.3 2.4 2m-21.8 0c.8-.8 1.7-1.3 2.4-2 .8-.7 1.5-1.3 2.2-2.2 0 1.2-.7 2.2-1.6 2.9-.4.4-.9.7-1.4.9-.4.3-1 .4-1.6.4m-3.2-13.4-.3-3c.8-.1 1.9-.3 3.1-.5 5.9-1.1 15.7-3 26.4.6l-1 2.8c-9.9-3.4-19.2-1.6-24.8-.5-1.4.3-2.6.5-3.4.6"/><circle cx="19.7" cy="39.5" r="9"/></g><circle cx="19.7" cy="39.5" fill="#b4d7ee" r="6"/><circle cx="44.3" cy="39.5" fill="#454749" r="9"/><circle cx="44.3" cy="39.5" fill="#b4d7ee" r="6"/></svg>