<svg xmlns="http://www.w3.org/2000/svg" viewBox="0 0 64 64"><path fill="#ffdd67" d="M20.6 35.1c-1.7-2.3-4.2-9.7-1.9-11.4l.7-.5c.4 2.7 1.7 6 2.7 7.4l22.7 31.3h13.6v-4.3L34.7 24.9c-1.7-2.3-7.9-7-10.2-5.3l-5.7 4.1c-2.4 1.6.1 9.1 1.8 11.4L40 61.9 20.6 35.1"/><path fill="#eba352" d="m19.4 23.2-.7.5c-2.3 1.7.2 9.1 1.9 11.4L40 62h4.7L22.1 30.6c-1-1.4-2.3-4.7-2.7-7.4"/><path fill="#ffdd67" d="m48.2 16.6-5.8 3.5c-2.3 1.4-.5 8.7.9 11l15.1 25.2-15.1-25.2c-1.4-2.3-3.2-9.6-.9-11l.4-.3c.2 2.5 1.1 5.4 1.9 6.8l13.6 22.6V24.1l-.9-1.5c-1.3-2.4-6.9-7.4-9.2-6"/><path fill="#eba352" d="m42.8 19.9-.4.3c-2.3 1.4-.5 8.7.9 11l15.1 25.1v-7L44.8 26.6c-.8-1.3-1.8-4.2-2-6.7"/><path fill="#ffdd67" d="m14.3 43.1-5.1 4.4c-2.1 1.7.8 8.5 2.6 10.6l3.3 3.8-3.3-3.8C10 56 7.1 49.2 9.1 47.4l1-.8c.5 2.6 2.1 5.8 3.2 7.1l7 8.3h16.5L24.4 47.4c-1.8-2.1-8.1-6.1-10.1-4.3"/><path fill="#eba352" d="M13.3 53.7c-1.1-1.3-2.7-4.4-3.2-7.1l-1 .8c-2 1.8.9 8.6 2.7 10.7l3.3 3.8h5.3l-7.1-8.2"/><path fill="#ff8736" d="M21.1 32.3c3.4 4.7 7 4.6 10 2.4 3-2.2 4.3-5.5.9-10.3-3.4-4.7-10-8.7-13-6.5-3 2.3-1.4 9.7 2.1 14.4"/><path fill="#ffb77b" d="M27.6 27.3c3.1 4.3 3 5.8 4 5 1-.7 2.3-3.1-.8-7.4S22 17.8 21 18.5c-1 .8 3.5 4.5 6.6 8.8"/><path fill="#ff8736" d="M43.9 28.5c2.9 4.8 6.3 4.9 9.3 3.1 3-1.8 4.5-4.9 1.7-9.7-2.9-4.8-8.8-9-11.8-7.2-3 1.9-2.1 9.1.8 13.8"/><path fill="#ffb77b" d="M50.6 24.3c2.6 4.3 2.4 5.7 3.4 5.1 1-.6 2.4-2.8-.1-7.1-2.7-4.3-7.9-7.5-8.9-6.9-1 .6 3 4.6 5.6 8.9"/><path fill="#ff8736" d="M12 55.5c3.6 4.3 7 3.8 9.7 1.5 2.7-2.3 3.7-5.6.1-9.8C18.2 42.9 11.7 39.7 9 42c-2.8 2.3-.6 9.2 3 13.5"/><path fill="#ffb77b" d="M17.8 50.2c3.2 3.8 3.3 5.3 4.2 4.5.9-.8 2-3.1-1.3-7-3.2-3.8-8.9-6.1-9.8-5.4-.9.8 3.7 4.1 6.9 7.9"/><path fill="#ff8736" d="M21.3 27.5s-1.3-.8-3-2.3c.4-.2.7-.4.9-.7 0 0-7.9-5.6-9.8-17.8 0 0-3.9 8.5-3.9 15.7 0 8.4 8.9 11 12.1 7.8 0 0-.7-.5-1.6-1.4 2.2.1 4.1-.3 5.3-1.3"/><path fill="#d8681d" d="M22.1 26.8s-2-.1-3.7-1.6c0 0 1.5.1 2.1-.7 0 0-9-5.6-10.9-17.8 0 0-.6 1.3-1.3 3.2C10 21.4 17 24.4 17 24.4c-.3.3-5-.9-5-.9 1.5 2.3 7.3 3.6 7.3 3.6-4.9 1.1-9-.6-9-.6 1 2.5 5 3.7 5 3.7s-1.2 1.1-3.4.9c2.3.7 4.6.4 5.9-1 0 0-.7-.5-1.6-1.4 2 .2 4.7-.2 5.9-1.9"/><path fill="#454749" d="M7 1.9h4.5v11.5H7z"/></svg>