<svg xmlns="http://www.w3.org/2000/svg" viewBox="0 0 64 64"><path fill="#ffb300" d="M32 5.8c-13.7 0-21.2 8.5-21.2 19.6v28.5h42.4V25.4c0-16.6-11.5-16.3-11.5-16.3s-.8-3.3-9.7-3.3"/><path fill="#b386e2" d="M41.6 49.9v-6.7H22.4v6.7C10.3 50.2 7.8 52.1 7.8 62h48.3c.1-9.9-2.4-11.8-14.5-12.1"/><g fill="#ffdd67"><path d="M16.9 34.7s-3-.8-3-5.2c0-3.5 2.3-4.1 2.3-4.1 8.2 0 21.7-10.5 21.7-10.5s5.1 9.3 10 10.5c0 0 2.4.4 2.4 4.1 0 4.4-3.2 5.2-3.2 5.2 0 6.7-9.3 14.7-15 14.7-5.8 0-15.2-8-15.2-14.7"/><path d="M18.5 19.1c-.9-2.2-1.2-4-1.2-5.4 0-.5-.2-.9-.5-1.2l-4.2-6c-1.2-2-7.8-2.1-8 1.9L4.1 19c-.2 3.4 3.5 6.5 4.1 6.1l-.5 5.7c-.1 1.1.5 2 1.7 2.1 1.2.1 2.3-.8 2.3-1.8l1-14.2.9.8s.7 3.1 3 3.4c1.6.2 2.2-1.2 1.9-2"/></g><path fill="#eba352" d="M9 20.7c.1-1.1-.9-1.6-1-.5l-.3 3.7c-1.2-1.1-3-3.5-2.8-5.8l.8-10.6c.1-.8.4-1.4.8-1.9-1.1.5-1.9 1.4-2 2.7L3.7 19c-.3 3.7 3.2 6.4 3.9 6.9l-.3 5c-.1.9.6 1.8 1.6 2-.4-.4-.7-.9-.7-1.5L9 20.7"/><path fill="#428bc1" d="M3.7 8.5s7.8.3 9.6-2.1L12.8 2H3l.7 6.5"/><path fill="#eba352" d="m14.5 18.5-.1-.4s-1.2-1.5-1.6-2.9l-.1 1.7c.3.5.6.9.6.9l.1.4c.2.8.8 2.5 3 2.8-1.3-.6-1.7-1.8-1.9-2.5"/><path fill="#ffdd67" d="M45.5 19.1c.9-2.2 1.2-4 1.2-5.4 0-.5.2-.9.5-1.2l4.2-6c1.2-2 7.8-2.1 8 1.9l.5 10.6c.2 3.4-3.5 6.5-4.1 6.1l.5 5.7c.1 1.1-.5 2-1.7 2.1-1.2.1-2.3-.8-2.3-1.8l-1-14.2-.9.8s-.7 3.1-3 3.4c-1.6.2-2.2-1.2-1.9-2"/><path fill="#eba352" d="M55 20.7c-.1-1.1.9-1.6 1-.5l.3 3.7c1.2-1.1 3-3.5 2.8-5.8l-.8-10.6c-.1-.8-.4-1.4-.8-1.9 1.1.5 2 1.4 2.1 2.8l.7 10.6c.3 3.7-3.2 6.4-3.9 6.9l.3 5c.1.9-.6 1.8-1.6 2 .4-.4.7-.9.7-1.5L55 20.7"/><path fill="#428bc1" d="M60.3 8.5s-7.8.3-9.6-2.1l.5-4.4H61l-.7 6.5"/><path fill="#eba352" d="m49.5 18.5.1-.4s1.2-1.5 1.6-2.9l.1 1.7c-.3.5-.6.9-.6.9l-.1.4c-.2.8-.8 2.5-3 2.8 1.3-.6 1.7-1.8 1.9-2.5"/><path fill="#f09985" d="m32 42.8-7-1.1c4.2 6 9.8 6 14 0l-7 1.1"/><path fill="#d47f6c" d="M34.8 41.5c-2.1-.8-2.8.5-2.8.5s-.7-1.2-2.8-.5c-1.6.6-4.2.2-4.2.3 2.8.6 3.1 1.8 7 1.8 3.8 0 4.2-1.2 7-1.8 0 0-2.6.3-4.2-.3"/><path fill="#eba352" d="M32 39.6c-2.9 0-4.4-2.1-2.9-2.1H35c1.4 0-.1 2.1-3 2.1"/><path d="M19.4 30.2c2.5 4.7 7.5 4.7 9.9 0 .1-.2-.2-.3-.6-.6-2.5 2-6.5 1.8-8.8 0-.3.3-.6.4-.5.6m15.3 0c2.5 4.7 7.5 4.7 9.9 0 .1-.2-.2-.3-.6-.6-2.5 2-6.5 1.8-8.8 0-.3.3-.6.4-.5.6" fill="#937237"/></svg>