<svg xmlns="http://www.w3.org/2000/svg" viewBox="0 0 64 64"><path d="M59.7 25.5c0 9.8-7.1 9.8-7.1 0 0-5.8 3.5-10.5 3.5-10.5s3.6 4.7 3.6 10.5m-5.2 17.7c0 7.5-7.1 7.5-7.1 0 0-4.4 3.5-8 3.5-8s3.6 3.6 3.6 8" fill="#f3ffd2"/><path fill="#d0d0d0" d="M21.1 55.5 9.5 43.7l25.9-26.2L47 29.3z"/><path fill="#f3ffd2" d="m30.2 43.7 14.2-14.4-9-9.2-14.3 14.4z"/><path fill="#42ade2" d="m27.6 46.3 2.6-2.6-9.1-9.2-2.6 2.6z"/><path fill="#bcc0c1" d="m43.8 26 2.6-2.6-5.2-5.3-2.6 2.6z"/><g fill="#42ade2"><path d="m14.7 62 1.2-1.3L4.3 48.9 3 50.2z"/><path d="m12.7 57.4 5.2-5.2-5.2-5.3-5.2 5.3z"/></g><path fill="#fff" d="m45.1 19.4-.3-.3z"/><path fill="#bcc0c1" d="m43.1 20.1.4.3.3.4.6.6L59.7 6l.7-2 .3-1 .3-1z"/></svg>