<svg xmlns="http://www.w3.org/2000/svg" viewBox="0 0 64 64"><path fill="#ffb300" d="M60.3 24.7c-.9.3-3.6 1.2-5.9 1.5-.8.1-1.7 0-2.5-.1-.7-.2-1.3-.6-1.5-1.3l-.2.7c-1.4-.8-2.5-2.4-2.7-5.1C46.3-.7 36.1 5.6 36.1 5.6S35.2 2 26.1 2C12 2 4.3 11 4.3 22.9v30.3S55.4 61.9 62 23.9c0 .1-.7.4-1.7.8"/><path fill="#a9b5ae" d="M50.4 24.7c.5 1.6 2.7 1.7 5 1.3-1-2.6-2.8-5.8-4.2-9.4-.6-1.5-1.8-2.2-3.4-1.1 0 0-1.5-.7-3.4-6.7 0 0-.3-.8-.5-1-1.4-2.4-4.6-3.1-7.1-1.6s-3.4 4.7-1.9 7.1c1.4 2.4 4.6 3.1 7.1 1.6.7-.4 1.3-1 1.7-1.6.6.4 1.4 3.6 1.4 3.6l5.2 8.6.1-.8m-9.7-11.9c-1.3.8-3 .4-3.7-.8-.7-1.2-.3-2.9 1-3.7 1.3-.8 3-.4 3.7.8.7 1.2.3 2.9-1 3.7"/><path fill="#b386e2" d="M35.6 49.4v-7H16.5v7C4.4 49.7 2 51.7 2 62h48.1c0-10.3-2.4-12.3-14.5-12.6z"/><path fill="#ffdd67" d="M10.1 33.6s-3.2-.8-3.2-5.5c0-3.7 2.4-4.4 2.4-4.4C18 23.7 34 12.5 34 12.5s3.4 9.9 8.5 11.2c0 0 2.5.5 2.5 4.4 0 4.7-3.3 5.5-3.3 5.5 0 7.1-9.8 15.7-15.8 15.7-5.8-.1-15.8-8.6-15.8-15.7"/><path fill="#eba352" d="M26 38.2c-3 0-4.6-2.2-3-2.2h6.1c1.5 0 0 2.2-3.1 2.2"/><path fill="#f5f5f5" d="M30.6 31.7c-1.1 0-.9-1.3-.9-1.3 1.6-8.4 11-3.9 11-3.9.7 1.5-1.7 5.1-2.4 5.2-3.1.8-7.7 0-7.7 0"/><circle cx="34.8" cy="28.3" r="3.3" fill="#664e27"/><circle cx="34.8" cy="28.3" r="1.1" fill="#2b2925"/><path fill="#3b3226" d="M29.7 30.4c1.7-10.1 9.9-3.4 13.2-4.8-3.3 3.1-9.9-3.6-13.2 4.8"/><path fill="#f5f5f5" d="M21.4 31.7c1.1 0 .9-1.3.9-1.3-1.6-8.4-11-3.9-11-3.9-.7 1.5 1.7 5.1 2.4 5.2 3.1.8 7.7 0 7.7 0"/><circle cx="17.2" cy="28.3" r="3.3" fill="#664e27"/><path fill="#3b3226" d="M22.4 30.4c-1.7-10.1-9.9-3.4-13.2-4.8 3.2 3.1 9.8-3.6 13.2 4.8"/><path fill="#f09985" d="m26 41.9-7.3-1.1c4.4 6.3 10.3 6.3 14.7 0L26 41.9"/><path fill="#d47f6c" d="M28.9 40.5c-2.1-.8-2.9.5-2.9.5s-.7-1.3-2.9-.5c-1.7.6-4.5.3-4.4.3 2.9.6 3.3 1.9 7.3 1.9s4.4-1.2 7.3-1.9c.1 0-2.7.4-4.4-.3"/><circle cx="17.2" cy="28.3" r="1.1" fill="#2b2925"/><path fill="#cedbd5" d="M61.8 8.7c.8-2.8-.9-5.5-3.7-6.1s-5.7 1.1-6.4 3.9c-.1.3-.2 1.1-.2 1.1-.3 6.4-1.5 7.6-1.5 7.6-1.8-.5-2.8.6-3 2.2-1.1 8.7-3.7 16.2 1 16.3l5-18.2s-.1-3.3.4-3.9c.6.5 1.3.8 2.1 1 2.7.6 5.6-1.2 6.3-3.9m-2.4-.6c-.4 1.4-1.9 2.3-3.3 2-1.4-.3-2.3-1.7-1.9-3.2.4-1.4 1.9-2.3 3.3-2 1.4.4 2.3 1.8 1.9 3.2"/><path fill="#231f20" d="M50.6 18.6c.2-.7-.2-1.5-1-1.6-.7-.2-1.5.3-1.7 1-.2.7.2 1.5 1 1.6.8.2 1.5-.3 1.7-1"/></svg>