<svg xmlns="http://www.w3.org/2000/svg" viewBox="0 0 64 64"><path fill="#83bf4f" d="M43.2 26.8c-.9 6 5.9 16.5 5.9 16.5l1.5-.8c-4.3-13.6-2.1-29-2.1-29s-4.4 6.6-5.3 13.3"/><path fill="#75a843" d="m29 3.3 21.7 39.5-4.5 2.1z"/><path fill="#cc9132" d="M39.8 11.8c2.5 5.1 1.2 8.4-1.7 9.9s-6.4.5-8.9-4.6C26.6 12 29 3.3 29 3.3s8.3 3.4 10.8 8.5"/><path fill="#f4bc58" d="M34.8 11.3c8.9.9 7.3 9.3 3.5 11.2-3.9 1.9-8.9-.5-11.4-5.4-2.4-4.9-.6-10.8-.6-10.8s2 4.4 8.5 5"/><path fill="#ffd93b" d="M31.8 12.8c-4.7 7.7 3 11.5 6.8 9.5s5-7.5 2.6-12.4-8.2-7-8.2-7 2.2 4.3-1.2 9.9"/><path fill="#83bf4f" d="M29.7 38.9c4.6 3.9 17.1 3.7 17.1 3.7l.2-1.7c-13.7-3.5-25.5-13.6-25.5-13.6s3.1 7.2 8.2 11.6"/><path fill="#75a843" d="m2 35.4 44.6 1.8-.4 5z"/><path fill="#871212" d="M14.9 30.6c5.6.5 7.7 3.4 7.4 6.7-.3 3.3-3 5.7-8.6 5.2S2 35.4 2 35.4s7.3-5.3 12.9-4.8"/><path fill="#cc3636" d="M11.8 34.6c5.4-7.1 11.7-1.3 11.3 3-.4 4.3-5.2 7.4-10.6 6.8s-9.4-5.2-9.4-5.2 4.7.6 8.7-4.6"/><path fill="#e24b4b" d="M11.5 38c4 8 11.2 3.6 11.7-.8.4-4.3-3.7-8.2-9.1-8.8S3.8 31.8 3.8 31.8s4.8.3 7.7 6.2"/><g fill="#83bf4f"><path d="M28.9 40c5.2-3 17.5-.3 17.5-.3l-.2 1.7c-14.1.8-27.6 8.4-27.6 8.4s4.5-6.5 10.3-9.8"/><path d="M33.8 28.9c1.8 5.8 12.5 12.3 12.5 12.3l1-1.4C37.6 29.5 33 14.7 33 14.7s-1.2 7.7.8 14.2"/></g><path fill="#75a843" d="m12.3 16.4 36.8 25.5-3.1 3.9z"/><path fill="#aa1f65" d="M25.7 19.3c4.5 3.5 4.7 7.1 2.7 9.7-2 2.6-5.5 3.2-10-.2-4.5-3.5-6.1-12.3-6.1-12.3s8.9-.7 13.4 2.8"/><path fill="#d33777" d="M21 21c8.4-3.1 10.6 5.2 8 8.6s-8.3 3.5-12.6.1c-4.3-3.4-5.2-9.4-5.2-9.4s3.6 3 9.8.7"/><path fill="#e84d88" d="M18.9 23.7c-.9 8.9 7.6 9 10.3 5.6 2.6-3.4 1.3-8.9-3.1-12.3-4.3-3.4-10.4-2.7-10.4-2.7s3.9 2.9 3.2 9.4"/><path fill="#83bf4f" d="m58.4 58.2-1.9 1.9-2.5-2.5 2-1.9z"/><path fill="#75a843" d="m59.8 56.8-2 2-2.4-2.5 1.9-2z"/><path fill="#83bf4f" d="m61.1 55.5-1.9 1.9-2.5-2.5 1.9-1.9z"/><path fill="#42ade2" d="M22.8 47.8s17.1-2.9 25.3 5.3C49.9 54.9 51 61 51 61l11-11.1s-6.1-1.1-7.9-2.9c-8.2-8.2-5.3-25.4-5.3-25.4l-26 26.2"/><path fill="#ff506e" d="M58 46.9 48 57l-3.7-3.8 10-10z"/></svg>