<svg xmlns="http://www.w3.org/2000/svg" viewBox="0 0 64 64"><path fill="#ff5a79" d="M61.1 18.2c-6.4-17-27.2-9.4-29.1-.9-2.6-9-22.9-15.7-29.1.9C-4 36.7 29.6 53.3 32 56c2.4-2.2 36-19.6 29.1-37.8"/><path d="M53.8 13.3 51.2 8l-2.6 5.3-5.3 2.6 5.3 2.6 2.6 5.3 2.6-5.3 5.3-2.6zM16.3 26.8l-3.6-7.2-3.6 7.2L2 30.3l7.1 3.6 3.6 7.1 3.6-7.1 7.1-3.6zm32.4 15.6-2.8-5.7-2.9 5.7-5.8 2.9 5.8 2.9 2.9 5.7 2.8-5.7 5.8-2.9zM18.886 20.601l2.97-2.97 2.97 2.97-2.97 2.97zm4.491 20.973 2.475-2.475 2.474 2.475-2.474 2.474zm15.937-14.282 2.97-2.97 2.97 2.97-2.97 2.97z" fill="#fff"/></svg>