<svg xmlns="http://www.w3.org/2000/svg" xmlns:xlink="http://www.w3.org/1999/xlink" viewBox="0 0 64 64"><path fill="#699635" d="M61 20.9C54.8 15.3 48.6 9.6 42.4 4 33.3 17.8 17.9 30.1 3.3 39c-.4 1.9-.8 3.7-1.3 5.5C8.4 50.3 14.8 56.2 21.2 62 36.3 53.7 52.3 41.9 62 28.5c-.3-2.5-.7-5-1-7.6"/><path fill="#83bf4f" d="M22.4 54.6C16.1 48.8 9.8 43 3.5 37.3c15.7-8.9 28.9-21 38.6-35.3C48.4 7.8 54.7 13.5 61 19.3c-9.7 14.3-22.9 26.4-38.6 35.3"/><g fill="#699635"><path d="M20.8 50.8c-4.2-3.8-8.4-7.7-12.6-11.5.3-.2.5-.3.8-.5.8-.5 1-1.4.3-2.1l-.6-.6C21.4 28.3 32.4 18.3 41 6.7l.6.6c.7.6 1.7.5 2.3-.2.2-.2.3-.5.5-.7 4.2 3.8 8.4 7.7 12.6 11.5-.2.2-.3.5-.5.7-.6.8-.5 1.9.2 2.6l.6.6C48.7 33.3 37.7 43.3 25 51.1l-.6-.6c-.7-.6-1.9-.7-2.8-.2-.3.2-.5.3-.8.5m-9.9-11.4c3.4 3.1 6.8 6.2 10.3 9.4 1.3-.4 2.8-.3 4 .3C36.8 41.7 46.9 32.5 55 21.8c-.7-1.1-.8-2.5-.3-3.7-3.4-3.1-6.8-6.2-10.3-9.4-.9.8-2.2.9-3.3.3C33 19.8 22.9 29 11.3 36.4c.6 1 .5 2.2-.4 3"/><path d="M20 37.3c1.1-.4 2.3-.3 3.1.4-.5.4-1.1.8-1.6 1.2-.2-.2-.7-.2-.9 0-.3.2-.4.5-.1.7.2.2.7.2 1 0 1.2-.8 2.9-.9 3.8 0 .7.7.8 1.7.1 2.5.2.2.4.3.6.5-.5.3-1 .7-1.5 1-.2-.2-.4-.4-.6-.5-1.1.3-2.3.2-3-.5.6-.4 1.1-.7 1.7-1.1.2.2.7.2 1 0 .3-.2.3-.5.1-.7-.2-.2-.6-.2-.9 0-.7.5-1.6.7-2.4.6-.6-.1-1.1-.3-1.5-.6-.7-.7-.7-1.6-.1-2.4-.2-.1-.3-.3-.5-.5.5-.3 1-.7 1.5-1-.1.1.1.2.2.4m23.2-21.4c.9-.6 2-.6 2.7.1l-1.2 1.5c-.2-.2-.6-.2-.8.1-.2.3-.2.7 0 .9s.6.2.8-.1c.9-1.1 2.4-1.3 3.3-.5.7.7.9 1.8.5 2.8.2.2.4.3.6.5-.4.5-.7.9-1.1 1.4-.2-.2-.4-.4-.6-.5-.9.5-1.9.5-2.6-.2.4-.5.9-1 1.3-1.5.2.2.6.2.8-.1s.2-.7 0-.9c-.2-.2-.6-.2-.8.1-.5.6-1.3 1-2 1-.5 0-1-.2-1.4-.5-.7-.7-.9-1.7-.5-2.7-.2-.1-.3-.3-.5-.5.4-.4.8-.9 1.1-1.4 0 .2.2.3.4.5m-3 19.6c-3.2 2.9-8.6 2.8-11.7 0-3.1-2.9-2.9-7.4.3-10.3 3.2-2.9 8.2-3.2 11.3-.3 3.2 2.8 3.3 7.7.1 10.6"/></g><path fill="#ffdd7d" d="m21.8 24.5 18.9 17.3c2.2-1.8 4.2-3.7 6.2-5.7L28.1 18.8c-2 1.9-4.1 3.8-6.3 5.7"/><path fill="#dbb471" d="M40.8 49.4c2.1-1.6 4.2-3.3 6.2-5V36c-2 2-4.1 3.9-6.2 5.7v7.7"/><path id="a" fill="#8d9998" d="M12.1 24.7c1.1-.4 2-1 2.9-1.7.9-.7 1.7-1.4 2.6-2.2.9-.7 1.8-1.5 2.8-2 1-.6 2.3-.9 3.4-.7-1.1.2-2.1.7-3 1.4-.9.6-1.7 1.4-2.6 2.1-.9.7-1.8 1.5-2.8 2.1-1 .6-2.2 1-3.3 1"/><path fill="#e8e8e8" d="M39.8 33.1s4.9 1.4 16.3-1.6 6 29.8-14.8 29.8c-2.3 0-2.4-2.9 4-8.1 0 0-9 2.1-5.1-4.6 0 0-6.4 1.1-3.5-4 0 0 1.3-3.8.1-8.1.1 0 .8-2.2 3-3.4"/><g fill="#d1d1d1"><path d="M61.5 34.7c.2 8.8-6.8 23.4-20.7 23.4h-.2c-1.3 2.1-.7 3.3.7 3.3 15.8-.1 22.7-18.9 20.2-26.7"/><path d="M54.3 39.5c-3 10.8-15 11.7-15 11.7-.5 2.3.5 3.3 1.8 3.3 4.4.1 12.6-7.2 13.2-15m-8.4 0c-7.1 10-9.6 6.3-9.6 6.3-1.8 4 2.9 4 3.7 3.1 2.3-2.5 6-7.7 5.9-9.4"/></g><path d="M40.5 58.4c1.2-1.6 2.7-2.9 4.2-4.2 1.5-1.3 3-2.6 4.5-4 1.4-1.4 2.8-3 3.8-4.8 1-1.8 1.5-3.9 1.3-5.9-.2 2-.9 3.9-2 5.5s-2.4 3.1-3.8 4.5-2.9 2.7-4.3 4.2c-1.5 1.3-2.8 2.9-3.7 4.7m-1.2-7.2c.4-1.1 1-2 1.7-2.9.7-.9 1.4-1.7 2.2-2.6.7-.9 1.5-1.8 2-2.8.6-1 .9-2.3.7-3.4-.2 1.1-.7 2.1-1.4 3-.6.9-1.4 1.7-2.1 2.6-.7.9-1.5 1.8-2.1 2.8-.6 1-1 2.2-1 3.3" fill="#8d9998"/><path fill="#e8e8e8" d="M30.2 24.2s-1.4-4.9 1.6-16.3S2 1.9 2 22.7c0 2.3 2.9 2.4 8.1-4 0 0-2.1 9 4.6 5.1 0 0-1.1 6.4 4 3.5 0 0 3.8-1.3 8.1-.1 0-.1 2.2-.8 3.4-3"/><g fill="#d1d1d1"><path d="M28.6 2.5C19.8 2.3 5.2 9.3 5.2 23.2v.2c-2.1 1.2-3.2.7-3.2-.7C2 6.9 20.8 0 28.6 2.5"/><path d="M23.8 9.7c-10.8 3-11.7 15-11.7 15-2.3.5-3.3-.5-3.3-1.8-.1-4.4 7.2-12.6 15-13.2m0 8.4c-10 7.1-6.3 9.6-6.3 9.6-4 1.8-4-2.9-3.1-3.7 2.5-2.3 7.7-6 9.4-5.9"/></g><path fill="#8d9998" d="M4.9 23.5c1.6-1.2 2.9-2.7 4.2-4.2 1.3-1.5 2.6-3 4-4.5 1.4-1.4 3-2.8 4.8-3.8 1.8-1 3.9-1.5 5.9-1.3-2 .2-3.9.9-5.5 2s-3.1 2.4-4.5 3.8-2.7 2.9-4.2 4.3c-1.4 1.5-2.9 2.8-4.7 3.7"/><use xlink:href="#a"/></svg>