<svg xmlns="http://www.w3.org/2000/svg" viewBox="0 0 64 64"><path fill="#afcddb" d="M62.5 22.3c1.7 1.7 2 4.2.8 5.7L33.7 62.4c-1.8 2.1-4.9 2.1-7 .1L1.5 37.3c-2-2-2-5.2.1-7L35.9.8c1.5-1.3 4-.9 5.7.8l20.9 20.7"/><path fill="#333" d="M50.8 10.7 12.6 48.4l-8.9-8.9L43.5 3.4z"/><path fill="#fff" d="M49.4 18.3 22.6 45.8l7.2 7.2 25.9-28.4z"/><g fill="#4f5b60"><path d="M34.1 43.3c-1.5-1.4-.6-4-.1-5.4.9-2.2 1.8 2 1.8 2.7.2 2.1-.1 4.3-.6 6.4-.3 1.2-.7 2.3-1.3 3.4-.3.7-.8 1.3-1.4 1.7-1.5.9-2.4 0-2.7-2.5.2-.8.5-1.5 1.1-2.1 1.9-2.4 4.9-3.5 7.1-5.4.2-.2-.1-.5-.3-.3-2.6 2.2-8 4-8.3 8.3-.2 2.8 2.7 3.5 4.2 1.9 2-2.1 2.5-5.8 2.7-8.6.1-1.6.5-6.2-1.9-6.7-.1 0-.2 0-.2.1-1 1.7-2.3 5.2-.3 7 .1.1.4-.3.2-.5"/><path d="M37.4 41.7c2.1 1.2 2.7-3.5 2.4-4.8 0-.2-.3-.2-.4-.1-1.1.9-1.3 3.3-.4 4.7.1.2.3.2.4 0 .7-1.3 1.1-2.6 1.6-4 .2-.6.7-.4 1.1-.8l2.4-2.4c1-1 1.3-2.4 2.2-3.4 1.2-1.3 2.3-1.9 2.9-3.7.1-.4.1-1.4-.6-1.4-1.4-.1-2.6 2.8-.7 2.5 2.2-.3 4.2-2.9 5.6-4.3.2-.2-.1-.5-.3-.3-.7.7-1.5 1.4-2.2 2-.6.5-1.2 1-1.9 1.5-.3.2-2.9 1.4-1.3-.5.3.2.6.4.9.7-.1.2-.2.5-.3.7-.2.4-.5.8-.8 1.2-.5.7-1.4 1.1-2 1.8-.8.9-1.1 2.1-1.9 3-.4.4-2.3 2.9-3 2.6-.1 0-.2 0-.2.1-.2.7-.4 1.3-.7 2-.1.2-1 2.1-1 2.2-.4-1-.3-2.2.1-3.1.3.5.3 1.1.1 1.6-.2 1.2-.8 1.9-1.8 2.1-.3-.5-.5-.1-.2.1"/></g></svg>