<svg xmlns="http://www.w3.org/2000/svg" viewBox="0 0 64 64"><path fill="#dbb471" d="M54 46.9C54 59 44.2 59 32 59s-22 0-22-12.1S19.9 15 32 15s22 19.7 22 31.9z"/><path d="M54 46.9c0-4.1-1.1-9.1-3.1-13.9.4 3.1-.4 8.6-9.9 10.7-13.5 2.9-6.5 6.7-11.8 7.2-4.5.4-16.5-1.4-18.9-8.2-.2 1.5-.4 2.9-.4 4.3.1 12 10 12 22.1 12s22 0 22-12.1" opacity=".5" fill="#89664c"/><path fill="#699635" d="M34 55h-2.3v4l9.3 5 21-6.5V54l-7.7-4.5z"/><path fill="#83bf4f" d="M32 52.7s2.4 3.9 9.2 7.3c0 0 10.6-.5 20.8-7.3 0 0-5.9-2.9-7.6-6.7 0 0-4 5.6-22.4 6.7"/><path fill="#699635" d="m27.5 54.9 2.2-.1.3 3.7-8.7 5.5L.4 59.5l-.3-3.3 7.1-4.9z"/><path fill="#83bf4f" d="M29.2 52.6s-2.1 3.9-8.4 7.6c0 0-10.3.3-20.8-5.2 0 0 5.6-3.2 6.9-7 0 0 4.4 5 22.3 4.6"/><path fill="none" stroke="#699635" stroke-miterlimit="10" d="M24.2 53.7s-.3.8 1.1.9l-3.7 3.1s-2.2-.2-2.7 1.3c0 0-9-1-14.8-3.6 0 0 1.2-.9-.3-1.5 0 0 1.7-1.2 2.1-2.3 0 0 1.6.2 2.1-1 .2-.1 6.2 3.5 16.2 3.1z"/><ellipse cx="8.8" cy="53.8" fill="#699635" rx="1.9" ry="1.3"/><path d="M19 52.2s-2.3 3-7.3 7.1L12 62l-3.5-.8-.2-2.9s5.1-4.7 6.2-7c-.1 0 1.7.6 4.5.9m23.1-.7s.9 2.4 7.7 6.8v2.9l3.9-1.2v-3s-4.7-3.3-7.5-6.6l-4.1 1.1" fill="#f9f3d9"/><path fill="#699635" d="m36.4 48.3-2.2-.1-.2 4.1 8.9 5.7 20.9-5.7.1-3.6-7.3-5.1z"/><path fill="#83bf4f" d="M34.6 45.8s2.2 4.2 8.7 8c0 0 10.4 0 20.7-6.4 0 0-5.7-3.3-7.1-7.4 0 0-4.3 5.6-22.3 5.8"/><path fill="none" stroke="#699635" stroke-miterlimit="10" d="M39.1 46.9s.5.8-1.1 1.1l4.2 3.3s2.4-.6 3.2.8c0 0 10-1.8 14.6-4.2 0 0-1.5-.7 0-1.6 0 0-1.8-1.5-2.5-2.5 0 0-1.7.5-2.6-.7 0 .1-3.6 3.3-15.8 3.8z"/><path fill="#699635" d="M46.8 49.4c-.4.5-1.7.7-2.8.4-1.1-.3-1.6-1-1.2-1.5.4-.5 1.7-.7 2.8-.4 1.1.3 1.6.9 1.2 1.5"/><path fill="#f9f3d9" d="M44.8 45s2.4 3.2 7.5 7.5l-.1 3 3.5-1 .1-3.2s-5.2-5-6.5-7.4c.1 0-1.6.7-4.5 1.1"/><path fill="#dbb471" d="M46 2c0 6.1-7.9 16-14 16S18 9.1 18 3s.9 0 7 0c.9 0 5.1-3 7-3 1.3 0 5 3 7 3 5.3 0 7-5.6 7-1"/><path fill="#89664c" d="M30.2 13.3c-.6.4-3.5.1-4.4.8-1.2.9.5 3-.7 4.3-2.4 2.4-4.3 5.1-3.7 6.6 1 2.6 2.9-4.8 4.6-2s1.4-1.9 4 .5.4-4.3 2.9-1.4 2.6 6.2 4.4 6.2c2.1 0-2.2-7.9.6-6s5.9 1.2 3.1-1.7c-.9-.9-2.1-2.5-3.5-3.9-.5-.5-.1-3.1-.6-3.5-.6-.5-2.1 1.1-2.7.8-1.2-.6-.8.5-2.6.8-1.2.4-.2-2.3-1.4-1.5"/><path fill="#e8e8e8" d="M18.7 19.2c3.9-3.7 11-1.6 15.2.2 4.1 1.8 6.6-3.9 4-6.8-1.5-1.7-3.9.3-4.8 1.5-1 1.2-1.8 2.5-2.9 3.7-1.6 1.8-5.5.3-4.3-2.2 1.3-2.6 6.8.4 8.6.9 3.5 1 7.2 1.4 10.7.1 1.2-.4.7-2.4-.5-1.9-3.9 1.4-7.8.5-11.5-.7-1.9-.6-4.9-2.2-6.9-1.3-5.7 2.7-.4 10.4 4.4 7.4 1.1-.7 1.8-1.8 2.6-2.8.5-.6 3-4.4 3.6-2.5.3 1 0 2.8-1.1 3.1-.7.3-2.1-.7-2.8-.9-1.3-.5-2.6-.9-4-1.2-3.7-.8-8.7-.6-11.6 2.1-1 .8.4 2.2 1.3 1.3"/><path fill="#89664c" d="M44.8.5C43.8 1.3 42 3 39 3c-2 0-5.7-3-7-3-1.9 0-6.1 3-7 3-3.3 0-5.1-1.7-6-2.4 0 0 1.1 4.5 4.5 6.8C26 9 25.7 7.1 27 5.3s2.2-2.7 4.5 1.8c1.2 2.5 3.5-6.8 5.3-3.8 3.3 5.5 4.5 2.5 8-2.8"/><path d="m52.4 52.4-.1 3 3.5-1 .1-3.2c0 .1-2.1.9-3.5 1.2m-2.6 6v2.9l3.9-1.2v-3c-.1-.1-1.1.5-3.9 1.3m-38.1.8L12 62l-3.5-.8-.2-2.9c-.1 0 1.3.5 3.4.9" fill="#dbb471"/></svg>