<svg xmlns="http://www.w3.org/2000/svg" viewBox="0 0 64 64"><path fill="#699635" d="M0 46.5h64v9H0z"/><path fill="#83bf4f" d="M0 8.5h64v38H0z"/><path fill="#94989b" d="M24 46.5h16v9H24z"/><path fill="#699635" d="M4 12.5h56v30H4z"/><path fill="#83bf4f" d="M7 15.5h50v24H7z"/><circle cx="45" cy="27.5" r="8" fill="#699635"/><path fill="#d0d0d0" d="M24 8.5h16v38H24z"/><path fill="#fff" d="M16 26.5c-1.1 0-2-.9-2-2s.9-2 2-2 2 .9 2 2h2c0-1.9-1.3-3.4-3-3.9v-1.1h-2v1.1c-1.7.4-3 2-3 3.9 0 2.2 1.8 4 4 4 1.1 0 2 .9 2 2s-.9 2-2 2-2-.9-2-2h-2c0 1.9 1.3 3.4 3 3.9v1.1h2v-1.1c1.7-.4 3-2 3-3.9 0-2.2-1.8-4-4-4"/></svg>