<svg xmlns="http://www.w3.org/2000/svg" viewBox="0 0 64 64"><path fill="#d9e3e8" d="M0 8.8c16.3 11.8 10.7 33.9 19.9 49 2.7-1.8 5.3-3.5 8-5.3 1.7 2.7 3.9 5.2 6.8 7.4l23.7-18.3c-3.8-2.8-6-6.3-7.4-10.2C47.2 20.8 49 7.5 38.5 0 25.7 2.9 12.8 5.9 0 8.8"/><path d="M11 14.1c.5.7 1 1.5 1.4 2.3 9.1-2.8 18.3-5.6 27.4-8.5-.3-.6-.7-1.2-1.1-1.8-9.2 2.7-18.4 5.4-27.7 8m4.3 9.1c8.9-3.3 17.9-6.6 26.8-9.9-.2-.7-.4-1.3-.7-2-9 3.1-18 6.2-27 9.4.3.9.6 1.7.9 2.5m1.8 7.4 26.4-11.4c-.1-.7-.3-1.4-.4-2.1-8.8 3.6-17.7 7.2-26.5 10.9.1.8.3 1.7.5 2.6" fill="#7d8b91"/><path fill="#d9e3e8" d="M16.8 51c1.4 4.2 3.5 8.2 6.7 11.6 1.8 1.9 5.4 1.9 7.4.3 2.1-1.6 2-4.1.3-5.9-3-3.2-5-6.9-6.3-10.8-2.7 1.5-5.4 3.2-8.1 4.8"/><path fill="#333" d="M18.9 49c.1 5.4 1.3 10.2 4.6 13.6 1.8 1.9 5.4 1.9 7.4.3 2.1-1.6 2-4.1.3-5.9-3-3.2 20.3-24.1 18.9-28-2.6 1.5-21.3 12.9-31.2 20" opacity=".5"/><path fill="#b0bdc6" d="M24.2 43.7c1.3 4.7 3.2 9.1 6.6 12.8 1.8 2 2.2 4.8.1 6.4 10.4-8 20.8-16.1 31.2-24.1 2.1-1.6 2.3-3.9 1-5.4-2.4-2.6-3.8-5.8-4.7-9.1-15.9 9-27.2 15.4-34.2 19.4"/></svg>