<svg xmlns="http://www.w3.org/2000/svg" viewBox="0 0 64 64"><path fill="#d9e3e8" d="M43.9 3.5S40-1.1 33.7.2c-6.5 1.4-24 5.4-24 5.4l9.9 3.9 24.3-6"/><path fill="#699635" d="M48.5 8.9c2.2-.7 5.2 1.7 6.8 6 1.4 3.9.7 8.8-1.6 9.7l-3.1.6-4.9-15.7 2.8-.6"/><path fill="#83bf4f" d="M45.7 9.5c2.2-.7 5.2 1.7 6.8 6 1.4 3.9.7 8.8-1.6 9.7-2.1.8-5.5-1.6-6.7-6.1-1.2-4.4-.9-8.8 1.5-9.6"/><path fill="#699635" d="M44.4 11.9c1.7-.6 4.2 1.4 5.4 4.8 1.1 3.1.6 7-1.3 7.7l-2.4.5-3.9-12.6 2.2-.4"/><path fill="#83bf4f" d="M52.6 51.9c-1.1 0-2.1-.2-3.2-.5-4.5-1.6-12.8-10.1-13.7-11.1l2.6-2.5c2.3 2.4 9.1 9 12.3 10.2 1.9.7 4.3.1 5.1-.6 1.8-1.5 2.7-4.2 2.6-7.1-.1-2.8-1.3-5.3-3-6.5-5.8-4.1-8.3-10.4-8.3-10.4.3-2.2 2.2-1.7 2.2-1.7 0 .1 1.7 5 8.3 9.2 2.7 1.7 4.3 5.3 4.5 9.3.2 4-1.3 7.8-3.9 10-1.2 1-3.3 1.7-5.5 1.7"/><path fill="#c7d3d8" d="M51.6 34.2s-.3 4-6.9 6.2c-4.3 1.4-23.4 7.5-23.4 7.5l6.7-6.1 23.6-7.6"/><path fill="#93a2aa" d="M21.1 24.8 19.6 9.6S9.4-1.7 3.4 12.9C2 16.4 3 24.5 3.8 28.3c.9 3.9 3.8 11.6 6.6 14.5 12.1 12.3 17.5-1 17.5-1l-6.1-14.5 23.3-6.6-.5-2.9-23.5 7"/><path fill="#c7d3d8" d="m43.9 3.5.8 14.3-23.6 7-1.5-15.2z"/><path fill="#d9e3e8" d="M51.6 34.2 28 41.8l-6.2-14.5 23.4-6.6z"/><path d="M31.5 29.6c-.1 0-.2 0-.4-.1-.6-.2-1-.9-.8-1.5 0 0 .8-2.7 0-5-.8-2.1-2.5-3.3-2.5-3.3-.6-.4-.7-1.1-.4-1.6.4-.6 1.1-.7 1.7-.4.1.1 2.5 1.5 3.5 4.5 1.1 3 .1 6.4 0 6.5-.1.6-.6.9-1.1.9m6.8-1.7c-.1 0-.2 0-.4-.1-.6-.2-1-.9-.8-1.5 0 0 .8-2.7 0-5-.8-2.1-2.5-3.3-2.5-3.3-.6-.4-.7-1.1-.4-1.6.4-.6 1.1-.7 1.7-.4.1.1 2.5 1.5 3.5 4.5 1.1 3 .1 6.4 0 6.5-.1.5-.6.9-1.1.9" fill="#3e4347"/><path fill="#699635" d="M12.7 20.7c1.7-.6 4.2 1.4 5.4 4.8 1.1 3.1.6 7-1.3 7.7l-3.3.7-4.1-12.6 3.3-.6"/><path fill="#83bf4f" d="M7 20.2c2.2-.7 5.2 1.7 6.8 6 1.4 3.9.7 8.8-1.6 9.7l-3.1.6-4.9-15.8 2.8-.5"/><path fill="#699635" d="M4.2 20.7c2.2-.7 5.2 1.7 6.8 6 1.4 3.9.7 8.8-1.6 9.7-2.1.8-5.5-1.6-6.7-6.1-1.2-4.3-.9-8.8 1.5-9.6"/><path fill="#83bf4f" d="M21.3 64c-6 0-13.7-7.6-16.2-11.6-1.4-2.3-1.1-4.2-.6-5.3 1.1-2.3 3.7-3.5 5.9-4.3l3.2 2.8c-1.7.3-5 1.3-5.8 3-.1.2-.4.8.4 2 2.4 3.9 9.1 9.9 13.1 9.9 2 0 3.5-1 4.3-3.1 1.6-4.1 0-11.2-5.4-15.9-3-2.6-4.8-6.7-4.9-9.1 0 0 .4-1.8 1.9-1.5 0 0 3.1 6 5.4 8 6.8 5.9 8.3 14.7 6.3 19.8-1.2 3.3-4 5.3-7.6 5.3"/></svg>