<svg xmlns="http://www.w3.org/2000/svg" viewBox="0 0 64 64"><path d="M11.7 13.1c0 .6-.5 1.1-1.2 1.1H9c-.7 0-1.2-.5-1.2-1.1v-12C7.8.5 8.3 0 9 0h1.6c.7 0 1.2.5 1.2 1.1v12zm10.1 0c0 .6-.5 1.1-1.2 1.1H19c-.7 0-1.2-.5-1.2-1.1v-12c0-.6.5-1.1 1.2-1.1h1.6c.7 0 1.2.5 1.2 1.1v12" fill="#d0d0d0"/><g fill="#3e4347"><path d="M0 13.6V18c0 .6.5 1.1 1.2 1.1h1.7V24c0 4.2 2.3 7.8 5.7 9.8V38c0 .6.5 1.1 1.2 1.1H20c.7 0 1.2-.5 1.2-1.1v-4.2c3.4-2 5.7-5.7 5.7-9.8v-4.8h1.7c.6 0 1.2-.5 1.2-1.1v-4.5c0-.5-.4-1-.9-1.1H.9c-.5.1-.9.5-.9 1.1"/><path d="M60.1 25.8V64H64V25.8c0-1.8-.4-3.6-1.1-5.2-.7-1.6-1.7-3-3-4.2-1.3-1.2-2.7-2.2-4.4-2.9-1.7-.7-3.5-1.1-5.4-1.1-1.9 0-3.7.4-5.4 1.1-1.6.7-3.1 1.6-4.4 2.9-1.3 1.2-2.3 2.7-3 4.2-.7 1.6-1.1 3.4-1.1 5.2v24.8c0 5.3-4.4 9.5-9.8 9.5s-9.8-4.3-9.8-9.5V39.2h-3.9v11.4c0 1.8.4 3.5 1.1 5.2.7 1.6 1.7 3 3 4.2 1.3 1.2 2.7 2.2 4.4 2.9 1.7.7 3.5 1 5.4 1 1.9 0 3.7-.4 5.4-1 1.6-.7 3.1-1.6 4.4-2.9 1.3-1.2 2.3-2.7 3-4.2.7-1.6 1.1-3.4 1.1-5.2V25.8c0-5.3 4.4-9.5 9.8-9.5s9.8 4.3 9.8 9.5"/></g></svg>