<svg xmlns="http://www.w3.org/2000/svg" viewBox="0 0 64 64"><circle cx="32" cy="32" r="30" fill="#4fd1d9"/><g fill="#fff"><path d="M49 39.6 42.6 46v-3.9H37c-1.6 0-4.5-1-5.7-4.7L29.7 33l-1.6-4.6c-.3-1.1-.8-1.2-1-1.3H15v-5h12.2c1.6 0 4.5 1 5.7 4.7l1.6 4.4 1.6 4.6c.3 1.1.8 1.2 1 1.3h5.5v-3.9l6.4 6.4"/><path d="m28.4 35-.2.7c-.3 1.1-.8 1.2-1 1.3H15v5h12.2c.9 0 2.3-.3 3.5-1.4-.5-.8-1-1.6-1.3-2.7l-1-2.9m7.4-6 .3-.8c.3-1.1.8-1.2 1-1.3h5.5v3.9l6.4-6.4-6.4-6.4v3.9H37c-.9 0-2.4.4-3.6 1.4.6.8 1 1.7 1.4 2.8l1 2.9"/></g></svg>