<svg xmlns="http://www.w3.org/2000/svg" xmlns:xlink="http://www.w3.org/1999/xlink" viewBox="0 0 64 64"><path id="a" fill="#8b979e" d="M11.1 45H3.8C1.7 45 0 43.4 0 41.5v-19c0-2 1.7-3.5 3.8-3.5h7.3v26z"/><use xlink:href="#a"/><path fill="#b0bdc6" d="M29.8 2.2C31.1.9 11.1 19 11.1 19v26s10.3 7.9 18.7 16.8V2.2z"/><path d="M33 25.5v13.1c3.9 0 7-2.9 7-6.5 0-3.7-3.1-6.6-7-6.6m0 37c0 .8-.7 1.5-1.6 1.5-.9 0-1.6-.7-1.6-1.5v-61c0-.8.7-1.5 1.6-1.5.9 0 1.6.7 1.6 1.5v61" fill="#333"/><path fill="#8b979e" d="M11.1 40.2H3.8c-2.1 0-3.8-1-3.8-2.2V26c0-1.2 1.7-2.2 3.8-2.2h7.3v16.4z"/><path fill="#b0bdc6" d="M11.1 40.2H3.8c-2.1 0-3.8-1-3.8-2.2V26c0-1.2 1.7-2.2 3.8-2.2h7.3v16.4z"/><path fill="#dfe9ef" d="M29.8 13.3 11.1 23.8v16.4l18.7 10.5z"/><path fill="#8b979e" d="M29.8 13.3H33v37.5h-3.2z"/><path fill="#333" d="M3.8 19h7.3v26H3.8z"/></svg>