<svg xmlns="http://www.w3.org/2000/svg" viewBox="0 0 64 64"><path fill="#4d5357" d="M3 18 19 2v10h42v12H19v10z"/><path fill="#c28fef" d="M14 46.3c0-3.5-2.7-6.3-6-6.3H2v22h6c3.3 0 6-2.8 6-6.3 0-1.8-.7-3.5-1.9-4.7 1.2-1.2 1.9-2.8 1.9-4.7M8 58.6H5.1v-5.9H8c1.7 0 3 1.3 3 3s-1.3 2.9-3 2.9m0-9.3H5.1v-5.9H8c1.7 0 3 1.3 3 3s-1.3 2.9-3 2.9m32 9.3c-1.7 0-3-1.3-3-3v-9.3c0-1.6 1.3-3 3-3s3 1.3 3 3h3c0-3.5-2.7-6.3-6-6.3s-6 2.8-6 6.3v9.3c0 3.5 2.7 6.3 6 6.3s6-2.8 6-6.3h-3c0 1.7-1.3 3-3 3M62 40h-3.2L55 49.5h-2V40h-3v22h3v-9.5h2l3.8 9.5H62l-4.4-11zM27 62h3l-4-22h-5l-3 22h3l.8-6.1h4.1L27 62m-4.7-9.4 1.3-9.4 1.7 9.4h-3"/></svg>