<svg xmlns="http://www.w3.org/2000/svg" viewBox="0 0 64 64"><circle cx="32" cy="32" r="30" fill="#ff5a79"/><circle cx="32" cy="32" r="24" fill="#fff"/><path d="M16.1 27.1v-3.5c1.6-.1 2.7-.2 3.4-.3 1-.2 1.9-.7 2.5-1.4.4-.5.8-1.1 1-1.9.1-.5.2-.8.2-1h4.3v26h-5.2V27h-6.2zm14.6 6.5c.7-1.2 1.6-2.1 2.9-2.7-1.3-.8-2.1-1.7-2.5-2.7s-.6-1.9-.6-2.7c0-1.9.7-3.5 2.1-4.8 1.4-1.3 3.4-2 6.1-2 2.6 0 4.6.7 6.1 2 1.4 1.3 2.1 3 2.1 4.8 0 .9-.2 1.8-.6 2.7s-1 1.8-2.3 2.5c1.3.7 2.3 1.7 2.9 2.9.6 1.2 1 2.5 1 4 0 2.2-.8 4.1-2.4 5.6-1.6 1.5-3.9 2.3-6.8 2.3s-5.1-.8-6.6-2.3c-1.5-1.5-2.2-3.4-2.2-5.6-.1-1.5.2-2.9.8-4m5.4 6.6c.7.7 1.6 1.1 2.8 1.1s2.1-.4 2.8-1.1 1-1.7 1-3-.3-2.3-1-3-1.6-1-2.7-1-2.1.3-2.7 1c-.7.7-1 1.7-1 3-.2 1.3.1 2.3.8 3m.3-11.9c.6.6 1.4.9 2.4.9s1.9-.3 2.4-.9c.6-.6.9-1.4.9-2.3 0-1-.3-1.8-.9-2.4-.6-.6-1.4-.9-2.4-.9s-1.8.3-2.4.9c-.6.6-.9 1.4-.9 2.4 0 .9.3 1.7.9 2.3" fill="#333"/><path fill="#ff5a79" d="m9.23 13.474 4.243-4.243 41.295 41.295-4.243 4.242z"/></svg>