<svg xmlns="http://www.w3.org/2000/svg" viewBox="0 0 64 64"><path fill="#ffce31" d="M2 28.3v31.4C2 62.1 3.9 64 6.3 64h51.4c2.4 0 4.3-1.9 4.3-4.3V28.3H2z"/><path fill="#ff8736" d="M62 24c0-2.4-1.9-4.3-4.3-4.3H6.3C3.9 19.6 2 21.6 2 24v4.3h60V24z"/><g fill="#3e4347"><ellipse cx="12.4" cy="23.5" rx="5.9" ry="2.5"/><ellipse cx="51.6" cy="23.5" rx="5.9" ry="2.5"/></g><path fill="#dfe9ef" d="M32 0C19.1 0 8.6 10.6 8.6 23.5c0 .8 1.6 1.4 3.8 1.4v-1.4c.8-11 9.3-19.7 19.6-19.7 10.4 0 18.9 8.7 19.6 19.7v1.4c2.2 0 3.8-.6 3.8-1.4C55.4 10.6 44.9 0 32 0"/><path fill="#b0bdc6" d="M51.6 23.5C50.9 12.6 42.4 3.9 32 3.9c-10.4 0-18.9 8.7-19.6 19.7V25c2.2 0 4.2-.6 4.2-1.4C16.5 16.4 22.5 8 32 8s15.5 8.4 15.5 15.5c0 .8 2 1.4 4.2 1.4l-.1-1.4"/></svg>