<svg xmlns="http://www.w3.org/2000/svg" viewBox="0 0 64 64"><path fill="#d0d0d0" d="M62 52c0 5.5-4.5 10-10 10H12C6.5 62 2 57.5 2 52V12C2 6.5 6.5 2 12 2h40c5.5 0 10 4.5 10 10v40z"/><path fill="#fff" d="M57 45.7c0 4.6-3.7 8.3-8.3 8.3H15.3C10.7 54 7 50.3 7 45.7V12.3C7 7.7 10.7 4 15.3 4h33.3c4.6 0 8.3 3.7 8.3 8.3v33.4z"/><path d="M26 45h-6.1V22c-2.2 2.1-4.9 3.6-7.9 4.6v-5.5c1.6-.5 3.3-1.5 5.2-3 1.9-1.5 3.2-3.2 3.9-5.1h5v32zm15-32c3.3 0 5.8 1.1 7.7 3.2C50.9 18.8 52 23.1 52 29s-1.1 10.2-3.3 12.8C46.8 43.9 44.3 45 41 45s-6-1.2-8-3.5S30 35 30 29c0-5.9 1.1-10.1 3.3-12.7 1.9-2.2 4.4-3.3 7.7-3.3m0 5c-.8 0-1.5.2-2.1.7-.6.5-1.1 1.3-1.4 2.5-.4 1.6-.7 4.2-.7 7.8 0 3.7.2 6.2.6 7.6s.9 2.3 1.5 2.7c.6.5 1.3.7 2.1.7s1.5-.2 2.1-.7c.6-.5 1.1-1.3 1.4-2.5.4-1.5.7-4.1.7-7.8s-.2-6.2-.6-7.6c-.4-1.4-.9-2.3-1.5-2.8-.6-.4-1.3-.6-2.1-.6" fill="#9aa0a5"/></svg>