<svg xmlns="http://www.w3.org/2000/svg" viewBox="0 0 64 64"><path fill="#d19500" d="M44.5 21.5c-.1-.1-.2-.2-.2-.3-.4-.6-.2-1.5.5-1.9 6.8-3.9 8.2-7.2 9.6-10.1 1.1-2.5 2.2-4.8 6.2-6.5.7-.3 1.5 0 1.8.7.3.7 0 1.5-.7 1.8-3 1.2-3.7 2.8-4.7 5.1-1.4 3.1-3.2 7-10.7 11.3-.7.4-1.4.3-1.8-.1"/><path fill="#ffbf1f" d="m43.7 20.5-.1-.1c-.5-.6-.3-1.5.3-1.9 6.3-4.8 7.3-8.2 8.2-11.1.8-2.6 1.5-5 5.3-7.2.6-.4 1.4-.2 1.8.5.4.7.1 1.5-.5 1.9-2.9 1.6-3.3 3.2-4 5.6-1 3.2-2.2 7.2-9.2 12.5-.5.4-1.3.3-1.8-.2"/><path fill="#ed4c5c" d="M21.4 64V44.3H1.7L35.9 10c1.8-1.8 4.8-1.8 6.6 0l13.2 13.2c1.8 1.8 1.8 4.8 0 6.6L21.4 64z"/><circle cx="42.7" cy="23" r="4.9" fill="#fff"/><path d="M49.5 12.9c-1.4-.6-2.3-1-3.6-.6-1.9.6-3.5 2.4-4.6 5.3-.2.5-.1 1.1.3 1.5.1.1.3.2.4.3.7.3 1.5-.1 1.8-.7 1.1-2.7 2.2-3.5 3-3.8.4-.1.4.2.9.2 1.1-1.1 1.8-2.2 1.8-2.2m3.8 6.9c.4-1.1.1-2.1-.3-3.3 0 0-.8.8-2.1 1.9 0 .2 0 .4-.1.5-.3.8-1.1 1.9-3.8 3-.7.3-1 1.1-.7 1.8.1.2.2.3.3.4.4.4 1 .5 1.5.3 2.8-1.2 4.6-2.8 5.2-4.6" fill="#f2b200"/></svg>