<svg xmlns="http://www.w3.org/2000/svg" viewBox="0 0 64 64"><path d="M58.7 64H64v-3.4zm4.8-9.8L18.4 9.1l-9.3 9.3 44.4 44.4-1.4-1.3z" fill="#b6c0c6"/><g fill="#7a8891"><path d="m64 54.6-.5-.4.5.5zm-10.5 8.2 1.2 1.2z"/><path d="m58.7 64 5.3-3.4v-5.9l-.5-.5-11.4 7.3 1.4 1.3 1.2 1.2zm-3.4-18-11.4 7.3 4.1 4.1 11.4-7.3zm-8.2-8.3L35.7 45l4.1 4.1 11.4-7.2zM30.6 21.3l-11.4 7.3 4.1 4.1 11.4-7.3zm8.2 8.2-11.4 7.3 4.1 4.1L43 33.6zM22.4 13 11 20.3l4.1 4.1 11.4-7.2z"/></g><path fill="#4f585b" d="m7.1 17.9-7.1 7 11 11 7-7.1z"/><path fill="#8b979e" d="M17.9 7 7.1 17.9 18 28.8 28.9 18z"/><path fill="#cedae0" d="m24.9 0-7 7 11 11 7-7z"/><path fill="#4f585b" d="m28.3 39.1-7 7.1 11 10.9 7-7z"/><path fill="#8b979e" d="M39.2 28.3 28.3 39.1l11 11 10.8-10.8z"/><path fill="#cedae0" d="m46.2 21.3-7 7 10.9 11 7.1-7.1z"/></svg>