<svg xmlns="http://www.w3.org/2000/svg" viewBox="0 0 64 64"><circle cx="32" cy="32" r="30" fill="#4fd1d9"/><path d="M19.4 25.4 18.1 30H14l5.4-18h5.2L30 30h-4.3l-1.4-4.6h-4.9m4.4-3.1-1.1-3.8c-.3-1.1-.6-2.4-.9-3.5h-.1c-.3 1.1-.5 2.4-.8 3.5l-1 3.8h3.9M36 12.4c1-.2 2.9-.4 4.7-.4 2.2 0 3.6.2 4.8 1 1.1.7 1.9 1.9 1.9 3.5s-.8 3-2.7 3.8v.1c1.8.6 3.2 2.1 3.2 4.4 0 1.6-.7 2.9-1.7 3.8-1.2 1-3.1 1.6-6.4 1.6-1.8 0-3.1-.1-4-.3V12.4zm3.6 6.7h1.2c1.9 0 3-.9 3-2.2 0-1.3-.9-2-2.6-2-.8 0-1.2.1-1.6.1v4.1m0 7.9H41c1.7 0 3.1-.7 3.1-2.5S42.6 22 40.8 22h-1.2v5M27.3 51.2c-.7.4-2.2.8-4.2.8-5.7 0-8.6-3.8-8.6-8.7 0-6 4-9.3 9-9.3 1.9 0 3.4.4 4 .8l-.8 3.1c-.8-.3-1.8-.6-3.1-.6-2.9 0-5.2 1.9-5.2 5.8 0 3.5 1.9 5.7 5.3 5.7 1.1 0 2.4-.3 3.1-.6l.5 3M36 34.4c1.3-.2 3-.4 4.8-.4 3 0 5 .6 6.5 1.9 1.6 1.4 2.7 3.5 2.7 6.7 0 3.4-1.1 5.7-2.6 7.2-1.7 1.5-4.2 2.3-7.3 2.3-1.9 0-3.2-.1-4.1-.3V34.4m3.6 14.4c.3.1.8.1 1.2.1 3.2 0 5.4-2 5.4-6.2 0-3.7-1.9-5.6-5-5.6-.8 0-1.3.1-1.6.2v11.5" fill="#fff"/></svg>