<svg xmlns="http://www.w3.org/2000/svg" viewBox="0 0 64 64"><circle cx="32" cy="32" r="30" fill="#4fd1d9"/><path d="M14 14h16v4H14zm0 8v4h6v4h4v-4h6v-4zm35.5-3c-.3-.5-.7-.9-1.2-1.2-.1-.1-.2-.1-.3-.2l-.3-.2c-.2-.1-.3-.3-.5-.4-.6-.6-1-1.2-1.1-1.7-.2-.5-.2-.8-.2-1.1h-3.2L40.6 25c-.6-.2-1.3-.3-2-.3-2.6 0-4.6 1.2-4.6 2.7s2.1 2.7 4.6 2.7c2.4 0 4.4-1.1 4.6-2.5l1.9-10c.3.2.5.4.8.6.2.1.5.3.7.4.1.1.2.1.4.2.1 0 .2.1.3.2.4.2.8.5 1 .8.3.3.5.6.5 1 .1.4 0 .8-.2 1.2-.3.8-.9 1.4-1.4 1.9-.5.5-1 .9-1.4 1.2-.4.3-.6.4-.6.4l.6-.3c.4-.2 1-.6 1.6-1 .6-.5 1.3-1.1 1.9-1.9.3-.4.5-.9.5-1.5.2-.7 0-1.3-.3-1.8M27.7 46.5l1.3-1.1-2-2.2-1.4 1.3-2.7-2.8c1.7-.6 2.8-2 2.8-3.7 0-2.2-2.1-4-4.6-4s-4.6 1.8-4.6 4c0 .9.4 1.7.9 2.4-1.5 1-2.5 2.5-2.5 4.3 0 2.9 2.8 5.3 6.1 5.3 1.6 0 3.2-.6 4.3-1.5l1.5 1.5 2.1-2.1-1.2-1.4M19.6 38c0-.7.7-1.3 1.5-1.3s1.5.6 1.5 1.3-.7 1.3-1.5 1.3-1.5-.6-1.5-1.3m1.5 9.3c-1.7 0-3.1-1.2-3.1-2.7 0-1 .6-1.8 1.5-2.3l3.9 4c-.5.7-1.4 1-2.3 1M50 34h-4L34 50h4zm-12 8c-2.2 0-4-1.8-4-4s1.8-4 4-4 4 1.8 4 4-1.8 4-4 4m0-6c-1.1 0-2 .9-2 2s.9 2 2 2 2-.9 2-2-.9-2-2-2m8 14c-2.2 0-4-1.8-4-4s1.8-4 4-4 4 1.8 4 4-1.8 4-4 4m0-6c-1.1 0-2 .9-2 2s.9 2 2 2 2-.9 2-2-.9-2-2-2" fill="#fff"/></svg>