<svg xmlns="http://www.w3.org/2000/svg" viewBox="0 0 64 64"><path fill="#dff4f4" d="M53.4 24.7s1-5.1 3.9-1.2h1s-.3-3-2.1-3.2c-3.7-.4-2.8 2.9-5.8.7s3 3.7 3 3.7"/><path fill="#87989b" d="M54.4 24.7s1-5.1 3.9-1.2l.6-1.1s-1.3-2.5-3.1-2.1c-1.8.3-1.3 2.8-4.4.7-3-2.2 3 3.7 3 3.7"/><path fill="#abc2c6" d="m54.4 28.6.9-3.9-4.6-5.2-1.1 5.9z"/><path fill="#dff4f4" d="m6.3 7 .4-1.9.9-.7c1.2.4 4.8 1.5 5.9 2.6H6.3"/><path d="M7.7 7V4.4S12.1 4.1 15 7H7.7m39.6 6.3v-1.6s1.6-.3 1.6 2.1-1.6-.5-1.6-.5" fill="#5a6a6d"/><g fill="#dff4f4"><path d="m46 12.1 1.3-.4v1.6l-1.4-.1z"/><path d="m9.8 24.2 4.1 4 10.7.1 3.1 2.6v2.9H34s5.2-4.5 9.3 1.9c2.1 3.3 9.3 0 8.6-5h2.8v-1.5s-6.2-1-6.6-3.7c-.4-2.7.3-10.3.3-10.3s-10-8.8-41.7-8.6L3.6 7.7v1.9l6.2 14.6"/></g><path fill="#87989b" d="M54.8 30.3H44.4v12.4s5 .3 6 7.4c.8 5.4-2.8 5.8-2.8 5.8v3.6h11s3.5-1 3.5-5.8c0-3.3 0-8.9-6.1-15.6-1.9-1.9-1.2-7.8-1.2-7.8"/><path fill="#293030" d="M56.7 29.3H46.3v13.5s5 .3 6 7.4c.8 5.4-2.8 5.8-2.8 5.8v3.6h11s3.5-1 3.5-5.8c0-3.3 0-8.9-6.1-15.6-1.9-2-1.2-8.9-1.2-8.9"/><path fill="#dff4f4" d="m36.1 32.1-.6 1.9c6.2 3.4 1.1 8.2 1.1 8.2h1.9s2.6-1.7 7-7.4c1.3-1.7-4.4-5.7-9.4-2.7"/><path fill="#475152" d="m37.9 32.1-.5 1.9c6.2 3.4 1.1 8.2 1.1 8.2 5 0 3.3-5.8 8.9-7.4 2.3-.6-4.4-5.7-9.5-2.7"/><path fill="#dff4f4" d="M29.7 33.7s-.1 3 .8 6.5c1 3.4 3.7 4.6 7.2 4.6 4.2 0 7.4-4.1 8.1-6.3h-1.4s-2.2 4.9-6.6 4.9c-4.2 0-7.3-2.7-4.6-9.7h-3.5"/><path fill="#475152" d="M31.1 33.7s-.2 3 .8 6.5c1 3.4 3.7 4.6 7.2 4.6 4.2 0 5.7-2.7 6.7-3.9v-2.4s-2.2 4.9-6.6 4.9c-4.2 0-7.3-2.7-4.6-9.7h-3.5"/><path fill="#87989b" d="m12.9 24.2 4.1 4 10.7.1 3.1 2.6v2.9h6.3s5.2-4.5 9.3 1.9c2.1 3.3 9.3 0 8.6-5h2.8v-1.5s-6.2-1-6.6-3.7c-.4-2.7.3-10.3.3-10.3S40.6 5.8 6.7 6.6v3l6.2 14.6"/><path fill="#abc2c6" d="M50.6 17c-5-2.3-11.5-3.9-18-5 2 .4 3.4 3.1 3.2 6.2-.2 3-3.5 11.5-3.5 11.5 6.6-.2 13.6 1.5 13.6 1.5C57.7 24.5 50.6 17 50.6 17"/><path fill="#5a6a6d" d="M52 19.3c-5-1.2-8.7-2.1-15.2-2.7 0 0-.3 5.8-.5 7.4l11.8 2.5c2.1.6.8 2.5.8 2.5 6.3-4.8 3.1-9.7 3.1-9.7"/><path fill="#dff4f4" d="m33 28.9 2.2-1.9 2-4.5.3-3.7-1.2-4.7-.4-1.8-3.3-.3-.4 17.7z"/><path d="M35.7 24.5c-.4 1.2-1.5 1.9-2.4 1.7-.9-.2-1.2-1.4-.8-2.5.4-1.2 1.5-1.9 2.4-1.7s1.2 1.3.8 2.5m.7-8c.1 1.2-.5 2.2-1.4 2.3-.8 0-1.6-.9-1.7-2.1-.1-1.2.5-2.2 1.4-2.3s1.6.9 1.7 2.1" fill="#293030"/><path d="M32.6 12h-.4.3C17.8 9.5 2.9 9.7 2.9 9.7l.6 3c6.7.1 18.9.3 31.4 1.2-.6-1.1-1.4-1.8-2.3-1.9M5.4 22.3l.6 3.3s25.5-1.6 26.2-1.5c1-.3 2-1.2 2.6-2.5-5.2-.1-18.6-.4-29.4.7" fill="#abc2c6"/><path d="M35.2 14.6c-.1-.3-.2-.5-.3-.7-12.5-.9-24.7-1.2-31.4-1.3l.2 1.2c6.9.1 19.1.2 31.5.8M4.8 19.3l.6 3c10.8-1.1 24.2-.9 29.5-.7.4-.8.7-1.7.8-2.7-4.7-.1-19.4-.3-30.9.4" fill="#87989b"/><path fill="#5a6a6d" d="M35.2 14.6c-12.4-.6-24.6-.7-31.5-.7l1.1 5.5c11.5-.7 26.1-.5 30.9-.4 0-.2.1-.5.1-.8 0-1.4-.2-2.6-.6-3.6"/><path fill="#dff4f4" d="M8.2 17.2c.8 4.4-.3 8.2-2.4 8.5-2.2.3-4.6-3.1-5.4-7.5-.8-4.4.3-8.2 2.4-8.5 2.1-.3 4.5 3.1 5.4 7.5"/><path fill="#293030" d="M7 17.3c.6 3.1-.2 5.8-1.7 6-1.5.2-3.2-2.2-3.8-5.3-.6-3.1.2-5.8 1.7-6 1.5-.1 3.2 2.2 3.8 5.3"/><path fill="#5a6a6d" d="M33 28.9c-.3-.6-.3-2.6 2.2-1.9l9.4.8-2 2-9.6-.9"/><path fill="#87989b" d="M37.2 22.5c-1.3 0-1.8-3.4.3-3.7l9.7 1.8-.6 3.7-9.4-1.8"/><path fill="#5a6a6d" d="M36.3 14.1c-1.4.7-.9-1.3-.5-1.8l9 2.4 1.5 1.9-10-2.5"/><path fill="#dff4f4" d="M52.4 32.8c-.3 1.1-1.4 1.9-2.5 1.8-1.1-.1-1.7-1-1.4-2.1s1.4-1.9 2.5-1.8c1.1.1 1.7 1 1.4 2.1"/><path fill="#87989b" d="m52.9 34.1-.4.3-4.6-3.2.4-.3z"/></svg>