<svg xmlns="http://www.w3.org/2000/svg" viewBox="0 0 64 64"><path fill="#3e4347" d="m28.8 21.9-5.6 5.8-5.5-5.7 5.5-5.8z"/><path d="M16.7 5.1 6.9 15.2c-.4.4-.4 1 0 1.3l3.7 3.8 3.7 3.8c.4.4.9.4 1.3 0L25.4 14c.4-.4.4-1 0-1.3L18 5.1c-.3-.4-.9-.4-1.3 0M.3 22c-.4.4-.4 1 0 1.3L7.6 31c.4.4 1 .4 1.4 0 0 0 2-2.1 2.1-2.2l-8.6-8.9C2.3 19.9.3 22 .3 22" fill="#94989b"/><path d="m10.5 20.4-3.7-3.8s1.2 2.1-2 2.5c-1.3.2-2.1.4-2.5.8l8.6 8.9c.4-.5.6-1.3.8-2.6.4-3.3 2.4-2 2.4-2l-3.6-3.8M39.6 4.3C29.5-6 18.4 5.5 18.4 5.5l6.5 6.7s6.3-8.5 14.2-6.1c.9.3 1.7.7 2 .5.4-.3-.8-1.6-1.5-2.3" fill="#3e4347"/><path fill="#f2b200" d="m26 24.8-3.6 3.7s1.9 3 5.1 6.3c3.5 3.6 8.2 5.7 12.9 10.5 7 7.2 12.8 15 14.9 17.9.8 1.1.9 1 1.9 0l3-3.1L26 24.8"/><path fill="#ffce31" d="m26 24.8 3.6-3.7s2.9 1.9 6.1 5.2c3.5 3.6 5.5 8.5 10.2 13.3 7 7.2 14.5 13.2 17.4 15.4 1.1.8 1 1 0 2l-3 3.1L26 24.8"/></svg>