<svg xmlns="http://www.w3.org/2000/svg" viewBox="0 0 64 64"><path d="m24.6 54.3-4.8-4.8c-6.1-6.1-2.2-10.4-2.2-10.4L13 34.5s-7.6 8.8 1.1 17.4l6.4 6.4 4.1-4M33.7 44h7.2c4.8-10.9-1.6-24.6-1.7-24.9L33.4 22c0 .1 4.7 13.7.3 22" fill="#94989b"/><path d="M44.6 47c-1.5-4.7-5.9-8.1-11.1-8.1-5.2 0-9.6 3.4-11.1 8.1l-5.2 15h32.6l-5.2-15M19.2 27.1 43.8 6.2l6.3 7.3-24.6 20.9z" fill="#333"/><path d="m24.3 33.1-4-4.7-1.9 2.5 3.2 3.7zm27.1-23-4-4.7-2.5 2.1 4 4.7z" fill="#94989b"/><path fill="#333" d="m52.5 11.4-6.3-7.3L48.7 2 55 9.4z"/><g fill="#d0d0d0"><path d="M43.3 25.8c-1.2 3.4-4.9 5.1-8.3 3.9-3.4-1.2-5.2-4.9-4-8.2 1.2-3.3 4.9-5.1 8.3-3.9 3.4 1.2 5.2 4.9 4 8.2"/><ellipse cx="33.5" cy="50.4" rx="6.5" ry="6.4"/></g><g fill="#333"><path d="M36.2 26.7c1.7.6 3.5-.3 4.1-2 .6-1.7-.3-3.5-2-4.1-1.7-.6-3.5.3-4.1 2-.6 1.6.3 3.5 2 4.1"/><circle cx="33.5" cy="50.4" r="3.2"/><path d="m8.966 31.682 1.13-1.132L21.63 42.07l-1.13 1.132z"/></g><path fill="#29abe2" d="m10.174 30.528 1.13-1.132 11.535 11.52-1.131 1.131z"/></svg>