<svg xmlns="http://www.w3.org/2000/svg" viewBox="0 0 64 64"><path fill="#e8e8e8" d="M2 32.9h11.2V62H2z"/><path fill="#c94747" d="M3.9 36h7.5v18.5H3.9z"/><path fill="#3e4347" d="M7.6 43.1c-.5 0-.9.4-.9.9v10.5h1.9V44c0-.5-.5-.9-1-.9"/><path fill="#e8e8e8" d="M7.6 40.2c-2.1 0-3.8 1.7-3.8 3.8h1.4c0-1.3 1-2.3 2.3-2.3s2.5 1 2.5 2.3h1.4c0-2.1-1.7-3.8-3.8-3.8"/><path fill="#3e4347" d="M6.7 56.4h1.9v3.8H6.7z"/><path fill="#c94747" d="M2 22.6h11.2v10.3H2z"/><path d="M13 24.7c-.3-.6-.9-.9-1.6-.9-.7 0-1.3.4-1.6.9h-.6c-.3-.6-.9-.9-1.6-.9-.7 0-1.3.4-1.6.9h-.5c-.3-.6-.9-.9-1.6-.9-.7 0-1.3.4-1.6.9H2v.9h11.2v-.9H13m-3.5-3H2v.9h11.2v-.9z" fill="#e8e8e8"/><path fill="#c94747" d="M13.1 17c.1-.3.1-.6.1-.9 0-2.1-1.7-3.5-2.8-4.7-2.2-2.2-2.8-3.8-2.8-3.8S7 9.2 4.8 11.4C3.7 12.5 2 14 2 16.1c0 .3 0 .6.1.9l.8 2.8-.9 1.9h11.2l-.9-1.9.8-2.8"/><path d="M5.6 13.6c.4-1.4.9-2.6 1.6-3.6-1.1 1-2.1 2.3-2.6 4.1-.6 2.3 0 4.1 1.4 5.2-.8-1.3-1-3.3-.4-5.7m4 0c-.4-1.4-.9-2.6-1.5-3.6 1.1 1 2.1 2.3 2.6 4.1.6 2.3-.1 4.1-1.4 5.2.7-1.3.9-3.3.3-5.7" fill="#e8e8e8"/><g fill="#b2c1c0"><path d="m8.2 2.9.4-.4h-.7L7.6 2l-.3.5h-.6l.3.4-.3.5h.6l.3.5.3-.5h.7z"/><path d="M7.6 3.4c-.2 3.8-1 6-1 6 .6.1.8.1 1.1.1.3 0 .5 0 1.1-.1-.1 0-1-2.2-1.2-6"/></g><path fill="#e8e8e8" d="M50.8 32.9H62V62H50.8z"/><path fill="#c94747" d="M52.6 36h7.5v18.5h-7.5z"/><path fill="#3e4347" d="M56.4 43.1c-.5 0-.9.4-.9.9v10.5h1.9V44c-.1-.5-.5-.9-1-.9"/><path fill="#e8e8e8" d="M56.4 40.2c-2.1 0-3.8 1.7-3.8 3.8H54c0-1.3 1-2.3 2.3-2.3s2.3 1.1 2.3 2.3H60c.1-2.1-1.6-3.8-3.6-3.8"/><path fill="#3e4347" d="M55.4 56.4h1.9v3.8h-1.9z"/><path fill="#c94747" d="M50.8 22.6H62v10.3H50.8z"/><path d="M60.1 23.7c-.7 0-1.3.4-1.6.9H58c-.3-.6-.9-.9-1.6-.9-.7 0-1.3.4-1.6.9h-.5c-.3-.6-.9-.9-1.6-.9-.7 0-1.3.4-1.6.9h-.3v.9H62v-.9h-.3c-.3-.5-.9-.9-1.6-.9m-1.9-2h-7.4v.9H62v-.9z" fill="#e8e8e8"/><path fill="#c94747" d="M61.9 17c.1-.3.1-.6.1-.9 0-2.1-1.7-3.5-2.8-4.7-2.2-2.2-2.8-3.8-2.8-3.8s-.6 1.6-2.8 3.8c-1.2 1.2-2.8 2.6-2.8 4.7 0 .3 0 .6.1.9l.8 2.8-.9 1.9H62l-.9-1.9.8-2.8"/><path d="M54.4 13.6c.4-1.4.9-2.6 1.5-3.6-1.1 1-2.1 2.3-2.6 4.1-.6 2.3.1 4.1 1.4 5.2-.7-1.3-.9-3.3-.3-5.7m4 0c-.4-1.4-.9-2.6-1.6-3.6 1.1 1 2.1 2.3 2.6 4.1.6 2.3-.1 4.1-1.4 5.2.8-1.3 1-3.3.4-5.7" fill="#e8e8e8"/><g fill="#b2c1c0"><path d="m57 2.9.3-.4h-.6l-.3-.5-.3.5h-.7l.4.4-.4.5h.7l.3.5.3-.5h.6z"/><path d="M56.3 3.4c-.2 3.8-1 6-1 6 .6.1.8.1 1.1.1s.5 0 1.1-.1c-.1 0-.9-2.2-1.2-6m-24.3 8c-2.1 0-3.8 1.7-3.8 3.8v5.6h7.5v-5.6c.1-2.1-1.6-3.8-3.7-3.8"/></g><path fill="#3e4347" d="M30.1 19.8h3.8v-4.7c0-1-.8-1.9-1.9-1.9-1 0-1.9.8-1.9 1.9v4.7"/><path fill="#b2c1c0" d="m32 16.1-18.8 9.3V62h37.6V25.4z"/><path fill="#c94747" d="M15.1 62h33.8V26.6L32 18.2l-16.9 8.4V62z"/><g fill="#89664c"><path d="M22.6 42.8c-2.6 0-4.7 2.1-4.7 4.7V62h9.4V47.5c0-2.6-2.1-4.7-4.7-4.7"/><path d="M32 42.8c-2.6 0-4.7 2.1-4.7 4.7V62h9.4V47.5c0-2.6-2.1-4.7-4.7-4.7"/><path d="M41.4 42.8c-2.6 0-4.7 2.1-4.7 4.7V62h9.4V47.5c0-2.6-2.1-4.7-4.7-4.7"/></g><path fill="#e8e8e8" d="M41.4 41.4c-2 0-3.7 1-4.7 2.5-1-1.5-2.7-2.5-4.7-2.5s-3.7 1-4.7 2.5a5.6 5.6 0 0 0-4.7-2.5c-3.1 0-5.6 2.5-5.6 5.6v15h1.9V47c0-2.1 1.7-3.8 3.8-3.8s3.8 1.7 3.8 3.8v15h1.9V47c0-2.1 1.7-3.8 3.8-3.8S36 44.9 36 47v15h1.9V47c0-2.1 1.7-3.8 3.8-3.8s3.8 1.7 3.8 3.8v15H47V47c0-3.1-2.5-5.6-5.6-5.6"/><path d="M45.1 47h-7.5v1.9h2.8V62h1.9V48.9h2.8zm-26.2 0v1.9h2.8V62h1.9V48.9h2.8V47zm9.3 0v1.9h2.9V62h1.8V48.9h2.9V47z" fill="#594640"/><path fill="#3e4347" d="M28.2 26.4h7.5v6.9h-7.5z"/><g fill="#e8e8e8"><path d="M40.4 34.7H23.6L32 20.8l8.4 13.9m-13.8-1.8h10.8L32 24.1l-5.4 8.8"/><path d="m32 39.5-8.4-13.9h16.9L32 39.5m-5.4-12.2 5.4 8.9 5.4-8.9H26.6"/></g><path d="M3.9 24.5c-.5 0-.9.4-.9.9V32h1.9v-6.6c-.1-.5-.5-.9-1-.9m3.7 0c-.5 0-.9.4-.9.9V32h1.9v-6.6c0-.5-.5-.9-1-.9m3.8 0c-.5 0-.9.4-.9.9V32h1.9v-6.6c-.1-.5-.5-.9-1-.9m41.2 0c-.5 0-.9.4-.9.9V32h1.9v-6.6c0-.5-.5-.9-1-.9m3.8 0c-.5 0-.9.4-.9.9V32h1.9v-6.6c-.1-.5-.5-.9-1-.9m3.7 0c-.5 0-.9.4-.9.9V32h1.9v-6.6c0-.5-.5-.9-1-.9" fill="#3e4347"/></svg>