<svg xmlns="http://www.w3.org/2000/svg" viewBox="0 0 64 64"><g fill="#ffb700"><path d="M7.1 21c0 .5-.4 1-1 1H3c-.5 0-1-.5-1-1s.5-1 1-1h3.1c.6 0 1 .5 1 1m-1 4c0 .5-.4 1-1 1H4c-.5 0-1-.5-1-1s.5-1 1-1h1.1c.6 0 1 .5 1 1m6.9 0c0 .5-.4 1-1 1h-1.1c-.6 0-1-.5-1-1s.4-1 1-1H12c.6 0 1 .5 1 1m6.9 0c0 .5-.5 1-1 1h-1.1c-.6 0-1-.5-1-1s.4-1 1-1h1.1c.5 0 1 .5 1 1M14 21c0 .5-.4 1-1 1H9.9c-.6 0-1-.5-1-1s.4-1 1-1H13c.6 0 1 .5 1 1m6.9 0c0 .5-.5 1-1 1h-3.1c-.6 0-1-.5-1-1s.4-1 1-1h3.1c.5 0 1 .5 1 1m6.8 0c0 .5-.5 1-1 1h-3.1c-.5 0-1-.5-1-1s.5-1 1-1h3.1c.6 0 1 .5 1 1m6.9-2c0 .5-.5 1-1 1h-3.1c-.5 0-1-.5-1-1s.5-1 1-1h3.1c.5 0 1 .5 1 1m6.8 2c0 .5-.5 1-1 1h-3.1c-.5 0-1-.5-1-1s.5-1 1-1h3.1c.6 0 1 .5 1 1m6.9 0c0 .5-.4 1-1 1h-3.1c-.5 0-1-.5-1-1s.5-1 1-1h3.1c.5 0 1 .5 1 1m6.8 0c0 .5-.4 1-1 1H51c-.5 0-1-.5-1-1s.5-1 1-1h3.1c.6 0 1 .5 1 1m6.9 0c0 .5-.5 1-1 1h-3.1c-.6 0-1-.5-1-1s.4-1 1-1H61c.5 0 1 .5 1 1"/><path d="M2.6 21v.5c0 1.9.9 3.5 2 3.5s2-1.6 2-3.5V21h-4m6.9 0v.5c0 1.9.9 3.5 2 3.5s2-1.6 2-3.5V21h-4m6.8 0v.5c0 1.9.9 3.5 2 3.5s2-1.6 2-3.5V21h-4m6.9 0v.5c0 1.9.9 3.5 2 3.5s2-1.6 2-3.5V21h-4m13.7 0v.5c0 1.9.9 3.5 2 3.5s2-1.6 2-3.5V21h-4m6.8 0v.5c0 1.9.9 3.5 2 3.5s2-1.6 2-3.5V21h-4m6.9 0v.5c0 1.9.9 3.5 2 3.5s2-1.6 2-3.5V21h-4m6.9 0v.5c0 1.9.9 3.5 2 3.5s2-1.6 2-3.5V21h-4M30 19v.5c0 1.9.9 3.5 2 3.5s2-1.6 2-3.5V19h-4"/><path d="M26.7 25c0 .5-.5 1-1 1h-1.1c-.5 0-1-.5-1-1s.5-1 1-1h1.1c.6 0 1 .5 1 1m13.7 0c0 .5-.5 1-1 1h-1.1c-.5 0-1-.5-1-1s.5-1 1-1h1.1c.6 0 1 .5 1 1m6.9 0c0 .5-.5 1-1 1h-1.1c-.5 0-1-.5-1-1s.5-1 1-1h1.1c.5 0 1 .5 1 1m6.8 0c0 .5-.4 1-1 1H52c-.5 0-1-.5-1-1s.5-1 1-1h1.1c.6 0 1 .5 1 1m6.9 0c0 .5-.5 1-1 1h-1.1c-.6 0-1-.5-1-1s.4-1 1-1H60c.5 0 1 .5 1 1"/><path d="M32 52C16.3 52 3.6 39.2 3.6 23.6h2C5.6 38.1 17.4 50 32 50s26.4-11.9 26.4-26.4h2C60.4 39.2 47.7 52 32 52z"/><path d="M32 45.1c-11.9 0-21.5-9.6-21.5-21.5h2c0 10.8 8.7 19.5 19.5 19.5s19.5-8.7 19.5-19.5h2c0 11.8-9.6 21.5-21.5 21.5"/><path d="M32 38.6c-8.3 0-15-6.7-15-15h2c0 7.2 5.8 13 13 13s13-5.8 13-13h2c0 8.2-6.7 15-15 15"/><path d="M32 31.6c-4.4 0-8-3.6-8-8h2c0 3.3 2.7 6 6 6s6-2.7 6-6h2c0 4.4-3.6 8-8 8"/><path d="M31 21h2v35h-2z"/><path d="M36 56.5c0 .8-1.8 1.5-4 1.5s-4-.7-4-1.5 1.8-2.5 4-2.5 4 1.6 4 2.5"/><path d="M40 59.5c0 1.9-3.6 2.5-8 2.5s-8-.6-8-2.5 3.6-3.5 8-3.5 8 1.5 8 3.5"/></g><path fill="#e8e8e8" d="M5.1 12H4c-.6 0-1 .4-1 1v7h3.1v-7c0-.6-.4-1-1-1"/><path fill="#b2c1c0" d="m4.6 9-.5 3h1z"/><path fill="#ff8736" d="M4.9 4S3.2 5.8 3.6 8.7c.2 1.5 1.9 1.9 1.9 0 .1-2-1.3-2-.6-4.7"/><path fill="#e8e8e8" d="M12 12h-1.1c-.6 0-1 .4-1 1v7H13v-7c0-.6-.4-1-1-1"/><path fill="#b2c1c0" d="m11.4 9-.5 3h1z"/><path fill="#ff8736" d="M11.8 4s-1.7 1.8-1.3 4.7c.2 1.5 1.9 1.9 1.9 0 0-2-1.3-2-.6-4.7"/><path fill="#e8e8e8" d="M18.9 12h-1.1c-.5 0-1 .4-1 1v7h3.1v-7c0-.6-.5-1-1-1"/><path fill="#b2c1c0" d="m18.3 9-.5 3h1z"/><path fill="#ff8736" d="M18.6 4s-1.7 1.8-1.3 4.7c.2 1.5 1.9 1.9 1.9 0 .1-2-1.2-2-.6-4.7"/><path fill="#e8e8e8" d="M25.7 12h-1.1c-.5 0-1 .4-1 1v7h3.1v-7c0-.6-.4-1-1-1"/><path fill="#b2c1c0" d="m25.1 9-.5 3h1z"/><path fill="#ff8736" d="M25.5 4s-1.7 1.8-1.3 4.7c.2 1.5 1.9 1.9 1.9 0 0-2-1.3-2-.6-4.7"/><path fill="#e8e8e8" d="M32.6 10h-1.1c-.5 0-1 .4-1 1v7h3.1v-7c0-.6-.5-1-1-1"/><path fill="#b2c1c0" d="m32 7-.5 3h1z"/><path fill="#ff8736" d="M32.4 2s-1.7 1.8-1.3 4.7c.2 1.5 1.9 1.9 1.9 0 0-2-1.3-2-.6-4.7"/><path fill="#e8e8e8" d="M39.4 12h-1.1c-.5 0-1 .4-1 1v7h3.1v-7c0-.6-.4-1-1-1"/><path fill="#b2c1c0" d="m38.8 9-.4 3h1z"/><path fill="#ff8736" d="M39.2 4s-1.7 1.8-1.3 4.7c.2 1.5 1.9 1.9 1.9 0 0-2-1.3-2-.6-4.7"/><path fill="#e8e8e8" d="M46.3 12h-1.1c-.5 0-1 .4-1 1v7h3.1v-7c0-.6-.5-1-1-1"/><path fill="#b2c1c0" d="m45.7 9-.5 3h1z"/><path fill="#ff8736" d="M46.1 4s-1.7 1.8-1.3 4.7c.2 1.5 1.9 1.9 1.9 0 0-2-1.3-2-.6-4.7"/><path fill="#e8e8e8" d="M60 12h-1.1c-.5 0-1 .4-1 1v7H61v-7c0-.6-.5-1-1-1"/><path fill="#b2c1c0" d="m59.4 9-.5 3h1z"/><path fill="#ff8736" d="M59.8 4s-1.7 1.8-1.3 4.7c.2 1.5 1.9 1.9 1.9 0 0-2-1.3-2-.6-4.7"/><path fill="#e8e8e8" d="M53.1 12H52c-.5 0-1 .4-1 1v7h3.1v-7c0-.6-.4-1-1-1"/><path fill="#b2c1c0" d="m52.6 9-.5 3h1z"/><path fill="#ff8736" d="M52.9 4s-1.7 1.8-1.3 4.7c.2 1.5 1.9 1.9 1.9 0 .1-2-1.3-2-.6-4.7"/><g fill="#c28200"><path d="M36.2 57.7c.2.2-1.5 1.7-4.2 1.7s-4.4-1.5-4.2-1.7c.1-.2 1.9.7 4.2.7 2.3 0 4-.9 4.2-.7"/><ellipse cx="4.6" cy="22.2" rx="1.5" ry=".2"/><ellipse cx="11.4" cy="22.2" rx="1.5" ry=".2"/><ellipse cx="18.3" cy="22.2" rx="1.5" ry=".2"/><ellipse cx="25.1" cy="22.2" rx="1.5" ry=".2"/><ellipse cx="38.9" cy="22.1" rx="1.5" ry=".2"/><ellipse cx="32" cy="20" rx="1.5" ry=".2"/><ellipse cx="45.8" cy="22.1" rx="1.5" ry=".2"/><ellipse cx="52.6" cy="22.1" rx="1.5" ry=".2"/><ellipse cx="59.4" cy="22.1" rx="1.5" ry=".2"/></g></svg>