<svg xmlns="http://www.w3.org/2000/svg" viewBox="0 0 64 64"><path fill="#c28fef" d="M62 52c0 5.5-4.5 10-10 10H12C6.5 62 2 57.5 2 52V12C2 6.5 6.5 2 12 2h40c5.5 0 10 4.5 10 10v40z"/><path fill="#fff" d="M53.1 24.66s-1.53-1.35-3.78-2.07c-.63-2.07-2.16-3.6-3.96-3.6-.81 0-1.53.27-2.16.72.72.54 1.35 1.35 1.71 2.34H35.1v-9c1.08.36 1.98.9 2.52 1.53.54-.54.81-1.26.81-1.98 0-1.71-1.62-3.15-3.87-3.69-.72-2.07-2.16-3.51-2.16-3.51s-1.44 1.44-2.25 3.51c-2.25.63-3.87 2.07-3.87 3.69 0 .72.27 1.44.81 1.98.63-.63 1.44-1.26 2.52-1.53v9h-9.63c.36-.99.99-1.8 1.71-2.34-.63-.45-1.35-.72-2.16-.72-1.8 0-3.33 1.53-3.96 3.6-2.34.72-3.87 2.07-3.87 2.07s1.53 1.35 3.78 2.07c.63 2.07 2.16 3.6 3.96 3.6.81 0 1.53-.27 2.16-.72a5.131 5.131 0 0 1-1.71-2.34h9.81v24.66c-1.08-.36-1.98-.9-2.52-1.53-.54.54-.81 1.26-.81 1.98 0 1.71 1.62 3.15 3.87 3.69.72 1.89 2.16 3.33 2.16 3.33s1.44-1.44 2.25-3.51c2.25-.54 3.87-1.98 3.87-3.69 0-.72-.27-1.44-.81-1.98-.63.63-1.44 1.17-2.52 1.53V27.18h9.72c-.36.99-.99 1.8-1.71 2.34.63.45 1.35.72 2.16.72 1.8 0 3.33-1.53 3.96-3.6 2.25-.72 3.78-1.98 3.78-1.98"/></svg>