<svg xmlns="http://www.w3.org/2000/svg" viewBox="0 0 64 64"><path d="M45.3 47.9c3.3-1.1 6.6.3 7.4 3.1.8 2.7-1.1 5.8-4.4 6.9s-6.6-.3-7.4-3.1c-.8-2.8 1.1-5.9 4.4-6.9m12 8.9c1.1.9 1.2 2.6.3 3.9-1 1.3-2.6 1.6-3.8.8-1.1-.9-1.2-2.6-.3-3.9s2.7-1.6 3.8-.8M2 22.7c0-2.7 1.3-5.1 3.2-6.6v-.6c0-4.2 3.3-7.7 7.4-7.7h.8c1.6-2.7 4.4-4.6 7.7-4.6 2 0 3.8.6 5.2 1.7C28.2 3.2 30.8 2 33.6 2c4.6 0 8.5 3.1 9.8 7.4 1.5-1.1 3.4-1.7 5.4-1.7 5.3 0 9.6 4.4 9.6 9.8 0 1.6-.4 3.1-1 4.5 2.8 2 4.6 5.3 4.6 9.1 0 6.2-4.9 11.2-10.9 11.2-2.2 0-4.3-.7-6-1.8-.9 4.7-5 8.3-9.9 8.3-3.6 0-6.8-2-8.6-4.9a6.8 6.8 0 0 1-4.8 2c-3.5 0-6.4-2.8-6.7-6.3-.8.3-1.7.5-2.6.5-4.3 0-7.8-3.6-7.8-8 0-.9.2-1.8.4-2.6C3.3 27.8 2 25.4 2 22.7" fill="#4fd1d9"/></svg>