<svg xmlns="http://www.w3.org/2000/svg" viewBox="0 0 64 64"><path fill="#4fd1d9" d="M2.6 18.1C1.3 16.5 2 15.3 4 15.5l10.5 1.2c2 .2 3.7-1.3 3.7-3.4l.2-9.5c0-2.1 1.1-2.4 2.2-.7l7.5 10.7c1.2 1.7 3.1 1.7 4.2-.1l5.1-7.6c1.1-1.7 2.3-1.4 2.7.6l1.2 7.4c.3 2.1 2.1 3 3.9 2.1l13.6-6.6c1.8-.9 2.4-.2 1.4 1.6l-6.9 11.7c-1.1 1.8-.5 4.1 1.3 5.1l6.2 3.6c1.8 1 1.6 2.2-.4 2.5l-10 2c-2 .4-3.9 2.5-3.2 4.5C49.3 46.7 61.5 62 61.5 62s-18.4-9.4-23.4-14.2c-1.5-1.4-3.4-2.1-5-.9l-6.7 5.2c-1.6 1.3-2.9.6-2.8-1.5l.2-6.5c.1-2.1-1.4-3.1-3.2-2.3L6.1 48.1c-1.9.8-2.4.1-1.3-1.6l7-10.4c1.2-1.7 1.1-4.4-.2-6.1l-9-11.9"/></svg>