<svg xmlns="http://www.w3.org/2000/svg" viewBox="0 0 64 64"><path fill="#acb8bf" d="M11.7 61 7 31.6 13.9 18l1.8-9.3L25 6.2 31.2 2l7 2.8 5.1.8 4.2 5.4 9.5 7.2-1.3 13 1.2 11.5L55.3 61z"/><path fill="#dae3ea" d="M19.2 41v20h27V31.6l-27 9.4"/><path fill="#62727a" d="m19.2 43.4 4.1 6.1 10-.3s6.5-2 9.7-6.7c5-7.5 4.4-18.8 4.4-18.8L19.2 43.4"/><g fill="#dae3ea"><path d="M15.7 22s-.5-7.2 6.1-12.2c4.8-3.5 10.5-4.2 14.5-3.2 8.8 2 10.8 13.3 10.8 13.3-3.9 1.2-15.4-5.5-15.4-5.5l-2.3 10.9-7.1.1.1-2.8"/><path d="M15.7 22s-1.2 8.5-.7 11.2c.4 2.7 4.2 10.2 4.2 10.2s7.6-.9 10.1-.6c1.1.1 3.1 1.5 4.2 1.3 4.3-.8 10.1-7.9 11.9-11.5 3.1-6.3 1.7-12.8 1.7-12.8l-22-1.7-9.4 3.9"/></g><path fill="#62727a" d="m22.4 22.6 1.3-7.7s-7.4-.2-8 7l6.7.7"/><path fill="#acb8bf" d="m31.7 14.3-2.3 10.9s2 2.3 2.7 5.1L34 19.4l-2.3-5.1"/><g fill="#62727a"><path d="M31.7 14.3c2.1 3.6 1.9 7.6 1.9 7.6 2.7-.7 12 .5 13.5-2.1-6.7-1.4-8.9-6.8-15.4-5.5m-2.3 11-7.1.1s.9 3.8.2 4.8c0 0 5.6-.6 9.7.3-.1 0-.5-3.5-2.8-5.2m-8.5 9s.5-3 1.4-3.4c.6-.2 2.5 1 2.5 1s2.6-1.5 3.6-1.4c1.9.2 6.2 4.1 6.2 4.1S30.1 33 28.5 33c-.8 0-3.2.9-3.2.9s-2-.5-2.7-.5c-.5.3-1.7.9-1.7.9"/><path d="M21.1 38s-.3-2.2.3-2.6c.7-.5 2.8.3 3.7.2 1.3-.1 3.7-1.3 5-1.1 1.3.2 4.6 2.4 4.6 2.4s-3.7 0-5.9 1.1c-4.1 2-7.7 0-7.7 0"/></g><g fill="#83bf4f"><path d="M2 56h60v6H2z"/><path d="M51.5 50.2h.5v7.5h-.5z"/></g><path fill="#c94747" d="M50.1 45.8v3.3c0 .6.5 1.1 1.1 1.1h1.1V48c0-1.6-2.2-2.2-2.2-2.2"/><path fill="#ed4c5c" d="M53.4 45.8v3.3c0 .6-.5 1.1-1.1 1.1h-1.1V48c0-1.6 2.2-2.2 2.2-2.2"/><path fill="#83bf4f" d="M3.7 49.3h.5v7.5h-.5z"/><path fill="#c94747" d="M2.3 44.9v3.3c0 .6.5 1.1 1.1 1.1h1.1v-2.2c0-1.6-2.2-2.2-2.2-2.2"/><path fill="#ed4c5c" d="M5.6 44.9v3.3c0 .6-.5 1.1-1.1 1.1H3.4v-2.2c0-1.6 2.2-2.2 2.2-2.2"/><path fill="#83bf4f" d="M58.8 52.7h.5v7.5h-.5z"/><path fill="#c94747" d="M57.5 48.3v3.3c0 .6.5 1.1 1.1 1.1h1.1v-2.2c0-1.6-2.2-2.2-2.2-2.2"/><path fill="#ed4c5c" d="M60.8 48.3v3.3c0 .6-.5 1.1-1.1 1.1h-1.1v-2.2c0-1.6 2.2-2.2 2.2-2.2"/><path fill="#83bf4f" d="M19.4 52.7h.5v7.5h-.5z"/><path fill="#c94747" d="M18 48.3v3.3c0 .6.5 1.1 1.1 1.1h1.1v-2.2c0-1.6-2.2-2.2-2.2-2.2"/><path fill="#ed4c5c" d="M21.3 48.3v3.3c0 .6-.5 1.1-1.1 1.1h-1.1v-2.2c0-1.6 2.2-2.2 2.2-2.2"/><path fill="#f2b200" d="M41.6 45.2v3.3c0 .6.5 1.1 1.1 1.1h1.1v-2.2c0-1.6-2.2-2.2-2.2-2.2"/><path fill="#ffce31" d="M44.9 45.2v3.3c0 .6-.5 1.1-1.1 1.1h-1.1v-2.2c0-1.6 2.2-2.2 2.2-2.2"/><path fill="#83bf4f" d="M43 49.6h.5v9.3H43z"/><path fill="#f2b200" d="M13.7 46.2v3.3c0 .6.5 1.1 1.1 1.1h1.1v-2.2c0-1.6-2.2-2.2-2.2-2.2"/><path fill="#ffce31" d="M17 46.2v3.3c0 .6-.5 1.1-1.1 1.1h-1.1v-2.2c0-1.6 2.2-2.2 2.2-2.2"/><path fill="#83bf4f" d="M15.1 50.6h.5v9.3h-.5z"/><path fill="#f2b200" d="M30.4 45.9v3.3c0 .6.5 1.1 1.1 1.1h1.1v-2.2c-.1-1.6-2.2-2.2-2.2-2.2"/><path fill="#ffce31" d="M33.6 45.9v3.3c0 .6-.5 1.1-1.1 1.1h-1.1v-2.2c0-1.6 2.2-2.2 2.2-2.2"/><path fill="#83bf4f" d="M31.7 50.3h.5v9.3h-.5z"/></svg>