<svg xmlns="http://www.w3.org/2000/svg" viewBox="0 0 64 64"><path fill="#42ade2" d="M0 0h64v64H0z"/><path fill="#464d51" d="M58 41.5 37.5 33l-25.6 4.4L0 44v20h64V44z"/><path fill="#fff" d="M37.2 34.3S34.4 22.1 33.8 22c-.2 0-.7.1-1.2.3-1 .4-1.1.1-2.1-.1-.8-.2-1.4.3-1.8.6-1.9 1.2-4.7 4.8-6.3 6.3-2.4 2.3-10.5 8.3-10.5 8.3s-1.6 1.5-3.3 4.6c0 0 3.3-2.2 4.7-2.3.8 0 .2 2.3.2 2.3l4.9-3.3-3 3.3s3.6-1.4 6-2.8c1.4-.8 3.6-3.8 3.9-3.2.5 1-1.9 3.8-1.9 3.8l1.2-.4-1.2 2.3 3.4-3.1-2 3.4s2.5-3.1 3.1-3.5c4.1-2.9-1.9 4.2-1.9 4.2s6.8-3.6 9.2-3.9c3.1-.5 6.5 2.7 6.5 2.7l-4.5-7.2"/><path d="M59 43.6c-.9-1.1-1-2.1-1-2.1s-10.9-6.9-14.1-9.7c-2.3-2-6.4-6.6-8.5-8.8-.4-.4-1.3-1.2-1.8-1.1-1.3.4-2 3.8-3.1 4.5 0 0 .7.8.3 2.5 0 0 1.3-1.5 1.3-.3 0 2.3 1.7 2.1 2 3.2 1.3 4.2 3.3 7.1 4.3 7.5 1.9.8 3.4 2.2 3.4 2.2l-.8-2.1c2.5-.1 3.9 1.3 3.9 1.3s.1-2 1-1.7c2.4.7 6 3.9 6 3.9s-.1-1.3.8-1.4c2.1-.3 6.3 2.1 6.3 2.1m-40.5-7.1 3.8-5.7-1.2 3.4zm5.1-2.6v-2.2l3.8-3.5z" fill="#c5ccd6"/><path d="M60.4 14.4v-.5c0-1.1-1.1-2-2.6-2.1-.9-1.2-2.7-2.1-4.7-2.1-2.6 0-4.7 1.3-5.2 3h-.5c-1.4 0-2.6.7-2.9 1.7h-.1c-1.1 0-2 .6-2 1.4 0 .8.9 1.4 2 1.4.4 0 .8-.1 1.1-.3.4.3.9.5 1.5.5.2 0 .4 0 .6-.1.3.5 1 .8 1.8.8.3 0 .6-.1.9-.2.9.5 2 .7 3.1.7s2.1-.2 3-.7c.3.1.5.1.8.1 1.1 0 2-.4 2.6-1.1.2.1.5.1.7.1 1.1 0 2-.6 2-1.4-.1-.6-1-1.2-2.1-1.2M6.9 26s.1 0 0 0v-.3c0-.6.6-1 1.3-1.1.5-.6 1.4-1 2.4-1 1.3 0 2.4.7 2.7 1.5h.2c.7 0 1.3.4 1.5.9.6 0 1 .3 1 .7s-.4.7-1 .7c-.2 0-.4 0-.6-.1-.2.1-.4.2-.7.2h-.3c-.2.2-.5.4-.9.4-.2 0-.3 0-.4-.1-.4.2-1 .4-1.6.4-.6 0-1.1-.1-1.5-.3h-.4c-.6 0-1-.2-1.3-.5-.1 0-.2.1-.4.1-.6 0-1-.3-1-.7 0-.5.5-.8 1-.8M38.4 9.8v-.3c0-.6.6-1 1.3-1.1.5-.6 1.4-1 2.4-1 1.3 0 2.4.7 2.7 1.5h.2c.7 0 1.3.4 1.5.9.6 0 1 .3 1 .7s-.4.7-1 .7c-.2 0-.4 0-.6-.1-.2.1-.4.2-.7.2h-.3c-.2.2-.5.4-.9.4-.2 0-.3 0-.4-.1-.4.2-1 .4-1.6.4-.6 0-1.1-.1-1.5-.3h-.4c-.6 0-1-.2-1.3-.5-.1 0-.2.1-.4.1-.5 0-1-.3-1-.7 0-.5.4-.8 1-.8m-28.2 9H10c-.3-.7-1-1.2-1.8-1.5.1-.2.2-.5.2-.7 0-1.2-1.2-2.3-2.9-2.6-1.1-1.4-3.1-2.4-5.4-2.6v11.4c1.4 0 2.8-.4 3.9-.9.7.4 1.5.6 2.4.6.8 0 1.6-.2 2.2-.5.5.3 1.1.5 1.7.5 1.4 0 2.6-.8 2.6-1.8-.1-1.1-1.3-1.9-2.7-1.9" fill="#fff"/></svg>