<svg xmlns="http://www.w3.org/2000/svg" viewBox="0 0 64 64"><g fill="#428bc1"><path d="M26 23.5h16v13.9H26z"/><path d="M23.3 27s-6.9.2-5.5 11.2l4 12.9 7.6-16.7-6.1-7.4"/></g><path d="M12.7 18.6 19.8 34s3.1-.7 3.1-5.2L16 16.7l-3.3 1.9m27.7 16c-2.5-2.2-10.3-2.2-12.7 0-7.3 6.7-7.5 27.4-7.5 27.4h27.7s-.2-20.7-7.5-27.4" fill="#42ade2"/><path fill="#428bc1" d="m42 20.2-.9-.7.5-6.6-3.4 5.4-2-.7L34 9.9l-2.1 7.7-2 .7-3.4-5.4.5 6.6-1 .7-6.9-1.2 7.4 5.5h15.1L49 19z"/><path fill="#42ade2" d="M41.2 24c0 5.7-5.3 8.4-7.2 8.4-2 0-7.2-2.7-7.2-8.4 0 0 14.4-4.3 14.4 0"/><path fill="#428bc1" d="m44.1 54.9-8.1-8 10.9-10.8 8.1 8z"/><g fill="#42ade2"><path d="M53 49.3c-.4.4-1 .4-1.4 0l-2-2c-.4-.4-.4-1 0-1.4.4-.4 1-.4 1.4 0l2 2c.4.4.4 1 0 1.4"/><path d="M51.9 50.9c-.4.4-1.1.3-1.5-.1L48 48.5c-.4-.4-.5-1.1-.1-1.5.4-.4 1.1-.3 1.5.1l2.4 2.3c.5.4.5 1.1.1 1.5"/><path d="M50.6 52.2c-.4.4-1.1.3-1.5-.1l-2.4-2.3c-.4-.4-.5-1.1-.1-1.5.4-.4 1.1-.3 1.5.1l2.4 2.3c.4.4.5 1.1.1 1.5"/><path d="M49 52.8c-.3.3-.9.3-1.2 0L46 51.1c-.3-.3-.3-.9 0-1.2.3-.3.9-.3 1.2 0l1.8 1.7c.3.3.3.8 0 1.2"/></g><g fill="#428bc1"><path d="M38.6 38.3S31.4 49 35 62h-5.5s-1.7-14.9 9.1-23.7"/><path d="M38 50.4s-3.5 5.2-1.8 11.6h-2.7c.1 0-.8-7.2 4.5-11.6m-5.9-14.8s-8 11.9-4 26.4H22c-.1 0-2-16.5 10.1-26.4"/></g><path fill="#42ade2" d="m23.8 27.7 2.9 3.5s1.6 5.6-2.9 10.2c0 0 2.1-7.2 0-13.7"/><path d="M35.9 28.6c0 .2-.8.6-1.8.6s-1.8-.4-1.8-.6c-.1-.2 3.6-.2 3.6 0m-.7 1.8c0 .2-.5.4-1.2.4s-1.2-.3-1.2-.4c0-.1 2.4-.1 2.4 0m4.3-5.3c0 .6-.8 1.4-1.8 1.4s-1.8-.9-1.8-1.4c0-.3 3.6-.3 3.6 0m-7.4 0c0 .6-.8 1.4-1.8 1.4s-1.8-.9-1.8-1.4c.1-.3 3.6-.3 3.6 0" fill="#428bc1"/><path fill="#ff9d27" d="M11.7 11.8s-2.1-1.4-1.9-4c.3-3 2.7-4.1 2.7-4.1s-.6 2.5 0 2.9c.4.2 1.8 0 1.9-2.3.1-.8-.9-2.3-.9-2.3s2.3.8 3.1 2.7c.6 1.5 0 4 0 4s1.1-.3 1.6-1.7c0 0 .6 3.3-2 4.7h-4.5z"/><path fill="#428bc1" d="M16 22c0 1-.8 1.9-1.8 1.9h-.5c-1 0-1.8-.8-1.8-1.9v-8.1H16V22"/><g fill="#42ade2"><path d="M9.7 15.9c0 .5.4 1 1 1h2.9c.5 0 1-.4 1-1 0-.5-.4-1-1-1h-2.9c-.5 0-1 .4-1 1"/><path d="M9.4 17.8c0 .5.5 1 1.1 1h3.3c.6 0 1.1-.4 1.1-1 0-.5-.5-1-1.1-1h-3.3c-.6-.1-1.1.4-1.1 1"/><path d="M9.4 19.6c0 .5.5 1 1.1 1h3.3c.6 0 1.1-.4 1.1-1 0-.5-.5-1-1.1-1h-3.3c-.6 0-1.1.4-1.1 1"/><path d="M10.1 21.1c0 .5.4.8.8.8h2.5c.5 0 .8-.4.8-.8 0-.5-.4-.8-.8-.8h-2.5c-.4 0-.8.3-.8.8"/><circle cx="16" cy="16" r="1.2"/><path d="M18.2 12v.9h-.9V12h-.9v.9h-1V12h-.9v.9h-.9V12h-.9v.9h-.9V12h-1v.9h-.9V12H9v2.4h10.1V12z"/></g></svg>