<svg xmlns="http://www.w3.org/2000/svg" viewBox="0 0 64 64"><path fill="#ed4c5c" d="m61.3 54.7-51 9.3-2.4-43.3L64 18.3z"/><path fill="#c94747" d="M10.3 64 2.6 49.4 0 15.5l7.9 5.2z"/><path fill="#881a0e" d="M64 18.3 7.9 20.7 0 15.5l42.1-1.1z"/><path fill="#dfe9ef" d="m44.2 0-34 .6c2.3 10 .1 18.2.1 18.2l34-1.6c0 .1 2.2-7.1-.1-17.2"/><path d="M40.8 6.8c-5.8.1-11.5.2-17.3.4V5.8c5.8-.2 11.5-.3 17.3-.4v1.4M18.5 8.7c-.1.2-.3.2-.5.1-.8-.7-1.7-1.3-2.5-2-.2-.1-.2-.3 0-.5.1-.1.2-.2.3-.2.2-.1.4-.1.6 0 .5.3.9.7 1.4 1 .2.1.4.1.5-.1.6-.9 1.1-1.8 1.6-2.7.1-.2.3-.2.6-.2.1 0 .3.1.4.1.1.2.2.4.1.6-.8 1.3-1.6 2.6-2.5 3.9" fill="#83bf4f"/><path d="M40.2 15.1c-5.8.1-11.6.3-17.4.4.1-.5.1-.9.2-1.4 5.8-.1 11.6-.2 17.4-.4-.1.5-.2.9-.2 1.4m-20.1 2.1c-1.9 0-3.8.1-5.7.1.2-1.6.4-3.1.6-4.7 1.9 0 3.8-.1 5.7-.1-.2 1.5-.4 3.1-.6 4.7" fill="#93a2aa"/></svg>