<svg xmlns="http://www.w3.org/2000/svg" viewBox="0 0 64 64"><path fill="#ffdd67" d="M62 32c0 16.6-13.4 30-30 30S2 48.6 2 32 15.4 2 32 2s30 13.4 30 30z"/><path fill="#ff717f" d="M42 47.9c-5-5-2.8-2.8 2.5-8.1s3.1-7.6 8.1-2.5c5 5 5.2 9.9 2.2 12.9-2.9 2.9-7.8 2.7-12.8-2.3"/><path fill="#e2596c" d="m45.6 38.7 6.8 9-8.9-6.8z"/><path d="M28.5 24.9c-1.9-5.1-4.7-7.7-7.5-7.7s-5.6 2.6-7.5 7.7c-.2.5.8 1.4 1.3.9 1.8-1.9 4-2.7 6.2-2.7s4.4.8 6.2 2.7c.6.5 1.5-.4 1.3-.9m21.9 0c-1.9-5.1-4.7-7.7-7.5-7.7s-5.6 2.6-7.5 7.7c-.2.5.8 1.4 1.3.9 1.8-1.9 4-2.7 6.2-2.7s4.4.8 6.2 2.7c.5.5 1.5-.4 1.3-.9M48.1 33c-4.3 6.1-9.5 7.6-16.1 7.6S20.2 39.1 15.9 33c-.6-.8-2.2-.3-1.8.9 2.3 8 10 12.7 18 12.7s15.7-4.7 18-12.7c.2-1.2-1.4-1.7-2-.9" fill="#664e27"/></svg>