<svg xmlns="http://www.w3.org/2000/svg" xmlns:xlink="http://www.w3.org/1999/xlink" viewBox="0 0 64 64"><path id="a" fill="#ffdd67" d="M62 32c0 16.6-13.4 30-30 30S2 48.6 2 32 15.4 2 32 2s30 13.4 30 30z"/><path id="b" fill="#664e27" d="M49 38c0-.8-.5-1.8-1.8-2.1-3.5-.7-8.6-1.3-15.2-1.3s-11.7.7-15.2 1.3c-1.3.3-1.8 1.3-1.8 2.1 0 7.3 5.6 14.6 17 14.6S49 45.3 49 38"/><path id="c" fill="#664e27" d="M28.5 26.9c-1.9-5.1-4.7-7.7-7.5-7.7s-5.6 2.6-7.5 7.7c-.2.5.8 1.4 1.3.9 1.8-1.9 4-2.7 6.2-2.7s4.4.8 6.2 2.7c.6.5 1.5-.4 1.3-.9"/><path id="d" fill="#664e27" d="M50.4 26.9c-1.9-5.1-4.7-7.7-7.5-7.7s-5.6 2.6-7.5 7.7c-.2.5.8 1.4 1.3.9 1.8-1.9 4-2.7 6.2-2.7 2.3 0 4.4.8 6.2 2.7.5.5 1.5-.4 1.3-.9"/><path fill="#fff" d="M44.7 38.3c-2.2-.4-6.8-1-12.7-1-5.9 0-10.5.6-12.7 1-1.3.2-1.4.7-1.3 1.5.1.4.1 1 .3 1.6.1.6.3.9 1.3.8 1.9-.2 23-.2 24.9 0 1 .1 1.1-.2 1.3-.8.1-.6.2-1.1.3-1.6 0-.8-.1-1.3-1.4-1.5"/><use xlink:href="#a"/><use xlink:href="#b"/><use xlink:href="#c"/><use xlink:href="#d"/><path fill="#fff" d="M44.7 38.3c-2.2-.4-6.8-1-12.7-1-5.9 0-10.5.6-12.7 1-1.3.2-1.4.7-1.3 1.5.1.4.1 1 .3 1.6.1.6.3.8 1.3.8h24.9c1 0 1.1-.2 1.3-.8.1-.6.2-1.1.3-1.6 0-.8-.1-1.3-1.4-1.5"/></svg>