<svg xmlns="http://www.w3.org/2000/svg" viewBox="0 0 64 64"><circle cx="32" cy="32" r="30" fill="#ffdd67"/><circle fill="#fff" cx="42.8" cy="24.6" r="10"/><g fill="#664e27"><circle cx="42.8" cy="24.6" r="4.5"/><path d="M28 29.1C26.1 25 23.3 23 20.5 23s-5.6 2-7.5 6.1c-.2.4.8 1.2 1.3.8 1.8-1.5 4-2.1 6.2-2.1s4.4.6 6.2 2.1c.5.4 1.5-.4 1.3-.8M47.9 38H16.1c-.7 0-1.1.5-1.1 1 0 7.3 6 15 17 15s17-7.7 17-15c0-.5-.4-1-1.1-1"/></g><path fill="#ff717f" d="M41.2 44H22.8c-.7 0-.8.3-.8.8v4C22 57.6 26.5 62 32 62s10-4.4 10-13.2v-4c0-.5-.1-.8-.8-.8"/><path fill="#e2596c" d="M33.5 44 32 57.8 30.5 44z"/></svg>