<svg xmlns="http://www.w3.org/2000/svg" viewBox="0 0 64 64"><circle cx="32" cy="32" r="30" fill="#ffdd67"/><path d="M53.2 25.7c-3.2-2.7-7.5-3.9-11.7-3.1-.6.1-1.1-2-.4-2.2 4.8-.9 9.8.5 13.5 3.6.6.5-1 2.1-1.4 1.7m-30.7-3.3c-4.2-.7-8.5.4-11.7 3.1-.4.4-2-1.2-1.4-1.7 3.7-3.2 8.7-4.5 13.5-3.6.7.2.2 2.4-.4 2.2" fill="#917524"/><path d="M35.9 32.2c4.2 8 12.7 8 16.9 0 .2-.4-.3-.6-1-1-4.2 3.3-11.1 3-14.9 0-.6.4-1.2.6-1 1m-24.7 0c4.2 8 12.7 8 16.9 0 .2-.4-.3-.6-1-1-4.2 3.3-11.1 3-14.9 0-.7.4-1.2.6-1 1M38 50H26c-1.3 0-1.3-4 0-4h12c1.3 0 1.3 4 0 4" fill="#664e27"/></svg>