<svg xmlns="http://www.w3.org/2000/svg" viewBox="0 0 64 64"><path fill="#ffdd67" d="M62 32c0 16.6-13.4 30-30 30S2 48.6 2 32 15.4 2 32 2s30 13.4 30 30z"/><path d="M48.4 12.9c-4.2.4-8.1 2.6-10.5 6.1-.3.5-2.2-.7-1.8-1.3 2.8-4 7.2-6.6 12.1-7 .7 0 .8 2.2.2 2.2M26.1 19c-2.4-3.5-6.3-5.7-10.5-6.1-.6 0-.5-2.2.2-2.2 4.9.4 9.3 3 12.1 7 .4.6-1.5 1.8-1.8 1.3" fill="#917524"/><path d="M21.2 39.9c7-4.8 14.7-4.8 21.6 0 .8.6 1.6-.4 1-1.3-2.1-3.4-6.4-6.5-11.8-6.5s-9.7 3.1-11.8 6.5c-.6.9.2 1.9 1 1.3M35.9 21c4.2 8 12.7 8 16.9 0 .2-.4-.3-.6-1-1-4.2 3.3-11.1 3-14.9 0-.6.5-1.2.6-1 1m-24.7 0c4.2 8 12.7 8 16.9 0 .2-.4-.3-.6-1-1-4.2 3.3-11.1 3-14.9 0-.7.5-1.2.6-1 1" fill="#664e27"/><path d="M61.7 47.3c-1-2.5-4.3-3.8-7.3-3-1.6.4-2.8 1.3-3.4 2.4-7.8-1.5-15-15.4-15-15.4s.2 11.3 5.9 17.9c-1.2-.4-2.5-.4-3.9-.1-3.1.8-4.7 3.5-3.7 5.9s4.3 3.8 7.3 3c.2-.1.4-.1.6-.2 1.6 3.1 5.9 4.7 10 3.7 4.3-1.1 6.6-4.8 5.2-8.2.2 0 .4-.1.6-.1 3-.7 4.7-3.4 3.7-5.9m-59.4 0c1-2.5 4.3-3.8 7.3-3 1.6.4 2.8 1.3 3.4 2.4 7.8-1.5 15-15.4 15-15.4s-.2 11.3-5.9 17.9c1.2-.4 2.5-.4 3.9-.1 3.1.8 4.7 3.5 3.7 5.9-1 2.5-4.3 3.8-7.3 3-.2-.1-.4-.1-.6-.2-1.6 3.1-5.9 4.7-10 3.7-4.3-1.1-6.6-4.8-5.2-8.2-.2 0-.4-.1-.6-.1-3-.7-4.7-3.4-3.7-5.9" fill="#d8d8d8"/><path d="M59.3 44.8c-.9-2.6-3.9-4.1-6.8-3.2-1.4.4-2.5 1.4-3.2 2.6-7.2-1.6-13.8-16.4-13.8-16.4S35.8 39.9 41 47c-1.1-.4-2.3-.4-3.5-.1-2.8.9-4.3 3.7-3.4 6.3.9 2.6 3.9 4.1 6.8 3.2.2-.1.4-.1.6-.2 1.5 3.3 5.5 5.1 9.2 3.9 3.9-1.2 6.1-5.1 4.8-8.8.2 0 .4-.1.6-.1 2.6-.9 4.2-3.7 3.2-6.4m-54.6 0c.9-2.6 3.9-4.1 6.8-3.2 1.4.4 2.5 1.4 3.1 2.6 7.2-1.6 13.8-16.4 13.8-16.4S28.2 39.9 23 47c1.1-.4 2.3-.4 3.5-.1 2.8.9 4.4 3.7 3.4 6.3-.9 2.6-3.9 4.1-6.8 3.2-.2-.1-.4-.1-.6-.2-1.5 3.3-5.5 5.1-9.2 3.9C9.5 59 7.4 55 8.7 51.3c-.2 0-.4-.1-.6-.1-2.8-.9-4.4-3.7-3.4-6.4" fill="#fff"/></svg>