<svg xmlns="http://www.w3.org/2000/svg" viewBox="0 0 64 64"><circle cx="32" cy="32" r="30" fill="#ffdd67"/><g fill="#ff717f"><ellipse cx="52.5" cy="31.3" opacity=".8" rx="6.5" ry="9" transform="rotate(-65.001 52.5 31.313)"/><ellipse cx="11.5" cy="31.3" opacity=".8" rx="9" ry="6.5" transform="rotate(-25.001 11.5 31.311)"/></g><path d="M19.4 42.2c8.1-5.7 17.1-5.6 25.2 0 1 .7 1.8-.5 1.2-1.6-2.5-4-7.4-7.7-13.8-7.7s-11.3 3.6-13.8 7.7c-.6 1.1.2 2.3 1.2 1.6m32.3-27.1c.6.3.3 1-.2 1.1-2.7.4-5.5.9-8.3 2.4 4 .7 7.2 2.7 9 4.8.4.5-.1 1.1-.5 1-4.8-1.7-9.7-2.7-15.8-2-.5 0-.9-.2-.8-.7 1.6-7.3 10.9-10 16.6-6.6m-39.4 0c-.6.3-.3 1 .2 1.1 2.7.4 5.5.9 8.3 2.4-4 .7-7.2 2.7-9 4.8-.4.5.1 1.1.5 1 4.8-1.7 9.7-2.7 15.8-2 .5 0 .9-.2.8-.7-1.6-7.3-10.9-10-16.6-6.6" fill="#664e27"/></svg>