<svg xmlns="http://www.w3.org/2000/svg" viewBox="0 0 64 64"><circle cx="32" cy="32" r="30" fill="#ef5350"/><path fill="#302424" d="M41 49.7c-5.8-4.8-12.2-4.8-18 0-.7.6-1.3-.4-.8-1.3 1.8-3.4 5.3-6.5 9.8-6.5s8.1 3.1 9.8 6.5c.5.8-.1 1.8-.8 1.3"/><path fill="#fff" d="M10.2 24.9c-1.5 4.7.6 10 5.3 12.1 4.6 2.2 10 .5 12.7-3.7l-6.9-7.7-11.1-.7"/><g fill="#302424"><path d="M14.2 25.8c-1.4 2.9-.1 6.4 2.8 7.7 2.9 1.4 6.4.1 7.7-2.8 1-1.9-9.6-6.8-10.5-4.9"/><path d="M10.2 24.9c1.6-1 3.5-1.5 5.4-1.5 1.9 0 3.8.5 5.6 1.3 1.7.8 3.3 2 4.6 3.4 1.2 1.5 2.2 3.2 2.4 5.1-1.3-1.3-2.6-2.4-4-3.4S21.4 28 20 27.4c-1.5-.7-3-1.2-4.6-1.7-1.8-.3-3.4-.6-5.2-.8"/></g><path fill="#fff" d="M53.8 24.9c1.5 4.7-.6 10-5.3 12.1-4.6 2.2-10 .5-12.7-3.7l6.9-7.7 11.1-.7"/><g fill="#302424"><path d="M49.8 25.8c1.4 2.9.1 6.4-2.8 7.7-2.9 1.4-6.4.1-7.7-2.8-1-1.9 9.6-6.8 10.5-4.9"/><path d="M53.8 24.9c-1.6-1-3.5-1.5-5.4-1.5-1.9 0-3.8.5-5.6 1.3-1.7.8-3.3 2-4.6 3.4-1.2 1.5-2.2 3.2-2.4 5.1 1.3-1.3 2.6-2.4 4-3.4s2.8-1.8 4.2-2.4c1.5-.7 3-1.2 4.6-1.7 1.8-.3 3.4-.6 5.2-.8"/></g></svg>