<svg xmlns="http://www.w3.org/2000/svg" viewBox="0 0 64 64"><circle cx="32" cy="32" r="30" fill="#ffdd67"/><g fill="#ff717f"><circle cx="52.8" cy="37.1" r="8"/><circle cx="11.2" cy="37.1" r="8"/></g><path d="M54.6 20.6c-2.7-3.3-6.7-5.1-11-5.1-.6 0-.7-2.2 0-2.2 4.9 0 9.5 2.1 12.7 5.9.5.6-1.3 1.9-1.7 1.4m-34.3-5.2c-4.2 0-8.3 1.9-11 5.1-.4.5-2.1-.8-1.7-1.4 3.1-3.8 7.8-5.9 12.7-5.9.7 0 .6 2.2 0 2.2" fill="#917524"/><circle cx="32" cy="49.5" r="4.5" fill="#664e27"/><path fill="#fff" d="M29.5 29.1c0 5-4 9-9 9s-9-4-9-9 4-9 9-9 9 4.1 9 9"/><circle cx="20.5" cy="29.1" r="4.5" fill="#664e27"/><path fill="#fff" d="M52.5 29.1c0 5-4 9-9 9s-9-4-9-9 4-9 9-9 9 4.1 9 9"/><circle cx="43.5" cy="29.1" r="4.5" fill="#664e27"/></svg>