<svg xmlns="http://www.w3.org/2000/svg" viewBox="0 0 64 64"><circle cx="32" cy="32" r="30" fill="#ffdd67"/><g fill="#664e27"><path d="M28.6 19.8 16.5 32c-.8.8-3.6-2-2.8-2.8L25.9 17c.7-.7 3.5 2.1 2.7 2.8"/><path d="M25.8 32 13.7 19.8c-.8-.8 2-3.6 2.8-2.8l12.2 12.2c.7.8-2.1 3.6-2.9 2.8m24.5-12.2L38.2 32c-.8.8-3.6-2-2.8-2.8L47.6 17c.7-.7 3.5 2.1 2.7 2.8"/><path d="M47.5 32 35.4 19.8c-.8-.8 2-3.6 2.8-2.8l12.2 12.2c.7.8-2.1 3.6-2.9 2.8"/><circle cx="32" cy="47" r="9"/></g><path fill="#fff" d="M26 44c1.2-2.4 3.4-4 6-4s4.8 1.6 6 4H26"/></svg>