<svg xmlns="http://www.w3.org/2000/svg" viewBox="0 0 64 64"><path fill="#dadee0" d="M60.9 2c1.8 13.4 1.5 24.2-1.2 31.1L34.9 14.7C39.8 9.6 49.8 3.5 60.9 2z"/><path fill="#f7a4a4" d="M57.7 32.2 47.5 18.9s1.9-7.3 11.6-12.4c2.9 11.6-1.4 25.7-1.4 25.7"/><path fill="#f78d8d" d="M53.8 29.2 47.5 21s2.6-5 8.6-8.2c-3.5 7.5-2.3 16.4-2.3 16.4"/><path fill="#dadee0" d="M3.1 2C1.3 15.4 1.6 26.2 4.3 33.1l24.8-18.5C24.2 9.6 14.2 3.5 3.1 2z"/><path fill="#f7a4a4" d="m6.3 32.2 10.3-13.3S14.7 11.6 5 6.5C2 18.1 6.3 32.2 6.3 32.2"/><path fill="#f78d8d" d="m10.2 29.2 6.4-8.2S14 16 8 12.8c3.4 7.5 2.2 16.4 2.2 16.4"/><path fill="#dadee0" d="M58.2 50.8c.8-.9 1.4-1.6 1.7-2.2 1.6-2.6 2.1-5.3 2.1-5.3l-2 .4s2.3-2.5 1.7-7.8l-2 2.1s1.9-5.4.3-10.4l-2.2 1.6s.7-2 .1-3.4l-.9.7s1.7-4.7.2-6.6c-.9 2.8-1.9 2.8-1.9 2.8s1.2-2.1.3-3c-1 1.6-1.8.6-1.8.1.1-.6-.2-1.5 2.7-2-2.3-1.4-5.1-.4-5.1-.4s.1-1.5 2.1-1.4c-1.9-1.6-4.5-.6-4.5-.6-4.1-3.1-9.6-4.9-17.1-4.9-7.4 0-12.9 1.8-17.1 4.9 0 0-2.6-.9-4.5.6 2-.1 2.1 1.4 2.1 1.4s-2.7-1-5.1.4c2.9.4 2.7 1.3 2.7 2 0 .5-.8 1.5-1.8-.1-1 .9.3 3 .3 3s-1 0-1.9-2.8c-1.5 2 .2 6.6.2 6.6l-.9-.7c-.6 1.4.1 3.4.1 3.4l-2-1.6c-1.7 5 .3 10.4.3 10.4l-1.9-2.1C1.7 41.2 4 43.7 4 43.7l-2-.4s.5 2.7 2.1 5.3c.2.5.8 1.3 1.7 2.2l.1.1C10 55 20.1 62 32 62c11.9 0 22-7 26.1-11.1 0-.1.1-.1.1-.1"/><path d="M37.7 10.8c-1.8-.3-3.7-.4-5.7-.4s-3.9.1-5.7.4c.7 3.9 2.8 6.6 5.7 11.6 3-5.1 5-7.8 5.7-11.6m9.1 3c-1.9-1.1-4.1-1.9-6.5-2.5.6 2.3 1.9 3.9 3.6 6.9 1.3-2.1 2.2-2.7 2.9-4.4m-23.1-2.5c-2.5.6-4.6 1.4-6.5 2.5.7 1.8 1.7 2.3 2.9 4.4 1.8-3.1 3-4.7 3.6-6.9" fill="#94989b"/><path d="M60.9 26c-.4-2.1-1.8-3.9-4-4.4-2.4-.6-4.6.3-6.7 2.2-1.2-2.9-3-5.1-5.8-6.2-2.9-1.1-5.8-.4-7.6 1.6-1.9 2.1-2.6 5.3-.6 9.6 1.9 4 10.2 12 10.5 12.2.3-.2 9.6-5.4 11.9-7.9 2.2-2.5 2.7-5 2.3-7.1m-33.7-6.8c-1.8-2-4.6-2.8-7.6-1.6-2.9 1.1-4.7 3.3-5.8 6.2-2.1-1.9-4.3-2.7-6.7-2.2-2.2.5-3.6 2.3-4 4.4-.4 2.1.1 4.6 2.3 7.1C7.7 35.6 17 40.8 17.3 41c.2-.2 8.6-8.3 10.5-12.2 2-4.3 1.3-7.5-.6-9.6" fill="#f46767"/><path d="M36 38c-.8-.9-3.3-1-4-1-.7 0-3.2.1-4 1-.6.7-.1 2.3 1.4 3.8 1 .9 1.9 1.2 2.6 1.2.7 0 1.7-.3 2.6-1.2 1.6-1.4 2-3.1 1.4-3.8m9 8.7c0-.6-.4-1.4-1.4-1.6C41 44.5 37 44 32 44s-9 .5-11.6 1c-1 .2-1.4 1-1.4 1.6C19 52.3 23.3 58 32 58s13-5.7 13-11.3" fill="#4c5359"/><path fill="#ff717f" d="M25.5 54.6c1.9.9 4 1.4 6.5 1.4s4.6-.5 6.5-1.4c-1.8-1-4-1.6-6.5-1.6s-4.7.6-6.5 1.6"/></svg>