<svg xmlns="http://www.w3.org/2000/svg" viewBox="0 0 64 64"><circle cx="32" cy="32" r="30" fill="#ffdd67"/><circle cx="19" cy="29" r="11" fill="#fff"/><path fill="#664e27" d="M24 29c0 2.8-2.2 5-5 5s-5-2.2-5-5 2.2-5 5-5 5 2.2 5 5"/><path fill="#fff" d="M56 29c0 6.1-4.9 11-11 11s-11-4.9-11-11 4.9-11 11-11 11 4.9 11 11"/><path fill="#664e27" d="M50 29c0 2.8-2.2 5-5 5s-5-2.2-5-5 2.2-5 5-5 5 2.2 5 5"/><path d="M50.2 15.8c-3.2-2.7-7.5-3.9-11.7-3.1-.6.1-1.1-2-.4-2.2 4.8-.9 9.8.5 13.5 3.6.6.5-1 2.1-1.4 1.7m-24.7-3.3c-4.2-.7-8.5.4-11.7 3.1-.4.4-2-1.2-1.4-1.7 3.7-3.2 8.7-4.5 13.5-3.6.7.2.2 2.3-.4 2.2" fill="#917524"/><circle cx="32" cy="49" r="9" fill="#664e27"/><path fill="#fff" d="M26 46c1.2-2.4 3.4-4 6-4s4.8 1.6 6 4H26"/></svg>