<svg xmlns="http://www.w3.org/2000/svg" viewBox="0 0 64 64"><path fill="#dadee0" d="M60.9 2c1.8 13.4 1.5 24.2-1.2 31.1L34.9 14.7C39.8 9.6 49.8 3.5 60.9 2z"/><path fill="#f7a4a4" d="M57.7 32.2 47.5 18.9s1.9-7.3 11.6-12.4c2.9 11.6-1.4 25.7-1.4 25.7"/><path fill="#f78d8d" d="M53.8 29.2 47.5 21s2.6-5 8.6-8.2c-3.5 7.5-2.3 16.4-2.3 16.4"/><path fill="#dadee0" d="M3.1 2C1.3 15.4 1.6 26.2 4.3 33.1l24.8-18.5C24.2 9.6 14.2 3.5 3.1 2z"/><path fill="#f7a4a4" d="m6.3 32.2 10.3-13.3S14.7 11.6 5 6.5C2 18.1 6.3 32.2 6.3 32.2"/><path fill="#f78d8d" d="m10.2 29.2 6.4-8.2S14 16 8 12.8c3.4 7.5 2.2 16.4 2.2 16.4"/><path fill="#dadee0" d="m59 27.6-1.2 1.6s.7-2 .1-3.4l-.9.7s1.7-4.7.2-6.6c-.9 2.8-1.9 2.8-1.9 2.8s1.2-2.1.3-3c-1 1.6-1.8.6-1.8.1.1-.6-.2-1.5 2.7-2-2.3-1.4-5.1-.4-5.1-.4s.1-1.5 2.1-1.4c-1.9-1.6-4.5-.6-4.5-.6-4.1-3.1-9.6-4.9-17.1-4.9-7.4 0-12.9 1.8-17.1 4.9 0 0-2.6-.9-4.5.6 2-.1 2.1 1.4 2.1 1.4s-2.7-1-5.1.4c2.9.4 2.7 1.3 2.7 2 0 .5-.8 1.5-1.8-.1-1 .9.3 3 .3 3s-1 0-1.9-2.8c-1.5 2 .2 6.6.2 6.6l-.9-.7c-.6 1.4.1 3.4.1 3.4l-1-1.6C.6 40.6 17.5 62 32 62s31.4-21.4 27-34.4"/><path d="M37.7 10.8c-1.8-.3-3.7-.4-5.7-.4s-3.9.1-5.7.4c.7 3.9 2.8 6.6 5.7 11.6 3-5.1 5-7.8 5.7-11.6m9.1 3c-1.9-1.1-4.1-1.9-6.5-2.5.6 2.3 1.9 3.9 3.6 6.9 1.3-2.1 2.2-2.7 2.9-4.4m-23.1-2.5c-2.5.6-4.6 1.4-6.5 2.5.7 1.8 1.7 2.3 2.9 4.4 1.8-3.1 3-4.7 3.6-6.9" fill="#94989b"/><path d="M50.3 37.4C62.9 31 54 48.1 57.8 56.5c1.1 2.5-4 5.5-6.4 5.5-9.5 0-11.9-19.1-1.1-24.6m-36.6 0C1.1 31 10 48.1 6.2 56.5c-1.1 2.5 4 5.5 6.4 5.5 9.5 0 11.9-19.1 1.1-24.6" fill="#b2b6b8"/><path fill="#4c5359" d="M36 30.6c-.8-.9-3.3-1-4-1-.7 0-3.2.1-4 1-.6.7-.1 2.3 1.4 3.8 1 .9 1.9 1.2 2.6 1.2.7 0 1.7-.3 2.6-1.2 1.6-1.5 2-3.1 1.4-3.8"/><path fill="#fff" d="M39.4 27.3s.4-5.2 4.1-6.8c4.1-1.9 6.9 2.7 7.6 5.3 1.1 3.9-.3 8.1-.7 9-.3.6-3.3 3.7-10.1.8 0 0-1.7-4.2-.9-8.3"/><path fill="#b2b6b8" d="M39.4 27.3c.1-1.8.6-3.7 1.5-5.2.5-.7 1.1-1.4 1.8-1.9.3-.2.7-.4 1.1-.6.4-.2.8-.2 1.2-.3 1.6-.2 3.3.6 4.4 1.9 1.2 1.3 2.1 3 2.5 5 .4 2 .3 4-.1 5.8-.2.9-.5 1.8-.8 2.7l-.1.3-.1.1-.1.1c-.1.1-.1.1-.1.2-.2.2-.3.4-.5.5-.4.3-.7.5-1.1.7-1.5.7-3 .7-4.5.4-1.5-.3-2.9-.8-4.2-1.6 1.4.4 2.9.7 4.3.7s2.8-.2 4.1-.8c.3-.2.6-.4.8-.6.1-.1.2-.2.3-.4v-.1l.1-.3c.3-.8.5-1.6.6-2.5.3-1.7.4-3.4 0-5-.3-1.6-1.1-3.1-2.1-4.2-1-1.2-2.2-1.9-3.5-1.8-.3 0-.7.1-1 .2-.3.1-.7.2-1 .4-.6.3-1.2.8-1.7 1.4-.8 1.5-1.4 3.1-1.8 4.9"/><ellipse cx="44.3" cy="29.2" fill="#4c5359" rx="2" ry="5"/><path fill="#fff" d="M24.6 27.3s-.4-5.2-4.1-6.8c-4.1-1.9-6.9 2.7-7.6 5.3-1.1 3.9.3 8.1.7 9 .3.6 3.3 3.7 10.1.8 0 0 1.7-4.2.9-8.3"/><path fill="#b2b6b8" d="M24.6 27.3c-.4-1.8-1-3.4-2-4.6-.5-.6-1.1-1.1-1.7-1.4-.3-.2-.6-.3-1-.4-.3-.1-.6-.1-1-.2-1.3 0-2.6.7-3.5 1.8-1 1.1-1.7 2.6-2.1 4.2-.3 1.6-.3 3.3 0 5 .1.8.4 1.7.6 2.5l.1.3c0-.1 0 0 0 0v.1c.1.1.2.2.3.4.3.2.5.4.8.6 1.2.7 2.7.9 4.1.8 1.4 0 2.9-.3 4.3-.7-1.3.8-2.8 1.3-4.2 1.6-1.5.2-3 .2-4.5-.4-.4-.2-.7-.4-1.1-.7-.2-.1-.3-.3-.5-.5 0-.1-.1-.1-.1-.2l-.1-.1-.1-.1-.1-.3c-.3-.9-.6-1.8-.8-2.7-.4-1.9-.5-3.9-.1-5.8.4-2 1.3-3.6 2.5-5 1.2-1.3 2.8-2.2 4.4-1.9.4.1.8.1 1.2.3.4.1.7.3 1.1.6.7.5 1.3 1.1 1.8 1.9 1.1 1.2 1.6 3.1 1.7 4.9"/><g fill="#4c5359"><ellipse cx="19.7" cy="29.2" rx="2" ry="5"/><path d="M40 49c0 6.1-3.6 11-8 11s-8-4.9-8-11 3.6-11 8-11 8 4.9 8 11"/></g><path fill="#363b40" d="M33.9 44.7c-.6 0-1.5.6-1.2 2.1.2.8 1.2 1.7 1.2 2.9 0 2.5-3.9 2.5-3.9 0 0-1.2 1.1-2.2 1.2-2.9.3-1.5-.6-2.1-1.2-2.1-1.6 0-4.3 1.8-4.3 4.8 0 3.4 2.8 6.1 6.1 6.1 3.4 0 6.2-2.8 6.2-6.1.1-3-2.5-4.8-4.1-4.8"/><path fill="#ff717f" d="M32 54.3c-3.7 0-4.7 1-4.7 1 1 2 2.7 3.3 4.7 3.3 2.1 0 3.8-1.3 4.8-3.3-.1 0-1.1-1-4.8-1"/></svg>