<svg xmlns="http://www.w3.org/2000/svg" viewBox="0 0 64 64"><ellipse cx="53.7" cy="33" fill="#89664c" rx="8.3" ry="8.2"/><circle cx="53.7" cy="33" fill="#ffc5d3" r="5.4"/><circle cx="10.2" cy="33" fill="#89664c" r="8.2"/><circle cx="10.2" cy="33" fill="#ffc5d3" r="5.4"/><g fill="#89664c"><path d="M43.4 10.8c1.1-.6 1.9-.9 1.9-.9-3.2-1.1-6-1.8-8.5-2.1 1.3-1 2.1-1.3 2.1-1.3C18.5 3.6 8.8 15.5 8.8 26h46.4c-.7-7.4-4.8-12.4-11.8-15.2"/><path d="M55.3 27.6C55.3 17.9 44.9 10 32 10S8.7 17.9 8.7 27.6c0 2.3.6 4.4 1.6 6.4-1 2-1.6 4.2-1.6 6.4C8.7 50.1 19.1 58 32 58s23.3-7.9 23.3-17.6c0-2.3-.6-4.4-1.6-6.4 1-2 1.6-4.2 1.6-6.4"/></g><path fill="#e0ac7e" d="M52 28.2c0-16.9-20-6.1-20-6.1s-20-10.8-20 6.1c0 4.7 2.9 9 7.5 11.7-1.3 1.7-2.1 3.6-2.1 5.7 0 6.1 6.6 11 14.7 11s14.7-4.9 14.7-11c0-2.1-.8-4-2.1-5.7 4.4-2.7 7.3-7 7.3-11.7"/><g fill="#3b302a"><path d="M35.1 38.7c0 1.1-.4 2.1-1 2.1s-1-.9-1-2.1c0-1.1.4-2.1 1-2.1s1 1 1 2.1m-4.2 0c0 1.1-.4 2.1-1 2.1s-1-.9-1-2.1c0-1.1.4-2.1 1-2.1.5.1 1 1 1 2.1"/><ellipse cx="40.7" cy="31.7" rx="3.5" ry="4.5"/><ellipse cx="23.3" cy="31.7" rx="3.5" ry="4.5"/></g><path fill="#89664c" d="M14.9 52 6.6 62h12.9l4-3.6z"/><path fill="#ffd6bb" d="M20.2 43.3s4.9-4.5 9.5-3.9c2.3.3-7.1 7.6-7.1 7.6s9.7-8.2 11.7-5.6c1.8 2.3-8.9 9.8-8.9 9.8s10-8.1 9.6-4.6c-.3 3.9-7.9 12.9-12.5 13.8-6.6 1.3-11.8-2.9-8.3-17.5 1.8-7.3 3.6.8 6 .4"/><path fill="#89664c" d="M48.3 50.2 59 62H45l-2.2-2.6z"/><path fill="#ddb199" d="M38.2 43.7s-6.2-2.3-10.3 0c-2 1.1 9.4 4.3 9.4 4.3s-12.1-3.9-13-.8c-.8 2.9 12 5.7 12 5.7s-12.3-3.7-10.7-.5c1.8 3.4 12.2 8.9 16.8 8 6.8-1.4-1.8-17.3-4.2-16.7"/><path fill="#ffd6bb" d="M39.6 43.7s-6.2-2.3-10.3 0c-2 1.1 9.4 4.3 9.4 4.3s-12.1-3.9-13-.8c-.8 2.9 12 5.7 12 5.7s-12.3-3.7-10.7-.5c1.8 3.4 12.2 8.9 16.8 8 6.6-1.3 9.8-7.2 1-19.4-4.3-6.1-2.9 2.1-5.2 2.7"/></svg>