<svg xmlns="http://www.w3.org/2000/svg" viewBox="0 0 64 64"><path d="m27 2 5 10 5-10zm17.9 1-.7 11.2L53.5 8zM10.5 8l9.4 6.2L19.2 3z" fill="#4aa9ff"/><path fill="#eba352" d="M20.4 62H8.6V49.1l13.8 3.2c-3.3 3.5-2 9.7-2 9.7"/><g fill="#ffdd67"><path d="M19.3 62H6.1s.2-6.4-2-11.9l16.5 2.4c-1.9 4.9-1.3 9.5-1.3 9.5M18 44.4h5V22.2c0-1.5-1.1-2.7-2.5-2.7S18 20.7 18 22.3v22.1m-5.9 0H18V20.3c0-1.8-1.3-3.3-3-3.3-1.6 0-3 1.5-3 3.3v24.1z"/><path d="M7 44.4h5.2V21.7c0-1.6-1.2-2.9-2.6-2.9-1.4 0-2.6 1.3-2.6 2.9v22.7M4.6 22.2c-1.3 0-2.3 1.2-2.3 2.7v19.5H7V24.9c0-1.5-1.1-2.7-2.4-2.7"/></g><path d="M20.5 19.4H20c1.2.2 2.1 1.4 2.1 2.7v22.3h.9V22.2c0-1.5-1.1-2.8-2.5-2.8M15.1 17c-.2 0-.3 0-.4.1 1.4.2 2.5 1.6 2.5 3.2v16.1l.9 1V20.3c-.1-1.8-1.4-3.3-3-3.3m-5.5 1.8h-.4c1.2.2 2.1 1.4 2.1 2.8v14.7l.9 1V21.7c-.1-1.6-1.2-2.9-2.6-2.9m-5 3.4c-.2 0-.3 0-.4.1 1.1.2 1.9 1.3 1.9 2.6v11.5l.9 1V24.9c0-1.5-1.1-2.7-2.4-2.7" fill="#eba352"/><path fill="#ffdd67" d="M31.4 34.2c-1.5-1.7-4.5-.9-6.6 3.5-1.5 3-1.9 2.4-2.7 2.6v-2.7S2.2 36.3 2.2 39.3c0 0-.9 7.4 1 12 2.9 6.9 17.7 8.7 22.3-3 .9-2.3 2.2-4.8 3.2-7.3 1.3-3 4.4-4.8 2.7-6.8"/><g fill="#eba352"><path d="M30.4 33.5c3.2 2.4-2.7 7-5.5 14.1-4 10.2-15.7 10.2-20.6 5.5 4.5 5.3 17 6.3 21.2-4.8 2.8-7.2 9.6-12.7 4.9-14.8"/><path d="M23 40.2c-3.9-1.4-12.1 1.3-11 9.1 0-7.3 6.5-9 10.1-9 .5 0 .9-.1.9-.1M43.6 62h11.8V49.1l-13.8 3.2c3.3 3.5 2 9.7 2 9.7"/></g><g fill="#ffdd67"><path d="M44.7 62h13.2s-.2-6.4 2-11.9l-16.5 2.4c1.9 4.9 1.3 9.5 1.3 9.5M46 44.4h-5V22.2c0-1.5 1.1-2.7 2.5-2.7s2.5 1.2 2.5 2.8v22.1m5.9 0H46V20.3c0-1.8 1.3-3.3 3-3.3 1.6 0 3 1.5 3 3.3v24.1z"/><path d="M57 44.4h-5.2V21.7c0-1.6 1.2-2.9 2.6-2.9 1.4 0 2.6 1.3 2.6 2.9v22.7m2.4-22.2c1.3 0 2.3 1.2 2.3 2.7v19.5H57V24.9c0-1.5 1.1-2.7 2.4-2.7"/></g><path d="M43.5 19.4h.5c-1.2.2-2.1 1.4-2.1 2.7v22.3H41V22.2c0-1.5 1.1-2.8 2.5-2.8m5.4-2.4c.2 0 .3 0 .4.1-1.4.2-2.5 1.6-2.5 3.2v16.1l-.9 1V20.3c.1-1.8 1.4-3.3 3-3.3m5.5 1.8h.4c-1.2.2-2.1 1.4-2.1 2.8v14.7l-.9 1V21.7c.1-1.6 1.2-2.9 2.6-2.9m5 3.4c.2 0 .3 0 .4.1-1.1.2-1.9 1.3-1.9 2.6v11.5l-.9 1V24.9c0-1.5 1.1-2.7 2.4-2.7" fill="#eba352"/><path fill="#ffdd67" d="M32.6 34.2c1.5-1.7 4.5-.9 6.6 3.5 1.5 3 1.9 2.4 2.7 2.6v-2.7s19.9-1.3 19.9 1.7c0 0 .9 7.4-1 12-2.9 6.9-17.7 8.7-22.3-3-.9-2.3-2.2-4.8-3.2-7.3-1.3-3-4.4-4.8-2.7-6.8"/><g fill="#eba352"><path d="M33.6 33.5c-3.2 2.4 2.7 7 5.5 14.1 4 10.2 15.7 10.2 20.6 5.5-4.5 5.3-17 6.3-21.2-4.8-2.8-7.2-9.6-12.7-4.9-14.8"/><path d="M41 40.2c3.9-1.4 12.1 1.3 11 9.1 0-7.3-6.5-9-10.1-9-.5 0-.9-.1-.9-.1"/></g></svg>