<svg xmlns="http://www.w3.org/2000/svg" viewBox="0 0 64 64"><path d="M11 57v3c0 1.1.9 2 2 2h4c1.1 0 2-.9 2-2v-3h-8m34 0v3c0 1.1.9 2 2 2h4c1.1 0 2-.9 2-2v-3h-8" fill="#3e4347"/><path fill="#c5d0d8" d="M56 54c0 1.7-1.3 3-3 3H11c-1.7 0-3-1.4-3-3V7.7c0-1.7 1.3-3 3-3h42c1.7 0 3 1.3 3 3V54z"/><path fill="#428bc1" d="M56 54c0 1.7-1.3 3-3 3H11c-1.7 0-3-1.4-3-3v-6h48v6"/><path d="M54.7 35.5c0 1.7-1.3 3-3 3H12.3c-1.7 0-3-1.3-3-3V17.8c0-1.7 1.3-3 3-3h39.4c1.7 0 3 1.4 3 3v17.7zm-44.1 14h8.9v6h-8.9z" fill="#3e4347"/><path fill="#f15744" d="M12 51h5.9v3H12z"/><path fill="#3e4347" d="M44.6 49.5h8.9v6h-8.9z"/><path fill="#f15744" d="M46 51h5.9v3H46z"/><path fill="#3e4347" d="M48 11.5c0 1-.8 1.8-1.8 1.8H17.8c-1 0-1.8-.8-1.8-1.8V7.9c0-1 .8-1.8 1.8-1.8h28.4c1 0 1.8.8 1.8 1.8v3.6"/><path fill="#b2c1c0" d="M16.1 4.7c0-1.5.8-2.7 1.8-2.7h28.4c1 0 1.8 1.2 1.8 2.7h-32"/><path fill="#3e4347" d="M22 43.4h20v11.1H22z"/><g fill="#62727a"><path d="M22.9 44.4h18.2v1H22.9zM12.5 34.3h18.2v1H12.5z"/><path d="m27.7 38.5-7.2-3.7.6-.3 7.6 4zm5.6-4.2h18.2v1H33.3z"/><path d="m48.5 38.5-7.2-3.7.6-.3 7.5 4zm-25.6 7.9h18.2v1H22.9zm0 2h18.2v1H22.9zm0 2h18.2v1H22.9zm0 2h18.2v1H22.9z"/></g><g fill="#fff"><circle cx="52.2" cy="43.5" r="2.9"/><circle cx="46" cy="43.5" r="2.9"/><circle cx="18" cy="43.5" r="2.9"/><circle cx="11.8" cy="43.5" r="2.9"/></g><g fill="#62727a"><path d="M8 24.8c0 .6-.4 1-1 1H5c-.6 0-1-.4-1-1v-8c0-.6.4-1 1-1h2c.6 0 1 .4 1 1v8"/><path d="m5.8 16.7-.7-.7 5.8-5.8v1.5zM56 24.8c0 .6.4 1 1 1h2c.6 0 1-.4 1-1v-8c0-.6-.4-1-1-1h-2c-.6 0-1 .4-1 1v8"/><path d="m58.2 16.7.7-.7-5.8-5.8v1.5z"/></g><path d="M20.5 8v1.3l-.4.4-.1-.1V7.8l.5.2m-.6 3.7V9.9l.1-.1.4.4v1.3l-.5.2m2.5.4h-2.2c-.2 0-.3-.2-.3-.3l.5-.2h1.8l.2.5m-.2-4.2h-1.8l-.5-.2c0-.2.2-.3.3-.3h2.2l-.2.5m0 1.6.3.3-.3.2h-1.7l-.3-.3.3-.3h1.7zM23.6 8v1.3l-.4.4-.1-.1V7.8l.5.2m0 2.2v1.4l-.2.5c-.2 0-.3-.2-.3-.3V9.9l.1-.1.4.4m1.6-2.3h-1.6l-.5-.2c0-.2.2-.3.3-.3h2l-.2.5m-.4 1.6-.3.3-.3-.3V8h.5l.1 1.5m.6-.2V7.9l.2-.5c.2 0 .3.2.3.3v1.9l-.1.1-.4-.4m.4.5.1.1v1.9c0 .2-.2.3-.3.3l-.2-.5v-1.4l.4-.4m.9-.1-.1-.1V8l.3-.3.2.2v1.4l-.4.4m.4.5v1.4l-.2.2-.3-.3V9.9l.1-.1.4.4m1.6-2.3h-1.5l-.2-.3.3-.3h1.5l.2.3-.3.3m.2 4-.3.3h-1.5l-.1-.3.3-.3h1.5l.1.3m-.1-2.6V7.9l.2-.2.3.3v1.5l-.1.1-.4-.3m.4.5.1.1v1.5l-.3.4-.2-.2v-1.4l.4-.4m.8 1.9V9.9l.1-.1.4.4v1.3l-.5.2m2.3.4h-2c-.2 0-.3-.2-.3-.3l.5-.2h1.6l.2.5m0-2.8V7.9l.2-.5c.2 0 .3.2.3.3v1.9l-.1.1-.4-.4m.4.5.1.1v1.9c0 .2-.2.3-.3.3l-.2-.5v-1.4l.4-.4m.8-.5V7.9l.2-.5c.2 0 .3.2.3.3v1.9l-.1.1-.4-.4m.4.4.1.2v1.9c0 .2-.2.3-.3.3l-.2-.5v-1.4l.4-.5m.9 0-.1-.1V8l.3-.3.2.2v1.4l-.4.4m.4.5v1.4l-.2.2-.3-.3V9.9l.1-.1.4.4m1.6-2.3h-1.5l-.3-.3.3-.3h1.5l.2.3-.2.3m.2 4-.3.3h-1.5l-.3-.3.3-.3h1.5l.3.3m-.1-2.6V7.9l.2-.2.3.3v1.5l-.1.1-.4-.3m.4.5.1.1v1.5l-.3.3-.2-.2v-1.4l.4-.3m.9-.1-.1-.1V7.7c0-.2.2-.3.3-.3l.2.5v1.4l-.4.4m.4.5v1.4l-.2.5c-.2 0-.3-.2-.3-.3V9.9l.1-.1.4.4m1.6-.9h-.5l-1-1v-.4h.4L40.2 9v.3m.2 0V7.9l.2-.5c.2 0 .3.2.3.3v1.9l-.1.1-.4-.4m.4.5.1.1v1.9c0 .2-.2.3-.3.3l-.2-.5v-1.4l.4-.4M42.1 8v1.3l-.4.4-.1-.1V7.8l.5.2m-.5 3.7V9.9l.1-.1.4.4v1.3l-.5.2m2.5.4h-2.2c-.2 0-.3-.2-.3-.3l.5-.2h1.8l.2.5m-.2-4.2h-1.8l-.5-.2c0-.2.2-.3.3-.3h2.2l-.2.5m-.1 1.6.3.3-.3.2h-1.7l-.3-.3.3-.3h1.7z" fill="#c7e755"/></svg>