<svg xmlns="http://www.w3.org/2000/svg" viewBox="0 0 64 64"><path fill="#94989b" d="M2 56.2h60V62H2z"/><path fill="#3e4347" d="M49.5 51.5c0 3.4 2.5 6.1 5.6 6.1 3.1 0 5.6-2.8 5.6-6.1H49.5"/><path fill="#94989b" d="M57 51.5c0 1.1-.8 2-1.9 2-1 0-1.9-.9-1.9-2h-1.9c0 2.3 1.7 4.1 3.8 4.1 2.1 0 3.8-1.8 3.8-4.1H57"/><path fill="#3e4347" d="M37.5 51.5c0 3.4 2.5 6.1 5.6 6.1s5.6-2.8 5.6-6.1H37.5"/><path fill="#94989b" d="M45 51.5c0 1.1-.8 2-1.9 2-1 0-1.9-.9-1.9-2h-1.9c0 2.3 1.7 4.1 3.8 4.1 2.1 0 3.8-1.8 3.8-4.1H45"/><path fill="#3e4347" d="M25.5 51.5c0 3.4 2.5 6.1 5.6 6.1s5.6-2.8 5.6-6.1H25.5"/><path fill="#94989b" d="M33 51.5c0 1.1-.8 2-1.9 2-1 0-1.9-.9-1.9-2h-1.9c0 2.3 1.7 4.1 3.8 4.1 2.1 0 3.8-1.8 3.8-4.1H33"/><path fill="#52575b" d="M26.9 52.2H62v-5.3l-33-.8z"/><path fill="#42ade2" d="m8.6 50.7-2.8 9.5H20c7.2 0 14.1-11.8 14.1-11.8L8.6 50.7"/><path fill="#c5d0d8" d="m32.9 12.3-7.7 11.5s-17.8 6.9-20 16.1c-1.4 5.8 3.7 9.5 8.2 11.8 7.9.2 20.6-3.3 20.6-3.3h28V13.9S42.8 11 32.9 12.3"/><path fill="#dfecf4" d="M5.3 39.9c2.2-9.2 43.3-23.2 51.4-22.8 0 0-5.5-2.3-13.6-3.8l-18.5 6.3c-.3.5-.4.9-.4.9S4.4 30.8 2.2 39.2c-.3 1.1-.3 3.6 0 4.6 1 3 5.1 6.4 7.1 7.2 1.1.4 2.5.6 4.2.7-4.6-2.3-9.6-6-8.2-11.8"/><path fill="#3e4347" d="M43 13.4s-.1 0 0 0l-6.1-.8c-1.7-.1-3.4-.2-5.2-.2-.7.1-1.2.2-1.6.4-2.5 1-4.8 5.2-5.7 7L43 18.1v-4.7"/><path fill="#42ade2" d="M62 42H32.9c0-11.8 16.6-11.8 16.6-11.8H62V42z"/><path fill="#aab5bc" d="M20.9 40.2c0 .8-.4 1.5-.9 1.5h-9.3c-.5 0-.9-.7-.9-1.5s.4-1.5.9-1.5H20c.5 0 .9.7.9 1.5"/><path fill="#3e4347" d="M20.9 51.7c-1.3.2-2.4 1.7-2.4 3.6 0 1.9 1.1 3.4 2.4 3.6v-7.2"/><path d="M20.9 53.1c-.8.1-1.4 1-1.4 2.2 0 1.1.6 2 1.4 2.2v-4.4M20.1 39c-.4.1-.8.6-.8 1.2s.4 1.1.8 1.2V39" fill="#fff"/><path fill="#3e4347" d="M14.4 52.8c-1.1.1-1.9 1.3-1.9 2.8 0 1.5.8 2.7 1.9 2.8v-5.6"/><path fill="#fff" d="M14.4 53.9c-.6.1-1.1.8-1.1 1.7 0 .9.5 1.6 1.1 1.7v-3.4"/><path fill="#3e4347" d="M9.8 53.2c-.8.1-1.3 1-1.3 2 0 1.1.6 1.9 1.3 2v-4"/><path fill="#fff" d="M9.8 54.1c-.5 0-.8.5-.8 1.2 0 .6.4 1.1.8 1.2v-2.4"/><path fill="#3e4347" d="M43.7 13.5V18L56 16.8s-6.7-2.5-12.3-3.3"/><path fill="#fff" d="M5.1 41c-.1-1.4.6-2.7 1.4-3.8.8-1.1 1.8-2 2.8-2.9 2.1-1.7 4.4-3.2 6.7-4.5 4.7-2.6 9.7-4.7 14.7-6.6 5-1.8 10.2-3.4 15.4-4.7 2.6-.6 5.2-1.2 7.9-1.6 2.6-.4 5.3-.8 8-.5-2.7.1-5.3.8-7.8 1.4-2.6.6-5.1 1.4-7.7 2.1-5.1 1.6-10.1 3.2-15.1 5.1-5 1.8-9.9 3.8-14.7 6.1-2.4 1.2-4.7 2.4-6.9 3.9-1.1.7-2.1 1.6-3 2.5-.8 1-1.6 2.1-1.7 3.5"/></svg>