<svg xmlns="http://www.w3.org/2000/svg" viewBox="0 0 64 64"><path fill="#94989b" d="M16.4 48.9 7.8 62h4.6l8.4-13.1z"/><path fill="#e6e6e6" d="M16.4 48.9H12L2 62h5.8z"/><path fill="#94989b" d="M47.6 48.9h-4.4L51.6 62h4.6z"/><path fill="#e6e6e6" d="M47.6 48.9 56.2 62H62L52 48.9z"/><path fill="#3e4347" d="M44 50.1H20L12.4 62h39.2z"/><path fill="#ba573f" d="M52.4 32.2H11.6V8.4C11.6 7.8 21.8 5 32 5s20.4 2.8 20.4 3.4v23.8"/><path fill="#c5cdd3" d="M54.8 48.5c0 3.7-45.5 3.7-45.5 0v-6.1h45.5v6.1"/><path fill="#dae3ea" d="M48 52.7c0 4.5-32 4.5-32 0v-7.5h32v7.5"/><path fill="#f14e3a" d="M54.8 42.4H9.2v-30c0-.8 11.4-4.3 22.8-4.3s22.8 3.5 22.8 4.3v30"/><path d="M11.6 13.7v9.5L30.9 20v-9.5c-.2-.8-19.4 2.4-19.3 3.2m21.5-3.2V20l19.2 3.1v-9.5c.2-.7-19-3.9-19.2-3.1" fill="#3e4347"/><path fill="#fdf516" d="M37.9 42.4H26.1V23.1c0-2.5 11.7-2.5 11.7 0 .1 3 .1 19.3.1 19.3"/><ellipse cx="32" cy="27.3" fill="#3e4347" rx="3.4" ry="3.3"/><g fill="#f14e3a"><ellipse cx="21.9" cy="5.1" rx="3.2" ry="3.1"/><ellipse cx="42.1" cy="5.1" rx="3.2" ry="3.1"/></g><g fill="#fdf516"><path d="M42.3 33.6c-5-1.1-15.6-1.1-20.6 0-.7.1-1.9.8-1.9 1.9v3.8c0 1 1.3 1.7 1.9 1.9 5 1.1 15.6 1.1 20.6 0 .7-.1 1.9-.8 1.9-1.9v-3.8c.1-1.1-1.2-1.8-1.9-1.9m-.2 5c0 .7-1 1.2-1.6 1.2-4.2.7-12.9.7-17.1 0-.6-.1-1.6-.6-1.6-1.2v-2.5c0-.7 1-1.2 1.6-1.2 4.2-.7 12.9-.7 17.1 0 .6.1 1.6.6 1.6 1.2v2.5"/><path d="M9.2 36.3h45.6v2.1H9.2z"/></g><path fill="#3e4347" d="M35.3 36.3c0 1.8-1.5 3.3-3.3 3.3s-3.3-1.5-3.3-3.3c0-1.8 1.5-3.3 3.3-3.3 1.8 0 3.3 1.5 3.3 3.3"/><circle cx="32" cy="36.3" r="1.5" fill="#fff"/><path fill="#94989b" d="M23 42.4h18v6.5H23z"/><path d="M27.8 46.9h2.1v4.7h-2.1zm6.3 0h2.1v4.7h-2.1z" fill="#3e4347"/><path fill="#94989b" d="M8.2 42.4h47.7v2.8H8.2z"/><path fill="#f14e3a" d="M26.1 53h11.7v4.3H26.1z"/><path d="M55.8 32.9c-.1.6-.7 1-1.4.9l-9.3-1.6c-.6-.1-1.1-.7-1-1.3l.4-2.1c.1-.6.7-1 1.4-.9l9.3 1.6c.6.1 1.1.7 1 1.3l-.4 2.1m-36.1-2c.1.6-.3 1.2-1 1.3l-9.3 1.6c-.6.1-1.3-.3-1.4-.9l-.4-2.1c-.1-.6.3-1.2 1-1.3l9.3-1.6c.6-.1 1.3.3 1.4.9l.4 2.1" fill="#3e4347"/></svg>