<svg xmlns="http://www.w3.org/2000/svg" viewBox="0 0 64 64"><path fill="#ffce31" d="M46 20.4c-2 0-3.9-1-4.7-1.9-.8-.9-2.6-1.9-4.7-1.9H21.7C11.6 16.6 4.1 26.5 4.1 43c0 2.4 2.6 3.6 4.6 3.6h20.5c2 0 4.8-1.3 6.1-2.8 0 0 4.7-5.6 6.3-7.4 2.3-2.6 5.4-7.5 9.1-7.5h5.6v-8.4c.1-.1-7.7-.1-10.3-.1"/><path d="M32 31.2c0 .5-.4.9-.9.9h-3.8c-.5 0-.9-.4-.9-.9V19.5c0-.5.4-.9.9-.9h3.8c.5 0 .9.4.9.9v11.7m-9.4-12.7C9.2 18.5 7.8 32.1 7.8 32.1h14.9c1 0 1.9-.8 1.9-1.9v-9.9c-.1.1-.1-1.8-2-1.8" fill="#3e4347"/><path fill="#ffce31" d="M60.5 14.8c-1.9 0-7.9 5.6-7.9 5.6v8.4l2.6 1.6c.8.7 1.8.4 2.1-.5 0 0 3.4-9.9 4.6-13.2.3-1.1-.3-1.9-1.4-1.9"/><path fill="#62727a" d="M36.7 54.1H31c-.1-3.5-.8-7.7-3.7-10.4-1-.9-2.6.4-1.6 1.3 2.3 2.1 2.9 6.1 3 9.1h-16c.1-3.1.7-7 3-9.1 1-.9-.6-2.2-1.6-1.3-2.9 2.7-3.6 6.9-3.7 10.4H7.6s-3.7.2-4.7-3.9H2s0 6.3 5.6 6.3h29.2c.5 0 .9-.8.9-1.3-.1-.4-.5-1.1-1-1.1"/><path fill="#fff" d="M35.9 40.3c1-1.1 2.2-2.6 3.2-3.8H6.5s-.4 2.1-.4 3.8h29.8"/><path fill="#62727a" d="m58.6 28.2-4-3.2c-.7-.6-1.8-1.7-2.4-2.4l-3.2-4c-.6-.7-1.7-.7-2.4 0s-.7 1.8 0 2.4l4 3.2c.7.6 1.8 1.7 2.4 2.4l3.2 4c.6.7 1.7.7 2.4 0 .8-.7.8-1.8 0-2.4"/><g fill="#b2c1c0"><circle cx="52.6" cy="24.7" r="1.9"/><path d="M28.7 15c-.1-.7-.7-1.2-1.3-1.2h-3.9c-.6 0-1.1.5-1.3 1.2l-.5 1.6h7.5l-.5-1.6"/></g><path fill="#62727a" d="M48.9 14.6c0 1.1-.8 1.8-1.8 1.5 0 0-11.3-3.5-21.6-3.5-11.2 0-21.6 3.5-21.6 3.5-1 .3-1.8-.3-1.8-1.4 0-1.1.8-2.2 1.9-2.3 0 0 10.3-1.7 21.6-1.7 10.3 0 21.6 1.7 21.6 1.7.8.1 1.7 1.1 1.7 2.2"/><g fill="#b2c1c0"><path d="M24.5 9.1h1.9v5.1h-1.9z"/><path d="M27.3 8.4c0 .5-.4.9-.9.9h-1.9c-.5 0-.9-.4-.9-.9s.4-.9.9-.9h1.9c.5 0 .9.4.9.9"/></g><path fill="#62727a" d="M27.3 12c0 .5-.4.9-.9.9h-1.9c-.5 0-.9-.4-.9-.9v-1c0-.5.4-.9.9-.9h1.9c.5 0 .9.4.9.9v1"/></svg>