<svg xmlns="http://www.w3.org/2000/svg" viewBox="0 0 64 64"><path fill="#3e4347" d="M2 62h17.5l17.8-11.2H8.1L2 53.2z"/><path fill="#e8e8e8" d="M23.4 51.5c.1-.1.3-.1.4-.2l-.4.2"/><path fill="#c7e755" d="M3.1 33.9C1 43.7 2.6 53.5 14.6 53.5c2.5 0 5.7-.4 8.7-2 4.8-2.6 7.6-8 8.7-15.5.1-.7.2-1.3.3-2l-29.2-.1"/><path fill="#3e4347" d="M32.3 33.9c1.2-8.5 3-19.7 6.3-24.8h-22c-2.4 2.5-5.1 5.9-7.8 10.4-2.2 3.7-4.5 9.1-5.6 14.4h29.1"/><path fill="#dae3ea" d="M31.7 2c-1.3 0-8.7.6-15.1 7.1h22c1.4-2.3 3.1-3.4 5.2-2.5-1.5-1.2-4-4.6-12.1-4.6"/><path fill="#c5d0d8" d="M44.6 7c-7.3-4.7-10.5 14.1-12.3 26.9l25.5-6V17s-6.3-4.7-13.2-10"/><path d="M32.3 33.9c-.1.7-.2 1.4-.3 2-1.1 7.6-3.9 12.9-8.7 15.5L57.8 32v-4l-25.5 5.9m-12.9 7.4c0 .7.2 1.3.5 1.9h6c.3-.6.5-1.2.5-1.9s-.2-1.3-.5-1.9h-6c-.3.6-.5 1.3-.5 1.9m-15.7 0c0 .7.2 1.3.5 1.9h6c.3-.6.5-1.2.5-1.9s-.2-1.3-.5-1.9h-6c-.3.6-.5 1.3-.5 1.9" fill="#83bf4f"/><path d="M6.4 41.3c0 .7.2 1.3.5 1.9h4.3c.3-.6.5-1.2.5-1.9s-.2-1.3-.5-1.9H6.8c-.3.6-.4 1.3-.4 1.9m15.7 0c0 .7.2 1.3.5 1.9h4.3c.3-.6.5-1.2.5-1.9s-.2-1.3-.5-1.9h-4.3c-.4.6-.5 1.3-.5 1.9" fill="#d6eef0"/><path d="m54.6 17.5-5.7-3.6c-.8-.5-1.5-.1-1.5.9v15.6l8.7-2v-8.1c0-1-.7-2.3-1.5-2.8m-11.4-7.2c-2-1.3-4.4 5.9-5.2 8.2-1.4 4.8-2.7 12.9-2.7 12.9-.2 1 .5 1.7 1.4 1.5l7.2-1.7c.9-.2 1.7-1.2 1.7-2.3v-17l-2.4-1.6" fill="#3e4347"/><path fill="#94989b" d="M19.5 53.1H62V32h-4.2z"/><path fill="#ffe62e" d="M28.8 53.1h-3.1L58.9 32h1z"/><path fill="#666" d="M19.5 53.1H62V62H19.5z"/></svg>