<svg xmlns="http://www.w3.org/2000/svg" viewBox="0 0 64 64"><path fill="#83bf4f" d="M4.8 22.6h54.4v20.6H4.8z"/><path fill="#ffce31" d="M4.8 43.2h54.4V47H4.8z"/><path d="M55.4 18.9H8.6c-2.1 0-3.8 1.7-3.8 3.8h54.4c0-2.1-1.7-3.8-3.8-3.8m-30-3.8h13.1v3.8H25.4zM2 2h60v1.9H2zm21.6 37.8h-9.4V28.5c0-3.3 9.4-3.3 9.4 0v11.3" fill="#3e4347"/><path fill="#b4d7ee" d="M21.7 30.1c0-2.3-5.6-2.3-5.6 0v7.5h5.6v-7.5"/><path fill="#3e4347" d="M12.3 41.7H4.8V25.1s7.5.2 7.5 4.3v12.3"/><path fill="#b4d7ee" d="M10.4 31c0-3.7-5.6-3.6-5.6-3.6v12.1h5.6V31z"/><path fill="#3e4347" d="M34.8 39.8h-9.4V28.5c0-3.3 9.4-3.3 9.4 0v11.3"/><path fill="#b4d7ee" d="M32.9 30.1c0-2.3-5.6-2.3-5.6 0v7.5h5.6v-7.5"/><path fill="#3e4347" d="M46.1 39.8h-9.4V28.5c0-3.3 9.4-3.3 9.4 0v11.3"/><path fill="#b4d7ee" d="M44.2 30.1c0-2.3-5.6-2.3-5.6 0v7.5h5.6v-7.5"/><path fill="#3e4347" d="M57.3 39.8h-9.4V28.5c0-3.3 9.4-3.3 9.4 0v11.3"/><path fill="#b4d7ee" d="M55.4 30.1c0-2.3-5.6-2.3-5.6 0v7.5h5.6v-7.5"/><path d="M5.8 15.5H9v5.6H5.8zm7.7 2h9.1v3.7h-9.1zm30.4-.5H53v3.7h-9.1z" fill="#3e4347"/><path fill="#94989b" d="M2 56.4h60V62H2z"/><path fill="#e6e6e6" d="M2 57.3h60v.9H2z"/><g fill="#3e4347"><path d="m29.953 15.857 5.394-8.774.767.47-5.394 8.775zm5.497 1.306 5.399-8.771 1.448.89-5.4 8.772z"/><path d="m31.795 3.49.709-.554 7.263 9.3-.71.553zm3.515-.196 1.418-1.109 5.545 7.09-1.418 1.108z"/></g><path fill="#699635" d="M4.8 47s-1.9 0-1.9 2.8v3.7h56.3V47H4.8z"/><path fill="#3e4347" d="M2.9 52h56.3v1.6H2.9z"/><path fill="#63686b" d="M18.9 49.8H9.5l-2.8 3.8h15z"/><circle cx="10.9" cy="53.6" r="2.8" fill="#3e4347"/><circle cx="10.9" cy="53.6" r=".9" fill="#94989b"/><circle cx="17.5" cy="53.6" r="2.8" fill="#3e4347"/><circle cx="17.5" cy="53.6" r=".9" fill="#94989b"/><path fill="#63686b" d="M54.5 49.8h-9.4l-2.8 3.8h15z"/><g fill="#3e4347"><circle cx="46.5" cy="53.6" r="2.8"/><circle cx="53.1" cy="53.6" r="2.8"/></g><g fill="#94989b"><circle cx="46.5" cy="53.6" r=".9"/><circle cx="53.1" cy="53.6" r=".9"/></g></svg>