<svg xmlns="http://www.w3.org/2000/svg" xmlns:xlink="http://www.w3.org/1999/xlink" viewBox="0 0 64 64"><g fill="#dae3ea"><circle cx="24.4" cy="12.1" r="3.9"/><circle cx="28.7" cy="10.2" r="4.8"/><circle cx="20" cy="14.2" r="1.9"/><circle cx="35.6" cy="10.3" r="5.8"/><circle cx="42.8" cy="8.8" r="6.8"/></g><path d="M46.5 10c-.2.6-.6 1.1-1 1.6-.5.5-1 .8-1.7 1.1-1.3.5-2.8.4-4-.1l1-.2c-.6.4-1.1.7-1.7.9-.6.2-1.2.4-1.8.4-1.3 0-2.5-.5-3.2-1.4 1.1.2 2.1.2 3-.1.4-.1.9-.3 1.3-.6.4-.2.8-.5 1.1-.7l.5-.4.6.2c1 .4 1.9.5 2.9.4.5-.1 1-.2 1.5-.4.4-.1.9-.4 1.5-.7m-13 .9c-.2 1-1.1 1.9-2.2 2.2-1.1.3-2.3.1-3.3-.3l1.3-.4c-.3.5-.7.8-1.1 1.1-.4.3-.9.5-1.4.5-1 .1-2-.3-2.5-1 .5 0 .8-.1 1.2-.2.4-.1.6-.2.9-.4.3-.2.5-.3.7-.5.2-.2.4-.5.5-.6l.5-.8.8.3c.8.3 1.5.6 2.3.6.6.3 1.4.1 2.3-.5" fill="#b2c1c0"/><path fill="#83bf4f" d="M37.6 15.1H62V19H37.6z"/><path fill="#699635" d="M58.2 19v12.8H41.4V19h-1.9v26.8h20.6V19z"/><g fill="#3e4347"><path d="M58.2 31.8V19H41.4v12.8h16.8m-7.4-11.2h5.6V30h-5.6v-9.4m-7.6 0h5.6V30h-5.6v-9.4m-30 33.1h10.9v4.4H13.2z"/><path d="M13.2 49.8h41.7v4.6H13.2z"/></g><g fill="#75a843"><path d="M12.3 30.1h27.2v19.7H12.3z"/><path d="M14.2 39.5c0 6.7-2.1 10.3-4.7 10.3S4.8 39.5 4.8 39.5s2.1-9.4 4.7-9.4 4.7 2.7 4.7 9.4"/></g><path fill="#83bf4f" d="M9.8 32.5c-.9 1.2-2.2 2.7-3.1 7h5.6c0-5.6-1.6-6.3-2.5-7"/><path fill="#699635" d="M9.5 28.2h6.6v22.5H9.5z"/><path fill="#ed4c5c" d="M6.7 49.8 2 61.1h11.2V49.8z"/><path d="M9.4 51.7c.2 0 .3.4.3.9L9 58.3c-.1.5-.5.9-.9.9-.5 0-.7-.4-.6-.9l1.4-5.7c0-.5.3-.9.5-.9m-2.5.9c.2-.5.4-.9.5-.9.1 0 .1.4 0 .9L6 58.3c-.1.5-.5.9-.9.9s-.6-.4-.4-.9l2.2-5.7m5 5.6c0 .5-.3.9-.8.9-.4 0-.7-.4-.7-.9l.7-5.6c.1-.5.3-.9.4-.9s.3.4.3.9l.1 5.6" fill="#fff"/><path fill="#83bf4f" d="M11.4 30.1h2.8v9.4h-2.8z"/><path fill="#3e4347" d="m16.1 15.1 1.8 3.8v11.2h9.4V18.9l1.9-3.8z"/><path fill="#94989b" d="m24.5 17-.9 1.9v11.2h1.8V18.9l1-1.9z"/><path fill="#83bf4f" d="M16.1 39.5h23.4V32H16.1v7.5z"/><path d="M54.2 44.2h-8.8v-.8c0-1-.6-1.8-1.3-1.8h-.8v-5.1h.8c.7 0 1.3-.8 1.3-1.8v-.8h8.8v.8c0 1 .6 1.8 1.3 1.8h.8v5.1h-.8c-.7 0-1.3.8-1.3 1.8v.8M47 42.6h5.7c.2-1.2 1-2.2 2.1-2.5V38c-1-.3-1.8-1.3-2.1-2.5H47c-.2 1.2-1 2.2-2.1 2.5v2.1c1 .3 1.8 1.3 2.1 2.5m5.1 4.1c-4.2 0-7.6 3.4-7.6 7.6 0 4.2 3.4 7.6 7.6 7.6 4.2 0 7.6-3.4 7.6-7.6 0-4.1-3.4-7.6-7.6-7.6m0 13.8c-3.4 0-6.1-2.7-6.1-6.1 0-3.4 2.7-6.1 6.1-6.1 3.4 0 6.1 2.7 6.1 6.1 0 3.3-2.7 6.1-6.1 6.1" fill="#3e4347"/><circle cx="52.1" cy="54.4" r="1.5" fill="#699635"/><path id="a" fill="#ed4c5c" d="M51.3 49.4h1.5v9.9h-1.5z"/><path fill="#ed4c5c" d="m47.384 56.2 8.575-4.946.75 1.3-8.576 4.946z"/><use transform="rotate(-60.007 52.103 54.37)" xlink:href="#a"/><path fill="#ed4c5c" d="M52.1 48.3c-3.4 0-6.1 2.7-6.1 6.1 0 3.4 2.7 6.1 6.1 6.1 3.4 0 6.1-2.7 6.1-6.1 0-3.4-2.7-6.1-6.1-6.1m0 10.6c-2.5 0-4.6-2-4.6-4.6 0-2.5 2-4.6 4.6-4.6 2.5 0 4.6 2 4.6 4.6 0 2.6-2.1 4.6-4.6 4.6"/><path fill="#3e4347" d="M36.8 46.7c-4.2 0-7.6 3.4-7.6 7.6 0 4.2 3.4 7.6 7.6 7.6s7.6-3.4 7.6-7.6c.1-4.1-3.3-7.6-7.6-7.6m0 13.8c-3.4 0-6.1-2.7-6.1-6.1 0-3.4 2.7-6.1 6.1-6.1 3.4 0 6.1 2.7 6.1 6.1 0 3.3-2.7 6.1-6.1 6.1"/><circle cx="36.8" cy="54.4" r="1.5" fill="#699635"/><path id="b" fill="#ed4c5c" d="M36.1 49.4h1.5v9.9h-1.5z"/><path fill="#ed4c5c" d="m32.176 56.169 8.575-4.946.75 1.299-8.576 4.946z"/><use transform="rotate(-60.007 36.84 54.37)" xlink:href="#b"/><path fill="#ed4c5c" d="M36.8 48.3c-3.4 0-6.1 2.7-6.1 6.1 0 3.4 2.7 6.1 6.1 6.1 3.4 0 6.1-2.7 6.1-6.1 0-3.4-2.7-6.1-6.1-6.1m0 10.6c-2.5 0-4.6-2-4.6-4.6 0-2.5 2-4.6 4.6-4.6s4.6 2 4.6 4.6c0 2.6-2 4.6-4.6 4.6"/><path fill="#3e4347" d="M19.6 50.7c-3.1 0-5.6 2.5-5.6 5.6 0 3.1 2.5 5.6 5.6 5.6 3.1 0 5.6-2.5 5.6-5.6.1-3-2.5-5.6-5.6-5.6m0 10.2c-2.5 0-4.5-2-4.5-4.5s2-4.5 4.5-4.5 4.5 2 4.5 4.5-2 4.5-4.5 4.5"/><circle cx="19.6" cy="56.4" r="1.1" fill="#699635"/><path id="c" fill="#ed4c5c" d="M19.1 52.7h1.1V60h-1.1z"/><path fill="#ed4c5c" d="m16.205 57.694 6.322-3.65.55.952-6.322 3.65z"/><use transform="rotate(-59.994 19.63 56.362)" xlink:href="#c"/><path fill="#ed4c5c" d="M19.6 51.9c-2.5 0-4.5 2-4.5 4.5s2 4.5 4.5 4.5 4.5-2 4.5-4.5-2-4.5-4.5-4.5m0 7.8c-1.9 0-3.4-1.5-3.4-3.4s1.5-3.4 3.4-3.4 3.4 1.5 3.4 3.4-1.5 3.4-3.4 3.4"/><path fill="#699635" d="M33.9 28.2c-1 0-1.9.8-1.9 1.9h3.8c0-1-.9-1.9-1.9-1.9"/><g fill="#83bf4f"><path d="M24.2 50.7H5.9v-2.9h22s0 2.9-3.7 2.9"/><path d="M62 49.8H26.9s0-4 6.6-4H62v4"/></g><path fill="#dbb471" d="M31.5 52.8c0 .5-.4.9-.9.9h-8.9c-.5 0-.9-.4-.9-.9v-2.1c0-.5.4-.9.9-.9h8.9c.5 0 .9.4.9.9v2.1"/><g fill="#ffdd7d"><path d="M55.7 55c0 .5-.4.9-.9.9H31.1c-.5 0-.9-.4-.9-.9v-.3c0-.5.4-.9.9-.9h23.7c.5 0 .9.4.9.9v.3"/><path d="M31.7 55.4c-.3.4-.8.6-1.3.3l-2.6-1.5c-.4-.3-.6-.8-.3-1.3l.1-.2c.3-.4.8-.6 1.3-.3l2.6 1.5c.4.3.6.8.3 1.3l-.1.2"/></g></svg>