<svg xmlns="http://www.w3.org/2000/svg" viewBox="0 0 64 64"><path fill="#b3bdc4" d="M29.2 12.8h9.4v4.7h-9.4z"/><path fill="#e1e8ed" d="M4.6 34.4c-.5.6-.7 3.2-.7 3.2v15h54.9s3.3-9.4 3.3-30c0-7.3-4.6-7.5-20.6-7.5s-20 1.5-23.4 4.7C14.8 22.7 8.3 30 4.6 34.4"/><path fill="#3e4347" d="M19.5 20.8 7.8 32.9h19.5V17.6c-3.6 0-6.4 1.7-7.8 3.2"/><path fill="#b3bdc4" d="M62 54.5c0 1-.8 1.9-1.9 1.9H3.9c-1 0-1.9-.8-1.9-1.9 0-1 .8-1.9 1.9-1.9h56.2c1.1 0 1.9.9 1.9 1.9"/><path fill="#f15744" d="M33.9 6.7c-1.6 0-2.6 1.3-2.8 2.8-.1.8-.9 3.3-.9 3.3h7.5s-.8-2.4-.9-3.3c-.3-1.5-1.4-2.8-2.9-2.8"/><path fill="#ffc7ce" d="M32 9.5c0 1 .8 1.9 1.9 1.9V7.6c-1.1 0-1.9.9-1.9 1.9"/><path d="m40 2-2.8 4.7 4.6-3.3zM27.7 2l2.9 4.7-4.7-3.3zm10.9 6.6 4.6-1.9 1 1.9zm-9.4 0-4.7-1.9-.9 1.9z" fill="#f15744"/><path fill="#62727a" d="M6.4 46.7v-7.2c0-1-.8-1.9-1.9-1.9h-.6v11h.6c1 0 1.9-.9 1.9-1.9"/><path d="M61.4 36.6H32.9l-3.8 3.8H6.4v3.8h24.7l3.7-3.7H61c.2-1.2.3-2.5.4-3.9m-8.8-10.7c0-.5-.4-.9-.9-.9h-3.3c-.5 0-.9-.4-.9-.9v-3.3c0-.5-.4-.9-.9-.9h-.9c-.5 0-.9.4-.9.9V24c0 .5-.4.9-.9.9h-3.3c-.5 0-.9.4-.9.9v.9c0 .5.4.9.9.9h3.3c.5 0 .9.4.9.9V32c0 .5.4.9.9.9h.9c.5 0 .9-.4.9-.9v-3.3c0-.5.4-.9.9-.9h3.3c.5 0 .9-.4.9-.9v-1" fill="#f15744"/><path fill="#3e4347" d="M56.4 54.5c0-4.1-3.4-7.5-7.5-7.5s-7.5 3.4-7.5 7.5 3.4 7.5 7.5 7.5 7.5-3.4 7.5-7.5"/><path fill="#dae3ea" d="M48.9 50.2c2.4 0 4.3 1.9 4.3 4.3s-1.9 4.3-4.3 4.3-4.3-1.9-4.3-4.3 1.9-4.3 4.3-4.3"/><g fill="#3e4347"><circle cx="48.9" cy="50.2" r="1.1"/><circle cx="45.2" cy="52.4" r="1.1"/><circle cx="45.2" cy="56.6" r="1.1"/><circle cx="48.9" cy="58.8" r="1.1"/><circle cx="52.6" cy="56.6" r="1.1"/><path d="M53.1 53.3c-.5.3-1.2.1-1.5-.4-.3-.5-.1-1.2.4-1.5.5-.3 1.2-.1 1.5.4s.1 1.2-.4 1.5"/></g><circle cx="48.9" cy="54.5" r="2.1" fill="#62727a"/><path fill="#3e4347" d="M22.6 54.5c0-4.1-3.4-7.5-7.5-7.5s-7.5 3.4-7.5 7.5S11 62 15.1 62c4.2 0 7.5-3.4 7.5-7.5"/><path fill="#dae3ea" d="M19.4 54.5c0-2.4-1.9-4.3-4.3-4.3s-4.3 1.9-4.3 4.3 1.9 4.3 4.3 4.3 4.3-1.9 4.3-4.3"/><g fill="#3e4347"><circle cx="15.1" cy="50.2" r="1.1"/><circle cx="11.4" cy="52.4" r="1.1"/><path d="M10.9 55.7c.5-.3 1.2-.1 1.5.4.3.5.1 1.2-.4 1.5-.5.3-1.2.1-1.5-.4-.3-.5-.1-1.2.4-1.5"/><circle cx="15.1" cy="58.8" r="1.1"/><circle cx="18.8" cy="56.6" r="1.1"/><circle cx="18.8" cy="52.4" r="1.1"/></g><circle cx="15.1" cy="54.5" r="2.1" fill="#62727a"/></svg>