<svg xmlns="http://www.w3.org/2000/svg" viewBox="0 0 64 64"><path d="M36.6 8.3 39.7 2l-.8 7zm8.6 3L49.6 8 47 12.9zm-17.4-3L24.7 2l.8 7zm-8.6 3L14.7 8l2.6 4.9z" fill="#42ade2"/><path fill="#62696d" d="M16.7 19.2h30.6v2.4H16.7z"/><path fill="#f15744" d="M13.6 16.4h12.2V20H13.6z"/><path fill="#badede" d="M25.9 16.4h12.2V20H25.9z"/><path fill="#42ade2" d="M38.1 16.4h12.2V20H38.1z"/><path d="M12.2 35.2s-6.2.6-8-.9c-1.2-1-2-3.5-.9-4.6 1.3-1.3 5.7-.5 6.9.6 1.3 1.2 2 4.9 2 4.9m39.6 0s6.2.6 8-.9c1.2-1 2-3.5.9-4.6-1.3-1.3-5.7-.5-6.9.6-1.3 1.2-2 4.9-2 4.9" fill="#62696d"/><path fill="#3e4347" d="M60.2 56.7H3.8s-1.3-14.6 0-15.5c10.7-7.3 8.9-19.6 11-19.6 0 0 6.7-.6 17.1-.6 10.4 0 17.1.6 17.1.6 2.4 0 .1 11.4 11 19.6 1.5 1 .2 15.5.2 15.5"/><path fill="#62696d" d="M45.1 45.6c0-.7-.5-1.3-1.1-1.3H20.1c-.6 0-1.1.6-1.1 1.3v7.1h26.1v-7.1"/><path fill="#fff" d="M16.8 48.7c0 .7-.5 1.2-1.2 1.2L6.8 49c-.7 0-1.2-.5-1.2-1.2v-3.6c0-.7.5-1.2 1.2-1.2l8.8.9c.7 0 1.2.5 1.2 1.2v3.6"/><path fill="#ffce31" d="M8.7 49.2 6.8 49c-.7 0-1.2-.5-1.2-1.2v-3.6c0-.7.5-1.2 1.2-1.2l1.8.2v6z"/><path fill="#fff" d="M47.2 48.7c0 .7.5 1.2 1.2 1.2l8.8-.9c.7 0 1.2-.5 1.2-1.2v-3.6c0-.7-.5-1.2-1.2-1.2l-8.8 1c-.7 0-1.2.5-1.2 1.2v3.5"/><path fill="#ffce31" d="m55.3 49.2 1.8-.2c.7 0 1.2-.5 1.2-1.2v-3.6c0-.7-.5-1.2-1.2-1.2l-1.8.2v6"/><path d="M11.7 34.4s5.1 2.9 7.5 7.2l-3.5 1.2s-.5-3-4-8.4m40.6 0s-5.1 2.9-7.5 7.2l3.5 1.2s.5-3 4-8.4" fill="#62696d"/><path d="M16.9 60.6c0 .8-.5 1.4-1.2 1.4H7.1c-.7 0-1.2-.6-1.2-1.4v-2.7h11v2.7m41.2 0c0 .8-.5 1.4-1.2 1.4h-8.6c-.7 0-1.2-.6-1.2-1.4v-2.7h11v2.7" fill="#3e4347"/><path fill="#c5d0d8" d="M62 57.3c0 .5-.5.8-1.2.8 0 0-12.2.8-28.8.8s-28.8-.7-28.8-.7c-.7 0-1.2-.4-1.2-.8v-4.9c0-.5.5-.8 1.2-.8 0 0 12.2.8 28.8.8s28.8-.8 28.8-.8c.7 0 1.2.4 1.2.8v4.8"/><g fill="#f15744"><circle cx="11.4" cy="55.3" r="1.9"/><circle cx="52.6" cy="55.3" r="1.9"/></g><path fill="#b4d7ee" d="M49.8 33.4S41.4 33 32 33c-9.3 0-17.8.4-17.8.4l2.5-9.5s6.6-.4 15.3-.4c8.7 0 15.3.4 15.3.4l2.5 9.5"/><path fill="#ffce31" d="M24.5 54.4h15V60h-15z"/><path d="M22.2 59.2c0 2-4 2-4 0v-8.8c0-2 4-2 4 0v8.8m23.6 0c0 2-4 2-4 0v-8.8c0-2 4-2 4 0v8.8" fill="#3e4347"/><circle cx="43.8" cy="54.1" r="3.3" fill="#62696d"/><circle cx="43.8" cy="54.1" r="2.3" fill="#fff"/><circle cx="20.2" cy="54.1" r="3.3" fill="#62696d"/><circle cx="20.2" cy="54" r="2.3" fill="#fff"/><g fill="#c5d0d8"><circle cx="13.3" cy="46.7" r="2.6"/><circle cx="50.7" cy="46.7" r="2.6"/></g></svg>