<svg xmlns="http://www.w3.org/2000/svg" viewBox="0 0 64 64"><path fill="#ffe62e" d="m58.2 38.1-5.3-1.6c-1.1-.3-2.1-1.4-2.3-2.3l-2.2-9.1c-.2-1-1.3-1.8-2.5-1.8H27.7c-1.1 0-2.4 1-2.9 1.8l-5.3 9.2c-.5.9-1.8 1.9-2.8 2.2L8.4 39c-1.1.3-2.2 1.8-2.5 2.7l.6 1.9-1.6 1.8-1 3.7h56.2v-8.3c0-1-.9-2.4-1.9-2.7"/><path fill="#b2c1c0" d="M62 51.3c0-1.4-.5-2.2-1.5-2.2h-57c-1 0-1.5.8-1.5 2.2 0 .3.1 2 .2 2.3.2 1.2 1.2 1.1 2.3 1.1h55.1c1 0 2 .1 2.3-1.1 0-.3.1-2 .1-2.3"/><path d="M35.8 34.2c0 .6.4 1 .9 1h7.7c.5 0 .8-.4.7-1L43.8 27c-.1-.6-.6-1-1.1-1h-6c-.5 0-.9.5-.9 1v7.2m-1.9-7.1c0-.6-.4-1-.9-1h-5.1c-.5 0-1.1.4-1.4.9l-3.8 7.4c-.2.5 0 .9.5.9h9.7c.5 0 .9-.5.9-1v-7.2z" fill="#3e4347"/><path fill="#fff" d="M4.9 45.4h2.8c.5 0 1-.4 1.1-.9l.6-1.8c.2-.5-.1-.9-.5-.9h-3l-1 3.6"/><path fill="#f15744" d="M60.1 41.7h-2.3c-.4 0-.8.4-.9.9 0 0-.4 1.4-.5 1.8-.1.5.1.9.4.9h3.3v-3.6"/><path d="M25 42.2c0 .3-.2.5-.5.5h-1.9c-.3 0-.5-.2-.5-.5v-1.8c0-.3.2-.5.5-.5h1.9c.3 0 .5.2.5.5v1.8m2.8 2.8c0 .3-.2.5-.5.5h-1.9c-.3 0-.5-.2-.5-.5v-1.8c0-.3.2-.5.5-.5h1.9c.3 0 .5.2.5.5V45m2.8-2.8c0 .3-.2.5-.5.5h-1.9c-.3 0-.5-.2-.5-.5v-1.8c0-.3.2-.5.5-.5h1.9c.3 0 .5.2.5.5v1.8m2.8 2.8c0 .3-.2.5-.5.5H31c-.3 0-.5-.2-.5-.5v-1.8c0-.3.2-.5.5-.5h1.9c.3 0 .5.2.5.5V45m2.8-2.8c0 .3-.2.5-.5.5h-1.9c-.3 0-.5-.2-.5-.5v-1.8c0-.3.2-.5.5-.5h1.9c.3 0 .5.2.5.5v1.8M39 45c0 .3-.2.5-.5.5h-1.9c-.3 0-.5-.2-.5-.5v-1.8c0-.3.2-.5.5-.5h1.9c.3 0 .5.2.5.5V45m2.8-2.8c0 .3-.2.5-.5.5h-1.9c-.3 0-.5-.2-.5-.5v-1.8c0-.3.2-.5.5-.5h1.9c.3 0 .5.2.5.5v1.8" fill="#3e4347"/><path fill="#f15744" d="M34.2 16.7c-.2-.9-1.1-.8-1.9-.8-.9 0-1.7-.1-1.9.8l-.8 4.8H35l-.8-4.8"/><g fill="#3e4347"><path d="M35.5 21.5h-2.2l-.3-5.6c-.1-1-.4-.9-.8-.9-.3 0-.7-.1-.8.9l-.3 5.5H29c-.6 0-1.1.4-1.1.9v.9h8.7v-.9c0-.4-.5-.8-1.1-.8"/><ellipse cx="16.1" cy="53.7" rx="8.4" ry="8.3"/></g><ellipse cx="16.1" cy="53.7" fill="#e8e8e8" rx="4.8" ry="4.7"/><path d="M17.2 51.4c-.2.6-.7 1.2-1.1 1.2s-.9-.5-1.1-1.2v-.1c-.2-.6.3-1.1 1.2-1.1.7 0 1.2.5 1 1.2m-2.6.2c.5.5.7 1.2.4 1.5-.2.4-.9.5-1.6.4h-.1c-.7-.1-.9-.8-.4-1.6.5-.7 1.2-.9 1.7-.3m-1.2 2.3c.7-.1 1.4 0 1.6.4.2.4 0 1.1-.4 1.5l-.1.1c-.5.5-1.2.3-1.6-.4-.4-.7-.2-1.4.5-1.6m1.5 2.1c.2-.6.7-1.1 1.1-1.1s.9.5 1.1 1.1v.1c.2.6-.3 1.1-1.2 1.1-.7.1-1.2-.5-1-1.2m2.6-.2c-.5-.5-.7-1.2-.4-1.5.2-.4.9-.5 1.6-.4h.1c.7.1.9.8.4 1.6-.4.7-1.1.9-1.7.3m1.2-2.3c-.7.1-1.4 0-1.6-.4-.2-.4 0-1.1.4-1.5l.1-.1c.5-.5 1.2-.3 1.6.4.4.7.2 1.4-.5 1.6" fill="#3e4347"/><g fill="#e8e8e8"><path d="m18.7 57-1.1.6-4.2-7.2 1.1-.6z"/><path d="M11.8 53.1h8.4v1.2h-8.4z"/><path d="m17.6 49.8 1.1.6-4.2 7.2-1.1-.6z"/></g><ellipse cx="47.9" cy="53.7" fill="#3e4347" rx="8.4" ry="8.3"/><ellipse cx="47.9" cy="53.7" fill="#e8e8e8" rx="4.8" ry="4.7"/><path d="M49.1 51.4c-.2.6-.7 1.2-1.1 1.2s-1-.6-1.2-1.2v-.1c-.2-.6.3-1.1 1.2-1.1.8 0 1.3.5 1.1 1.2m-2.6.2c.5.5.7 1.2.4 1.5-.2.4-.9.5-1.6.4h-.1c-.7-.1-.9-.8-.4-1.6.4-.7 1.1-.9 1.7-.3m-1.2 2.3c.7-.1 1.4 0 1.6.4.2.4 0 1.1-.4 1.5l-.1.1c-.5.5-1.2.3-1.6-.4-.4-.7-.2-1.4.5-1.6m1.5 2.1c.2-.6.7-1.1 1.1-1.1s.9.5 1.1 1.1v.1c.2.6-.3 1.1-1.2 1.1-.7.1-1.2-.5-1-1.2m2.6-.2c-.5-.5-.7-1.2-.4-1.5.2-.4.9-.5 1.6-.4h.1c.7.1.9.8.4 1.6-.5.7-1.2.9-1.7.3m1.2-2.3c-.7.1-1.4 0-1.6-.4-.2-.4 0-1.1.4-1.5l.1-.1c.5-.5 1.2-.3 1.6.4.4.7.2 1.4-.5 1.6" fill="#3e4347"/><g fill="#e8e8e8"><path d="m50.6 57-1.1.6-4.2-7.2 1.1-.6z"/><path d="M43.7 53.1h8.4v1.2h-8.4z"/><path d="m49.5 49.8 1.1.6-4.2 7.2-1.1-.6z"/></g></svg>