<svg xmlns="http://www.w3.org/2000/svg" viewBox="0 0 64 64"><path fill="#b2c1c0" d="M62 50.8c0-1-.8-1.9-1.9-1.9H3.9c-1 0-1.9.8-1.9 1.9v1.9c0 1 .8 1.9 1.9 1.9h56.2c1 0 1.9-.8 1.9-1.9v-1.9"/><ellipse cx="12.3" cy="55.5" fill="#3e4347" rx="6.6" ry="6.5"/><ellipse cx="12.3" cy="55.5" fill="#b2c1c0" rx="3.8" ry="3.7"/><ellipse cx="50.8" cy="55.5" fill="#3e4347" rx="6.6" ry="6.5"/><ellipse cx="50.8" cy="55.5" fill="#b2c1c0" rx="3.8" ry="3.7"/><path fill="#62727a" d="M54.5 19H28.2c-3.1 0-5.6 2.5-5.6 5.6v24.3h37.5V24.6c0-3.1-2.5-5.6-5.6-5.6"/><path fill="#f15744" d="M15.1 26.5c-4.5 0-5.6 0-5.6 7.5 0 5.6-5.6 5.6-5.6 11.2v3.7h18.8V26.5h-7.6"/><path fill="#ffce31" d="M5.8 43.3h1.9V47H5.8z"/><path fill="#d33b23" d="M12.8 39.6c-1.1 0-1.7.8-1.3 1.8l1.6 4c.4 1 1.6 1.7 2.7 1.7h3c1.1 0 2-.8 2-1.9v-3.7c0-1-.9-1.9-2-1.9h-6"/><g fill="#3e4347"><path d="M20.8 28.3h-7.5s-1.9.2-1.9 2.8v4.5s0 2.1 1.9 2.1h7.5v-9.4"/><circle cx="12.3" cy="51.7" r=".9"/><circle cx="9.1" cy="53.6" r=".9"/><path d="M8.6 56.5c.4-.3 1-.1 1.3.3.3.4.1 1-.3 1.3-.4.3-1 .1-1.3-.3-.3-.5-.2-1 .3-1.3"/><circle cx="12.3" cy="59.2" r=".9"/><circle cx="15.6" cy="57.3" r=".9"/><circle cx="15.6" cy="53.6" r=".9"/></g><circle cx="12.3" cy="55.5" fill="#62727a" r="1.9"/><g fill="#3e4347"><circle cx="50.8" cy="51.7" r=".9"/><circle cx="47.5" cy="53.6" r=".9"/><path d="M47 56.5c.4-.3 1-.1 1.3.3.3.4.1 1-.3 1.3-.4.3-1 .1-1.3-.3-.3-.5-.1-1 .3-1.3"/><circle cx="50.8" cy="59.2" r=".9"/><circle cx="54" cy="57.3" r=".9"/><circle cx="54" cy="53.6" r=".9"/></g><circle cx="50.8" cy="55.5" fill="#62727a" r="1.9"/><path d="M27.3 30.2v-5.6c0-.5.4-.9.9-.9h26.2c.5 0 .9.4.9.9v5.6h1.9v-5.6c0-1.5-1.3-2.8-2.8-2.8H28.2c-1.6 0-2.8 1.3-2.8 2.8v5.6h1.9m28.1 9.4v3.7c0 .5-.4.9-.9.9H28.2c-.5 0-.9-.4-.9-.9v-3.7h-1.9v3.7c0 1.5 1.3 2.8 2.8 2.8h26.2c1.6 0 2.8-1.3 2.8-2.8v-3.7h-1.8" fill="#3e4347"/><g fill="#b2c1c0"><circle cx="29.2" cy="25.5" r=".9"/><circle cx="53.6" cy="25.5" r=".9"/><circle cx="29.2" cy="42.4" r=".9"/><circle cx="53.6" cy="42.4" r=".9"/></g><path fill="#62727a" d="M37.6 55.5c0 1-.8 1.9-1.9 1.9h-7.5c-1 0-1.9-.8-1.9-1.9v-1.9c0-1 .8-1.9 1.9-1.9h7.5c1 0 1.9.8 1.9 1.9v1.9"/><path fill="#b2c1c0" d="M28.5 52.7c-.6 0-1.2.4-1.2.9s.5.9 1.2.9h7c.6 0 1.2-.4 1.2-.9s-.5-.9-1.2-.9h-7"/></svg>