<svg xmlns="http://www.w3.org/2000/svg" viewBox="0 0 64 64"><path fill="#b2c1c0" d="M62 50.8c0-1-.8-1.9-1.9-1.9H3.9c-1 0-1.9.8-1.9 1.9v1.9c0 1 .8 1.9 1.9 1.9h56.2c1 0 1.9-.8 1.9-1.9v-1.9"/><ellipse cx="12.3" cy="55.5" fill="#3e4347" rx="6.6" ry="6.5"/><ellipse cx="12.3" cy="55.5" fill="#b2c1c0" rx="3.8" ry="3.7"/><ellipse cx="38.8" cy="55.5" fill="#3e4347" rx="6.6" ry="6.5"/><ellipse cx="38.8" cy="55.5" fill="#b2c1c0" rx="3.8" ry="3.7"/><ellipse cx="52.8" cy="55.5" fill="#3e4347" rx="6.6" ry="6.5"/><ellipse cx="52.8" cy="55.5" fill="#b2c1c0" rx="3.8" ry="3.7"/><path fill="#42ade2" d="M15.1 26.5c-4.5 0-5.6 0-5.6 7.5 0 5.6-5.6 5.6-5.6 11.2v3.7h18.8V26.5h-7.6"/><path fill="#ffce31" d="M5.8 43.3h1.9V47H5.8z"/><path fill="#22648c" d="M12.8 39.6c-1.1 0-1.7.8-1.3 1.8l1.6 4c.4 1 1.6 1.7 2.7 1.7h3c1.1 0 2-.8 2-1.9v-3.7c0-1-.9-1.9-2-1.9h-6"/><g fill="#3e4347"><path d="M20.8 28.3h-7.5s-1.9.2-1.9 2.8v4.5s0 2.1 1.9 2.1h7.5v-9.4"/><circle cx="12.3" cy="51.7" r=".9"/><circle cx="9.1" cy="53.6" r=".9"/><circle cx="9.1" cy="57.3" r=".9"/><circle cx="12.3" cy="59.2" r=".9"/><circle cx="15.6" cy="57.3" r=".9"/><circle cx="15.6" cy="53.6" r=".9"/></g><circle cx="12.3" cy="55.5" fill="#62727a" r="1.9"/><g fill="#3e4347"><circle cx="38.8" cy="51.7" r=".9"/><circle cx="35.5" cy="53.6" r=".9"/><circle cx="35.5" cy="57.3" r=".9"/><circle cx="38.8" cy="59.2" r=".9"/><circle cx="42" cy="57.3" r=".9"/><circle cx="42" cy="53.6" r=".9"/></g><circle cx="38.8" cy="55.5" fill="#62727a" r="1.9"/><g fill="#3e4347"><circle cx="52.8" cy="51.7" r=".9"/><circle cx="49.5" cy="53.6" r=".9"/><circle cx="49.5" cy="57.3" r=".9"/><circle cx="52.8" cy="59.2" r=".9"/><circle cx="56" cy="57.3" r=".9"/><circle cx="56" cy="53.6" r=".9"/></g><circle cx="52.8" cy="55.5" fill="#62727a" r="1.9"/></svg>