<svg xmlns="http://www.w3.org/2000/svg" viewBox="0 0 64 64"><path fill="#f15744" d="m58.2 37.9-3.4-1.6c-1.1-.3-2.1-1.4-2.3-2.4l-2.2-10.1c-.2-1-1.3-1.9-2.4-1.9h-22c-1.1 0-2.4 1-2.9 1.9 0 0-3.3 6.5-4.3 8.4-.5.9-2.7 2.8-3.8 3.1-2.1.8-6.4 3.4-6.4 3.4-1.1.3-2.2 1.8-2.5 2.7l.6 1.9L5 45.1l-1 3.7h56.2v-8.4c-.1-.8-1-2.2-2-2.5"/><path fill="#b2c1c0" d="M62 51.2c0-1.4-.5-2.2-1.5-2.2h-57c-1 0-1.5.8-1.5 2.2 0 .3.1 2 .2 2.3.2 1.2 1.2 1.1 2.3 1.1h55.1c1 0 2 .1 2.3-1.1 0-.3.1-2 .1-2.3"/><path d="M37.6 34c0 .6.4 1 .9 1h9.6c.5 0 .8-.5.7-1l-1.3-8.2c-.1-.6-.6-1-1.1-1h-7.9c-.5 0-.9.5-.9 1V34m-2.8-8.2c0-.6-.4-1-.9-1h-7c-.5 0-1.1.4-1.4.9l-3.8 8.4c-.2.5 0 .9.5.9h11.6c.5 0 .9-.5.9-1v-8.2z" fill="#3e4347"/><path fill="#fff" d="M4.9 45.3h2.8c.5 0 1-.4 1.1-.9l.6-1.9c.2-.5-.1-.9-.5-.9h-3l-1 3.7"/><path fill="#ffe62e" d="M60.1 41.5h-2.3c-.4 0-.8.4-.9.9 0 0-.4 1.4-.5 1.9-.1.5.1.9.4.9h3.3v-3.7"/><circle cx="16.1" cy="53.6" fill="#3e4347" r="8.4"/><path fill="#e8e8e8" d="M20.9 53.6c0 2.6-2.2 4.8-4.8 4.8-2.7 0-4.8-2.1-4.8-4.8 0-2.6 2.2-4.8 4.8-4.8 2.6 0 4.8 2.2 4.8 4.8"/><path d="M17.2 51.3c-.2.6-.7 1.2-1.1 1.2s-.9-.5-1.1-1.2v-.1c-.2-.6.3-1.2 1.2-1.2.7 0 1.2.6 1 1.3m-2.6.2c.4.5.6 1.2.4 1.5-.2.4-.9.5-1.6.4h-.1c-.7-.1-.9-.9-.4-1.6.5-.7 1.2-.9 1.7-.3m-1.2 2.3c.7-.1 1.4 0 1.6.4.2.4 0 1.1-.4 1.6l-.1.1c-.5.5-1.2.3-1.6-.4-.4-.8-.2-1.5.5-1.7m1.5 2.2c.2-.6.7-1.2 1.1-1.2s.9.5 1.1 1.2v.1c.2.6-.3 1.2-1.2 1.2-.7-.1-1.2-.6-1-1.3m2.6-.2c-.5-.5-.7-1.2-.4-1.6.2-.4.9-.5 1.6-.4h.1c.7.1.9.9.4 1.6-.4.7-1.1.9-1.7.4m1.2-2.4c-.7.1-1.4 0-1.6-.4-.2-.4 0-1.1.4-1.6l.1-.1c.5-.5 1.2-.3 1.6.4.4.9.2 1.6-.5 1.7" fill="#3e4347"/><g fill="#e8e8e8"><path d="m18.7 57-1.1.6-4.2-7.3 1.1-.6z"/><path d="M11.8 53h8.4v1.2h-8.4z"/><path d="m17.6 49.7 1.1.6-4.2 7.3-1.1-.6z"/></g><circle cx="47.9" cy="53.6" fill="#3e4347" r="8.4"/><path fill="#e8e8e8" d="M52.8 53.6c0 2.6-2.2 4.8-4.8 4.8s-4.8-2.1-4.8-4.8c0-2.6 2.2-4.8 4.8-4.8s4.8 2.2 4.8 4.8"/><path d="M49.1 51.3c-.2.6-.7 1.2-1.1 1.2s-.9-.5-1.1-1.2v-.1c-.2-.6.3-1.2 1.2-1.2.7 0 1.2.6 1 1.3m-2.6.2c.5.5.7 1.2.4 1.6-.2.4-.9.5-1.6.4h-.1c-.7-.1-.9-.9-.4-1.6.4-.8 1.1-1 1.7-.4m-1.2 2.3c.7-.1 1.4 0 1.6.4.2.4 0 1.1-.4 1.6l-.1.1c-.5.5-1.2.3-1.6-.4-.4-.8-.2-1.5.5-1.7m1.5 2.2c.2-.6.7-1.2 1.1-1.2s.9.5 1.1 1.2v.1c.2.6-.3 1.2-1.2 1.2-.7-.1-1.2-.6-1-1.3m2.6-.2c-.5-.5-.7-1.2-.4-1.6.2-.4.9-.5 1.6-.4h.1c.7.1.9.9.4 1.6-.5.7-1.2.9-1.7.4m1.2-2.4c-.7.1-1.4 0-1.6-.4-.2-.4 0-1.1.4-1.6l.1-.1c.5-.5 1.2-.3 1.6.4.4.9.2 1.6-.5 1.7" fill="#3e4347"/><g fill="#e8e8e8"><path d="m50.6 57-1.1.6-4.2-7.3 1.1-.6z"/><path d="M43.7 53h8.4v1.2h-8.4z"/><path d="m49.5 49.7 1.1.6-4.2 7.3-1.1-.6z"/></g></svg>