<svg xmlns="http://www.w3.org/2000/svg" viewBox="0 0 64 64"><path fill="#3e4347" d="m4.88 57.294 57.956-15.529.491 1.835L5.372 59.13z"/><path fill="#89664c" d="M5.372 59.13 63.327 43.6l.492 1.836L5.864 60.965z"/><path fill="#dbb471" d="m41.594 49.424 3.67-.984.492 1.835-3.67.984zm-7.244 1.94 3.67-.983.492 1.836-3.67.983zm21.733-5.823 3.67-.983.492 1.835-3.67.984zm-7.244 1.942 3.67-.984.492 1.835-3.67.984zm-36.223 9.705 3.67-.983.493 1.835-3.67.984zM5.372 59.13l3.67-.983.492 1.835-3.67.984zm21.733-5.823 3.67-.983.493 1.835-3.671.983zm-7.244 1.941 3.67-.983.492 1.835-3.67.983z"/><g transform="rotate(-15 -15.192 48.808)"><ellipse cx="11" cy="57.2" fill="#94989b" rx="4.7" ry="4.8"/><path fill="#3e4347" d="M11 60.4c-1.7 0-3.1-1.4-3.1-3.2 0-1.7 1.4-3.2 3.1-3.2s3.1 1.4 3.1 3.2c0 1.8-1.4 3.2-3.1 3.2m0-4.7c-.9 0-1.6.7-1.6 1.6 0 .9.7 1.6 1.6 1.6s1.6-.7 1.6-1.6c0-.9-.7-1.6-1.6-1.6"/><ellipse cx="21.4" cy="57.2" fill="#94989b" rx="4.7" ry="4.8"/><path fill="#3e4347" d="M21.4 60.4c-1.7 0-3.1-1.4-3.1-3.2 0-1.7 1.4-3.2 3.1-3.2s3.1 1.4 3.1 3.2c0 1.8-1.4 3.2-3.1 3.2m0-4.7c-.9 0-1.6.7-1.6 1.6 0 .9.7 1.6 1.6 1.6s1.6-.7 1.6-1.6c-.1-.9-.8-1.6-1.6-1.6"/><ellipse cx="42.6" cy="57.2" fill="#94989b" rx="4.7" ry="4.8"/><path fill="#3e4347" d="M42.6 60.4c-1.7 0-3.1-1.4-3.1-3.2 0-1.7 1.4-3.2 3.1-3.2s3.1 1.4 3.1 3.2c0 1.8-1.4 3.2-3.1 3.2m0-4.7c-.9 0-1.6.7-1.6 1.6 0 .9.7 1.6 1.6 1.6s1.6-.7 1.6-1.6c0-.9-.7-1.6-1.6-1.6"/><ellipse cx="53" cy="57.2" fill="#94989b" rx="4.7" ry="4.8"/><path fill="#3e4347" d="M53 60.4c-1.7 0-3.1-1.4-3.1-3.2 0-1.7 1.4-3.2 3.1-3.2s3.1 1.4 3.1 3.2c0 1.8-1.4 3.2-3.1 3.2m0-4.7c-.9 0-1.6.7-1.6 1.6 0 .9.7 1.6 1.6 1.6.9 0 1.6-.7 1.6-1.6-.1-.9-.8-1.6-1.6-1.6"/><path fill="#f2b200" d="M54.3 20H9.7c-3 0-5.4 2.5-5.4 5.5v31.7h55.4V25.5c0-3-2.4-5.5-5.4-5.5"/><path fill="#699635" d="M54.3 20H9.7c-3 0-5.4 2.5-5.4 5.5v2.8h55.4v-2.8c0-3-2.4-5.5-5.4-5.5"/><path fill="#ffe62e" d="M4.3 28.3h55.4v15.2H4.3z"/><g fill="#3e4347"><path d="M3.7 54.5h.6v2.8h-.6z"/><path d="M2 53.1h1.7v5.5H2zm57.7 1.4h.6v2.8h-.6z"/><path d="M60.3 53.1H62v5.5h-1.7z"/></g><path fill="#89664c" d="M26 52.1h12l2.7-2.8h19v-2.8H39.5l-2.7 2.8h-9.6l-2.7-2.8H4.3v2.8h19z"/><path fill="#3e4347" d="M56.6 39.6c0 .6-.5 1.1-1 1.1h-6c-.6 0-1-.5-1-1.1v-7.5c0-.6.5-1.1 1-1.1h6c.6 0 1 .5 1 1.1v7.5m-10.3 0c0 .6-.5 1.1-1 1.1h-6c-.6 0-1-.5-1-1.1v-7.5c0-.6.5-1.1 1-1.1h6c.6 0 1 .5 1 1.1v7.5m-10.2 0c0 .6-.5 1.1-1 1.1h-6c-.6 0-1-.5-1-1.1v-7.5c0-.6.5-1.1 1-1.1h6c.6 0 1 .5 1 1.1v7.5m-10.3 0c0 .6-.5 1.1-1 1.1h-6c-.6 0-1-.5-1-1.1v-7.5c0-.6.5-1.1 1-1.1h6c.6 0 1 .5 1 1.1v7.5m-10.3 0c0 .6-.5 1.1-1 1.1h-6c-.6 0-1-.5-1-1.1v-7.5c0-.6.5-1.1 1-1.1h6c.6 0 1 .5 1 1.1v7.5M4.3 53.1h55.4v4.1H4.3z"/><path fill="#b4d7ee" d="M14.4 38.5c0 .5-.4.9-.9.9h-4c-.5 0-.9-.4-.9-.9v-5.2c0-.5.4-.9.9-.9h4c.5 0 .9.4.9.9v5.2m10.2 0c0 .5-.4.9-.9.9h-4c-.5 0-.9-.4-.9-.9v-5.2c0-.5.4-.9.9-.9h4c.5 0 .9.4.9.9v5.2m10.3 0c0 .5-.4.9-.9.9h-4c-.5 0-.9-.4-.9-.9v-5.2c0-.5.4-.9.9-.9h4c.5 0 .9.4.9.9v5.2m10.3 0c0 .5-.4.9-.9.9h-4c-.5 0-.9-.4-.9-.9v-5.2c0-.5.4-.9.9-.9h4c.5 0 .9.4.9.9v5.2m10.2 0c0 .5-.4.9-.9.9h-4c-.5 0-.9-.4-.9-.9v-5.2c0-.5.4-.9.9-.9h4c.5 0 .9.4.9.9v5.2"/></g></svg>