<svg xmlns="http://www.w3.org/2000/svg" viewBox="0 0 64 64"><path fill="#428bc1" d="M55.4 33.1s-5.3-13.7-7.2-14.8C45.3 16.5 35.9 16 32 16c-3.9 0-13.3.5-16.2 2.3-1.9 1.1-7.2 14.8-7.2 14.8h46.8"/><path d="M5.8 50.3V60c0 1.1.8 2 1.9 2h3.8c1 0 1.9-.9 1.9-2v-9.8H5.8zm45 0V60c0 1.1.8 2 1.9 2h3.8c1 0 1.9-.9 1.9-2v-9.8h-7.6z" fill="#3e4347"/><path fill="#428bc1" d="M60.5 50.5c-.5 1-1.9 1.8-3.1 1.8H6.6c-1.2 0-2.5-.8-3.1-1.8l-.2-.5c-.5-1-.5-2.2.1-2.7s2-1 3.2-1h50.8c1.2 0 2.6.4 3.2 1 .6.5.6 1.8.1 2.7l-.2.5"/><path fill="#42ade2" d="M56.2 48.3c.5.5.1 1-.9 1H8.7c-1 0-1.4-.4-.9-1 .5-.5 1.7-1 2.7-1h43c1 0 2.2.5 2.7 1"/><path fill="#428bc1" d="M59.5 34.3c-2.2-1.1-5-2.3-5-2.3h-45s-2.9 1.2-5 2.3c-1.6.8-2.5 1.3-2.5 2.8l1.1 7.2c.3 1.7 2.5 3 4.9 3h48c2.4 0 4.6-1.4 4.9-3l1.1-7.2c0-1.5-.9-2-2.5-2.8"/><path fill="#3e4347" d="M51.6 30.4S48.4 21 46.7 20c-2.6-1.5-11.2-2-14.7-2s-12.1.5-14.7 2c-1.7 1-4.9 10.4-4.9 10.4-.4.7.3 1.3 1.5 1.3h36.2c1.2 0 1.9-.6 1.5-1.3"/><path fill="#42ade2" d="M42.1 31.5c-1.9-1.8-4.1-1.8-5.2-1.8h-9.8c-1.1 0-3.5 0-5.2 1.8l-2.1 2.1h24.4l-2.1-2.1"/><path fill="#3e4347" d="M40.6 32.8c-.6-.6-.9-1.1-3.6-1.1H26.2c-1.9 0-2 .5-2.7 1.1-.2.2-.8.9-.8.9h18.8l-.9-.9"/><path fill="#42ade2" d="M7.6 52.2s.2 1.6.4 2.2c.3 1 1.7 1.8 2.8 1.8h42.4c1.1 0 2.5-.7 2.8-1.8.2-.5.4-2.2.4-2.2H7.6"/><path fill="#3e4347" d="M44.2 57C39 58.5 25 58.5 19.8 57c-.4-.1-.9-.9-.9-.9h26.2s-.5.8-.9.9"/><path fill="#42ade2" d="M59 41.5c-.4 2.1-2.4 3.8-4.5 3.8h-45c-2.1 0-4.1-1.7-4.5-3.8l-.4-2.1c-.4-2.1 1-3.8 3-3.8h48.8c2.1 0 3.4 1.7 3 3.8l-.4 2.1"/><path fill="#3e4347" d="M25.9 42.2c-.9.6-2.4 1.2-3.5 1.2H8.6c-1.1 0-2-.9-2-2v-2c0-1.1.9-2 2-2h13.7c1.1 0 2.7.5 3.5 1.2l.8.6c.9.6.9 1.7 0 2.3l-.7.7"/><g fill="#f9f3d9"><ellipse cx="11.4" cy="40.5" rx="2.8" ry="2.9"/><ellipse cx="19.8" cy="40.5" rx="2.8" ry="2.9"/></g><path fill="#3e4347" d="M38.1 42.2c.9.6 2.4 1.2 3.5 1.2h13.7c1.1 0 2-.9 2-2v-2c0-1.1-.9-2-2-2H41.6c-1.1 0-2.7.5-3.5 1.2l-.8.6c-.9.6-.9 1.7 0 2.3l.8.7"/><g fill="#f9f3d9"><ellipse cx="52.6" cy="40.5" rx="2.8" ry="2.9"/><ellipse cx="44.2" cy="40.5" rx="2.8" ry="2.9"/></g><path d="M9.5 31.7c.1.5-.2 1-.8 1H5.5c-.5 0-1.1-.4-1.2-1l-.4-2c-.1-.5.2-1 .8-1h3.1c.6 0 1.1.4 1.2 1l.5 2m45 0c-.1.5.2 1 .8 1h3.1c.5 0 1.1-.4 1.2-1l.4-2c.1-.5-.2-1-.8-1h-3.1c-.5 0-1.1.4-1.2 1l-.4 2" fill="#428bc1"/><path d="M38.6 35.6H25.4l1.9-2h9.4zM25.4 52.2h13.1v3.9H25.4z" fill="#b4d7ee"/><path d="M30.8 33.6h1.9v2h-1.9zm0 18.6h1.9v3.9h-1.9z" fill="#428bc1"/></svg>