<svg xmlns="http://www.w3.org/2000/svg" viewBox="0 0 64 64"><path fill="#3e4347" d="M61.2 41.1c.1.5-.2 1-.6 1.1l-2.1.4-2.1-12.2 1.8-.2c.5-.1 1 .2 1.1.7l1.9 10.2"/><path fill="#42ade2" d="M56.3 27.7s1.3-.5 1.3-2.7H33.7c-2.1 0-4.8-.1-7.2 4.5-2.1 3.9-5.3 8.1-5.4 8.2-12.4 0-15.4 6.7-16.2 7.5-1.3 1.3-.9 9.4-.9 9.4h53.6s2.6 0 2.6-4.1c-.1-4.2-3.9-22.8-3.9-22.8"/><path d="M5.8 55.5c0 .5-.4.9-.9.9h-2c-.5 0-.9-.4-.9-.9v-4.6c0-.5.4-.9.9-.9h1.9c.5 0 .9.4.9.9l.1 4.6m33.1 0c0 .5-.4.9-.9.9H26c-.5 0-.9-.4-.9-.9v-1.8c0-.5.4-.9.9-.9h12c.5 0 .9.4.9.9v1.8m23.1 0c0 .5-.4.9-.9.9h-1.9c-.5 0-.9-.4-.9-.9V50c0-.5.4-.9.9-.9h1.9c.5 0 .9.4.9.9v5.5" fill="#3e4347"/><path d="M16.1 44.7c3.7 0 6.9 2.2 8.5 5.4-.8-4.2-4.3-7.4-8.5-7.4s-7.7 3.2-8.5 7.4c1.6-3.3 4.8-5.4 8.5-5.4m31.8 0c3.7 0 6.8 2.2 8.4 5.4-.7-4.2-4.2-7.4-8.4-7.4s-7.7 3.2-8.4 7.4c1.6-3.3 4.8-5.4 8.4-5.4" fill="#b4d7ee"/><path fill="#d6eef0" d="M3.9 49.1s0-2.5.5-3c.5-.6 1.8-.8 3-.6.9.2-.5 2.6-3.5 3.6"/><g fill="#3e4347"><path d="M41.7 38.2c0 .7.5 1.2 1.1 1.2H52c.6 0 1-.5.9-1.2l-1.6-8.6c-.1-.7-.7-1.2-1.3-1.2h-7.2c-.6 0-1.1.5-1.1 1.2v8.6m-2.2-8.6c0-.7-.5-1.2-1.1-1.2h-6.1c-.6 0-1.3.5-1.6 1.1l-4.5 8.9c-.3.6 0 1.1.6 1.1h11.6c.6 0 1.1-.5 1.1-1.2v-8.7"/><ellipse cx="16.1" cy="53.7" rx="8.4" ry="8.3"/></g><ellipse cx="16.1" cy="53.7" fill="#e8e8e8" rx="4.8" ry="4.7"/><path d="M17.2 51.4c-.2.6-.7 1.1-1.1 1.1s-.9-.5-1.1-1.1v-.1c-.2-.6.3-1.1 1.2-1.1.7 0 1.2.5 1 1.2m-2.6.2c.5.5.7 1.2.4 1.5-.2.4-.9.5-1.6.4h-.1c-.7-.1-.9-.8-.4-1.6.5-.7 1.2-.9 1.7-.3m-1.2 2.3c.7-.1 1.4 0 1.6.4.2.4 0 1.1-.4 1.5l-.1.1c-.5.5-1.2.3-1.6-.4-.4-.7-.2-1.4.5-1.6m1.5 2.1c.2-.6.7-1.1 1.1-1.1s.9.5 1.1 1.1v.1c.2.6-.3 1.1-1.2 1.1-.7.1-1.2-.5-1-1.2m2.6-.2c-.5-.5-.7-1.2-.4-1.5.2-.4.9-.5 1.6-.4h.1c.7.1.9.8.4 1.6-.4.7-1.1.9-1.7.3m1.2-2.3c-.7.1-1.4 0-1.6-.4-.2-.4 0-1.1.4-1.5l.1-.1c.5-.5 1.2-.3 1.6.4.4.7.2 1.4-.5 1.6" fill="#3e4347"/><g fill="#e8e8e8"><path d="m18.7 57-1.1.6-4.2-7.2 1.1-.6z"/><path d="M11.8 53.1h8.4v1.2h-8.4z"/><path d="m17.6 49.8 1.1.6-4.2 7.2-1.1-.6z"/></g><ellipse cx="47.9" cy="53.7" fill="#3e4347" rx="8.4" ry="8.3"/><ellipse cx="47.9" cy="53.7" fill="#e8e8e8" rx="4.8" ry="4.7"/><path d="M49.1 51.4c-.2.6-.7 1.1-1.1 1.1s-1-.5-1.2-1.1v-.1c-.2-.6.3-1.1 1.2-1.1.8 0 1.3.5 1.1 1.2m-2.6.2c.5.5.7 1.2.4 1.5-.2.4-.9.5-1.6.4h-.1c-.7-.1-.9-.8-.4-1.6.4-.7 1.1-.9 1.7-.3m-1.2 2.3c.7-.1 1.4 0 1.6.4.2.4 0 1.1-.4 1.5l-.1.1c-.5.5-1.2.3-1.6-.4-.4-.7-.2-1.4.5-1.6m1.5 2.1c.2-.6.7-1.1 1.1-1.1s.9.5 1.1 1.1v.1c.2.6-.3 1.1-1.2 1.1-.7.1-1.2-.5-1-1.2m2.6-.2c-.5-.5-.7-1.2-.4-1.5.2-.4.9-.5 1.6-.4h.1c.7.1.9.8.4 1.6-.5.7-1.2.9-1.7.3m1.2-2.3c-.7.1-1.4 0-1.6-.4-.2-.4 0-1.1.4-1.5l.1-.1c.5-.5 1.2-.3 1.6.4.4.7.2 1.4-.5 1.6" fill="#3e4347"/><g fill="#e8e8e8"><path d="m50.6 57-1.1.6-4.2-7.2 1.1-.6z"/><path d="M43.7 53.1h8.4v1.2h-8.4z"/><path d="m49.5 49.8 1.1.6-4.2 7.2-1.1-.6z"/></g><g fill="#3e4347"><path d="M37.7 21s-2.1 1-2.1 4h2.1s-.2-2.6 1.9-4h-1.9m11.9 0s2.1 1 2.1 4h-2.1s.2-2.6-1.9-4h1.9"/><path d="M34.5 22h18.1c1.5 0 1.5-2 0-2H34.5c-1.5 0-1.5 2 0 2"/></g></svg>