<svg xmlns="http://www.w3.org/2000/svg" viewBox="0 0 64 64"><g fill="#ffe62e"><path d="M58.2 31.1s-1.9 2.1-1.9 3.8l-.9-4.3 2.8.5"/><path d="M57.3 27.9s2.7-.5 3.8.5c.6.6.9 2.3.9 2.3 0 1-.8 1.8-1.9 1.8h-2.8c-1 0-1.9-.8-1.9-1.8v-.9c0-1.1.9-1.9 1.9-1.9M5.8 31.1s1.9 2.1 1.9 3.8l.9-4.3-2.8.5"/><path d="M6.7 27.9s-2.7-.5-3.8.5c-.6.6-.9 2.3-.9 2.3 0 1 .8 1.8 1.9 1.8h2.8c1 0 1.9-.8 1.9-1.8v-.9c0-1.1-.9-1.9-1.9-1.9"/></g><path fill="#b2c1c0" d="M40.4 9.5H23.6c-.5 0-.9.4-.9.9v1.9c0 .5.4.9.9.9h16.9c.5 0 .9-.4.9-.9v-1.9c0-.5-.4-.9-1-.9"/><path d="M58.2 60.1c0 1-.8 1.9-1.9 1.9h-7.5c-1 0-1.9-.8-1.9-1.9v-7.5c0-1 .8-1.9 1.9-1.9h7.5c1 0 1.9.8 1.9 1.9v7.5m-41.2 0c0 1-.8 1.9-1.9 1.9H7.6c-1 0-1.9-.8-1.9-1.9v-7.5c0-1 .8-1.9 1.9-1.9h7.5c1 0 1.9.8 1.9 1.9v7.5" fill="#3e4347"/><g fill="#ffe62e"><path d="M60.8 42c-1.5-4.6-4.1-7.9-4.1-7.9-5.8 0-7.2-7.7-7.2-7.7h-35s-1.4 7.7-7.2 7.7c0 0-2.6 3.4-4.1 7.9-.6 1.8-.2 5.9 0 7.8.1 1 .3 3.3 3.5 3.5 6.4.4 10.2 1.2 25.4 1.2 15.3 0 18.8-.8 25.1-1.2 3.2-.2 3.4-2.5 3.5-3.5.2-1.9.7-6 .1-7.8"/><path d="M52 16.8c-1.6-3.3-3.5-4-5.9-4.4-3.4-.6-7.1-.9-14.1-.9-7.1 0-10.7.3-14.1.9-2.4.4-4.3 1.2-5.9 4.4-1.9 3.8-4.4 16.2-4.4 18.1 0 2 2.1 2.7 4.7 2.7h39.4c2.5 0 4.7-.7 4.7-2.7 0-1.9-2.5-14.3-4.4-18.1"/></g><path fill="#b2c1c0" d="M16.9 36.7c-.5 3.1-3.4 5.6-6.5 5.6s-5.1-2.5-4.6-5.6c.5-3.1 3.4-5.6 6.5-5.6s5.1 2.5 4.6 5.6"/><path fill="#fff" d="M15.1 36.7c-.4 2.1-2.3 3.8-4.3 3.8s-3.4-1.7-3.1-3.8c.3-2.1 2.3-3.8 4.3-3.8 2.1 0 3.4 1.7 3.1 3.8"/><path fill="#3e4347" d="M47.9 15.5c-1-.7-8.3-1.8-15.9-1.8s-15 1.1-15.9 1.8c-3.7 2.5-4.7 14.2-4.7 14.2s1.9.9 4.7.9c2.2 0 2.8-1.4 15.9-1.4s13.7 1.4 15.9 1.4c2.8 0 4.7-.9 4.7-.9s-1-11.7-4.7-14.2"/><path fill="#b2c1c0" d="M47.1 36.7c.5 3.1 3.4 5.6 6.5 5.6s5.1-2.5 4.6-5.6c-.5-3.1-3.4-5.6-6.5-5.6s-5.1 2.5-4.6 5.6"/><path fill="#fff" d="M48.9 36.7c.3 2.1 2.3 3.8 4.3 3.8s3.4-1.7 3.1-3.8c-.3-2.1-2.3-3.8-4.3-3.8-2.1 0-3.4 1.7-3.1 3.8"/><path fill="#3e4347" d="M44.7 50.8H19.4c-1 0-.2-1.9.6-2.3 4.4-2.1 19.4-1.8 24 0 .9.3 1.7 2.3.7 2.3"/><g fill="#fff"><circle cx="54.5" cy="47.9" r="2.8"/><circle cx="9.5" cy="47.9" r="2.8"/></g><g fill="#f15744"><circle cx="9.5" cy="47.9" r="1.9"/><circle cx="54.5" cy="47.9" r="1.9"/></g><path fill="#ffe62e" d="M39.5 2h-15c-.5 0-.9.4-.9.9v6.6h16.9V2.9c-.1-.5-.5-.9-1-.9"/><path fill="#e8e8e8" d="M41.1 39.7c-.5-1.6-2.4-3.6-4-3.9-2.5-.5-7.7-.5-10.2 0-1.7.3-3.5 2.3-4 3.9l-.1.3c-.5 1.6.4 2.9 2.1 2.9h14.3c1.7 0 2.6-1.3 2.1-2.9l-.2-.3"/><path fill="#62727a" d="M32 36.8c-1.9 0-3.7.1-4.8.3-1 .2-2.5 1.7-3 3l-.1.3c-.1.3-.1.6 0 .8.1.2.4.3.7.3h14.3c.3 0 .6-.1.7-.3.1-.2.1-.5 0-.8l-.1-.3c-.4-1.3-1.9-2.8-3-3-1-.1-2.8-.3-4.7-.3"/><path d="M25.7 38.7h12.6c-.4-.4-.8-.8-1.2-.9H26.9c-.4.2-.8.5-1.2.9m-1 1.6-.1.3h14.9l-.1-.3c-.1-.2-.2-.4-.3-.7H25c-.2.3-.3.5-.3.7" fill="#e8e8e8"/><path d="M26.5 5.1c0-.3-.2-.5-.5-.5h-.1c-.3 0-.5-.2-.5-.4s.2-.4.5-.4H28c.3 0 .5.2.5.4s-.2.4-.5.4h-.1c-.3 0-.5.2-.5.5v2.1c0 .3-.2.5-.5.5s-.5-.2-.5-.5V5.1zm4 1.6c-.3 0-.5.2-.6.4v.1c-.1.2-.3.4-.6.4s-.4-.2-.3-.4l.9-2.9c.1-.2.4-.4.6-.4h.2c.3 0 .5.2.6.4l.9 2.9c.1.2-.1.4-.3.4-.3 0-.5-.2-.6-.4v-.1c-.1-.2-.4-.4-.6-.4h-.2m.1-.7c.2 0 .4-.2.3-.4-.1-.2-.2-.6-.3-.8 0 0 0-.1-.1-.3 0 0-.1.2-.1.5 0 0 0 .1-.1.3l-.1.3c.1.2.2.4.4.4M36 7.6c-.3 0-.5-.2-.6-.3-.1-.2-.3-.5-.4-.8l-.1-.3-.2.4-.1.3-.1.3c-.1.2-.4.4-.7.4h-.1c-.3 0-.4-.2-.2-.4l.7-1.1c.1-.2.1-.6 0-.8l-.6-1c-.1-.2 0-.4.2-.4h.1c.3 0 .5.2.6.3s.3.5.4.8l.1.2.2-.4.1-.2.1-.3c.1-.2.4-.4.7-.4h.1c.3 0 .4.2.2.4l-.6 1c-.1.2-.1.6 0 .8l.7 1.1c0 .2-.1.4-.5.4m2.1-3.7c.2 0 .5.2.5.5v2.8c0 .3-.2.5-.5.5s-.5-.2-.5-.5V4.3c.1-.2.3-.4.5-.4" fill="#62727a"/></svg>