<svg xmlns="http://www.w3.org/2000/svg" viewBox="0 0 64 64"><g fill="#ffb300"><path d="M36.8 23.2c-.1 1-2.3-.4-1.3-2.4 1.4-2.8 4.8-2.8 4.8-2.8s-3.1 2.5-3.5 5.2"/><path d="M38.6 22.5c-.3.9-2-.9-.7-2.5 1.9-2.3 5-1.5 5-1.5s-3.4 1.7-4.3 4"/><path d="M40.2 22.3c-.5.7-1.6-1.3 0-2.5 2.3-1.6 5-.1 5-.1s-3.5.7-5 2.6"/></g><path fill="#ffdd67" d="m41.3 27.8 1.6-.9v5.6h-3.6z"/><path fill="#eba352" d="M38.8 30.4c1.1.7.5 2.1.5 2.1 1.5 0 2.5-2.9 2.5-4.7l-3 2.6"/><path fill="#ffdd67" d="m42.4 20.4-6.5 2.3c-.8 1.5-.3 2.3-.3 3 0 .3-.6.8-.9 1.1-.7.6.5 1.1.9 1 .3.6-.5 1 1.4.6 0 0-2 .8-.6 1.2-.1.8-.3 2.3 3.8.7 1.2-.5 1.6-2.6 1.6-2.6l2-.4-1.4-6.9"/><path fill="#ffb300" d="M37.7 19.9c4.3-1.4 6.6.8 7 1.8 1.1 2.6.2 5.5-1.9 7.7 0 0-.9-.4-1.1-1.6 0 0 1.1.5 1.5-1.8.4-1.9-1.6-2.9-2.6-.3h-.3c-.6-1.3.5-2.9-1-3.4-1.3-.5-3.6.7-3.6.7-.5-.8.3-2.6 2-3.1"/><path fill="#937237" d="M37.2 25.7c0 .4-.2.7-.5.7s-.4-.3-.4-.7c0-.4.1-.7.4-.7.2-.1.5.2.5.7"/><path fill="#eba352" d="M41.3 26.2c0-.8.7-1.5 1.3-1.5 0 0-1.1.9-.9 2.2.1 0-.4-.2-.4-.7"/><path fill="#937237" d="M37.6 28.3s-.8.6-1.1.7c-.6.3-.7.1-.3-.2.3-.2.8-.4.8-.4l.6-.1"/><path fill="#47b892" d="m43.3 39.5-5.4-.5s.4-4.5 1.1-6.3c.6-1.6 3.9-.7 3.9-.7l.4 7.5"/><g fill="#3b946f"><path d="M41.7 33.4c-.3-.3-.8-.3-1.2 0l-2.1 2.2 1.2 1.1 2.1-2.2c.3-.3.3-.8 0-1.1"/><path d="M39.9 36c0-.4-.4-.8-.8-.8l-3.2.1.1 1.7 3.2-.1c.4 0 .8-.4.7-.9"/></g><path fill="#ffdd67" d="M36.3 36.3v-.8c0-.3-.2-.5-.5-.5h-.4c-.2 0-.4.1-.5.3-.5 0-1.2.1-1.2 1.1 0 .2-.1 1 1 1.1 1.5 0 1.5 0 1.6-1.2"/><path fill="#42ade2" d="M2 42h60v20H2z"/><path fill="#c94747" d="M2 32.8h23.8l7.3 7.1z"/><path fill="#dae3ea" d="M2 32.8s6.8 13.9 26.2 19h30.5L62 41.7 2 32.8"/><path fill="#f15744" d="M28.7 48.8h27.1l-27.2-4.6 28.4.6L10.3 37c3.6 4.1 9.5 9.1 18.4 11.8"/><path fill="#6adbc6" d="M34.6 28.2s-1.5 0-4.4 1.6c-3 1.6-4.4 3.1-4.4 3.1L30 37l4.6.7v-9.5"/><path fill="#fff" d="M32.4 30.3c-1.3.4-2.5 1.1-3.6 2-1 .8 0 2.5.9 1.7.9-.7 2-1.4 3.1-1.8 1.2-.3.7-2.3-.4-1.9"/><path fill="#428bc1" d="M34.6 51.8s5.5-2.1 7.1-1.6c.4.1 0 .8 0 .8s4.3-3.6 6.6-3.2c1.6.3 0 3.1 0 3.1s4-6.4 7.7-6c2.2.2.9 4 .9 4l5-10v13H34.6z"/><path fill="#42ade2" d="M34.6 51.8s5.5-1.7 7.1-1.3c.4.1 0 .7 0 .7s4.3-3 6.6-2.7c1.6.2 0 2.5 0 2.5s4-5.3 7.7-5c2.2.2.9 3.3.9 3.3l5-8.2v10.7H34.6"/><path fill="#bbecff" d="M40.1 51.8s6.8-2.8 7.9-2.7c1.7.2.8 2 .8 2s2.8-2.8 4.3-2.5c1 .2 0 2.3 0 2.3s2.6-4.8 5-4.6c1.4.2.6 3 .6 3l3.3-2.1v4.4l-21.9.2"/></svg>