<svg xmlns="http://www.w3.org/2000/svg" viewBox="0 0 64 64"><path fill="#e0ac68" d="M48.1 29.4c-.4 1.4-2.9 1.4-3.1 1.3-.2-.1-2.3-1.4-1.9-2.8.4-1.4.4-1.6 3-.9 2.5.8 2.4 1 2 2.4"/><path fill="#3b946f" d="M23.4 28.7h-.2c-.9 0-1.6.7-1.6 1.6 0 .7.4 1.2 1 1.4l17.7 5.5.9-2.9-17.8-5.6"/><path fill="#ffdd67" d="m42.3 33.6.7.2c.4.1.6.4.7.8.9.4 2 1.1 1.4 2.8-.1.3-.6 1.8-2.5 1.2-2.7-.9-2.7-.9-2-3l.5-1.4c.1-.5.7-.7 1.2-.6"/><path fill="#e0ac68" d="m42.3 42 4.5-13.4h-2.5l-4.4 13.2z"/><path fill="#7a5136" d="M49.3 43.9 61 41 3 37.2z"/><path fill="#ffdd67" d="M24.3 26.2v-1.3h-3.8v1.3c0 .7-.6 1.3-1.3 1.3h6.5c-.8 0-1.4-.5-1.4-1.3"/><path fill="#47b892" d="M27.2 27.2h-9.4c-1.5 0-2.7 1.2-2.7 2.6 0 .2 0 .4.1.6l2.5 13.5h12l-2.5-16.7"/><path fill="#d3976e" d="M59.2 54.9 61 43.1l-11.7 1L3 37.2c-.4 8.3 11.7 17.7 11.7 17.7h44.5"/><path fill="#af7146" d="M61 43.1V41l-11.7 1.9L3 37.2c0 .8 0 1.6.2 2.4l46.1 5.7L61 43.1"/><path fill="#d3976e" d="M49.3 42.9v2.4L61 43.1V41z"/><path fill="#ffdd67" d="M61 53.9H49.3v-8.6L61 43.1z"/><path fill="#75d6ff" d="M57.7 48.7c-2.4 0-2.7-1.6-4.3-1.6s-1.9 1.6-4.3 1.6-2.7-1.6-4.3-1.6-1.9 1.6-4.3 1.6-2.7-1.6-4.3-1.6-1.9 1.6-4.3 1.6-2.7-1.6-4.3-1.6-1.9 1.6-4.3 1.6-2.7-1.6-4.3-1.6-1.9 1.6-4.3 1.6-2.7-1.6-4.3-1.6-1.9 1.6-4.3 1.6-4.3-1.6-4.3-1.6V62h60V47.1c.2 0-1.7 1.6-4.1 1.6"/><path d="M23.8 59.4c-6.8.9-11.4-4.6-18.5-1.5 5.4-.3 13.6 3.9 18.5 1.5m11.6-5.9c-6.8.9-11.5-4.6-18.5-1.5 5.5-.4 13.6 3.9 18.5 1.5M47 59.4c-6.8.9-11.4-4.6-18.5-1.5 5.5-.3 13.7 3.9 18.5 1.5m11.7-5.9c-6.8.9-11.5-4.6-18.5-1.5 5.5-.4 13.6 3.9 18.5 1.5" fill="#42ade2"/><path fill="#3b946f" d="M18.3 28.7h-.2c-.9 0-1.6.7-1.6 1.6 0 .7.4 1.2 1 1.4l17.7 5.5.9-2.9-17.8-5.6"/><path fill="#fbbf67" d="M31.1 59.7h-2.5l10.5-31.1h2.5z"/><path fill="#ffdd67" d="m37.3 33.6.7.2c.4.1.6.4.7.8.9.4 2 1.1 1.4 2.8-.1.3-.6 1.8-2.5 1.2-2.7-.9-2.7-.9-2-3l.5-1.4c.1-.5.6-.7 1.2-.6"/><path d="M30.9 56.3c-2.4-1-6.1 1.1-7.1 4.7h9.4c.9-2.2-.7-4-2.3-4.7m12.2-27c-.5 1.6-3.3 1.6-3.5 1.5-.2-.1-2.6-1.6-2.2-3.1.5-1.6.5-1.8 3.4-1s2.7 1.1 2.3 2.6" fill="#fbbf67"/><path fill="#ffb300" d="m11.1 13.9 1.2 2.1h20.3l.9-2.3c0-8.2-1.9-11.6-11-11.7-9.1-.1-11.4 3.5-11.4 11.9"/><path fill="#ffdd67" d="M32.6 13.7c-.1.5-.2.9-.3 1.2-.2.4-.7.7-.7.7s.1-.9.1-2.2c-.5-7.5-1-3.9-9.3-3.9s-8.7-3.6-9.3 3.9c0 1.3.1 2.2.1 2.2s-.5-.3-.7-.7c-.1-.3-.2-.7-.3-1.2-.8-.2-1.8 0-1.8 2.2 0 1.4.5 2.6 2.3 2.7.6 4.7 6.9 7.9 9.7 7.9 2.8 0 9.1-3.1 9.7-7.9 1.7-.1 2.3-1.3 2.3-2.7 0-2.2-1-2.4-1.8-2.2"/><g fill="#937237"><circle cx="18.2" cy="16.2" r="1.7"/><circle cx="26.7" cy="16.2" r="1.7"/><path d="M25.2 21.5c-1.8 1.4-3.8 1.4-5.6 0-.2-.2-.4.1-.3.4.5 1 1.6 1.9 3 1.9s2.5-.9 3-1.9c.3-.3.1-.6-.1-.4"/></g></svg>