<svg xmlns="http://www.w3.org/2000/svg" viewBox="0 0 64 64"><circle cx="32" cy="32.1" r="30" fill="#ff5a79"/><circle cx="32" cy="32.1" r="24" fill="#fff"/><g fill="#333"><path d="M32.6 20.5h2.6c1 0 1.7-.6 1.7-1.4v-3.4c0-.8-.8-1.4-1.7-1.4h-2.6c-1 0-1.7.6-1.7 1.4v3.4c0 .7.8 1.4 1.7 1.4m6.9 1.5H28c-.8 0-1.5.5-1.5 1.2V29l-3.7 3v1.3l5.8-2.9.7-6V50h3l1.5-11.6L35.3 50h3V24.3l1.3 11.6H41V23.2c0-.7-.7-1.2-1.5-1.2M20 34.3h2.8v3.8H20z"/><path d="M23.8 38.9h2.8v3.8h-2.8zm-4.6 4.3H22V47h-2.8z"/></g><path fill="#ff5a79" d="m9.263 13.592 4.243-4.243L54.8 50.644l-4.242 4.243z"/></svg>