<svg xmlns="http://www.w3.org/2000/svg" viewBox="0 0 64 64"><path fill="#c94747" d="m42.8 23.8 4.6 1.5v1.6l-4.6-1.3z"/><path fill="#3e4347" d="m42.8 25.6 4.6 1.3v1.8l-4.6-1.3z"/><path fill="#dae3ea" d="M33.8 15.6h.1c-.1-.3-.1-.6-.1-.9 0-1.7 1.2-3.2 2.9-3.5.5-2 2.3-3.5 4.4-3.5.6 0 1.3.1 1.8.4 1-1.5 2.6-2.4 4.5-2.4h.6C49 3.5 51.2 2 53.8 2c3.5 0 6.3 2.8 6.3 6.4s-2.8 6.4-6.4 6.4c-.7 0-1.4-.1-2-.3-1 1.3-2.6 2.2-4.3 2.2-1.2 0-2.3-.4-3.2-1.1-.8.8-1.9 1.3-3.1 1.3-.2 0-.4 0-.6-.1-.6 1-1.8 1.6-3 1.6-.7 0-1.3-.2-1.9-.5-.2.8-.9 1.4-1.8 1.4-1 0-1.8-.8-1.8-1.8 0-1.1.8-1.9 1.8-1.9"/><path fill="#94989b" d="M30.3 18.2c1.1-.5 2.3-.7 3.5-.7 1.4 0 3.3.3 4.5.9l.9 7.2H26.5l3.8-7.4"/><path fill="#62727a" d="m45.6 27.4 4.5 2.1v5.2h-2.7v10.9H23.8V33.8z"/><path fill="#b2c1c0" d="M45.6 27.4v5.5h-2.7v11.8H19.3V32.9h-2.8v-5.5z"/><path fill="#62727a" d="m42.9 47.5 10.9 1.7v-9.1l-10.9-5.4z"/><path fill="#f15744" d="M7.7 56.9s30.8 6.5 45.3 1.2c2-.7 4.3-2 7.1-4.9v-4.4s-10.3-1.3-22.9-8.1C21.7 32.4 8.1 32 3.7 33.9c.1-.1 4 6.2 4 23"/><path fill="#d33b23" d="M7.5 51.9c-.1-3.8-1.3-5.4-2.8-7.9-5.5-8.8-.9-10.1-.9-10.1 3.5 5.8 3.7 18 3.7 18"/><path fill="#fff" d="M4.7 35.7c5.6-1.6 18.5-.4 32.7 7.2 12.4 6.7 22.6 7.2 22.7 7.2v.9c-.1 0-10.5-.5-23.1-7.2-13.8-7.4-26.6-8.6-32-7.2l-.3-.9"/><path fill="#b2c1c0" d="M4.7 35.8c.1.3.2.6.3.8-.8.3-2.2 1.1-2.7 2.6-.2-.5-.3-1-.3-1.4.8-1.1 2-1.7 2.7-2"/><path fill="#62727a" d="M42.8 25.6H19.3v1.8h23.5z"/><path fill="#ff9d27" d="M42.8 23.8H19.3v1.8h23.5z"/><path fill="#c5d0d8" d="M45.6 27.4H16.5v5.4h29.1z"/><path d="M43.7 28.8h-1.3v2.7h1.3zm-3.4 0H39v2.7h1.3zm-3.4 0h-1.3v2.7h1.3zm-3.4 0h-1.3v2.7h1.3zm-3.5 0h-1.3v2.7H30zm-3.4 0h-1.3v2.7h1.3zm-3.4 0h-1.3v2.7h1.3zm-3.4 0h-1.3v2.7h1.3z" fill="#94989b"/><path d="M41.1 33.8h-3.6v1.8h3.6zm-20 .5 3.6 1v-1.5h-3.6zm9.1-.5h-3.6v1.8h3.6zm5.4 0H32v1.8h3.6z" fill="#62727a"/><path d="m50.5 41.4 2.3 1.1v2.2l-2.3-.9zm-6.6-3.3 2.3 1.2v2.8l-2.3-.9zm3.3 1.7 2.3 1.1v2.5l-2.3-.9z" fill="#fff"/></svg>