<svg xmlns="http://www.w3.org/2000/svg" viewBox="0 0 64 64"><path fill="#e8e8e8" d="M36 21.1 50.9 2h10.3L49.7 21.1z"/><path fill="#b2c1c0" d="M48.3 5.3s3 1.8 6.4 1.7c3.4-.2 6.4-5 6.4-5l-5.5 9.1-7.3-5.8"/><path fill="#e8e8e8" d="M57.8 37.3 23.2 9.8c16.3-21.5 50.9 6 34.6 27.5"/><path fill="#b2c1c0" d="M27.7 5.3c-3.1 0-7.6 3.6-7.6 3.6l38.2 30.5s3.5-4.2 2.6-8.8c-.4-1.9-1.6-4.5-3.3-7.1-1.7-2.5-3.8-5-6.2-7.2-2.4-2.2-5-4.2-7.8-5.9-2.7-1.7-5.6-3-8.3-3.9-2.6-.8-5.2-1.2-7.6-1.2"/><path fill="#62727a" d="M26.5 6.7c-2.5.1-5.3.8-7 2.9-1.8 2.2-1.7 5.3-1 8 1.6 5.8 6 10.7 10.4 14.5 4.8 4.1 10.4 7.5 16.5 9.1 4.6 1.2 12.2 1.8 14.2-3.9 1.3-3.7-.4-8-2.3-11.2-2.1-3.6-5-6.7-8.2-9.4-3.3-2.8-6.9-5.2-10.8-7-3.6-1.8-7.7-3.1-11.8-3"/><path fill="#b2c1c0" d="M27.9 8.8c-2.5.1-5.3.9-6.6 3.2-1.4 2.4-.9 5.4.1 7.9 2.2 5.6 6.9 10.2 11.7 13.7 5 3.5 11.2 6.7 17.4 6.4 2.5-.1 5.2-1 6.4-3.4 1.3-2.5.7-5.6-.4-8.1-2.3-5.5-6.9-10-11.6-13.4-4.9-3.4-10.9-6.5-17-6.3"/><path d="M44.8 33.5c-1.2 0-.9 1.2-.4 1.9.6.8 1.7 1.5 2.8 1.6 1.2 0 1-1.2.4-1.8-.6-1-1.7-1.7-2.8-1.7m-8.4-10c-1.4 0-1 1.4-.4 2.2.7.9 1.9 1.7 3.1 1.8 1.4 0 1-1.4.4-2.1-.7-1-2-1.9-3.1-1.9m-6.9-12.4c-1.5 0-1 1.7-.4 2.5.8 1 2.1 2 3.4 1.9 1.5 0 1.1-1.6.4-2.5-.7-.9-2.1-1.9-3.4-1.9m-3.9 7.8c-1.2 0-.8 1.3-.3 2 .6.8 1.7 1.6 2.8 1.6 1.2 0 .8-1.3.3-2-.7-.8-1.7-1.6-2.8-1.6m7.6 10.6c-.9 0-.6.9-.2 1.4.5.6 1.3 1.2 2.1 1.2 1 0 .6-1.1.1-1.5-.5-.6-1.2-1.1-2-1.1m7.9-12.2c-1.7 0-1.3 1.7-.5 2.7.9 1.1 2.4 2.1 3.8 2.1 1.7 0 1.3-1.7.6-2.7-1-1.1-2.5-2.1-3.9-2.1m8.8 10.6c-1.5 0-1.2 1.5-.5 2.4.8 1 2.1 1.9 3.4 1.9 1.5 0 1.2-1.5.5-2.3-.8-1.1-2.1-2-3.4-2" fill="#3e4347"/><g fill="#8ad8ff"><path d="M30 11.5 2 28.8v1l28.7-17.6zm-3.6 7.6L2 39.7v1l24.9-20.9zm.8.8L2 44.3v1l25.7-24.8zm.8 1L2 48.1v1l26.5-27.8zm3.3-8.3L2 32.4v1l29.9-20.1z"/><path d="M32.3 13.6 2 36v1.2l30.9-22.8zm8.9 4.3L2 51.2v1.4l40-34.1zm-4.7 5.7L2 56.1v1.4l35.2-33.2zm6.1-4.7L7.8 62h1.3l34.3-42.4z"/><path d="M37.3 24.4 2 62h1.2l34.9-37zm1.4 1.3L13 62h1.3l25.2-35.6zm5.3-5.8L17.8 62h1.1l25.9-41.4zm5.9 8.4L30.1 62h1.1l19.6-33.2zm-5.2 5.4L21.8 62h1.1l22.7-27.8z"/><path d="M45.8 34.4 26.1 62h1.1l19.5-27.1zm1.2.8L34.1 62h1.1l12.6-26.3zm4.3-5.9L37.4 62h1l13.8-32.3zm1.2.9L40.9 62h1l11.6-31.3z"/></g></svg>