<svg xmlns="http://www.w3.org/2000/svg" viewBox="0 0 64 64"><circle cx="32" cy="32" r="30" fill="#4fd1d9"/><path d="M46 23h-8c-1 0-2 1-2 2l-3 11h3l2-9v4l-2 9h2v11h3V40h2v11h3V40h2l-2-9v-4l2 9h3l-3-11c0-1-1-2-2-2m0-4c0 1-1 2-2 2h-4c-1 0-2-1-2-2v-4c0-1 1-2 2-2h4c1 0 2 1 2 2v4m-18 4H16c-1 0-2 1-2 2l-1 11h3l1-9 1 24h3l1-13 1 13h3l1-24 1 9h3l-1-11c0-1-1-2-2-2m-2-4c0 1-1 2-2 2h-4c-1 0-2-1-2-2v-4c0-1 1-2 2-2h4c1 0 2 1 2 2v4" fill="#fff"/><g fill="#4fd1d9"><circle cx="22" cy="24.5" r="1"/><path d="m22 25 1 2-1 7-1-7z"/><circle cx="40" cy="24" r="1"/><circle cx="44" cy="24" r="1"/><circle cx="41" cy="25" r="1"/><circle cx="42" cy="25" r="1"/><circle cx="43" cy="25" r="1"/></g></svg>