<svg xmlns="http://www.w3.org/2000/svg" viewBox="0 0 64 64"><path fill="#ffdd67" d="m26.1 16.1 2.1-2.6 3.9 9.3-6.1 2.5z"/><path fill="#eba352" d="M23.8 22.1c2.2.4 2.2 3.2 2.2 3.2 2.5-1 2.2-6.6.9-9.6l-3.1 6.4"/><path fill="#ffdd67" d="m22.8 3.2-9.2 8.2c-.3 3.1 1.2 4 1.6 5.1.2.5-.4 1.8-.8 2.4-.7 1.5 1.5 1.5 2.2 1.1.9.9-.2 2.1 2.8.1 0 0-2.7 2.8-.1 2.4.3 1.4 1.1 4 6.8-1.4 1.7-1.6 1-5.4 1-5.4l3.1-2-7.4-10.5"/><path fill="#ffb300" d="M14.8 5.4C20.9.1 26.3 2.2 27.7 3.5c3.6 3.6 4.1 9.1 2.3 14.1 0 0-1.8 0-2.9-1.9 0 0 2.1.1 1.3-4-.7-3.4-4.7-3.7-4.6 1.3l-.5.2c-1.8-1.8-1.3-5.2-4.1-5-2.5.2-5.6 3.8-5.6 3.8-1.3-1-1.3-4.4 1.2-6.6"/><path fill="#937237" d="M17.8 15.4c.3.7.1 1.4-.4 1.6-.5.2-.8-.3-1.1-1-.3-.7-.4-1.3.1-1.5.5-.1 1.1.2 1.4.9"/><path fill="#eba352" d="M25 13.5c-.6-1.3.1-2.9 1.2-3.4 0 0-1.2 2.3.1 4.3 0 0-.9 0-1.3-.9"/><path fill="#937237" d="M20.3 19.4s-.9 1.5-1.3 2c-.8.9-1 .6-.7 0 .3-.5 1-1.2 1-1.2l1-.8"/><g fill="#3b946f"><path d="m26 24.3-1.6 7.4 3.1.5.7-6.3z"/><path d="M27.5 31.8c-.2-.8-1-1.3-1.9-1.1l-6 1.4.7 3 6-1.4c.9-.2 1.4-1.1 1.2-1.9"/></g><path fill="#eba352" d="m20.4 33.5-.2-1.5c-.1-.5-.6-.9-1.1-.8l-.7.1c-.4 0-.7.3-.8.7-1 .2-2.2.7-2 2.5 0 .3.2 1.9 2.2 1.7 2.9-.5 2.9-.5 2.6-2.7"/><path fill="#d3976e" d="M30.9 49.4c-1.6.1-2.8 1.5-2.7 3.1l6.9-.5c.8-.1 1.4-.7 1.4-1.5l-.1-1.4-5.5.3"/><g fill="#3e4347"><path d="m36.4 48.9-5.5.5-.8-9.7 5.6-.4z"/><path d="m35.8 41.5-5.7-1.8 5.4-6.8 6.5 1.2z"/></g><path d="M14.8 62c-1.6 0-3.1-.3-4.6-.9-1.4-.6-2.7-1.4-3.7-2.5s-2-2.3-2.6-3.6c-.6-1.5-.9-3-.9-4.5 0-1.6.3-3.1.9-4.5.6-1.4 1.4-2.6 2.5-3.7s2.3-1.9 3.7-2.5c1.5-.6 3-.9 4.6-.9s3.1.3 4.6.9c1.4.6 2.7 1.4 3.7 2.5 1.1 1.1 1.9 2.3 2.5 3.7.6 1.4.9 2.9.9 4.5s-.3 3.1-.9 4.5c-.6 1.4-1.4 2.6-2.5 3.7s-2.3 1.9-3.7 2.5c-1.4.5-2.9.8-4.5.8m0-21.1c-5.4 0-9.7 4.3-9.7 9.5 0 5.3 4.4 9.5 9.7 9.5s9.7-4.3 9.7-9.5-4.4-9.5-9.7-9.5M51.2 62c-1.6 0-3.1-.3-4.6-.9-1.4-.6-2.7-1.4-3.7-2.5-1.1-1.1-1.9-2.3-2.5-3.7-.6-1.4-.9-2.9-.9-4.5s.3-3.1.9-4.5c.6-1.4 1.4-2.6 2.5-3.7s2.3-1.9 3.7-2.5c1.5-.6 3-.9 4.6-.9s3.1.3 4.6.9c1.4.6 2.7 1.4 3.7 2.5 1.1 1.1 1.9 2.3 2.5 3.7.6 1.4.9 2.9.9 4.5s-.3 3.1-.9 4.5c-.6 1.4-1.4 2.6-2.5 3.7s-2.3 1.9-3.7 2.5c-1.4.6-3 .9-4.6.9m0-21.1c-5.4 0-9.7 4.3-9.7 9.5 0 5.3 4.4 9.5 9.7 9.5s9.7-4.3 9.7-9.5c.1-5.2-4.3-9.5-9.7-9.5" fill="#333"/><path fill="#ed4c5c" d="m42.7 36.2 2.1-5.2-1.4-.5-2.1 5.1H19l-2.2-2.3-1.1 1 2.6 2.7h3.4v2.8l13.9 13.5L41.9 38l8.6 12.7 1.4-.6-9.2-13.9m-7.5 14.5L22.5 38.4l.6-1.5h17.6l-5.5 13.8"/><ellipse cx="51.2" cy="50.5" fill="#333" rx="2.4" ry="2.3"/><path d="M27.9 51.9h4v1.3h-4zm11.8 1.7h4v1.3h-4z" fill="#94989b"/><path fill="#b3b3b3" d="M31.7 52.3v.6l4 .5v-.6z"/><ellipse cx="35.7" cy="53.7" fill="#333" rx="3.3" ry="3.2"/><g fill="#b3b3b3"><circle cx="35.7" cy="53.7" r=".8"/><path d="m35.7 54 4 .5v-.6l-4-.6z"/></g><path fill="#d3976e" d="M39.6 51.9c-1.5.5-2.4 2.1-1.9 3.6l6.6-2.1c.8-.2 1.2-1 .9-1.8l-.4-1.3-5.2 1.6"/><g fill="#3e4347"><path d="m44.8 50.2-4.7 1.5-3.6-11.3 5.3-1.7z"/><path d="m42.3 40.8-5.8-.4 4.6-8.7 4.9 2.5z"/></g><path fill="#47b892" d="M47 28.5 35.5 33 26 24.3s2.4-4.9 3.7-5.1C39 17.4 47 28.5 47 28.5z"/><path fill="#3e4347" d="m46 34.2-10.2.6-.3-1.8 11.3-4.8c1.8 2.5-.8 6-.8 6"/><g fill="#47b892"><path d="m26 24.3-.3 7.4 3.1.1.3-5.9c0-.8-3.1-1.6-3.1-1.6"/><path d="M28.7 31.4c-.3-.8-1.2-1.1-2-.8L21 32.7l1.1 2.8 5.7-2.2c.8-.2 1.2-1.1.9-1.9"/></g><path fill="#ffdd67" d="m21.9 34.1-.4-1.4c-.1-.5-.7-.8-1.2-.7l-.7.2c-.4.1-.6.4-.7.8-.9.3-2.1 1-1.6 2.7.1.3.5 1.9 2.4 1.3 2.8-.8 2.8-.8 2.2-2.9"/><path fill="#ed4c5c" d="m15.2 51.2-1.3-.8 8.3-14.5 1.4.8z"/><circle cx="14.8" cy="50.5" fill="#333" r="1.2"/></svg>