<svg xmlns="http://www.w3.org/2000/svg" viewBox="0 0 64 64"><path fill="#ffdd67" d="m37 16.4 2.8-1.5v9.5h-6.2z"/><path fill="#eba352" d="M32.9 20.8c1.8 1.1.8 3.6.8 3.6 2.5 0 4.3-4.9 4.3-8l-5.1 4.4"/><path fill="#ffdd67" d="m38.8 4-11 3.8c-1.4 2.5-.4 3.9-.5 5 0 .5-1 1.4-1.5 1.9-1.2 1 .8 1.9 1.5 1.7.5 1.1-.9 1.7 2.4 1.1 0 0-3.4 1.4-1 2.1-.2 1.3-.5 3.8 6.4 1.2 2-.8 2.8-4.4 2.8-4.4l3.4-.6L38.8 4"/><path fill="#ffb300" d="M31.1 3.1c7.2-2.4 11.2 1.3 11.8 3 1.8 4.4.3 9.4-3.1 13.1 0 0-1.6-.7-1.9-2.7 0 0 1.8.8 2.6-3 .7-3.2-2.7-4.9-4.4-.5h-.5c-1-2.2.8-5-1.8-5.8-2.2-.8-6.2 1.2-6.2 1.2-.7-1.4.5-4.3 3.5-5.3"/><path fill="#937237" d="M30.1 12.8c0 .7-.4 1.2-.9 1.2s-.6-.6-.6-1.2c0-.7.1-1.2.6-1.2s.9.6.9 1.2"/><path fill="#eba352" d="M37 13.7c0-1.3 1.1-2.5 2.2-2.5 0 0-1.9 1.6-1.4 3.8 0 0-.8-.3-.8-1.3"/><path fill="#937237" d="M30.8 17.2s-1.4 1-1.8 1.2c-1 .5-1.1.2-.6-.3.4-.4 1.3-.7 1.3-.7l1.1-.2"/><path fill="#aec470" d="M62 62v-7.1s-25.2-7-60-40.6V62h60z"/><path fill="#95a55b" d="M62 62v-3.3S36.9 65.1 2 36.2V62h60z"/><g fill="#3e4347"><path d="m37.9 18.7-1.3.2-2-8.6 1.3-.2z"/><path d="m37.6 19-1.1-.7 4.2-4.7 1.1.6z"/><path d="m35.695 22.072.8-4.733 1.677.284-.801 4.733z"/></g><path fill="#f15744" d="M43.9 15.3c-.7 1.6-5.5-2.8-8.7-4.2-3.5-1.5-9.5-2.2-9-3.5 2.1-4.8 7.7-6.9 12.6-4.8 5 2.1 7.2 7.7 5.1 12.5"/><g fill="#3b946f"><path d="M34.6 22.7c-.7-.4-1.5-.2-1.9.5l-2.6 4.4 2.4 1.4 2.6-4.4c.4-.7.1-1.5-.5-1.9"/><path d="M32.5 28.5c.1-.7-.5-1.4-1.2-1.5l-5.3-.6-.3 2.6 5.3.7c.8.1 1.5-.4 1.5-1.2"/></g><path fill="#eba352" d="m26.2 27.8.3-1.3c.1-.5-.2-.9-.7-1l-.6-.1c-.3-.1-.7.1-.9.3-.9-.1-2-.1-2.4 1.5-.1.3-.4 1.6 1.3 2 2.6.5 2.6.5 3-1.4"/><path fill="#d3976e" d="M30.1 44c-1.4-.4-2.8.4-3.1 1.7l5.9 1.6c.7.2 1.4-.2 1.6-.9l.3-1.2-4.7-1.2"/><g fill="#3e4347"><path d="m34.7 45.2-4.6-1.3 2.3-8.1 4.6 1.3z"/><path d="m36.5 39-4.1-3.2 6.4-4 4.9 2.9z"/></g><path d="M13.1 49.5c-1.3-.5-2.5-1.2-3.5-2.1-1-.9-1.8-2-2.3-3.2-.6-1.2-.9-2.5-1-3.8-.1-1.4.1-2.7.6-4 .4-1.2 1.1-2.3 2.1-3.3.9-1 2-1.7 3.2-2.3 1.2-.5 2.5-.9 3.8-.9 1.4-.1 2.7.1 4 .6 1.3.5 2.5 1.2 3.5 2.1 1 .9 1.8 2 2.3 3.2.6 1.2.9 2.5 1 3.8.1 1.4-.1 2.7-.6 4-.5 1.2-1.2 2.4-2.1 3.4-.9 1-2 1.7-3.2 2.3-1.2.5-2.5.9-3.8.9-1.4 0-2.7-.2-4-.7m6.3-17.3c-4.4-1.6-9.3.6-10.9 4.9-1.6 4.3.7 9.1 5.1 10.8 4.4 1.6 9.3-.6 10.9-4.9 1.6-4.4-.7-9.2-5.1-10.8M43 60.4c-1.3-.5-2.5-1.2-3.5-2.1-1-.9-1.8-2-2.3-3.2-.6-1.2-.9-2.5-1-3.8-.1-1.4.1-2.7.6-4 .5-1.3 1.2-2.4 2.1-3.4.9-1 2-1.7 3.2-2.3 1.2-.5 2.5-.9 3.8-.9 1.4-.1 2.7.1 4 .6 1.3.5 2.5 1.2 3.5 2.1 1 .9 1.8 2 2.3 3.2s.9 2.5 1 3.8c.1 1.4-.1 2.7-.6 4-.5 1.3-1.2 2.4-2.1 3.4-.9 1-2 1.7-3.2 2.3s-2.4.9-3.7.9c-1.4.1-2.8-.1-4.1-.6m6.3-17.3c-4.4-1.6-9.3.6-10.9 4.9-1.6 4.3.7 9.1 5.1 10.8 4.4 1.6 9.3-.6 10.9-4.9 1.7-4.4-.7-9.2-5.1-10.8" fill="#333"/><path fill="#ed4c5c" d="M43.7 36.6 47 33l-1-.9-3.2 3.5L24.5 29l-1.1-2.5-1.2.5 1.3 3 2.8 1-.8 2.3 7.4 15.3 9.7-10.7 3.3 13 1.3-.1-3.5-14.2m-10.5 9.7-6.7-13.9.9-1 14.5 5.3-8.7 9.6"/><ellipse cx="46.5" cy="50.9" fill="#333" rx="2" ry="2.1" transform="rotate(-70.007 46.48 50.929)"/><path d="m26.47 46.187.377-1.034 3.289 1.197-.377 1.034zm9.246 4.854.376-1.033 3.29 1.197-.377 1.033z" fill="#94989b"/><path fill="#b3b3b3" d="m29.9 46.6-.2.5 3.1 1.6.2-.5z"/><ellipse cx="32.8" cy="48.9" fill="#333" rx="2.8" ry="2.9" transform="rotate(-70.007 32.766 48.906)"/><g fill="#b3b3b3"><circle cx="32.8" cy="48.9" transform="rotate(-70.032 32.766 48.907)" r=".7"/><path d="m32.7 49.2 3.1 1.6.2-.5-3.1-1.6z"/></g><path fill="#d3976e" d="M36.5 48.6c-1.4-.1-2.6 1-2.6 2.4l6.1.2c.7 0 1.3-.5 1.3-1.2v-1.2l-4.8-.2"/><g fill="#3e4347"><path d="m41.3 48.8-4.3-.2.4-10.3 4.8.2z"/><path d="m42 40.4-4.6-2.1 6.3-5.8L47 36z"/></g><path fill="#47b892" d="m49.6 31.6-10.8.2-5.1-9.4s3.1-1.9 4.3-1.7c8.2 1.4 11.6 10.9 11.6 10.9"/><path fill="#3e4347" d="m47 36-8.6-2.6.3-1.5 10.7-.6C50.2 33.9 47 36 47 36"/><g fill="#47b892"><path d="M34.8 22.4c-.7-.3-1.5 0-1.8.7l-2 4.7 2.5 1 2-4.7c.4-.6 0-1.4-.7-1.7"/><path d="M33.7 28.5c0-.7-.6-1.3-1.4-1.3l-5.3.1V30l5.3-.1c.8 0 1.4-.6 1.4-1.4"/></g><path fill="#ffdd67" d="m27.3 28.7.1-1.3c0-.5-.3-.9-.8-.9l-.6-.1c-.3 0-.7.1-.8.4-.9 0-2 .2-2.1 1.8 0 .3-.1 1.7 1.6 1.8 2.5.2 2.5.2 2.6-1.7"/><path fill="#ed4c5c" d="m16.7 40.8-.9-1.1L27 30.3l.9 1z"/><circle cx="16.5" cy="40" fill="#333" transform="rotate(-70.045 16.524 40.027)" r="1"/></svg>