<svg xmlns="http://www.w3.org/2000/svg" viewBox="0 0 64 64"><g fill="#62727a"><path d="M27.5 51c0-3 2.3-5.5 5-5.5h.6l19 2c2 .3 3.4 1.7 3.4 3.5s-1.4 3.2-3.4 3.5l-19 2h-.6c-2.7 0-5-2.5-5-5.5m1 0c0 2.4 1.9 4.5 4 4.5h.5l19-2c1.3-.2 2.6-1 2.6-2.5s-1.3-2.3-2.6-2.5l-19-2h-.4c-2.2 0-4.1 2.1-4.1 4.5"/><path d="M40 51c0-6.6 5.4-12 12-12s12 5.4 12 12-5.4 12-12 12-12-5.4-12-12m2 0c0 5.5 4.5 10 10 10s10-4.5 10-10-4.5-10-10-10-10 4.5-10 10M0 51c0-6.6 5.4-12 12-12s12 5.4 12 12-5.4 12-12 12S0 57.6 0 51m2 0c0 5.5 4.5 10 10 10s10-4.5 10-10-4.5-10-10-10S2 45.5 2 51"/></g><path d="M42 51c0-5.5 4.5-10 10-10s10 4.5 10 10-4.5 10-10 10-10-4.5-10-10m2 0c0 4.4 3.6 8 8 8s8-3.6 8-8-3.6-8-8-8-8 3.6-8 8M2 51c0-5.5 4.5-10 10-10s10 4.5 10 10-4.5 10-10 10S2 56.5 2 51m2 0c0 4.4 3.6 8 8 8s8-3.6 8-8-3.6-8-8-8-8 3.6-8 8" fill="#42ade2"/><path d="M61.3 41.7C53 33.7 39.4 39.4 39 51c0 1.3-2 1.3-2 0 .4-13.4 16.1-19.9 25.7-10.7.9.9-.5 2.3-1.4 1.4m-58.6 0c8.3-8 21.9-2.3 22.3 9.3 0 1.3 2 1.3 2 0-.4-13.4-16.1-19.9-25.7-10.7-.9.9.5 2.3 1.4 1.4" fill="#ff9d27"/><path fill="#42ade2" d="M51 50c-.7-5.8-4.2-10.7-9.5-13.2-1.2-.6-.1-2.3 1-1.7 6 2.9 9.7 8.4 10.5 14.9.2 1.3-1.8 1.3-2 0"/><path fill="#b2c1c0" d="M15.5 22.1c2.2-1.5 5.2-2 7.8-2 1.3 0 1.3 2 0 2-1.9 0-3.9.3-5.7 1.1l2.1 2.1c.2.2.4.6.3 1-.5 1.3-1 2.7-1.5 4-.4 1.2-2.4.7-1.9-.5.4-1.2.9-2.3 1.3-3.5l-2.5-2.5c-.6-.6-.4-1.3.1-1.7"/><g fill="#42ade2"><path d="m35.046 50.698 6.008-18.025 1.897.632-6.008 18.026z"/><path d="M12.6 51.8c4.8-4 3.5-11.2 3.1-12.8l2.4-7.9c3 .4 14.1 2.6 19.6 12.4l1.7-1C32.7 30.2 18.2 29 17.6 29l-.8-.1-3.1 10 .1.3c0 .1 1.8 7.5-2.4 11l1.2 1.6"/></g><g fill="#62727a"><path d="M28 20.1h-4.5v2H28c.3 0 .5-.2.5-.5v-1c0-.3-.2-.5-.5-.5"/><circle cx="12" cy="51" r="1"/></g><path fill="#42ade2" d="M16.5 31.1c2.8 1.4 5 4 6.8 6.8 2.9 4.4 5.1 11.2 11.3 11.9h17.5c1.3 0 1.3 2 0 2H34.8c-10.1 0-11-14.3-18.2-18.6l-.1-2.1"/><circle cx="52" cy="51" r="2" fill="#62727a"/><path fill="#b2c1c0" d="m41.04 32.72 1.992-5.977 1.898.632-1.993 5.977z"/><path d="M40.6 26.1c3.8 0 3.8-2.1 7.1-2.1.8 0 2 1 2.2 1.8.3.8-.8 2.4-1.3 3.1-.7.9-1.7 1.4-2.6.9-1.3-.8-2.6-1.7-6.1 0-.8.4-2.1-.6-2-2.9.1-.7 1.1-.8 2.7-.8M36 51.8h2.6c.5 0 1 .4 1 1s-.5 1-1 1H36c-.5 0-1-.4-1-1s.4-1 1-1" fill="#62727a"/><circle cx="33" cy="51" r="4" fill="#b2c1c0"/><path fill="#e8e8e8" d="M32.7 52c-1.7-.7-3.3-1.3-5-2-1.2-.5-.7-2.4.5-1.9 1.7.7 3.3 1.3 5 2 1.2.4.7 2.3-.5 1.9"/><path d="M26.8 48h2.5c.6 0 1 .4 1 1s-.4 1-1 1h-2.5c-.6 0-1-.4-1-1s.4-1 1-1m-2.3-25.5c0 .3-.2.5-.5.5s-.5-.2-.5-.5v-3c0-.3.2-.5.5-.5s.5.2.5.5v3" fill="#62727a"/></svg>