<svg xmlns="http://www.w3.org/2000/svg" viewBox="0 0 64 64"><circle cx="32" cy="32" r="30" fill="#ff5a79"/><circle cx="32" cy="32" r="24" fill="#fff"/><path fill="#333" d="M52 32.8c-.4-.9-.9-1.7-1.6-2.4-.7-.7-1.5-1.2-2.4-1.6-.9-.4-1.9-.6-2.9-.6s-2 .2-2.9.6c-.3.1-.5.2-.8.4l-2.5-3.5.9-2.2c.8-.5 1.9-1.1 2.2-1.7.5-1-1.4-.4-5.5-.4 0 0-2.2-.2-1.2.8.6.6 1.8 1.2 2.6 1.6l-.4 1.1H26.6v-.2c.1-1.2-.4-2.2-1.1-3.3-.1-.1-.1-.2-.2-.3 0-.1-.1-.1-.1-.2 0-.2.2-.4.4-.4H29l1.1-1.7h-5.3c-.5 0-1.2.3-1.5 1-.2.4-.1.8 0 1.3.2.4.5.9.9 1.4 1.3 1.5.7 2.7.1 3.9-.1.1-.1.2-.2.4-.2.4-.8 1.3-1.6 2.4-.2-.1-.5-.2-.7-.4-.9-.4-1.9-.6-2.9-.6s-2 .2-2.9.6c-.9.4-1.7.9-2.4 1.6-.7.7-1.2 1.5-1.6 2.4-.4.9-.6 1.9-.6 2.9s.2 2 .6 2.9c.4.9.9 1.7 1.6 2.4.7.7 1.5 1.2 2.4 1.6.9.4 1.9.6 2.9.6s2-.2 2.9-.6c.9-.4 1.7-.9 2.4-1.6.7-.7 1.2-1.5 1.6-2.4.4-.9.6-1.9.6-2.9s-.2-2-.6-2.9c-.4-.9-.9-1.7-1.6-2.4l-.3-.3c.3-.4.5-.7.7-1.1l7 7.2c-.1.2-.2.5-.2.8 0 1.1.8 2 1.9 2.1l.4 2.3H33v.8h2.3v-.8h-.8l-.4-2.4c.7-.2 1.2-.7 1.4-1.4l2.3-.3c.1.4.2.8.4 1.2.4.9.9 1.7 1.6 2.4.7.7 1.5 1.2 2.4 1.6.9.4 1.9.6 2.9.6s2-.2 2.9-.6c.9-.4 1.7-.9 2.4-1.6.7-.7 1.2-1.5 1.6-2.4.4-.9.6-1.9.6-2.9 0-.9-.2-1.9-.6-2.8m-27.4 2.9c0 3.2-2.6 5.8-5.8 5.8-3.2 0-5.7-2.6-5.7-5.8 0-3.2 2.6-5.8 5.7-5.8 1 0 1.9.2 2.6.6-1.2 1.7-2.6 3.6-3.3 4.6-.1.1-.2.3-.2.5 0 .5.4.8.8.8.3 0 .5-.1.7-.3.3-.4 1.9-2.5 3.3-4.6 1.2 1.1 1.9 2.6 1.9 4.2m.9-8.1c.1-.1.1-.2.2-.3l.3-.6h10.8L33.5 35l-.5-3h.7v-1h-2.3v.8h.8l.5 3.2-7.2-7.4m9.9 8.4c-.1-.2-.2-.3-.3-.4l3.1-7.9 1.9 2.6-.2.2c-.7.7-1.2 1.5-1.6 2.4-.4.9-.6 1.9-.6 2.9l-2.3.2m5.7-4.4 2.5 3.4-4.2.5c0-1.5.7-2.9 1.7-3.9m4 9.9c-2.7 0-4.9-1.8-5.5-4.3l7.1-.8-4.2-5.8c.8-.4 1.7-.7 2.7-.7 3.2 0 5.7 2.6 5.7 5.8 0 3.2-2.6 5.8-5.8 5.8"/><path fill="#ff5a79" d="m9.23 13.474 4.243-4.243 41.295 41.295-4.243 4.242z"/></svg>