<svg xmlns="http://www.w3.org/2000/svg" viewBox="0 0 64 64"><path fill="#ffdd67" d="m32.6 16.1 2.7-1.5v9.5h-6.1z"/><path fill="#eba352" d="M28.4 20.5c1.8 1.1.8 3.6.8 3.6 2.5 0 4.3-4.9 4.3-8l-5.1 4.4"/><path fill="#ffdd67" d="m34.4 3.7-11 3.8c-1.4 2.6-.4 3.9-.5 5 0 .5-1 1.4-1.5 1.9-1.2 1 .8 1.9 1.5 1.7.5 1.1-.9 1.7 2.4 1.1 0 0-3.4 1.4-1 2.1-.2 1.3-.5 3.8 6.4 1.2 2-.8 2.8-4.4 2.8-4.4l3.4-.6-2.5-11.8"/><path fill="#ffb300" d="M26.6 2.8c7.2-2.4 11.2 1.3 11.8 3 1.8 4.4.3 9.4-3.1 13.1 0 0-1.6-.7-1.9-2.7 0 0 1.8.8 2.6-3 .7-3.2-2.7-4.9-4.4-.5h-.5c-1-2.2.8-5-1.8-5.8-2.2-.8-6.2 1.2-6.2 1.2-.7-1.4.6-4.3 3.5-5.3"/><path fill="#937237" d="M25.7 12.5c0 .7-.4 1.2-.9 1.2s-.6-.6-.6-1.2c0-.7.1-1.2.6-1.2s.9.6.9 1.2"/><path fill="#eba352" d="M32.6 13.4c0-1.3 1.1-2.5 2.2-2.5 0 0-1.9 1.6-1.4 3.8 0 0-.8-.3-.8-1.3"/><path fill="#937237" d="M26.4 16.9s-1.4 1-1.8 1.2c-1 .5-1.1.2-.6-.3.4-.4 1.3-.7 1.3-.7l1.1-.2"/><path d="M21.6 58.8c-1.9 0-3.6 1.4-3.6 3.2h8.1c.9 0 1.9-.7 1.9-1.6v-1.6h-6.4m18.1-2.1c-1.4 1.2-1.7 3.3-.5 4.6l6.1-5c.7-.6 1-1.7.4-2.4l-1.1-1.2-4.9 4" fill="#d3976e"/><path fill="#3b946f" d="m32.4 24.6 4.2 12.3 3.7-.2-4.8-14.4z"/><path fill="#ffdd67" d="m38.4 36-1.7.3c-.6.1-1 .7-.9 1.3l.2.8c.1.4.4.7.8.8.3 1 1 2.4 3.1 2 .3-.1 2.3-.4 1.8-2.6-.7-3.1-.7-3.1-3.3-2.6"/><path fill="#eba352" d="M37.2 39.3c1.5-.4 1-1.9.8-2.9 0-.2-.3-.1-.3.1.2.9.7 2.2-.6 2.5-.1.1 0 .4.1.3"/><path fill="#47b892" d="M36.6 38.7H25s-.8-8.5 2.2-13.9c2.2-4.1 8.3-2.4 8.3-2.4l1.1 16.3"/><path fill="#3e4347" d="m36.6 46.9.1-8.2H25l-2.8 9.1-.6 11H28l1-9.7 1-2 .3 3.2 9.6 6.2 4.7-3.7z"/><path fill="#3b946f" d="M33.3 26.2c.2-1-.5-2-1.6-2.2-1.1-.2-2.1.5-2.3 1.5l-1.1 6-5.6 3.8 2.4 3.1 6.3-4.3c.3-.2.6-.6.7-.9.1-.2.1-.3.1-.5l1.1-6.5"/><path fill="#ffdd67" d="m24.7 36.8-1-1.6c-.4-.6-1.1-.8-1.7-.4l-.8.4c-.4.2-.7.7-.6 1.1-1 .7-2.2 1.8-1 3.8.2.3 1.3 2.1 3.5.9 3.1-1.8 3.1-1.8 1.6-4.2"/></svg>