<svg xmlns="http://www.w3.org/2000/svg" viewBox="0 0 64 64"><path fill="#0071bc" d="M62 52c0 5.5-4.5 10-10 10H12C6.5 62 2 57.5 2 52V12C2 6.5 6.5 2 12 2h40c5.5 0 10 4.5 10 10v40z"/><g fill="#fff"><path d="M48.6 52H15.4c-1.9 0-3.4-1.5-3.4-3.3V25.3c0-1.8 1.5-3.3 3.4-3.3h33.2c1.9 0 3.4 1.5 3.4 3.3v23.3c0 1.9-1.5 3.4-3.4 3.4M15.4 24c-.8 0-1.4.6-1.4 1.3v23.3c0 .7.6 1.3 1.4 1.3h33.2c.8 0 1.4-.6 1.4-1.3V25.3c0-.7-.6-1.3-1.4-1.3H15.4"/><path d="M47 32h-3v16h3c.6 0 1-.4 1-1V33c0-.6-.4-1-1-1m-9 0v-4c0-1.1-.9-2-2-2h-8c-1.1 0-2 .9-2 2v4h-4v16h20V32h-4m-2 0h-8v-4h8v4m-19 0c-.6 0-1 .4-1 1v14c0 .6.4 1 1 1h3V32h-3m25-18H27.4c-.7-1.2-2-2-3.4-2-2.2 0-4 1.8-4 4s1.8 4 4 4c1.5 0 2.8-.8 3.4-2H30l2-2 2 2h2l2-2 2 2h2l2-2-2-2m-19 4c-1.1 0-2-.9-2-2s.9-2 2-2 2 .9 2 2-.9 2-2 2"/></g></svg>