<svg xmlns="http://www.w3.org/2000/svg" viewBox="0 0 64 64"><path fill="#666" d="M10.4 34.2H9.2V11.6c0-1.6.8-4.8 3.8-4.8v1.3c-2.6 0-2.6 3.3-2.6 3.5v22.6"/><path fill="#94989b" d="M21.6 7c-.5-.5-2.5-1.2-2.5-1.2L17.5.7c-.2-.7-1.9-.8-3.9-.2-2 .6-3.4 1.7-3.2 2.4l1.7 5.3s-1.3 2.3-1.4 3.1c-.3 1.6.6 6.3.6 6.3l14-4.2c-.1-.1-2.3-5.2-3.7-6.4"/><path fill="#3e4347" d="M12.1 8.1c.2-.6.7-1.2 1.3-1.6.6-.4 1.2-.7 1.8-.9.6-.2 1.3-.4 2-.4s1.4.1 2 .5c-.6-.3-1.3-.4-1.9-.3-.7 0-1.3.2-1.9.4-.6.2-1.2.5-1.8.8-.7.4-1.2.9-1.5 1.5"/><path fill="#ffe62e" d="M25.2 13.3c.4 1.4-2.5 3.5-6.3 4.6-3.9 1.2-7.3 1-7.6-.4-.4-1.4 2.5-3.5 6.3-4.6 3.8-1.2 7.3-1 7.6.4"/><path fill="#fff" d="M22.9 12.1c-1.4-.1-3.3.1-5.3.7-2.1.6-4 1.6-5.1 2.5 1.4.1 3.3-.1 5.3-.7 2.2-.6 4-1.5 5.1-2.5"/><path fill="#42ade2" d="M59.3 40.7c0 1.1-.9 2-2 2H6.7c-1.1 0-2-.9-2-2v-13c0-1.1.9-2 2-2h50.7c1.1 0 2 .9 2 2v13z"/><g fill="#428bc1"><path d="M59.3 40.7c0 1.1-.9 2-2 2H6.7c-1.1 0-2-.9-2-2v-13c0-1.1.9-2 2-2h50.7c1.1 0 2 .9 2 2v13z" opacity=".5"/><path d="M45 42.7H4.7V27.3s8 9.2 40.3 15.4"/></g><path fill="#42ade2" d="M62.3 30.5c0-1.8-1.3-3.2-3-3.2-1.6 0-2.9 1.4-2.9 3.2v12.4c0 1.8 1.3 3.2 2.9 3.2 1.6 0 3-1.4 3-3.2V30.5"/><path fill="#428bc1" d="M56.4 30.5v12.4c0 1.8 1.3 3.2 2.9 3.2 1.6 0 3-1.4 3-3.2 0 0-4.4 1.3-5.9-12.4"/><path fill="#3e4347" d="M6.1 59.8H10V64H6.1z"/><g fill="#428bc1"><path d="M45 59.8H4c-2.2 0-4-1.9-4-4.3s1.8-4.3 4-4.3h41v8.6"/><path d="M45 51.2H4c-2.2 0-4-1.9-4-4.3s1.8-4.3 4-4.3h41v8.6"/></g><path fill="#3e4347" d="M54 59.8h3.9V64H54z"/><g fill="#428bc1"><path d="M19 51.2h41c2.2 0 4 1.9 4 4.3s-1.8 4.3-4 4.3H19v-8.6"/><path d="M19 42.7h41c2.2 0 4 1.9 4 4.3s-1.8 4.3-4 4.3H19v-8.6"/></g><path fill="#42ade2" d="M7.6 30.5c0-1.8-1.3-3.2-2.9-3.2-1.6 0-2.9 1.4-2.9 3.2v12.4c0 1.8 1.3 3.2 2.9 3.2 1.6 0 2.9-1.4 2.9-3.2V30.5"/><path fill="#428bc1" d="M1.7 30.5v12.4c0 1.8 1.3 3.2 2.9 3.2 1.6 0 2.9-1.4 2.9-3.2.1 0-4.3 1.3-5.8-12.4"/><g fill="#42ade2"><path d="M.3 48.6C.1 48.1 0 47.5 0 47c0-2.4 1.8-4.3 4-4.3h41S5.8 43.6.3 48.6m0 8.6c-.2-.5-.3-1.1-.3-1.7 0-2.4 1.8-4.3 4-4.3h41s-39.2.9-44.7 6"/><path d="M63.7 45.3c.2.5.3 1.1.3 1.7 0 2.4-1.8 4.3-4 4.3H19c0-.1 39.2-1 44.7-6m0 8.5c.2.5.3 1.1.3 1.7 0 2.4-1.8 4.3-4 4.3H19s39.2-.9 44.7-6"/></g><path fill="#c7e755" d="M60.4 26.2S57.5 28.7 57 30c-1 2.8-.3 8.9 0 11.9.1.5.5 1.9.5 1.9s-3.4-.9-4.6-1.1c-2.3-.3-6.8.2-9.1 0-1-.1-4-.8-4-.8s2.6-1.2 3.1-2C44.5 37.4 44.8 31 45 28v-1.7s2.2.7 3 .8c2.2.2 6.8-.2 9-.4.8 0 3.4-.5 3.4-.5"/><path fill="#9db730" d="M47.4 36.4c.4-1 1-2 1.6-2.8 0-.2-.1-.4-.2-.6-.1-.3-.2-.6-.4-.8-.3-.5-.9-.9-1.4-1.2.6.1 1.3.3 1.8.8.3.2.5.5.7.8 0 .1.1.2.1.2.8-.9 1.6-1.6 2.6-2.3 1-.7 2.2-1.2 3.4-1.5-2 1.4-3.9 2.9-5.5 4.8-.8.9-1.5 1.9-2.1 3-.6 1.1-1.1 2.2-1.5 3.5.2-1.4.5-2.7.9-3.9"/></svg>