<svg xmlns="http://www.w3.org/2000/svg" viewBox="0 0 64 64"><path fill="#0071bc" d="M62 52c0 5.5-4.5 10-10 10H12C6.5 62 2 57.5 2 52V12C2 6.5 6.5 2 12 2h40c5.5 0 10 4.5 10 10v40z"/><g fill="#fff"><circle cx="14.5" cy="48" r="2"/><circle cx="21.5" cy="48" r="2"/><circle cx="28.5" cy="48" r="2"/><circle cx="35.5" cy="48" r="2"/><circle cx="42.5" cy="48" r="2"/><circle cx="49.5" cy="48" r="2"/><path d="M41 19h-2v-3.9c0-.6-.4-1-1-1H26c-.6 0-1 .5-1 1V19h-2v-3.9c0-1.7 1.3-3.1 3-3.1h12c1.7 0 3 1.4 3 3.1V19m9 0h-3.5v24H50c1.1 0 2-.9 2-2V21c0-1.1-.9-2-2-2m-30.5 0h25v24h-25zm-2 0H14c-1.1 0-2 .9-2 2v20c0 1.1.9 2 2 2h3.5V19"/></g></svg>