<svg xmlns="http://www.w3.org/2000/svg" viewBox="0 0 64 64"><path fill="#ffdd67" d="M50.9 36.4c2.2 3.7-4.2 6.6-7.8 6.6-3.6 0-12.3-1.3-10.6-5.2 1.8-4.1 8.9-11.4 12.5-11.4 3.6-.1 3.8 6.4 5.9 10"/><path d="M45.4 31.9C45 33 44 37.6 43 37.8m-21.4-5.2-11.8-.2s3.5 3.3 4.8 8l7-3.6c-.9-1.6 0-4.2 0-4.2" fill="#eba352"/><path fill="#ffb300" d="M4 31.4c-3.5-5.9-1.2-8.2-1.2-8.2.5-4.4 9.2-7.9 12.6-7.2 7 1.4 6.3 7.6 5.4 8l-8.5 7.3s2.6 6.6 7 6.3l-8.5 5.1L4 31.4"/><path fill="#ffdd67" d="M20.2 34.4c-3.1 1-3.7 2.4-8.4-3.7l2.1-1.2s1.7-.5.1-6.4c-.7-2.7.9-6 2.4-4.9 3 2.3 2.2 4 3 4.6 1.5 1.2 2.5 0 3 1 .3.6-.7 1.2-.6 1.4.1.4.6.4 1.2.5.7 0 0 .9.7 1.7s1.1 1.2 1.1 1.2c-.2.5-.8.8-.3 1.4 1 1.3 1.6 2.5-4.3 4.4"/><path fill="#eba352" d="M18.6 23.4c-.2-.2-.3-.4-.4-.7-.1-.3-.2-.5-.3-.8-.2-.3-.4-.6-.8-.7-.3-.1-.6-.1-.9 0 .3.1.5.2.7.4.2.1.3.3.4.6.1.2.3.5.4.8.3.1.6.4.9.4"/><path fill="#ffdd67" d="M9.8 31.9c1.3 1.3 3 1.6 3.9.7.9-.9.6-2.8-.6-4.1-1.3-1.3-3-1.6-3.9-.7-.9.9-.6 2.7.6 4.1"/><path fill="#574137" d="M10 28.5c.3-.2.7-.2 1.1-.2.4.1.7.3 1 .5.2.2.4.5.5.8.1-.1.2-.2.4-.2-.1.2-.1.3-.1.5 0 .1 0 .3.1.4 0 .1.1.3.2.4l.4.4c-.2.1-.4.1-.6-.1-.2-.1-.3-.4-.4-.6-.1-.2-.1-.5 0-.7 0 0 0-.1.1-.1-.5-.4-1-.7-1.5-.8h-.8l-.9.3c0-.2.2-.5.5-.6"/><path fill="#c94747" d="M22.8 27.3c.1-.3.3-.6.3-.8.1-.3.1-.5-.3-.8.2 0 .4 0 .6.2.2.2.3.4.3.7v.6l.6.3c.2.2.3.4.4.6.1.2.1.4.1.6-.3-.2-.6-.5-.8-.6-.1 0-.2-.1-.3-.1h-1.2l.3-.7"/><path fill="#574137" d="M15.3 24.1c.4-.1.7 0 1 .1.3.1.7.1 1.1.1.4 0 .8-.1 1.1-.3.3-.2.6-.6.5-1-.6.5-1.1.5-1.8.5-.3 0-.7 0-1 .1-.3-.1-.7.1-.9.5"/><path d="M13.1 57.5c0 2.5-.9 4.5-2.9 4.5s-3.4-2.2-2.5-4.5C9 53.9 12.2 52 14.2 52c1.9 0-1.1 3-1.1 5.5m37.8 0c0 2.5.9 4.5 2.9 4.5s3.4-2.2 2.5-4.5C55 53.9 51.8 52 49.8 52c-1.9 0 1.1 3 1.1 5.5" fill="#c6bbb3"/><path fill="#e2d8c7" d="M59.1 40.1c0 18.4-12 18.8-26.9 18.8S5.4 58.5 5.4 40.1h53.7"/><path fill="#c6bbb3" d="M5.4 41h53.7v1.2H5.4z"/><path fill="#ddd3ca" d="M59.4 41.4H5.1c-4.1 0-4.1-4.8 0-4.8h54.3c3.5 0 3.5 4.8 0 4.8"/><path d="M40.3 11.4C36.7 7.6 39.1 2 39.1 2s-7.8 7.4-2.9 12.5c5.7 5.9 2.9 9.5 2.9 9.5s7-6.6 1.2-12.6m-11 3.4c-2.8-2.7-.9-6.8-.9-6.8s-5.8 5.4-2.1 9.1c4.2 4.3 2.1 6.9 2.1 6.9s5.2-4.8.9-9.2m22 0c-2.8-2.7-.9-6.8-.9-6.8s-5.8 5.4-2.1 9.1c4.3 4.3 2.1 6.9 2.1 6.9s5.2-4.8.9-9.2" fill="#a6aeb0" opacity=".6"/></svg>