<svg xmlns="http://www.w3.org/2000/svg" viewBox="0 0 64 64"><path fill="#e9edf2" d="M64 45.3 45.3 64H18.7L0 45.3V18.7L18.7 0h26.6L64 18.7z"/><path fill="#ed4c5c" d="M58 42.8 42.8 58H21.2L6 42.8V21.2L21.2 6h21.6L58 21.2z"/><path d="M15.2 41.8c-2.97 0-5.4-2.52-5.4-5.67h2.7c0 1.44 1.17 2.7 2.7 2.7s2.7-1.17 2.7-2.7-1.17-2.7-2.7-2.7c-2.97 0-5.4-2.52-5.4-5.67 0-3.24 2.43-5.76 5.4-5.76s5.4 2.52 5.4 5.67h-2.7c0-1.44-1.17-2.7-2.7-2.7s-2.7 1.17-2.7 2.7 1.17 2.7 2.7 2.7c2.97 0 5.4 2.52 5.4 5.67 0 3.24-2.43 5.76-5.4 5.76zM31.4 22H20.6v2.7h4.05v17.1h2.7V24.7h4.05zm5.4 19.8c-2.97 0-5.4-2.52-5.4-5.67v-8.37c0-3.15 2.43-5.67 5.4-5.67s5.4 2.52 5.4 5.67v8.37c0 3.15-2.43 5.67-5.4 5.67m0-16.74c-1.53 0-2.7 1.17-2.7 2.7v8.37c0 1.44 1.17 2.7 2.7 2.7s2.7-1.17 2.7-2.7v-8.37c0-1.53-1.17-2.7-2.7-2.7M49.4 22H44v19.8h2.7v-8.37h2.7c2.97 0 5.4-2.52 5.4-5.67 0-3.24-2.43-5.76-5.4-5.76m0 8.37h-2.7v-5.31h2.7c1.53 0 2.7 1.17 2.7 2.7s-1.17 2.61-2.7 2.61" fill="#fff"/></svg>