<svg xmlns="http://www.w3.org/2000/svg" viewBox="0 0 64 64"><path d="M26.3 27.7h11.3v.3H26.3zm1.1-1.3h9.2v.3h-9.2zm.9-1.2h7.4v.3h-7.4zm-5.1 6.4h17.6v.5H23.2zm1.8-2.2h14v.5H25z" fill="#594640"/><path d="m36.6 26.4-.5-.6h-8.2l-.5.6zm1.1 1.3-.7-.8H27l-.7.8zm-2-2.5-.4-.5h-6.6l-.4.5zm5.1 6.4-1-1.2H24.2l-1 1.2zM39 29.4l-.8-1H25.8l-.8 1z" fill="#dbb471"/><path d="M15.3 41.5h33.4v.9H15.3zm3.1-3.9h27.1v.7H18.4zm2.7-3.4h21.8v.7H21.1zM0 60.7h64v1.8H0zM6.1 53h51.8v1.5H6.1zm5.3-6.6h41.2v1.5H11.4z" fill="#594640"/><path d="M45.6 37.6 44 35.7H20l-1.6 1.9zm3.1 3.9-2-2.4H17.3l-2 2.4zm-5.8-7.3-1.2-1.5H22.3l-1.2 1.5zm15 18.8-3-3.7H9.1l-3 3.7zm2.3 2.9H3.8L0 60.7h64zm-7.6-9.5-2.4-2.9H13.8l-2.4 2.9z" fill="#dbb471"/><path fill="#666" d="m11 64 19.1-39.3H30L11 61.1z"/><path fill="#3e4347" d="M7 61.1h4V64H7z"/><path fill="#e6e6e6" d="M29.6 24.7 7 61.1h4l19-36.4z"/><path fill="#666" d="M53 64 33.9 24.7h.1l19 36.4z"/><path fill="#e6e6e6" d="M34.4 24.7 57 61.1h-4L34 24.7z"/><path fill="#3e4347" d="M52.9 61.1h4V64h-4z"/></svg>