<svg xmlns="http://www.w3.org/2000/svg" viewBox="0 0 64 64"><path fill="#ffce31" d="m43.4 25.1 14.4-1.7-14 5.1"/><path fill="#b2c1c0" d="M44.4 24.5s-5.2-.2-9.3 3.2V32s5.2 0 9.3-3.2c.5-.4 1-1 1-2.1 0-1.2-.4-2.2-1-2.2"/><path fill="#42ade2" d="m9.3 25.1 8.2 16.3 13.1-4.2-17.2-13.3z"/><path fill="#428bc1" d="M13.4 17.6v6.3l-4.1 1.2 2.1-6.2z"/><ellipse cx="35.1" cy="30.1" fill="#3e4347" rx="1" ry="2.5"/><path fill="#dae3ea" d="m50.6 17.6-5.7 9.8s-23.3 6.5-31.5 9.3C5.2 39.6 8 42.4 2.1 48.2c-6.8 6.5 2.7 6.9 33.9-5.6 2.8-1.1 4.2-5.7 8.7-8.6 4.8-3.1 9-4.4 9-4.4l3.1-14.4-6.2 2.4"/><path d="m51.6 10.1-4.1 1.3 3.1 6.5 9.2 2.2 4.2-2.9-7.2-2.1zM21.3 46.5l38.6 7.4L64 51 37.2 39.5z" fill="#42ade2"/><path fill="#428bc1" d="M64 43.9V51l-4.1 2.9 2.1-8.7z"/><path fill="#3e4347" d="M8.2 39.7C7 40.9 6.4 42.3 5.4 44c.9 1.1 2.3 1.7 3.9 1.7 2.9 0 5.2-2.2 5.2-5h-3.1c-1.3.1-2.4-.4-3.2-1"/><path fill="#dae3ea" d="m10.4 49.3-1 .2c-.6-6.5 1.1-9.9 1.2-10l.8 1-.4-.5.4.5c-.1 0-1.6 3-1 8.8"/><g fill="#3e4347"><ellipse cx="21.7" cy="40.8" rx="1" ry="1.9"/><ellipse cx="25.8" cy="39.5" rx="1" ry="1.9"/><ellipse cx="29.9" cy="38.2" rx="1" ry="1.9"/></g><path fill="#ffce31" d="M51.6 30 64 26.7l-11.9 6.7"/><path fill="#b2c1c0" d="M51.6 29.5s-5.2-.3-9.3 3.7v5s5.2 0 9.3-3.7c.5-.4 1-1.1 1-2.5s-.4-2.5-1-2.5"/><ellipse cx="42.3" cy="35.8" fill="#3e4347" rx="1" ry="2.5"/></svg>