<svg xmlns="http://www.w3.org/2000/svg" viewBox="0 0 64 64"><path fill="#3e4347" d="M50.3 48.5h1.1v4.8h-1.1zm8.9 0h1.1v4.8h-1.1zm-4.5 0h1.1v4.8h-1.1z"/><path fill="#dae3ea" d="M44.7 33.7H28l-5.5 9.7 27.8 8.5z"/><path fill="#3e4347" d="M43.9 48.3h17v1.2h-17z"/><path fill="#c5d0d8" d="M42.7 33.7H36l2.2-9.7h2.3z"/><path fill="#dae3ea" d="M25.7 38.5H2l6.3 9.2 1.7-1.4L6.4 41h4.4v4.8H13V41h3.9v4.8h2.2V41h6.6z"/><path fill="#3e4347" d="M47.2 51.9c-.5 0-.8.5-.7 1.2v.1c.2.6.7 1.1 1.3 1.1H61c.5 0 1-.5 1-1.2s-.4-1.2-1-1.2H47.2"/><path fill="#f15744" d="M58.5 60.3h-31c-12.5 0-22.2-17-22.2-17h17.2c22.2 0 27.6 10.9 33.7 10.9h4.6l-2.3 6.1"/><path fill="#c94747" d="M14.6 54.7h7.9c11.4 0 18.3 2.9 23.2 5.7h7.6C48 57.9 41.2 50.2 22.5 50.2H10.2c1.2 1.5 2.7 3 4.4 4.5"/><path fill="#3e4347" d="m28.8 35.5-4 7.3h16.6l-2.2-7.3zM32.7 47c-.6 0-1.1.5-1.1 1.2v2.4c0 .7.5 1.2 1.1 1.2h2.2c.6 0 1.1-.5 1.1-1.2v-2.4c0-.7-.5-1.2-1.1-1.2h-2.2M26 47c-.6 0-1.1.5-1.1 1.2v2.4c0 .7.5 1.2 1.1 1.2h2.2c.6 0 1.1-.5 1.1-1.2v-2.4c0-.7-.5-1.2-1.1-1.2H26"/><path fill="#dae3ea" d="M44.9 28.8c0-.7-.5-1.2-1.1-1.2h-8.9c-.6 0-1.1.5-1.1 1.2s.5 1.2 1.1 1.2h8.9c.6.1 1.1-.5 1.1-1.2"/></svg>