<svg xmlns="http://www.w3.org/2000/svg" viewBox="0 0 64 64"><path d="M41.4 2c-.7 0-1.3.2-1.9.5-.6-.3-1.2-.5-1.9-.5-3.4 0-3.8 2.6-3.8 2.6-1.6 0-2.8 1.3-2.8 2.8 0 1.6 1.3 2.8 2.8 2.8.9 0 1.7-.4 2.2-1.1.5.2 1 .3 1.5.3.7 0 1.3-.2 1.9-.5.6.3 1.2.5 1.9.5 2.1 0 3.8-1.7 3.8-3.7S43.4 2 41.4 2m10.3 9.9c-.7 0-1.3.2-1.9.5-.6-.3-1.2-.5-1.9-.5-3.4 0-3.8 2.7-3.8 2.7-1.6 0-2.8 1.3-2.8 2.8 0 1.6 1.3 2.8 2.8 2.8.9 0 1.7-.4 2.2-1.1.5.2 1 .3 1.5.3.7 0 1.3-.2 1.9-.5.6.3 1.2.5 1.9.5 2.1 0 3.8-1.7 3.8-3.7 0-2.1-1.6-3.8-3.7-3.8" fill="#e8e8e8"/><path d="M40.4 18.5v30.3h7.5V18.5c-2.2-2.2-5.2-1.8-7.5 0M29.2 8.2v30.3h7.5V8.2c-2.3-2.2-5.3-1.8-7.5 0" fill="#fff"/><path fill="#ed4c5c" d="M29.2 10.1v30.3h7.5V10.1c-2.3-2.2-5.3-1.9-7.5 0"/><path fill="#fff" d="M29.2 11.9v30.3h7.5V11.9c-2.3-2.2-5.3-1.8-7.5 0"/><path fill="#ed4c5c" d="M40.4 20.3v30.3h7.5V20.3c-2.2-2.1-5.2-1.8-7.5 0"/><path fill="#fff" d="M40.4 22.2v30.3h7.5V22.2c-2.2-2.2-5.2-1.8-7.5 0"/><g fill="#94989b"><path d="M58.7 47.8H10.9V23.5l1.9-1.9v-2.7l1.9-1v-2l7.5-3.4 15 2.6 21.5 20.1z"/><path d="M35.2 15.1v3.7l-1.8.4v3.4l-1.9-.2v3.9h-1.8v4.4l29 15.1V35.2L37.2 15.1z"/></g><path fill="#fff" d="M8.6 24.5S3.5 26.3 2 31c0 0 1.6 5.7 6.1 12.6 4.5 6.9 7 16.4 7 16.4V31.7l-6.5-7.2"/><path d="M28.2 27.3v2l-4.9-2.1zm1.9-3.8v1.7l-13.6-1.7zm1.9-3.7v1.7l-13.6-1.7zm1.9-3.8v1.7L20.3 16z" fill="#3e4347"/><path fill="#fff" d="M14.7 14.2V16l7.5-1.8v-1.9z"/><path fill="#e8e8e8" d="M22.2 12.3v1.9l15 1.8v-1.8z"/><path fill="#d0d0d0" d="M37.2 16v-1.8l21.5 21v.5z"/><path fill="#fff" d="M12.8 17.9v1.9l7.5-1.9V16z"/><path fill="#e8e8e8" d="M20.3 16v1.9l15 1.9v-1.9z"/><path fill="#d0d0d0" d="M35.3 19.8v-1.9L58.7 38v.5z"/><path fill="#fff" d="M10.9 21.6v1.9l7.5-1.9v-1.8z"/><path fill="#e8e8e8" d="M18.4 19.8v1.8l15 1.9v-1.9z"/><path fill="#d0d0d0" d="M33.4 23.5v-1.9l25.3 19.2v.5z"/><path fill="#fff" d="M9 25.4v1.9l7.5-1.9v-1.9z"/><path fill="#e8e8e8" d="M16.5 23.5v1.9l15 1.9v-1.9z"/><path fill="#d0d0d0" d="M31.5 27.3v-1.9l27.2 18.2v.5z"/><path d="M57.8 36.9V36L36.2 16.9v1.5zm-.1 2.7v-.9L34.3 20.5v1.4zm.1 3v-.8L32.5 24.1v1.4zM30.6 28.3v1.2l27.2 15.6v-.8z" fill="#3e4347"/><path fill="#d0d0d0" d="M8.6 24.5s-1.1 7.9 2.1 17C15.1 54.1 14.9 60 14.9 60h41.7s.2-2.8 2.8-6.4C62 50 62 47.8 62 47.8S21.1 21.4 8.6 24.5"/><path fill="#3e4347" d="M58.3 46.8 27.4 31.6v2.8l30.9 14z"/><path d="M56.6 44.6v2.5h.5v-2.5zM50 40.7v3.1h.5v-3.1zm-7-4.1V41h.5v-4.4zm-8-4V38h.4v-5.4z" fill="#e8e8e8"/><path d="M57.2 47.1c.4.6-.5.7-1.9.4-1.4-.4-2.9-1.1-3.3-1.7-.4-.6.5-.7 1.9-.4 1.4.4 2.9 1.1 3.3 1.7m-6.5-3c.4.7-.5.9-2.1.6-1.6-.4-3.2-1.3-3.6-1.9-.4-.7.5-.9 2.1-.6 1.6.4 3.2 1.2 3.6 1.9m-7.1-3.3c.5.7-.5 1-2.2.6-1.7-.3-3.5-1.2-3.9-1.8-.5-.7.5-1 2.2-.6 1.6.3 3.4 1.2 3.9 1.8m-7.8-3.2c.6.8-.5 1.2-2.5.8-2-.3-4-1.2-4.6-2-.6-.8.5-1.2 2.5-.8 1.9.3 4 1.2 4.6 2" fill="#ed4c5c"/><path d="M29 29.6V36h.4v-6.4zm8.5 4.4v5.2h.4V34zm7.8 3.9v4.5h.5v-4.5zm6.9 4.1v3.4h.5V42z" fill="#e8e8e8"/><path d="M5.4 15.9s-.1-1.3 1.8-1.8c0 0 .6-1.6 2.8-1.5 0 0-2.3.9-2.1 2.3-.1 0-1.7-.4-2.5 1m.4-9s.6-1.1 2.4-.5c0 0 1.4-1.1 3.2.3 0 0-2.4-.5-3 .7-.1 0-1.2-1.2-2.6-.5" fill="#94989b"/></svg>