<svg xmlns="http://www.w3.org/2000/svg" xmlns:xlink="http://www.w3.org/1999/xlink" viewBox="0 0 64 64"><path fill="#d0d0d0" d="M24.4 24.4c3.2-3.2 3.2-8.4 0-11.6L12.8 24.4c3.2 3.2 8.4 3.2 11.6 0"/><path fill="#94989b" d="M27 27c-4.3 4.3-4.3 4.3-6 2.6-1.7-1.7-1.7-1.7 2.6-6s4.3-4.3 6-2.6c1.7 1.7 1.7 1.7-2.6 6"/><path fill="#7f8285" d="M37.2 37.2c-4.3 4.3-4.3 4.3-6 2.6l-6.9-6.9c-1.7-1.7-1.7-1.7 2.6-6s4.3-4.3 6-2.6l6.9 6.9c1.7 1.7 1.7 1.7-2.6 6"/><path fill="#646669" d="M39.6 39.6c-3.2 3.2-3.2 3.2-4.5 1.9-1.3-1.3-1.3-1.3 1.9-4.5s3.2-3.2 4.5-1.9c1.3 1.2 1.3 1.2-1.9 4.5"/><path fill="#94989b" d="m22.2 15-7.1-1.3c0-.3-.1-.5-.3-.7-.4-.4-1.2-.4-1.6 0-.4.4-.4 1.2 0 1.6.2.2.4.3.6.3l1.4 7.2.8-.8h-.2l-1.2-6.5c.1-.1.2-.1.3-.2.1-.1.1-.1.1-.2l6.5 1.2v.2l.7-.8"/><path d="m25.756 37.336 1.485-1.484.919.92-1.485 1.484zm10.11-10.096 1.485-1.484.919.919-1.485 1.485z" fill="#3e4347"/><path id="a" fill="#428bc1" d="M31.1 42.6c.2.2.2.5 0 .7L12.5 61.9c-.2.2-.5.2-.7 0l-9.7-9.7c-.1-.2-.1-.5 0-.7l18.6-18.6c.2-.2.5-.2.7 0l9.7 9.7"/><use xlink:href="#a"/><path fill="#428bc1" d="M61.9 11.9c.2.2.2.5 0 .7L43.3 31.1c-.2.2-.5.2-.7 0l-9.7-9.7c-.2-.2-.2-.5 0-.7L51.5 2.1c.2-.1.5-.1.6 0l9.8 9.8"/><path d="m3.3 51.8.7.7h16.4l5.1-5.1H7.7zm25.9-9.5H12.8l-2.5 2.6H28l1.9-1.9zM34.1 21l.7.7h16.4l5.1-5.1H38.5zM60 11.5H43.6l-2.5 2.6h17.7l1.9-1.9z" fill="#42ade2"/></svg>