<svg xmlns="http://www.w3.org/2000/svg" viewBox="0 0 64 64"><circle cx="52" cy="54.5" r="7.5" fill="#3e4347"/><circle cx="52" cy="54.3" r="3.8" fill="#94989b"/><circle cx="10.5" cy="54.5" r="7.5" fill="#3e4347"/><circle cx="10.5" cy="54.5" r="3.8" fill="#94989b"/><path fill="#f2b200" d="M53 36.9H31.6s5.3 2.3 5.3 7.2c0 2.7-2.4 4.8-5.3 4.8h-9.7c-1.7 0-3.1-5.3-3.1-11.9 0-6.8 2.7-10.4 2.7-10.4v-2.1c0-.7-.4-1.3-.9-1.3-.7-.1-1.5-.5-1.7-1.4-.5-1.8-1.7-1.8-2.5-1.8H15v6.6h3.4S10.5 37 10.5 42.2c0 .8.8 2 .8 2h-.8c-3.4 0-6.8 1.9-8.4 4.8-.8 1.4 5.9.6 8.4 1.9 2.1 1.1 3 2.9 6.5 2.9h3.3c1.3 0 1.8 1 3.2 1H62c0-11.3-9-17.9-9-17.9"/><path d="M14 20h.9v6.6H14zm-.9 3.3c0 1.3.4 2.3.9 2.3v-4.7c-.5 0-.9 1.1-.9 2.4" fill="#d0d0d0"/><path d="M14 20v6.6h.9S14 23.3 14 20m0 5.6v-1.2c-.7-.3-.9-1.1-.9-1.1 0 1.3.4 2.3.9 2.3" fill="#94989b"/><g fill="#3e4347"><circle cx="20.8" cy="24.6" r="1"/><path d="m23.3 25-.3-.3-2-.8c-.4-.1-.8.1-.9.5-.1.4.1.8.5.9l1.7.7c.2.1.4.1.6 0 .4-.2.5-.6.4-1"/></g><circle cx="22.6" cy="25.4" r=".6" fill="#94989b"/><path fill="#3e4347" d="M55.8 31.3c0-1-.8-1.9-1.9-1.8l-22.5.8c-1 0-1.9.9-1.9 2V35c0 1 .8 1.9 1.9 1.9h22.5c1 0 1.9-.9 1.9-1.9v-3.7"/><path fill="#94989b" d="m30.5 32.1 24.3-.8c0-.5-.4-.9-.9-.9l-22.5.8c-.5 0-.9.4-.9.9"/><path fill="#89664c" d="M57.8 43.9c-1-.8-2.1-1.5-3.2-2-1.1-.6-2.3-1.1-3.5-1.4-1.2-.3-2.4-.6-3.7-.7-1.2-.1-2.5 0-3.6.3-2.3.6-4.3 2.4-5.2 4.7-.9 2.3-.6 4.9.3 7.3-.7-1.1-1.1-2.3-1.3-3.6-.2-1.3-.1-2.6.3-3.9.4-1.3 1.1-2.5 2.1-3.4 1-.9 2.2-1.6 3.5-1.9 1.3-.4 2.7-.4 3.9-.3 1.3.1 2.6.4 3.8.9 2.6.8 4.9 2.2 6.6 4"/><path fill="#ffce31" d="M58.6 45.2c-1-.7-2-1.3-3.1-1.8s-2.2-.9-3.3-1.2c-1.1-.3-2.3-.5-3.5-.6-1.2-.1-2.3-.1-3.4.2-2.3.4-4.3 1.8-5.3 3.8-1 2.1-.8 4.6.2 6.8-.7-1-1.1-2.2-1.3-3.4-.2-1.2 0-2.5.4-3.7.5-1.2 1.3-2.2 2.3-3 1-.8 2.2-1.3 3.4-1.5 1.2-.2 2.5-.2 3.7-.1 1.2.1 2.4.4 3.6.8 2.4.8 4.5 2 6.3 3.7"/><g fill="#d0d0d0"><circle cx="8" cy="54.5" r=".5"/><circle cx="8.7" cy="56.3" r=".5"/><circle cx="10.5" cy="57" r=".5"/><circle cx="12.3" cy="56.3" r=".5"/><circle cx="13" cy="54.5" r=".5"/><circle cx="12.3" cy="52.7" r=".5"/><circle cx="10.5" cy="52" r=".5"/><circle cx="8.7" cy="52.7" r=".5"/></g><path fill="#ffce31" d="M19.2 51.6c-.5-1.4-1.2-2.6-2.1-3.6-1-1-2.2-1.7-3.5-2.1-1.3-.4-2.7-.3-4 0-1.3.4-2.6 1-3.7 2 .8-1.2 2-2.2 3.5-2.7 1.4-.5 3-.6 4.5-.2 1.5.4 2.8 1.3 3.8 2.5.9 1.2 1.4 2.6 1.5 4.1"/><g fill="#d0d0d0"><circle cx="10.5" cy="54.5" r=".9"/><circle cx="50.2" cy="56.1" r=".5"/><circle cx="52" cy="56.8" r=".5"/><circle cx="53.8" cy="56.1" r=".5"/><path d="M51.2 54.7c.2.3.5.5.8.5s.7-.2.8-.5h-1.6"/></g></svg>