<svg xmlns="http://www.w3.org/2000/svg" viewBox="0 0 64 64"><path fill="#ffdd67" d="m56.3 33.4-1.2-18.1-8.3 5.1c-4.1-.7-5.2-.7-8.4-2.2-1.9-.9-4.3-.3-5.5.4-1.8-1.9-13.5.9-14.8 1.5C14.6 19 9.4 15 9.4 15L7.6 35.4l2.4.6c.2.7.8 2.4.8 2.4-2.2 2.8.4 6.1 2.9 5-1.1 2.8 1.8 5.4 4.1 3.6-.3 2.6 2.4 4.5 4.4 2.7-.9 3.1 2.6 5.4 4.7 2.9 1.5 1 2.9 1.8 4.1 2.2 2.1.9 4.4-1.1 4-3.6 2.4 2.8 6 .1 5.2-3 2.7 2.1 6-1.4 4.3-4.5 3 1.7 5.6-2.9 2.7-5.9l9.1-4.4"/><g fill="#eba352"><path d="M13.9 36.3c1.5.7 2.5 3 .9 5l-.7.8c-.8 1-1.6 1.3-2.4 1.3.6.3 1.3.3 2 0 .1-.3.3-.7.6-1l.7-.8c.4-.5.9-.9 1.3-1.1.8-2.1-.6-4.1-2.4-4.2m11.4 9.9c1.6.4 2.8 2.5 1.6 4.8l-.6.9c-.6 1.1-1.4 1.6-2.2 1.7 1.1.3 2.3-.1 3.1-1.6l.6-.9c1.5-2.8-.4-5.1-2.5-4.9m-7-.8 1.6-2.5c-.1-1.4-1.3-2.6-2.5-2.7 1.5.7 2.5 3 .9 5l-.7.8c-.8 1-1.6 1.3-2.5 1.3.8.4 1.7.3 2.6-.3.1-.5.3-1.1.6-1.6m4.3-4.5c1.6.5 2.7 2.7 1.3 4.9l-1.9 3c-.7 1.1-1.5 1.5-2.3 1.5 1 .3 2.3 0 3.2-1.4l1.9-3c1.6-2.6-.2-5.1-2.2-5m13.3 2.5c.1 0 1.3-.2 1.7-.2-1.5-1.5-3.9-.3-5.3-1.1 1 1.7 3.1 1.3 3.3 1.3l2.4 3.1c2 2.5.4 5.4-1.7 5.7 2.2.7 4.4-1.6 3.7-4.1-.1-.1-4.1-4.7-4.1-4.7m2.4-5.8s1.5-.3 2.8-.3c-1.5-1.2-3.8-.1-5.3-1.1.6 1.3 1.9 1.3 2.3 1.4l4.6 5.3c2.1 2.4.6 5.3-1.5 5.8 2.4.7 4.7-2.4 3.2-5.1-1-.4-6.1-6-6.1-6"/><path d="M35.1 49.1c-1.5-1.2-3.6-.3-4.5-.9.5 1.4 2.4 1.1 2.5 1.1 1.7 2.6-.1 5.3-2.2 5.5 2.1.9 4.4-1.1 4-3.6-.1-.1-1.5-1.9-1.5-1.9.2-.1 1.3-.2 1.7-.2m20.1-17.4s-1.7 3.5-8.3 5.4c-.9-1.1-2.8-3.3-5-5.2 1.4-.3 2.1-1.4 3.2-1.6-.4-.4-1.8-.2-2.9.2-2 .7-6.6-2.5-6.6-2.5l-3.8.5c-2.7 2.6-8.5 4-8.8 0-.2-2.8 5.9-4.7 7.8-6.5 2.4-2.3 4.5-5.2 8.4-3.2 3.2 1.6 4.5 1.5 8.9 2.3 1.5.3 2.5 1 3.6 2.5-.9-2.1-2.2-3-3.8-3.3l7-3.3.1-1.7-8.3 4.7c-3.8-.6-5.2-.6-8.3-2.1-2-1-3.6-.7-4.9.1-2.4-1.4-3.8-1.1-4.7-.9-2.8.9-7.3 1-11.3 2.6.7.2 1.4.4 1.9.4 3.9-1.2 8-1.1 9.9-1.8.6-.2 1.8-.2 3.1.5-.8.7-1.5 1.5-2.3 2.3-1.9 1.8-7.7 4.4-7.3 7.7.2 1.6 2.4 5.8 9.7 1.1l3.1-.4s5.7 2.7 11 8.9c2.1 2.4.8 5-1.3 5.6 2.7.5 5-3.3 2.4-5.9l6.3-3.4 1.2-3"/></g><path fill="#3b946f" d="m53.4 16.3 3.3 17.1-2.7 1.2c-1.4-3.7-3.5-12.6-3-16.9l2.4-1.4"/><path fill="#eba352" d="M11.1 38c-.5-1.2-.8-2.8-.8-2.8l-2.5-1.7-.2 1.9 2.2.6c.3 1 .6 1.8 1 2.4l.3-.4"/><path fill="#3b946f" d="m6.1 35.1 5.4-18.7 2.5 1.7c.4 2.8-4.2 15.6-5.9 17.5l-2-.5"/><path d="M53.3 16.2c-.8.5 2.1 17.8 3.3 17.3 3.8-1.7 5.5-2.2 5.5-2.2V10.7c-.1 0-2.4 1.7-8.8 5.5M2 9v25.5s1.8.3 4.1.8c1.3.3 6-18.5 5.7-18.8C8.4 14.2 2 9 2 9" fill="#47b892"/></svg>