<svg xmlns="http://www.w3.org/2000/svg" viewBox="0 0 64 64"><path fill="#ffdd67" d="M29.3 40.9h-8.1V9.3c0-2.1 1.8-3.9 4-3.9s4 1.8 4 3.9l.1 31.6"/><path fill="#eba352" d="M25.3 5.5c.3 0 .5 0 .7.1-1.9.3-3.3 1.9-3.3 3.8V41h-1.4V9.3c-.1-2.1 1.7-3.8 4-3.8"/><path fill="#ffdd67" d="M38.4 40.9h-9V6.7c0-2.6 2-4.7 4.5-4.7s4.5 2.1 4.5 4.7v34.2"/><path fill="#eba352" d="M33.8 2c.2 0 .5 0 .7.1-2.2.3-3.8 2.3-3.8 4.6v34.2h-1.4V6.7c0-2.6 2-4.7 4.5-4.7"/><path fill="#ffdd67" d="M46.2 40.9h-7.9V8.7c0-2.2 1.8-4.1 3.9-4.1 2.2 0 3.9 1.8 3.9 4.1l.1 32.2"/><path fill="#eba352" d="M42.3 4.6c.2 0 .5 0 .7.1-1.8.3-3.3 2-3.3 4v32.2h-1.4V8.7c.1-2.3 1.8-4.1 4-4.1"/><path fill="#ffdd67" d="M49.8 9.4c2 0 3.6 1.7 3.6 3.8v27.7h-7.2V13.2c0-2.1 1.6-3.8 3.6-3.8"/><path fill="#eba352" d="M49.8 9.4c.2 0 .5 0 .7.1-1.7.3-2.9 1.9-2.9 3.7v27.7h-1.4V13.2c0-2.1 1.6-3.8 3.6-3.8"/><path fill="#ffdd67" d="M13.5 30.2c4.3.4 5.7 3.7 6.2 5.4l.2.8s.5.5 1.1 1.4h.2s1.9-3 1.8-9.2l6.3.5 1.4 1 7.7-.1 1.3 1.4 6.6-.4 1.4 1.3s5.7 0 5.8.6c.5 2.1 1 5 0 13.5-2.4 20.5-28.8 16.8-34.2 7.7-1-1.7-4.9-6.5-4.9-6.5-.6-.5-1-1.3-1.1-2.3-.3-2.9-1-6.5-3-10.7-.8-1.8.2-4.7 3.2-4.4"/><g fill="#eba352"><path d="M11 31c-.2.7-.1 1.4.1 1.9 2 4.2 2.7 7.8 3 10.7.1 1 .5 2.1 1.1 2.7 2.9 3 7.2 14.4 17.5 14.4 11.4 0 16.9-5.2 18.6-7.4-1.3 3.2-6.7 8.6-18.7 8.6-11.2 0-14.2-10.1-18.2-14.6-.7-.9-1-1.3-1.1-2.3-.3-2.9-1-6.5-3-10.7-.5-.9-.3-2.4.7-3.3"/><path d="M20.1 41.8s-1.3-4.1-1.8-6c-.4-1.6-1.9-4.5-4.5-5.6 4 .5 5.4 3.8 5.9 5.4l.2.8s.7.5 1.3 1.4c0 0-1.3 1.8-1.1 4m8.8-14.9c.2.5.5 1 .8 1.4.3.4.6.9.9 1.4.3.5.5 1.1.5 1.7 0 .6-.2 1.2-.5 1.7 0-.6-.1-1.1-.2-1.6s-.3-.9-.6-1.4c-.2-.5-.5-.9-.7-1.5-.3-.5-.4-1.1-.2-1.7m9.1.7c.2.5.5 1 .8 1.4.3.4.6.9.9 1.4.3.5.5 1.1.5 1.7 0 .6-.2 1.2-.5 1.7 0-.6-.1-1.1-.2-1.6s-.3-.9-.6-1.4c-.2-.5-.5-.9-.7-1.5-.3-.5-.4-1.2-.2-1.7m7.8 1c.2.5.5 1 .8 1.4.3.4.6.9.9 1.4.3.5.5 1.1.5 1.7 0 .6-.2 1.2-.5 1.7 0-.6-.1-1.1-.2-1.6s-.3-.9-.6-1.4c-.2-.5-.5-.9-.7-1.5-.3-.5-.4-1.2-.2-1.7"/></g></svg>