<svg xmlns="http://www.w3.org/2000/svg" viewBox="0 0 64 64"><path fill="#ffdd67" d="M39.6 7.8c2.7 1.7 6.2 5.5 10.4 7.2 3.8 1.5 11.9 2.3 11.9 2.3v31s-14.8-1-19.6 2.9L39.6 7.8"/><path fill="#eba352" d="M42.7 48.3s10.2-2.8 19.3-2.8v2.7c-6.6 0-19.6 2.9-19.6 2.9l.3-2.8"/><path fill="#ffdd67" d="M17.9 14.1s6.5-6.5 9.4-7.9C37.9.9 47.5 13.8 47.2 24.7c-.2 6.3-1.1 15.9-2.5 22-2.1 9-14.9 9.3-20.5 8.7l-6.3-41.3"/><path fill="#eba352" d="M24.2 54.2c10.9 0 18.1-3.3 21.5-8.4-.5 6.8-9.8 11-21.5 10v-1.6"/><path fill="#ffdd67" d="M30.2 6.2C12.2 4 5.1 13.5 3.1 17c-1.8 3.1-1.1 6.1.7 8 2 2.1 12.2 4.8 12.2 4.8S37 7 30.2 6.2z"/><path fill="#eba352" d="M37 36c-6.9-.6-9.5-6-10.6-8.5l-.9 4s1.7 5.2 8.4 5.4c1.7.1 3.3-.2 4.7-.9-.5.1-1.1.1-1.6 0"/><path fill="#ffdd67" d="m14.6 46.2 3.2 3.1 4.2-.4c4.9-.4 5.5 8.9.6 9.3l-5.9.6c-1.1.1-1.9-.1-2.8-1.1l-4.5-4.4c-3.9-3.7 1.4-10.8 5.2-7.1"/><path fill="#eba352" d="m9.2 52 4.5 4.4c.9.9 1.7 1.1 2.8 1.1l5.9-.6c2.2-.2 3.3-2.1 3.4-4.2.3 2.4-.8 5.3-3.4 5.6l-6 .6c-1.1.1-1.8-.3-2.7-1.3l-4.5-4.4c-1-1-1.4-2.3-1.3-3.5.3.9.6 1.7 1.3 2.3"/><path fill="#ffdd67" d="m13 36.5 3.7 3.7 4.9-.5c5.8-.5 6.5 10.5.7 11l-7 .7c-1.3.1-2.2-.2-3.3-1.3l-5.3-5.2c-4.3-4.4 1.9-12.8 6.3-8.4"/><path fill="#eba352" d="m6.7 43.4 5.3 5.2c1.1 1.1 2 1.3 3.3 1.3l7-.7c2.6-.2 3.9-2.5 4-4.9.4 2.9-.9 6.1-3.9 6.4l-7 .7c-1.3.1-2.2-.2-3.3-1.3l-5.3-5.2c-1.2-1.2-1.6-2.7-1.5-4.1.2.9.6 1.8 1.4 2.6"/><path fill="#ffdd67" d="m12.7 25.3 4.4 4.3 5.7-.5c6.8-.6 7.6 12.2.8 12.8l-8.2.8c-1.5.1-2.6-.2-3.8-1.5L5.4 35c-5.2-5.1 2.1-14.8 7.3-9.7"/><g fill="#eba352"><path d="m5.3 33.4 6.2 6.1c1.3 1.3 2.3 1.6 3.8 1.5l8.2-.8c3-.3 4.5-2.9 4.7-5.7.4 3.4-1 7.1-4.6 7.4l-8.2.8c-1.5.1-2.6-.2-3.8-1.5l-6.2-6.1C4 33.7 3.5 32 3.7 30.3c.2 1.1.7 2.1 1.6 3.1m9.1-13.2s-.8-2.4-3.5-4.2c2.6.4 4.4 3 4.4 3l-.9 1.2"/><path d="m3.7 23.6 6.2 6.1c1.3 1.3 2.3 1.5 3.8 1.5l.1 1.7c-1.5.1-2.6-.2-3.8-1.5l-6.2-6.1c-1.4-1.4-1.9-3.1-1.7-4.8.1 1.1.7 2.2 1.6 3.1"/></g><path fill="#ffdd67" d="m30.8 21.6-5.1 3.8-1.1 6.9c-1.3 8.1-12.9 5.1-11.6-3l1.6-9.8c.3-1.8.5-3 2-4.1l7.2-5.4c6.2-4.4 13 7.2 7 11.6"/><path d="M18.6 37.1c-3.9-.1-7-3.6-6-7.8 2-8.4 1.7-10.8 2.5-12.3 2-3.4 12.1-10.6 12.8-11.1-.3.4-10.7 9.6-11.6 11.7-1 2.2-1.1 5.7-2 9.8-1.4 6.2.8 7.8 4.3 9.7m7.1-11.5s2-.7 4.5-3.3c-1.6 3.8-3.3 4.1-3.3 4.1s-1.3 10.9-7 10.8c4.5-1.6 5.8-11.6 5.8-11.6" fill="#eba352"/></svg>