<svg xmlns="http://www.w3.org/2000/svg" viewBox="0 0 64 64"><path fill="#00b9f1" d="M57.6 13.7c-.7-1-1.6-1.7-2.7-2.2-3.4-1.7-11.6-1.3-12.3-5.7-.9-5.7-5.9.1-6.8.1-1.1 0-1.6-3.9-3.7-3.9-2.2 0-2.7 3.9-3.7 3.9-.9 0-5.9-5.8-6.8-.1-.7 4.3-9 4-12.3 5.7-1 .5-2 1.2-2.7 2.2-.5.8.6 1.6 1.2.9 1.6-2 4.8-2.4 7.1-2.8 1.9-.4 4-.6 5.9-1.4 2.6-1 2.5-4.9 3.3-4.9.6 0 2.7 3 4.5 3 1.6 0 2.6-3.7 3.5-3.7.9 0 1.9 3.7 3.5 3.7 1.9 0 4-3 4.6-3 .8 0 .7 3.9 3.3 4.9 1.8.8 3.9 1 5.9 1.4 2.3.5 5.6.8 7.1 2.8.5.7 1.6-.2 1.1-.9"/><path fill="#89967a" d="M53 57c0 2.8-2.2 5-5 5H16c-2.8 0-5-2.2-5-5V36h42v21z"/><path fill="#b6c4a7" d="M32 12c-15.5 0-21 8.5-21 24v21h42V36c0-15.5-5.5-24-21-24"/><path d="M11 55c-1.1 0-2-1.2-2-2.6v-6.8c0-1.4.9-2.6 2-2.6v12m42-12c1.1 0 2 1.2 2 2.6v6.8c0 1.4-.9 2.6-2 2.6V43" fill="#89967a"/><path d="M7 20H5v30h4v-2H7zm50 0v28h-2v2h4V20z" fill="#3e4347"/><circle cx="58" cy="20" r="4" fill="#00b9f1"/><circle cx="6" cy="20" r="4" fill="#ff5263"/><path fill="#efffd9" d="M21.5 39.5c-4.4 0-8-3.6-8-8s3.6-8 8-8 8 3.6 8 8-3.6 8-8 8"/><circle cx="21.5" cy="31.5" r="6" fill="#545b61"/><circle cx="21.5" cy="31.5" r="2.3" fill="#ff5263"/><path fill="#efffd9" d="M42.5 39.5c-4.4 0-8-3.6-8-8s3.6-8 8-8 8 3.6 8 8-3.6 8-8 8"/><path fill="#545b61" d="M42.5 37.5c-3.3 0-6-2.7-6-6s2.7-6 6-6 6 2.7 6 6-2.7 6-6 6"/><circle cx="42.5" cy="31.5" r="2.3" fill="#ff5263"/><path fill="#efffd9" d="M19.8 54.1c-7.4 0-7.4-13 0-13h24.5c7.4 0 7.4 13 0 13H19.8"/><path fill="#89967a" d="M20.5 52.6c-6 0-6-10 0-10h23c6 0 6 10 0 10h-23"/><path d="M21.2 50.7c0 1.2-2 1.2-2 0v-6.1c0-1.2 2-1.2 2 0v6.1m4.7 0c0 1.2-2 1.2-2 0v-6.1c0-1.2 2-1.2 2 0v6.1m4.7 0c0 1.2-2 1.2-2 0v-6.1c0-1.2 2-1.2 2 0v6.1m4.8 0c0 1.2-2 1.2-2 0v-6.1c0-1.2 2-1.2 2 0v6.1m4.7 0c0 1.2-2 1.2-2 0v-6.1c0-1.2 2-1.2 2 0v6.1m4.7 0c0 1.2-2 1.2-2 0v-6.1c0-1.2 2-1.2 2 0v6.1" fill="#3e4347" opacity=".7"/><circle cx="32" cy="37" r="2" fill="#f5f5f5"/><path fill="#545b61" d="m30.316 35.862.566-.565 2.828 2.828-.565.566z"/></svg>