<svg xmlns="http://www.w3.org/2000/svg" viewBox="0 0 64 64"><circle cx="32" cy="32" r="30" fill="#ffdd67"/><g fill="#664e27"><circle cx="43.5" cy="30.3" r="5"/><circle cx="20.5" cy="30.3" r="5"/></g><path d="M25.6 15.2c-3.2 2.7-7.5 3.9-11.7 3.1-.6-.1-1.1 2-.4 2.2 4.8.9 9.8-.5 13.5-3.6.5-.5-1-2.1-1.4-1.7m24.5 3c-4.2.7-8.5-.4-11.7-3.1-.4-.4-2 1.2-1.4 1.7 3.7 3.2 8.7 4.5 13.5 3.6.7-.2.2-2.3-.4-2.2" fill="#917524"/><path fill="#e5e5e5" d="m4.4 38.7 24.2 14.2 4.6-6.5-21.4-18.1c-6.4-4.5-13.7 5.9-7.4 10.4"/><path fill="#fff" d="m5.8 36.5 23.8 15 2.8-3.9-22.2-17.3c-3.7-2.6-8.1 3.6-4.4 6.2"/><path fill="#ed4c5c" d="m7.5 36.2 22.1 14.4 1.9-2.6-21.1-16z"/><ellipse cx="9" cy="34.1" fill="#a5203c" rx="2.6" ry=".9" transform="rotate(-54.808 8.95 34.089)"/><path d="m18.1 41.5-2 2.8-.9-.5 2-2.9zm2.4 1.7-1.9 2.7-.9-.5 1.9-2.8zm2.5 1.7-1.9 2.6-.8-.5 1.8-2.6zm2.4 1.7L23.8 49l-.9-.6 1.7-2.3zm2.5 1.7-1.5 2.2-.9-.6 1.5-2.1z" fill="#51575b"/><path fill="#664e27" d="M41.5 43.9c-6 .3-11.6 3.3-15.2 8-.9 1.2 2.2 3.5 3.1 2.3 2.4-3.1 6.8-6.2 12.3-6.5 1.4 0 1.3-3.8-.2-3.8"/></svg>