<svg xmlns="http://www.w3.org/2000/svg" viewBox="0 0 64 64"><circle cx="32" cy="32" r="30" fill="#ffdd67"/><path d="M19 20.8c0-2.4 5.3-1.3 7 .4 1-1.7.5-3.2.5-3.2s-1.5-1.1-3.8-1.5v-2.2c-1.8-.6-3.8 0-3.8 0v2.1s-3.6.7-3.6 4.4c0 4.9 7.4 3.9 7.4 7 0 2.3-5 1.3-7.4-.5-.8 1.8 0 3.4 0 3.4 1.8.8 3.6 1 3.6 1v2s2 .6 3.8 0v-2.1s4.2-.2 4.2-3.8c.1-4.7-7.9-4.3-7.9-7m22 0c0-2.4 5.3-1.3 7 .4 1-1.7.5-3.2.5-3.2s-1.5-1.1-3.8-1.5v-2.2c-1.8-.6-3.8 0-3.8 0v2.1s-3.6.7-3.6 4.4c0 4.9 7.4 3.9 7.4 7 0 2.3-5 1.3-7.4-.5-.8 1.8 0 3.4 0 3.4 1.8.8 3.6 1 3.6 1v2s2 .6 3.8 0v-2.1s4.2-.2 4.2-3.8c.1-4.7-7.9-4.3-7.9-7M47.9 38H16.1c-.7 0-1.1.5-1.1 1 0 7.3 6 15 17 15s17-7.7 17-15c0-.5-.4-1-1.1-1" fill="#664e27"/><path fill="#74e063" d="M41.2 44H22.8c-.7 0-.8.3-.8.8v4C22 57.6 26.5 62 32 62s10-4.4 10-13.2v-4c0-.5-.1-.8-.8-.8"/><g fill="#449636"><path d="M30.7 49.5c0-1.6 3.3-.8 4.4.3.7-1.1.3-2.1.3-2.1s-1-.7-2.4-1v-1.5c-1.1-.4-2.4 0-2.4 0v1.4s-2.3.4-2.3 2.9c0 3.2 4.7 2.5 4.7 4.6 0 1.5-3.1.9-4.7-.3-.5 1.2 0 2.2 0 2.2 1.1.5 2.3.7 2.3.7V58s1.2.4 2.4 0v-1.4s2.6-.2 2.6-2.5c.2-3.1-4.9-2.8-4.9-4.6"/><path d="M39.6 44v3.5c0 8.3-3 12-7.6 12s-7.6-3.6-7.6-12V44h-.8v3.5c0 8.9 3.3 12.9 8.4 12.9 5.1 0 8.4-4 8.4-12.9V44h-.8"/></g></svg>