<svg xmlns="http://www.w3.org/2000/svg" viewBox="0 0 64 64"><circle cx="32" cy="32" r="30" fill="#ffdd67"/><path d="M53.2 25.7c-3.2-2.7-7.5-3.9-11.7-3.1-.6.1-1.1-2-.4-2.2 4.8-.9 9.8.5 13.5 3.6.6.5-1 2.1-1.4 1.7m-30.7-3.3c-4.2-.7-8.5.4-11.7 3.1-.4.4-2-1.2-1.4-1.7 3.7-3.2 8.7-4.5 13.5-3.6.7.2.2 2.4-.4 2.2" fill="#917524"/><path d="M35.9 32.2c4.2 8 12.7 8 16.9 0 .2-.4-.3-.6-1-1-4.2 3.3-11.1 3-14.9 0-.6.4-1.2.6-1 1m-24.7 0c4.2 8 12.7 8 16.9 0 .2-.4-.3-.6-1-1-4.2 3.3-11.1 3-14.9 0-.7.4-1.2.6-1 1M38 50H26c-1.3 0-1.3-4 0-4h12c1.3 0 1.3 4 0 4" fill="#664e27"/><path fill="#fff" d="M28.153 13.324s1.06-2.121-1.68-3.624c-2.828-1.59-6.099 6.099-9.9 7.778 0 0 1.503-2.916-1.06-4.065-2.386-.973-9.016 4.419-10.341 14.937-1.326 10.518 13.081 17.324 21.743 11.314 6.01-4.243 13.7-12.11 12.463-15.291-.972-2.564-4.066-.707-4.066-.707s3.094-3.094.707-5.48c-1.414-1.415-2.563-.266-2.563-.266s2.21-2.917-.177-5.303c-1.944-2.121-5.126.707-5.126.707"/><path fill="#cccfd4" d="M29.302 12.352c.618-3.27-4.243-4.773-6.276-2.033-1.68 2.386-5.215 5.922-5.215 5.922s.707-1.591-1.06-2.828c-1.768-1.238-6.1-1.326-11.137 10.606-1.857 4.508-1.238 9.192 1.679 12.816 3.182 3.89 8.927 6.453 13.347 5.746 4.95-.707 12.816-6.1 17.942-13.7 3.448-5.039.266-7.337-1.944-6.01 2.386-3.448.177-6.188-1.945-5.481 2.21-4.331-2.74-7.513-5.391-5.038m2.21 6.806c-1.503 1.856-5.658 6.717-5.658 6.717s3.713-2.475 6.453-6.275c2.475-3.36 5.215-.265 1.68 4.33-1.68 2.21-4.685 5.392-4.685 5.392s3.27-2.386 4.596-4.065c3.359-4.42 5.833-1.061 2.74 3.093-5.569 7.336-11.667 11.667-16.087 12.375-6.275.972-17.236-5.746-13.435-16.087 1.68-4.685 5.569-11.225 8.132-10.253 3.624 1.502-.884 6.54-.884 6.54s4.42-3.358 9.37-9.545c1.325-1.68 4.33-.973 3.535 1.944-.62 2.563-5.657 8.309-5.657 8.309s3.005-2.829 6.717-7.248c3.006-3.536 6.983-.089 3.182 4.773"/></svg>