<svg xmlns="http://www.w3.org/2000/svg" viewBox="0 0 64 64"><circle cx="35" cy="29" r="27" fill="#ffdd67"/><path d="M20.5 12.7c-.6.1-.4 2 .2 2 3.8-.3 7.6 1 10.2 3.7.4.4 1.8-.9 1.4-1.4-3.1-3.1-7.4-4.7-11.8-4.3m29 0c-4.4-.4-8.7 1.2-11.8 4.3-.4.5 1 1.8 1.4 1.4 2.7-2.7 6.4-4.1 10.2-3.7.5.1.8-1.9.2-2" fill="#917524"/><path fill="#f5f5f5" d="M33.1 29.3C25 33 21.2 37.3 2 37.8c0 0 2 14.1 12.9 12.2 7.3-1.2 4.3 10.3 4.3 10.3s8-10.3 10-4.6c2.1 5.9 6.8 6.2 6.8 6.2 8.5-11.6 7.2-37.2-2.9-32.6"/><path d="M37.3 34.8c-.4-1.1-7.2 11.2-18 25.5 4.6-.6 8-7.6 9.2-4.5.6 1.7 3.7 4.3 3.7 4.3s8.6-14.5 5.1-25.3m-5-1.3c.9-3.9-12.2 3.6-27.5 11.9 3.9 7.4 10 4.2 12.7 4.9 0 0 12.8-8.3 14.8-16.8" fill="#d6d6d6"/><path d="M51.9 19.8c.5.3.3.9-.1.9-2.3.3-4.8.7-7.1 2 3.5.6 6.2 2.3 7.7 4.1.3.4-.1 1-.5.8-4.1-1.5-8.3-2.3-13.6-1.7-.4 0-.8-.2-.7-.6 1.4-6.1 9.4-8.4 14.3-5.5m-33.8 0c-.5.3-.3.9.1.9 2.3.3 4.8.7 7.1 2-3.5.6-6.2 2.3-7.7 4.1-.3.4.1 1 .5.8 4.1-1.5 8.3-2.3 13.6-1.7.4 0 .8-.2.7-.6-1.4-6.1-9.4-8.4-14.3-5.5" fill="#664e27"/></svg>