<svg xmlns="http://www.w3.org/2000/svg" viewBox="0 0 64 64"><path fill="#ff717f" d="M62 27.2c0-3-1.5-5.6-3.9-7.1.3-.9.5-1.9.5-2.9 0-4.7-3.7-8.6-8.3-8.7C49 6 46.4 4.2 43.4 4.2c-1.5 0-2.9.4-4.1 1.2C37.8 3.4 35.1 2 32 2c-3.1 0-5.8 1.4-7.4 3.4-1.2-.8-2.6-1.2-4.1-1.2-3 0-5.6 1.7-6.9 4.3-4.6.1-8.3 3.9-8.3 8.7 0 1 .2 2 .5 2.9C3.5 21.6 2 24.2 2 27.2c0 2 .7 3.9 1.9 5.4-.5 1-.8 2.1-.8 3.3 0 2.7 1.5 5.1 3.7 6.3 0 .3-.1.5-.1.8 0 3.9 3.1 7.1 6.9 7.1h36.7c3.8 0 6.9-3.2 6.9-7.1v-.8c2.2-1.2 3.7-3.6 3.7-6.3 0-1.2-.3-2.3-.8-3.3 1.2-1.5 1.9-3.3 1.9-5.4"/><path fill="#FFDD67" d="M51.8 35c-.1.9-.3 1.8-.6 2.3-.5.9-1.4 1.4-1.4 1.4s.3-.9.2-3.4c-1.3-19.9-3.7-11-17.9-11s-16.6-8.9-17.9 11c-.1 2.5.2 3.4.2 3.4s-.9-.5-1.4-1.4c-.3-.5-.4-1.3-.6-2.3-1.5-.4-3.5-.1-3.5 4.3 0 2.7 1 5 4.4 5.2 1.4 11 5.7 12.8 14.3 16.7 2.3 1 6.9 1 9.1 0 8.6-3.9 12.9-5.7 14.3-16.7 3.4-.2 4.4-2.5 4.4-5.2-.2-4.4-2.1-4.7-3.6-4.3"/><path fill="#f5f5f5" d="M49.1 35.5c-1.3-19.2-3.5-9.9-17.1-9.9s-15.8-9.3-17.1 9.9c-.1 2.4.4 6.7.7 8.9.8 5.2 3.9 12.2 12 16 2.2 1 6.6 1 8.7 0 8.2-3.7 11.3-10.8 12-16 .4-2.3.9-6.6.8-8.9"/><path fill="#574137" d="M41.2 49.3c-3.8 3.9-3.3 8.8-9.2 8.8-5.9 0-5.4-4.9-9.2-8.8-3.7-3.9 5.1.5 9.2.5s12.9-4.4 9.2-.5"/><path fill="#fff" d="M38.9 48.2 32 49.8l-6.9-1.6s-.2 1.6.5 2.3c1 1 4.8 1.5 6.5 1.5 1.7 0 5.4-.5 6.5-1.5.5-.6.3-2.3.3-2.3"/><path fill="#ff717f" d="M32 55.1c-2.8 0-3.7 2-3.7 2l3.7.6 3.7-.6s-.9-2-3.7-2"/><path fill="#cf4350" d="M32 49c-2.3 0-15.8-5-9.9.6 3.2 3 3.2 10 9.9 10s6.7-6.9 9.9-10c5.9-5.6-7.6-.6-9.9-.6m7.9 1.1c-3.3 3.3-2.8 7.3-7.9 7.4-5.1 0-4.6-4.1-7.9-7.4-3.2-3.2 4.4.4 7.9.4s11.1-3.7 7.9-.4"/><circle cx="32" cy="43.4" r="6.6" fill="#ff5263"/><path fill="#f5f5f5" d="M27 35.8c0 2.9-8 2.9-8 0 0-9.9 8-9.9 8 0"/><path fill="#3e4347" d="M27.7 36.2c0 3.7-10 3.7-10 0 0-12.3 10-12.3 10 0"/><path fill="#f5f5f5" d="M27.4 36.3c0 2.9-8 2.9-8 0 0-9.9 8-9.9 8 0"/><ellipse cx="23.7" cy="34.5" fill="#0a84a5" rx="2.5" ry="3.5"/><circle cx="23.7" cy="34.5" r=".8" fill="#231f20"/><path fill="#3e4347" d="M36.3 36.2c0 3.7 10 3.7 10 0 0-12.3-10-12.3-10 0"/><path fill="#f5f5f5" d="M36.6 36.3c0 2.9 8 2.9 8 0 0-9.9-8-9.9-8 0"/><ellipse cx="40.3" cy="34.5" fill="#0a84a5" rx="2.5" ry="3.5"/><circle cx="40.3" cy="34.5" r=".8" fill="#231f20"/></svg>