<svg xmlns="http://www.w3.org/2000/svg" viewBox="0 0 64 64"><path fill="#286699" d="M20.9 55.7c1.2-1-2.9-12.1-4-13.1-.8-.7-4.4-.3-5.6.7-4.2 3.4-.3 13 4.5 14.3 1.3.4 4.1-1 5.1-1.9"/><path fill="#b2c1c0" d="M15.4 59.7c1.3-1.2-3.8-15.4-5.1-16.7-.9-.9-5-.6-6.4.7-4.6 4.2.2 16.4 5.7 18.2 1.5.5 4.6-1.1 5.8-2.2"/><path fill="#e8e8e8" d="M16.1 59.5c1.1-1.2-4-15.3-5.2-16.6-.8-.9-4.5-.8-5.6.4-3.9 3.9.8 16.1 5.7 18.1 1.5.6 4.1-.9 5.1-1.9"/><path fill="#3383c4" d="M19 58c1.5-1.3-3.5-14.7-4.8-15.9-.9-.8-5.4-.4-6.9.9-5.1 4.2-.4 15.8 5.4 17.3 1.7.5 5-1.2 6.3-2.3"/><path fill="#e8e8e8" d="M18.2 56.5c.2-.7-3.7-11.8-4.3-13-.4-.8-1.5-1.3-1.7-.6-.6 2.2 2.9 11.9 4.7 14.2.6.6 1.1 0 1.3-.6"/><path fill="#fff" d="M16.4 57.1c.2-.7-3.7-11.8-4.3-13-.4-.8-1.5-1.3-1.7-.6-.6 2.2 2.9 11.9 4.7 14.2.6.6 1.2 0 1.3-.6"/><circle cx="38" cy="34" r="24" fill="#ffdd67"/><path fill="#664e27" d="M35.6 48c.4-.3.3-.9.3-1.5.1-12.5.1-12.5.1-25 0-.6.1-1.2-.3-1.5-4-3.1-15.6.5-15.6 14-.1 13.4 11.6 17.1 15.5 14"/><path fill="#4c3526" d="M29.8 35.5c0-.5-.4-1.2-1.6-.9-.6.1-1.3.9-2.2.9-1.9 0-1.9-3 0-3 .9 0 1.6.8 2.2.9 1.1.3 1.6-.4 1.6-.9 0-1.2-1.4-3.3-3.7-3.3-2.6 0-4.7 2.1-4.7 4.7s2.1 4.7 4.7 4.7c2.3.1 3.7-1.9 3.7-3.1"/><path fill="#ff717f" d="M22.7 27.9c-.8 1.8-1.2 3.8-1.2 6.1s.4 4.3 1.2 6.1c.8-1.7 1.3-3.7 1.3-6.1 0-2.4-.5-4.4-1.3-6.1"/><path fill="#fff" d="M34 45.8V22.2c0-1.6-3-1.6-3 0v23.6c0 1.6 3 1.6 3 0"/><path d="M40.7 31.2c4.1-1.5 6.1-3.7 6.1-6s-2-4.5-6.1-6c-.4-.1-1.2.6-.8 1 1.5 1.4 2.1 3.2 2.1 5 0 1.8-.6 3.5-2.1 5-.4.4.4 1.2.8 1m0 17.5c4.1-1.5 6.1-3.7 6.1-6 0-2.2-2-4.5-6.1-6-.4-.1-1.2.6-.8 1 1.5 1.4 2.1 3.2 2.1 5 0 1.8-.6 3.5-2.1 5-.4.4.4 1.2.8 1" fill="#664e27"/><path fill="#286699" d="M18.7 8.2c-1.8-.5-9.4 10.7-9.6 12.3-.1 1.2 2.6 4.3 4.4 4.8 6 1.6 12.4-8.3 10.3-13.6-.5-1.5-3.6-3.1-5.1-3.5"/><path fill="#3383c4" d="M15.8 3.9c-2.1-.6-11.4 13-11.6 15-.1 1.4 3.2 5.2 5.4 5.8 7.3 1.9 15-10.1 12.6-16.5-.7-1.8-4.5-3.8-6.4-4.3"/><path fill="#b2c1c0" d="M14.5 2.3C12.7 2.1 2.9 16.2 2.4 18.2c-.3 1.4 2 4.5 3.8 4.7 5.9.8 14.3-11.7 13.1-17.4-.4-1.6-3.3-3-4.8-3.2"/><path fill="#e8e8e8" d="M14.1 2C12.5 1.9 2.6 16 2 17.9c-.4 1.3 1.5 4.2 3.1 4.3 5.4.4 13.8-12 13-17.4-.1-1.6-2.7-2.7-4-2.8"/></svg>