<svg xmlns="http://www.w3.org/2000/svg" viewBox="0 0 64 64"><path fill="#e84d88" d="m39.9 27.3-8.5-.6c0 4.8-10.4 7-10.4 10.8 0 2.7 2.5 3.4 2.5 3.4s-7.9 3-7.9 11.4c0 6.7 5.3 9.6 11.6 9.6h10.3s.7-2-.6-9.1c-2.5-13.9 7.6-11.6 3-25.5"/><path fill="#ffdd67" d="m20.4 46.7.6-1.4 1.1-.3c2.7 0 3.5 1.7 4.9 1.7v5.7s-1.1 1-5.4 1c-2.1 0-3.5-1.4-4.1-4.4-.7-2.4 2.9-2.3 2.9-2.3"/><path fill="#eba352" d="M22.1 45s-1.2.3-1.2 1c0 .4 1.4-.1 2.4 1-1.4-.7-3-.3-3-.3-.6-.6-.1-1.7 1.8-1.7"/><path d="M26 46.2c5.8-1.2 11.6-3.1 11.6-3.1l-.9 7.6.2 1.2s-3.5 1.9-10.8 2.5v-.6s-5.4.8-7.1-1.2c2.7 1.2 7-.2 7-.2v-6.2m9.8-14.7 4.1 7.2-1.3 2.5z" opacity=".3" fill="#231f20"/><path fill="#e84d88" d="M42.2 27.3s7.7 11.8 6.7 16.7c-1.1 5.6-22.3 8.8-22.3 8.8l-.3-6.4s13.1-3.1 14.8-5.4c-1.1-2.5-5.3-9.6-5.3-9.6l6.4-4.1"/><path fill="#eba352" d="m28.4 26.3 8.4-14.8.2 15.3c-3.5 1.5-5.5 0-5.5 0-1.1-2-3.1-.5-3.1-.5"/><path fill="#ffb300" d="M40.3 9.1c-3.4-6.7-8.9-6.3-8.9-6.3-6.9-3.1-14.3 3.6-15.7 7.4-2.9 7.7 3.8 10.8 4.7 10.1l14.3-4.5s2.9 3 1.6 9C35 30.7 41 35.1 41 35.1s5.9-12.8-.7-26"/><path fill="#ffdd67" d="M17.2 12.4c-.2-2.1 4.1-1.7 6.4.6 5 5.1 6.5 3.8 6.5 3.8-.3-.4-.5-.9-.6-1.4-.5-2 .2-3.9 1.7-4.2 1.5-.3 3.2 1.1 3.7 3.1.5 1.8-.1 3.5-1.3 4.1 1.8 5.5.1 5.6-2.5 7.6-5.6 4.6-6.5 3.4-7.1 1.6-.3-.8-.9-.4-1.6-.5 0 0-.1-.5-.6-1.8-.4-1.3-1.7-1.1-1.3-1.8.4-.7.6-1.1.3-1.5-.1-.2-1.4.4-1.8-.3-.7-1.1 1.1-1.4.8-3.6 0-1.2-2.2-1.4-2.6-5.7"/><path fill="#c94747" d="M22.4 24.2c-.4 0-.7-.1-1-.2-.3-.1-.6-.3-.6-.8-.2.1-.2.4-.2.7.1.3.3.5.5.7.2.2.4.3.6.4-.1.2-.1.5 0 .8.1.3.2.5.3.7.2.2.3.4.5.5 0-.5-.1-.9-.1-1.2 0-.1.1-.3.1-.4.1-.1.2-.3.3-.4l.5-.8h-.9"/><path fill="#664e27" d="M31.3 12.4c-.4.2-.7.5-.8.9-.2.4-.2.9-.1 1.3s.2.7.4 1c-.2 0-.3.1-.4.2.2 0 .4.1.5.2.1.1.3.2.4.3.1.1.2.2.3.4.1.1.1.3.2.6.2-.1.3-.4.3-.6 0-.3-.1-.6-.3-.8-.2-.2-.4-.4-.7-.4h-.2c-.1-.8-.1-1.4.1-2 .1-.3.3-.6.6-.8.2-.2.5-.5.8-.7-.3.1-.7.2-1.1.4"/><path fill="#eba352" d="M20.9 17.8c-.1-.4-.2-.6-.4-.8-.2-.2-.4-.5-.6-.8-.2-.3-.3-.8-.3-1.2.1-.4.3-.7.6-.8-.1.3-.1.7-.1.9 0 .3.1.5.3.8.1.3.4.6.5.9.2.2.3.7 0 1"/><path fill="#664e27" d="M23.7 15c-.3.3-.4.7-.6 1.1-.1.4-.3.8-.6 1.1-.2.4-.6.7-1 .9-.4.2-1 .2-1.4-.1.8-.3 1.2-.8 1.6-1.4.2-.3.4-.6.7-1 .4-.4.8-.7 1.3-.6"/></svg>