<svg xmlns="http://www.w3.org/2000/svg" viewBox="0 0 64 64"><path fill="#ffb300" d="M8.3 38.3h47.3c0-25.5-3.6-31-23.7-31-19.9.1-23.6 5.5-23.6 31"/><path fill="#ffdd67" d="M53.7 32.7c-.2 1-.4 1.9-.6 2.4-.5.9-1.5 1.5-1.5 1.5s.3-1.9.2-4.6c-1.1-15.8-2-11.4-19.7-11.4-17.6 0-18.6-4.3-19.7 11.4-.1 2.7.2 4.6.2 4.6s-1-.5-1.6-1.5c-.3-.5-.5-1.4-.6-2.4-1.7-.4-3.8-.1-3.8 4.7 0 2.9 1.1 5.4 4.8 5.6 1.2 9.3 6.6 14.1 15.7 18.1 2.5 1.1 7.6 1.1 10 0C46.2 57 51.6 52.3 52.8 43c3.7-.3 4.8-2.7 4.8-5.6-.1-4.7-2.3-5.1-3.9-4.7"/><path fill="#937237" d="M40.2 50.9c0 3.4-4.1 5.1-8.2 5.1s-8.2-1.7-8.2-5.1c0 0 0-.9.8-.9h14.7c.9 0 .9.9.9.9"/><path fill="#f5f5f5" d="M21.1 31.5c-4.5 0-6.4 1.6-6.4 3.3 0 1.6 0 4 6 4 5.8 0 6.7-.7 6.7-3.2.1-1.6-1.8-4.1-6.3-4.1"/><path fill="#664e27" d="M25.6 34.3c0 2.3-1.8 4.1-4.1 4.1s-4.1-1.8-4.1-4.1 1.8-4.1 4.1-4.1 4.1 1.9 4.1 4.1"/><path fill="#231f20" d="M22.9 34.3c0 .8-.6 1.4-1.4 1.4-.8 0-1.4-.6-1.4-1.4 0-.8.6-1.4 1.4-1.4.8.1 1.4.7 1.4 1.4"/><path fill="#664e27" d="M14.7 34.8c0-6.4 12.8-6.4 12.8.9-1.9-5.5-11-5.5-12.8-.9"/><path fill="#f5f5f5" d="M42.9 31.5c4.6 0 6.4 1.6 6.4 3.3 0 1.6 0 4-6 4-5.8 0-6.7-.7-6.7-3.2 0-1.6 1.8-4.1 6.3-4.1"/><path fill="#664e27" d="M38.4 34.3c0 2.3 1.8 4.1 4.1 4.1s4.1-1.8 4.1-4.1-1.8-4.1-4.1-4.1-4.1 1.9-4.1 4.1"/><path fill="#231f20" d="M41.1 34.3c0 .8.6 1.4 1.4 1.4.8 0 1.4-.6 1.4-1.4 0-.8-.6-1.4-1.4-1.4-.8.1-1.4.7-1.4 1.4"/><path fill="#664e27" d="M49.3 34.8c0-6.4-12.8-6.4-12.8.9 1.9-5.5 11-5.5 12.8-.9"/><path fill="#eba352" d="M32 47c-3.3 0-5-3-3.3-3h6.7c1.6 0-.1 3-3.4 3"/><path d="m22 8-4-4-4 4h2v4h6zm28 0-4-4-4 4v4h6V8z" fill="#d9a000"/><path fill="#9450e0" d="M54 16H10c0-13.3 44-13.3 44 0"/><path fill="#7e44bf" d="M48 16H12c0-10.7 36-10.7 36 0"/><path fill="#d9a000" d="M8 20h48v6H8z"/><path fill="#ffce31" d="m50 10 2 2v2H36v-2l2-2-6-8-6 8 2 2v2H12v-2l2-2-8-6.1L8 24h48l2-20.1z"/><path fill="#66caf2" d="M32 22v-3.1h2z"/><path d="m32 22-2-3.1h2zm2-3.1h-2V16z" fill="#428bc1"/><path d="M32 16v2.9h-2zm-17.2 6v-3.1h1.9z" fill="#66caf2"/><path d="m14.8 22-2.1-3.1h2.1zm1.9-3.1h-1.9V16z" fill="#428bc1"/><path d="M14.8 16v2.9h-2.1zm8.6 6v-3.1h2z" fill="#66caf2"/><path d="m23.4 22-2-3.1h2zm2-3.1h-2V16z" fill="#428bc1"/><path d="M23.4 16v2.9h-2zm17.3 6v-3.1h2z" fill="#66caf2"/><path d="m40.7 22-2-3.1h2zm2-3.1h-2V16z" fill="#428bc1"/><path d="M40.7 16v2.9h-2zm8.6 6v-3.1h2z" fill="#66caf2"/><path d="m49.3 22-2-3.1h2zm2-3.1h-2V16z" fill="#428bc1"/><path fill="#66caf2" d="M49.3 16v2.9h-2z"/><path fill="#428bc1" d="m8 22-2-3.1h2z"/><path d="M8 16v2.9H6zm48 6v-3.1h2z" fill="#66caf2"/><path fill="#428bc1" d="M58 18.9h-2V16z"/></svg>