<svg xmlns="http://www.w3.org/2000/svg" viewBox="0 0 64 64"><path d="M44.4 9.3c-3 3.7-4.3 7.1-12.2 11.6-2.8 1.6-3.2 5-4.3 4.8C21.6 24.4 7.5 23 7.5 23L6 31.2c-.8 11.3 18.5 7.4 22.9 5.4 2.7-1.2 4.5-1.4 5.8-3.7 1.2-2.2 3.3.5 15.3-19.9l-5.6-3.7m1.8 22.2 9.2-7.6 3 11.6-9.3 2.7z" fill="#eba352"/><path fill="#ffdd67" d="M50.5 7.1 35.7 16c-.9 4.2.9 5.8 1.2 7.4.2.7-.8 2.4-1.4 3.3-1.2 2 1.8 2.4 2.7 1.9 1 1.4.7 2.2 1.5 1.6.7-.5 2.1 2.3 1.9 3.1l10.8-1.5-1.9-24.7"/><path fill="#ffb300" d="M43 2.9c12-3.3 16.4 7.3 16.7 15.4.2 4.3-2.8 8.4-4.8 10.1l-9.3-16.8c-1.9-.3-8.5 5.4-9.9 4.4-4-2.7.2-11.1 7.3-13.1"/><path fill="#ed4c5c" d="m41.6 3.9 6.1 12c-.3 1-.8 2.4-.5 4.2 2.1 12.4 4.8 7.9 8.4 2.6 1-1.5 1.5-3.7 1.5-4.8l2.9-1.1c1-.4.2-3.5-.8-3L56 15c-.8-.9-5.3-1.9-6.4-1.4L44 2.6c-.6-1.3-3-.4-2.4 1.3"/><path fill="#ffdd67" d="m12.8 6 14.7 10c.9 4.2-.9 5.8-1.2 7.4-.2.7.8 2.4 1.4 3.3 1.2 2-1.8 2.4-2.7 1.9-1 1.4-.7 2.2-1.5 1.6-.7-.5-2.3 2.4-1.9 3.1.4.6-.4.8-1.2.2-.9 3.4-2.8 2.7-6.9 1.2C4.9 31.5 12.8 6 12.8 6"/><path fill="#ffb300" d="M20.1 2.9C8.2-.4 3.8 10.2 3.5 18.3c-.2 4.3 1.1 7.4 3.2 9.2l1.4-.5 9.5-15.3c1.9-.3 8.5 5.4 9.9 4.4 3.9-2.8-.2-11.2-7.4-13.2"/><path fill="#42ade2" d="m19.1 2.6-5.6 11c-1.1-.5-5.5.5-6.4 1.4L4 13.8c-.9-.4-1.8 2.6-.8 3l2.9 1.1c.1 1.1.5 3.3 1.5 4.8 3.6 5.3 6.3 9.9 8.4-2.6.3-1.8-.2-3.2-.5-4.2l6-12.1c.7-1.3-1.6-2.4-2.4-1.2"/><path fill="#e8e8e8" d="m15.6 34.8-1.8-10.6c-.2-1.4-2.9-.9-2.6.5L13 35.3l2.6-.5"/><path fill="#42ade2" d="M17.4 62S21 54 21 48.4c0-8.3-6.1-10.9-10.4-12.3-4.1-1.3-4.6-5-4.6-5-1 0-6.2 6.8-3 16.8 2.5 7.9-.4 14-.4 14h14.8z"/><path fill="#eba352" d="M4.8 62h6.5s4.9-4.8 4.9-13.3c0-12.2-8.2-12.9-10.7-10.4-3.1 3.4-1.4 6.7.3 13.5 1 4-1 10.2-1 10.2"/><path fill="#ed4c5c" d="M46.5 62s-3.6-8-3.6-13.6c0-8.3 6.1-10.9 10.4-12.3 4.1-1.3 4.6-5 4.6-5 1 0 6.2 6.8 3 16.8-2.5 7.9.4 14 .4 14H46.5z"/><path fill="#eba352" d="M59.1 62h-6.5s-4.9-4.8-4.9-13.3c0-12.2 8.2-12.9 10.7-10.4 3.2 3.4 1.5 6.7-.2 13.5-1 4 .9 10.2.9 10.2"/><path fill="#3e4347" d="M41.7 32.9s3.7-1.9 7.3-4.8c.5-.4.6-3.8 4.2-6.1 2.1-1.3 3.2.3 4-.1.9-.4 2.3 0 2.3 0l-6.3 10.7-11.5.3" opacity=".3"/><path fill="#ffdd67" d="M60.7 23.1c-1.5-3-4.9.1-4.9.1s-.8-2.2-3.1-.3c-2.7 2.2-2.1 4.7-3.3 5.9-2.7 2-5.6 3.9-12.3 5.3-3.2.6-4.5 3.7-5.5 3.2-5.6-3.3-10.6 1.6-15.4 0-10.1-3.5-12.9 1.6-12.7 6.9.2 3.8 4.8 5.8 8.3 6.6 8.3 2.1 14.1-2.6 18.9-3.1 2.9-.3 3.5.4 5.4-1.4 1.7-1.7 2.9 1.2 17.8-11.8 0 0 2.1.2 6.5-3.5 2-1.7 2.2-4.3.3-7.9"/><path fill="#eba352" d="M25.1 43s4.9.7 7.6-6c-4.6 5.6-7.6 6-7.6 6"/><path fill="#3e4347" d="M32.3 47.6s-6.5-2-12.7-8.7c-1.1-1.2-.7-3.4-3.6-5.4l-3.1.3c-.6-.6-2.7-3.2-4.6-1.2-1.8 1.8-2.6 6.6-1.2 8.4.8 1 7 5 7.4 5.5 4.7 5.7 5.3 9.4 5.3 9.4s.8-2.2 1.2-5.1l11.3-3.2" opacity=".3"/><path fill="#ffdd67" d="M60.9 41.9c-2.3-5.8-7.9-7.3-13.2-.3-3.1 4.1-9.7 2.4-13.2 7.7-2.2-3.4-7.3-2-15.4-9.6 0 0-.2-4.1-3.1-6.2-2-1.5-3.1.3-3.1.3s-3.4-3.1-4.9-.1c-1.8 3.6-1.9 6.5.5 7.9 4.1 2.5 6.5 2.8 6.5 2.8 12.8 14.5 13.8 12.1 15.5 13.4 2.9 2.5 3.8 2.1 9.6.4 4.6-1.3 11.6-1.1 17.9-7.2 2.4-2.6 4.3-5.6 2.9-9.1"/><path d="M46.9 42.7s6.3 5.3 10.3 4.2c-3.7 2-8.3-.6-10.3-4.2M44 50.1s-3.5 3.6-9.5-.1c6.9 1.7 9.5.1 9.5.1" fill="#eba352"/><path d="M40.9 22.3c.3 1.1-.1 2.2-.9 2.4-.8.2-1.2-.6-1.6-1.7-.3-1.2 2.2-1.8 2.5-.7m-18.2 0c-.3 1.1.1 2.2.9 2.4.8.2 1.2-.6 1.6-1.7.2-1.2-2.2-1.8-2.5-.7m-.4 7.5s-1.5 1.7-1.4 2.9c0 0-1.8-1.4-1.2-2.4.5-1 2.6-.5 2.6-.5m18.5 0s1.5 1.7 1.4 2.9c0 0 1.8-1.4 1.2-2.4-.4-1-2.6-.5-2.6-.5" fill="#937237"/></svg>