<svg xmlns="http://www.w3.org/2000/svg" viewBox="0 0 64 64"><path fill="#ffdd67" d="m33.5 18-3.1-1.8V27h6.9z"/><path fill="#eba352" d="M38.2 22.9c-2 1.3-.9 4.1-.9 4.1-2.8 0-4.8-5.6-4.8-9l5.7 4.9"/><path fill="#ffdd67" d="m31.4 3.9 12.4 4.3c1.6 2.9.5 4.4.6 5.6 0 .6 1.1 1.6 1.7 2.1 1.3 1.2-.9 2.1-1.7 2-.5 1.2 1 2-2.7 1.2 0 0 3.8 1.6 1.1 2.3.3 1.5.5 4.3-7.2 1.4-2.3-.8-3.1-4.8-3.1-4.8l-3.9-.7 2.8-13.4"/><path fill="#ffb300" d="M40.2 2.9C32 .2 27.6 4.4 26.8 6.3c-2.1 5-.3 10.6 3.5 14.8 0 0 1.8-.8 2.1-3 0 0-2 .9-2.9-3.4-.8-3.6 3.1-5.5 5-.6h.5c1.1-2.5-.9-5.6 2-6.6 2.5-.8 7.1 1.4 7.1 1.4.9-1.6-.5-4.9-3.9-6"/><path fill="#937237" d="M41.3 13.9c0 .8.4 1.4 1 1.4s.7-.6.7-1.4-.2-1.4-.7-1.4-1 .6-1 1.4"/><path fill="#eba352" d="M33.5 14.9c0-1.5-1.3-2.8-2.5-2.8 0 0 2.2 1.8 1.6 4.2 0 0 .9-.3.9-1.4"/><path fill="#937237" d="M40.5 18.9s1.5 1.1 2 1.4c1.1.6 1.3.2.7-.3-.5-.4-1.5-.8-1.5-.8l-1.2-.3"/><path fill="#ffdd67" d="m25.1 22.9-2.6-6-3.5 1.6 2.9 6.7c.4 1 3.9 2.1 3.9 2.1l1.9-.9V24l-2.6-1.1"/><path d="m17.9 58.6.9-4.1c-.9-.8-1.2-.8-1.2-.8-.6-.3-1.4 0-1.7.6L12 61.8c1.4.7 4.3-.3 5.9-3.2m13.7-3.7 1.5-3.8c-1-.7-3.3-1.7-3.3-1.7l-4 8.8c1.5.5 4.4-.4 5.8-3.3" fill="#3e4347"/><path d="m18.8 54.5-.9 4.1s4.9-1.5 8.3-2c3.4-.6 6.2-7.5 6.2-7.5l-5.8-1.2s-1.3 4.7-2.3 4.7c-1.9-.1-3.9 2.3-5.5 1.9m12.8.4 1.5-3.8c1.4.4 2-.3 3.5.4s.4-2.3.4-2.3l6.1-.8s-.4 10.3-5.6 8.3c-3.2-1.3-5.9-1.8-5.9-1.8" fill="#ffdd67"/><path fill="#b5de24" d="M16 8.8c-3.1 1.8-4.1 5.6-2.4 8.7 1.8 3 5.7 4.1 8.8 2.3 3.1-1.8 4.1-5.6 2.4-8.7C23 8.1 19 7 16 8.8z"/><path fill="#c94747" d="m38.4 26.5 4.4 1.6-.5 4.1-5.2-1.7z"/><path fill="#ffdd67" d="M51.7 38.8c-1.1-2.5-1.3-3.1-2.5-2.8 0 0-2.8-5.6-3.5-6.3-.8-.8-2.9-1.6-2.9-1.6l-.5 4.1.8.2 2.7 5.1c-.9.9.1 2.8 1.1 2.9 1.5 3.7 6.3 1.8 4.8-1.6"/><path fill="#ed4c5c" d="M42.7 40.7s-2.6-9.8-3.7-13.6c-.9-3.2-8.9-2.4-9.1-2.3l-2.2-.8c-.1 1.4-.8 2.6-1.9 3.4 0 0 3.7 1.4 3.7 1.5L29 40.8l-3.6 7 7.1 1.5c.4-.7.7-1.4 1-2.1.7-1.2 1.9-1.1 2.4.3l.6 1.8 6.8-.9-.6-7.7"/><path d="m25.5 47.7 1.1.2 1.7-2.3v2.7l1.1.2v-6.1zm16.2.9 1.1-.2.4-2-.3-3.1zm-6.1-19.4-1.9-4.5c-.4 0-.8 0-1.2-.1l.7 1.6-2.2-1.5c-.7 0-1.1.1-1.2.1l-1.3-.5 7.1 4.9m3.5-1.4c-.1-.2-.1-.5-.2-.7-.1-.4-.3-.7-.6-.9l-1.3 3 2.1-1.4m-2.6-1.1.7-1.3c-.7-.3-1.4-.5-2.3-.6l1.6 1.9" fill="#ffce31"/><path d="M25.9 49.6c-.6 1.1-1.4 2-2.4 2.7.4 4 2.6 4.5 2.6 4.5 1.7 0 3.4-1.1 3.8-2.7-.3-1.2-1.5-3-4-4.5M37.3 51c-.1.1-.2.3-.4.3-.4 4.2.5 5.5.5 5.5 3.4 1.1 4.7-2.3 4.7-2.3-.8-2.2-3.1-3.5-4.8-3.5" fill="#3e4347"/><path d="M16.2 8.7c.3.4.8.9 1.5 1.4 2.7 2.3 3.1 1.8 3.6 1.2.5-.6.9-1.1-1.8-3.4-1.2 0-2.3.2-3.3.8m.7 11.5c.2-.5.4-1.2.6-2.3.6-3.5 0-3.6-.8-3.7s-1.4-.3-2 3.2c-.1.4-.1.8-.2 1.2.7.7 1.5 1.3 2.4 1.6m8.7-6.5c-.5.1-1.1.3-1.8.6-3.3 1.2-3.1 1.8-2.8 2.5.3.7.5 1.3 3.8.1.1 0 .2-.1.4-.1.3-1 .5-2.1.4-3.1" fill="#ed4c5c"/><path fill="#42ade2" d="M25.6 13.8c0-.1 0-.1 0 0-.1-.1-.2 0-.3 0h.3"/><path fill="#e8e8e8" d="M36.2 37.5c-5.4 0-5.4-4.8 0-4.8s5.4 4.8 0 4.8"/></svg>