<svg xmlns="http://www.w3.org/2000/svg" viewBox="0 0 64 64"><g fill="#ffdd67"><path d="m48.2 14.7-3.3 8.4-6.5 2.8s-10 2.7-10.4 2.8l-10.2 3.7c-.8.2-1.5.7-1.9 1.4l-4.2 8.6c-1.7-.4-2.1.4-3.4 4-1.2 3.1 1.5 4.1 2 4.3 2.9 1.1 4.3-.8 5-2.3.6-.1 1.2-.5 1.4-1.1l.4-1.2c.2-.7 0-1.4-.4-1.8l3.5-7.1 2.7-1C22.5 41.9 25 49 22.8 56l19.1-.7c-5.5-6.9-2-15.6-1.8-22.6l8.4-5.4c.4-.3.8-.7 1-1.2l3.7-9.5-5-1.9"/><path d="m32.7 20.6 3.6-1.1-2.2 11.2-7.3-1.4z"/></g><path fill="#eba352" d="M26.8 24.9c1.9 1.7.1 4.4.1 4.4 3 .6 6.2-4.8 6.9-8.4l-7 4"/><path fill="#ffdd67" d="M37.8 6.4 23.9 8.3c-2.2 2.7-1.4 4.5-1.8 5.8-.1.6-1.5 1.4-2.3 1.8-1.6 1 .5 2.4 1.4 2.4.3 1.4-1.5 1.8 2.5 1.8 0 0-4.3.9-1.6 2.2-.6 1.5-1.5 4.4 7.3 3 2.6-.4 4.3-4.5 4.3-4.5l4.3.2-.2-14.6"/><path d="M25.4 14.8c-.2.8-.8 1.4-1.3 1.3-.6-.1-.6-.8-.4-1.6.2-.8.5-1.4 1-1.3s.8.7.7 1.6m-.2 5.3s-1.8.9-2.4 1c-1.3.4-1.4-.1-.6-.4.6-.3 1.7-.6 1.7-.6h1.3" fill="#937237"/><path fill="#ffce31" d="M57 3.1c4.6 2.4 6.4 8 3.9 12.5-2.5 4.5-8.2 6.2-12.8 3.8-4.6-2.4-6.4-8-3.9-12.5C46.6 2.4 52.3.7 57 3.1"/><path fill="#f2b200" d="M59.4 4.9c-4.9.6-8.3 2.4-9.6 3.3-.3-.5-.5-1-.7-1.7.7-.7 2.9-2.7 7.2-3.7-.9-.4-1.8-.6-2.7-.7-2.3.8-3.9 1.9-4.8 2.7 0-.6 0-1.3.1-2.1-.6.2-1.1.5-1.6.8-.4 5.6 3.2 7.7 4.5 8.3 0 .4.1 1.1-.2 2-1.4-.6-4.8-2.5-7.6-6.7-.3.5-.5 1.1-.7 1.6 2.9 4 6.3 5.8 7.8 6.5-.3.5-.6 1-1.1 1.4-1-.2-3.9-1.2-7-4.6.1.9.3 1.8.6 2.7 2 1.7 3.8 2.6 5 3-.5.4-1.2.7-1.9 1 .4.3.8.6 1.3.8.1 0 .2.1.3.1 5-2.5 5.1-6.6 5-8 .3-.2.9-.6 1.7-.8 0 1.6-.1 5.4-2 9.8.6 0 1.2-.1 1.7-.2 1.8-4.5 1.8-8.2 1.8-9.8.6 0 1.2 0 1.8.2.3.9.9 3.8-.4 8.1.7-.5 1.4-1.1 2-1.8.5-2.5.3-4.5.1-5.7.6.3 1.2.7 1.9 1.2.1-.6.1-1.2.1-1.8-4.7-3.2-8.4-1.2-9.6-.4-.4-.2-1-.5-1.6-1.1 1.3-.8 4.8-2.6 9.7-3-.3-.5-.7-.9-1.1-1.4"/><g fill="#eba352"><ellipse cx="26.4" cy="36.7" rx="1.1" ry="1.5" transform="rotate(-1.985 26.4 36.658)"/><path d="M34.6 35.2c0 .8-.4 1.5-1.1 1.5-.6 0-1.1-.6-1.2-1.4 0-.8.4-1.5 1.1-1.5.7-.1 1.2.5 1.2 1.4"/></g><path fill="#ed4c5c" d="M23.3 9.2s11.6.5 12.1 14.3c0 0 7.4-2 7.1-11C42.2 3.4 30-2.3 23.3 9.2"/><path fill="#3e4347" d="M42.2 10.2c-2.9 1.7-3.8 4.9-3.8 4.9-1.4-1.3-2.5-1.2-2.5-1.2-1 .8-1.3 2.8-1.3 4.7.4 1.4.7 3 .7 4.8 0 0 7.4-2 7.1-11 .1-.8 0-1.5-.2-2.2" opacity=".5"/><path fill="#ed4c5c" d="M37.9 16.6c.1 1.6-1.2 3-2.9 3.1-1.6.1-3-1.2-3.1-2.9-.1-1.6 1.2-3 2.9-3.1 1.7 0 3.1 1.3 3.1 2.9"/><g fill="#3e4347"><circle cx="33.9" cy="15.3" r=".5"/><circle cx="35.9" cy="15.2" r=".5"/><path d="M34 17.7c-.3 0-.5.2-.5.5s.2.5.5.5.5-.2.5-.5-.2-.5-.5-.5"/><circle cx="36" cy="18.1" r=".5"/><path d="M33 16.3c-.3 0-.5.2-.5.5s.2.5.5.5.5-.2.5-.5-.3-.5-.5-.5"/><circle cx="35" cy="16.7" r=".5"/><path d="M36.9 16.1c-.3 0-.5.2-.5.5s.2.5.5.5.5-.2.5-.5-.2-.5-.5-.5"/></g><path fill="#75d6ff" d="M57.7 51.7c-2.4 0-2.7-1.2-4.3-1.2s-1.9 1.2-4.3 1.2-2.7-1.2-4.3-1.2-1.9 1.2-4.3 1.2-2.7-1.2-4.3-1.2-1.9 1.2-4.3 1.2-2.7-1.2-4.3-1.2c-1.6 0-1.9 1.2-4.3 1.2s-2.7-1.2-4.3-1.2-1.9 1.2-4.3 1.2-2.7-1.2-4.3-1.2-1.9 1.2-4.3 1.2-4.3-1.2-4.3-1.2V62h60V50.5c.2 0-1.7 1.2-4.1 1.2"/><path d="M23.8 60c-6.8.7-11.4-3.5-18.5-1.1 5.4-.3 13.6 2.9 18.5 1.1m11.6-4.6c-6.8.7-11.5-3.6-18.5-1.1 5.5-.3 13.6 3 18.5 1.1M47 60c-6.8.7-11.4-3.5-18.5-1.1C34 58.6 42.2 61.8 47 60m11.7-4.6c-6.8.7-11.5-3.6-18.5-1.1 5.5-.3 13.6 3 18.5 1.1" fill="#42ade2"/></svg>