<svg xmlns="http://www.w3.org/2000/svg" viewBox="0 0 64 64"><g fill="#ffdd67"><path d="M38.6 32.7v-1.6h-4.4v1.6c0 .9-.7 1.6-1.5 1.6h7.5c-.9 0-1.6-.7-1.6-1.6"/><path d="M30.7 34.3H42v5.1H30.7z"/></g><path fill="#75a843" d="M25.9 34.3c-1.4 0-2.1.8-2.6 1.3l-16 18.2h3.2c2.5 0 3.3-.9 4-1.7l15.7-17.8h-4.3"/><path fill="#eba352" d="m4.9 43.8 4.8 2.9c.9.5 2 .3 2.6-.6.6-.8.3-2-.6-2.5l-4.8-2.9c-.9-.5-2-.3-2.6.6-.5.8-.2 2 .6 2.5"/><path fill="#3e4347" d="M17.7 48.3c0 .6-.5 1.1-1.1 1.1H7.4c-.6 0-1.1-.5-1.1-1.1V27.7c0-.6.5-1.1 1.1-1.1h9.1c.6 0 1.1.5 1.1 1.1v20.6z"/><circle cx="12" cy="31.1" r="1.1" fill="#b2c1c0"/><circle cx="12" cy="31.1" r=".6" fill="#3e4347"/><path fill="#ffdd67" d="M12.8 51.5c0 1.3-1 2.3-2.3 2.3H6.3c-1.3 0-2.3-1-2.3-2.3v-7.7c0-1.3 1-2.3 2.3-2.3h4.3c1.3 0 2.3 1 2.3 2.3v7.7z"/><path fill="#eba352" d="M53.4 24.9v4.2c0 .8.6 1.4 1.4 1.4.8 0 1.4-.6 1.4-1.4v-4.2c0-.8-.6-1.4-1.4-1.4s-1.4.6-1.4 1.4"/><path fill="#ffdd67" d="M60 34.1c0 .9-.8 1.7-1.7 1.7h-3.2c-.9 0-1.7-.8-1.7-1.7v-5.8c0-.9.8-1.7 1.7-1.7h3.2c.9 0 1.7.8 1.7 1.7v5.8"/><path fill="#fff" d="M16.3 28.7c0 .2-.1.3-.3.3h-.6c-.2 0-.3-.1-.3-.3v-.6c0-.2.1-.3.3-.3h.6c.2 0 .3.1.3.3v.6"/><path fill="#75a843" d="M54.3 35.6c-1 2.2-1.9 4.2-2.7 6-.8-1.8-1.7-3.8-2.7-6-.3-.7-1.2-1.3-2.6-1.3h-2.6s3.5 7.9 4.7 10.5c0 .1.9 2 2.8 2h.2c.6 0 2.4-.2 3.2-2l4.1-9.1h-4.4z"/><path fill="#83bf4f" d="M46.4 34.3h-5.6c-.5 2.1-2.3 3.7-4.4 3.7-2.1 0-3.9-1.6-4.4-3.7h-5.6V60s3.5 2 10 2 10-2 10-2V34.3"/><path fill="#ffb300" d="m22.4 16.7 1.4 2.6h25.1l1.1-2.8C50 6.4 47.6 2.1 36.5 2c-11.3-.1-14.1 4.4-14.1 14.7z"/><path fill="#ffdd67" d="M49 16.5c-.1.6-.2 1.1-.4 1.4-.3.6-.9.9-.9.9s.2-1.1.1-2.7c-.6-9.3-1.2-4.8-11.4-4.8-10.2 0-10.8-4.5-11.4 4.8-.1 1.6.1 2.7.1 2.7s-.6-.3-.9-.9c-.2-.3-.3-.9-.4-1.4-1-.3-2.2 0-2.2 2.8 0 1.7.6 3.2 2.8 3.3.8 5.8 8.5 9.7 12 9.7s11.3-3.9 12-9.7c2.1-.2 2.8-1.6 2.8-3.3 0-2.9-1.3-3.1-2.2-2.8"/><g fill="#937237"><circle cx="31.1" cy="19.5" r="2.2"/><circle cx="41.6" cy="19.5" r="2.2"/><path d="M40.4 26.7c0 1.5-2 2.3-4 2.3s-4-.8-4-2.3c0 0 0-.4.4-.4H40c.4 0 .4.4.4.4"/></g></svg>