<svg xmlns="http://www.w3.org/2000/svg" viewBox="0 0 64 64"><path fill="#ffb300" d="M32 2c-13.4 0-20.8 8.5-20.8 19.7v22.7h41.6V21.7C52.8 5 41.6 5.3 41.6 5.3S40.7 2 32 2z"/><path fill="#c28fef" d="M51.1 36.7C45.9 32 32.1 41 32 41c-.1-.1-13.9-9-19.1-4.3-4.8 4.4.8 25.3.8 25.3h36.5c.1 0 5.7-20.9.9-25.3"/><path fill="#ffdd67" d="M17.7 33.2s-3.1-.2-3.9-4.7c-.6-3.5 1.5-4.6 1.5-4.6C23 20 34.6 9.6 34.6 9.6S40 15 46.2 18.5c0 0 2.4 0 3.1 3.8.8 4.5-2.2 5.8-2.2 5.8 1.2 6.8-6.5 16.5-12 17.5-5.5.9-16.2-5.6-17.4-12.4"/><g fill="#937237"><path d="M39.4 38.1c.1 0 .2.1.2.2.1.7-2.2 2.7-5.2 3.2-3.1.5-5.8-.5-6-1.2 0-.1 0-.2.1-.3 0 0 2.6 1.1 5.7.5 3-.5 5.2-2.4 5.2-2.4M18.1 23c-.1-.1-.1-.1-.1-.2 0-.6 2-1.5 4.6-1.6 2.6-.2 4.8.4 4.8 1.1 0 .1 0 .2-.1.2 0 0-2.1-.4-4.6-.2-2.6.1-4.6.7-4.6.7M42.8 16.7c.1-.1.1-.2 0-.2-.2-.6-2.5-.5-4.9.4-2.4.9-4.1 2.4-3.9 2.9 0 .1.1.1.2.2 0 0 1.7-1.2 4.1-2.1 2.4-1 4.5-1.2 4.5-1.2"/></g><path fill="#eba352" d="M37 34.4c.2 1-2.8 1.8-3.5 2-.7.1-3.8.3-3.9-.7-.1-.1 7.3-1.8 7.4-1.3"/><path fill="#f5f5f5" d="M27.1 29.8c.9-.2.4-2.4.4-2.4-3.7-5.5-8.9-.7-8.9-.7-2.1 1.4 1.8 4.1 2.3 4.1 2.6.3 6.2-1 6.2-1"/><path fill="#664e27" d="M26 27.1c.3 1.6-.8 3-2.3 3.3-1.6.3-3-.8-3.3-2.3-.3-1.6.8-3 2.3-3.3 1.6-.3 3.1.8 3.3 2.3"/><g fill="#231f20"><path d="M24.2 27.5c.1.5-.3 1.1-.8 1.2-.5.1-1.1-.3-1.2-.8-.1-.5.3-1.1.8-1.2.6-.1 1.1.2 1.2.8"/><path d="M28.4 28.1c-.9-.8-1.7-1.5-2.7-2-.9-.5-1.9-.7-3-.6-1 .1-2 .5-3.1.9-.5.2-1.1.4-1.7.5-.6.1-1.3.2-1.7-.2.6.1 1.1-.1 1.6-.3.5-.2 1-.5 1.5-.8 1-.6 2.1-1.1 3.4-1.2.6 0 1.3 0 1.9.2.6.2 1.2.5 1.7.8.8.7 1.6 1.7 2.1 2.7"/></g><path fill="#f5f5f5" d="M37.1 28c-.9.2-1.1-2.1-1.1-2.1 1.6-6.4 8.2-3.7 8.2-3.7 2.5.6-.3 4.4-.8 4.7C41 28 37.1 28 37.1 28"/><path fill="#664e27" d="M42.9 24.2c.3 1.6-.8 3-2.3 3.3-1.6.3-3-.8-3.3-2.3-.3-1.6.8-3 2.3-3.3 1.6-.3 3 .7 3.3 2.3"/><g fill="#231f20"><path d="M41.1 24.5c.1.5-.3 1.1-.8 1.2-.5.1-1.1-.3-1.2-.8-.1-.5.3-1.1.8-1.2.6-.1 1.1.3 1.2.8"/><path d="M35.4 26.9c.1-1.1.5-2.3 1.2-3.3.3-.5.8-1 1.3-1.3.5-.4 1.1-.6 1.7-.8 1.2-.3 2.4-.2 3.6 0 .6.1 1.1.2 1.7.3.5.1 1.1.1 1.6-.2-.3.5-1 .7-1.6.8-.6.1-1.2.1-1.7.1-1.1 0-2.2 0-3.2.2s-1.9.8-2.6 1.6c-.9.6-1.4 1.6-2 2.6"/><path d="M16.6 49.9 15.8 62h11.1l-1.3-12.8h-.8c-.1-.7-.2-1.4-1.1-3.2-1.5-3.3-7.4-2.1-9.7-1.5L12 50c3.6.4 4.6-.1 4.6-.1" opacity=".2"/></g><path fill="#ffdd67" d="M17.4 50.4v-1.1s-10.2 2.1-14-1.4c-4.8-4.5 3.4-2 9.6-3.5 2.2-.6 8.1-1.7 9.7 1.5 1.7 3.5 1.3 4.5 1.3 4.5h-6.6"/><path fill="#c28fef" d="m16.3 62 .8-12.3h7.7L25.9 62z"/><path fill="#231f20" d="m47.4 49.9.8 12.1H37.1l1.3-12.8h.8c.1-.7.2-1.4 1.1-3.2 1.5-3.3 7.4-2.1 9.7-1.5l2 5.6c-3.6.3-4.6-.2-4.6-.2" opacity=".2"/><path fill="#ffdd67" d="M46.6 50.4v-1.1s10.2 2.1 14-1.4c4.8-4.5-3.4-2-9.6-3.5-2.2-.6-8.1-1.7-9.7 1.5-1.7 3.5-1.3 4.5-1.3 4.5h6.6"/><path fill="#c28fef" d="m47.7 62-.8-12.3h-7.7L38.1 62z"/></svg>