<svg xmlns="http://www.w3.org/2000/svg" viewBox="0 0 64 64"><path fill="#ffdd67" d="m38.9 15 2.2-1-.6 7-4.5-.4z"/><path fill="#eba352" d="M35.6 17.9c1.3.9.3 2.7.3 2.7 1.9.2 3.5-3.4 3.7-5.6l-4 2.9"/><path fill="#ffdd67" d="M41.1 5.9 32.7 8c-1.2 1.8-.6 2.8-.7 3.7 0 .4-.8 1-1.2 1.3-.9.7.5 1.4 1 1.4.3.8-.8 1.2 1.7 1 0 0-2.6.8-.8 1.5-.3 1-.6 2.8 4.6 1.3 1.6-.4 2.3-3 2.3-3l2.6-.2-1.1-9.1"/><path fill="#ffb300" d="M35.4 4.7c5.5-1.3 8.1 1.7 8.5 3 1.1 3.4-.4 6.9-3.1 9.4 0 0-1.1-.6-1.2-2.1 0 0 1.3.7 2.1-2 .7-2.3-1.7-3.8-3.2-.6h-.3c-.6-1.7.9-3.6-.9-4.4-1.6-.7-4.7.5-4.7.5-.5-1.1.6-3.2 2.8-3.8"/><path fill="#937237" d="M34.1 11.9c0 .5-.4.9-.7.9-.4 0-.4-.5-.4-1s.2-.9.5-.9c.4 0 .6.5.6 1"/><path fill="#eba352" d="M39.1 13c.1-1 1-1.8 1.8-1.7 0 0-1.5 1-1.3 2.7 0-.1-.5-.4-.5-1"/><path fill="#937237" d="M34.3 15.2s-1.1.7-1.4.8c-.8.3-.9.1-.4-.2l1-.5.8-.1"/><g fill="#3e4347"><path d="M39.6 17h-1l-1-6.7 1-.1z"/><path d="m39.4 17.1-.8-.5 3.5-3.4.8.5z"/><path d="m37.703 19.427.9-3.59 1.26.317-.899 3.589z"/></g><path fill="#f15744" d="M44.5 14.7c-.6 1.2-4-2.5-6.4-3.8-2.6-1.4-7.2-2.2-6.7-3.2 1.9-3.5 6.3-4.8 10-2.9 3.6 1.9 5 6.4 3.1 9.9"/><path fill="#3b946f" d="m36.1 21-4.8 3.2-1.2-.2.1 1.2 2.5 1 5-3.8z"/><path fill="#94989b" d="M43.1 29.2s-9 1.9-9.7 2.2c-.7.3-1.2.6-2.1 1.7l2 2.4s9.3-4.8 9.8-6.3"/><path d="M59.3 35.3c2.1-4.3-8.5-5.2-12 .9l.1 1.3s8.3-3.4 6.8 1.6c-1.6 5.7 7.7 9.2 7.7 9.2s-5.6-6.9-2.6-13M20 5.9s0-1.7 1.5-3.9c0 0 1.2 2.1 1.1 5.5L20 5.9z" fill="#89664c"/><path fill="#574137" d="m5.9 48.4 2.4-3.7s-.8-.4-1.5-1c-.6.6-1.6 1.7-2.5 3.1.8 1.1 1.6 1.6 1.6 1.6"/><path fill="#89664c" d="M20.6 45.9c-.9.2-1.9.4-2.7.7l-2.7-2.4s4.9-3 13.1-2.6c0 0-6.3-6.5-10.6-4.1 0 0-5.9 3.4-7.6 4.1-1.8.7-1.1 2.4-.6 2.8.5.5 8.3 5.1 8.3 5.1s1.6-.4 3.2-.3c0-1.5-.2-2.7-.4-3.3"/><path fill="#574137" d="M22.2 45.6s-.7.1-1.6.3c.2.6.5 1.8.5 3.3.8.1 1.6.2 2.3.7-.1 0-.1-2.8-1.2-4.3"/><path fill="#89664c" d="m44 40.7-3.2 4.1s4.1 3.3 8 2.9c0 0 2 3.2 7.2 6.6.3-.7.6-1.7.7-3.2-2-1-4.9-3.5-6.3-6.4 0 0-3.7-1.4-6.4-4"/><path fill="#574137" d="M56 54.3c.7.5 1.4.9 2.2 1.2 0 0 .5-1.8.3-3.8 0 0-.7-.1-1.8-.6-.1 1.5-.4 2.5-.7 3.2"/><g fill="#b7805c"><path d="M45.3 32.8c-8.9 2.3-15.6-1.4-15-6C32.8 8.2 21.8 6 21.8 6c-.7-2.8-2.3-4-2.3-4-1.1 2-1.2 4.1-1.2 4.1-1.8 2.3-10.1 8.5-11 9.4-1 .9 1.1 4.3 1.1 4.3.7.2 1.3-.8 2.7 0 .4.2-1.3 1-.9 1.3.6.6 2.5-1.1 4.3-1.2 6.9-.3 6.1-3.2 6.1-3.2 1.5 2.7-1.4 5.4-3.3 6.7-4.3 3.1-4.9 10.4-4.9 10.4-3 .6-7.6-1.1-7.6-1.1-5 5.1-2 11.9-.4 14.1 1-1.4 1.9-2.5 2.5-3.1-3.2-3-.6-6.7-.6-6.7 5.5 3.5 9.6 2.9 14.2 3.9 4.7 1 8.9 4.3 13.2 5.8 16.4 5.9 20-16.1 11.6-13.9"/><path d="M38.7 47.2c3.8 6.8 9.9 5.2 9.9 5.2 2 4.5 6.4 6.4 8.2 8.2 1-.8 1.5-2.3 1.6-3.2-6.2-2.7-7.7-8.5-7.7-8.5-5.1.3-4.4-6-4.4-6l-7.6 4.3"/></g><path d="M58.6 62c1.5-.4 1.2-3.8 1.2-3.8-.5-.2-.9-.5-1.3-.7-.2.9-.6 2.4-1.6 3.2.9.9 1.7 1.3 1.7 1.3M31.1 40s-.7 2.2-3.3 4.1c0 0 1.1.5 2 1.1 0 0 1.2-.5 3.3-4l-2-1.2" fill="#574137"/><path fill="#89664c" d="M30.3 27.9s1 3.3-1.2 4.7c-3.1 1.9 0 9.5 7.5 9.7 5.4.2 3.5-6.8 6.3-7.7 0 0-8.2-1.9-12.6-6.7"/><g fill="#333"><path d="m10.8 16.1-.2-.7c7.4-2.3 9.5-3.7 9.5-3.7l.4.6s-2.2 1.5-9.7 3.8"/><path d="M20.8 13.1c-.2-1.5-.6-2.8-1.1-4.1-.5-1.3-1.2-2.3-1.4-2.9 0 0-.3.4-.5.6.2.6.9 1.5 1.3 2.6.7 1.8 1.2 4.9 1.1 8.9.2 0 .7-.3.8-.3 0-1.7.1-3.2-.2-4.8m-10.2 6.5c.2 0 .6.3.6.3.3-3.3-.5-6.1-.9-6.8l-.6.4c.1.2.3.5.5 1.1.3.9.6 3 .4 5"/></g><path d="M15.3 11.1s.7.8 1.7.4C18 11 18.5 9 18.5 9s-1.7.3-3.2 2.1m-7 4.4s1.3.4.2 1.6c-1.2 1.3-.5-1.1-.2-1.6" fill="#89664c"/><path fill="#333" d="M24.9 23.7c-2.8-1.4-5.4-3.8-7.2-5.6-1.9-2-3.1-3.6-3.1-3.6l-.5.4s1.3 1.7 3.2 3.7c1.1 1.2 2.2 2.2 3.3 3.1 1.3 1 2.5 1.9 3.7 2.5.3-.2.6-.5.6-.5"/><path fill="#47b892" d="M32.3 25.2s-5.8-1.8-6.5-1.9c0 0-.1.4-.9 1l7.4 4.3 5.7-3.4 5.1 4s2.6 1.4 6.5.2c0 0-2.5-8.1-9-10.7 0 0-2 1.6-4.5 1.6l-3.8 4.9"/><path fill="#d0d0d0" d="M43.1 29.2s-7.4 1.9-9.7 4c-1.6 1.4-1 5-1 6 0 0 1.9 1.2 3.6.5 0 0 .5-.9.3-4 0 0 6.1.6 9.1-.2 2.9-.8 4.4-2.4 4.3-6.2l-6.6-.1"/><path fill="#333" d="M30.6 45s-4.2.2-4.6.6c-.4.5.2 1.1.2 1.1s2.8 1.8 6.4 2.5l3.7-9.7s-1.3.7-4-.4L30.6 45"/><path fill="#ffdd67" d="m25.6 23.9.5-1c.2-.3 0-.8-.3-.9l-.5-.2c-.2-.1-.5-.1-.7.1-.6-.3-1.6-.4-2.1.7-.1.2-.6 1.2.6 1.8 1.8.9 1.8.9 2.5-.5"/><path fill="#c9150d" d="M39.5 11.8S30.1 10.2 29 9.4c-1.2-.8 1.6-1.6 2.4-1.7.8-.1 7.9 3.2 8.1 4.1"/></svg>