<svg xmlns="http://www.w3.org/2000/svg" viewBox="0 0 64 64"><ellipse cx="31.9" cy="13" fill="#d93d3d" rx="19.7" ry="11"/><ellipse cx="31.9" cy="16.8" fill="#e2e9ed" rx="24" ry="11"/><path fill="#ff4848" d="M61.8 62H2c0-11.8 13.4-12.9 29.9-12.9S61.8 50.2 61.8 62z"/><path fill="#fff" d="M51.7 50.7c0 1.4-3.7 1.4-4.9 2.5-.9.9-.1 4.6-1.5 5.3-1.2.6-3.8-2.3-5.3-1.9-1.3.3-2.1 4.1-3.6 4.3-1.4.2-3-3.3-4.5-3.3s-3.1 3.5-4.5 3.3c-1.5-.2-2.3-4-3.6-4.3-1.5-.4-4.1 2.5-5.3 1.9-1.5-.7-.6-4.4-1.5-5.3-1.2-1.1-4.9-1.1-4.9-2.5.1-1.4 39.6-1.4 39.6 0"/><path fill="#ffdd67" d="M54.3 25.9C40.5 12 23.2 12 9.4 25.9l.1 15.4c0 6.7 6.6 14 22.8 14 15.4 0 22-6 22-14V25.9"/><path fill="#454749" d="M38.3 46.2c.1.1.2.3.2.5 0 1.5-3 3.3-6.6 3.3s-6.7-1.8-6.7-3.3c0-.2.1-.4.2-.6 0 0 2.9 1.3 6.5 1.3 3.6.1 6.4-1.2 6.4-1.2"/><path fill="#8b9fa5" d="M31.9 8.3C5 8.3.3 29.5 9.5 36.8c0 0 4.6-7.8 14.3-11.6 3.2-1.2 5.9-2.4 8.1-3.6 2.2 1.1 4.9 2.3 8.1 3.6 9.7 3.7 14.3 11.6 14.3 11.6 9.2-7.3 4.5-28.5-22.4-28.5"/><g fill="#454749"><path d="M41.5 48.6c-.5 0-1-.1-1.5-.3-.5-.2-.9-.5-1.3-.8-.8-.6-1.4-1.6-1.4-2.6.7.7 1.3 1.3 2 1.9.7.6 1.5 1.1 2.2 1.8m-19.3 0c.7-.7 1.5-1.2 2.1-1.8.7-.6 1.3-1.2 2-1.9 0 1-.7 1.9-1.4 2.6-.4.3-.8.6-1.3.8-.4.1-.9.3-1.4.3m-2.9-11.9L19 34c.7-.1 1.7-.3 2.8-.5 5.2-1 13.9-2.7 23.4.5l-.9 2.5c-8.8-3-17.1-1.4-22-.4-1.2.3-2.2.5-3 .6"/><circle cx="21" cy="35.4" r="8"/></g><circle cx="21" cy="35.4" fill="#b4d7ee" r="5.5"/><path fill="#454749" d="M50.8 35.4c0 4.4-3.6 8-8 8s-8-3.6-8-8 3.6-8 8-8 8 3.6 8 8"/><path fill="#b4d7ee" d="M48.3 35.4c0 3-2.5 5.5-5.5 5.5s-5.5-2.5-5.5-5.5 2.4-5.5 5.5-5.5c3 0 5.5 2.5 5.5 5.5"/><path fill="#ff4848" d="M60 26.1c0 13.3.7-6.8-28.1-6.8S3.8 39.4 3.8 26.1 16.4 7 31.9 7C47.4 7 60 12.8 60 26.1"/><path fill="#fff" d="M6.8 33.6s-6-2.4-4.3-6.2c.6-1.5 4.3-1.1 5.7-2 1.7-1.1 3.6-5.6 5.6-6.1 1.2-.3 3.3 1.9 4.5 1.8 1.9-.2 4.2-3.9 6.1-4.3 2.3-.4 6.8 2.5 9.1 2.4 2-.1 5.3-3.3 7.3-3.1 2.2.2 4.9 4.3 6.9 5.1 1.9.7 6.5-.7 8 .5 1 .8.3 3.9 1 4.9.9 1.3 5.3 1.9 5.3 3.4 0 3.6-5.2 4-5.2 4s.9-2.6.5-3.1c-.8-1.1-4.6-1.2-5.2-2.5-.6-1.2 1-3.2.1-4.1-1.4-1.4-4.8.9-6.8.5-1.7-.4-3.9-4-5.7-4.1-1.9-.1-4.7 3.3-6.6 3.4-1.8.1-4.9-2.7-6.7-2.4-2 .3-4.3 4.7-6.3 4.7-1.6 0-4.3-3.3-5.9-2.9-1.9.4-1.7 4.9-3.4 5.9-1 .6-3.8-.8-4.6 0-.8.6.6 4.2.6 4.2"/></svg>