<svg xmlns="http://www.w3.org/2000/svg" viewBox="0 0 64 64"><path fill="#e8e8e8" d="M57 58.3c-.2 2.1-2.1 3.7-4.1 3.7H11.1c-2.1 0-4-1.7-4.1-3.7L2 5.7C1.8 3.7 3.4 2 5.5 2h53.1c2.1 0 3.6 1.7 3.4 3.7l-5 52.6"/><path fill="#b2c1c0" d="M54.1 46.1c-6.3 0-12.2 3.8-12.2 3.8s11.4-1.8 10.3-.9c-8.5 6.4-34 6.2-39 .5-2.7-3.1 17.2 4.3 21.1-3.3H9.9c-1 0-1.8.8-1.6 1.9l1.3 9.4c.1 1 1.1 1.9 2.1 1.9h40.4c1 0 2-.8 2.1-1.9l1.3-9.4c.3-1.2.2-2-1.4-2"/><path fill="#89664c" d="M56.9 31.1c.1-1-.7-1.9-1.7-1.9H8.8c-1 0-1.8.8-1.7 1.9l1.1 11.3c.1 1 1 1.9 2.1 1.9h43.6c1 0 2-.8 2.1-1.9l.9-11.3"/><path d="M18.5 55.3c-3.6-.7-7.4-4.1-7.2-1.2.4 5 1.6 3 12.7 3s-4.3-1.5-5.5-1.8m27.6 0c3.6-.7 7.4-4.1 7.2-1.2-.4 5-1.6 3-12.7 3s4.3-1.5 5.5-1.8" fill="#e8e8e8"/><path fill="#594640" d="M53.6 41.4c0-.5 0-.9-21.6-.9-21.7 0-21.6.4-21.6.9s-.1.9 21.6.9c21.6 0 21.6-.4 21.6-.9" opacity=".67"/><path fill="#ff8736" d="M51.7 40.4c1 .2 2-.5 2.1-1.5l.7-5.9c.1-1.1-.7-1.9-1.7-1.9H10.3c-1.1 0-1.1.3 0 .5 0 0 5.7.3 11.3 1.4 3.9.8 5.3 2.1 9.9 3.1 4.4.9 6.6.5 10.7 1.3 5 1.1 9.5 3 9.5 3" opacity=".67"/><path fill="#fff" d="M45.1 40.4c0 1 .8 1.9 1.7 1.9h5.5c1 0 1.9-.8 2-1.9 1-8 2.9-25.8 3.9-33.8.1-1-.6-1.9-1.6-1.9h-9.1c-1 0-1.8.8-1.8 1.9-.1 8.1-.4 25.9-.6 33.8M11.1 42.5c1.2 0 .7-8.4-.2-18.9-.8-10.4-2.2-18.9-3-18.9-1.4 0-.7 8.4.2 18.9.8 10.4 2.2 18.9 3 18.9" opacity=".5"/></svg>