<svg xmlns="http://www.w3.org/2000/svg" viewBox="0 0 64 64"><path fill="#7b853d" d="M38.7 15.9c-.2-3.5-1.3-7-3.9-9.5-1.3-1.3-2.9-2.2-4.6-2.7-1.8-.5-3.6-.3-5.2.3-1.6.7-3 1.8-4 3.1s-1.8 2.8-2.3 4.4c-1.1 3.1-1.4 6.4-.7 9.7.6 3.2 1.9 6.5 3.2 9.7 1.3 3.3 2.7 6.6 3.9 10 2.4 6.8 3.8 14 4 21.1H23c.2-6.7-.6-13.4-2.5-20-.9-3.3-2.1-6.6-3.2-9.9-1.1-3.3-2.3-6.8-2.7-10.4-.5-3.6 0-7.5 1.5-10.9.8-1.7 1.8-3.4 3.1-4.8 1.3-1.5 3.1-2.7 5.2-3.4 2.1-.7 4.4-.7 6.4 0s3.7 1.9 4.9 3.3c2.3 2.9 3.1 6.5 3 10"/><path d="M3.9 23.5c4.9-7.1 11.8-5.3 11.8-5.3s4.2 3.9-2.3 10C8.9 32.3 7 40.5 7 40.5s-8.8-8.8-3.1-17m34.5 28.9c-6.9-3.6-5.1-8.7-5.1-8.7s3.8-3.1 9.7 1.7c4 3.3 12 4.8 12 4.8s-8.6 6.5-16.6 2.2" fill="#9ca84d"/><path fill="#803c3c" d="M48 17c-7-5.7-10.3-8.7-14.3-6.6-4 2.1-2 17.2 6.5 18 8.3.8 11.7 6.2 11.7 6.2S59.3 26.2 48 17"/><path fill="#663030" d="M34.8 21.8C33.3 13.7 31 9.7 35 7.6c4-2.1 22 9.8 17.1 15.5-6 7.1-5.8 11.6-5.8 11.6s-9.2-.8-11.5-12.9"/><path fill="#994848" d="M38.3 27.9c1.9 2.8 14.1-.3 18.9 3.1 0 0 2.2-6.9-2.7-10.2-2.8-1.8-22.6-2.4-16.2 7.1"/><path fill="#b35454" d="M42.3 22.5c-12.8-6-13.1-13.4-7.8-16.1 5.3-2.7 15 .2 18.2 7.8C55.9 22 62 26.7 62 26.7s-9.9.4-19.7-4.2"/><path fill="#cc6060" d="M48.7 20.2C50.2 7.8 39.4 3.9 34.1 6.6c-5.3 2.7-5.7 10.7-.9 17.7 4.8 7.1 6.1 12.2 6.1 12.2s8.3-7.5 9.4-16.3"/><path fill="#7b853d" d="M36 9.7c-8.1 4.3-7-1.2-1.7-3.9 13-6.7 21.3 6.7 21.3 6.7S43.1 5.8 36 9.7z"/><path fill="#9ca84d" d="M36 9.7c1.5-2.2 6.2-6.6.2-5.1-11.8 2.9-5.8 20.3-5.8 20.3s1.1-8.8 5.6-15.2"/><path d="m16.3 46.6 7-3.1.6 4zm7.6-21.2-4.6 3.4-1.1-2.9z" fill="#594640"/></svg>