<svg xmlns="http://www.w3.org/2000/svg" viewBox="0 0 64 64"><path fill="#ed4c5c" d="M60.1 52.1 32 58.5 3.9 52.1V34.2h56.2z"/><path fill="#b2c1c0" d="M32 37.7S8.6 37.1 2 27.3V33s3.2 8.5 30 8.5S62 33 62 33v-5.7c-6.6 9.8-30 10.4-30 10.4"/><path fill="#e8e8e8" d="M32 16.9c-16.6 0-30 4.7-30 10.4s13.4 10.4 30 10.4S62 33 62 27.3 48.6 16.9 32 16.9"/><path fill="#b2c1c0" d="M32 56.6S8.6 56 2 46.2v5.7s3.2 8.5 30 8.5 30-8.5 30-8.5v-5.7C55.4 56 32 56.6 32 56.6"/><path fill="#e8e8e8" d="M60.1 42.6v3.6c0 5.2-12.6 9.5-28.1 9.5-15.5 0-28.1-4.2-28.1-9.5v-3.6C2.7 43.7 2 44.9 2 46.2c0 5.7 13.4 10.4 30 10.4s30-4.7 30-10.4c0-1.3-.7-2.5-1.9-3.6"/><path fill="#b2c1c0" d="M32 21.6c13.7 0 25.1 3.3 27.6 7.6.4-.6.6-1.3.6-1.9 0-5.2-12.1-9.5-28.2-9.5S3.9 22.2 3.9 27.3c0 .6.2 1.3.5 1.9 2.6-4.3 14-7.6 27.6-7.6"/><path fill="#fff" d="M32 36.4c14 0 25-3 27.6-7.1-2.5-4.4-13.9-7.6-27.6-7.6-13.6 0-25 3.3-27.6 7.6 2.5 4.1 13.5 7.1 27.6 7.1"/><path fill="#d3976e" d="M46.5 23.4c-.6-.3-1.2-.5-1.7-.5L8.6 2c-.5-.2-1.9 2.1-1.4 2.4l36.7 20.2c.2.4.7.9 1.2 1.2 3.5 2 4.9-.4 1.4-2.4"/><path fill="#89664c" d="m33.7 19 2.2-1.2-1.7-1-2.2 1.3z"/><path fill="#d3976e" d="M55.4 2 19.2 22.9c-.5 0-1.1.1-1.7.5-3.5 2-2.1 4.4 1.4 2.4.6-.3 1-.8 1.2-1.2L56.8 4.4c.5-.3-.9-2.6-1.4-2.4"/><path fill="#b2c1c0" d="M3.9 53.3v3.8c0 1.5 5.6 1.5 5.6 0v-3.8H3.9"/><ellipse cx="6.7" cy="53.3" fill="#e8e8e8" rx="2.8" ry=".9"/><path fill="#8a8e91" d="M5.8 38.6v14.6c0 .3.4.5.9.5s.9-.2.9-.5V38.6H5.8"/><path fill="#b2c1c0" d="M3.9 34.4v3.8c0 1.5 5.6 1.5 5.6 0v-3.8H3.9"/><ellipse cx="6.7" cy="34.4" fill="#e8e8e8" rx="2.8" ry=".9"/><path fill="#b2c1c0" d="M54.5 53.3v3.8c0 1.5 5.6 1.5 5.6 0v-3.8h-5.6"/><ellipse cx="57.3" cy="53.3" fill="#e8e8e8" rx="2.8" ry=".9"/><path fill="#8a8e91" d="M56.4 38.6v14.6c0 .3.4.5.9.5s.9-.2.9-.5V38.6h-1.8"/><path fill="#b2c1c0" d="M54.5 34.4v3.8c0 1.5 5.6 1.5 5.6 0v-3.8h-5.6"/><ellipse cx="57.3" cy="34.4" fill="#e8e8e8" rx="2.8" ry=".9"/><path fill="#b2c1c0" d="M38.6 57.1v3.8c0 1.5 5.6 1.5 5.6 0v-3.8h-5.6"/><ellipse cx="41.4" cy="57.1" fill="#e8e8e8" rx="2.8" ry=".9"/><path fill="#8a8e91" d="M40.4 42.4V57c0 .3.4.5.9.5s.9-.2.9-.5V42.4h-1.8"/><path fill="#b2c1c0" d="M38.6 38.2V42c0 1.5 5.6 1.5 5.6 0v-3.8h-5.6"/><ellipse cx="41.4" cy="38.2" fill="#e8e8e8" rx="2.8" ry=".9"/><path fill="#b2c1c0" d="M19.8 57.1v3.8c0 1.5 5.6 1.5 5.6 0v-3.8h-5.6"/><ellipse cx="22.6" cy="57.1" fill="#e8e8e8" rx="2.8" ry=".9"/><path fill="#8a8e91" d="M21.7 42.4V57c0 .3.4.5.9.5s.9-.2.9-.5V42.4h-1.8"/><path fill="#b2c1c0" d="M19.8 38.2V42c0 1.5 5.6 1.5 5.6 0v-3.8h-5.6"/><ellipse cx="22.6" cy="38.2" fill="#e8e8e8" rx="2.8" ry=".9"/></svg>