<svg xmlns="http://www.w3.org/2000/svg" viewBox="0 0 64 64"><path fill="#428bc1" d="M46.1 2 34.8 18.9h5.6L53 2z"/><path fill="#e8e8e8" d="M40.4 2 29.2 18.9h5.6L46.1 2z"/><path fill="#ed4c5c" d="M34.8 2 23.6 18.9h5.6L40.4 2z"/><g fill="#ffce31"><circle cx="32" cy="41.4" r="20.6"/><path d="M21.7 15.1c-.5 0-.9.4-.9.9v8.4c0 .5.4.9.9.9h20.6c.5 0 .9-.4.9-.9V16c0-.5-.4-.9-.9-.9H21.7m19.7 6.6c0 .5-.4.9-.9.9H23.6c-.5 0-.9-.4-.9-.9v-3.8c0-.5.4-.9.9-.9h16.9c.5 0 .9.4.9.9v3.8"/></g><path fill="#89664c" d="M14.3 43.8c0-11.2 8.6-20.3 19.6-21.1-.5 0-1.1-.1-1.6-.1-10.5 0-19 8.5-19 19.1 0 3.1.8 6.1 2.1 8.7-.7-2.1-1.1-4.3-1.1-6.6" opacity=".5"/><path fill="#fff" d="M39.9 57.3C49.2 51.1 52 39 46.6 29.6l.9 1.2c5.8 8.6 3.4 20.3-5.3 26.2-2.6 1.8-5.5 2.8-8.4 3.1 2.2-.6 4.2-1.5 6.1-2.8" opacity=".33"/><path fill="#ed4c5c" d="M23.6 18.9h5.6L17.9 2H11z"/><path fill="#e8e8e8" d="M29.2 18.9h5.6L23.6 2h-5.7z"/><path fill="#3e4347" d="M32.9 4.8 30.1 9l6.6 9.9h3.7l1-1.4z" opacity=".5"/><path fill="#428bc1" d="M34.8 18.9h5.6L29.2 2h-5.6z"/><path d="M26.8 35.2v1c1 0 1.9-.2 2.8-.6v-1.4c-.8.6-1.7.9-2.8 1m6.6-6.5h.9v21.6h-.9zm3.8 22.5V54H26.8v1h11.3v-3.8z" opacity=".5" fill="#89664c"/><path d="M34.3 50.3h2.8v.9h-2.8zm-3.7-21.6h2.8v-.9h-3.8c0 2.1-1.7 3.8-3.8 3.8v3.7c.3 0 .6 0 .9-.1v-2.8c2.2.1 3.9-1.6 3.9-3.7m0 22.5v-16c-.3.2-.6.3-.9.5v14.6h-3.8V54h.9v-2.8h3.8" opacity=".33" fill="#fff"/></svg>