<svg xmlns="http://www.w3.org/2000/svg" viewBox="0 0 64 64"><path fill="#d0d0d0" d="M41.9 38.4 31.5 28c-3.1-3.1-.4-11-8.6-19.2C17.1 3 7.6-.2 3.7 3.7-.2 7.6 3 17.1 8.8 22.9c8.2 8.2 16 5.5 19.2 8.6l10.4 10.4c4.3 4.3 4.6 5.8 11.3 14.8 3.3 4.5 6.5 7.3 10.4 3.4 4-4 1.1-7.1-3.4-10.4-9-6.7-10.4-7-14.8-11.3"/><path fill="#fff" d="M15.6 5.9C21 12.8 22.8 20.8 20 26c.2 0 .4.1.5.1 1.9 0 3.6-.5 4.8-1.7 1.2-1.2 2-2.9 1.7-4.8-.4-2.8-1.9-6-5.2-9.3-1.8-1.9-4-3.4-6.2-4.4"/><path fill="#94989b" d="M13.2 23.7C6.3 16.8 4 7.9 7.7 3.3c-1.3.1-2.3.5-3.1 1.3C1.5 7.7 4 16.3 9.7 22c2.3 2.3 4.6 3.7 6.7 4.6 0 0 0-.1-.1-.1-1.1-.8-2.1-1.8-3.1-2.8"/></svg>