<svg xmlns="http://www.w3.org/2000/svg" viewBox="0 0 64 64"><path fill="#428bc1" d="M46.1 2 34.8 18.9h5.6L53 2z"/><path fill="#e8e8e8" d="M40.4 2 29.2 18.9h5.6L46.1 2z"/><path fill="#ed4c5c" d="M34.8 2 23.6 18.9h5.6L40.4 2z"/><g fill="#d3976e"><circle cx="32" cy="41.4" r="20.6"/><path d="M21.7 15.1c-.5 0-.9.4-.9.9v8.4c0 .5.4.9.9.9h20.6c.5 0 .9-.4.9-.9V16c0-.5-.4-.9-.9-.9H21.7m19.7 6.6c0 .5-.4.9-.9.9H23.6c-.5 0-.9-.4-.9-.9v-3.8c0-.5.4-.9.9-.9h16.9c.5 0 .9.4.9.9v3.8"/></g><path fill="#3e4347" d="M14.3 43.8c0-11.2 8.6-20.3 19.6-21.1-.5 0-1.1-.1-1.6-.1-10.5 0-19 8.5-19 19.1 0 3.1.8 6.1 2.1 8.7-.7-2.1-1.1-4.3-1.1-6.6" opacity=".5"/><path fill="#fff" d="M39.9 57.3C49.2 51.1 52 39 46.6 29.6l.9 1.2c5.8 8.6 3.4 20.3-5.3 26.2-2.6 1.8-5.5 2.8-8.4 3.1 2.2-.6 4.2-1.5 6.1-2.8" opacity=".33"/><path fill="#ed4c5c" d="M23.6 18.9h5.6L17.9 2H11z"/><path fill="#e8e8e8" d="M29.2 18.9h5.6L23.6 2h-5.7z"/><path fill="#3e4347" d="M32.9 4.8 30.1 9l6.6 9.9h3.7l1-1.4z" opacity=".5"/><path fill="#428bc1" d="M34.8 18.9h5.6L29.2 2h-5.6z"/><path d="M31.5 31.5c-2.1 0-3.8 1.7-3.8 3.7H25c0 .3-.1.6-.1.9h3.8c0-2.1 1.7-3.8 3.8-3.8.8 0 1.5.3 2.1.7-.7-.8-1.8-1.5-3.1-1.5m5.9 10.3c1.6-1.4 2.6-3.4 2.6-5.6 0-2.3-1-4.4-2.7-5.8 1.1 1.3 1.8 3 1.8 4.8 0 2.2-1 4.3-2.6 5.6 1.6 1.4 2.6 3.4 2.6 5.6 0 4.1-3.4 7.5-7.5 7.5-1.8 0-3.5-.7-4.8-1.8 1.4 1.6 3.4 2.7 5.8 2.7 4.1 0 7.5-3.4 7.5-7.5-.1-2.1-1.1-4.1-2.7-5.5" opacity=".5" fill="#3e4347"/><path d="M32.5 28.7c1.8 0 3.5.7 4.8 1.8-1.4-1.6-3.4-2.7-5.8-2.7-4.1 0-7.5 3.4-7.5 7.5h1c.5-3.7 3.6-6.6 7.5-6.6m3.7 7.5c0-1.3-.6-2.4-1.6-3.1.4.6.7 1.3.7 2.1 0 2.1-1.7 3.8-3.8 3.8v3.8c.3 0 .6.1.9.1V40c2.1 0 3.8-1.7 3.8-3.8m-3.7 15c2.1 0 3.8-1.7 3.8-3.8 0-1.3-.6-2.4-1.6-3.1.4.6.7 1.3.7 2.1 0 2.1-1.7 3.8-3.8 3.8-.8 0-1.5-.3-2.1-.7.6 1.1 1.7 1.7 3 1.7m-4.6-3.7c-.1-.3-.1-.6-.1-.9H24c0 2.3 1 4.4 2.7 5.8-1.1-1.3-1.8-3-1.8-4.8l3-.1" opacity=".33" fill="#fff"/></svg>