<svg xmlns="http://www.w3.org/2000/svg" viewBox="0 0 64 64"><g fill="#3e4347"><path d="M15.6 59s7.3-3.8 14.9-2.3c7.1 1.4 7.3-3 11.1-3s3.2-3.4 6.1-3.2c0 0 1.3.1 1.3 1.4 0 0-2.4.1-3.4 2s-6.6 1.7-8.8 3.9c-2.7 2.7-10.3.9-13.5 1.2-2.5.3-5.5 3-9.8 3l2.1-3"/><path d="M27.3 53.6s4.6-.2 7.3 1.8c2.8 2 4.8 4.5 8.3 3.3 3.5-1.2 6.8-2.1 10.6-.9 0 0 .5-.7.4-1.5 0 0-2.4-1.4-5.2-.8s-5.6 2.2-7.4 1.6-5.6-4.7-11.7-4.7l-2.3 1.2"/><path d="M55.8 57.7c.1-.2.1-.4 0-.4l-3.3-1.2-.3.7 3.3 1.2s.2-.1.3-.3"/></g><path fill="#c94747" d="M14.3 37.6S8.9 19.3 27.4 13.3c16.4-5.2 11 10.1-13.1 24.3"/><path fill="#ed4c5c" d="M27.4 10.6C18.8 32.8 12.9 32.2 16.9 40l1.5 19.8s2.7-1.6 9.1-5.3c4.8-2.8 14.3-3.5 20.7-7.3C59.5 40.6 66 30.5 59.5 19.1 53 7.8 34.6-8.1 27.4 10.6"/><path fill="#c94747" d="M24.4 42.8c-3.2-5.6-8.2-8.7-11.2-7l-9.1 5.3 11.5 20.4 9.1-5.3c3-1.8 2.9-7.8-.3-13.4"/><path fill="#3e4347" d="M15.4 48.1c3.2 5.6 3.3 11.6.3 13.4-3 1.8-8-1.4-11.2-7-3.2-5.6-3.3-11.6-.3-13.4 3-1.7 8 1.4 11.2 7"/><path fill="#ed4c5c" d="M13.6 49.1c2.3 4.1 2.5 8.4.5 9.6-2 1.2-5.6-1.1-7.9-5.2-2.3-4.1-2.5-8.4-.5-9.6 2.1-1.2 5.6 1.2 7.9 5.2"/><path fill="#c94747" d="M13.6 49.1c-1.9-3.4-4.7-5.6-6.8-5.5-.4 1.9.2 4.8 1.8 7.6 1.9 3.4 4.7 5.6 6.8 5.5.4-1.9-.2-4.8-1.8-7.6"/><path fill="#ff717f" d="M38.7 6c3-1.8 12.6 5.4 17 13.1 4.4 7.7-2.5 9.2-6.9 1.5-4.3-7.8-15-11.8-10.1-14.6"/><path fill="#3e4347" d="M26.2 13.8s-2 9.4-8.9 17.1c0 0 4.4-7 6-15.9l2.9-1.2"/><path fill="#c94747" d="M30 9.9c3.4-1 .1-3.8 2-6-1.8 1.4-4.1 3.4-5 6.7-4.6 17.5-11.3 19.2-11.4 24.8 1.2-.8 3.8-3.3 6.8-2.5 4.3 1.2-4.9-4.5.2-3.8 5.2.6-2.1-3.7 2.6-4 4.7-.3-4-5 2.1-4.9 6.1.1-3.5-4.1 3.5-4.5 7-.6-5-4.6-.8-5.8"/><path fill="#fff" d="M9 39.9c2.7 1.2 5.5 3.9 7.6 7.5 2.1 3.7 2.9 7.4 2.6 10.4l4.9-2.9c2-1.2 2.2-6.2-.8-11.5-2.5-4.4-6-6.8-8.1-6.8-.5 0-.8.1-1.2.3l-5 3"/><path fill="#3e4347" d="M51 50.7c0-.2-.1-.4-.2-.4l-3.6.7.1.8 3.5-.6c.1-.1.2-.3.2-.5"/></svg>