<svg xmlns="http://www.w3.org/2000/svg" viewBox="0 0 64 64"><path fill="#94989b" d="M37.4 36.7c.4 0 .7-.1 1.1-.3 1-.5 1.1-1.6.9-2.6-.1-.5.7-.7.9-.1.3 1.2.2 2.3-.8 3.1-.5.4-1.2.6-1.8.7-.8.1-.9-.8-.3-.8"/><g fill="#d0d0d0"><path d="m5.1 2.8 1-.2c.4 0 .9.3.9.8l.2 1 25.1 18.2s7.8 5.7 10.7 7.8c.1.1.2.2.3.2 1-.3 2.1-.2 3 .3.5.3.2 1.1-.3.8-.7-.3-1.4-.5-2.1-.4.4.7.6 1.6-.1 2.5l-3.5 2.7s-1.7-2.9-5.3-5.6c-1.8-1.3-5.8-4.2-5.8-4.2l1-1.4L2 4.9l2-2.8 1.1.7M42 46.4c.8.6 1.9.6 2.6-.1.9-.7 1.1-2.1.3-3l-3.8-5.5-.7.5 3.8 5.5c.5.6.4 1.4-.2 1.8-.6.4-1.4.4-1.8-.2l-4.4-6.2-.7.5 4.4 6.3c.2.2.4.3.5.4"/><path d="M35 34.7c1-1.4 3.1-1.5 4.7-.3s2.1 3.2 1.1 4.6c-1 1.4-3.1 1.5-4.7.3S34 36 35 34.7m.7.5c-.7 1-.3 2.5.9 3.4 1.2.9 2.8.8 3.5-.1.7-1 .3-2.5-.9-3.4s-2.8-.9-3.5.1"/></g><path d="M62 52.1s-3.7 1.2-7.1 9.8L40.4 36.6l3.5-2.7s3.9 4.9 5.5 6.8c1 1.2 2.2-.4 3.4.5 1.1.9 9.2 10.9 9.2 10.9m-47.1-36 13.8 11.4 2.9-4L17.1 13z" fill="#89664c"/><path fill="#d0d0d0" d="m14.683 18.344 2.468-3.398 1.375.999-2.468 3.398z"/><path fill="#94989b" d="M31.9 25.4c-.2.3-.1.8.3 1.1l4.7 3.4c.4.3.9.2 1.1-.1s.1-.8-.3-1.1L33 25.4c-.4-.3-.9-.3-1.1 0"/></svg>