<svg xmlns="http://www.w3.org/2000/svg" viewBox="0 0 64 64"><path fill="#bf906c" d="M38.7 2c-12.4 0-14.6 10.9-24 17C3.1 26.7 0 35.5 3.2 45.1c4.1 12.4 15.5 21 28.8 14.2 13.3-6.8 18.3-19.1 25.1-25.5C65.4 26 64.4 2 38.7 2z"/><path fill="#805f47" d="M59.4 12.1c.7 4 .8 11.7-1.8 15.5-1.1 1.7-3 4.1-4.1 5.5 2.7-6.1 1.4-9.7 1.4-9.7-3.1 14.3-12 15.2-17.8 26.1 0 0 5.2-3.1 8.6-6.6 0 0-4.7 11.5-15.9 12.9-10.4 1.3-11 4.6-13.9 4.6 4.3 2.8 10.5 1.8 16-1C45.2 52.6 50.2 40.3 57 33.9c5.9-5.6 6.4-15.8 2.4-21.8"/><path d="M27.5 51.2c.3 1.4-1.5 2.9-3.9 3.4-2.4.4-4.6-.4-4.8-1.8-.3-1.4 2.1.6 4.5.1s3.9-3.2 4.2-1.7m-14.7-.5c-1.1.8-3-.3-4.4-2.6-1.3-2.3-1.6-4.8-.5-5.6 1.1-.8.4 2.4 1.7 4.6 1.4 2.3 4.3 2.7 3.2 3.6M8.7 37.6c-1.3 0-2.3-2.2-2.3-4.9.1-2.7 1.2-4.9 2.5-4.9S8 30 8 32.7c-.1 2.7 2 4.9.7 4.9m28.7 5.2c.2 1.5-1.7 3-4.2 3.3-2.5.3-4.7-.6-4.9-2.1-.2-1.5 2.2.7 4.7.4 2.5-.4 4.2-3.1 4.4-1.6m9.5-29.4c1.3.1 2.1 2.3 1.8 5-.3 2.7-1.6 4.8-2.9 4.8-1.3-.1 1.1-2.1 1.4-4.8.2-2.8-1.7-5.1-.3-5m-18.3-2.6c-.6-.8.1-2.4 1.7-3.6 1.6-1.2 3.5-1.6 4.1-.8.6.8-1.7.5-3.3 1.7-1.6 1.3-1.9 3.5-2.5 2.7m-10.2 11c-.6-1.3 1.1-3.1 3.7-4.1 2.7-1 5.3-.8 5.9.5.6 1.3-2.5 0-5.2 1-2.6.9-3.8 3.8-4.4 2.6m7.9 12c1.1 1.6-.1 4.6-2.8 6.9-2.7 2.2-5.8 2.7-6.9 1.2-1.1-1.6 2.9-.8 5.6-3 2.6-2.3 2.9-6.7 4.1-5.1M42.6 5.3c1.3 1.2.6 4.2-1.5 6.6-2.1 2.4-4.8 3.4-6.1 2.2-1.3-1.2 2.5-1.2 4.6-3.6 2.1-2.4 1.7-6.4 3-5.2m1.8 24.1c1 1.3 0 4-2.2 5.9-2.2 2-4.9 2.5-5.9 1.2s2.4-.8 4.7-2.8c2.2-1.9 2.4-5.6 3.4-4.3m-22.1-1.8c.2 1.4-1.7 2.9-4.2 3.4s-4.7-.2-4.9-1.6c-.2-1.4 2.1.5 4.6 0 2.6-.6 4.3-3.2 4.5-1.8m33.1-15c1.3.6 1.6 3 .7 5.4-.9 2.4-2.6 3.9-3.9 3.3-1.3-.6 1.5-1.6 2.4-4 .9-2.4-.5-5.3.8-4.7M38.2 23c.3 1.5-1.9 3.4-4.8 4.4-3 .9-5.6.5-5.9-1-.3-1.5 2.6.2 5.6-.8 2.9-.9 4.8-4.1 5.1-2.6" fill="#cc9a72"/></svg>