<svg xmlns="http://www.w3.org/2000/svg" viewBox="0 0 64 64"><path fill="#b2c1c0" d="M2 33.2C2 46.4 15.4 62 32 62s30-15.6 30-28.8H2"/><path fill="#e8e8e8" d="M62 33.2c0 8.5-13.4 15.4-30 15.4S2 41.7 2 33.2s13.4-15.4 30-15.4 30 6.9 30 15.4"/><path fill="#b2c1c0" d="M32 46.6c-15.2 0-28.1-6.2-28.1-13.5S16.8 19.6 32 19.6c15.2 0 28.1 6.2 28.1 13.5 0 7.4-12.9 13.5-28.1 13.5"/><path fill="#699635" d="M12.5 16.4c.1 1.7.9 7.4.2 10 4.4.8 1.1-7.7-.2-10"/><path fill="#83bf4f" d="M55.6 27.7c2-4.6-1.1-9.4-3.1-6.6-2 2.8-.5 4.6-5.6 3.6-1.1-1.9 1.6-7.7 0-8.8-2.6-1.7-2.6 4.7-5.6 1-3-3.6-3.1 4.9-7.6 4.9-2.2 0 .9-6.6-4.1-7.9-5-1.3-3.6 4.4-9.6 1.1-6-3.3-9.1 1.7-6.3 3.8 2.7 2.1.5 6.3.1 7.9-3.4-1.6-3.2 5.3-3.1 6.4-2.4.8-6.3 2.5-6.4 2.6 2.5 6 14.1 10.9 27.7 10.9 15.2 0 28.1-6.2 28.1-13.5 0-7.4-7.8 2.1-4.5-5.4"/><path fill="#699635" d="M38.3 36c2.5-5.3-3.6-3.1-5.9-.8-.1-3.8 1.9-6.2 3.6-8.8-2.8 2-5.8 4.3-9.1 5.5 1.9 2.2 2.9 5.2 3.3 8.1 8 .8 6.2 4.6 5.8 6.5 9.5-.7-.1-5.3 2.3-10.5"/><path d="M17.3 22.8c-1.6 1.6-2.1 3.6-1.1 4.6.9 1 2.9.5 4.5-1.1s2.1-3.6 1.1-4.6c-1-.9-3-.4-4.5 1.1m21.1 18.8c-1.6 1.6-2.1 3.6-1.1 4.6.9 1 2.9.5 4.5-1.1s2.1-3.6 1.1-4.6c-.9-1-2.9-.5-4.5 1.1" fill="#ed4c5c"/><path fill="#699635" d="M26.1 20c-3.9.2-5.7 10.3-8.5 9.7 2.3 2.2 3.5 5.5 3.5 8.7.6.1 1.5-1.6 2 .2-.7-5.5-.5-11.5 3-18.6"/><path fill="#ed4c5c" d="M42.4 23.3c1 2 .9 4.1-.3 4.7-1.2.6-2.9-.4-4-2.4-1-2-.9-4.1.3-4.7 1.2-.6 3 .4 4 2.4"/><path fill="#699635" d="M50.1 25c-8.5-1-9.8-1.2-2.7 5.9 1.9 2.4-5.3 7.5-7.9 8 3.3 6.3 3.9 6.9 8.5 5.3 6.4-2.2 3.2-9.7 6.2-8.1-1.6-2.4-10.6-3.5-4.1-11.1"/><path fill="#c7e755" d="M55.3 30.1c-.2-1.1 2.2-3.6 1.7-7.1-.5-3.2-4.2-5.1-5.3-1.4-1 3.4-4.2 2.6-4.2 2.6 2.1-8.2 1-12.2-3.6-7.3-2.4 2.5-.2-8.5-7.8 3.2-3.9 6-2.3-13.7-9.3-6.5-5.6 5.7-9.9-5.4-13.6 1.3-1.9 3.5 2.2 4 1.1 10.8 0 0-4.2-2.6-3.8 6 .1 1.5-7.4 1.8-5.7 4.3 1.7-.7 12.4-5.8 11.8-1.1-.2 1.4-1.1 5.9 1.4 5.7 2.7-.2 5.2-4.4 5.3.4.1 3.7 1.9 3.9 4.5 1.6.7-.6 1.2-1.6 2.2-2 1.8-.7 3.5.3 5.2.9 3.2 1.2 2.3-3.3.1-4.1-.4-.1-2.9-.5-2.7-.9.4-1.2 1.8-2 2.8-2.5.9-.4 1.9-.7 2.9-.7 1.4.1.9 1 .6 2.1-.3 1.3-.1 3 1.3 3.4 1.6.5 2.9-1 4-1.9.8-.7 6.1-4.1 4.3-.5-1.1 2.1-6.4 2.8-4 5.9 1.6 2 3.8 1.1 5-.8 1-1.5 1.4-3.3 1.8-5.1.3-1.4.4-2.2 1.8-1.5 1.9 1 4.3 3.2 4.4-.4.1-2.4 1-6.8 3.1-2.6-1.3-5.5-5.1-.3-5.3-1.8m-13 6.8c-.1.1-2.6 1.9-3 .2-.3-1.3 1-2.8.2-3.9-1.4-1.9-5.1-.1-6.5.9-.8.6-2.8 2.5-1.3 3.4 1.1.7 2.8.3 3.8 1.3.8.8 1 2.3-.4 1.7-1.8-.7-3.6-1.6-5.6-.8-1.1.4-3.8 4.4-5.1 3.6-.7-.4-.4-3.2-.5-4-.3-2.3-1.9-1.9-3.4-1-.6.4-2.4 1.7-3.1 1.2-.7-.5-.3-2.7-.2-3.4.5-4.3-2.3-4.7-5.9-3.7 0-1.3-.1-6.5 2.3-5.6 1.4.5 5 4.9 6.3 2.4 1.4-2.7 7.6-14.6 7.6-5.7 0 2.4-2.1 7.5-.4 8.7 1.5 1 5.3-3.2 6.3-3.8 2.5-1.7 5.3-3.3 6.6.5.9 2.5 1.1 5.8 4.2 6.5-.8.5-1.4 1-1.9 1.5m4.8-4.2c-.3 1.8-2.4 2.2-3.8 1.4-2.9-1.7-1.3-7.6-4.9-8.5-4.3-1.1-9.9 6.4-10.7 5.6-1-1.1 1.1-5.7.8-8.7-.9-7.7-6.9-.2-9.3 6-.5 1.2-4.2-2-4.2-2 1.9-8.2-2.6-8.1-1.2-10.7 2.9-5.8 7.2 5.4 13.1-.7 6.4-6.5 4 14.6 10 5.7 5.5-8.1 4.6-1.4 5.8-1.8 2.1-.7 5.7-7.6 3.8 5.1-11.9-2.2 1.2 5.1.6 8.6m8.8 3.1c-1.5-.3-3.1-2.9-4.9-2-1.5.7-1.6 4.7-2.2 6.1-.7 1.7-3 3.8-4.4 1.3-.3-.6 4-3.3 4.5-4.5 1-2.3-1.1-2.5-.9-4 .7-4.6-10.3-9.2-.4-7.5 5.6 1 4.3-5.9 6.9-4.4 5 3-3.7 10.5 1.9 10.6-.4 1.5-.2 3-.5 4.4"/><path fill="#ed4c5c" d="M8.6 34.6c1.6 1.5 2.1 3.6 1.1 4.6-.9 1-2.9.5-4.5-1.1s-2.1-3.6-1.1-4.6c1-.9 3-.4 4.5 1.1"/></svg>