<svg xmlns="http://www.w3.org/2000/svg" viewBox="0 0 64 64"><path fill="#c94747" d="M2 44.8c1.8 3.4 2.8 4.2 8.3 4.8 6.4.7 1.7 4.3 12.1 5.2 9.7-4 5.2-5.8 12.6-9.1 11.2-5 8.3-7.5 14.6-10.9 10.3-5.4 6.3-8.3 12.4-11.5-2-3.8-5-2.4-6.4-5.1-2.2-4.3-5.4-1.9-5.4-7.3-7.7 5-4.7 7.3-15.3 12.4-7.8 3.7-5 7.7-16.6 11.3C10.7 37 12 42.8 2 44.8"/><path fill="#ffa6af" d="M3.3 46.9c11.7-1.1 6.9-8.6 17.3-10.5 8.6-1.6 10-8.4 17.8-10.3 7.1-1.8 2.6-5.6 12.7-11.9 1.6 1.4 3.2 1.2 4.1 3.2-6.7 3.1-5.3 8.5-14.1 11.8-11.1 4.2-6.7 5.4-17.5 9.9-9 3.7-8.5 8.3-15.4 10.1-.1.1-3.5.1-4.9-2.3"/><path fill="#fed0ac" d="M13.7 50.8c9.4-1.7 7.7-8.2 13.3-9.3 10.3-2 10.3-7.1 17.1-10 8.9-3.8 8.5-8 13.4-11.6 0 0 2 .2 3.3 1.7-5.7 3.4-2.9 7.8-13.4 11.9-6.6 2.6-5.5 6.6-15.9 10.4-6.6 2.4-4.2 6.6-13.9 9.9-2.3-.4-3.9-3-3.9-3"/><path d="M56.1 23s-1.5 1.3-2.5 3.7c-1.1 2.4-5.2 2.4-8.5 6.2 0 0 2.6-1.8 5.8-2.6 5.9-1.7 3-4.3 5.2-7.3m-7.6-.6c-1.4 1.4-3.4 3.1-10.3 5.2-4.4 1.3-7.1 4.2-8.7 6.3-.7.8-2.4 2.5-5.5 3.7 0 0 4.5-1.1 7-4.1 3-3.6 4.6-4.2 10.4-6 5.4-1.6 7.1-5.1 7.1-5.1m-25.8 20c-4.5.9-5 4.9-10 6.6 0 0 3.6-.8 6.1-3.6 1.8-1.9 3.9-3 3.9-3" fill="#fff"/><path fill="#3e4347" d="M16 35.6s-.9.5-1.8 1.1c3.1 9 8.1 9 12.7 15.8 1.1-.7 1.5-1.2 1.5-1.2C31.7 43.2 16 35.6 16 35.6" opacity=".7"/><path fill="#c94747" d="M47.2 40c-11.9-8.1-7.3-11.7-14.7-18.6-10.2-9.5-5.9-11-12.8-19.4-2 6-4.7 2.2-8.7 6.3-2.5 2.5-5.4-.2-9 3.4 5.7 5.8.2 7.6 9.9 17.4 5.9 6 1.8 7.8 12.6 17.4 7.1 6.3 1.4 6.7 11 14.7 12 2.7 8.1-3 15.5-1.5 6.4 1.3 7.9.8 11.1-2.4-10.7-5.8-7.2-12-14.9-17.3"/><path fill="#ffa6af" d="M59.8 59.2C46.9 53.8 55 47.1 44 41.2c-9.1-4.9-8.3-13-16.3-17.9-7.4-4.6-.9-7.2-10.1-17.9-2.3 1-4 .3-5.7 2.2 6.5 5.9 3 11.4 11.7 18.4 11 8.7 5.7 8.5 16.2 17.4 8.8 7.4 6.6 12.4 13.7 16.9 0-.1 3.8 1 6.3-1.1"/><path fill="#fed0ac" d="M46.7 59.9c-10-5.3-5.7-12-11.7-15.2-10.9-6-9.1-11.7-15.7-17.4-8.6-7.5-6.7-12-11-17.8 0 0-2.4-.5-4.3.8 5.3 5.9.5 9.8 10.9 18.2 6.6 5.3 3.8 9.4 14.3 17.4 6.5 5 2.4 9 12.1 16.1 2.6.2 5.4-2.1 5.4-2.1"/><path d="M8.8 13.4s1.3 2 1.5 5c.3 3.1 5 4.6 7.4 10 0 0-2.3-2.9-5.6-5-6.1-3.9-1.9-5.8-3.3-10m8.8 2.1c1.1 2.1 2.7 4.7 9.8 9.5 4.5 3 6.5 7.2 7.6 10.2.4 1.2 1.8 3.7 4.9 6.2 0 0-4.7-2.9-6.5-7.1-2.1-5.1-3.7-6.4-9.6-10.5-5.6-3.8-6.2-8.3-6.2-8.3m21.9 31.7c4.7 2.6 3.9 7.3 8.9 11 0 0-3.8-2.2-5.6-6.2-1.4-2.8-3.3-4.8-3.3-4.8" fill="#fff"/></svg>