<svg xmlns="http://www.w3.org/2000/svg" viewBox="0 0 64 64"><path fill="#89664c" d="m52.2 7.9 2.5 2.6L60 7c2.2-.3 3.2-5-2.8-3.5-1.5.4-3.8 1.5-5 4.4"/><path fill="#594640" d="M61.1 7c1.8-.7.5-2.8.5-2.8s.4 1.5-2.4 1.9c-4.1.6-5.2 3.6-5.2 3.6l.7.7s2.4-1.8 6.4-3.4"/><path fill="#699635" d="M53.5 6c8.8 9.3 1.2 23.3-7.6 39.5-.7 1.4-1.5 2.7-2.2 4.1C37.5 61.1 28.4 62.3 23.5 62c-5.5-.4-11-3-14.7-6.9-3.8-4-6.3-9.8-6.7-15.7-.4-5.2.5-15.1 11.1-22 1.2-.8 2.5-1.6 3.7-2.4C31.8 5.2 44.7-3.3 53.5 6"/><g fill="#c7e755"><path d="M15 19.9C29.5 10.5 44.3-.5 52 7.7c7.7 8.1-7.5 18.6-16 34.5C27.5 58 17.1 60.7 10.2 53.5 3.4 46.2.4 29.4 15 19.9"/><path d="M11.8 51.8c1.6 1.6 3.3 2.5 5.3 2.6 5.5.4 11.6-4.8 16.7-14.2 2.9-5.5 6.6-10.3 9.9-14.6 5.2-6.7 10-13.1 6.9-16.4-5.3-5.6-19 3.4-30 10.7-1.2.8-2.5 1.6-3.7 2.4-9.1 5.9-9.9 14-9.6 18.3.3 4.4 2 8.6 4.5 11.2"/></g><path fill="#ffce31" d="M11.8 51.8c1.6 1.6 3.3 2.5 5.3 2.6 5.5.4 11.6-4.8 16.7-14.2 2.9-5.5 6.6-10.3 9.9-14.6 5.2-6.7 10-13.1 6.9-16.4-5.3-5.6-19 3.4-30 10.7-1.2.8-2.5 1.6-3.7 2.4-9.1 5.9-9.9 14-9.6 18.3.3 4.4 2 8.6 4.5 11.2" opacity=".33"/><path fill="#89664c" d="M17.2 27c6-6.6 14.8-6 16.6-2 1.8 4-.8 10-4.8 14.4-4.1 4.4-9.6 7.3-13.3 5.5-3.8-1.8-4.5-11.3 1.5-17.9"/><path fill="#d3976e" d="M16.5 33.6c2.6-3.8 5.3-4.8 4.8-3.9-.4.9-1.8 3.1-2.6 5.1-.9 2-1.4 3.7-2.4 4.3-1 .8-2.3-1.4.2-5.5"/><path fill="#594640" d="M26.4 36.7c-3.5 3.7-7.7 6.6-11.7 7.5.3.3.6.6 1 .7 3.8 1.9 9.2-1 13.3-5.5C33 35 35.6 29 33.8 25c-.2-.4-.4-.7-.7-1-.7 4.2-3.3 8.9-6.7 12.7"/></svg>