<svg xmlns="http://www.w3.org/2000/svg" viewBox="0 0 64 64"><g fill="#fed0ac"><path d="M2.3 42c2.2 4.6 7 9.6 16.5 11 9.4 1.4 19.8 4.5 27.6 2.3C54.2 53.2 61.2 49 62 45.1c.8-3.8-25.8-28.5-30.7-35.3-5-6.8-10.4 7.4-14.5 11.5-4.1 4-17 15.4-14.5 20.7"/><path d="M55.8 39.1c-1.9-2.2-5.8-8.3-7.7-9.4s-8.3-7.8-8.3-7.8c-4.6-6.2-7-8.1-9.4-10.7-2.2-2.4-2.4-1.8-3.9-.6-1.6 1.2-5.3 6.7-6.7 9.5-1.4 2.8-3.8 4.3-5.6 6-5.5 5-9.8 12-9.8 12s-3.6 5.7 1.7 1.8c5.3-3.8 17-22.7 19.4-22.7 3.1 0 6.1 6 8.6 10.3 2.6 4.3 6.5 6.2 9.5 10.7 3 4.4 6.2 14.1 8.9 13.1s7.5-4.2 8-6.2c.4-2.1-2.9-3.8-4.7-6"/></g><path fill="#fff" d="M55.8 39.1c-1.9-2.2-5.8-8.3-7.7-9.4s-8.3-7.8-8.3-7.8c-4.6-6.2-7-8.1-9.4-10.7-2.2-2.4-2.4-1.8-3.9-.6-1.6 1.2-5.3 6.7-6.7 9.5-1.4 2.8-3.8 4.3-5.6 6-5.5 5-9.8 12-9.8 12s-3.6 5.7 1.7 1.8c5.3-3.8 17-22.7 19.4-22.7 3.1 0 6.1 6 8.6 10.3 2.6 4.3 6.5 6.2 9.5 10.7 3 4.4 6.2 14.1 8.9 13.1s7.5-4.2 8-6.2c.4-2.1-2.9-3.8-4.7-6" opacity=".67"/><path fill="#d3976e" d="M13.7 27.8c-.9-.4-4.6-1.8-5.2-.9s.4 3.5-1.9 3.2c-2.2-.2-1.8 1.1-2.5 1.9s-1.1 2-.9 2.4 1.1 5.3 2.1 4.4c1-.9 9.7-10.5 8.4-11"/><path fill="#83bf4f" d="M12.8 28.8s-2.1-4.2-1.2-5.2 2.3.5 2.9-1.1-.2-4.2 1.9-3.8c2.1.5 2.1-2 3-2.1s4.3-.1 3.4.8c-.9.9-5 5.1-6.2 7.1s-3.1 5.8-3.8 4.3"/><path fill="#c94747" d="M38.2 26.2s5.1-5.6 10.1-1.6c4.7 3.8 3.7 9.6 1.4 14.3L38.2 26.2"/><path fill="#ed4c5c" d="M49.7 37.7c1.5-4.2 1.6-8.9-2.4-12.1-3-2.4-6-1.4-7.9-.2l10.3 12.3"/><path fill="#83bf4f" d="M35.3 20.2c1.9 0 4.2-4.8 4.6-1.9s3.4.9 3.6 2.9-.6 3.8.8 3.9c1.4.2 1.1-.7 1.1 6.8 0 0 .5 2.1-1.1 1.5s-12.5-13.2-9-13.2"/><g fill="#d3976e"><path d="M43.8 31c1.3-.2 2.9-1.9 4.3 0s.4 4.5 2.8 4.8 3 2.2 3 4 2 1.8 2.7 2.4-.8 3.1-1.3 3.8-1.2 2.2-2 1.1-1.9-6.6-5.6-9.2-7.1-6.3-3.9-6.9M27.3 14.1S31.4 10 34 9.5s1.8 1.8 2.3 2.8c.9 1.8.9 1.4 1.9 2.5s-.6 5.6-.7 7.5-.4 3.7-1.5 2.5c-1.1-1.2-1.9-5.7-4.2-6.7-2.3-.9-6.1-2.5-4.5-4M47.2 53c-.3.2-5.6-7-11.9-16-6.3-9-11.2-16.5-10.9-16.7.3-.2 5.6 6.9 11.9 16 6.2 9 11.1 16.5 10.9 16.7"/><path d="M9.9 48.8c.2.3 5.2-4.9 11.2-11.5 6-6.6 10.7-12.1 10.5-12.4-.2-.3-5.2 4.9-11.2 11.5C14.3 43 9.6 48.6 9.9 48.8m8.3-.8c.2.3 4-3.3 8.5-8.1s8-8.9 7.8-9.1c-.2-.3-4 3.3-8.5 8.1-4.4 4.7-8 8.8-7.8 9.1"/><path d="M41.5 54c-.3.2-3.7-4.2-7.6-9.8-3.9-5.6-6.9-10.4-6.6-10.6.3-.2 3.6 4.2 7.6 9.8 3.9 5.6 6.9 10.4 6.6 10.6"/><path d="M39.6 36c.2.2-2.4 3.6-5.9 7.5-3.5 3.9-6.5 6.9-6.7 6.7-.2-.2 2.4-3.6 5.9-7.5 3.4-3.9 6.4-6.9 6.7-6.7M26.5 52c-.3.2-2.9-3.1-5.9-7.5-3-4.3-5.2-8-5-8.2.3-.2 2.9 3.1 5.9 7.5 3.1 4.3 5.3 8 5 8.2M19 51c-.3.2-2.4-2.4-4.7-5.7-2.4-3.4-4-6.3-3.8-6.5.3-.2 2.4 2.4 4.7 5.7 2.4 3.4 4.1 6.3 3.8 6.5m6.3-27.7c.2.2-1.8 2.9-4.5 6s-5.1 5.3-5.3 5.1c-.2-.2 1.8-2.9 4.5-6 2.7-3 5.1-5.3 5.3-5.1m18.8 18c.2.2-1.8 2.9-4.5 6s-5.1 5.3-5.3 5.1c-.2-.2 1.8-2.9 4.5-6 2.6-3 5-5.3 5.3-5.1"/><path d="M34 53c-.3.2-4.2-4.9-8.7-11.5-4.6-6.6-8.1-12-7.8-12.2.3-.2 4.2 4.9 8.7 11.5 4.6 6.5 8.1 12 7.8 12.2"/></g><g fill="#89664c"><path d="M12 28.6c.7-.9-2.4.2-2.6 1.9-.2 1.6-3.1 3.5-3.4 4.6-.3 1-1.3 1.6-1.2 2.4.2.8 5.3-6.2 7.2-8.9m16.3-13.8c.2.9 2.2 1.6 3.7 2.2 1.5.6 3.2 4.3 3.8 5.8.6 1.5 1.2 1.5.8.5S35.2 17 32.7 16c-2.9-1.2-4.7-2.4-4.4-1.2m16.6 17.6c-.8-.8-1.4.1-.8.9.6.8 2.6 2.5 3.9 3.5s3.1 2 4.4 5.7 2.1 4.3 2.4 3.1-1.4-1.9-2.2-4.6-3.9-4.5-4.8-5.6-2.1-2.2-2.9-3"/><path d="M36.7 20.3c-.4-1.6-1.4-5.1-4.7-6s-1.7-1.6.2-1.3 4 2.3 4.8 5.6c.6 2.5 0 2.7-.3 1.7" opacity=".67"/><path d="M34.3 11.5c-1.1-.5-2.1-.2-1.6.6.6.8 2.7.2 4 3.1s.8-2.3-2.4-3.7"/></g></svg>