<svg xmlns="http://www.w3.org/2000/svg" viewBox="0 0 64 64"><path fill="#a1b8c7" d="M32 2c-9.9 0-18 3.8-18 8.4 0 0 0 28 7.7 43.7.7 4.5 5 7.9 10.3 7.9 5.2 0 9.5-3.4 10.3-7.9C50 38.4 50 10.4 50 10.4 50 5.8 41.9 2 32 2" opacity=".8"/><g fill="#555e63"><path d="M32 58.3c-4.3 0-8.1-1.7-10.3-4.2.7 4.5 5 7.9 10.3 7.9 5.2 0 9.5-3.4 10.3-7.9-2.2 2.5-6 4.2-10.3 4.2" opacity=".3"/><path d="M32 59c-3.4 0-6.4-.9-8.1-2.3.6 2.4 4 4.3 8.1 4.3s7.5-1.9 8.1-4.3C38.4 58.1 35.4 59 32 59" opacity=".3"/></g><path fill="#fff" d="M32 14.2c-8.6 0-15 2.9-15 7.2 0 0 .8 18.5 6.1 31 1.9 2.3 5.2 3.8 8.9 3.8s7-1.5 8.9-3.8c5.3-12.5 6.1-31 6.1-31 0-4.3-6.4-7.2-15-7.2"/><g fill="#f2ece3"><path d="M32 14.2c-9.2 0-15 3-15 7.3s6.3 8 15 8 15-3.7 15-8-5.8-7.3-15-7.3"/><path d="M37.8 30.1c-1.2 0-2.2-.6-2.3-1.4 0-.5.2-.9.7-1.3.4-.3 1-.5 1.6-.5h.3c1.2 0 2.2.6 2.3 1.4 0 .5-.2.9-.7 1.3-.4.3-1 .5-1.6.5-.1-.1-.2 0-.3 0"/><path d="M41.6 29.3c-.5 0-1-.2-1.2-.6-.2-.3-.2-.7 0-1.1.2-.3.5-.6.8-.8.3-.2.7-.2 1-.2.5 0 1 .2 1.2.6.4.6 0 1.5-.8 1.9-.4.1-.7.2-1 .2m-8.1 1.2c-.9 0-1.5-.5-1.6-1.1 0-.4.1-.7.5-1 .3-.2.7-.4 1.1-.4h.2c.9 0 1.5.5 1.6 1.1.1.7-.6 1.3-1.5 1.4h-.3m-3.3.3c-.4 0-.7-.1-.9-.4-.2-.2-.3-.6-.2-.9.1-.3.2-.6.5-.7.3-.2.6-.3.9-.3.4 0 .7.1.9.4.4.5.3 1.2-.3 1.6-.3.2-.6.3-.9.3"/></g><path fill="#fff" d="M44.7 25.6c-.3-.3-.9-.3-1.3 0-.2.2-.3.4-.4.6-.2-.1-.5-.2-.8-.2-.4 0-.9.1-1.3.3-.3.2-.5.4-.7.6-.5-.4-1.2-.7-2.1-.7h-.4c-.7.1-1.4.3-1.9.6-.4.3-.6.6-.7.9-.4-.3-.9-.4-1.4-.4h-.3c-.5.1-1 .3-1.4.6-.2.1-.3.3-.4.5-.3-.3-.7-.5-1.2-.5-.4 0-.9.1-1.2.4-.2.1-.3.3-.4.4 0-.1-.1-.1-.1-.2-.3-.3-.9-.3-1.3 0l-.2.2c0-.1-.1-.2-.1-.3-.3-.3-.8-.3-1.2 0-.4.3-.5.8-.2 1.1.3.3.8.3 1.2 0 .1 0 .1-.1.1-.1s.1.3.1.4c.3.3.9.3 1.3 0 0 .4.1.7.4 1 .3.4.8.6 1.3.6.4 0 .9-.1 1.2-.4.2-.1.4-.3.5-.5.4.4 1 .6 1.7.6h.3c.8-.1 1.5-.5 1.8-1.1.5.4 1.3.7 2.1.7h.4c.7-.1 1.4-.3 1.9-.6.2-.1.3-.3.4-.4.3.2.7.3 1.1.3.4 0 .9-.1 1.3-.3 1.1-.5 1.5-1.6 1.1-2.4.2 0 .4-.1.5-.2.5-.6.6-1.1.3-1.5m-14 4.5c-.2.1-.3.2-.5.2s-.3-.1-.5-.2c-.2-.2-.1-.6.2-.9.2-.1.3-.2.5-.2s.3.1.5.2c.2.3.1.7-.2.9m3-.1h-.2c-.5 0-1-.3-1-.6-.1-.4.4-.8 1-.9h.2c.5 0 1 .3 1 .6.1.4-.4.8-1 .9m4.4-.5h-.3c-.9 0-1.7-.4-1.7-1-.1-.6.7-1.2 1.8-1.3h.3c.9 0 1.7.4 1.7 1 0 .7-.8 1.2-1.8 1.3m4.2-.9c-.2.1-.5.2-.7.2-.3 0-.6-.1-.7-.3-.2-.4.1-.9.6-1.2.2-.1.5-.2.7-.2.3 0 .6.1.7.3.2.3-.1.9-.6 1.2"/><path fill="#555e63" d="M32 2c-9.9 0-18 3.8-18 8.4 0 4.6 8.1 8.4 18 8.4s18-3.8 18-8.4C50 5.8 41.9 2 32 2m0 14.6c-9.1 0-16.5-3-16.5-6.7S22.9 2.7 32 2.7s16.5 3.5 16.5 7.2-7.4 6.7-16.5 6.7" opacity=".3"/></svg>