<svg xmlns="http://www.w3.org/2000/svg" viewBox="0 0 64 64"><g fill="#b2c1c0"><path d="M2 45.6h60v2.7H2z"/><ellipse cx="32" cy="48.4" rx="30" ry="13.6"/></g><ellipse cx="32" cy="45.6" fill="#e8e8e8" rx="30" ry="13.6"/><ellipse cx="31.1" cy="42.9" fill="#fed0ac" rx="25.3" ry="12.3"/><path fill="#d3976e" d="M55.4 41.5c0 6-10.9 10.9-24.4 10.9-13.5 0-24.4-4.9-24.4-10.9S17.5 30.6 31 30.6c13.5 0 24.4 4.9 24.4 10.9"/><path fill="#594640" d="M59.2 37.5c0 6-10.9 12.3-24.4 12.3-17.8 0-24.4-6.2-24.4-12.3 0-6 10.9-9.5 24.4-9.5 13.5-.1 24.4 3.4 24.4 9.5" opacity=".5"/><ellipse cx="35.7" cy="36.1" fill="#fed0ac" rx="25.3" ry="12.3"/><path fill="#d3976e" d="M60.1 34.7c0 6-10.9 10.9-24.4 10.9-13.5 0-24.4-4.9-24.4-10.9s10.9-10.9 24.4-10.9c13.5 0 24.4 4.9 24.4 10.9"/><path fill="#594640" d="M55.4 30.6c0 6-10.1 12.3-22.5 12.3-16.4 0-26.2-6.2-26.2-12.3s13.8-9.5 26.2-9.5 22.5 3.5 22.5 9.5" opacity=".5"/><ellipse cx="30.1" cy="29.3" fill="#fed0ac" rx="25.3" ry="12.3"/><path fill="#d3976e" d="M54.5 27.9c0 6-10.9 10.9-24.4 10.9-13.5 0-24.4-4.9-24.4-10.9S16.7 17 30.1 17c13.5 0 24.4 4.9 24.4 10.9"/><path fill="#594640" d="M54 22.5c0 6-10.3 13.6-23 13.6-16.8 0-25.8-7.6-25.8-13.6S18.4 13 31 13s23 3.4 23 9.5" opacity=".5"/><ellipse cx="29.2" cy="21.1" fill="#fed0ac" rx="25.3" ry="12.3"/><path fill="#d3976e" d="M53.6 19.7c0 6-10.9 10.9-24.4 10.9-13.5 0-24.4-4.9-24.4-10.9S15.7 8.8 29.2 8.8c13.4 0 24.4 4.9 24.4 10.9"/><path fill="#594640" d="M56.4 17.2c0 5.3-10.1 10.7-22.5 10.7-16.4 0-26.2-5.5-26.2-10.7 0-5.3 13.8-8.4 26.2-8.4s22.5 3.1 22.5 8.4" opacity=".5"/><ellipse cx="32.9" cy="14.3" fill="#fed0ac" rx="25.3" ry="12.3"/><path fill="#d3976e" d="M57.3 12.9c0 6-10.9 10.9-24.4 10.9-13.5 0-24.4-4.9-24.4-10.9S19.5 2 32.9 2c13.5 0 24.4 4.9 24.4 10.9z"/><path fill="#c76a00" d="M35.5 2.5c-23.2 0-32 11.9-23.5 11.9 3.8 0-3.8 6.8.1 9.2 1.1.7 2.8-1.2 4.1-1.2 4.1 0-4.2 22.9 2.1 22.9 5.4 0-1-15.4 2.6-22.3.5-1 3.5-3.8 3.9-.4.8 6.6 5.2 5.5 9.2 1.4 5.6-5.7 4.5 1.5 8.5 1.5 2.6 0 3.4-3.3 5.7-3.3 4.9 0-3.3 16.9 2.4 16.9 4.7 0-.7-18.8 3.6-18.8 2.2 0-1.2-4 1.7-4 5.4.1.5-13.8-20.4-13.8" opacity=".8"/><path fill="#fff6d1" d="M11.8 11.7c-.9.5-.8 1.4 1.9 1.1 2.7-.4-.5 4.6-.6 7.7-.1 3.1 11.2-6.3 12.5-.6 1.3 5.7 2.8 8.4 7.8 2.9 3.9-4.3 5.3-1.6 8 .6s6.6-5.7 10.5-6.6c3.8-1 4.1-3.7 2.9-5.4-1.2-1.7-2.2-1.2-1.2 1.4.9 2.6-4.1 1.5-6.6 4.3-2.5 2.7-4.2 3.4-6.4 1.4s-6.3 0-8.9 3c-4.9 5.6-4-5.8-8-5.8s-8.6 3.9-7.9 1.8c.5-2 2.5-9.4-4-5.8" opacity=".5"/><path fill="#a13e14" d="M19.3 7.4c0 2.1 8.9-1.5 12.7-1.5 12.6 0 19.2 6.8 19.2 3.2 0-.7-8.2-4.9-16.3-5C27 4 19.3 5.9 19.3 7.4" opacity=".7"/><path d="M51.5 25.9s1.4 12.3-1 12.3c-1.3 0 1-12.3 1-12.3m-32.7 4.6s2.3 14.1-.1 14.1c-1.9-.1.1-14.1.1-14.1" opacity=".5" fill="#fff6d1"/><path fill="#fff" d="M25.9 6v2.9l4.5 4.7 10.5-4.4V5.8L36.7 4z"/><g fill="#dbb471"><path d="M30.4 9.3v4.3l10.5-4.4V5.8z" opacity=".5"/><path d="M30.4 9.3 25.9 6v2.9l4.5 4.7z" opacity=".25"/></g></svg>