<svg xmlns="http://www.w3.org/2000/svg" viewBox="0 0 64 64"><circle cx="32" cy="32" r="30" fill="#ffdd67"/><path fill="#664e27" d="M40.6 46.4c-5.4-2.5-11.8-2.5-17.2 0-1.3.6.3 4.2 1.7 3.5 3.6-1.7 8.9-2.3 13.9 0 1.3.6 3-2.8 1.6-3.5"/><path d="M54 31c0 5-4 9-9 9s-9-4-9-9 4-9 9-9 9 4 9 9M28 31c0 5-4 9-9 9s-9-4-9-9 4-9 9-9 9 4 9 9" fill="#fff"/><g transform="translate(0 -2.85)"><circle r="6" cy="31" cx="45" fill="#664e27"/><g fill="#fff"><ellipse ry="3.2" rx="2.8" cy="35.5" cx="46.6"/><ellipse ry="1.9" rx="1.6" cy="31" cx="42.8"/></g><circle r="6" cy="31" cx="19" fill="#664e27"/><g fill="#fff"><ellipse ry="3.2" rx="2.8" cy="35.5" cx="20.6"/><ellipse ry="1.9" rx="1.6" cy="31" cx="16.8"/></g></g><g fill="#917524"><path d="M38.936 11.15c2.953 2.968 7.132 4.538 11.385 4.107.607-.047.922 2.088.207 2.227-4.86.478-9.719-1.353-13.135-4.763-.554-.55 1.18-2.005 1.543-1.572M13.678 15.047c4.245.332 8.433-1.14 11.385-4.108.364-.433 2.097 1.021 1.543 1.572-3.407 3.51-8.274 5.241-13.135 4.763-.714-.138-.4-2.274.207-2.227"/></g></svg>