<svg xmlns="http://www.w3.org/2000/svg" viewBox="0 0 64 64"><circle r="30" cy="32" cx="32" fill="#ffdd67"/><g fill="#664e27"><path d="M44.6 40.3c-8.1 5.7-17.1 5.6-25.2 0-1-.7-1.8.5-1.2 1.6 2.5 4 7.4 7.7 13.8 7.7s11.3-3.6 13.8-7.7c.6-1.1-.2-2.3-1.2-1.6M28.5 26.9c-1.9-5.1-4.7-7.7-7.5-7.7s-5.6 2.6-7.5 7.7c-.2.5.8 1.4 1.3.9 1.8-1.9 4-2.7 6.2-2.7s4.4.8 6.2 2.7c.6.5 1.5-.4 1.3-.9M50.4 26.9c-1.9-5.1-4.7-7.7-7.5-7.7s-5.6 2.6-7.5 7.7c-.2.5.8 1.4 1.3.9 1.8-1.9 4-2.7 6.2-2.7s4.4.8 6.2 2.7c.5.5 1.5-.4 1.3-.9"/></g><g fill="#f46767"><path d="M63.047 52.46c-.256-1.996-1.56-3.722-3.798-4.29-2.238-.57-4.332-.03-6.44 1.46-.758-2.383-2.03-4.203-4.168-5.056-2.139-.852-4.233-.312-5.676 1.092-1.443 1.403-2.233 3.669-1.456 6.905.81 3.143 6.268 10.872 6.391 11.127.255-.123 9.37-2.874 11.926-4.736 2.688-2.24 3.478-4.506 3.221-6.502M57.323 1.654C55.751.398 53.613.065 51.61 1.213c-2.004 1.147-3.133 2.992-3.613 5.528-2.2-1.185-4.38-1.61-6.51-.734-2.13.875-3.259 2.72-3.32 4.731-.06 2.012.947 4.19 3.757 5.975 2.767 1.695 12.065 3.453 12.33 3.55.098-.265 4.734-8.581 5.276-11.697.374-3.478-.634-5.656-2.207-6.912M19.137 37.454c-1.59-1.234-3.732-1.539-5.72-.364-1.987 1.174-3.092 3.034-3.537 5.576-2.217-1.155-4.402-1.55-6.52-.646-2.117.904-3.221 2.764-3.255 4.777-.033 2.012 1.004 4.176 3.837 5.923 2.79 1.657 12.111 3.289 12.378 3.383.094-.267 4.617-8.645 5.117-11.767.326-3.484-.71-5.648-2.3-6.882"/></g></svg>