<svg xmlns="http://www.w3.org/2000/svg" viewBox="0 0 64 64"><path fill="#3e4347" d="M55.9 32.1 33.2 17.2S46.1-.2 52.6 2.3c3.1 1.1 5.4 25.1 3.3 29.8"/><path fill="#fff" d="m54.9 33.9-9-4.1s-5.3-14 6.1-24.1c2.4 2 5.1 25 2.9 28.2"/><path fill="#3e4347" d="m8.1 32.1 22.6-14.9S17.8-.2 11.3 2.3C8.3 3.4 6 27.4 8.1 32.1"/><path fill="#fff" d="m9.1 33.9 9-4.1s5.3-14-6.1-24.1c-2.4 2-5.1 25-2.9 28.2"/><path fill="#ff8736" d="M32 13C18.9 13 2 33.6 2 45.4 20.5 45.4 19.7 62 32 62s11.5-16.6 30-16.6C62 33.6 45.1 13 32 13z"/><path d="M32 56.2c0 5.1 9.6 4.2 9.5-2.9 6.7-9.4 19.9-8.7 19.9-8.7C39.6 32.4 32 56.2 32 56.2zm0 0c0 5.1-9.6 4.2-9.5-2.9-6.7-9.3-19.9-8.6-19.9-8.6C24.4 32.4 32 56.2 32 56.2z" fill="#fff"/><g fill="#ff8736"><path d="M53.4 18.5c-4 .7-4.9 6.3-4.9 6.3l6 5.3c-2.3-5.9-1.1-11.6-1.1-11.6"/><path d="M51.1 13.5c-4.4 3.9-5.1 8.7-5.1 8.7l6 5.3c-2.4-5.8-.9-14-.9-14m-40.5 5c4 .7 4.9 6.3 4.9 6.3l-6 5.3c2.3-5.9 1.1-11.6 1.1-11.6"/><path d="M12.9 13.5c4.4 3.9 5.1 8.7 5.1 8.7l-6 5.3c2.4-5.8.9-14 .9-14"/></g><path fill="#3e4347" d="M52.8 31.1c-5.7-1.8-10.9-3.4-13.8.9-2.4 3.7.7 9.4.7 9.4 11.2 1.2 13.1-10.3 13.1-10.3"/><ellipse cx="43" cy="36.3" fill="#d5ff83" rx="4.2" ry="4.1"/><g fill="#3e4347"><circle cx="43" cy="36.3" r="2.7"/><path d="M11.2 31.1c5.7-1.8 10.9-3.4 13.7.9 2.4 3.7-.7 9.4-.7 9.4-11.1 1.2-13-10.3-13-10.3"/></g><ellipse cx="21" cy="36.3" fill="#d5ff83" rx="4.2" ry="4.1"/><g fill="#3e4347"><circle cx="21" cy="36.3" r="2.7"/><path d="M41.2 47.9c-.7-2.3-1.8-4.4-3-6.5 1.1 2.1 2 4.3 2.5 6.6s.7 4.7 0 6.8c-.4 1-1 2-1.8 2.6-.8.6-1.8 1-2.7 1-.9 0-1.9-.3-2.5-1-.6-.7-.9-1.6-.8-2.6l-.9.2h-.9c0 1-.2 1.9-.8 2.6-.6.7-1.5 1-2.5 1-.9 0-1.9-.4-2.7-1-.8-.6-1.4-1.6-1.8-2.6-.8-2.1-.6-4.6 0-6.8.5-2.3 1.5-4.5 2.5-6.6-1.2 2-2.3 4.1-3 6.5-.7 2.3-1.1 4.8-.4 7.3.3 1.2 1 2.4 1.9 3.3.9.9 2.1 1.4 3.4 1.5 1.2.1 2.6-.2 3.7-1.2.3-.2.5-.5.7-.8.2.3.4.6.7.8 1 1 2.4 1.3 3.7 1.2 1.3-.1 2.4-.7 3.4-1.5.9-.9 1.6-2 1.9-3.3.5-2.6.1-5.2-.6-7.5"/><path d="M37.6 50.3c-1.1-1.1-4.5-1.2-5.6-1.2-1 0-4.5.1-5.6 1.2-.8.8-.2 2.8 1.9 4.5 1.3 1.1 2.6 1.4 3.6 1.4s2.3-.3 3.6-1.4c2.3-1.7 2.9-3.7 2.1-4.5"/></g></svg>