<svg xmlns="http://www.w3.org/2000/svg" viewBox="0 0 64 64"><path d="M21.9 21.9c-.6-1.6-1.1-3-1.4-4.2C30.6 12.3 27.4 7.3 25 11c-1.6 2.6-4 3.8-5 4.2-.4-3.3.3-5.5.6-7.9.6-3.9-3.1-5.8-3.6-4.3-.8 2.3 2.5.9 1.5 6.4-.8 4.2-.1 7.8.6 10-1.5-1.2-3.1-2.4-4.9-3.6-1.2-2.3-2.7-7 .7-12.2 1-1.6-.3-1.7-.8-1.6-1.7.5-4.2 6.6-2.8 11.9C4.3 8.9 6.8 2 5.1 2c-2.1 0-1 7.7 2 11.5 1 1.2 2.9 2.6 5.1 4-1.8.8-5.1 1.4-8.4-1.5-.4-.2-1.8-.9-1.8.9s5.9 6.6 12.5 2.3c2.8 1.9 5.6 4 6.8 6.2l5.8 5.2c-.6-3.2-2.5-6-5.2-8.7m20.2 0c.7-1.6 1.1-3 1.4-4.2C33.4 12.3 36.6 7.3 39 11c1.6 2.6 4 3.8 5 4.2.4-3.3-.3-5.5-.6-7.9-.6-3.9 3.1-5.8 3.6-4.3.8 2.3-2.5.9-1.5 6.4.8 4.2.1 7.8-.6 10 1.5-1.2 3.1-2.4 4.9-3.6 1.2-2.3 2.7-7-.7-12.2-1-1.6.3-1.7.8-1.6 1.7.5 4.2 6.6 2.8 11.9 7-5 4.5-11.9 6.2-11.9 2.1 0 1 7.7-2 11.5-1 1.2-2.9 2.6-5.1 4 1.8.8 5.1 1.4 8.4-1.5.4-.3 1.8-1.1 1.8.7s-5.9 6.6-12.5 2.3c-2.8 1.9-5.6 4-6.8 6.2l-5.8 5.2c.6-3 2.5-5.8 5.2-8.5" fill="#594640"/><path fill="#d3976e" d="M42.7 39.4c-2.5-4.5.5-7.3-1.4-8.6-3.2-2.2-6.4-2.3-9.3-2.3-2.9 0-6.1.1-9.3 2.3-1.9 1.2 1.1 4.1-1.4 8.6s-.2 8.4 2.8 11.1c3 2.6.2 8.4 4.4 10.6 1 .5 2.2 1 3.5 1 1.3 0 2.5-.5 3.5-1 4.2-2.2 1.4-7.9 4.4-10.6 3.1-2.7 5.4-6.6 2.8-11.1"/><path fill="#89664c" d="M41.7 35.9c.1 1 .3 2.2 1.1 3.5 2.5 4.5.2 8.4-2.8 11.1-1.3 1.1-1.5 2.7-1.7 4.4 0-2.4.2-6.7 1.9-11.1 1.4-3.9 1.5-5.8 1.5-7.9m-19.4 0c-.1 1-.3 2.2-1.1 3.5-2.5 4.5-.2 8.4 2.8 11.1 1.3 1.1 1.5 2.7 1.7 4.4 0-2.4-.2-6.7-1.9-11.1-1.4-3.9-1.5-5.8-1.5-7.9" opacity=".5"/><path fill="#d3976e" d="M27.5 35.7s0-15.3-14.5-15.3c-.1 0 0 15.3 14.5 15.3"/><path fill="#89664c" d="M15.4 22.6s5.5 0 9.6 7.6c0 0-3.3-1.8-2.8-1s2.9 2.6.4 1.7c-2.4-.9-.8.7 0 1.5.8.7-7.2-1.5-7.2-9.8"/><path fill="#d3976e" d="M36.5 35.7s0-15.3 14.5-15.3c.1 0 0 15.3-14.5 15.3"/><g fill="#89664c"><path d="M48.6 22.6s-5.5 0-9.6 7.6c0 0 3.3-1.8 2.8-1s-2.9 2.6-.4 1.7c2.4-.9.8.7 0 1.5-.8.7 7.2-1.5 7.2-9.8M35.7 59.2c.1.3-1.5 1.8-3.7 1.8-2.3 0-3.9-1.6-3.7-1.8.1-.3 1.7.6 3.7.6 2 .1 3.6-.9 3.7-.6"/><path d="M31.5 58.2h.9v1.9h-.9z"/></g><path fill="#594640" d="M32 53.9c-2 0-4.5.3-4.5 1.4s1.8 3.6 4.5 3.6 4.5-2.5 4.5-3.6-2.5-1.4-4.5-1.4"/><ellipse cx="32" cy="55.4" fill="#fff" rx="3.3" ry=".9"/><g fill="#3e4347"><ellipse cx="23.6" cy="42.3" rx="1.7" ry="2.4" transform="rotate(-10.003 23.562 42.312)"/><ellipse cx="40.4" cy="42.3" rx="2.4" ry="1.7" transform="rotate(-79.997 40.438 42.31)"/></g><g fill="#89664c"><path d="M23.6 37c-.1.2 1.8 1.5 2.5 4 .8 2.4-.1 4.6.1 4.7.2.2 1.5-2.1.7-4.9-.8-2.8-3.2-4-3.3-3.8m16.8 0c.1.2-1.8 1.5-2.5 4-.8 2.4.1 4.6-.1 4.7-.2.2-1.5-2.1-.7-4.9.8-2.8 3.2-4 3.3-3.8"/><path d="M28.3 28.7c-1.8 1.8-2.9 3.7-.6 8.3 2.6 5.2 1.7 14.7 4.3 14.7 2.7 0 1.8-9.5 4.3-14.7 2.3-4.6 1.2-6.5-.6-8.3-1.3-.2-2.5-.2-3.7-.2-1.2 0-2.4.1-3.7.2" opacity=".5"/></g></svg>