<svg xmlns="http://www.w3.org/2000/svg" viewBox="0 0 64 64"><path fill="#3e4347" d="M51.3 28.2s.4-1.4-.4-2.9c2.5-3.2 2.4-8.1.7-10.5 1.4-2 1.4-5.1-.4-6.6 0 0-.2-5.1-3.5-5.5L40 7.3s2 1.2 5.5-.3c.2 1.4.8 2.3 1.5 3.1-.8 1.5.1 3.2.1 3.2s-3 2.8-3.7 3.7c-2.1 2.6-2.3 5.9-2.3 5.9L23.6 34.2l-10.1.2 2.8 2.9s.8-.1 1.1-.1l9.3 7.1-4.1 3.4c1.6.9 17.7-3 17.7-3 .5-.4 2-1.7.4-4l.3-3.5 10.3-9"/><g fill="#6b6b6d"><path d="M46.6 6.3c-1.5.9 1.1 2.5 1.1 3.9 1.7 1.1 3.4-1 3.5-2 .3-1.6-.1-4.6-2.4-5.1.2.5-.1 2-2.2 3.2M32.9 42.5c-5 2-11.9 6.2-6.6 13.6 0 0 0 .1.1.1 0 0-1.6-2.7 1.3-5.8 1.3-1.4 2.4-2.6 2.4-2.6s2.2 1.5 1.6 4.2c-1 4.5-4.4 10-4.4 10s22-5.7 12.6-18c-2.4-2.9-6-1.8-7-1.5"/><path d="M60.4 40.5c.3-.4.5-1 .3-1.8-.6-2.4.8-4.8-.5-5.4.2-.8-3.3-4.6-5.4-4.8-1-1.4-2.9-.5-3.9-.5.3-3.4-3.7-5.5-3.7-5.5 1.7.3 2.5.9 3.3 2 2.4-3.8 1.8-9.6-.6-10.8 2.5-.1 2.7-2.9 1.5-4.7.1 2.6-1.6 3.7-3.1 2.5-1.4-1.1-2 .6-1.5 1.7-3.2 2-5.9 6.6-6.1 9.7-1.7.4-3.2 1-4.4 1.6-2.4-1.6-4.1-2-5.2-1.8-3.1-1.7-3.2 2.6-5.7 4.1-2.2-.5-2.5 3.6-3.9 5.2-1.1.1-2.4.7-2.9 1.6-5.5-2.1-7 1.2-7 1.2-15.9 3.4-7.2 17.4-7.2 17.4s1.3-4.6 4.5-7.9c2.6-2.7 5.3-2.5 5.3-2.5-2.4 6.1 1.9 3.1 2.4 1.3.9-3.2.3-6.4-2.3-8 1.6-.2 1.9 1.8 2.7 1.7.2-1.4 1.1-1.4 1.1-1.4-1.5 1.8-.4 4 .1 4.9-.9.7-1.7 2-.9 4.3 1.1 3.1 1.6 3.1 1.4 1.3-.1-1.8 0-1.9 3.8-1.4s.6 2.4 0 3.1c-.1.1 0 .2.1.2 5.4-1.7 5.4-4.7 3.5-6.5 1.5.2 2.1 2.4 1.9 3 1.5-1.1 4.1-2.2 5.6-2.7-.1-.7-.1-1.4.1-2.2.3.6 1 2.2 1.7 2.2 3.4-.1 3.7 1.7 4.3.9 1.1-1.3.2-2.6-1-3.9.9.6 1.5 1.3 1.9 2.1.7-.2 2.1-.2 2.9-.2-.2 1.5 2.6 3 4.3 3.8-1.1 1.3.8 4.3.4 5.8-.2.7.2 1 .6 1.1 0 1.2 5.5 1.3 1.6-.6.3-.4.5-1 .3-1.8-.5-2.3.7-4.3-.4-4.9.1-.3.2-1.5-1.3-2.1-2.3-1-2.9-3.3-4-3.1-1.2-1.8-4.3-.3-5.5-.8.9-2-1.1-4.3-3.9-5.5 3.3 1 4.9 2 5.1 4.8 1.8.3 3-.6 4-1.9 1.3.2 2.7-.6 3.8-.7.2 1.7 3 3.2 4.8 4-1.1 1.3.8 4.4.4 5.8-.2.7.2 1 .6 1.1-.1 1 6.1 1.1 1.6-.6.3-.4.5-1 .3-1.8-.6-2.4.8-4.5-.5-4.9.1-1.8-3.6-5.2-5.7-5.5-1-.9-2.9-.4-2.9-.4s1.1-.5 1.5-1.4c1.3.5 2.7-.4 4.3-.5.2 1.5 2.8 2.8 4.5 3.6-.8 1.5.9 4.6.5 6-.2.7.2 1 .7 1.1.2.9 6.2 1.6 1.8-.6M43.7 17c3.4-2.2 8.1 1.8 5.3.6-3-1.2-6.2 0-5.3-.6m-1.5 3.3c4.1-2.7 9.8 2.2 6.3.7s-7.3-.1-6.3-.7M34.3 26c-.6.6-1 1.3-1.1 1.9l-1.6.4c-1.4-.7-2.4-1.2-3.3-1.5 1.6-1 2.1-1.5 2.3-2 .7.1 2.9.6 3.7 1.2m-7.5 5.4c-.9.1-1.7.5-2.5.7.7-.8 2-2 2.7-2.9.4.2.9.5 1.3.8-.7.5-1.2.9-1.5 1.4m12.7 1.2c-4-2.3-9.1-2-7.7-2.3 5.6-1.4 11.7 4.5 7.7 2.3m4.1-3.8c-3.8-1.9-8.5-1.9-7.2-2.1 5.2-.9 11 4 7.2 2.1m2.6-2.9c-3.3-1.7-7.4-1.6-6.2-1.8 4.4-.8 9.4 3.5 6.2 1.8"/></g><ellipse cx="21.5" cy="35.7" fill="#fcfcfa" rx="3" ry="3.1"/><ellipse cx="21.5" cy="35.7" fill="#3e4347" rx="2.1" ry="2.2"/><ellipse cx="28.5" cy="36.8" fill="#fcfcfa" rx="3.4" ry="3.6"/><ellipse cx="28.5" cy="36.8" fill="#3e4347" rx="2.4" ry="2.5"/><path fill="#c94747" d="m39.4 11.6-5.9-.2c-1 4.2 5.6 3.4 5.6 5.2 0 .6-.9 1.3-.1 1 3-1 2.4-5.3.4-6"/><path fill="#6b6b6d" d="M39.8 5c-5 .8-7.1 6-5.7 7.3 1 1 2.6.8 4.9-1 1.4-1.1 2.8-2.9 3.3-4.4 2.8-.1 5.4-1.8 6-3.7-1.2-2.1-6.8-1.4-8.5 1.8"/><path d="M33.7 10.5c-1.1 2.5 2.8 3.9 5.5 1.4 2-1.8 3.8-4.1 3.1-6.5-3.9 7.5-8.4 6.8-8.6 5.1M28 59.6c-.8 1.2-.8 2.4-.8 2.4 2.1-2.1 3.3-2 3-4.1-.3-2.1.7-3 2.2-4.5 1.5-1.5-1.1-3.1-1.1-4.7s-1.6-3-1.9-1.2c-.3 1.7-1.2 1-2.9 3.7-1.5 2.4-.5 4.4-.2 4.9 0 0 0 .1.1.1 0 0-.5-1.3.4-1.8s-.5-1.4.3-1.8c.8-.4-.2-1.4 1.1-2.4 1.3-.9 1.5-1.8 1.5-1.8s1.6.9.4 2.2c-1.3 1.4-.1 1.4.9 1.7 1 .3-2.1.7-1 1.6 1.1.9-1.5.8-.8 1.9.6 1.2-1.4.6-.7 1.9.7 1.4.3.6-.5 1.9M5.8 50.2c.5-1.2-.3-.8 1.1-1.4 1.5-.6-.2-1.1 1.1-1.5 1.3-.5-.3-1.5 1-1.6 1.3-.1-.2-1.7.6-1.5.8.2 1.5.8 1.8-.6.3-1.3 2-1.3 2-1.3s-.6.7-.5 1.8c0 1.1-1.4 1.4-1.2 2 .2.6-1.3.6-1.2 1.3.2.7-1.2 1.3-1.2 1.3 4.9-.9 6.6-3.3 7.2-5.6-.9 1.8-3.1 2-2.1.4 1.1-2.1-1.2-4-2.5-2.4-1.3 1.7-3.1 1.6-4.3 4S5.2 45.5 5 48c-.2 2.6-.6 4.1-.6 4.1s.9-.8 1.4-1.9" fill="#3e4347"/></svg>