<svg xmlns="http://www.w3.org/2000/svg" viewBox="0 0 64 64"><path d="M50.1 3.8c-3.4-.02-7.7.72-11.4 3.18-.9-.23-1.8-.44-2.7-.59C23.1 4.13 3.5 7.83 1.3 14.4l27.1 11c-1.22 4.18-1.53 7.96-1.02 8.26.816.612 4.28-5.51 7.24-6.73a.92.92 0 0 0 .612-.612c3.06.816 13.8 3.88 14.4 9.59-1.33.918-2.65 2.96-2.35 3.47.204.306.813.306 1.53.408-1.03 2.7-2.66 5.25-4.24 7.04-3.16-1.63-11.1-3.85-14.9-3.96s-5.11.756-4.04 1.24c1.07.486 2.99 4.11 3.62 1.35 2.19 1.78 12 5.66 12.2 6.12.486.805.775 10.8 1.38 10.9 1.02.068 4.47-8.94 3.86-13.3 4.18-1.33 9.89-3.98 12.5-9.08.612.102 1.94.51 2.35.102.408-.306-.204-2.35-1.12-3.67.102-.816.204-1.63.204-2.55 0-9.1-5.1-17.2-12.3-22.3 3.9-4.89 7.7-5.6 7.9-6.36.1-.46-2.5-1.32-6.2-1.34z" fill="#b2c1c0"/><path fill="#879191" d="M42.4 8.43c2.03.875 3.96 2.02 5.91 3.12 0 0 .087-.093.387-.438-2.4-1.76-6.3-2.67-6.3-2.67z"/><ellipse rx="2.8" transform="matrix(.93 -.367 .495 .869 0 0)" ry="2.31" cy="18.1" cx="11.2" fill="#fff"/><circle transform="matrix(.424 -.906 .853 .521 0 0)" cy="22.7" cx=".291" fill="#3e4347" r="1.97"/><path opacity=".5" d="M35.8 14.1s1.27-.405 1.44-.962c.258-.607 1.05-1.74-.162-2.53 0 0 1.67.716 1.07 2.15-.512 1.39-1.34 1.32-2.35 1.35m1.58.594s1.27-.29 1.63-.889c.352-.542 1.23-1.66.206-2.5 0 0 1.58.766.793 2.13-.786 1.42-1.61 1.29-2.62 1.26m2.04.633s1.27-.348 1.53-.896c.26-.55 1.23-1.66.022-2.52 0 0 1.58.766.885 2.13-.604 1.38-1.43 1.31-2.44 1.27" fill="#3e4347"/><path fill="#879191" d="m49.9 20.2.83-1.56s.07 1.04-.207 1.66c-.276.622-.622-.104-.622-.104zM58.7 39.9s.189.316.406.341c.13.015.19-.221.19-.221z"/><path fill="#3e4347" d="m11.9 22.1 2.62.973 10.7-2.45-3.71-3.07s-7.26 1.03-9.64 4.55z"/><path d="m12.1 22.1 2.38.39-.189-2.39 2.38.928.384-2.35 1.83 1.38 1.01-1.85 1.17 1.66 2-1.5-4.36-.852-5.37 2.43z" fill="#fff"/><path d="M28.6 13.4c-5.2.4-6.1 2.1-11.9.8-7.78-1.9-15.3-.7-15.4.2-.355 2.6 8.19 7.1 10.8 7.7 4.25-4.67 11-4.06 11-2.4 0 1.66-3.48-1.81-8.58 3.29 7.24 2.47 13.1 1.96 19.8 3.41 6.58 1.46 14.4 6.14 14.6 9.52-.074 3.8-2.31 10.1-3.96 12.6-1.64 2.46-2.88 2.79-2.83 3.11.057.33 2.71-1.14 5.13-2.19 6.4-2.7 14.8-8.2 10.9-19.4-3.3-9.7-12.4-12-17.7-14-5.2-1.8-6.7-3-11.8-2.7z" fill="#e8e8e8"/><path fill="#3e4347" d="M5.79 15.5s1.2-.808 2.3-.074c.47.293-.044 1-.966 1.03-.848-.05-.562-.751-1.34-.956"/><path fill="#b2c1c0" d="M47.5 49c2.37-1.44 4.74-4.38 4.74-4.38s-.707 4.3-1.5 4.88c-.788.575-3.26-.496-3.26-.496zM41.8 14.4c.6 7.43 4.52 16 5.67 16.1 1.15.065.753-8.11 2.93-11.2 2.17-3.08-8.6-4.89-8.6-4.89z"/></svg>