<svg xmlns="http://www.w3.org/2000/svg" viewBox="0 0 64 64"><path fill="#8a8e91" d="M27.1 9.6c-7.8 1.9-9.5-3.3-9.5-3.3-.7 9.7 7.4 13.9 13 13.9l6.8-5.8c.1.1-2.4-6.6-10.3-4.8"/><path fill="#b2c1c0" d="M51.4 4.5c-9 2.4-18.1-.9-19.7 5.5-1.8 7.4-4.1 9.6-5.5 12.7C23 29.8 16 32.2 12.1 36.4 9.8 45 6.6 43.1 8.6 46.9c4.5 8.2-4 7.3 7.2 8.8 7.6 1 9.1 4.4 15.6.2 5.7-3.6 18.6-3.4 18.6-3.4l.5 9.6H62v-51l-2.9-7.4L55.3 6s-1-2.3-3.9-1.5"/><path fill="#8a8e91" d="M58.2 39.5c-7.8 15.2-16.1 10.8-24.7 15.3 0 0 13.3-3.6 13.3 7.2H52c-.1-11 6.2-22.5 6.2-22.5"/><path fill="#3e4347" d="M31.8 51.6c-4.4-4.6-5.6 3.8-5.6 3.8s1.1-2.1 2.5-1.8c1.5.3 4.3-.7 3.1-2"/><path d="M17.8 21.5c-.8 1.3 1.4 8.8 3.5 9.8s7.9-3 7.4-5.7c-.4-2.8-10.1-5.4-10.9-4.1M3.4 17.7c-3.7 2.2.5 20.7 7.3 25.8 1.8 1.4 7.1-.4 8.6-2.1 1.6-1.8 3-6 .4-9.4-2.4-3.1-6-1.9-7.3-3-4.6-3.8-8.2-11.8-9-11.3" fill="#e8e8e8"/><path fill="#3e4347" d="M45.3 30.2c0 1.7-1.6 3.1-3.6 3.1s-3.6-1.4-3.6-3.1 1.2-1.2 3.6-3.1c1.5-1.2 3.6 1.3 3.6 3.1"/><path d="M35.2 26.1s2.8.2 5-1.7c3.1-2.7 4.6-4.2 8.2-2.7 0 0-4.2-5-7.4-1.3-2.1 2.6-1.4 3.6-5.8 5.7m13.7 4.8s-6.8-1.4-9.4 5.6c0-.1 3.5-4.2 9.4-5.6" fill="#8a8e91"/><path fill="#3e4347" d="M49.7 26.1s-2.8-4-6.5-.6C37 30.9 35 30 35 30s3.7 2.9 7.4-.2c3.5-3.2 4.5-4.6 7.3-3.7"/><path fill="#8a8e91" d="M30.4 25.3s1 7-7.8 7.5c0 0 2.1 6.4-2.3 9.6 0 0 6.5-2.9 5-8.2 0 .1 9-1 5.1-8.9"/><path fill="#3e4347" d="M57.7 7.5s-1.9 6.4-7.4 7.7c-3.7.8-4.4 2.1-4.4 2.1s.4-4.6 5.7-5.8c3.9-.9 6.1-4 6.1-4"/><path d="M59.6 2s-3.5 3.2-7.7 4.5c-4.2 1.3-8.3 3.5-9 8.9 0 0 1.8-5.1 7.7-6.9 5.9-1.8 7.7-2.6 8.6-4.1 0 0 1.2 3.4-.1 7-1 2.1-2.3 4-4.6 4.7-5.1 1.5-5.5 3.5-5.5 3.5 3.4-1.7 4.7-.8 8.2-1.8C66.4 15 59.6 2 59.6 2M10.2 48s3.1-1.2 4.1-1.1c2.7.3 9.5 5 9.5 5s-6.6-2.7-8.9-3.2c-1.1-.3-4.7-.7-4.7-.7m16.7 1.8s3.4-.9 4.4-.5c.6.2 1.8 1.8 1.8 1.8s-.7-3.1-1.6-3.5c-1.2-.5-4.6 2.2-4.6 2.2" fill="#8a8e91"/><path fill="#3e4347" d="M49.3 41.8c-6.2 7-15.8 13-15.8 13S49 48.7 52.1 41.4c2.3-5.2.5-3.4-2.8.4"/><path fill="#8a8e91" d="M56 38.9s-1.3-2.3-2.1-2.6c-.9-.3-3.7.9-3.7.9s2.8-2.7 3.9-2.3c1.2.3 1.9 4 1.9 4"/></svg>