<svg xmlns="http://www.w3.org/2000/svg" viewBox="0 0 64 64"><path fill="#ff9c70" d="m2 2 4.4 5.9c.3-.6.7-1.2 1-1.9L2 2"/><path fill="#ffe76e" d="M9.1 11.5c.7-.9 1.4-1.8 2-2.7L7.5 6.1c-.3.6-.7 1.2-1 1.9l2.6 3.5"/><path fill="#d3ff75" d="m11.6 14.9 3.3-3.3-3.8-2.8c-.7.9-1.4 1.8-2 2.7l2.5 3.4"/><path fill="#59ffba" d="m14.1 18.2 4.8-3.6-3.9-2.9-3.3 3.3 2.4 3.2"/><path fill="#73deff" d="M16.4 21.3c2.2-1.2 4.4-2.5 6.5-3.7l-4.1-3.1-4.8 3.6 2.4 3.2"/><path fill="#8387f7" d="M23 17.6c-2.2 1.2-4.4 2.5-6.5 3.7l3.9 5.2 4.9-4.9 1.4-1.4-3.7-2.6"/><g fill="#ff639b"><path d="M32.3 17.8s4.2-7.1 22.2-8.8C36.2 7 31 13.6 31 13.6s.7 2.7 1.3 4.2"/><path d="M31.1 18.8s9-6.3 25.1-5.2l-14.7 7.1s8.4 1.2 19.8 1.9l-11.9 3.9s4.2 2.6 11.8 5.1l-8 1.2s6.3.4 8.7 6.2l-5.5-.4s2.5 5.9 5.5 9.3l-5.2-3s3 5.1 5.2 10.1l-5.4-1.6c2.5 5.9 4.8 8.4 4.8 8.4-13.5-4-30.2-43-30.2-43"/></g><path fill="#fca9c9" d="M29.4 20.4s11.9-5.4 28.7-1.6l-18.2 3.6s12.2.6 19.6 5.8H47.8s7.3 1.7 10.6 7.1l-6.9-.7S59 37.8 62 44.2l-7.3-3.8s5.8 3.1 5 13.4L55.5 45s1.6 10.7 4.8 13.2l-4.4-.1c2 2.2 3 3.9 3 3.9H48.1L29.4 20.4"/><path fill="#b2c1c0" d="M28.2 19s-.6-4.4 2.6-10.9c0 0 4.1 5.1 5.1 14.2L28.2 19"/><path fill="#eff6f7" d="M10.4 53.9c1.5 1 5-3 9-3.7 15-2.8 12.2-8.6 12.2-8.6 4.1 5.1-2.2 17.1-5.8 20.4h30.4C56 22 31.1 18.8 31.1 18.8c-.8-7.2-7-10.8-7-10.8-1.9 4.5-1 12.5-1 12.5C20 25.9 4.2 40.8 2.4 43c-1.8 2.2 3.8 8.8 3.8 8.8 1.5.2 3.4 1.5 4.2 2.1"/><path d="M15.1 52c.8-.6 2.7-1.8 5.6-2.4 2-.4 3.9-1 5.7-1.8 1.8-.8 3.4-1.9 4.4-3.6.9-1.6.9-3.7.2-5.5 1.1 1.6 1.5 3.9.5 5.9-.9 2-2.8 3.3-4.7 4.1-1.9.9-3.9 1.4-6 1.7-2.4.3-4.7 1.2-5.7 1.6m-8.9-6.2c-.5.4-1.8.6-2.2.1-.4-.5.3-1.6.8-1.9.5-.4 1.2-.3 1.6.2.4.6.3 1.3-.2 1.6m9.7-2.7c-.1 2.3-1.3 4.6-3.1 6.2-.9.8-2 1.5-3.1 1.9-1.1.4-2.4.6-3.6.6 2.3-.7 4.4-1.7 6-3.2.8-.7 1.5-1.6 2.2-2.5.6-.9 1.2-1.9 1.6-3" fill="#b2c1c0"/><path fill="#3e4347" d="M16.4 35.2s.9-.7 1.7-.5c0 0-1.1 1.1-.3 2.9 0 0 .9-2.1 2.5-2.2 0 0-1.1 1.5.3 2.9 0 0 .3-2.1 2.3-2.8 0 0-.3 1.1.7 2.5 0 0-.3-1.9 1.1-2.9 1.4-.9 3-1.5 3.7-3.8 0 0-3.4 3.5-8.1 2.5-1.1-.4-2.9-.7-3.9 1.4"/><path d="M25.4 21.6c-1.7-2.2-.6-8.4-.4-9.3.2-1 5.8 2.8 4.3 9.5-.1.6-.4 1.2-1 1.2s-.6-1.7-.3-2.8c.3-1.1-.4 0-.6.7-.3.8-.5.2-.4-.6.1-.8-.6.8-.4 1.7.1.9 0 1.1-1.2-.4M5 42.1c-.5.3-.4.5 0 .3.5-.2 2.7-.7 2.9 1.6 0 0 .1 1.1.4 0 .3-1-.3-3.7-3.3-1.9" fill="#b2c1c0"/><path d="M23 18s2.7 11 13.5 16.6c0 0-26.6-5.8-13.5-16.6m8.1.8s6.8 18 20.8 23C38.1 28.6 41.5 21.2 30.5 16c0 0 0 1.3.6 2.8" fill="#ff639b"/><path fill="#b2c1c0" d="M31.7 41.6S38 45.7 33.4 62h-7.5s9.3-11.2 5.8-20.4"/></svg>