<svg xmlns="http://www.w3.org/2000/svg" viewBox="0 0 64 64"><path fill="#d64553" d="M27.6 5.4c-.6.3-3.1 3.4-4.6 3.4s.4-2.7 2.4-4.8c2-2.1 2.8-2.9-1.3-1-2.3 1.1-3.8 2.2-4.7 3.3-.2-.7-.4-1-1.3.1-1.9 2.1-4 5.6-3.1 9.4.1.5.3 1 .5 1.3-.5 3.1.7 7.2 5.6 11.3h1.8s-5-4.1-4.1-9.6c2.2-.4 1.6-.9 4.3-4.4 1.2-1.5 1.3-2.6.9-3.5 3.8-3.1 4.1-5.7 3.6-5.5"/><path fill="#ed4c5c" d="M14.9 15.8C14 12 16.2 8.6 18 6.5c1.9-2.1.7 1.1 2.7 2.2s5 2.4 2.2 5.9c-2.7 3.5-2.2 4-4.3 4.4-1 .1-3-.2-3.7-3.2"/><path fill="#d64553" d="M36.4 5.4c.6.3 3.1 3.4 4.6 3.4s-.4-2.7-2.4-4.8c-2-2.1-2.8-2.9 1.3-1 2.3 1.1 3.8 2.2 4.7 3.3.2-.7.4-1 1.3.1 1.9 2.1 4 5.6 3.1 9.4-.1.5-.3 1-.5 1.3.5 3.1-.7 7.2-5.6 11.3h-1.8s5-4.1 4.1-9.6c-2.2-.4-1.6-.9-4.3-4.4-1.2-1.5-1.3-2.6-.9-3.5-3.8-3.1-4.1-5.7-3.6-5.5"/><path fill="#ed4c5c" d="M49.1 15.8C50 12 47.8 8.6 46 6.5c-1.9-2.1-.7 1.1-2.7 2.2s-5 2.4-2.2 5.9c2.7 3.5 2.2 4 4.3 4.4 1 .1 3-.2 3.7-3.2"/><g fill="#d64553"><path d="M24.5 23.1c-.6-1.9-1.6-1-1.3-.2.3.9 1.9 4.5.5 7.5l.6.4s1.6-3 .2-7.7M4.8 35.4c.1.1.3.1.4.1.5 0 1.8-1.3 3.5-2.4.5.2 1.9-.2 3.7-.3 1 .8 4.9 1.8 7.5 3.9 0 0 1.4-.3.7-2.3 0 0-5.2-4.9-6.8-4.4-.3.1-.6.2-.8.4-1.7-.3-3.7-.4-4.3.1-.3.3-.4.6-.5.8-1.5.5-3.8 1.5-4 2.3-.1.3-.1.6 0 .8-.8.9-1.8 2.6-2.2 5.7 0 0 .6-2.4 2.8-4.7m11.8 16.9c.4-.3 1.1-1.6 2-3.1 1.2-.3 4.4-2.8 7.6-3.5 0 0 .6-1.3-1.3-2 0 0-7 1-7.7 2.6-.1.3-.2.6-.2.9-1.3 1.2-2.7 2.7-2.6 3.5 0 .4.2.7.3.9-.5 1.5-1.2 3.9-.7 4.6l.6.6c.2 1.2.9 3.1 3 5.3 0 0-1.4-1.9-1.8-5.1.2-.1.3-.1.4-.3.4-.4.2-2.4.4-4.4"/><path d="M9.4 54.1c.2-.1.3-.1.4-.3.3-.4.1-2.3.3-4.3.4-.3 1.1-1.6 2-3.1 1.2-.3 4.4-2.8 7.6-3.5 0 0 .6-1.3-1.3-2 0 0-7 1-7.7 2.6-.1.3-.2.6-.2.9-1.3 1.2-2.7 2.7-2.6 3.5 0 .4.2.7.3.9-.5 1.5-1.2 3.9-.7 4.6.2.3.4.4.6.6.2 1.2.9 3.1 3 5.3.1-.1-1.3-2-1.7-5.2"/><path d="M11.6 39.2c1.2.4 5.2 0 8.3 1.1 0 0 1.2-.8-.1-2.4 0 0-6.5-2.9-7.9-1.9-.3.2-.5.4-.6.6-1.7.3-3.7.9-4 1.6-.2.3-.2.7-.2 1-1.2 1-3.1 2.7-3 3.5 0 .3.1.6.2.8-.4 1.1-.8 3.1-.2 6.1 0 0-.2-2.4 1.1-5.3h.5c.4-.1 1.3-1.9 2.5-3.5.6-.1 1.9-.9 3.4-1.6m27.9-16.1c.6-1.9 1.6-1 1.3-.2-.3.9-1.9 4.5-.5 7.5l-.6.4s-1.6-3-.2-7.7m4.6 13.6c2.6-2.1 6.4-3.1 7.5-3.9 1.7.2 3.2.5 3.7.3 1.7 1.1 3 2.4 3.5 2.4.1 0 .3-.1.4-.1C61.4 37.7 62 40 62 40c-.4-3-1.4-4.8-2.2-5.6v-.8c-.2-.8-2.5-1.8-4-2.3-.1-.3-.3-.6-.5-.8-.5-.6-2.6-.4-4.3-.1-.2-.2-.5-.3-.8-.4-1.6-.5-6.8 4.4-6.8 4.4-.7 1.9.7 2.3.7 2.3m5.4 14c.1-.8-1.3-2.3-2.6-3.5 0-.3-.1-.6-.2-.9-.6-1.6-7.7-2.6-7.7-2.6-2 .7-1.3 2-1.3 2 3.2.7 6.4 3.2 7.6 3.5.9 1.5 1.6 2.8 2 3.1.2 2 0 3.9.3 4.3.1.1.2.2.4.3-.4 3.2-1.8 5.1-1.8 5.1 2.1-2.2 2.8-4.1 3-5.3.2-.1.4-.3.6-.6.5-.7-.2-3.1-.7-4.6.2-.2.3-.5.4-.8"/><path d="M56 47.8c.1-.8-1.3-2.3-2.6-3.5 0-.3-.1-.6-.2-.9-.6-1.6-7.7-2.6-7.7-2.6-2 .7-1.3 2-1.3 2 3.2.7 6.4 3.2 7.6 3.5.9 1.5 1.6 2.8 2 3.1.2 2 0 3.9.3 4.3.1.1.2.2.4.3-.4 3.2-1.8 5.1-1.8 5.1 2.1-2.2 2.8-4.1 3-5.3.2-.1.4-.3.6-.6.5-.7-.2-3.1-.7-4.6.2-.1.3-.4.4-.8"/><path d="M59.8 42.7c.1-.8-1.8-2.5-3-3.5 0-.3-.1-.6-.2-1-.3-.7-2.3-1.3-4-1.6L52 36c-1.4-1-7.9 1.9-7.9 1.9-1.3 1.7-.1 2.4-.1 2.4 3.1-1.1 7.1-.7 8.3-1.1 1.5.8 2.8 1.5 3.3 1.6 1.2 1.6 2 3.3 2.5 3.5h.5c1.3 2.9 1.1 5.3 1.1 5.3.6-3 .2-5-.2-6.1.2-.3.3-.5.3-.8"/></g><g fill="#ed4c5c"><path d="M37.9 26.6c-.8 0-1.1-1.5-1.4-1.5-.3 0-.1.8-.6 1.2-.2.2-.7.1-.9-.2-.7-.7-.4-1.8-.7-1.8-.3 0 0 1-.7 1.6-.2.2-.6.2-.8 0-.7-.6-.4-1.6-.7-1.6s-.1 1-.7 1.6c-.2.2-.6.2-.8 0-.7-.6-.4-1.6-.7-1.6-.4 0 0 1-.7 1.8-.2.2-.6.3-.9.2-.6-.4-.4-1.2-.6-1.2-.3 0-.6 1.5-1.4 1.5-6.1 0-9.1 5.4-9.1 9.9 0 5.9 6.7 17.8 15 17.8s15-12 15-17.8c-.2-4.6-3.2-9.9-9.3-9.9"/><ellipse cx="40.4" cy="22.3" rx="3.9" ry="3.8"/></g><circle cx="40.4" cy="22.3" fill="#fcfcfa" r="3.4"/><path fill="#3e4347" d="M42.7 22.3c0 1.3-1 2.4-2.3 2.4-1.3 0-2.3-1.1-2.3-2.4 0-1.3 1-2.4 2.3-2.4 1.3 0 2.3 1.1 2.3 2.4"/><ellipse cx="23.6" cy="22.3" fill="#ed4c5c" rx="3.9" ry="3.8"/><circle cx="23.6" cy="22.3" fill="#fcfcfa" r="3.4"/><path fill="#3e4347" d="M25.9 22.3c0 1.3-1 2.4-2.3 2.4-1.3 0-2.3-1.1-2.3-2.4 0-1.3 1-2.4 2.3-2.4 1.3 0 2.3 1.1 2.3 2.4"/></svg>