<svg xmlns="http://www.w3.org/2000/svg" viewBox="0 0 64 64"><path d="M28.2 18.3c-5.6 2.5-8.3-6.3-8.3-6.3l-1.7.2c-4.3 3.4-6.5-2.5-6.5-2.5l-1.6.3c-2.8 5.2-6.3.2-6.3.2 1.7 10.2 11.4 20.3 11.4 20.3 1.7-3.9 7.3 0 11.8-2.6l1.2-9.6m7.6 0c5.6 2.5 8.3-6.3 8.3-6.3l1.7.2c4.3 3.4 6.5-2.5 6.5-2.5l1.7.4c2.8 5.2 6.3.2 6.3.2-1.7 10.2-11.4 20.3-11.4 20.3-1.7-3.9-7.3 0-11.8-2.6l-1.3-9.7" fill="#8a8e91"/><path fill="#3e4347" d="M60.3 10.2c-2.4 7.2-5.9 13.1-10.9 18.1-.5-.5-1.2-.6-2.2-.6 2.4-3.8 5.3-9.8 6.7-17.6.4-1.9-1.3-2.6-1.7-.4-1.2 6.9-3.5 12.8-7 18.1-.9.1-2 .1-3 .1 1.6-4 3.2-9.3 3.6-15.7.1-1.9-1.5-2.4-1.7-.2-.4 5.7-1.5 10.9-3.5 15.8-.7-.1-1.3-.2-2-.5 1-1.9 1.8-4.2 1.9-5.3 0 0-.2.4-.8.8.2-.7.3-2 .2-3.8 0 0-.2.4-.6.8.1-.7.1-1.7-.1-3l-.7 1.2c-.4-1.4-.9-2.8-1.4-4v2.9s-1.4-6.8-.5-12.4c.9.4 2.2-.2 2.2-1.6 0-1.4-2.9-.6-2.9-.6S35 5 34.6 9.7c-2.2-4.9-3-4.9-5.1 0-.3-4.7-1.3-7.4-1.3-7.4s-2.9-.8-2.9.6c0 1.5 1.3 2 2.2 1.6.9 5.6-.5 12.4-.5 12.4V14c-.5 1.2-1 2.6-1.4 4l-.6-1.1c-.2 1.3-.2 2.3-.1 3-.4-.5-.6-.8-.6-.8-.1 1.8 0 3 .2 3.8-.6-.4-.8-.8-.8-.8 0 1 .8 3.4 1.9 5.3-.6.2-1.3.4-2 .5-2-4.9-3.1-10.1-3.5-15.8-.2-2.2-1.8-1.8-1.7.2.4 6.4 2 11.7 3.6 15.7-1.1 0-2.1 0-3-.1-3.5-5.3-5.8-11.2-7-18.1-.4-2.2-2-1.5-1.7.4C11.7 18 14.7 24 17 27.8c-1 0-1.7.2-2.2.6-5-4.9-8.4-10.8-10.9-18.1-.9-2.2-2.4-1.2-1.8.6C5.5 21.2 11.5 27.6 14 30c0 .9.7 1.6 1.6 2.2 0 0-2.7-3.7 6.7-2.8 1.6.1 2.9-.1 4-.6 0 .1.1.1.1.2-1.1 1.8-.8 4.6.7 7.1-6.2 3.7-4.6 11.9-4.6 11.9 5.1-1 7.2-5.4 8.1-8.9 1 .3 1.6.3 2.7 0 .9 3.5 3 7.9 8.1 8.9 0 0 1.7-8.2-4.6-11.9 1.6-2.5 1.9-5.4.7-7.1 0-.1.1-.1.1-.2 1.1.5 2.4.8 4 .6 9.4-.9 6.7 2.8 6.7 2.8.9-.5 1.6-1.3 1.6-2.2 2.6-2.4 8.5-8.8 11.9-19.1.7-1.8-.8-2.8-1.5-.7"/><path d="M34.9 32.6s.8-1.1-.2-2.7c0 0 .3 1.6-.4 2.4l.6.3m-5.8 0s-.7-1.1.2-2.7c0 0-.3 1.6.4 2.4l-.6.3" fill="#fff"/><g fill="#b2c1c0"><path d="M29.5 32.6c.5-.4 1.5-1.1 2.5-1.1s2 .7 2.5 1.1c.9.7 2.3.1 1.3.1-1.7 0-1.7-2.3-3.9-2.3s-2.2 2.3-3.9 2.3c-.9 0 .6.6 1.5-.1"/><path d="M33 33.5c.2-.2-.1-.9-.3-1h-.3c-.2.2-.2.9 0 1 .1.1.5.1.6 0m-2 0c.1.1.5.1.6 0 .2-.2.2-.9 0-1h-.3c-.2.1-.5.8-.3 1"/></g><path d="M34.6 34.5c-.1 1.1-1.2 1.1-1.3 0-.3-.1-.5 0-.5.4 0 .7.5 1.2 1.1 1.2s1.1-.5 1.1-1.2c0-.5-.1-.5-.4-.4m-3.8 0c-.1 1.1-1.2 1.1-1.3 0-.3-.1-.5 0-.5.4 0 .7.5 1.2 1.1 1.2.6 0 1.1-.5 1.1-1.2 0-.5-.2-.5-.4-.4" fill="#fff"/><path d="M27.7 36.9c-4 3.6-3.6 8.3-3.6 8.3 3.4-1.8 4.7-5.1 5.1-6.8-.5-.4-1-.9-1.5-1.5m8.6 0c-.5.6-1 1.1-1.5 1.5.5 1.7 1.7 5 5.1 6.8 0 0 .4-4.7-3.6-8.3" fill="#ffc7ce"/><path fill="#8a8e91" d="M28.2 23c0 .7.3.9.3.9.3-1.1 1.6-2 1.6-2-.3.6 0 1.2 0 1.2.5-.7 1.8-1.6 1.8-1.6s1.3.9 1.8 1.6c0 0 .3-.6 0-1.2 0 0 1.3.9 1.6 2 0 0 .3-.3.3-.9l1.3 1.6c-.4-1.8-1.3-2.8-2.3-3.3 0 0 .3.8.4 1.2 0 0-1.1-1.3-2.4-1.8 0 0 .3.6.4 1.3l-1-1.3-1.2 1.3c.1-.6.4-1.3.4-1.3-1.3.5-2.4 1.8-2.4 1.8.1-.4.4-1.2.4-1.2-1 .5-1.9 1.5-2.3 3.3l1.3-1.6"/></svg>