<svg xmlns="http://www.w3.org/2000/svg" viewBox="0 0 64 64"><path fill="#8f6b51" d="M58 21.2c3.9-2.6 4-6.4 4-6.4-3.9-.2-3.8-4.2-7.4-7.8-4.8-4.8-10.9-1.8-10.9-1.8.3-1.5-.5-2.4.1-3.2C35.6 2 32 5.5 32 5.5S28.4 2 20.2 2c.5.8-.2 1.7.1 3.2 0 0-6.2-3.1-10.9 1.8-3.6 3.7-3.5 7.7-7.4 7.8 0 0 .1 3.8 4 6.4 0 0-4.1 3.9-3.4 12.1 0 0 1.6-2 5.5-2.7-4.5 3.8-1.9 9.4-5.2 13.2 0 0 4.6 1 6.5-.3-.7 5.9 2.9 8.2 2.9 11.1 4.1-1.3 4.7-5.4 4.7-5.4 0 7.5 2.6 7.2 2.6 11.2 0 0 4.5-.7 6.4-4.5.7 3.5 4.3 3.9 6.2 6.1 1.9-2.2 5.4-2.6 6.2-6.1 1.9 3.7 6.4 4.5 6.4 4.5 0-4 2.6-3.7 2.6-11.2 0 0 .6 4 4.7 5.4 0-2.9 3.6-5.2 2.9-11.1 1.9 1.3 6.5.3 6.5.3-3.3-3.9-.7-9.5-5.2-13.2 3.8.8 5.5 2.7 5.5 2.7.3-8.3-3.8-12.1-3.8-12.1"/><path fill="#e5bc5e" d="M55.7 7.1c-2.6-2.1-10.1.2-13 3.8 3.5 1.2 7.6 4.2 10.7 11.4 6.5-3.2 5-13 2.3-15.2"/><path fill="#3e4347" d="M52 19.5c3.8-1.6 3-7 1.5-8.2-1.3-1.1-5.1 0-6.7 1.8 1.8 1.4 3.6 3.5 5.2 6.4"/><path fill="#e5bc5e" d="M21.3 10.9C18.4 7.3 10.9 5 8.3 7.1c-2.7 2.2-4.3 12 2.3 15.2 3.2-7.1 7.2-10.2 10.7-11.4"/><path fill="#3e4347" d="M12 19.5c1.6-2.9 3.4-5 5.2-6.4-1.7-1.8-5.4-2.9-6.7-1.8-1.5 1.2-2.3 6.6 1.5 8.2"/><path fill="#e5bc5e" d="M48.9 28.7c.5-2.2-1.6-7.3-3.5-8.3-.3-.2-1.5 0-1.5 0-.4-.5-2.3-6-7.3-7-3-.5-4.6 2-4.6 2s-1.6-2.6-4.6-2c-5 .9-7 6.5-7.3 7 0 0-1.2-.2-1.5 0-1.9 1.1-3.9 6.1-3.5 8.3.6 2.7 5.3 5.4 5.3 10h23.4c-.1-4.6 4.6-7.3 5.1-10"/><path fill="#fff" d="M32 16.4 30.7 19l1.3 8.1 1.3-8.1z"/><path fill="#3e4347" d="M42.9 26c0 1.7-1.1 3-2.4 3-1.3 0-2.4-1.3-2.4-3s1.1-3 2.4-3c1.3 0 2.4 1.4 2.4 3m-21.8 0c0 1.7 1.1 3 2.4 3 1.3 0 2.4-1.3 2.4-3s-1.1-3-2.4-3c-1.3 0-2.4 1.4-2.4 3"/><path fill="#fff" d="M20.5 41.8c0 6.4 7.7 11.3 7.7 11.3-.1-1.3.3-2.3.3-2.3.3 1.9 1.2 3.3 1.2 3.3 0-1.6.8-2.3.8-2.3.8 2.2 1.6 3.1 1.6 3.1s.8-.9 1.6-3.1c0 0 .8.7.8 2.3 0 0 .9-1.4 1.2-3.3 0 0 .4 1.1.3 2.3 0 0 7.7-4.9 7.7-11.3H20.5"/><path fill="#ffda87" d="M43.3 36.5c-.3-.6-5.4-4.7-5.4-4.7H26.1s-5 4-5.4 4.7c-.5 1-.6 4.2-.2 5.2 0 0 4.9 7.4 11.5 1 6.6 6.4 11.5-1 11.5-1 .4-1 .3-4.2-.2-5.2"/><path fill="#3e4347" d="M33 42.7v-5.9l3.8-1.6c.6-.3 1.1-1 1.1-1.6v-1.7H26.1v1.7c0 .6.5 1.3 1.1 1.6l3.8 1.6v5.9c-5 4.6-9.9-.4-10.4-.9.6.9 5.4 8.9 11.5 2.6 6 6.3 10.9-1.8 11.5-2.6-.6.6-5.6 5.6-10.6.9"/><path fill="#ffda87" d="M37.9 31.9c-1.6-2.9-1.8-3.1-3.2-3.8-1.2-.5-4.1-.5-5.3 0-1.4.6-1.6.9-3.2 3.8h11.7"/><path fill="#af7751" d="M32 30.3c-3.8 0-5.9 1.6-5.9 1.6s.2-.1 2.3 1.4c1.3 1 2.4 3.6 3.6 3.6 1.2 0 2.3-2.6 3.6-3.6 2.1-1.6 2.3-1.4 2.3-1.4s-2.1-1.6-5.9-1.6"/></svg>