<svg xmlns="http://www.w3.org/2000/svg" viewBox="0 0 64 64"><g transform="matrix(-1 0 0 1 64 0)"><path fill="#594640" d="M52.4 41.1 14.9 20.8s-9.4 5.5-10 12.5c0 0 2.2-3.1 5.3-2.8C4 33.1 2.9 41.2 2.9 41.2 6.1 38.1 8.8 38 8.8 38 3.1 41.5 2 51.4 2 51.4 4.3 49.3 6.6 48 6.6 48c-4.8 7-1.7 14-1.7 14H62s1.2-15.5-9.6-20.9"/><path fill="#b2c1c0" d="M37.4 25.6S41.4 0 22.8 3c2.9.6 2.9 3.4 2.9 3.4s-7-2.9-13.3 3.8c4.3 1 4.5 4.7 4.5 4.7s-9.2-.6-10 11.9c3.7-2.4 6.5-1.2 6.5-1.2s-6.8 6.1-2 16.7c2.9-3 3.5-3.6 3.5-3.6s-1.5 5.9 3.5 13c6.1-1.2 7.7-3.9 7.7-3.9s.9 6.6 4.9 10.4c5.8-2.7 8.3-7.3 8.3-7.3s1.1 2.9 6.1 5.6c1.9-3.9.4-9.6.4-9.6s1.8 1.9 3.6 5.8l1-1.3-13-25.8"/><path fill="#e8e8e8" d="M53.1 24.4C57.9 11.9 38.7-1.9 22.8 3c4.3.3 5.1 2.3 5.1 2.3s-9.2-1.8-15.5 4.9c4.8.1 7.3 2.2 7.3 2.2S8.8 13 7.5 24.7c3.4-2.8 7.5-3.5 7.5-3.5s-8.8 8-4.1 18.7c2.9-3 6.7-5.5 6.7-5.5S14 41.6 19 48.7c5.1.5 7.9-6.2 7.9-6.2s.7 8.8 4.7 12.6c5.8-2.7 7.3-8.2 7.3-8.2s1.4 5.5 6.4 8.2c1.9-3.9.1-10.4.1-10.4s3.3 3 5 6.8c11-14.3-4.3-15.9-1.2-23.5.1 0 3.4-2.4 3.9-3.6"/><path fill="#3e4347" d="M41.6 15.6c-1.2-3.9-6.5-4.4-8.7-1.5-1.4.6-5.1-1.4-5.1-1.4 1.9 3.3 3.6 3.6 4.1 3.6 0 .3-.1.6-.1.9 0 5.9 7.9 6.6 9.7 1.9.4.1 3.3.8 5.1-2.5-2.9 1.5-4.6-.4-5-1"/><circle cx="36.9" cy="17.3" r="3" fill="#c7e755"/><circle cx="36.9" cy="17.3" r="1.5" fill="#3e4347"/><path fill="#f2b200" d="M59.4 35.1s-2.3-3.9-4.9-5.4c-7.8-4.5-16.3-2.4-17.7-5.5 8.6-2 26.2 1.7 22.6 10.9"/><path fill="#ffce31" d="M50.6 17.3c3.6-.8 9.7 4.6 11.1 9.6 1.5 5.2-2.8 9.6-2.8 9.6s4.9-12.3-22-12.3c7.8-1.6 12.9-.5 12.9-.5s-.8-6 .8-6.4"/><path fill="#3e4347" d="M52.3 22.2c-1 1.4-.3 1.9.7.5 1-1.5.3-1.9-.7-.5"/><path d="M48.7 39.8C47.4 36.4 43 35 43 35s.5 4.6-.6 7.4c-2.5-2.7-5.4-9.6-5.4-9.6s-.2 7.5-4.4 10.7c-2.9-4.7-3.8-12.2-3.8-12.2s-2.4 4.3-6.1 6.2c-1.2-2.9-1.1-6.4-.8-7.7-2.4 4.3.4 8.7.4 8.7s3.6-1.2 5.5-3.8c.4 6.7 4.1 11.1 4.1 11.1s5.3-2.5 6-7.1c1.2 3.9 4.8 7 4.8 7s2.8-3.4 1.8-8.6c2.4.7 4.4 4.1 4.4 4.1s1.8-2.9-.1-5.7c.3.9.6 3-.1 4.3M25.9 22.6c-.8 2.7-.7 5.1-.7 5.1s5.4.3 7.5-2.9c-2.3 1.9-6.5 1.9-6.5 1.9.6-3.6 2.2-7.3 2.2-7.3s-2.9 2.3-6.6 1.8c3.2-1.7 5-4.6 5-4.6s-3.1.6-4.9.1c.8.6 1.8.9 2.8 1-2.6 2.4-5.9 3.9-5.9 3.9s2.1 1.8 7.1 1M14.2 31c.1-1.2 1.2-2.6 1.9-3.1-3.2 1-3.1 4.8-3.1 4.8s2.2-1.5 4.3-2.1c-.3.6-.5 1.3-.5 2 .2-.9 1.8-2.9 1.8-2.9s-2.4-.1-4.4 1.3m11.5-20c-1.8-2-3.7-2.6-6.1-1.4 0 0 3-.2 6.1 1.4m1.8.3c-1-2.8-2.3-3.9-5.2-3.7.1 0 2.9.9 5.2 3.7m.7-1.1c.1-1.8-.6-3.2-2.5-3.5-.1 0 1.6 1.4 2.5 3.5m21.2 3.3c.9 2.4.3 3.5.3 3.5s-.1-4.4-4.6-5.9c2.5 2.4 4.2 5.9 4.4 8.5 1.2-.7 2.2-3.8-.1-6.1" fill="#fff"/></g></svg>