<svg xmlns="http://www.w3.org/2000/svg" viewBox="0 0 64 64"><path fill="#e84d88" d="M33.6 40.8s1.5-4.2 14.2 3.1c12.7 7.3 4 9.2.9 14-3.2 5-16.7 9.2-16.7-11.7v-5.5h1.6z"/><path d="M56.6 10.3c9.5 0 4.3 10.8 1 18-3.4 7.2 1.6 12.8-1.5 15.5-4.4 3.9-15-6.2-22.2-3.6V23.9s9.8-13.6 22.7-13.6m-49.2 0c-9.5 0-4.3 10.8-1 18 3.4 7.2-1.6 12.8 1.5 15.5 4.4 3.9 15-6.2 22.2-3.6V23.9S20.3 10.3 7.4 10.3" fill="#9450e0"/><path fill="#e84d88" d="M30.4 40.8s-1.5-4.2-14.2 3.1c-12.7 7.3-4 9.2-.9 14 3.2 5 16.7 9.2 16.7-11.7v-5.5h-1.6z"/><g fill="#ffce31"><path d="M32 27.5S21.4 13.7 13.8 13.7c-7.4 0 5.2 6 1.7 9.4-3.9 3.8-.5 5.5 1.7 7.7 2.8 2.7-10.3 12.7 8.5 7 4.3-1.3 3.7.6 6.3.6V27.5"/><path d="M32 27.5s10.6-13.8 18.2-13.8c7.4 0-5.2 6-1.7 9.4 3.9 3.8.5 5.5-1.7 7.7-2.8 2.7 10.3 12.7-8.5 7-4.3-1.3-3.7.6-6.3.6V27.5"/></g><path fill="#6adbc6" d="M8.9 15.9c0 .7-.7 1.2-1.4 1.2-.8 0-1.3-.6-1.3-1.3 0-.7.7-1.2 1.4-1.2.8 0 1.4.6 1.3 1.3"/><path fill="#ffce31" d="M13 20.7c-.1 1-1 1.8-2.1 1.7-1.1-.1-1.9-.9-1.9-1.9.1-1 1-1.8 2.1-1.7 1.1.1 2 .9 1.9 1.9"/><path fill="#6adbc6" d="M11.6 26.1c0 .6-.6 1.1-1.3 1.1-.7 0-1.2-.6-1.2-1.2s.6-1.1 1.3-1.1c.7 0 1.3.6 1.2 1.2"/><path fill="#ffce31" d="M14.7 31.3c0 1.2-.9 2.1-2.2 2.2-1.3 0-2.3-.9-2.4-2 0-1.2.9-2.1 2.2-2.2 1.3 0 2.3.9 2.4 2"/><path d="M13.4 37.4c0 .7-.6 1.3-1.3 1.3-.8 0-1.4-.5-1.4-1.2s.6-1.3 1.3-1.3c.7 0 1.4.5 1.4 1.2m41.7-21.5c0 .7.7 1.2 1.4 1.2.8 0 1.3-.6 1.3-1.3 0-.7-.7-1.2-1.4-1.2-.8 0-1.4.6-1.3 1.3" fill="#6adbc6"/><path fill="#ffce31" d="M51 20.7c.1 1 1 1.8 2.1 1.7 1.1-.1 1.9-.9 1.9-1.9-.1-1-1-1.8-2.1-1.7-1.1.1-2 .9-1.9 1.9"/><path fill="#6adbc6" d="M52.4 26.1c0 .6.6 1.1 1.3 1.1.7 0 1.2-.6 1.2-1.2s-.6-1.1-1.3-1.1c-.7 0-1.3.6-1.2 1.2"/><path fill="#ffce31" d="M49.3 31.3c0 1.2.9 2.1 2.2 2.2 1.3 0 2.3-.9 2.4-2 0-1.2-.9-2.1-2.2-2.2-1.3 0-2.3.9-2.4 2"/><path fill="#6adbc6" d="M50.6 37.4c0 .7.6 1.3 1.3 1.3.8 0 1.4-.5 1.4-1.2s-.6-1.3-1.3-1.3c-.7 0-1.4.5-1.4 1.2"/><g fill="#e84d88"><path d="M32.6 29.1s-7.4-7.4-14.9-7.4c0 0 8 .7 14.9 9.1v-1.7m.4 3.1s-9.8-.7-15.7 4.5c0 0 6.8-5.1 16.6-3.2l-.9-1.3"/><path d="M33.1 30.6S24 26.3 17 28.9c0 0 7.8-2.2 16.6 3.2l-.5-1.5"/><path d="M31.4 29.1s7.4-7.4 14.9-7.4c0 0-8 .7-14.9 9.1v-1.7m-.4 3.1s9.8-.7 15.7 4.5c0 0-6.8-5.1-16.6-3.2l.9-1.3"/><path d="M30.9 30.6S40 26.3 47 28.9c0 0-7.8-2.2-16.6 3.2l.5-1.5"/></g><g fill="#ffce31"><path d="M30.4 39.6s-14.5 3.7-14.5 8.6c0 4.6 4 3.2 5 6.3.9 3.1 11.1 7.4 11.1-13.7l-1.6-1.2"/><ellipse cx="13.4" cy="50.8" rx="1.1" ry=".9"/></g><ellipse cx="17.3" cy="55.1" fill="#6adbc6" rx="2.2" ry="1.9"/><g fill="#ffce31"><ellipse cx="21.7" cy="59.1" rx="1.4" ry="1.2"/><path d="M33.6 39.6s14.5 3.7 14.5 8.6c0 4.6-4 3.2-5 6.3-.9 3.1-11.1 7.4-11.1-13.7l1.6-1.2"/><ellipse cx="50.6" cy="50.8" rx="1.1" ry=".9"/></g><ellipse cx="46.7" cy="55.1" fill="#6adbc6" rx="2.2" ry="1.9"/><ellipse cx="42.3" cy="59.1" fill="#ffce31" rx="1.4" ry="1.2"/><g fill="#e84d88"><path d="M33.4 41.3c-4.1 1.1-10.9 3.5-15 7.6 0 0 5.3-4.7 15-6.8v-.8m0 2.5C30 46 25.9 49.4 24 53.4c0 0 2.7-4.6 9.4-8.8v-.8"/><path d="M30.6 41.3c4.1 1.1 10.9 3.5 15 7.6 0 0-5.3-4.7-15-6.8v-.8m0 2.5c3.4 2.2 7.5 5.6 9.4 9.6 0 0-2.7-4.6-9.4-8.8v-.8"/></g><g fill="#594640"><path d="M35.8 36.1c0 7.1-1.7 12.9-3.8 12.9s-3.8-5.8-3.8-12.9c0-7.1 0-12.9 3.8-12.9s3.8 5.8 3.8 12.9"/><path d="M35.8 23.7c0 2.3-1.7.6-3.8.6s-3.8 1.7-3.8-.6 1.7-4 3.8-4 3.8 1.7 3.8 4"/><path d="M31.9 21c-.5-1-1-2.3-1.5-3.8-.1-.4-.2-.7-.3-1.1-.1-.4-.1-.8-.2-1.2 0-.4-.1-.8 0-1.2 0-.4.1-.9.1-1.3.3-1.9.7-3.9.6-6-.1-1.1-.3-2.3-1.2-3.1-.4-.4-.9-.7-1.5-.9-.5-.3-1.1-.4-1.6-.4-1.1 0-2.1.1-3 .5-.9.4-1.8 1.1-2.1 1.9-.9 1.8-.3 3.6.6 4.6.5.5 1.1.8 1.7.8.6 0 1-.1 1.4-.3.4-.2.6-.4.7-.5l.2-.2s-.1.1-.3.2-.4.3-.8.4c-.3.2-.8.3-1.3.2-.4 0-1-.2-1.4-.7-.8-1-1.2-2.7-.4-4.2.4-.7 1.1-1.2 1.9-1.6.8-.3 1.8-.4 2.7-.3.9.1 1.9.4 2.4 1.1.6.6.8 1.5.8 2.5 0 1.9-.5 3.9-.9 5.7-.1.5-.2 1-.2 1.5-.1.5 0 1 0 1.5s.1.9.2 1.4c.1.4.2.9.3 1.3.4 1.6 1 3 1.4 4 .3.7.9 1 1.4.8.4-.2.5-.9.3-1.6"/><path d="M32.1 21c.5-1 1-2.3 1.5-3.8.1-.4.2-.7.3-1.1.1-.4.1-.8.2-1.2 0-.4.1-.8 0-1.2 0-.4-.1-.9-.1-1.3-.3-1.9-.7-3.9-.6-6 .1-1.1.3-2.3 1.2-3.1.4-.4.9-.7 1.5-.9.5-.3 1.1-.4 1.6-.4 1.1 0 2.1.1 3 .5.9.4 1.8 1.1 2.1 1.9.9 1.8.3 3.6-.6 4.6-.5.5-1.1.8-1.7.8-.6 0-1-.1-1.4-.3-.4-.2-.6-.4-.7-.5l-.2-.2s.1.1.3.2.4.3.8.4c.3.2.8.3 1.3.2.4 0 1-.2 1.4-.7.8-1 1.2-2.7.4-4.2-.4-.7-1.1-1.2-1.9-1.6-.8-.3-1.8-.4-2.7-.3-.9.1-1.9.4-2.4 1.1-.6.6-.8 1.5-.8 2.5 0 1.9.5 3.9.8 5.7.1.5.2 1 .2 1.5.1.5 0 1 0 1.5s-.1.9-.2 1.4c-.1.4-.2.9-.3 1.3-.4 1.6-1 3-1.4 4-.3.7-.9 1-1.4.8-.3-.2-.4-.9-.2-1.6"/></g></svg>