<svg xmlns="http://www.w3.org/2000/svg" viewBox="0 0 64 64"><path fill="#ffce31" d="M2.1 31.4s.1-3.2 0-4.6c-.1-1.3.7-.9 1.6-1.6.9-.7 1.9-2.2 2.5-1.6.5.6 1.8 1.3 2.5-1s1.3-1.6 1.8-2c.5-.4 1.8.4 2.4-.6s.1-1.3 1.5-2.2c1.4-.9 2.4-2 3.6-2 1.2 0 3.7-1 4.3-2.8.6-1.8 1.4-1.7 2.1-2.1.7-.4 1.2-1.3 3.3-1.3 2.1 0 15.7-1.9 31.3 6.4 0 0 1.9 1 2.5 1.4.5.4.6.2.7 4.3.1 4.2-.3 18.2-.3 21.7 0 2.4-.4 2.1-1.4 2.2 0 0-14 2.1-16.1 2.4-2.1.3-2.3.2-3-.3-.6-.5-2.5-.5-3.4.5-.9 1-.3 1-2 1.1-1.7.2-10 1.4-11.7 1.7-1.8.3-2.5-1.2-4.4-1.2-2 .1-3.1 2.2-3.8 2.3-.7.2-11.2 1.7-12.1 1.8-1.1.4-1.9 1.1-1.9.1s-.2-3.2.3-3.4c.5-.2 1-.8 1-1.7 0-1.6-1-1.4-1-4.6 0-3.2-.1-6.4.2-6.7 0 0 1.3-.8 1.3-2.7-.2-2.4-1.8-2.1-1.8-3.5"/><path fill="#ffec40" d="M2.1 27.5c-.3-2.1.6-1.5 1.5-2.3.9-.7 1.9-2.2 2.5-1.6.5.6 1.8 1.3 2.5-1s1.3-1.6 1.8-2c.5-.4 1.8.4 2.4-.6s.1-1.3 1.5-2.2 2.4-2 3.6-2c1.2 0 3.7-1 4.3-2.8.6-1.8 1.4-1.7 2.1-2.1.7-.4 1.2-1.3 3.3-1.3 2.1 0 15.7-1.9 31.3 6.4 0 0 1.9 1 2.5 1.4.1 0 .9 1-.5 1.3-3.9.9-12.4 2.4-21.9 3.9-.3.1-1.4-1-1.7-1-.5.1-.2 1.3-.6 1.4-16.4 2.6-34.5 5.2-34.6 4.5"/><path d="M3.6 27.5c.9-.1 6.5-1 6.9-1 1-.1.5-.7 1.4-1.2.8-.5 2.4.5 3 .4.6-.1 15.6-2.3 17.2-2.5 1.6-.2 2.5-.4 2.2-.8s-1-1.6 1.6-1.6 2.6.8 2.8 1c.2.3.4.3 1.1.1.8-.1 5-.6 5-.9 0-.3.4-.8 1.7-.6 1.3.2 1 .5.6 1s-.6.9-.2 1.5c.4.6-1.8-.3-2-1-.2-.8-4.8.6-5.8.6s-1.2-.4-1.5-.7-.7 1.2.3 1.5c1 .4-.9 1.4-1.8 1.1-.9-.3-.9-1.4-1.9-1.2-1 .2-18.1 3.1-18.9 3.1-.8 0-1.8-.2-2.4.4-.6.6-3.5.5-5.2.6-1.8.5-7 .7-4.1.2m57.7-10c-.5-.4-2.5-1.4-2.5-1.4-6.6-3.5-12.9-5.2-18.1-6 .5.1 11.4 3.1 15.7 5.7 3 1.8 3.1 2 2.7 2.6-.4.5-1.3.5-8.7 2-1.4.3-2.4.4-2.3.7 0 .3 2.1-.2 4.3-.4s8.4-1.5 8.9-.9c.2.3.5 2.5.6 4.1v-2.1c0-4.2-.1-3.9-.6-4.3M19.7 50.1c2-.1 2.7 1.4 4.4 1.2h.1c-.4-.1-.8-.4-1.4-.9-2-1.7-4.2-1.7-5-.3-.8 1.4-1.1 1.8-1.9 2.4.7-.3 1.8-2.4 3.8-2.4m20-3.5c-2.4.4-2.7 2.7-2.7 2.7.3-.1.3-.4.9-1 .9-1 2.8-1 3.4-.5.3.3.5.4 1 .5-1.2-.2-.5-2.2-2.6-1.7" fill="#d68f00"/><path d="M42.7 48.4h.3c-.1-.1-.2 0-.3 0m-.1 0" fill="#f2b200"/><path d="M3.9 49.3c.1-2-1.5-3.6-1.5-3.6.3 1.7.9 1.8.9 3.1 0 .8-.5 1.4-1 1.7-.1 0-.1.1-.2.3.5-.3 1.8.2 1.8-1.5m0-16.7c-.8-.1-1.3-.2-1.6-.4.5.6 1.4.9 1.4 2.6 0 1.9-1.3 2.7-1.3 2.7 0 .1-.1.2-.1.4.4-.8 1.2-.8 2.1-1.6 1.3-1.1 1.4-3.5-.5-3.7m18.9-20.8c-.2.3-.5.6-.7 1.3-.6 1.8-3.1 2.8-4.3 2.8-.2 0-.4 0-.6.1 1.2.3 2.5 1 5.2-1.6 1.3-1.3-.7-1.2.4-2.6" fill="#d68f00"/><path fill="#ffec40" d="M9 46c.1.2.2.5.3.7.9 2.2 5.9 3.3 6.1 0v-1.1c-1.6 1.8-4.7 1.9-6.4.4"/><path fill="#d68f00" d="M15.4 45.6c-.4-2.4-2.9-3.3-4.6-2.8-1.9.5-2.3 1.4-1.8 3.2 1.7 1.5 4.8 1.4 6.4-.4"/><path fill="#ffec40" d="M22.8 30.7c.1.3.1.6.1.9 0 2.5-2.3 4.5-5.1 4.5-2.1 0-4-1.2-4.7-2.8-.3.8-.4 1.7-.4 2.8.4 5.4 8.6 3.7 10.1 0 1.2-2.6 1.3-4.3 0-5.4"/><path fill="#d68f00" d="M17.9 36.1c2.8 0 5.1-2 5.1-4.5 0-.3 0-.6-.1-.9-.5-.5-1.3-.8-2.4-1.1-2.6-.7-6.2.5-7.3 3.7.7 1.7 2.5 2.8 4.7 2.8"/><path fill="#ffec40" d="M28.7 45.7c-1.6 0-3-.8-3.9-2-.6 1.9-.3 4.3 3.4 4.6 4.4.4 6.3-4.2 5.5-6.6-.7 2.3-2.7 4-5 4"/><path fill="#d68f00" d="M28.7 45.7c2.3 0 4.3-1.7 4.9-4-.1-.2-.1-.3-.2-.5-1.4-2.1-5.8-2-7.8.9-.3.4-.6 1-.8 1.5.9 1.3 2.3 2.1 3.9 2.1"/><path fill="#ffec40" d="M58.9 39c-.1 1.7-1.7 3.1-3.8 3.1-1.7 0-3.1-1-3.6-2.3-.1.5-.2 1.1-.2 1.7.1 2.4 3.7 3.9 6.8 1.4 1.6-1.2 1.6-2.7.8-3.9"/><path fill="#d68f00" d="M55.2 42.1c2 0 3.7-1.4 3.8-3.1-.7-1.2-2.2-2.2-3.4-2.2-2.2 0-3.5 1.3-3.9 3 .4 1.4 1.8 2.3 3.5 2.3"/><path fill="#ffec40" d="M48.4 32.6v.3c0 2.8-2.6 5.1-5.9 5.1-2.3 0-4.3-1.2-5.3-2.9.2 1 .7 2.1 1.5 3.3 1.8 2.8 5.3 2.7 7.2.8 2.1-2 3.4-4.4 2.5-6.6"/><path fill="#d68f00" d="M42.6 38c3.2 0 5.9-2.3 5.9-5.1v-.3c-.2-.6-.6-1.1-1.2-1.6-2.8-2.5-8-1.3-9.3.6-.7 1.1-.9 2.2-.6 3.5.9 1.7 2.9 2.9 5.2 2.9"/><path fill="#ffec40" d="M58 25.3v.2c0 1.9-1.8 3.5-4 3.5-1.6 0-2.9-.8-3.6-2 .2.7.5 1.4 1 2.2 1.2 1.9 3.6 1.8 4.9.5 1.4-1.3 2.3-3 1.7-4.4"/><path fill="#d68f00" d="M54 28.9c2.2 0 4-1.6 4-3.5v-.2c-.2-.4-.4-.8-.8-1.1-1.9-1.7-5.5-.9-6.3.4-.5.7-.6 1.5-.4 2.4.6 1.2 1.9 2 3.5 2"/><path fill="#ffc543" d="M23.1 18.5c1.2 0 2.3.2 3.1.6-.3-.6-1-1.1-2.2-1.7-2.3-.9-6.2-.2-6 3v.2c.6-1.2 2.7-2.1 5.1-2.1"/><path fill="#d68f00" d="M25.3 21.5c.9-.9 1.2-1.7.9-2.4-.9-.4-2-.6-3.1-.6-2.4 0-4.4.9-5 2.1.3 3.1 4.8 3.3 7.2.9"/><path fill="#ffc543" d="M34.3 13.1c.9 0 1.7.2 2.3.6-.2-.5-.6-.9-1.3-1.5-2.4-1.9-5.5-.1-5.3 3.1 0 .2.1.3.1.5.5-1.5 2.2-2.7 4.2-2.7"/><path fill="#d68f00" d="M35.3 16.6c1.3-1.2 1.7-2 1.3-2.9-.7-.3-1.5-.6-2.3-.6-2.1 0-3.8 1.1-4.2 2.6.5 2.7 3.5 2.7 5.2.9"/><path fill="#ffc543" d="M47.7 15.6c.6 0 1.1.1 1.6.2-.1-.3-.2-.5-.5-.8-2.1-1.9-7-.7-7 2.4 0 .7.4 1.3 1 1.6.3-1.9 2.4-3.4 4.9-3.4"/><path fill="#d68f00" d="M47.8 18.3c.7-.5 1.9-1.5 1.6-2.5-.5-.1-1.1-.2-1.6-.2-2.5 0-4.6 1.5-4.9 3.5 1.2.7 3.3.5 4.9-.8"/></svg>