<svg xmlns="http://www.w3.org/2000/svg" viewBox="0 0 64 64"><path fill="#ffe62e" d="m20.5 59.7 7-7.2c-2.5-.5-4.8-1.5-6.9-2.9l-.1 10.1m23-55.4-7 7.2c2.5.5 4.8 1.5 6.9 2.9l.1-10.1M4.3 43.5l10.1-.1C13 41.3 12 39 11.5 36.5l-7.2 7m55.4-23-10.1.1c1.3 2.1 2.3 4.4 2.9 6.9l7.2-7m-55.4 0 7.2 7c.5-2.5 1.5-4.8 2.9-6.9l-10.1-.1m55.4 23-7.2-7c-.5 2.5-1.5 4.8-2.9 6.9l10.1.1M20.5 4.3l.1 10.1c2.1-1.3 4.4-2.3 6.9-2.9l-7-7.2m23 55.4-.1-10.1C41.3 51 39 52 36.5 52.5l7 7.2"/><g fill="#ffce31"><path d="m14.8 44-4 9.3 9.3-4C18 47.8 16.2 46 14.8 44m34.4-24 4-9.3-9.2 4c2 1.5 3.8 3.3 5.2 5.3m-37.8 8.3L2 32l9.4 3.7c-.3-1.2-.4-2.4-.4-3.7s.1-2.5.4-3.7m41.2 7.4L62 32l-9.4-3.7c.2 1.2.4 2.5.4 3.7 0 1.3-.1 2.5-.4 3.7M20 14.8l-9.3-4 4 9.3c1.5-2.1 3.3-3.9 5.3-5.3m24 34.4 9.3 4-4-9.3C47.8 46 46 47.8 44 49.2m-8.3-37.8L32 2l-3.7 9.4c1.2-.2 2.5-.4 3.7-.4s2.5.1 3.7.4m-7.4 41.2L32 62l3.7-9.4c-1.2.3-2.4.4-3.7.4s-2.5-.1-3.7-.4"/><circle cx="32" cy="32" r="19"/></g></svg>