<svg xmlns="http://www.w3.org/2000/svg" viewBox="0 0 64 64"><path fill="#fff" d="M14 51c-1.1 0-2.1-.2-3.1-.5C6.8 49.1 4 45.3 4 41c0-2.9 1.2-5.6 3.4-7.5.6-.5 1.2-.9 1.9-1.3l.7-2.3c1.7-5.8 7-9.8 13-9.8.6 0 1.2 0 1.9.2.6.1 1.1.2 1.6.3l.3-.5c2.4-4.4 7-7.1 12-7.1 7.6 0 13.7 6.2 13.7 13.7 0 .4 0 .7-.1 1.1v.3c.6.2 1.2.5 1.7.8 3.7 2.1 5.9 6 5.9 10.3 0 5.5-3.8 10.3-9.2 11.5-.9.2-1.8.3-2.6.3H14"/><path fill="#75d6ff" d="M38.7 15c6.5 0 11.7 5.3 11.7 11.7v.9c-2.7.2-5.2 1.3-7.1 3 1.4-.8 3.1-1.3 4.9-1.3.7 0 1.3.1 1.9.2 1.1.2 2.1.6 3 1.1 2.9 1.7 4.9 4.9 4.9 8.5 0 4.7-3.3 8.6-7.6 9.6-.7.2-1.4.3-2.2.3H14c-.9 0-1.7-.1-2.5-.4C8.3 47.5 6 44.5 6 41c0-2.4 1.1-4.6 2.7-6 .8-.7 1.6-1.2 2.6-1.5.8-.3 1.7-.5 2.6-.5 2.6 0 4.9 1.2 6.3 3.1h.1c-1.7-3.1-4.9-5.3-8.6-5.7 1.4-4.8 5.8-8.4 11.1-8.4.6 0 1.1.1 1.6.1 1.1.2 2.1.4 3 .9 3.5 1.6 6.1 4.9 6.7 8.9v-.1c0-4.5-2.3-8.5-5.8-10.8 2.2-3.6 6-6 10.4-6m0-4c-5.4 0-10.4 2.8-13.3 7.3-.1 0-.2 0-.3-.1-.8-.1-1.5-.2-2.2-.2C16 18 9.9 22.6 8 29.3l-.5 1.6c-.5.3-1 .7-1.4 1.1C3.5 34.2 2 37.5 2 41c0 5.2 3.3 9.8 8.2 11.4 1.2.4 2.5.6 3.8.6h34.2c1 0 2.1-.1 3.1-.4 6.3-1.5 10.7-7 10.7-13.5 0-4.9-2.7-9.5-6.9-12l-.6-.3v-.1C54.4 18.1 47.4 11 38.7 11z"/></svg>