<svg xmlns="http://www.w3.org/2000/svg" viewBox="0 0 64 64"><path fill="#3e4347" d="M32 2c-.5 0-.9.4-.9.9v4.7H33V2.9c-.1-.5-.5-.9-1-.9"/><path fill="#b8c2c4" d="M31.1 24.5H33v24.4h-1.9z"/><path fill="#ffbe5c" d="M32 6.7v24.4c1.8-2.3 4.5-3.8 7.7-3.8 3.1 0 5.9 1.5 7.7 3.8C45.9 17.3 39.7 6.7 32 6.7z"/><path fill="#ed77a8" d="M32 6.7v24.4c-1.8-2.3-4.5-3.8-7.7-3.8s-5.9 1.5-7.7 3.8C18.1 17.3 24.3 6.7 32 6.7z"/><path fill="#c7e86f" d="M32 6.7c7.7 0 13.9 10.6 15.4 24.4 1.8-2.3 4.5-3.8 7.7-3.8 2.7 0 5.2 1.1 7 2.9C59 16.8 46.7 6.7 32 6.7z"/><path fill="#60d4e0" d="M32 6.7c-7.7 0-13.9 10.6-15.4 24.4-1.8-2.3-4.5-3.8-7.7-3.8-2.7 0-5.2 1.1-7 2.9C5 16.8 17.3 6.7 32 6.7"/><path fill="#3e4347" d="M30.1 48.9v5.6c0 2.1-1.7 3.8-3.8 3.8s-3.8-1.7-3.8-3.8c0-1-.8-1.9-1.9-1.9s-1.9.8-1.9 1.9c0 4.1 3.4 7.5 7.5 7.5s7.5-3.4 7.5-7.5v-5.6h-3.6"/></svg>