<svg xmlns="http://www.w3.org/2000/svg" viewBox="0 0 64 64"><path fill="#89664c" d="m52.2 32.2-2.1 4.4-4.5 2.4.5 1.6 5-2.8 2.4-5z"/><path fill="#13618d" d="M55.2 34.1c-1.3.4-4.6-1-5-2.3-1.4-4.9 9.5.8 5 2.3"/><path fill="#428bc1" d="M57.5 23.2c-5.1-1.7-4.2 5.9-5.4 3.3-.8-1.7-2.3-1.7-2 1.2.3 2.8 3.4 5.2 6.1 4.2 2.6-1 5.5-7.3 1.3-8.7"/><path fill="#89664c" d="m12.9 32.2 2.1 4.4 4.4 2.4-.4 1.6-5.1-2.8-2.4-5z"/><path fill="#13618d" d="M9.9 34.1c1.3.4 4.6-1 5-2.3 1.4-4.8-9.9.7-5 2.3"/><path fill="#428bc1" d="M7.6 23.2c5.1-1.7 4.2 5.9 5.4 3.3.8-1.7 2.3-1.7 2 1.2-.3 2.8-3.4 5.2-6.1 4.2-2.6-1-5.5-7.3-1.3-8.7"/><circle cx="32.5" cy="45" r="17" fill="#d0d0d0"/><path fill="#fff" d="M32.5 30c-8.3 0-15 6.7-15 15s6.7 15 15 15 15-6.7 15-15-6.7-15-15-15"/><circle cx="32.5" cy="25.5" r="13" fill="#d0d0d0"/><path fill="#fff" d="M32.5 14.5c-6.1 0-11 4.9-11 11s4.9 11 11 11 11-4.9 11-11c0-6-4.9-11-11-11"/><circle cx="32.5" cy="26.4" r="2.5" fill="#ff8736"/><g fill="#3e4347"><circle cx="27.1" cy="21.8" r="2"/><circle cx="37.9" cy="21.8" r="2"/><path d="m30.9 46.3-1.1-3.2 2.8-2 2.7 2-1 3.2zm0 9.8-1.1-3.2 2.8-2 2.7 2-1 3.2zM32.5 34c-3.1 0-6-1.3-8.1-3.6-1.2-1.3.3-2.6 1.5-1.4 1.7 1.9 4.2 2.9 6.7 2.9s4.9-1.1 6.7-2.9c1.2-1.3 2.7 0 1.5 1.4-2.2 2.2-5.2 3.6-8.3 3.6"/></g><path d="m12.1 9.1 2.1-3.3-3.3 2.1L10 2l-.9 5.9-3.3-2.1 2.1 3.3L2 10l5.9.9-2.1 3.3 3.3-2.1.9 5.9.9-5.9 3.3 2.1-2.1-3.3L18 10zm44 39 2.1-3.3-3.3 2.1L54 41l-.9 5.9-3.3-2.1 2.1 3.3-5.9.9 5.9.9-2.1 3.3 3.3-2.1.9 5.9.9-5.9 3.3 2.1-2.1-3.3L62 49zm1.4-40.8 1.7-2.5-2.5 1.7L56 2l-.7 4.5-2.5-1.7 1.7 2.5L50 8l4.5.7-1.7 2.5 2.5-1.7.7 4.5.7-4.5 2.5 1.7-1.7-2.5L62 8zM10.8 54.2l1.9-2.9-2.9 1.9L9 48l-.8 5.2-2.9-1.9 1.9 2.9L2 55l5.2.8-1.9 2.9 2.9-1.9L9 62l.8-5.2 2.9 1.9-1.9-2.9L16 55z" fill="#a2cbdb"/><path fill="#ed4c5c" d="M20.3 16.5s0-5.5 4.8-6.4c0 0-.3-4.8 12.7-7.6 5.7-1.2 6.8-1.3 8.2 9.1.5 4 5.5 7.2 1.7 8.4-1.3.5-27.4-3.5-27.4-3.5"/><ellipse cx="49" cy="19.7" fill="#c4ccce" rx="3.7" ry="3.6"/><g fill="#f5f5f5"><ellipse cx="49" cy="19" rx="3" ry="2.9"/><path d="M34.3 14.9c-8.3-1.5-15.6.3-16.2 3.9-.3 1.4.1 3.2 1.6 4.5-.6-3.4 7.2-5.5 13.9-4.3 6.8 1.2 12.9 4.7 11.7 8.6 1.9-.8 2.6-2 2.9-3.5.6-3.6-5.6-7.8-13.9-9.2"/></g><path fill="#c4ccce" d="M33.7 17.9c-8.3-1.5-16.8 2.4-13.9 5.4 1.1-3.1 7-5 13.8-3.8 6.8 1.2 11.5 4.8 11.8 8 4.1-2.4-3.4-8.1-11.7-9.6"/><path fill="#cc2e45" d="M21.2 31.9c-1.5-1.1-3.6 3.3-2.8 3.7 11.4 6 21 1.5 28.4.1.9 0-1.4-4.2-2.9-3.7-13.1 4.2-17.6 3.4-22.7-.1"/><path fill="#ed4c5c" d="M43.8 48.9c-2.6-1-7 1.3-6.4 0 1.7-3.4 3.5-12.6.8-15.3-1.1-1.1 4.2-2.6 5.4-1.6 3.1 2.9 1.9 17.5.2 16.9"/></svg>