<svg xmlns="http://www.w3.org/2000/svg" viewBox="0 0 64 64"><path fill="#3e4347" d="M53.9 56.1c0 .6-.5 1.1-1.1 1.1H7.9c-.6 0-1.1-.5-1.1-1.1V11.2c0-.6.5-1.1 1.1-1.1h30.7l6.1-6.7H2.2C1 3.4 0 4.4 0 5.6v56.1C0 63 1 64 2.2 64h56.1c1.2 0 2.2-1 2.2-2.2V18.1l-6.7 9.4c.1 0 .1 28.6.1 28.6"/><path fill="#3e4347" d="M6.7 11.3c0-.6.5-1.1 1.1-1.1h44.9c.6 0 1.1.5 1.1 1.1v44.9c0 .6-.5 1.1-1.1 1.1H22L15.9 64h42.5c1.2 0 2.2-1 2.2-2.2V5.7c0-1.3-1-2.3-2.2-2.3H2.3C1.1 3.4.1 4.4.1 5.6v43.7l6.7-9.4c-.1 0-.1-28.6-.1-28.6"/></svg>