<svg xmlns="http://www.w3.org/2000/svg" viewBox="0 0 64 64"><g fill="#eff6f7"><path d="M49.2 38.3 52 36l5.8-.3 4.2 4.2c0-5-3.3-8-10-6.1-.4.1-1.7.2-1.7.2l-1.1 4.3"/><path d="M59.6 39.6c0 4.6-10.9 5.9-14.3 8.2-1.4 1-3.8 5.4-3.8 5.4L61 41.9s-1.4-5.9-1.4-2.3"/></g><path d="m49.2 40 1.6-.4s.3-1.5 1.6-2.7c1.7-1.5 7.3-1.2 7.3 2.5 0 6-11.2 7.8-14.6 10.1-1.4 1-3 4-3 4s1.2.2 1.5 0c5.1-4.2 18.4-6 18.4-13.8 0-2.8-4.1-6.4-10-4.3-.4.1-1.7.2-1.7.2L49.2 40m-9.3 15H13.2s.3 2.8 3.9 5c1.3.8 4.5 2 9.4 2 5 0 8.1-1.2 9.4-2 3.7-2.2 4-5 4-5" fill="#d2d8d9"/><g fill="#eff6f7"><path d="M51.1 30.2H2s.6 11.7 7.2 21.2c2.4 3.5 8.2 8.5 17.3 8.5 9.2 0 14.9-5 17.3-8.5 6.6-9.5 7.3-21.2 7.3-21.2"/><ellipse cx="26.5" cy="30.2" rx="24.5" ry="10.2"/></g><path fill="#d2d8d9" d="M26.5 24.2c11.3 0 20.7 3.2 22.9 7.5.3-.6.5-1.3.5-1.9 0-5.2-10.5-9.4-23.4-9.4-12.9 0-23.4 4.2-23.4 9.4 0 .7.2 1.3.5 1.9 2.2-4.3 11.6-7.5 22.9-7.5"/><path fill="#724e41" d="M26.5 39.2c11.3 0 20.7-3.2 22.9-7.5-2.2-4.3-11.6-7.5-22.9-7.5-11.3 0-20.7 3.2-22.9 7.5 2.2 4.3 11.6 7.5 22.9 7.5"/><path fill="#8f6a54" d="M42.3 29.2c-3.5-4-14.7-2.2-15.7-.2-1.4-2.1-12.4-3.7-15.7.2-2.1 2.5 2.7 4.8 7.6 6.5 3.1 1.2 0 2.5 0 2.5 12.2 0 20.7-4.3 20.7-4.3 2.7-1.5 4.5-3.1 3.1-4.7"/><path fill="#b59267" d="M36.5 30.6c-2-3.2-9.5-1.9-10.3-.3-.8-1.7-7.9-3.1-10.4 0-1.5 1.9 1.5 3.8 4.6 5.2 1.9 1-.2 2-.2 2 8 .1 13.9-3.2 13.9-3.2 2-1.2 3.3-2.4 2.4-3.7"/><path fill="#f9f3d9" d="M33.1 31.7c-1.4-2.1-6.4-1.3-6.9-.2-.5-1.1-5.3-2.1-6.9 0-1 1.3 1 2.6 3.1 3.5 1.3.6-.1 1.3-.1 1.3 5.4.1 9.3-2.2 9.3-2.2 1.2-.7 2-1.5 1.5-2.4"/><path d="M27.9 11.4C24.2 7.6 26.6 2 26.6 2s-7.8 7.4-2.9 12.5c5.7 5.9 2.9 9.5 2.9 9.5s7.1-6.6 1.3-12.6m-11.1 3.4c-2.7-2.7-.9-6.8-.9-6.8s-5.8 5.4-2.1 9.1c4.2 4.3 2.1 6.9 2.1 6.9s5.3-4.8.9-9.2m22 0c-2.7-2.7-.9-6.8-.9-6.8s-5.8 5.4-2.1 9.1c4.2 4.3 2.1 6.9 2.1 6.9s5.3-4.8.9-9.2" fill="#a6aeb0" opacity=".6"/></svg>