<svg xmlns="http://www.w3.org/2000/svg" viewBox="0 0 64 64"><path fill="#547725" d="m46.087 21.897 13.449-.033c2.258 6.839 2.256 14.861.35 21.593l-13.799.043c2.52-7.25 2.395-13.745 0-21.603z"/><g fill="#ffdd67"><path d="M28.606 21.923s-1.97 25.12 1.653 24.727c0 0 8.82 1.26 14.175-1.811 7.953-4.646 9.213-22.522-5.513-27.01-2.913-.945-10.788-.237-10.315 4.094"/><path d="M32.228 26.727a3.327 3.327 0 0 0 3.307-3.307 3.327 3.327 0 0 0-3.307-3.308H6.32a3.327 3.327 0 0 0-3.307 3.308 3.327 3.327 0 0 0 3.307 3.307h25.908"/></g><path d="M34.748 24.916c0-1.89-1.496-3.386-3.308-3.386H5.533c-.945 0-1.89.472-2.442 1.102.315-1.496 1.654-2.677 3.229-2.677h25.908a3.327 3.327 0 0 1 3.307 3.307c0 .866-.315 1.575-.787 2.205v-.551" fill="#eba352"/><path d="M25.062 46.65c-1.89 0-3.386-1.496-3.386-3.307v-.08c0-1.81 1.496-3.306 3.386-3.306h5.197c1.89 0 3.386 1.496 3.386 3.307v.079c0 1.81-1.496 3.307-3.386 3.307h-5.197m-2.992-6.693c-1.89 0-3.387-1.497-3.387-3.308v-.079c0-1.81 1.497-3.307 3.386-3.307h5.198c1.89 0 3.386 1.496 3.386 3.307v.08c0 1.81-1.496 3.307-3.386 3.307h-5.198m-.393-6.694c-1.89 0-3.386-1.496-3.386-3.307v-.08c0-1.81 1.496-3.306 3.386-3.306h5.197c1.89 0 3.386 1.496 3.386 3.307v.079c0 1.81-1.496 3.307-3.386 3.307h-5.197" fill="#ffdd67"/><g fill="#eba352"><path d="M32.385 44.209c0-1.89-1.496-3.307-3.307-3.307h-5.197c-.473 0-.945.078-1.418.315.63-.788 1.575-1.34 2.678-1.34h5.197c1.89 0 3.307 1.418 3.307 3.308v.079c0 1.339-.787 2.52-1.968 2.992.472-.55.708-1.26.708-2.047m-2.992-6.615c0-1.89-1.496-3.307-3.307-3.307h-5.198c-.472 0-.945.078-1.417.315.63-.788 1.575-1.339 2.677-1.339h5.198c1.89 0 3.307 1.496 3.307 3.307v.08c0 1.338-.788 2.52-1.969 2.992.473-.552.709-1.26.709-2.048m-.394-6.615c0-1.89-1.496-3.307-3.307-3.307h-5.197c-.473 0-.945.079-1.418.315.63-.788 1.575-1.339 2.677-1.339h5.198c1.89 0 3.307 1.496 3.307 3.308v.078c0 1.34-.787 2.52-1.968 2.993.472-.63.708-1.339.708-2.048m4.568-6.063c-1.812 3.78 1.338 12.363 9.213 10.63-8.19 0-9.607-7.402-9.213-10.63"/><path d="M25.456 26.333c-1.654 2.756.945 3.229 1.102 7.875.079 2.047 4.252 2.914 5.749-.157 2.126-4.253-.867-4.568.315-5.67 1.26-1.103 1.496-2.126 2.913-3.071 1.024-.71-.551-5.985-2.677-6.536-4.174-1.024-4.804 3.228-7.402 7.56"/></g><path d="M26.164 26.018c-1.653 2.835.945 3.386 1.103 8.19.079 2.126 4.41 3.071 5.985-.157 2.205-4.41-.945-4.804.315-5.828 1.26-1.181 1.575-2.205 3.07-3.228 1.103-.71 5.198 1.18 5.198 1.18s3.859-5.433 1.654-6.535c-4.095-2.048-7.245-1.496-9.607-1.418-5.591.158-5.04 3.308-7.718 7.796" fill="#ffdd67"/><g fill="#eba352"><path d="M28.92 20.506c1.418-2.992 9.214-2.835 12.994-.63 9.37 5.591 9.213 17.876 4.173 23.624 5.749-5.355 6.3-18.427-3.386-24.49-3.858-2.363-12.836-3.15-13.78 1.496"/><path d="M36.716 25.625c.315-.237.945-.158 1.654-.08-1.102-.314-2.205-.55-2.677-.235-1.496.945-1.811 1.496-3.071 2.677-1.182 1.102 1.89 1.417-.315 5.827-.788 1.654-2.363 2.205-3.701 2.048 1.417.63 3.622.315 4.724-1.811 2.205-4.41-.945-4.804.315-5.828 1.26-1.102 1.575-1.653 3.071-2.598"/></g><path fill="#547725" d="m46.087 21.897-.647.767 2.582 3.205 3.681-1.623-4.152-2.096-1.464-.253m13.152 22.327.647-.767-1.443-2.618-1.215 2.122z"/><path d="m45.44 22.664 13.449-.032c2.258 6.838 2.256 14.86.35 21.592l-13.799.044c2.52-7.251 2.395-13.745 0-21.604z" fill="#699635"/></svg>