<svg xmlns="http://www.w3.org/2000/svg" viewBox="0 0 64 64"><g fill="#ffdd67"><path d="M29.5 19.2s2.5 31.9-2.1 31.4c0 0-11.2 1.6-18-2.3-10.1-5.9-11.7-28.6 7-34.3 3.7-1.2 13.7-.3 13.1 5.2"/><path d="M24.9 25.3c-2.3 0-4.2-1.9-4.2-4.2 0-2.3 1.9-4.2 4.2-4.2h32.9c2.3 0 4.2 1.9 4.2 4.2 0 2.3-1.9 4.2-4.2 4.2H24.9"/></g><path fill="#eba352" d="M21.7 23c0-2.4 1.9-4.3 4.2-4.3h32.9c1.2 0 2.4.6 3.1 1.4-.4-1.9-2.1-3.4-4.1-3.4H24.9c-2.3 0-4.2 1.9-4.2 4.2 0 1.1.4 2 1 2.8V23"/><g fill="#ffdd67"><path d="M34 50.6c2.4 0 4.3-1.9 4.3-4.2v-.1c0-2.3-1.9-4.2-4.3-4.2h-6.6c-2.4 0-4.3 1.9-4.3 4.2v.1c0 2.3 1.9 4.2 4.3 4.2H34"/><path d="M37.8 42.1c2.4 0 4.3-1.9 4.3-4.2v-.1c0-2.3-1.9-4.2-4.3-4.2h-6.6c-2.4 0-4.3 1.9-4.3 4.2v.1c0 2.3 1.9 4.2 4.3 4.2h6.6m.5-8.5c2.4 0 4.3-1.9 4.3-4.2v-.1c0-2.3-1.9-4.2-4.3-4.2h-6.6c-2.4 0-4.3 1.9-4.3 4.2v.1c0 2.3 1.9 4.2 4.3 4.2h6.6"/></g><g fill="#eba352"><path d="M24.7 47.5c0-2.4 1.9-4.2 4.2-4.2h6.6c.6 0 1.2.1 1.8.4-.8-1-2-1.7-3.4-1.7h-6.6c-2.4 0-4.2 1.8-4.2 4.2v.1c0 1.7 1 3.2 2.5 3.8-.6-.7-.9-1.6-.9-2.6m3.8-8.4c0-2.4 1.9-4.2 4.2-4.2h6.6c.6 0 1.2.1 1.8.4-.8-1-2-1.7-3.4-1.7h-6.6c-2.4 0-4.2 1.9-4.2 4.2v.1c0 1.7 1 3.2 2.5 3.8-.6-.7-.9-1.6-.9-2.6m.5-8.4c0-2.4 1.9-4.2 4.2-4.2h6.6c.6 0 1.2.1 1.8.4-.8-1-2-1.7-3.4-1.7h-6.6c-2.4 0-4.2 1.9-4.2 4.2v.1c0 1.7 1 3.2 2.5 3.8-.6-.8-.9-1.7-.9-2.6M23.2 23c2.3 4.8-1.7 15.7-11.7 13.5 10.4 0 12.2-9.4 11.7-13.5"/><path d="M33.5 24.8c2.1 3.5-1.2 4.1-1.4 10-.1 2.6-5.4 3.7-7.3-.2-2.7-5.4 1.1-5.8-.4-7.2-1.6-1.4-1.9-2.7-3.7-3.9-1.3-.9.7-7.6 3.4-8.3 5.3-1.3 6.1 4.1 9.4 9.6"/></g><path fill="#ffdd67" d="M32.6 24.4c2.1 3.6-1.2 4.3-1.4 10.4-.1 2.7-5.6 3.9-7.6-.2-2.8-5.6 1.2-6.1-.4-7.4-1.6-1.5-2-2.8-3.9-4.1-1.4-.9-6.6 1.5-6.6 1.5s-4.9-6.9-2.1-8.3c5.2-2.6 9.2-1.9 12.2-1.8 7.1.2 6.4 4.2 9.8 9.9"/><g fill="#eba352"><path d="M29.1 17.4c-1.8-3.8-11.7-3.6-16.5-.8C.7 23.7.9 39.3 7.3 46.6c-7.3-6.8-8-23.4 4.3-31.1 4.9-3 16.3-4 17.5 1.9"/><path d="M19.2 23.9c-.4-.3-1.2-.2-2.1-.1 1.4-.4 2.8-.7 3.4-.3 1.9 1.2 2.3 1.9 3.9 3.4 1.5 1.4-2.4 1.8.4 7.4 1 2.1 3 2.8 4.7 2.6-1.8.8-4.6.4-6-2.3-2.8-5.6 1.2-6.1-.4-7.4-1.6-1.4-2-2.1-3.9-3.3"/></g></svg>