<svg xmlns="http://www.w3.org/2000/svg" viewBox="0 0 64 64"><g fill="#ffdd67"><path d="M19.2 29.5s31.9 2.5 31.4-2.1c0 0 1.6-11.2-2.3-18C42.4-.7 19.7-2.3 14 16.4c-1.2 3.7-.3 13.7 5.2 13.1"/><path d="M25.3 24.9c0-2.3-1.9-4.2-4.2-4.2-2.3 0-4.2 1.9-4.2 4.2v32.9c0 2.3 1.9 4.2 4.2 4.2 2.3 0 4.2-1.9 4.2-4.2V24.9"/></g><path fill="#eba352" d="M23 21.7c-2.4 0-4.3 1.9-4.3 4.2v32.9c0 1.2.6 2.4 1.4 3.1-1.9-.4-3.4-2.1-3.4-4.1V24.9c0-2.3 1.9-4.2 4.2-4.2 1.1 0 2 .4 2.8 1H23"/><g fill="#ffdd67"><path d="M50.6 34c0 2.4-1.9 4.3-4.2 4.3h-.1c-2.3 0-4.2-1.9-4.2-4.3v-6.6c0-2.4 1.9-4.3 4.2-4.3h.1c2.3 0 4.2 1.9 4.2 4.3V34"/><path d="M42.1 37.8c0 2.4-1.9 4.3-4.2 4.3h-.1c-2.3 0-4.2-1.9-4.2-4.3v-6.6c0-2.4 1.9-4.3 4.2-4.3h.1c2.3 0 4.2 1.9 4.2 4.3v6.6m-8.5.5c0 2.4-1.9 4.3-4.2 4.3h-.1c-2.3 0-4.2-1.9-4.2-4.3v-6.6c0-2.4 1.9-4.3 4.2-4.3h.1c2.3 0 4.2 1.9 4.2 4.3v6.6"/></g><g fill="#eba352"><path d="M47.5 24.7c-2.4 0-4.2 1.9-4.2 4.2v6.6c0 .6.1 1.2.4 1.8-1-.8-1.7-2-1.7-3.4v-6.6c0-2.4 1.8-4.2 4.2-4.2h.1c1.7 0 3.2 1 3.8 2.5-.7-.6-1.6-.9-2.6-.9m-8.4 3.8c-2.4 0-4.2 1.9-4.2 4.2v6.6c0 .6.1 1.2.4 1.8-1-.8-1.7-2-1.7-3.4v-6.6c0-2.4 1.9-4.2 4.2-4.2h.1c1.7 0 3.2 1 3.8 2.5-.7-.6-1.6-.9-2.6-.9m-8.4.5c-2.4 0-4.2 1.9-4.2 4.2v6.6c0 .6.1 1.2.4 1.8-1-.8-1.7-2-1.7-3.4v-6.6c0-2.4 1.9-4.2 4.2-4.2h.1c1.7 0 3.2 1 3.8 2.5-.8-.6-1.7-.9-2.6-.9M23 23.2c4.8 2.3 15.7-1.7 13.5-11.7 0 10.4-9.4 12.2-13.5 11.7"/><path d="M24.8 33.5c3.5 2.1 4.1-1.2 10-1.4 2.6-.1 3.7-5.4-.2-7.3-5.4-2.7-5.8 1.1-7.2-.4-1.4-1.6-2.7-1.9-3.9-3.7-.9-1.3-7.6.7-8.3 3.4-1.3 5.3 4.1 6.1 9.6 9.4"/></g><path fill="#ffdd67" d="M24.4 32.6c3.6 2.1 4.3-1.2 10.4-1.4 2.7-.1 3.9-5.6-.2-7.6-5.6-2.8-6.1 1.2-7.4-.4-1.5-1.6-2.8-2-4.1-3.9-.9-1.4 1.5-6.6 1.5-6.6s-6.9-4.9-8.3-2.1c-2.6 5.2-1.9 9.2-1.8 12.2.2 7.1 4.2 6.4 9.9 9.8"/><g fill="#eba352"><path d="M17.4 29.1c-3.8-1.8-3.6-11.7-.8-16.5C23.7.7 39.3.9 46.6 7.3c-6.8-7.3-23.4-8-31.1 4.3-3 4.9-4 16.3 1.9 17.5"/><path d="M23.9 19.2c-.3-.4-.2-1.2-.1-2.1-.4 1.4-.7 2.8-.3 3.4 1.2 1.9 1.9 2.3 3.4 3.9 1.4 1.5 1.8-2.4 7.4.4 2.1 1 2.8 3 2.6 4.7.8-1.8.4-4.6-2.3-6-5.6-2.8-6.1 1.2-7.4-.4-1.4-1.6-2.1-2-3.3-3.9"/></g></svg>