<svg xmlns="http://www.w3.org/2000/svg" viewBox="0 0 64 64"><path fill="#ff5a79" d="M5.9 62c-3.3 0-4.8-2.4-3.3-5.3L29.3 4.2c1.5-2.9 3.9-2.9 5.4 0l26.7 52.5c1.5 2.9 0 5.3-3.3 5.3H5.9z"/><path fill="#fff" d="M16.44 54c-1.98 0-2.88-1.44-1.98-3.18l16.02-31.5c.9-1.74 2.34-1.74 3.24 0l16.02 31.5c.9 1.74 0 3.18-1.98 3.18H16.44z"/><g fill="#231f20" transform="matrix(.8 0 0 .8 6.4 9.6)"><path d="m27.8 23.6 2.8 18.5c.3 1.8 2.6 1.8 2.9 0l2.7-18.5c.5-7.2-8.9-7.2-8.4 0"/><circle cx="32" cy="49.6" r="4.2"/></g></svg>