<svg xmlns="http://www.w3.org/2000/svg" viewBox="0 0 64 64"><g fill="#FF5A79"><path d="M38.4 25.3c1.3-.9 2.3-2.1 3.1-3.5-2.7-1.9-6-3-9.5-3s-6.8 1.1-9.5 3c.8 1.4 1.8 2.6 3.1 3.5 1.9-1.2 4.1-1.9 6.4-1.9s4.6.7 6.4 1.9m10.1 8.8c-1.6 0-3.2.3-4.6 1v.3c0 4.6-2.5 8.5-6.3 10.6.2 1.6.6 3.1 1.4 4.5 5.6-2.7 9.5-8.4 9.5-15.1.1-.4.1-.9 0-1.3M20 35.4v-.3c-1.4-.6-3-1-4.6-.9v1.3c0 6.7 3.9 12.4 9.5 15.1.8-1.4 1.3-2.9 1.5-4.5C22.6 44 20 40 20 35.4"/><path d="M8.8 34c5.9-3.4 13.4-1.7 17.1 3.8l2.3-1.3c-.1-.4-.2-.7-.2-1.1 0-1.9 1.3-3.4 3-3.8V29c-6.7-.5-12-6.1-12-13 0-5.3 3.1-9.9 7.6-11.9-6.7 2.2-11.5 8.6-11.5 16 0 2.3.4 4.4 1.2 6.4-2.1.3-4.1 1-6.1 2.1-6.4 3.7-9.5 11.1-8 18.1-.3-5 2.1-10 6.6-12.7M62 43.3c.1-5.9-3-11.6-8.4-14.8-1.9-1.1-4-1.8-6.1-2.1.8-2 1.2-4.1 1.2-6.4 0-7.5-4.8-13.8-11.5-16 4.5 2 7.6 6.6 7.6 11.9 0 6.9-5.3 12.5-12 13v2.6c1.7.4 3 2 3 3.8 0 .4-.1.8-.2 1.2l2.3 1.3c3.7-5.6 11.2-7.3 17.2-3.9 4.1 2.4 6.5 6.7 6.5 11.2 0 .5 0 .9-.1 1.4.4-1 .5-2.1.5-3.2m-19.6 13c-4.2-2.4-6.5-6.8-6.5-11.3 0-1.9.4-3.9 1.3-5.7L34.9 38c-.7.8-1.7 1.2-2.9 1.2-1.1 0-2.2-.5-2.9-1.3l-2.3 1.3c3 6.1.8 13.5-5.2 17-4.6 2.7-10 2.2-14-.6 5.3 4.7 13.1 5.8 19.6 2 1.9-1.1 3.5-2.5 4.8-4.2 1.3 1.7 2.9 3.1 4.8 4.2 6.4 3.7 14.3 2.7 19.6-2-4 3-9.5 3.4-14 .7"/></g></svg>