<svg xmlns="http://www.w3.org/2000/svg" xmlns:xlink="http://www.w3.org/1999/xlink" viewBox="0 0 64 64"><path fill="#f2b200" d="M28 11.3h5.8V62H28z"/><path fill="#ffce31" d="M30.8 12.6h1.8V62h-1.8z"/><path fill="#f2b200" d="M36.8 11.3c0 1.8-2.6 3.3-5.8 3.3s-6-1.5-6-3.3S27.6 8 30.8 8s6 1.5 6 3.3"/><path fill="#ffce31" d="M33.8 10.5c0-.5-.6-.8-1.4-.8-.8 0-1.4.4-1.4.8 0 .5.6.8 1.4.8.8 0 1.4-.4 1.4-.8"/><path fill="#8cc63e" d="M42.85 42.15c-.05-.5-.15-.95-.25-1.3-.2-.7-.35-1.15-.5-1.45-.15-.35-.3-.55-.45-.75-.25-.4-.5-.65-.75-.85-.45-.4-.85-.7-1.25-.95-.8-.45-1.6-.75-2.35-1.05-1.55-.5-3.1-.8-4.6-1.05-3.05-.5-6.1-.7-9.15-.95-.75-.05-1.5-.15-2.25-.3-.2-.05 1-.45 1.6-.65 3-.8 6.05-1.3 9.1-1.6-3.05-.25-6.1-.35-9.15-.15-3.85.3-4.75 1.4-4.6 3.2.05.45.15.55.2.7.05.1.1.2.15.25.1.1.15.15.2.25.45.4.8.6 1.2.8.4.2.75.35 1.15.5.75.3 1.5.5 2.3.75 3.05.9 6.05 1.75 9 2.9 1.5.55 2.95 1.2 4.4 2 .55.3-9.8 7.05-12.8 7.4l.35 9.75c3.05-1.05 6.1-2.2 9.15-3.95.75-.45 1.55-.9 2.3-1.45.75-.55 1.5-1.1 2.25-1.7.75-.65 1.5-1.3 2.3-2.2.4-.5.8-.95 1.25-1.8.25-.45.5-.9.8-2.05.15-.55.3-1.4.35-2.55.15-.65.1-1.2.05-1.75"/><path d="M37.25 43.8c-1.45-1.15-3.05-2-4.7-2.75-1.65-.75-3.3-1.35-5-1.95-1.7-.6-3.35-1.1-5.05-1.7-.85-.3-1.7-.6-2.5-1-.4-.2-.8-.45-1.2-.8-.2-.2-.35-.4-.45-.65-.1-.25-.15-.55-.15-.9 0 .3-.1 1.25 1.85 2.1.8.35 1.7.5 2.55.75 1.7.4 3.4.75 5.15 1.2 1.7.4 3.45.85 5.15 1.4 1.7.6 3.4 1.3 5.05 2.35l-.7 1.95M21 33.2c.95-.35 1.85-.55 2.75-.8.9-.2 1.85-.4 2.75-.55 1.85-.3 3.7-.5 5.5-.55-1.85.2-3.65.55-5.5 1l-2.7.75c-.9.3-1.8.6-2.65 1L21 33.2" fill="#ffd93b"/><path d="m35 46.8-1.15-2c2.3-1.45 2.7-2.5 2.85-3.45.15-.9-.15-1.65-.75-2.2l1.15-2.6c1.35 1.25 2 3.25 1.7 5.4-.35 2.45-1.85 4.35-3.8 4.85M23.45 34.7c-2.65-.2-3.1-.55-3.1-2.2h.6c0 .9 0 1.1 2.55 1.35l-.05.85" fill="#8cc63e"/><path fill="#ffd93b" d="m27.85 55.75 1.2-.3c.4-.1.75-.2 1.15-.3.75-.2 1.55-.45 2.3-.75 1.5-.55 3.05-1.25 4.45-2.1 1.45-.9 2.85-1.95 4-3.4.55-.75 1.1-1.6 1.45-2.6.35-1 .55-2.1.5-3.25.15 1.15.1 2.35-.15 3.45-.25 1.15-.7 2.2-1.25 3.1-1.05 1.85-2.4 3.35-3.85 4.6-4 4-9.55 4.15-9.55 4.15l-.25-2.6"/><path fill="#e8f94b" d="M13.05 55.2c.15-.6.75-1.15 1.3-1 .55.15.85.9.7 1.5-.15.6-.65.75-1.2.65-.55-.15-.95-.5-.8-1.15"/><path fill="#252728" d="M13.45 55.35c.1-.4.45-.7.8-.65.35.1.5.55.4.95-.1.4-.4.5-.75.4-.3-.1-.55-.35-.45-.7"/><path fill="#4b662b" d="M13 55.2c.15-.65.8-1.25 1.4-1.1.6.15.9.95.75 1.65-.95-.8-2.15-.55-2.15-.55"/><path fill="#8cc63e" d="M13.55 57.25c-.2-4.9 6.5-7.55 10.75-7.75 4.2-.2 7.65-.1 7.9 4.8.2 4.9-3.2 5.55-7.4 6.1-4.4.65-11 1.8-11.25-3.15"/><path d="M16 57.6c-.15.45-.45.85-.6.8-.2-.05-.2-.55-.05-1 .15-.45.35-.7.55-.6.15 0 .25.3.1.8m-1.6-.45c0 .3-.1.6-.25.6-.1 0-.2-.3-.2-.65 0-.3.1-.5.25-.5s.2.2.2.55" fill="#4b662b"/><path fill="#e8f94b" d="M18.45 56.15c0-1.35 1.05-2.8 2.35-2.8s2.35 1.45 2.35 2.8c0 1.35-1.05 1.95-2.35 1.95s-2.35-.6-2.35-1.95"/><path fill="#252728" d="M19.35 56.25c0-.85.65-1.75 1.45-1.75s1.45.9 1.45 1.75-.65 1.2-1.45 1.2-1.45-.4-1.45-1.2"/><path d="M18.3 56.2c0-1.45 1.1-3 2.5-3s2.5 1.55 2.5 3c-2.5-1.2-5 0-5 0m13.35-10.05c2.65.4 6.1 1.4 7.5 3.15 0 0-1-3.6-4.1-5.35-.1.1-.25.2-.35.3-.9.55-1.95 1.2-3.05 1.9m2.35 6.2s-.7-3.5-3.55-5.5c-1.2.7-2.4 1.35-3.5 1.9 2.6.6 5.85 1.8 7.05 3.6m1.7-9.05c2.1-.3 5.1-.1 6.45.5 0 0-1.9-2.45-5.45-2.7 0 0-.15 1.25-1 2.2m6-4.65c-.25-.4-.5-.65-.75-.85-.2-.15-.35-.3-.5-.45-2.7.8-3.55 2.9-3.55 2.9 1.15-.95 3.25-.75 5.25-.85v-.05c-.2-.3-.35-.55-.45-.7m-18.55-2.6c.3-.8 1.3-1.55 2.25-2.1-.55-.05-1.1-.1-1.7-.15-.6 1.1-.55 2.25-.55 2.25m-2.95-.95c.55-.65 1.95-1.1 3.05-1.3-.4-.05-.75-.1-1.15-.15-.35-.05-.6-.15-.75-.2-.9.75-1.15 1.65-1.15 1.65m15.65.3c-1.15 2-1.25 3.95-1.25 3.95.6-1.25 2.05-2.3 3.65-3.2-.3-.15-.65-.25-.95-.35-.5-.15-.95-.25-1.45-.4m-7.15 1.9c.35-1.05 1.7-2 2.95-2.7-.7-.1-1.4-.2-2.15-.25-.9 1.35-.8 2.95-.8 2.95m3.45-2.6c-.65 1.75-.65 3.3-.65 3.3.45-1.05 1.5-2.1 2.7-2.95l-1.5-.3c-.2 0-.35-.05-.55-.05m-6.2 2.2c.35-1 1.65-1.95 2.8-2.65-.7-.05-1.4-.15-2.1-.2-.75 1.35-.7 2.85-.7 2.85m-5.15-3.6s-.95-.6-2.15-.7c-.25.35-.35.8-.4 1.3.85-.45 1.8-.75 2.55-.6m.65-.5s-.1-.7-.45-1.45c-.35.05-.65.15-.9.25.6.35 1.1.75 1.35 1.2m5.8-1.35V31h-.2c.05.15.15.3.2.45m-2.4.5s0-.4-.05-.9h-.5c.25.3.45.6.55.9m4.6-.65v-.2h-.1c.05.05.1.15.1.2m-6.4-.2h-.2c-.15 0-.3.05-.5.05.35.35.65.75.8 1.1 0 0 0-.5-.1-1.15m5.4.2v-.25h-.1c.05.1.1.15.1.25m-2.35.35s0-.25-.05-.65h-.35c.2.2.35.45.4.65" fill="#4b662b"/><g transform="rotate(-42.5 32 32)"><path fill="#ffdd7d" d="m21.8 24.5 18.9 17.3c2.2-1.8 4.2-3.7 6.2-5.7L28.1 18.8c-2 1.9-4.1 3.8-6.3 5.7"/><path fill="#dbb471" d="M40.8 49.4c2.1-1.6 4.2-3.3 6.2-5V36c-2 2-4.1 3.9-6.2 5.7v7.7"/><path id="a" fill="#8d9998" d="M12.1 24.7c1.1-.4 2-1 2.9-1.7.9-.7 1.7-1.4 2.6-2.2.9-.7 1.8-1.5 2.8-2 1-.6 2.3-.9 3.4-.7-1.1.2-2.1.7-3 1.4-.9.6-1.7 1.4-2.6 2.1-.9.7-1.8 1.5-2.8 2.1-1 .6-2.2 1-3.3 1"/><path fill="#e8e8e8" d="M39.8 33.1s4.9 1.4 16.3-1.6 6 29.8-14.8 29.8c-2.3 0-2.4-2.9 4-8.1 0 0-9 2.1-5.1-4.6 0 0-6.4 1.1-3.5-4 0 0 1.3-3.8.1-8.1.1 0 .8-2.2 3-3.4"/><g fill="#d1d1d1"><path d="M61.5 34.7c.2 8.8-6.8 23.4-20.7 23.4h-.2c-1.3 2.1-.7 3.3.7 3.3 15.8-.1 22.7-18.9 20.2-26.7"/><path d="M54.3 39.5c-3 10.8-15 11.7-15 11.7-.5 2.3.5 3.3 1.8 3.3 4.4.1 12.6-7.2 13.2-15m-8.4 0c-7.1 10-9.6 6.3-9.6 6.3-1.8 4 2.9 4 3.7 3.1 2.3-2.5 6-7.7 5.9-9.4"/></g><path d="M40.5 58.4c1.2-1.6 2.7-2.9 4.2-4.2 1.5-1.3 3-2.6 4.5-4 1.4-1.4 2.8-3 3.8-4.8 1-1.8 1.5-3.9 1.3-5.9-.2 2-.9 3.9-2 5.5s-2.4 3.1-3.8 4.5-2.9 2.7-4.3 4.2c-1.5 1.3-2.8 2.9-3.7 4.7m-1.2-7.2c.4-1.1 1-2 1.7-2.9.7-.9 1.4-1.7 2.2-2.6.7-.9 1.5-1.8 2-2.8.6-1 .9-2.3.7-3.4-.2 1.1-.7 2.1-1.4 3-.6.9-1.4 1.7-2.1 2.6-.7.9-1.5 1.8-2.1 2.8-.6 1-1 2.2-1 3.3" fill="#8d9998"/><path fill="#e8e8e8" d="M30.2 24.2s-1.4-4.9 1.6-16.3S2 1.9 2 22.7c0 2.3 2.9 2.4 8.1-4 0 0-2.1 9 4.6 5.1 0 0-1.1 6.4 4 3.5 0 0 3.8-1.3 8.1-.1 0-.1 2.2-.8 3.4-3"/><g fill="#d1d1d1"><path d="M28.6 2.5C19.8 2.3 5.2 9.3 5.2 23.2v.2c-2.1 1.2-3.2.7-3.2-.7C2 6.9 20.8 0 28.6 2.5"/><path d="M23.8 9.7c-10.8 3-11.7 15-11.7 15-2.3.5-3.3-.5-3.3-1.8-.1-4.4 7.2-12.6 15-13.2m0 8.4c-10 7.1-6.3 9.6-6.3 9.6-4 1.8-4-2.9-3.1-3.7 2.5-2.3 7.7-6 9.4-5.9"/></g><path fill="#8d9998" d="M4.9 23.5c1.6-1.2 2.9-2.7 4.2-4.2 1.3-1.5 2.6-3 4-4.5 1.4-1.4 3-2.8 4.8-3.8 1.8-1 3.9-1.5 5.9-1.3-2 .2-3.9.9-5.5 2s-3.1 2.4-4.5 3.8-2.7 2.9-4.2 4.3c-1.4 1.5-2.9 2.8-4.7 3.7"/><use xlink:href="#a"/></g><path fill="#f2b200" d="M28 11.3h5.8V42H28z"/><path fill="#ffce31" d="M30.8 12.6h1.8V42h-1.8z"/></svg>