<svg xmlns="http://www.w3.org/2000/svg" viewBox="0 0 64 64"><path d="m26.543 25.399-5.092 5.428-5.152-5.188 5-5.427Z" fill="#3e4347"/><path d="M15.152 10.054 6.24 19.506c-.364.374-.356.928.017 1.2l3.465 3.458 3.466 3.458c.374.364.836.357 1.2-.017l8.91-9.452c.365-.375.357-.929-.017-1.2l-6.93-6.916c-.283-.366-.836-.358-1.2.017M.24 25.87c-.364.374-.356.928.017 1.2l6.84 7.01a.892.892 0 0 0 1.292-.02s1.818-1.964 1.909-2.058l-8.056-8.1C2.057 23.905.24 25.87.24 25.87" fill="#94989b"/><path d="m9.632 24.258-3.465-3.459s1.135 1.923-1.813 2.334c-1.197.202-1.933.397-2.297.772l8.056 8.1c.363-.467.537-1.208.704-2.41.325-3.051 2.189-1.878 2.189-1.878l-3.374-3.46M36.277 9.011c-9.459-9.372-19.551 1.39-19.551 1.39l6.088 6.097s5.702-7.929 13.025-5.819c.835.265 1.579.624 1.853.435.365-.282-.76-1.466-1.415-2.103" fill="#3e4347"/><path d="m23.997 28.113-3.274 3.463s1.794 2.743 4.791 5.746c3.278 3.277 7.644 5.152 12.046 9.52 6.556 6.553 12.013 13.675 13.99 16.324.753 1.004.844.91 1.753-.026l2.728-2.9-32.034-32.127" fill="#f2b200"/><path d="m23.997 28.113 3.273-3.463s2.702 1.715 5.7 4.718c3.278 3.277 5.189 7.773 9.59 12.14 6.557 6.553 13.56 11.992 16.265 13.983 1.025.724.936.91.026 1.846l-2.728 2.9-32.126-32.124" fill="#ffce31"/><path d="M31.478 4.03s1.12-.673 2.576-1.39c3.731-1.702 7.71.985 9.522 2.226 1.265.84 3.12 2.075 5.721 3.495 2.528 1.38 3.376 2.902 5.848 7.088l-.314.364-1.386 1.593c-7.013-5.868-8.358-6.821-11.733-9.293-3.376-2.473-8.427-4.18-10.234-4.082z" fill="#94989b"/><path d="M55.145 15.449c-3.464-3.277-7.132-6.046-8.25-7.057-1.116-1.012-4.2-2.873-5.465-3.713-1.942-1.261-4.346-2.064-7.376-2.039 2.745-1.35 7.158-2.862 10.843-.364C52.277 7.193 56.3 14.109 56.3 14.109z" fill="#b8c2c4"/><path d="M58.79 14.862 45.488 28.124l-.013-.013-4.489 4.503-4.501 4.488.012.012-23.055 23.124 2.726 2.902c.91.936 1.002 1.029 1.755.024 1.977-2.648 7.433-9.77 13.99-16.323 4.4-4.368 8.765-6.244 12.043-9.52.3-.3.577-.593.852-.885.292-.275.586-.553.886-.853 3.277-3.278 5.152-7.642 9.52-12.044 2.19-2.19 4.304-3.964 6.433-5.82z" fill="#f2b200"/><path d="M55.873 11.945c-1.896 2.17-3.736 4.335-5.992 6.592-4.367 4.402-8.864 6.313-12.14 9.591-.214.214-.407.42-.608.63-.21.202-.417.395-.631.61-3.279 3.276-5.188 7.77-9.59 12.139-6.556 6.552-13.558 11.99-16.264 13.983-1.025.724-.936.91-.026 1.846l2.726 2.902 23.137-23.136 8.99-8.99 13.282-13.283Z" fill="#ffce31"/></svg>