<svg xmlns="http://www.w3.org/2000/svg" viewBox="0 0 64 64"><path fill="#f2b200" d="M0 0h64v64H0Z"/><g fill="#ffdf99" transform="translate(-.2)"><circle cx="32.2" cy="43.768" r="10.7"/><path d="M3.7 15.968c2.3 4.5 5.6 8.4 9.2 11.8 3.3 3.2 7.2 6.4 11.5 8.2-1.9-4.6-5.4-8.8-8.9-12.3-3.6-3.5-7.7-7.1-12.4-9 .2.4.4.9.6 1.3m38.7 15.7c-.9 1.4-1.7 2.8-2.4 4.3 4.6-1.9 8.8-5.5 12.3-8.9 3.5-3.5 7-7.6 8.9-12.3-3.6 1.5-6.9 4.1-9.9 6.6-3.3 3-6.4 6.4-8.9 10.3m21.4 10c-3.7-.4-7.4-.4-11 0-3.2.3-6.6.8-9.5 2.1 4.7 2 10.3 2.4 15.4 2.4 1.4 0 2.7-.1 4.1-.2.2 0 1.4-.1 1.4-.2v-2.8c0-.6.2-1.2-.4-1.3m-2.8-11.2c-3.5 1-7 2.3-10.3 4-2.9 1.4-5.8 3.1-8.1 5.4 5.1.2 10.5-1.5 15.2-3.3 1.4-.5 2.7-1.1 4.1-1.8.6-.3 2.3-.8 2.3-1.5v-3.5c-1.1.2-2.2.4-3.2.7M.6 45.868c3.7.4 7.4.4 11 0 3.2-.3 6.5-.8 9.5-2.1-4.7-2-10.3-2.4-15.4-2.4-1.4 0-2.7.1-4.1.2-.1 0-1.4.1-1.4.2v2.9c0 .5-.2 1.1.4 1.2m1.8-13.1c3.2 1.8 6.6 3.3 10.1 4.5 3 1 6.3 1.9 9.5 1.9-2.6-2.8-6.1-4.9-9.4-6.6-3.9-2-8.1-3.7-12.4-4.7v3.6c0 .3 1.9 1.2 2.2 1.3M16.508 7.177c.403 5.038 1.96 9.904 3.984 14.423 1.824 4.22 4.203 8.668 7.487 11.977.005-4.977-1.622-10.197-3.516-14.77-1.986-4.611-4.397-9.506-8.012-13.06.032.446.025.984.057 1.43m15.197-3.219c-1.556 4.808-1.98 9.9-1.838 14.849.07 4.596.565 9.616 2.333 13.93 1.91-4.596 2.404-10.041 2.404-14.99-.07-5.021-.424-10.466-2.404-15.133-.141.424-.354.92-.495 1.344"/><path d="M42.4 31.668c-.9 1.4-1.7 2.8-2.4 4.3 4.6-1.9 8.8-5.5 12.3-8.9 3.5-3.5 7-7.6 8.9-12.3-3.6 1.5-6.9 4.1-9.9 6.6-3.3 3-6.4 6.4-8.9 10.3m4.577-24.869c-3.277 3.847-5.617 8.388-7.38 13.015-1.694 4.273-3.158 9.101-3.176 13.763 3.523-3.516 6.064-8.357 7.958-12.93 1.856-4.665 3.613-9.831 3.57-14.9-.293.338-.679.714-.972 1.052"/></g><path d="M64 46.102c-.1 0 0 0 0 0M13.8 47.5c3.2-.783 6.6-1.398 10.2-1.398 3.6 0 6.8.95 9.6 1.342C50 49.85 64 46.102 64 46.102V64H0V48.507c4.4.28 9.2-.056 13.8-1.007" fill="#83bf4f"/></svg>