<svg xmlns="http://www.w3.org/2000/svg" viewBox="0 0 64 64"><circle cx="32" cy="32" r="30" fill="#4fd1d9"/><path fill="#fff" stroke="#fff" stroke-miterlimit="10" d="M32.445 10.646a10.1 10.1 0 0 0-3.601.512v-.008c-1.525.527-2.961 1.342-4.153 2.414a.126.126 0 0 1-.02.02l-.001.002c-2.615 3.04-3.323 6.858-2.192 10.252h-.007c.527 1.525 1.34 2.96 2.412 4.15l.02.022.001.002c1.723 1.481 3.696 2.328 5.7 2.598h-.106c-.016 2.21-.021 4.421-.037 6.632h.004v2.778h-8.928c-1.871 0-1.943 2.898 0 2.968h8.928v8.766c.072.636.43 1.132.933 1.203.504.212 1.01.14 1.514-.213l.285-.283c.072-.07.074-.07.074-.21.072-.072 0-.143.073-.214 0-.141.072-.212 0-.283v-8.766h8.926c1.871 0 1.943-2.898 0-2.968h-8.926c.015-.926.015-1.852.027-2.778v-6.619l-.166-.002c.66-.082 1.314-.207 1.951-.42v.012c1.525-.527 2.961-1.342 4.153-2.414l.021-.022v-.002c2.615-3.04 3.323-6.858 2.191-10.252h.008c-.527-1.525-1.342-2.96-2.414-4.152l-.02-.02h-.001c-1.996-1.716-4.324-2.612-6.649-2.704zm-.144 2.565c1.928.069 3.705.954 4.992 2.305l.033.029c.054.06.099.12.15.18.328.37.624.766.874 1.193.215.354.403.71.554 1.068.03.065.055.129.082.194.032.08.064.161.092.242.155.415.26.834.318 1.252.01.061.016.122.024.183.01.097.022.193.027.29.19 2.184-.682 4.244-2.15 5.708-.04.04-.086.073-.127.112-.013.014-.02.029-.033.043-.064.057-.13.105-.194.16a7.5 7.5 0 0 1-1.16.851c-.363.222-.73.412-1.097.567a6.255 6.255 0 0 1-.16.07 7.57 7.57 0 0 1-.274.104 5.93 5.93 0 0 1-1.24.316c-.065.01-.13.015-.194.024-.09.01-.181.021-.271.027-2.25.2-4.364-.735-5.838-2.281-.013-.012-.027-.02-.04-.032-.054-.061-.1-.123-.153-.185a7.56 7.56 0 0 1-.875-1.205 8.34 8.34 0 0 1-.55-1.06l-.068-.16c-.035-.092-.071-.182-.103-.272a5.947 5.947 0 0 1-.316-1.243 5.976 5.976 0 0 1-.026-.193c-.01-.09-.022-.181-.027-.271-.2-2.25.736-4.364 2.283-5.838.01-.012.019-.024.03-.035.052-.048.107-.086.16-.131a7.562 7.562 0 0 1 1.212-.891c.355-.216.71-.405 1.069-.557.064-.03.13-.052.195-.08.08-.031.161-.065.242-.093a5.938 5.938 0 0 1 1.25-.317c.062-.01.124-.015.186-.023.096-.01.19-.024.287-.03.28-.024.56-.03.836-.021z"/></svg>