<svg xmlns="http://www.w3.org/2000/svg" viewBox="0 0 64 64"><circle cx="32" cy="32" r="30" fill="#4fd1d9"/><path fill="#fff" stroke="#fff" stroke-miterlimit="10" d="M32 16c-1.9 0-1.9 2.9 0 2.9h11L30.66 31.24l.117.12a10.105 10.105 0 0 0-1.677-1.085l.007-.007c-1.45-.706-3.042-1.145-4.642-1.229h-.031c-4 .3-7.2 2.502-8.8 5.701l-.005-.006c-.706 1.451-1.144 3.043-1.229 4.643v.029c.301 4 2.5 7.2 5.7 8.8-.002 0-.004.003-.006.005 1.45.706 3.042 1.144 4.642 1.228h.03c3.999-.3 7.199-2.5 8.798-5.699l.006.006c.706-1.451 1.147-3.04 1.23-4.64v-.032c-.17-2.265-.966-4.26-2.193-5.867l.075.074C36.829 29.195 40.983 25.117 45.1 21v11c0 1.9 2.9 1.9 2.9 0V17.4c-.1-.8-.6-1.4-1.4-1.4H32zm-7.486 15.836c.056 0 .112.008.168.01.018-.001.035-.005.054-.006.086.004.166.017.25.023.48.03.956.098 1.422.219.414.1.808.225 1.178.375.055.02.108.043.162.064.09.04.18.078.266.12.4.183.767.402 1.101.654.053.038.103.08.155.12.07.056.143.111.21.17 1.733 1.45 2.566 3.607 2.514 5.743.001.017.005.032.006.049-.004.082-.015.16-.021.24a7.56 7.56 0 0 1-.235 1.47 8.348 8.348 0 0 1-.361 1.14c-.02.055-.043.108-.065.162a5.32 5.32 0 0 1-.119.265 5.94 5.94 0 0 1-.654 1.102c-.039.053-.08.103-.12.154-.056.07-.111.143-.171.211-1.45 1.733-3.608 2.565-5.744 2.514-.016 0-.03.003-.045.004-.07-.004-.136-.015-.205-.02a7.572 7.572 0 0 1-1.489-.228 8.264 8.264 0 0 1-1.148-.364c-.067-.024-.13-.053-.195-.08-.08-.034-.16-.068-.237-.105a5.953 5.953 0 0 1-1.109-.66c-.05-.037-.097-.076-.146-.114-.076-.06-.153-.12-.225-.183-1.727-1.45-2.557-3.603-2.506-5.735 0-.015-.003-.029-.004-.045.004-.08.016-.155.022-.234.03-.493.1-.982.226-1.46.098-.403.218-.787.363-1.147.025-.067.054-.13.08-.196.035-.079.069-.159.106-.236.184-.403.406-.773.66-1.11.037-.05.076-.097.113-.146.061-.075.12-.152.184-.224 1.41-1.68 3.485-2.518 5.559-2.516z"/></svg>