<svg xmlns="http://www.w3.org/2000/svg" viewBox="0 0 64 64"><circle cx="32" cy="32" r="30" fill="#83bf4f"/><path fill="#fff" stroke="#fff" stroke-miterlimit="10" d="M44.13 45.05c-1.4-1.076-2.914-3.112-3.215-5.04 3.275-4.105 5.716-9.195 4.947-14.506-.09-.629-.814-1.188-1.396-1.134-1.356.124-2.588.538-3.617 1.214v-3.93c0-.162-.025-.306-.06-.441-.349-3-2.514-5.04-5.39-5.198-1.627-.089-3.037.69-4.02 1.898-.978-1.114-2.363-1.809-3.982-1.898-1.621-.089-3.02.685-4 1.884a5.506 5.506 0 0 0-3.989-1.884c-1.869-.053-1.865 3.036 0 3.089 1.35.038 2.494 1.045 2.549 2.524 0 .009-.004.018-.004.026l.006 21.948c.002 1.991 2.9 1.991 2.898 0l-.005-21.862c.001-.029.007-.055.005-.086l-.001-.014c.194-3.301 4.923-3.295 5.097.014v21.948c0 1.991 2.898 1.991 2.898 0V21.654c.174-3.316 4.928-3.316 5.102 0v8.898a1.739 1.739 0 0 0 0 .368v8.05a38.165 38.165 0 0 1-3.576 3.543c-1.444 1.267.618 3.438 2.05 2.185a38.31 38.31 0 0 0 2.245-2.141c.855 2.069 2.368 3.913 3.998 5.165 1.52 1.17 2.963-1.512 1.463-2.665zm-1.08-17.262c.84 3.449-1.473 5.797-2.201 7.104v-4.343c.154-1.454 1.074-2.322 2.201-2.761z"/></svg>