<svg xmlns="http://www.w3.org/2000/svg" viewBox="0 0 64 64"><circle cx="32" cy="32" r="30" fill="#699635"/><path d="M47.6 43.5H16.5c-1.9 0-1.9 3 0 3h31.1c1.9 0 1.9-3 0-3zm-31.2-4.4h12c.8 0 1.5-.7 1.5-1.5v-.1c0-.5-.3-1.1-.7-1.3-8.5-4-6.7-18.8 2.9-18.8 4.3 0 7 3.5 8.1 7.2 1.3 4.6-1.4 9.3-5.3 11.3-.4.2-.7.8-.7 1.3v.2c0 .8.7 1.5 1.5 1.5h12c1.9 0 1.9-3 0-3h-8.2c1.2-1.2 2.3-2.7 2.5-3.1 1.2-2.2 1.6-5.2 1.2-7.7-1-6.1-5-10.8-11.1-10.8-5.6 0-9.9 4.6-11.4 9.5-.7 2.5-.5 5.6.5 8 .6 1.3 1.2 2.7 2.2 3.7 0 0 .2.2.4.5h-7.4c-1.9.1-1.9 3.1 0 3.1z" fill="#fff" stroke="#fff" stroke-miterlimit="10"/></svg>