<svg xmlns="http://www.w3.org/2000/svg" viewBox="0 0 64 64"><g fill="#4d5357"><path d="M44.25 24.606V49.71l6.5-7.702V7.453h-6.5v14.055zM28.75 7.453h-6.5v42.3c0 2.14 1.336 4.04 3.273 5.509l3.227-13.209V13.354Z"/><path d="M23.53 42.053c-.963-.4-2.97-.6-4.174-.6-10.92 0-10.92 16.6 0 16.6 4.738 0 9.394-3.7 9.394-8.3z"/><path d="M22.249 42.053h6.501v7.7h-6.501zm22-.045h6.5v7.699h-6.5z"/><path d="M45.53 42.006c-.964-.4-2.97-.6-4.175-.6-10.92 0-10.92 16.6 0 16.6 4.738 0 9.394-3.699 9.394-8.299zM22.25 7.454h28.5v6.85h-28.5z"/></g></svg>