<svg xmlns="http://www.w3.org/2000/svg" viewBox="0 0 64 64"><g fill="#4d5357"><path d="m50.75 2.324-28.5 9.4v42.3c0 2.14 1.335 4.04 3.273 5.509l3.226-13.21v-15l15.5-5.198v20.6l6.5-7.702zm-6.5 9.9v6.3l-15.5 5.3v-6.2z"/><path d="M23.53 46.324c-.963-.4-2.97-.6-4.174-.6-10.92 0-10.92 16.6 0 16.6 4.738 0 9.394-3.699 9.394-8.299z"/><path d="M22.25 46.324h6.5v7.701h-6.5zm22-7.301h6.5v7.7h-6.5z"/><path d="M45.53 39.021c-.964-.4-2.97-.6-4.175-.6-10.92 0-10.92 16.6 0 16.6 4.738 0 9.394-3.699 9.394-8.299z"/></g></svg>