<svg xmlns="http://www.w3.org/2000/svg" viewBox="0 0 64 64"><path fill="#89664c" d="M5.164 11.934c-.9.9-.9 2.3 0 3.1l43 43c.9.9 2.3.9 3.1 0l3.1-3.1c.9-.9.9-2.3 0-3.1l-43-43c-.9-.9-2.3-.9-3.1 0l-3.1 3.1"/><path d="M27.264 12.934c.9.9.9 2.3 0 3.2l-14.8 14.8c-.9.9-2.3.9-3.2 0l-6.7-6.7c-.9-.9-.9-2.3 0-3.2l14.8-14.8c.9-.9 2.3-.9 3.2 0l6.7 6.7" fill="#94989b"/><path d="M16.4 58.167c-2.143 2.144-8.016-3.729-5.872-5.873l37.94-37.939 5.872 5.873Z" fill="#89664c"/><path d="M15.655 57.328c-1.492 1.585-5.873-2.797-4.381-4.381l38.85-38.757 4.07 4.691z" fill="#ad8366"/><path d="M60.12 14.448c2.143-2.144-3.73-8.016-5.873-5.872l-5.78 5.779 5.873 5.873 5.78-5.78" fill="#89664c"/><path d="M59.28 13.702c1.585-1.491-2.796-5.872-4.38-4.38L49.12 15.1l4.38 4.38 5.78-5.779" fill="#ad8366"/><path d="M49.53 19.165C42.247 11.882 33.728 7.85 27.485 8.24c5.853-3.446 16.387-.13 24.71 8.259 8.39 8.323 11.706 18.858 8.26 24.71.39-6.242-3.642-14.76-10.925-22.044" fill="#94989b"/><path d="M48.88 19.815C41.595 12.532 33.337 8.24 27.484 8.24c5.333-2.926 15.412.846 23.735 9.17 8.389 8.388 12.16 18.467 9.234 23.734 0-5.787-4.291-14.046-11.575-21.329" fill="#a6aeb2"/><path fill="#5c6368" d="M45.108 15.328a1.453 1.453 0 0 0 0 2.081l6.242 6.243a1.453 1.453 0 0 0 2.081 0l3.122-3.121a1.453 1.453 0 0 0 0-2.081l-6.243-6.243a1.453 1.453 0 0 0-2.08 0l-3.122 3.121"/><path fill="#474d51" d="M46.018 15.914c-.52.52-.52 1.3-.065 1.755l5.137 5.138c.456.455 1.3.455 1.756-.065l2.731-2.862c.52-.52.52-1.3.065-1.755l-5.137-5.073c-.455-.455-1.3-.455-1.756.066l-2.73 2.796"/></svg>