<svg xmlns="http://www.w3.org/2000/svg" xmlns:xlink="http://www.w3.org/1999/xlink" viewBox="0 0 64 64"><g transform="rotate(-42.5 32 32)"><path fill="#ffdd7d" d="m21.8 24.5 18.9 17.3c2.2-1.8 4.2-3.7 6.2-5.7L28.1 18.8c-2 1.9-4.1 3.8-6.3 5.7"/><path fill="#dbb471" d="M40.8 49.4c2.1-1.6 4.2-3.3 6.2-5V36c-2 2-4.1 3.9-6.2 5.7v7.7"/><path id="a" fill="#8d9998" d="M12.1 24.7c1.1-.4 2-1 2.9-1.7.9-.7 1.7-1.4 2.6-2.2.9-.7 1.8-1.5 2.8-2 1-.6 2.3-.9 3.4-.7-1.1.2-2.1.7-3 1.4-.9.6-1.7 1.4-2.6 2.1-.9.7-1.8 1.5-2.8 2.1-1 .6-2.2 1-3.3 1"/><path fill="#e8e8e8" d="M39.8 33.1s4.9 1.4 16.3-1.6 6 29.8-14.8 29.8c-2.3 0-2.4-2.9 4-8.1 0 0-9 2.1-5.1-4.6 0 0-6.4 1.1-3.5-4 0 0 1.3-3.8.1-8.1.1 0 .8-2.2 3-3.4"/><g fill="#d1d1d1"><path d="M61.5 34.7c.2 8.8-6.8 23.4-20.7 23.4h-.2c-1.3 2.1-.7 3.3.7 3.3 15.8-.1 22.7-18.9 20.2-26.7"/><path d="M54.3 39.5c-3 10.8-15 11.7-15 11.7-.5 2.3.5 3.3 1.8 3.3 4.4.1 12.6-7.2 13.2-15m-8.4 0c-7.1 10-9.6 6.3-9.6 6.3-1.8 4 2.9 4 3.7 3.1 2.3-2.5 6-7.7 5.9-9.4"/></g><path d="M40.5 58.4c1.2-1.6 2.7-2.9 4.2-4.2 1.5-1.3 3-2.6 4.5-4 1.4-1.4 2.8-3 3.8-4.8 1-1.8 1.5-3.9 1.3-5.9-.2 2-.9 3.9-2 5.5s-2.4 3.1-3.8 4.5-2.9 2.7-4.3 4.2c-1.5 1.3-2.8 2.9-3.7 4.7m-1.2-7.2c.4-1.1 1-2 1.7-2.9.7-.9 1.4-1.7 2.2-2.6.7-.9 1.5-1.8 2-2.8.6-1 .9-2.3.7-3.4-.2 1.1-.7 2.1-1.4 3-.6.9-1.4 1.7-2.1 2.6-.7.9-1.5 1.8-2.1 2.8-.6 1-1 2.2-1 3.3" fill="#8d9998"/><path fill="#e8e8e8" d="M30.2 24.2s-1.4-4.9 1.6-16.3S2 1.9 2 22.7c0 2.3 2.9 2.4 8.1-4 0 0-2.1 9 4.6 5.1 0 0-1.1 6.4 4 3.5 0 0 3.8-1.3 8.1-.1 0-.1 2.2-.8 3.4-3"/><g fill="#d1d1d1"><path d="M28.6 2.5C19.8 2.3 5.2 9.3 5.2 23.2v.2c-2.1 1.2-3.2.7-3.2-.7C2 6.9 20.8 0 28.6 2.5"/><path d="M23.8 9.7c-10.8 3-11.7 15-11.7 15-2.3.5-3.3-.5-3.3-1.8-.1-4.4 7.2-12.6 15-13.2m0 8.4c-10 7.1-6.3 9.6-6.3 9.6-4 1.8-4-2.9-3.1-3.7 2.5-2.3 7.7-6 9.4-5.9"/></g><path fill="#8d9998" d="M4.9 23.5c1.6-1.2 2.9-2.7 4.2-4.2 1.3-1.5 2.6-3 4-4.5 1.4-1.4 3-2.8 4.8-3.8 1.8-1 3.9-1.5 5.9-1.3-2 .2-3.9.9-5.5 2s-3.1 2.4-4.5 3.8-2.7 2.9-4.2 4.3c-1.4 1.5-2.9 2.8-4.7 3.7"/><use xlink:href="#a"/></g><path fill="#f2b200" d="M28 11.3h5.8V62H28z"/><path fill="#ffce31" d="M30.8 12.6h1.8V62h-1.8z"/><path fill="#f2b200" d="M36.8 11.3c0 1.8-2.6 3.3-5.8 3.3s-6-1.5-6-3.3S27.6 8 30.8 8s6 1.5 6 3.3"/><path fill="#ffce31" d="M33.8 10.5c0-.5-.6-.8-1.4-.8-.8 0-1.4.4-1.4.8 0 .5.6.8 1.4.8.8 0 1.4-.4 1.4-.8"/></svg>