<svg xmlns="http://www.w3.org/2000/svg" viewBox="0 0 64 64"><g fill="#eda454"><path d="M36.8 51c-.3-1.1 1.1-3.8-1.6-4.5C33.1 46 32 48 32 48s-1.1-2-3.2-1.5c-2.7.7-1.3 3.4-1.6 4.5-.7 2.8-3.2 2.8-3.2 2.8s1.2 1.8 3.2 1.8c1.4 0 1.8-.8 1.8-.8-.3 3 3 7.2 3 7.2s3.4-4.2 3-7.2c0 0 .4.8 1.8.8 2 0 3.2-1.8 3.2-1.8s-2.5 0-3.2-2.8"/><path d="M55.5 25.7c-7.3-5.9-17.5.5-19.8 10.9h-1.1c.8-2.8 2.4-6.7 5.6-10.3 8-9.3-6-14.6-8.2-24.3-2.2 9.7-16.2 15-8.1 24.3 3.2 3.6 4.8 7.5 5.6 10.3h-1.1C26.1 26.1 15.8 19.7 8.5 25.7c-6.9 5.6-2.7 14.5 3.6 16.1 0 0-2.4-7.5 5.1-7.5 2.3 0 4 1 5.1 2.3h-.9v.9h1.4v.9h-1.4V40h1.4v1h-1.4v.9h1.4c-.5.6-1.3.9-2.3.9-3.6 0-3.1-3.5-3.1-3.5-3.2.5-6.5 7.2-1.4 10.9 5.4 4 11.9-1 12.7-8.3h.6v4s1.9 0 2.7 1.4c.8-1.4 2.7-1.4 2.7-1.4v-4h.6c.9 7.3 7.3 12.3 12.7 8.3 5.1-3.7 1.8-10.4-1.4-10.9 0 0 .5 3.5-3.1 3.5-1.1 0-1.8-.4-2.3-.9h1.4V41h-1.4v-.9h1.4v-1.6h-1.4v-.9h1.4v-.9h-.9c1.1-1.3 2.8-2.3 5.1-2.3 7.5 0 5.1 7.5 5.1 7.5 6.2-1.7 10.4-10.6 3.6-16.2"/></g></svg>