<svg xmlns="http://www.w3.org/2000/svg" viewBox="0 0 64 64"><path fill="#594640" d="M5.4 39.6 48.9 59V47.8L5.4 28.4z"/><path fill="#3f2e29" d="M48.9 59 64 45.7V34.5L48.9 47.8z"/><path fill="#6d5650" d="m0 24.9 5.4 14.7V28.4L0 13.7z"/><path fill="#89664c" d="m0 13.7 5.4 14.7 43.5 19.4L64 34.5 32 9.8 13.1 5z"/><path fill="#3f2e29" d="m2.1 13.2 5.1 13.5 41.5 18.9 13.5-11.4-30.6-23.9-18.5-4.6z"/><path fill="#75a843" d="M29.1 15.8c-3 2-6.2 3.6-9.8 4.5-1.8.4-3.6.7-5.4.7-.9 0-1.8 0-2.8-.1-.5-.1-.9-.1-1.4-.2-.2 0-.5-.1-.7-.2-.2-.1-.4-.1-.7-.2l.5-1.4c.1.1.4.1.6.2.2.1.4.1.6.2.4.1.8.2 1.3.3.8.2 1.7.3 2.6.3 1.7.1 3.5 0 5.2-.3 3.6-.7 6.9-2 10-3.8"/><path fill="#83bf4f" d="M20.6 17.4c-.2 2.4-2.2 2.7-2.2 2.7s-2.1-1-1.8-3.4c.2-1.6 2.4-4 2.4-4s1.8 3.1 1.6 4.7"/><path fill="#871212" d="M26.9 14.3c-2.2 2.2-3.4 3.2-2.7 5 .7 1.8 6.5 2.7 6.9-.6.4-3.3 2.5-4 2.5-4s-3.1-4-6.7-.4"/><g fill="#991d1d"><path d="M28.6 20.1c-3.1-.3-4.6.2-5.4-1.6-.7-1.8 3.9-7.8 6.1-5.2 2.6 3.2 4.4 3.6 4.4 3.6s-.5 3.6-5.1 3.2"/><path d="M31 19.4c1.1-.5 0-5.7 1.4-7.3 0 0-2.6-1.6-3.9 0-.8.9-1.2 8.8 2.5 7.3"/></g><path fill="#ad2727" d="M29 17.2c-2.4 4.5-5.2 3.8-6.2 1.4s.2-6 3.2-6.5 4.8-2.4 4.8-2.4 0 4-1.8 7.5"/><path fill="#cc3636" d="M28.1 14.3c-4.7-2-6.3 2-5.3 4.4 1 2.4 4 3.4 6.7 2.3 2.7-1.2 4.7-1.1 4.7-1.1s-2.7-4.2-6.1-5.6"/><path fill="#75a843" d="M24 18.3c1.6 3.7-.5 2.7-1.5.3-2.4-6 2.8-7.9 2.8-7.9S22.6 15 24 18.3"/><path fill="#83bf4f" d="M24 18.3c-.8-.8-2.4-3.2-1.9-.7 1 5.1 7.6 4.5 7.6 4.5s-3.3-1.3-5.7-3.8"/><path fill="#75a843" d="M29.2 25.5c-3.5-.9-6.8-2.3-9.8-4.4-1.5-1-2.9-2.3-4.1-3.6-.6-.7-1.2-1.4-1.7-2.2-.3-.4-.5-.8-.8-1.2l-.3-.6c-.1-.2-.2-.4-.3-.7l1.4-.5c.1.2.1.4.2.6l.3.6c.2.4.4.8.6 1.1.5.8 1 1.5 1.5 2.2 1.1 1.4 2.4 2.6 3.7 3.8 2.7 2.1 5.9 3.8 9.3 4.9"/><path fill="#871212" d="M28.8 22.8c-3.1-.2-4.6-.5-5.5 1.3-.8 1.8 2.4 6.8 5.1 4.8 2.6-1.9 4.6-.8 4.6-.8s.8-4.9-4.2-5.3"/><path fill="#991d1d" d="M25.7 28c-1.9-2.5-3.3-3.4-2.4-5.2.8-1.8 8.3-2.2 7.9 1.1-.6 4.2.3 5.7.3 5.7s-3 2.2-5.8-1.6"/><path fill="#ad2727" d="M27.8 29.3c1.1.5 4.2-3.8 6.2-3.8 0 0-.5-3.1-2.6-3-1.1.1-7.1 5.1-3.6 6.8"/><path fill="#e24b4b" d="M28.1 26.3c-4.9 1.2-6.3-1.4-5.2-3.8 1.1-2.4 4.5-3.9 6.8-1.9 2.3 1.9 5 2.1 5 2.1s-2.9 2.7-6.6 3.6"/><path fill="#f25151" d="M29.6 23.8c-1.7-4.9-5.7-3.5-6.8-1.1-1.1 2.4.2 5.3 2.8 6.6 2.7 1.3 4 2.8 4 2.8s1.2-4.8 0-8.3"/><path fill="#75a843" d="M23.9 23.3c-1.7 3.7-2.3 1.4-1.2-1 2.7-5.8 7.6-3.2 7.6-3.2s-4.9 1-6.4 4.2"/><path fill="#83bf4f" d="M23.9 23.3c.1-1.2.7-4-.8-1.9-3 4.1 1.8 8.8 1.8 8.8s-1.2-3.4-1-6.9"/><path fill="#b7925e" d="m6 36.5 41.7 18.6v-2L6 34.5z"/><path fill="#dbb471" d="m8.4 40.1 2.5 1.1v-7.6l-2.5-1.2z"/><path fill="#3f2e29" d="m10.9 41.2 1.3-.7v-1l-.6-.3v-1.4l.6-.3v-4.6l-1.3.7z"/><path fill="#89664c" d="m8.4 32.4 2.5 1.2 1.3-.7-2.6-1.1z"/><path fill="#dbb471" d="m42.4 55 2.5 1.2v-7.6l-2.5-1.2z"/><path fill="#3f2e29" d="m44.9 56.2 1.3-.8v-1l-.6-.3v-1.4l.6-.3v-4.6l-1.3.8z"/><path fill="#89664c" d="m42.4 47.4 2.5 1.2 1.3-.8-2.6-1.1z"/></svg>