<svg xmlns="http://www.w3.org/2000/svg" viewBox="0 0 64 64"><path d="M48.934 14.708c-5.778-5.87-15.165-5.944-20.948-.165-4.818 4.743-5.658 11.95-2.747 17.624L3.861 53.47l-3.1 7.277 1.38 1.402 5.48-.479 23.482-23.459c5.625 3.174 12.846 2.362 17.578-2.382 5.956-5.777 6.03-15.252.253-21.121m-4.256 10.571c-1.752 1.725-4.62 1.702-6.345-.05-1.725-1.752-1.702-4.62.05-6.432 1.753-1.725 4.621-1.702 6.346.05 1.812 1.753 1.789 4.621-.05 6.432" fill="#eda454"/><path d="m12.776 58.32 1.227-1.293.014-1.739-6.396 6.382 3.828-.404 1.314-1.294zm9.025-9.055 1.227-1.295.014-1.738-7.71 7.763 1.738.013 1.227-1.294 1.738.014 1.752-1.725zm3.93-13.356c.438-.431.179-.607.007-.87-.259-.262-.343-.524-.782-.006L5.944 53.921c-.438.43-.179.607-.007.869.259.263.343.524.782.006L25.731 35.91m2.587 2.628c.438-.431.179-.607.007-.87-.259-.262-.343-.523-.782-.005l-19.1 18.886c-.437.431-.178.607-.006.87.259.262.344.524.782.006l19.1-18.887M48.057 15.57c-5.26-5.344-13.866-5.412-19.21-.151-4.03 3.967-5.032 9.87-3.072 14.84a13.004 13.004 0 0 1 3.065-13.884c5.082-5.089 13.34-5.024 18.341.057 5.001 5.169 4.936 13.426-.145 18.428-3.767 3.708-9.251 4.621-13.844 2.846 4.939 2.039 10.77 1.128 14.8-2.839 5.257-5.26 5.325-13.953.065-19.297" fill="#cc7f2b"/><path fill="#3e4347" d="M10.1 7.824c0-.6.5-1.1 1.1-1.1h44.9c.6 0 1.1.5 1.1 1.1v44.9c0 .6-.5 1.1-1.1 1.1H25.4l-6.1 6.7h42.5c1.2 0 2.2-1 2.2-2.2v-56.1c0-1.3-1-2.3-2.2-2.3H5.7c-1.2 0-2.2 1-2.2 2.2v43.7l6.6-6.393V7.824"/></svg>