<svg xmlns="http://www.w3.org/2000/svg" viewBox="0 0 64 64"><circle cx="31.9" cy="45" r="17" fill="#d0d0d0"/><path fill="#fff" d="M31.9 30c-8.3 0-15 6.7-15 15s6.7 15 15 15 15-6.7 15-15-6.7-15-15-15"/><circle cx="31.9" cy="25.5" r="13" fill="#d0d0d0"/><path fill="#fff" d="M31.9 14.5c-6.1 0-11 4.9-11 11s4.9 11 11 11 11-4.9 11-11c0-6-4.9-11-11-11"/><circle cx="31.9" cy="26.4" r="2.5" fill="#ff8736"/><g fill="#3e4347"><circle cx="26.5" cy="21.8" r="2"/><circle cx="37.3" cy="21.8" r="2"/></g><g fill="#94989b"><ellipse cx="36.2" cy="14.5" rx="2.6" ry="10.1" transform="rotate(-65.001 36.154 14.527)"/><ellipse cx="40.3" cy="5.6" rx="1.9" ry="7.6" transform="rotate(-65.001 40.3 5.636)"/></g><path fill="#3e4347" d="M39.5 7.4c-3.5-1.7-6.1-3.7-6.1-4.7l-2.3 9.2c-.3.7 1.7 2.4 4.5 3.7s5.4 1.8 5.7 1.1L47 9c-.7.7-4 0-7.5-1.6"/><path d="m62 33.4-5.8-1.7c1-1.1 2-2.1 3-3.2.3-.4.4-.9 0-1.3-.3-.3-1-.4-1.3 0-1.4 1.5-2.7 2.9-4.1 4.4v-8.4H52v10.4L46.9 39c-.3.4-.4.9 0 1.3.3.3 1 .4 1.3 0 1.9-2 3.8-4 5.6-6 .3-.3.6-.7.9-1l6.7 1.9.6-1.8m-50 .1V23.1h-1.8v8.4c-1.4-1.5-2.7-2.9-4.1-4.4-.3-.4-1-.3-1.3 0-.4.4-.3.9 0 1.3 1 1.1 2 2.1 3 3.2L2 33.4l.5 1.8 6.7-1.9c.4.4.8.8 1.2 1.3l5.4 5.7c.3.4 1 .3 1.3 0 .4-.4.3-.9 0-1.3-1.7-1.9-3.4-3.7-5.1-5.5" fill="#89664c"/><path d="m30.3 46.3-1.1-3.2 2.8-2 2.7 2-1 3.2zm0 9.8-1.1-3.2 2.8-2 2.7 2-1 3.2zM31.9 34c-3.1 0-6-1.3-8.1-3.6-.4-.4-.3-1 .1-1.4.4-.4 1-.3 1.4.1C27 31 29.5 32 32 32s4.9-1.1 6.7-2.9c.4-.4 1-.4 1.4-.1.4.4.4 1 .1 1.4C38 32.6 35 34 31.9 34" fill="#3e4347"/></svg>