<svg xmlns="http://www.w3.org/2000/svg" viewBox="0 0 64 64"><g fill="#ffce31"><path d="m14.7 44.4 4.8-4.9c-1.7-.4-3.3-1-4.7-2l-.1 6.9M30.3 6.6l-4.8 4.9c1.7.4 3.3 1 4.7 2l.1-6.9M3.6 33.3l6.9-.1c-.9-1.4-1.6-3-2-4.7l-4.9 4.8m37.8-15.6-6.9.1c.9 1.4 1.6 3 2 4.7l4.9-4.8m-37.8 0 4.9 4.8c.4-1.7 1-3.3 2-4.7l-6.9-.1m37.8 15.6-4.9-4.8c-.4 1.7-1 3.3-2 4.7l6.9.1M14.7 6.6l.1 6.9c1.4-.9 3-1.6 4.7-2l-4.8-4.9m15.6 37.8-.1-6.9c-1.4.9-3 1.6-4.7 2l4.8 4.9M10.7 33.7 8 40l6.3-2.7c-1.4-1-2.6-2.2-3.6-3.6m23.6-16.4L37 11l-6.3 2.7c1.4 1 2.6 2.2 3.6 3.6M8.4 22.9 2 25.5l6.4 2.6c-.1-.8-.2-1.7-.2-2.6-.1-.9 0-1.7.2-2.6m28.2 5.2 6.4-2.6-6.4-2.6c.2.8.2 1.7.2 2.6 0 .9 0 1.7-.2 2.6M14.3 13.7 8 11l2.7 6.3c1-1.4 2.2-2.6 3.6-3.6m16.4 23.6L37 40l-2.7-6.3c-1 1.4-2.2 2.6-3.6 3.6m-5.6-25.9L22.5 5l-2.6 6.4c.8-.1 1.7-.2 2.6-.2.9-.1 1.7 0 2.6.2m-5.2 28.2 2.6 6.4 2.6-6.4c-.8.1-1.7.2-2.6.2-.9 0-1.7 0-2.6-.2"/><circle cx="22.5" cy="25.5" r="13"/></g><path fill="#fff" d="M17.2 57.1c-1 0-2-.2-2.9-.5-3.8-1.3-6.4-4.9-6.4-9 0-2.7 1.2-5.4 3.2-7.2.5-.5 1.1-.9 1.7-1.2l.6-2.2c1.5-5.5 6.5-9.3 12.1-9.3.6 0 1.1 0 1.8.1l1.5.3.2-.5c2.3-4.2 6.6-6.7 11.2-6.7C47.3 20.9 53 26.8 53 34v1.3c.5.2 1.1.5 1.6.8 3.4 2 5.5 5.8 5.5 9.8 0 5.3-3.5 9.8-8.6 11-.8.2-1.7.3-2.5.3H17.2z"/><path fill="#75d6ff" d="M40.3 22.8c6 0 10.9 5 10.9 11.2v.9c-2.5.2-4.8 1.2-6.6 2.8 1.3-.8 2.9-1.2 4.6-1.2.6 0 1.2.1 1.8.2 1 .2 1.9.6 2.8 1.1 2.7 1.6 4.6 4.6 4.6 8.1 0 4.4-3 8.2-7.1 9.1-.7.2-1.3.2-2.1.2h-32c-.8 0-1.6-.1-2.3-.4-3-1-5.1-3.9-5.1-7.2 0-2.3 1-4.3 2.6-5.7.7-.6 1.5-1.1 2.4-1.5.8-.3 1.6-.4 2.5-.4 2.4 0 4.5 1.2 5.9 3h.1c-1.6-3-4.5-5.1-8-5.4 1.3-4.6 5.4-8 10.3-8 .5 0 1 .1 1.5.1 1 .1 1.9.4 2.8.8 3.3 1.5 5.7 4.7 6.3 8.5v-.1c0-4.3-2.2-8.1-5.4-10.3 1.8-3.5 5.3-5.8 9.5-5.8m0-3.8c-5 0-9.7 2.6-12.4 7h-.3c-.8-.1-1.4-.2-2.1-.2-6.4 0-12.2 4.4-13.9 10.7l-.5 1.5c-.5.3-.9.6-1.3 1C7.4 41.1 6 44.3 6 47.6c0 4.9 3.1 9.3 7.7 10.8 1.1.4 2.3.6 3.5.6h31.9c1 0 1.9-.1 2.9-.3 5.9-1.4 10-6.7 10-12.8 0-4.7-2.5-9.1-6.5-11.4l-.6-.3v-.1c0-8.4-6.5-15.1-14.6-15.1z"/></svg>