<svg xmlns="http://www.w3.org/2000/svg" viewBox="0 0 64 64"><path d="M57.1 2c3.1 4.3 4.9 8.2 4.9 11.4 0 2.7-2.2 5-4.9 5s-4.9-2.2-4.9-5c0-3.2 1.8-7.2 4.9-11.4M40.4 12.1c3.1 4.3 4.9 8.2 4.9 11.4 0 2.7-2.2 5-4.9 5s-4.9-2.2-4.9-5c-.1-3.2 1.8-7.2 4.9-11.4M23.6 2c3.1 4.3 4.9 8.2 4.9 11.4 0 2.7-2.2 5-4.9 5s-4.9-2.2-4.9-5c0-3.2 1.9-7.2 4.9-11.4M6.9 12.1c3.1 4.3 4.9 8.2 4.9 11.4 0 2.7-2.2 5-4.9 5S2 26.3 2 23.5c0-3.2 1.8-7.2 4.9-11.4M57.1 32c3.1 4.3 4.9 8.2 4.9 11.4 0 2.7-2.2 5-4.9 5s-4.9-2.2-4.9-5c0-3.2 1.8-7.2 4.9-11.4M40.4 42.1c3.1 4.3 4.9 8.2 4.9 11.4 0 2.7-2.2 5-4.9 5s-4.9-2.2-4.9-5c-.1-3.2 1.8-7.2 4.9-11.4M23.6 32c3.1 4.3 4.9 8.2 4.9 11.4 0 2.7-2.2 5-4.9 5s-4.9-2.2-4.9-5c0-3.2 1.9-7.2 4.9-11.4M6.9 42.1c3.1 4.3 4.9 8.2 4.9 11.4 0 2.7-2.2 5-4.9 5S2 56.3 2 53.5c0-3.2 1.8-7.2 4.9-11.4" fill="#75d6ff"/></svg>