<svg xmlns="http://www.w3.org/2000/svg" viewBox="0 0 64 64"><g transform="translate(-.6)"><circle r="17" cy="45" cx="32.5" fill="#d0d0d0"/><path d="M32.5 30c-8.3 0-15 6.7-15 15s6.7 15 15 15 15-6.7 15-15-6.7-15-15-15" fill="#fff"/><circle r="13" cy="25.5" cx="32.5" fill="#d0d0d0"/><path d="M32.5 14.5c-6.1 0-11 4.9-11 11s4.9 11 11 11 11-4.9 11-11c0-6-4.9-11-11-11" fill="#fff"/><circle r="2.5" cy="26.4" cx="32.5" fill="#ff8736"/><g fill="#3e4347"><circle r="2" cy="21.8" cx="27.1"/><circle r="2" cy="21.8" cx="37.9"/><path d="m30.9 46.3-1.1-3.2 2.8-2 2.7 2-1 3.2zm0 9.8-1.1-3.2 2.8-2 2.7 2-1 3.2zM32.5 34c-3.1 0-6-1.3-8.1-3.6-1.2-1.3.3-2.6 1.5-1.4 1.7 1.9 4.2 2.9 6.7 2.9s4.9-1.1 6.7-2.9c1.2-1.3 2.7 0 1.5 1.4-2.2 2.2-5.2 3.6-8.3 3.6"/></g><path d="M21.2 31.9c-1.5-1.1-3.6 3.3-2.8 3.7 11.4 6 21 1.5 28.4.1.9 0-1.4-4.2-2.9-3.7-13.1 4.2-17.6 3.4-22.7-.1" fill="#cc2e45"/><path d="M43.8 48.9c-2.6-1-7 1.3-6.4 0 1.7-3.4 3.5-12.6.8-15.3-1.1-1.1 4.2-2.6 5.4-1.6 3.1 2.9 1.9 17.5.2 16.9" fill="#ed4c5c"/></g><path d="m15.797 11.22 3.15-4.95-4.95 3.15-1.35-8.85-1.35 8.85-4.95-3.15 3.15 4.95-8.85 1.35 8.85 1.35-3.15 4.95 4.95-3.15 1.35 8.85 1.35-8.85 4.95 3.15-3.15-4.95 8.85-1.35zM56.46 8.663l2.55-3.75-3.75 2.55-1.05-6.75-1.05 6.75-3.75-2.55 2.55 3.75-6.75 1.05 6.75 1.05-2.55 3.75 3.75-2.55 1.05 6.75 1.05-6.75 3.75 2.55-2.55-3.75 6.75-1.05zM13.724 51.698l2.85-4.35-4.35 2.85-1.2-7.8-1.2 7.8-4.35-2.85 2.85 4.35-7.8 1.2 7.8 1.2-2.85 4.35 4.35-2.85 1.2 7.8 1.2-7.8 4.35 2.85-2.85-4.35 7.8-1.2zm41.952-24.004 2.85-4.35-4.35 2.85-1.2-7.8-1.2 7.8-4.35-2.85 2.85 4.35-7.8 1.2 7.8 1.2-2.85 4.35 4.35-2.85 1.2 7.8 1.2-7.8 4.35 2.85-2.85-4.35 7.8-1.2zM54.27 49.285l3.15-4.95-4.95 3.15-1.35-8.85-1.35 8.85-4.95-3.15 3.15 4.95-8.85 1.35 8.85 1.35-3.15 4.95 4.95-3.15 1.35 8.85 1.35-8.85 4.95 3.15-3.15-4.95 8.85-1.35zM13.957 31.896l2.55-3.75-3.75 2.55-1.05-6.75-1.05 6.75-3.75-2.55 2.55 3.75-6.75 1.05 6.75 1.05-2.55 3.75 3.75-2.55 1.05 6.75 1.05-6.75 3.75 2.55-2.55-3.75 6.75-1.05zM38.531 6.574l2.12-3.117-3.117 2.12-.873-5.612-.873 5.612-3.117-2.12 2.12 3.117-5.612.873 5.611.873-2.12 3.117 3.118-2.12.873 5.612.873-5.611 3.117 2.12-2.12-3.118 5.612-.873z" fill="#a2cbdb"/></svg>