<svg xmlns="http://www.w3.org/2000/svg" viewBox="0 0 64 64"><path fill="#89664c" d="M55.2 61.5c2.3 2.3 8.6-4 6.3-6.3L25.3 19 19 25.3l36.2 36.2z"/><path fill="#ad8366" d="M56 60.6c1.6 1.7 6.3-3 4.7-4.7L24.5 19.8l-4.7 4.7L56 60.6z"/><path fill="#89664c" d="M8.3 14.6c-2.3-2.3 4-8.6 6.3-6.3l6.2 6.2-6.3 6.3-6.2-6.2"/><path fill="#ad8366" d="M9.2 13.8c-1.7-1.6 3-6.3 4.7-4.7l6.2 6.2-4.7 4.7-6.2-6.2"/><path fill="#94989b" d="M20.9 20.9C32.1 9.7 45.2 3.5 54.8 4.1c-9-5.3-25.2-.2-38 12.7-12.9 12.8-18 29-12.7 38-.6-9.6 5.6-22.7 16.8-33.9"/><path fill="#a6aeb2" d="M21.9 21.9C33.1 10.7 45.8 4.1 54.8 4.1 46.6-.4 31.1 5.4 18.3 18.2 5.4 31.1-.4 46.6 4.1 54.7c0-8.9 6.6-21.6 17.8-32.8"/><path fill="#5c6368" d="M27.7 15c.9.9.9 2.3 0 3.2l-9.6 9.6c-.9.9-2.3.9-3.2 0L10.1 23c-.9-.9-.9-2.3 0-3.2l9.6-9.6c.9-.9 2.3-.9 3.2 0l4.8 4.8"/><path fill="#474d51" d="M26.3 15.9c.8.8.8 2 .1 2.7l-7.9 7.9c-.7.7-2 .7-2.7-.1L11.6 22c-.8-.8-.8-2-.1-2.7l7.9-7.8c.7-.7 2-.7 2.7.1l4.2 4.3"/></svg>