<svg xmlns="http://www.w3.org/2000/svg" viewBox="0 0 64 64"><path d="M2 50.8c0-1 .8-1.9 1.9-1.9h56.2c1 0 1.9.8 1.9 1.9v1.9c0 1-.8 1.9-1.9 1.9H3.9c-1 0-1.9-.8-1.9-1.9v-1.9" fill="#b2c1c0"/><ellipse cx="-51.7" cy="55.5" rx="6.6" ry="6.5" transform="scale(-1 1)" fill="#3e4347"/><ellipse cx="-51.7" cy="55.5" rx="3.8" ry="3.7" transform="scale(-1 1)" fill="#b2c1c0"/><ellipse cx="-25.2" cy="55.5" rx="6.6" ry="6.5" transform="scale(-1 1)" fill="#3e4347"/><ellipse cx="-25.2" cy="55.5" rx="3.8" ry="3.7" transform="scale(-1 1)" fill="#b2c1c0"/><ellipse cx="-11.2" cy="55.5" rx="6.6" ry="6.5" transform="scale(-1 1)" fill="#3e4347"/><ellipse cx="-11.2" cy="55.5" rx="3.8" ry="3.7" transform="scale(-1 1)" fill="#b2c1c0"/><path d="M48.9 26.5c4.5 0 5.6 0 5.6 7.5 0 5.6 5.6 5.6 5.6 11.2v3.7H41.3V26.5h7.6" fill="#62727a"/><path d="M58.2 43.3h-1.9V47h1.9z" fill="#ffce31"/><path d="M51.2 39.6c1.1 0 1.7.8 1.3 1.8l-1.6 4c-.4 1-1.6 1.7-2.7 1.7h-3c-1.1 0-2-.8-2-1.9v-3.7c0-1 .9-1.9 2-1.9h6" fill="#5f606c"/><path d="M43.2 28.3h7.5s1.9.2 1.9 2.8v4.5s0 2.1-1.9 2.1h-7.5v-9.4" fill="#3e4347"/><circle r=".9" cy="51.7" cx="-51.7" transform="scale(-1 1)" fill="#3e4347"/><circle r=".9" cy="53.6" cx="-54.9" transform="scale(-1 1)" fill="#3e4347"/><circle r=".9" cy="57.3" cx="-54.9" transform="scale(-1 1)" fill="#3e4347"/><circle r=".9" cy="59.2" cx="-51.7" transform="scale(-1 1)" fill="#3e4347"/><circle r=".9" cy="57.3" cx="-48.4" transform="scale(-1 1)" fill="#3e4347"/><circle r=".9" cy="53.6" cx="-48.4" transform="scale(-1 1)" fill="#3e4347"/><circle r="1.9" cx="-51.7" cy="55.5" transform="scale(-1 1)" fill="#62727a"/><g transform="matrix(-1 0 0 1 64 0)" fill="#3e4347"><circle cx="38.8" cy="51.7" r=".9"/><circle cx="35.5" cy="53.6" r=".9"/><circle cx="35.5" cy="57.3" r=".9"/><circle cx="38.8" cy="59.2" r=".9"/><circle cx="42" cy="57.3" r=".9"/><circle cx="42" cy="53.6" r=".9"/></g><circle r="1.9" cx="-25.2" cy="55.5" transform="scale(-1 1)" fill="#62727a"/><g transform="matrix(-1 0 0 1 64 0)" fill="#3e4347"><circle cx="52.8" cy="51.7" r=".9"/><circle cx="49.5" cy="53.6" r=".9"/><circle cx="49.5" cy="57.3" r=".9"/><circle cx="52.8" cy="59.2" r=".9"/><circle cx="56" cy="57.3" r=".9"/><circle cx="56" cy="53.6" r=".9"/></g><circle r="1.9" cx="-11.2" cy="55.5" transform="scale(-1 1)" fill="#62727a"/><path d="M9.5 19h26.3c3.1 0 5.6 2.5 5.6 5.6v24.3H3.9V24.6c0-3.1 2.5-5.6 5.6-5.6" fill="#5f606c"/><path d="M36.7 30.2v-5.6c0-.5-.4-.9-.9-.9H9.6c-.5 0-.9.4-.9.9v5.6H6.8v-5.6c0-1.5 1.3-2.8 2.8-2.8h26.2c1.6 0 2.8 1.3 2.8 2.8v5.6h-1.9M8.6 39.6v3.7c0 .5.4.9.9.9h26.3c.5 0 .9-.4.9-.9v-3.7h1.9v3.7c0 1.5-1.3 2.8-2.8 2.8H9.6c-1.6 0-2.8-1.3-2.8-2.8v-3.7h1.8" fill="#3e4347"/><g transform="matrix(-1 0 0 1 64 0)" fill="#62727a"><circle cx="29.2" cy="25.5" r=".9"/><circle cx="53.6" cy="25.5" r=".9"/><circle cx="29.2" cy="42.4" r=".9"/><circle cx="53.6" cy="42.4" r=".9"/></g></svg>