<svg xmlns="http://www.w3.org/2000/svg" viewBox="0 0 64 64"><path fill="#b71c3a" d="M29 9h6v12h-6z"/><path fill="#ed4c5c" d="M9 9h8v44H9z"/><path d="M10 14h5v4h-5zm0 8h5v28h-5z" fill="#ff6473"/><path fill="#b71c3a" d="M6.9 9h12v4h-12z"/><path fill="#d82b45" d="M7.5 8h10v4h-10z"/><path fill="#b71c3a" d="M21 16s-2.8 2-8 2-8-2-8-2l.2 4.1s2.2 1.5 6.5 1.9h2.5c4.3-.5 6.5-1.9 6.5-1.9L21 16"/><path fill="#474d51" d="M8 51h10v3H8z"/><path fill="#5c6368" d="M9 52h7v2H9z"/><path fill="#474d51" d="M7 54h12v10H7z"/><path fill="#5c6368" d="M8 55h9v9H8z"/><path fill="#ed4c5c" d="M47 9h8v44h-8z"/><path d="M48 14h5v4h-5zm0 8h5v28h-5z" fill="#ff6473"/><path fill="#b71c3a" d="M44.9 9h12v4h-12z"/><path fill="#d82b45" d="M45.5 8h10v4h-10z"/><path fill="#b71c3a" d="M59 16s-2.8 2-8 2-8-2-8-2l.2 4.1s2.2 1.5 6.5 1.9h2.5c4.3-.5 6.5-1.9 6.5-1.9L59 16"/><path fill="#474d51" d="M46 51h10v3H46z"/><path fill="#5c6368" d="M47 52h7v2h-7z"/><path fill="#474d51" d="M45 54h12v10H45z"/><path fill="#5c6368" d="M46 55h9v9h-9z"/><path d="M4 20h56v4H4zM32 7C12.7 7 2 5 2 5l.8 4s10.1 2 29.2 2 29.2-2 29.2-2l.8-4S51.3 7 32 7" fill="#d82b45"/><path fill="#474d51" d="M32 2.7C11.4 2.7 0 0 0 0l.8 5.3S11.6 8 32 8s31.2-2.7 31.2-2.7L64 0S52.6 2.7 32 2.7z"/></svg>