<svg xmlns="http://www.w3.org/2000/svg" viewBox="0 0 64 64"><path fill="#62727a" d="M63 62H1c-.5 0-1 .5-1 1s.5 1 1 1h62c.6 0 1-.5 1-1s-.4-1-1-1"/><path fill="#d0d0d0" d="M60 62H4V44l28-12 28 12z"/><path d="M21.4 34.1 1.2 42.4c-1 .4-1.4 1.5-1 2.5.4 1 1.5 1.4 2.5 1l20.2-8.3c1-.4 1.4-1.5 1-2.5-.4-.9-1.6-1.4-2.5-1m21.2 0 20.2 8.3c1 .4 1.4 1.5 1 2.5-.4 1-1.5 1.4-2.5 1l-20.2-8.3c-1-.4-1.4-1.5-1-2.5.4-.9 1.6-1.4 2.5-1" fill="#89664c"/><path fill="#e8e8e8" d="M44 62H20V26l12-5 12 5z"/><path fill="#ffce31" d="M38.7 5h-5V0h-3.4v5h-5v3.3h5V20h3.4V8.3h5z"/><path fill="#e8e8e8" d="M20 63h24v1H20z"/><path fill="#d0d0d0" d="M20 62h24v1H20z"/><path fill="#89664c" d="M47.8 25.4 32 19l-15.8 6.4c-1 .4-1.4 1.5-1 2.4.4.9 1.5 1.4 2.5 1L32 23l14.4 5.8c1 .4 2.1-.1 2.5-1 .4-.9-.1-2-1.1-2.4"/><path fill="#42ade2" d="M30.7 29.8c-.1-.6-.6-.9-1.2-.8 0 0-.1 0-.7.3-.6.2-.7.3-.7.3-.5.3-.6.9-.3 1.4l3.1 4.2c.3.5.6.4.5-.2l-.7-5.2"/><path fill="#c28fef" d="M26 32.9c-.5-.3-1.1-.2-1.3.3l-.6 1.4c-.2.5.2 1.1.7 1.2l5.2.8c.6.1.7-.1.2-.5L26 32.9"/><path fill="#ed4c5c" d="M24.8 38.3c-.6.1-.9.6-.8 1.2 0 0 0 .1.3.7.2.6.3.7.3.7.3.5.9.6 1.4.3l4.2-3.1c.5-.3.4-.6-.2-.5l-5.2.7"/><path fill="#ff8736" d="M27.9 43c-.3.5-.2 1.1.3 1.3l1.4.6c.6.2 1.1-.2 1.2-.7l.8-5.2c.1-.6-.1-.7-.5-.2L27.9 43"/><path fill="#42ade2" d="M33.3 44.2c.1.6.6.9 1.2.8 0 0 .1 0 .7-.3.6-.2.7-.3.7-.3.5-.3.6-.9.3-1.4L33 38.8c-.3-.5-.6-.4-.5.2l.8 5.2"/><path fill="#c28fef" d="M38 41.1c.5.3 1.1.2 1.3-.3l.6-1.4c.2-.6-.2-1.1-.7-1.2l-5.2-.6c-.6-.1-.7.1-.2.5l4.2 3"/><path fill="#ed4c5c" d="M39.2 35.7c.6-.1.9-.6.8-1.2 0 0 0-.1-.3-.7-.2-.6-.3-.7-.3-.7-.3-.5-.9-.6-1.4-.3L33.8 36c-.5.3-.4.6.2.5l5.2-.8"/><path fill="#ff8736" d="M36.1 31c.3-.5.2-1.1-.3-1.3l-1.4-.6c-.5-.2-1.1.2-1.2.7l-.6 5.2c-.1.6.1.7.5.2l3-4.2"/><path fill="#d3976e" d="M32 47c-3.3 0-6 2.7-6 6v9h12v-9c0-3.3-2.7-6-6-6"/><path fill="#d6eef0" d="M28 56h8v-3c0-2.2-1.8-4-4-4s-4 1.8-4 4v3"/><path d="M11.2 49.5c-.1-.4-.4-.6-.7-.5 0 0-.1 0-.4.2-.4.1-.4.2-.4.2-.3.2-.4.6-.2.9l1.9 2.6c.2.3.3.2.3-.1l-.5-3.3m-3 1.9c-.3-.2-.7-.1-.8.2l-.4.9c-.1.3.1.7.5.7l3.2.5c.4.1.4-.1.1-.3l-2.6-2m-.7 3.4c-.4.1-.6.4-.5.7 0 0 0 .1.2.4.1.4.2.4.2.4.2.3.6.4.9.2l2.6-1.9c.3-.2.2-.3-.1-.3l-3.3.5m1.9 3c-.2.3-.1.7.2.8l.9.4c.3.1.7-.1.7-.5l.5-3.2c.1-.4-.1-.4-.3-.1l-2 2.6m3.4.7c.1.4.4.6.7.5 0 0 .1 0 .4-.2.4-.1.4-.2.4-.2.3-.2.4-.6.2-.9l-1.9-2.6c-.2-.3-.3-.2-.3.1l.5 3.3m3-1.9c.3.2.7.1.8-.2l.4-.9c.1-.3-.1-.7-.5-.7l-3.2-.5c-.4-.1-.4.1-.1.3l2.6 2m.7-3.4c.4-.1.6-.4.5-.7 0 0 0-.1-.2-.4-.1-.4-.2-.4-.2-.4-.2-.3-.6-.4-.9-.2l-2.6 1.9c-.3.2-.2.3.1.3l3.3-.5m-1.9-3c.2-.3.1-.7-.2-.8l-.9-.4c-.3-.1-.7.1-.7.5l-.5 3.2c-.1.4.1.4.3.1l2-2.6m36.6-.7c-.1-.4-.4-.6-.7-.5 0 0-.1 0-.4.2-.4.1-.4.2-.4.2-.3.2-.4.6-.2.9l1.9 2.6c.2.3.3.2.3-.1l-.5-3.3m-3 1.9c-.3-.2-.7-.1-.8.2l-.4.9c-.1.3.1.7.5.7l3.2.5c.4.1.4-.1.1-.3l-2.6-2m-.7 3.4c-.4.1-.6.4-.5.7 0 0 0 .1.2.4.1.4.2.4.2.4.2.3.6.4.9.2l2.6-1.9c.3-.2.2-.3-.1-.3l-3.3.5m1.9 3c-.2.3-.1.7.2.8l.9.4c.3.1.7-.1.7-.5l.5-3.2c.1-.4-.1-.4-.3-.1l-2 2.6m3.4.7c.1.4.4.6.7.5 0 0 .1 0 .4-.2.4-.1.4-.2.4-.2.3-.2.4-.6.2-.9l-1.9-2.6c-.2-.3-.3-.2-.3.1l.5 3.3m3-1.9c.3.2.7.1.8-.2l.4-.9c.1-.3-.1-.7-.5-.7l-3.2-.5c-.4-.1-.4.1-.1.3l2.6 2m.7-3.4c.4-.1.6-.4.5-.7 0 0 0-.1-.2-.4-.1-.4-.2-.4-.2-.4-.2-.3-.6-.4-.9-.2l-2.6 1.9c-.3.2-.2.3.1.3l3.3-.5m-1.9-3c.2-.3.1-.7-.2-.8l-.9-.4c-.3-.1-.7.1-.7.5l-.5 3.2c-.1.4.1.4.3.1l2-2.6" fill="#62727a"/><g fill="#d3976e"><path d="M31 48h2v14h-2z"/><path d="M26 55h12v7H26z"/></g><path d="M28 57.3h3v3h-3zm5 0h3v3h-3z" fill="#89664c"/></svg>