<svg xmlns="http://www.w3.org/2000/svg" viewBox="0 0 64 64"><path fill="#f4d4a5" d="M54 49.8c-8.1 0-16.7 2.2-22.5 2.9-8.5 1-10.2-2.4-18.5-1.4C8.2 51.8 0 56 0 56v8h64V51s-4.9-1.2-10-1.2"/><path d="m4.053 58.618.99-.99.99.99-.99.99zm2.695 1.992.99-.99.99.99-.99.99zm.496-3.072.495-.495.495.495-.495.495zm3.214 2.036.495-.495.495.495-.495.495zm-6.411 1.973.495-.495.495.495-.495.495zM1.44 59.53l.495-.496.495.495-.495.495zm8.308-3.92.99-.99.99.99-.99.99zm31.21 1.464.495-.495.495.495-.495.495zm4.982 1.956.494-.496.495.495-.495.495zm1.41-1.974.496-.495.495.495-.495.495zm2.304 1.009.495-.495.495.495-.495.495zm1.995-2.513.495-.495.495.495-.495.495zm10.579 1.29.495-.495.495.495-.495.495zm-2.78 1.708.495-.496.495.495-.495.495zm.294-2.014.495-.495.495.495-.495.495zm-15.888 1.089.99-.99.99.99-.99.99zm16.393-2.518.99-.99.99.99-.99.99zm-8.094 4.016.99-.99.99.99-.99.99z" fill="#ffebd2"/><path fill="#a38982" d="M59.1 54.7c0 .6-1.3.5-2.8.3-.8 1.2-1.8 1.7-2.4 1.7-.3 0-.6-1.2-.5-2.3-1.5-.4-2.6-1-2.5-1.4.3-2.5 8.3.5 8.2 1.7"/><path fill="#f27a52" d="M54.1 47.7c.3-.1 1.3.8 2.2 2.1 1.6-.4 2.8-.6 2.8-.3.1.4-.3 1.5-1.2 2.9.8 1.3 1.3 2.3 1 2.5-.4.4-1.4.1-2.9-.3-1 1.1-1.7 1.9-2.3 1.8-.3 0-.4-1.2-.5-2.7-1.5-.6-2.4-1.3-2.5-1.8-.1-.3 1.1-.8 2.6-1.3.2-1.5.5-2.8.8-2.9"/><path fill="#a38982" d="m15.2 58-1.7-1 8.4-5.1 2 .4z"/><path fill="#3e4347" d="M46.4 4.2c-.5-.3-1.1-.2-1.4.3l-2.5 4.3 1.7 1 2.5-4.3c.3-.5.1-1.1-.3-1.3"/><path fill="#94989b" d="m15.2 58-1.7-1 20-32.5 1.7 1z"/><path fill="#ffbe5c" d="M43.9 8.5 30.8 31c2.8-1.2 6.2-1.1 9.1.6 2.9 1.7 4.7 4.5 5.1 7.6 6-13.4 6-26.6-1.1-30.7"/><path fill="#ed77a8" d="M43.9 8.5 30.8 31c-.4-3-2.2-5.9-5.1-7.6-2.9-1.7-6.3-1.8-9.1-.6C25.3 10.9 36.7 4.4 43.9 8.5"/><path fill="#c7e86f" d="M43.9 8.5C51 12.6 51 25.8 45 39.2c2.8-1.2 6.2-1.1 9.1.6 2.5 1.5 4.2 3.8 4.9 6.4 4.4-14-1.6-29.9-15.1-37.7"/><path fill="#60d4e0" d="M43.9 8.5c-7.1-4.1-18.5 2.4-27.2 14.3-.4-3-2.2-5.9-5.1-7.6-2.5-1.5-5.4-1.7-8-1C13.5 3.4 30.3.6 43.9 8.5"/></svg>