<svg xmlns="http://www.w3.org/2000/svg" viewBox="0 0 64 64"><path fill="#83bf4f" d="M0 48.6h64V64H0z"/><path fill="#d0d0d0" d="M32 55.8c-14.7 0-26.7-1.9-26.7-4.3v5.2c0 2.4 12 4.3 26.7 4.3s26.7-1.9 26.7-4.3v-5.2c0 2.4-12 4.3-26.7 4.3"/><ellipse cx="32" cy="45.8" fill="#e8e8e8" rx="30.5" ry="4.8"/><ellipse cx="32" cy="45.8" fill="#42ade2" rx="25.7" ry="2.9"/><path fill="#e8e8e8" d="M35.8 42.9c-1.6-1.5-1.7-6.3-1.7-6.3h-4.2s-.1 4.9-1.7 6.3c-.9.8-3.3 1.8-3.8 2.9-.2.5 3.4 1 7.6 1s7.9-.5 7.6-1c-.5-1.1-2.9-2.1-3.8-2.9"/><path fill="#d0d0d0" d="M32 36.6h-2.1s0 1.7-.4 3.3c.8.1 1.6.1 2.5.1.9 0 1.7 0 2.5-.1-.3-1.7-.4-3.3-.4-3.3H32"/><path fill="#e8e8e8" d="M36.8 37.2c-1.5 1.9-7.8 1.7-9.5 0-1-1-1-5.7-1-5.7h11.4s0 4.6-.9 5.7"/><path fill="#d0d0d0" d="M44.7 31.3c-4 2.5-20.9 2.3-25.4 0-2.7-1.4-2.5-7.7-2.5-7.7h30.5c-.1-.1-.2 6.2-2.6 7.7"/><ellipse cx="32" cy="23.8" fill="#e8e8e8" rx="15.2" ry="1.9"/><ellipse cx="32" cy="23.8" fill="#42ade2" rx="13.3" ry="1"/><path fill="#94989b" d="M58.7 53.3C54 54.8 43.8 55.8 32 55.8s-21.9-1-26.7-2.5v2.3c4.7 1.5 14.9 2.5 26.7 2.5s21.9-1 26.7-2.5v-2.3"/><path fill="#d0d0d0" d="M32 50.5c-16.8 0-30.5-2.1-30.5-4.8v5.7c0 2.6 13.7 4.8 30.5 4.8s30.5-2.1 30.5-4.8v-5.7c0 2.7-13.7 4.8-30.5 4.8"/><path fill="#b4d7ee" d="M32 23.8s-2.5-13.7-5.7-13.7c-3.5.1 4.6 7.2 5.7 13.7"/><path fill="#d6eef0" d="M31.4 22.8S21.1 4.9 18 9.4c-1.2 1.6 8.6 5.8 13.4 13.4"/><path fill="#b4d7ee" d="M33.6 23.5s3.6-11 8.9-9.9c2 .4-7 5.7-8.9 9.9"/><path d="M34.9 23.5s5.5-8.4 11.4-8.4 3.3 3.3 0 3.3-7.8.9-11.4 5.1m-3.1-6.2S31.4 4.9 27.3 4c-3.7-.8 4.6 7 4.5 13.3" fill="#d6eef0"/><path d="M32 24.3S32 0 35.6 0c2.6 0-3 15-3.6 24.3m-10.5.1s-7.6-6-7.6 21.5c0 0 .5.8 3.4.8 0 0-.1-21.5 4.2-22.3m21 0s7.6-6 7.6 21.5c0 0-.5.8-3.4.8 0 0 .1-21.5-4.2-22.3m-11.7-.9s-5.5-8.4-11.4-8.4-3.3 3.3 0 3.3 7.7.9 11.4 5.1" fill="#b4d7ee"/><path fill="#d6eef0" d="M32.1 24.1S38 4.3 42 7.9c1.6 1.4-7.1 7.8-9.9 16.2"/></svg>