<svg xmlns="http://www.w3.org/2000/svg" viewBox="0 0 64 64"><ellipse cx="32" cy="49.7" fill="#97b113" rx="30" ry="12.3"/><path fill="#1e1e1e" d="M28 47s3-6.6 5.6-9.6h-.9S28 43.1 26 46.7l2 .3" opacity=".3"/><ellipse cx="26.6" cy="50.3" fill="#c7c7c7" rx="8.7" ry="3.7"/><path fill="#3d2905" d="M26.6 48.2c4.2 0 7.7 1.2 8.5 2.9.1-.3.2-.5.2-.8 0-2-3.9-3.7-8.7-3.7s-8.7 1.6-8.7 3.7c0 .3.1.5.2.8.9-1.6 4.3-2.9 8.5-2.9"/><path fill="#ed4c5c" d="M45 9.3c-.9-.5-15.8-8.2-18-9.3v20.7c2.2-1.1 17.1-8.8 18-9.3.7-.3.7-1.7 0-2.1"/><path fill="#1e1e1e" d="M28 53.9s-.9.1-2.4.1v-7.2H28v7.1" opacity=".5"/><path fill="#d3976e" d="M25 0h2v54h-2z"/><path fill="#89664c" d="M25 52.2h2V54h-2z"/></svg>