<svg xmlns="http://www.w3.org/2000/svg" viewBox="0 0 64 64"><path fill="#428bc1" d="M61.9 59H5.2L0 49h64z"/><path fill="#b9c1c6" d="M61 39H13.1L7 49h54z"/><path d="M53 41h6v6h-6zm-8 0h6v6h-6zm-8 0h6v6h-6zm-8 0h6v6h-6zm-8 0h6v6h-6zm-2 6h-7l3-6h4z" fill="#3e4347"/><path d="M10 33h54v6H10zm2-14h38v4H12z" fill="#dce1e5"/><path fill="#b9c1c6" d="M14 23h34v10H14z"/><path d="M2 45h1v4H2zm3 0h1v4H5zm3 0h1v4H8zm3 0h1v4h-1zm3 0h1v4h-1zm3 0h1v4h-1z" fill="#778389"/><path fill="#8f989e" d="M0 44h18v1H0z"/><path d="M61 29h1v4h-1zm-3 0h1v4h-1zm-3 0h1v4h-1zm-3 0h1v4h-1zm-3 0h1v4h-1zm-3 0h1v4h-1z" fill="#778389"/><path fill="#8f989e" d="M46 28h18v1H46z"/><path d="M53 45h1v4h-1zm3 0h1v4h-1zm3 0h1v4h-1zm3 0h1v4h-1z" fill="#778389"/><path fill="#8f989e" d="M53 44h11v1H53z"/><path d="M16 25h6v6h-6zm8 0h6v6h-6zm8 0h6v6h-6zm8 0h6v6h-6z" fill="#3e4347"/><path d="M40 11h2v8h-2zm4 2h2v6h-2z" fill="#8f989e"/></svg>