<svg xmlns="http://www.w3.org/2000/svg" viewBox="0 0 64 64"><path fill="#ffdd67" d="m31.8 22.3-3.4-8.1-15 3.7c.6 2.6 2 3 2.7 3.8.3.4.1 1.6 0 2.2-.2 1.4 1.7.9 2.1.3 1 .5.4 1.8 2.3-.7 0 0-1.5 3 .6 2 1.3 3.2 10.7-3.2 10.7-3.2"/><path d="M18 20c.4.5.5 1.1.1 1.4-.3.3-.8 0-1.2-.5-.4-.5-.7-1-.3-1.3.4-.3 1-.1 1.4.4m3.2 2.6s-.3 1.5-.5 2c-.4.9-.7.8-.6.2.1-.5.5-1.3.5-1.3l.6-.9" fill="#937237"/><path fill="#3e4347" d="m34.9 28.9-1.3 2.9-4.4 6.4a3.32 3.32 0 0 0 0 4.7l6.2-2.3c2.1-1 1.5-3 2-3.6 1.9-2.1 4.6-1.5 6.1-4.4.8-1.6.6-3.7-.3-5.2l-8.3 1.5"/><path fill="#44618b" d="M45.5 28.4c-2.2-3.7-6.1-3.3-8.8-5.8-5.6-5.2-9-2.8-8.8-1.7.4 3.1-.1 5.4.8 6.2l5 4.6s1.7-1.6 4.6-2.1c4.6-.8 7.2-1.2 7.2-1.2"/><g fill="#cc2e45"><path d="M31.1 17.9s5.1-1.6 6.9-1.5c1.8.1 5.1 2.2 6.9 2.4 1 .1 3.2-1.1 4-.5.9.6 1.7 3.4 1 4.2-.8 1-3.9.5-5.1.3-2-.5-5.3-3.7-7.4-4-1.8-.3-7 1.5-7 1.5l.7-2.4"/><path d="M29.2 19.3s3.3-4.2 4.8-5.1c1.6-.9 5.5-1.1 7.1-1.9.9-.5 2-2.7 3-2.7 1.1 0 3.3 1.8 3.3 2.9 0 1.3-2.8 2.6-4 3.1-1.9.8-6.5 0-8.4.9-1.6.8-4.9 5.2-4.9 5.2l-.9-2.4"/></g><path fill="#86d0bf" d="M24.1 5.6c.3 2.3-1.3 4.4-3.6 4.6-2.3.3-4.3-1.3-4.6-3.6-.3-2.3 1.3-4.3 3.6-4.6 2.2-.3 4.3 1.4 4.6 3.6"/><path d="M30.4 11.6c-1.9-3.7-6-6-10.4-5.4-4.4.5-7.8 3.8-8.7 7.8 2.6-1.6 5.8-2.8 9.3-3.2 3.5-.5 6.9-.2 9.8.8m1.1 3.4c-3-1.1-6.7-1.6-10.5-1.1s-7.2 1.8-9.9 3.6v.1c.7 5.6 4.7.2 10.3-.5 5.6-.7 10.8 3.5 10.1-2.1" fill="#44618b"/><path d="M31.5 15c-.2-1.2-.5-2.4-1.1-3.4-2.9-.9-6.3-1.3-9.8-.9-3.5.4-6.7 1.6-9.3 3.2-.3 1.1-.4 2.3-.2 3.5 2.7-1.8 6.1-3.2 9.9-3.6 3.8-.4 7.4.1 10.5 1.2m-1 36.1c-1.3.5-2 1.9-1.5 3.2l.9 2.3L40 52.9l-1.7-4.6-7.8 2.8" fill="#86d0bf"/><path fill="#44618b" d="M29.3 55c-.4.2-.7.6-.5 1.1.2.4.6.7 1.1.5L40 52.9l-.6-1.5L29.3 55"/><path fill="#86d0bf" d="M38.3 48.3 32 50.5l-2.8-7.7 6.2-2.3z"/><path d="m34 46.3-3.1 1.1c-.4.2-.7.6-.5 1.1.2.4.6.6 1.1.5l3.1-1.1c.4-.2.7-.6.5-1.1-.2-.4-.6-.7-1.1-.5m-1.1-3.1-3.1 1.1c-.4.2-.7.6-.5 1.1.2.4.6.6 1.1.5l3.1-1.1c.4-.2.7-.6.5-1.1-.2-.4-.7-.7-1.1-.5" fill="#44618b"/><path d="M19.7 60.2c-.9.3-1.8-.1-2.1-1l-1.6.6c.6 1.7 2.5 2.6 4.2 2L53 50l-.6-1.5-32.7 11.7m31.4-32L14.9 42.4l.6 1.5 36.2-14.3c.4-.2.6-.6.5-1.1-.2-.3-.7-.5-1.1-.3" fill="#ed4c5c"/><path fill="#3e4347" d="M50 32.1c.2.4.7.6 1.1.5.4-.2.6-.6.5-1.1l-1.8-4.6c-.2-.4-.7-.6-1.1-.5-.4.2-.6.6-.5 1.1l1.8 4.6"/><path fill="#86d0bf" d="M29.7 19.4c-1.4 0-2.7 1.2-2.4 2.5 1.8 7.7-4.4 15.2-4.4 15.2l3.6 3.4s8.1-11.7 5.7-18.7c-.4-1.3-1.1-2.4-2.5-2.4"/><path fill="#44618b" d="M22.1 38c-1.7-.2-2.1.9-3.4 1.6-.6.3-.9 1.2-.5 1.5l.9-.3c-.1 1-.6 3 .5 2.9 2-.3 2.4.9 4.5 0 .8-.3 1.5-1.6 1.5-2.3l.8-.8-3.6-3.4-.7.8"/><path fill="#ed4c5c" d="M21.6 26.6c.6 1.2 2.5-.2 3.1 0 .7.2 1.5 1.6 2.2 1.5 2.1-.4.1-4.5 1-5.9.7-1 5.1-1.2 5.6-2.3.2-.4-1-.9-1.2-1.3-.2-.4.3-1.3-.2-1.5-1.7-.6-5 1.8-6.4 2.7-1.7 1.1-4.8 5.2-4.1 6.8"/></svg>