<svg xmlns="http://www.w3.org/2000/svg" viewBox="0 0 64 64"><path fill="#d0d0d0" d="M13.1 50.7S8 54.8 6.4 56.4C4 58.7 2.4 62 20.5 62H59v-2.9h-3.9s-2.2-6.6-2.7-8.4c-.2-.7-3.2.2-2.8.9.7 1.4-.4 7.5-.4 7.5H26.6c-2.4 0-.9-1.8-.3-3.8l-3.9-.2s.6 4-6.4 4c-4.4 0-8-.7-6.5-2.1 1.3-1.3 5.6-4.7 5.6-4.7l-2-1.6"/><path fill="#ce344a" d="M20.2 42.6s9.1-4 12.8-13.1C37 19.4 32.4 6 32.4 6s1.1-3.2 4.6-3.2c2.3 0 3.4 2.4 3.4 2.4s2 22-1.2 28.6c-6.4 13.1-19 8.8-19 8.8"/><path fill="#f46767" d="M54.4 5.5s-8.6-4.1-13.7-3.4c-3.4.5-4.5 4-4.6 5.7-.3 5.5 2.2 16.1.7 21.4-1.3 4.7-9 13.8-14.1 13.9-.8 0-2.2-1.4-2.9-1-2.4 1.2-10.2 2.1-9.5 7.2.7 4.6 8 7.4 16.4 7.7 4.1.1 12.6-1.5 14.4-7.9.7-2.4 3.8-2.1 3.8-2.1l1.6 6.2h10s2.1-7.6 2.1-15.4c0-8.3-4.3-9.6-5.7-14.8-1.3-4.5 1.5-17.5 1.5-17.5"/><path fill="#ed4c5c" d="M50.5 7.3S46.3 2.2 41.2 3c-3.4.5-4.5 4-4.6 5.7-.3 5.5 2.2 16.1.7 21.4-1.3 4.7-9 13.8-14.1 13.9-.8 0-2.2-1.4-2.9-1-2.4 1.2-9.7 2.6-7.4 7.2 2.5 5.1 22.4 5.2 28.5-6 2.2-4.1 5.3 2 8.4.4 4.9-2.5-2.4-10.8-2.9-18.3-.4-4.7 3.6-19 3.6-19"/><g fill="#a8203b"><circle cx="25.7" cy="44.9" r="1.3"/><circle cx="30.1" cy="42.3" r="1.3"/><circle cx="34.1" cy="39.7" r="1.3"/><circle cx="37.3" cy="35.4" r="1.3"/><circle cx="38.6" cy="30.3" r="1.3"/><circle cx="40.2" cy="25" r="1.3"/><circle cx="40.4" cy="20.6" r="1.3"/><circle cx="40" cy="15.5" r="1.3"/><circle cx="40" cy="9.5" r="1.3"/></g><g fill="#d0d0d0"><path d="M25.4 45.3c-.3 0-.6-.1-.7-.4-.1-.2-2.5-4.2 0-6.2.4-.3.9-.2 1.2.1s.3.9-.1 1.2c-1.1.9-.1 3.3.4 4.1.2.4.1.9-.3 1.2-.2-.1-.3 0-.5 0m4.2-2.7c-.2 0-.5-.1-.7-.3-.1-.2-3.3-4.1-1.3-6.6.3-.4.8-.4 1.2-.1.4.3.4.8.1 1.2-1 1.2.6 3.7 1.3 4.4.3.4.2.9-.1 1.2-.1.1-.3.2-.5.2m4-2.5c-.2 0-.4-.1-.5-.2-.4-.3-3.8-3.1-3.8-5.7 0-.9.3-1.6 1-2.2.3-.3.9-.3 1.2.1s.3.9-.1 1.2c-.3.3-.4.5-.4.9 0 1.5 2.4 3.7 3.2 4.4.4.3.4.8.1 1.2-.2.2-.4.3-.7.3"/><path d="M36.9 35.9c-.1 0-.2 0-.3-.1-.5-.2-4.5-1.8-5.4-4.2-.3-.8-.2-1.6.2-2.4.2-.4.8-.5 1.2-.3.4.2.6.7.3 1.1-.2.3-.2.6-.1 1 .5 1.3 3 2.7 4.4 3.2.4.2.7.7.5 1.1-.1.4-.4.6-.8.6"/><path d="M38.3 31h-.1c-.5-.1-4.6-.7-5.8-2.7-.4-.7-.5-1.5-.1-2.3.2-.4.7-.6 1.1-.5.4.2.7.7.5 1.1-.2.4-.1.7 0 .9.6 1 3.1 1.7 4.6 1.9.5.1.8.5.7.9-.1.4-.5.7-.9.7m-1.2-5c-1.3 0-2.7-.2-3.6-1-.6-.5-1-1.3-.9-2.2 0-.5.4-.8.9-.8s.8.4.8.9.2.7.3.8c.9.8 3.5.6 5 .3.5-.1.9.2 1 .7.1.5-.2.9-.7 1-.2.1-1.4.3-2.8.3m.2-4.4c-1.3 0-2.7-.2-3.6-1-.6-.5-1-1.3-.9-2.2 0-.5.4-.8.9-.8s.8.4.8.9.2.7.3.8c.9.8 3.5.6 5 .3.5-.1.9.2 1 .7.1.5-.2.9-.7 1-.2.1-1.4.3-2.8.3m-.4-4.8c-1.3 0-2.7-.2-3.6-.9-.6-.5-1-1.3-.9-2.2 0-.5.4-.8.9-.8s.8.4.8.9.2.7.3.8c.9.8 3.5.6 5 .3.5-.1.9.2 1 .7.1.5-.2.9-.7 1-.2 0-1.4.2-2.8.2"/></g></svg>