<svg xmlns="http://www.w3.org/2000/svg" viewBox="0 0 64 64"><path fill="#ffdd67" d="m29.9 25.6-5.6-2.3-2.5-6.1-3.5 1.5 2.8 6.9c.2.4.4.7.7.9.2.1.3.2.5.2l6 2.5c.9.4 2-.1 2.4-1.1.6-1 .2-2.1-.8-2.5"/><ellipse cx="16.7" cy="10.8" fill="#ff8736" rx="8.7" ry="8.8"/><g fill="#231f20"><path d="M10.5 4.6c.2.8.5 1.4.8 2.1.3.7.7 1.3 1.1 1.9.8 1.3 1.7 2.5 2.6 3.6.9 1.2 1.9 2.3 3 3.3.5.5 1.1 1 1.7 1.4.6.4 1.3.8 2 1-.8-.1-1.5-.4-2.2-.7-.7-.4-1.3-.8-1.9-1.3-1.2-1-2.2-2.1-3.2-3.2-1-1.2-1.8-2.4-2.6-3.8-.4-.7-.7-1.4-1-2.1 0-.7-.3-1.4-.3-2.2m-2.5 6c.5 1.1 1.2 2.1 2 3 .8.8 1.8 1.5 2.9 2 1.1.5 2.2.9 3.3 1.3.6.2 1.1.5 1.6.9s.8 1 .9 1.6c-.2-.6-.6-1-1.1-1.3-.5-.3-1-.5-1.6-.7-1.1-.4-2.3-.7-3.4-1.2s-2.2-1.2-3-2.2c-.8-1.1-1.3-2.3-1.6-3.4M23.7 16c-.7.3-1.5.4-2.3.1-.8-.4-1.2-1.1-1.5-1.9-.6-1.5-.8-3-1.1-4.5-.3-1.5-.7-3-1.3-4.3-.6-1.3-1.7-2.5-3.2-3.1.8.2 1.5.5 2.1 1 .6.5 1.1 1.1 1.5 1.8.8 1.4 1.2 2.9 1.5 4.4l.4 2.3c.1.8.3 1.5.5 2.2.2.7.6 1.4 1.2 1.8.6.4 1.4.4 2.2.2"/><path d="M21.7 3.6c.4.3.7.7.9 1.1.2.4.4.9.6 1.3.3 1 .5 2 .5 3 .1 2-.4 4-1.5 5.7-.6.8-1.3 1.6-2.1 2.1-.8.6-1.7 1-2.7 1.2-1.9.5-3.8.4-5.7.1 1.9.1 3.8-.1 5.6-.6 1.8-.6 3.4-1.6 4.4-3.2 1-1.5 1.5-3.4 1.5-5.3 0-.9-.1-1.9-.3-2.8-.2-1-.5-1.9-1.2-2.6"/></g><path d="m50 58.6-.9-4.2c.9-.8 1.2-.8 1.2-.8.6-.3 1.4 0 1.7.6l3.7 7.6c-1.4.7-4.2-.3-5.7-3.2m-13.4-3.8-1.4-3.9c.9-.7 2.5-1.5 2.5-1.5.6-.2 1.4.1 1.6.8l2.9 8c-1.4.5-4.2-.5-5.6-3.4" fill="#3e4347"/><path fill="#ffdd67" d="m37.7 16.5 1.8.4L37.3 27 34 24.5z"/><path fill="#47b892" d="M39.1 40.3H25.9s.3-8 3.4-13.6c2.4-4.4 8.7-3.1 8.7-3.1l1.1 16.7"/><g fill="#ffdd67"><path d="M55 27.4c-2.1-1.7-2.6-2.1-3.5-1.2l-5.7-3.8c-.3-.2-.7-.3-1.1-.3-.2 0-.4.1-.5.1l-6.4 1.4c-1 .2-1.6 1.2-1.4 2.3.2 1 1.2 1.7 2.2 1.5l5.9-1.3 4.7 3.1c-.1.5 0 1 .4 1.3l.7.6c.4.3.9.3 1.2.1 1 .7 2.5 1.3 3.8-.5.3-.2 1.5-1.8-.3-3.3"/><path d="M37.5 23.4c-2.9.1-4.1 5.4-5.4 5.8-2.1.6-2.5-2.1-.8-4.3 2.1-2.8 6.2-1.5 6.2-1.5m11.6 31 .9 4.2s-5.5-2-8.5-2.3c-1-.1-1.1-1.2-1.6-1.4-2.7-1.5-3.9-6-3.9-6l5.6-1.2s.2 1.7 1 4.1c.1.3.3.7 1.2.6 1.8-.1 3.8 2.3 5.3 2m-12.5.4-1.4-3.9c-1.4.4-2-.3-3.4.4-.6.3-.9-.1-.8-.3.4-1.3.4-2 .4-2l-5.9-.8s-.3 4.4 2.2 7.9c.6.8 2.9 1 3.4.7 2.9-1.7 5.5-2 5.5-2"/></g><path fill="#3e4347" d="M25.9 40.3h13.2l3.5 7.1-6.9 1.5c-.4-.7-.7-1.5-1-2.1-.2-.4-.6-.8-1.1-.8-.6 0-1 .5-1.2 1.1-.2.6-.4 1.3-.6 1.9l-6.6-.9.7-7.8"/><path fill="#eba352" d="M32.2 21.9c.5 1.7-.9 3.5-.9 3.5 3.6.7 4.9-2.7 5.9-7.7 0 0-5.9 1.2-5 4.2"/><path fill="#ffdd67" d="M39.9 5.5 28.5 7.8c-1.7 2.3-1 3.8-1.2 4.9-.1.5-1.2 1.2-1.8 1.6-1.3.9.5 2 1.3 1.9.3 1.1-1.1 1.6 2.2 1.4 0 0-3.5.9-1.3 1.9-.4 1.3-1 3.7 6.1 2.1 2.1-.5 3.4-3.9 3.4-3.9l3.5-.1-.8-12.1"/><path fill="#ffb300" d="M32.3 3.5c7.5-1.4 10.9 2.9 11.3 4.7 1.2 4.6-1.1 9.3-5 12.5 0 0-1.5-.9-1.5-2.9 0 0 1.7 1.1 3-2.6 1.1-3.1-2-5.2-4.3-1.1l-.4-.1c-.6-2.3 1.5-4.8-.9-6-2.1-1.1-6.4.3-6.4.3-.5-1.5 1.2-4.2 4.2-4.8"/><path fill="#937237" d="M30 13c-.1.7-.6 1.2-1 1.1-.5-.1-.5-.6-.4-1.3.1-.7.3-1.2.8-1.1.4.1.7.7.6 1.3"/><path fill="#eba352" d="M36.7 14.9c.2-1.3 1.5-2.3 2.6-2.2 0 0-2.1 1.3-2 3.5 0 0-.7-.4-.6-1.3"/><path fill="#937237" d="M30.1 17.5s-1.5.8-2 1c-1 .3-1.2 0-.5-.3.5-.3 1.4-.5 1.4-.5l1.1-.2"/></svg>