<svg xmlns="http://www.w3.org/2000/svg" viewBox="0 0 64 64"><path fill="#3e4347" d="M0 0h64v64H0z"/><g transform="translate(-35.797)"><circle r="9.6" cy="14.4" cx="49.4" fill="#d0d0d0"/><g fill="#94989b"><circle r=".9" cy="13.4" cx="42.7"/><circle r="1.5" cy="10.6" cx="49.3"/><circle r="1.6" cy="18.1" cx="47"/><circle r=".7" cy="12.1" cx="55.8"/><circle r=".6" cy="18.6" cx="53.8"/></g></g><path d="M10.522 39.16a7.783 7.783 0 0 0-7.784 7.783V64h15.567V46.943a7.783 7.783 0 0 0-7.783-7.784z" fill="#94989b"/><path fill="#d0d0d0" d="M11.972 39.16a7.783 7.783 0 0 0-7.783 7.783V64h15.566V46.943a7.783 7.783 0 0 0-7.783-7.784z"/><path fill="#94989b" d="M31.33 39.35a8.179 7.723 0 0 0-8.178 7.724V64H39.51V47.074a8.179 7.723 0 0 0-8.178-7.723z"/><path d="M32.855 39.35a8.179 7.723 0 0 0-8.179 7.724V64h16.357V47.074a8.179 7.723 0 0 0-8.178-7.723z" fill="#d0d0d0"/><path d="M29.72 25.136v4.426h-3.763v3.116h3.764v6.808h3.115v-6.808H36.6v-3.116h-3.764v-4.426z" fill="#94989b"/><path fill="#d0d0d0" d="M31.297 25.136v4.426h-3.764v3.116h3.764v6.808h3.115v-6.808h3.764v-3.116h-3.764v-4.426z"/><path fill="#94989b" d="M49.014 31.524A10.176 10.176 0 0 0 38.84 41.699V64h20.35V41.7a10.176 10.176 0 0 0-10.176-10.176z"/><path d="M50.91 31.524a10.176 10.176 0 0 0-10.176 10.175V64h20.352V41.7A10.176 10.176 0 0 0 50.91 31.523z" fill="#d0d0d0"/></svg>