<svg xmlns="http://www.w3.org/2000/svg" viewBox="0 0 64 64"><path fill="#0071bc" d="M62 52c0 5.5-4.5 10-10 10H12C6.5 62 2 57.5 2 52V12C2 6.5 6.5 2 12 2h40c5.5 0 10 4.5 10 10v40z"/><g fill="#eff6f7"><path d="M45.9 31.725 48 30l4.35-.225 3.15 3.15c0-3.75-2.475-6-7.5-4.575-.3.075-1.275.15-1.275.15l-.825 3.225"/><path d="M53.7 32.7c0 3.45-8.175 4.425-10.725 6.15-1.05.75-2.85 4.05-2.85 4.05l14.625-8.475S53.7 30 53.7 32.7"/></g><path d="m45.9 33 1.2-.3s.225-1.125 1.2-2.025c1.275-1.125 5.475-.9 5.475 1.875 0 4.5-8.4 5.85-10.95 7.575-1.05.75-2.25 3-2.25 3s.9.15 1.125 0c3.825-3.15 13.8-4.5 13.8-10.35 0-2.1-3.075-4.8-7.5-3.225-.3.075-1.275.15-1.275.15L45.9 33m-6.975 11.25H18.9s.225 2.1 2.925 3.75c.975.6 3.375 1.5 7.05 1.5 3.75 0 6.075-.9 7.05-1.5 2.775-1.65 3-3.75 3-3.75" fill="#d2d8d9"/><g fill="#eff6f7" transform="matrix(.75 0 0 .75 9 3)"><path d="M51.1 30.2H2s.6 11.7 7.2 21.2c2.4 3.5 8.2 8.5 17.3 8.5 9.2 0 14.9-5 17.3-8.5 6.6-9.5 7.3-21.2 7.3-21.2"/><ellipse cx="26.5" cy="30.2" rx="24.5" ry="10.2"/></g><path fill="#d2d8d9" d="M28.875 21.15c8.475 0 15.525 2.4 17.175 5.625.225-.45.375-.975.375-1.425 0-3.9-7.875-7.05-17.55-7.05s-17.55 3.15-17.55 7.05c0 .525.15.975.375 1.425 1.65-3.225 8.7-5.625 17.175-5.625"/><path fill="#ccc" d="M28.875 32.4c8.475 0 15.525-2.4 17.175-5.625-1.65-3.225-8.7-5.625-17.175-5.625-8.475 0-15.525 2.4-17.175 5.625C13.35 30 20.4 32.4 28.875 32.4"/></svg>