<svg xmlns="http://www.w3.org/2000/svg" viewBox="0 0 64 64"><path fill="#d0d0d0" d="M47.469.004C32.034-.332 23.978 18.897 7.489 15.768c.581 1.572 1.142 3.153 1.724 4.728.585 1.573 1.14 3.158 1.725 4.73 11.574 6.227 32.824-17.44 43.167-15.421-.583-1.573-1.138-3.159-1.722-4.73-.584-1.575-1.14-3.157-1.725-4.73a19.341 19.341 0 0 0-3.19-.341z"/><path fill="#333" d="M50.916 9.465c-15.432-.335-23.49 18.892-39.978 15.762.582 1.573 1.14 3.157 1.724 4.73.584 1.573 1.139 3.158 1.723 4.73 12.085 10.393 33.46-16.942 43.172-15.42-.584-1.574-1.144-3.158-1.727-4.73-.583-1.574-1.14-3.157-1.725-4.731a19.23 19.23 0 0 0-3.189-.34z"/><path fill="#d0d0d0" d="M54.365 18.926c-15.435-.336-23.491 18.89-39.98 15.762.58 1.573 1.14 3.156 1.724 4.73.583 1.573 1.141 3.156 1.725 4.728 17.587 3.34 25.583-18.76 43.166-15.42-.58-1.572-1.14-3.157-1.723-4.732-.582-1.574-1.14-3.155-1.722-4.728a19.31 19.31 0 0 0-3.19-.34z"/><g fill="#3e4347"><circle cx="5.168" cy="13.336" r="2.168"/><path d="m7.04 14.49-2.56.929L22.186 64h2.896z"/><path d="m3.688 15.602 4.076-1.48.37 1.017-4.077 1.48z"/></g></svg>