<svg xmlns="http://www.w3.org/2000/svg" width="8" height="8" viewBox="0 0 8 8">
  <path d="M1.5 0c-.83 0-1.5.67-1.5 1.5s.67 1.5 1.5 1.5h.5v1h-.5c-.83 0-1.5.67-1.5 1.5s.67 1.5 1.5 1.5 1.5-.67 1.5-1.5v-.5h1v.5c0 .83.67 1.5 1.5 1.5s1.5-.67 1.5-1.5-.67-1.5-1.5-1.5h-.5v-1h.5c.83 0 1.5-.67 1.5-1.5s-.67-1.5-1.5-1.5-1.5.67-1.5 1.5v.5h-1v-.5c0-.83-.67-1.5-1.5-1.5zm0 1c.28 0 .5.22.5.5v.5h-.5c-.28 0-.5-.22-.5-.5s.22-.5.5-.5zm4 0c.28 0 .5.22.5.5s-.22.5-.5.5h-.5v-.5c0-.28.22-.5.5-.5zm-2.5 2h1v1h-1v-1zm-1.5 2h.5v.5c0 .28-.22.5-.5.5s-.5-.22-.5-.5.22-.5.5-.5zm3.5 0h.5c.28 0 .5.22.5.5s-.22.5-.5.5-.5-.22-.5-.5v-.5z"
  />
</svg>