<svg xmlns="http://www.w3.org/2000/svg" xmlns:xlink="http://www.w3.org/1999/xlink" contentStyleType="text/css" data-diagram-type="CLASS" height="177px" preserveAspectRatio="none" style="width:148px;height:177px;background:#FFFFFF;" version="1.1" viewBox="0 0 148 177" width="148px" zoomAndPan="magnify">
  <defs/>
  <g font-family="sans-serif" lengthAdjust="spacing">
    <!--class 部屋-->
    <g class="entity" data-qualified-name=".." data-source-line="2" id="ent0001">
      <rect fill="#F1F1F1" height="48" rx="2.5" ry="2.5" style="stroke:#181818;stroke-width:0.5;" width="60" x="30" y="12"/>
      <ellipse cx="45" cy="28" fill="#ADD1B2" rx="11" ry="11" style="stroke:#181818;stroke-width:1;"/>
      <text fill="#000" font-family="monospace" font-size="14" x="40" y="33">C</text>
      <text fill="#000" font-family="VL Gothic" font-size="14" textLength="28" x="59" y="31.889">部屋</text>
      <line style="stroke:#181818;stroke-width:0.5;" x1="31" x2="89" y1="44" y2="44"/>
      <line style="stroke:#181818;stroke-width:0.5;" x1="31" x2="89" y1="52" y2="52"/>
    </g>
    <!--class 椅子-->
    <g class="entity" data-qualified-name=".." data-source-line="2" id="ent0002">
      <rect fill="#F1F1F1" height="48" rx="2.5" ry="2.5" style="stroke:#181818;stroke-width:0.5;" width="60" x="30" y="113"/>
      <ellipse cx="45" cy="129" fill="#ADD1B2" rx="11" ry="11" style="stroke:#181818;stroke-width:1;"/>
      <text fill="#000" font-family="monospace" font-size="14" x="40" y="134">C</text>
      <text fill="#000" font-family="VL Gothic" font-size="14" textLength="28" x="59" y="132.889">椅子</text>
      <line style="stroke:#181818;stroke-width:0.5;" x1="31" x2="89" y1="145" y2="145"/>
      <line style="stroke:#181818;stroke-width:0.5;" x1="31" x2="89" y1="153" y2="153"/>
    </g>
    <g class="link" data-entity-1="ent0001" data-entity-2="ent0002" data-link-type="composition" id="lnk3">
      <polygon fill="#181818" points="60,60.211,56,66.211,60,72.211,64,66.211,60,60.211" style="stroke:#181818;stroke-width:1;stroke-linejoin:miter;stroke-miterlimit:10;"/>
      <path d="M60,72.211 C60,88.099 60,97.077 60,112.934" fill="none" style="stroke:#181818;stroke-width:1;"/>
      <text fill="#000" font-family="VL Gothic" font-size="13" textLength="78" x="62" y="90.111">持っています</text>
      <text fill="#000" font-family="VL Gothic" font-size="13" textLength="52" x="7" y="109.045">いくつか</text>
      <text fill="#000" font-family="VL Gothic" font-size="13" x="52" y="71.322">1</text>
    </g>
  </g>
</svg>
