<svg xmlns="http://www.w3.org/2000/svg" xmlns:xlink="http://www.w3.org/1999/xlink" contentStyleType="text/css" data-diagram-type="CLASS" height="64px" preserveAspectRatio="none" style="width:169px;height:64px;background:#FFFFFF;" version="1.1" viewBox="0 0 169 64" width="169px" zoomAndPan="magnify">
  <defs/>
  <g font-family="sans-serif" lengthAdjust="spacing">
    <g class="entity" data-qualified-name="Foo" data-source-line="1" id="ent0001">
      <rect fill="#F1F1F1" height="36" rx="2.5" ry="2.5" style="stroke:#181818;stroke-width:0.5;" width="65.938" x="6" y="12"/>
      <text fill="#000" font-size="14" textLength="24.15" x="26.894" y="24.889">Foo</text>
      <line style="stroke:#181818;stroke-width:1;" x1="6" x2="71.938" y1="30" y2="30"/>
      <text fill="#000" font-size="14" textLength="22.575" x="11" y="42.889">abc</text>
      <text fill="#000" font-size="14" textLength="23.363" x="43.575" y="42.889">123</text>
      <line style="stroke:#181818;stroke-width:1;" x1="38.575" x2="38.575" y1="30" y2="48"/>
    </g>
    <g class="entity" data-qualified-name="Bar" data-source-line="6" id="ent0002">
      <rect fill="#F1F1F1" height="36" rx="2.5" ry="2.5" style="stroke:#181818;stroke-width:0.5;" width="62.788" x="90.5" y="12"/>
      <text fill="#000" font-size="14" textLength="21.788" x="111" y="24.889">Bar</text>
      <line style="stroke:#181818;stroke-width:1;" x1="90.5" x2="153.288" y1="30" y2="30"/>
      <text fill="#000" font-size="14" textLength="19.425" x="95.5" y="42.889">def</text>
      <text fill="#000" font-size="14" textLength="23.363" x="124.925" y="42.889">456</text>
      <line style="stroke:#181818;stroke-width:1;" x1="119.925" x2="119.925" y1="30" y2="48"/>
    </g>
    <g class="link" data-entity-1="ent0001" data-entity-2="ent0002" data-link-type="dependency" id="lnk3">
      <polygon fill="#181818" points="90.404,30,81.404,26,85.404,30,81.404,34,90.404,30" style="stroke:#181818;stroke-width:1;stroke-linejoin:miter;stroke-miterlimit:10;"/>
      <path d="M72.07,30 C78.181,30 79.293,30 85.404,30" fill="none" style="stroke:#181818;stroke-width:1;"/>
    </g>
  </g>
</svg>
