<svg xmlns="http://www.w3.org/2000/svg" xmlns:xlink="http://www.w3.org/1999/xlink" contentStyleType="text/css" data-diagram-type="CLASS" height="269px" preserveAspectRatio="none" style="width:354px;height:269px;background:#FFFFFF;" version="1.1" viewBox="0 0 354 269" width="354px" zoomAndPan="magnify">
  <defs/>
  <g font-family="sans-serif" lengthAdjust="spacing">
    <g class="title" data-source-line="1">
      <text fill="#000" font-size="14" font-weight="700" textLength="20.213" x="119.819" y="20.889">KO</text>
      <text fill="#000" font-size="14" font-weight="700" textLength="87.15" x="140.031" y="20.889">on V1.2020.16</text>
    </g>
    <!--entity n-->
    <g class="entity" data-qualified-name="n" data-source-line="2" id="ent0001">
      <polygon fill="#FFC0CB" points="10,57,20,47,175.125,47,175.125,243,165.125,253,10,253,10,57" style="stroke:#181818;stroke-width:0.5;stroke-linejoin:miter;stroke-miterlimit:10;"/>
      <line style="stroke:#181818;stroke-width:0.5;" x1="165.125" x2="175.125" y1="57" y2="47"/>
      <line style="stroke:#181818;stroke-width:0.5;" x1="10" x2="165.125" y1="57" y2="57"/>
      <line style="stroke:#181818;stroke-width:0.5;" x1="165.125" x2="165.125" y1="57" y2="253"/>
      <text fill="#000" font-size="14" font-weight="700" textLength="47.425" x="25" y="77.889">test list 1</text>
      <ellipse cx="30.5" cy="87.5" fill="#000" rx="2.5" ry="2.5"/>
      <text fill="#000" font-size="14" textLength="52.238" x="37" y="91.889">Bullet list</text>
      <ellipse cx="30.5" cy="101.5" fill="#000" rx="2.5" ry="2.5"/>
      <text fill="#000" font-size="14" textLength="73.938" x="37" y="105.889">Second item</text>
      <rect fill="#000" height="3.5" width="3.5" x="34" y="113"/>
      <text fill="#000" font-size="14" textLength="51.363" x="41" y="119.889">Sub item</text>
      <rect fill="#000" height="3.5" width="3.5" x="42" y="127"/>
      <text fill="#000" font-size="14" textLength="73.938" x="49" y="133.889">Sub sub item</text>
      <ellipse cx="30.5" cy="143.5" fill="#000" rx="2.5" ry="2.5"/>
      <text fill="#000" font-size="14" textLength="58.363" x="37" y="147.889">Third item</text>
      <line style="stroke:#181818;stroke-width:1;" x1="10" x2="165.125" y1="151" y2="151"/>
      <line style="stroke:#181818;stroke-width:1;" x1="165.125" x2="175.125" y1="151" y2="141"/>
      <text fill="#000" font-size="14" font-weight="700" textLength="47.425" x="25" y="165.889">test list 2</text>
      <text fill="#000" font-size="14" textLength="11.638" x="25" y="179.889">1.</text>
      <text fill="#000" font-size="14" textLength="82.513" x="40.488" y="179.889">Numbered list</text>
      <text fill="#000" font-size="14" textLength="11.638" x="25" y="193.889">2.</text>
      <text fill="#000" font-size="14" textLength="73.938" x="40.488" y="193.889">Second item</text>
      <text fill="#000" font-size="14" textLength="11.638" x="36.638" y="207.889">1.</text>
      <text fill="#000" font-size="14" textLength="51.363" x="52.125" y="207.889">Sub item</text>
      <text fill="#000" font-size="14" textLength="11.638" x="36.638" y="221.889">2.</text>
      <text fill="#000" font-size="14" textLength="98" x="52.125" y="221.889">Another sub item</text>
      <text fill="#000" font-size="14" textLength="11.638" x="25" y="235.889">3.</text>
      <text fill="#000" font-size="14" textLength="58.363" x="40.488" y="235.889">Third item</text>
    </g>
    <!--entity f-->
    <g class="entity" data-qualified-name="f" data-source-line="18" id="ent0002">
      <path d="M193,54.5 L193,245.5 A2.5,2.5 0 0 0 195.5,248 L335.625,248 A2.5,2.5 0 0 0 338.125,245.5 L338.125,62 L328.125,52 L195.5,52 A2.5,2.5 0 0 0 193,54.5" fill="#FFC0CB" style="stroke:#181818;stroke-width:0.5;"/>
      <path d="M328.125,52 L328.125,59.5 A2.5,2.5 0 0 0 330.625,62 L338.125,62" fill="#FFC0CB" style="stroke:#181818;stroke-width:0.5;"/>
      <text fill="#000" font-size="14" font-weight="700" textLength="47.425" x="203" y="72.889">test list 1</text>
      <ellipse cx="208.5" cy="82.5" fill="#000" rx="2.5" ry="2.5"/>
      <text fill="#000" font-size="14" textLength="52.238" x="215" y="86.889">Bullet list</text>
      <ellipse cx="208.5" cy="96.5" fill="#000" rx="2.5" ry="2.5"/>
      <text fill="#000" font-size="14" textLength="73.938" x="215" y="100.889">Second item</text>
      <rect fill="#000" height="3.5" width="3.5" x="212" y="108"/>
      <text fill="#000" font-size="14" textLength="51.363" x="219" y="114.889">Sub item</text>
      <rect fill="#000" height="3.5" width="3.5" x="220" y="122"/>
      <text fill="#000" font-size="14" textLength="73.938" x="227" y="128.889">Sub sub item</text>
      <ellipse cx="208.5" cy="138.5" fill="#000" rx="2.5" ry="2.5"/>
      <text fill="#000" font-size="14" textLength="58.363" x="215" y="142.889">Third item</text>
      <line style="stroke:#181818;stroke-width:1;" x1="194" x2="337.125" y1="146" y2="146"/>
      <text fill="#000" font-size="14" font-weight="700" textLength="47.425" x="203" y="160.889">test list 2</text>
      <text fill="#000" font-size="14" textLength="11.638" x="203" y="174.889">1.</text>
      <text fill="#000" font-size="14" textLength="82.513" x="218.488" y="174.889">Numbered list</text>
      <text fill="#000" font-size="14" textLength="11.638" x="203" y="188.889">2.</text>
      <text fill="#000" font-size="14" textLength="73.938" x="218.488" y="188.889">Second item</text>
      <text fill="#000" font-size="14" textLength="11.638" x="214.638" y="202.889">1.</text>
      <text fill="#000" font-size="14" textLength="51.363" x="230.125" y="202.889">Sub item</text>
      <text fill="#000" font-size="14" textLength="11.638" x="214.638" y="216.889">2.</text>
      <text fill="#000" font-size="14" textLength="98" x="230.125" y="216.889">Another sub item</text>
      <text fill="#000" font-size="14" textLength="11.638" x="203" y="230.889">3.</text>
      <text fill="#000" font-size="14" textLength="58.363" x="218.488" y="230.889">Third item</text>
    </g>
  </g>
</svg>
