<svg xmlns="http://www.w3.org/2000/svg" xmlns:xlink="http://www.w3.org/1999/xlink" contentStyleType="text/css" data-diagram-type="ACTIVITY" height="200px" preserveAspectRatio="none" style="width:113px;height:200px;background:#FFFFFF;" version="1.1" viewBox="0 0 113 200" width="113px" zoomAndPan="magnify">
  <defs/>
  <g font-family="sans-serif" lengthAdjust="spacing">
    <g class="start_entity" data-qualified-name="start" data-source-line="1" id="ent0001">
      <ellipse cx="51.5" cy="22" fill="#222" rx="10" ry="10" style="stroke:#222;stroke-width:1;"/>
    </g>
    <rect fill="#F1F1F1" height="44" rx="12.5" ry="12.5" style="stroke:#181818;stroke-width:0.5;" width="90.8" x="6" y="72"/>
    <text fill="#000" font-size="12" textLength="27.375" x="16" y="91.333">this is</text>
    <text fill="#000" font-size="12" textLength="70.8" x="16" y="103.333">on several line</text>
    <rect fill="#F1F1F1" height="32" rx="12.5" ry="12.5" style="stroke:#181818;stroke-width:0.5;" width="32.675" x="35" y="152"/>
    <text fill="#000" font-size="12" textLength="12.675" x="45" y="171.333">ok</text>
    <g class="link" data-entity-1="ent0001" data-entity-2="ent0002" data-link-type="dependency" id="lnk3">
      <polygon fill="#FF0" points="51.5,71.857,55.5,62.857,51.5,66.857,47.5,62.857,51.5,71.857" style="stroke:#FF0;stroke-width:1;stroke-linejoin:miter;stroke-miterlimit:10;"/>
      <path d="M51.5,36.229 C51.5,45.886 51.5,55.079 51.5,66.857" fill="none" style="stroke:#FF0;stroke-width:2;"/>
    </g>
    <g class="link" data-entity-1="ent0002" data-entity-2="ent0004" data-link-type="dependency" id="lnk5">
      <polygon fill="#F00" points="51.5,151.874,55.5,142.874,51.5,146.874,47.5,142.874,51.5,151.874" style="stroke:#F00;stroke-width:1;stroke-linejoin:miter;stroke-miterlimit:10;"/>
      <path d="M51.5,116.213 C51.5,127.662 51.5,136.525 51.5,146.874" fill="none" style="stroke:#F00;stroke-width:1;"/>
    </g>
  </g>
</svg>
